<svg width="194" height="293" viewBox="0 0 194 293" fill="none" xmlns="http://www.w3.org/2000/svg">
<path d="M61.8616 77.7716C65.3753 66.8599 68.1863 58.1947 68.1863 58.1947C68.1863 58.1947 56.591 54.0226 50.969 52.7389C45.347 51.1343 38.3195 52.7389 31.292 57.8738C17.237 68.4645 8.10126 88.3623 10.9123 104.088C11.9664 110.827 15.4801 114.358 19.6966 117.567C19.6966 117.567 31.292 126.553 41.4819 125.269C45.347 124.948 49.2121 112.753 54.4827 99.2739C57.9965 92.5344 60.8075 84.832 61.8616 77.7716Z" fill="#98509B"/>
<path d="M61.5102 77.7717C62.5643 74.8833 63.2671 72.3159 63.9698 69.7484C60.4561 68.4647 52.7258 65.8973 48.1579 64.9345C42.5359 63.3298 35.5084 64.9345 28.481 70.0694C19.6966 76.8089 12.6691 87.0787 9.50671 97.6695C9.50671 99.916 9.50671 101.842 9.85809 104.088C10.9122 110.828 14.426 114.358 18.6425 117.567C18.6425 117.567 30.2378 126.553 40.4277 125.27C44.2928 124.949 48.1579 112.753 53.4286 99.2741C57.9964 92.5346 60.8074 84.8322 61.5102 77.7717Z" fill="#FBCCF3"/>
<path d="M39.3736 127.516C29.1838 127.516 19.3453 120.134 17.9398 119.172C13.7233 115.962 9.85814 112.111 8.45264 104.409C5.64164 88.0414 14.7774 67.5018 29.5351 56.2692C36.914 50.8134 44.6442 48.8878 51.3204 50.8134C56.9424 52.0971 68.1864 56.2692 68.8891 56.2692L70.646 56.9111L70.2946 58.5157C70.2946 58.5157 67.835 67.1809 64.3212 77.7716C63.2671 85.153 60.4561 92.8554 56.2396 99.9158L54.1314 105.372C48.8607 119.493 46.0497 126.232 41.4819 126.874C40.7791 127.516 40.0764 127.516 39.3736 127.516ZM46.0497 54.0227C41.8332 54.0227 36.914 55.9483 32.3461 59.4785C18.6425 69.4274 10.2095 89.0042 12.6691 103.767C13.7233 109.544 16.5343 113.074 20.7508 115.962C24.6159 118.851 33.4002 123.986 40.7791 123.344C42.8874 122.702 46.7525 112.432 49.5635 104.409C50.2662 102.483 50.969 100.558 51.6717 98.6321C55.8882 91.8926 58.3479 84.1902 59.402 77.4507V77.1297C62.213 69.1064 63.9699 62.3669 65.024 59.4785C61.5102 58.1948 54.1314 55.6273 49.9149 54.6645C48.8607 54.3436 47.4552 54.0227 46.0497 54.0227Z" fill="#15100C"/>
<path d="M80.4845 71.9948C79.079 63.9715 74.8625 58.5157 68.8891 56.2692C62.213 54.0227 54.4828 55.9482 46.4011 61.4041C31.6434 72.6367 21.8049 94.46 24.6159 110.507C26.0214 118.53 30.2379 123.986 36.2113 126.232C37.9682 126.874 40.0764 127.195 42.1847 127.195C47.4553 127.195 53.0773 124.948 58.6993 121.097C73.457 110.186 83.2955 88.3623 80.4845 71.9948Z" fill="#15100C"/>
<path d="M65.7267 81.6228C67.1322 89.6461 62.213 100.237 55.1855 105.693C47.8066 111.148 41.1305 108.902 39.725 100.879C38.3195 92.8554 43.2387 82.2646 50.2662 76.8088C57.2937 71.6739 64.3212 73.5995 65.7267 81.6228Z" fill="#15100C"/>
<path d="M47.4553 110.827C46.4012 110.827 44.9957 110.506 43.9415 110.186C40.4278 108.902 37.9682 105.693 37.2654 101.52C35.8599 92.8553 40.7792 81.3017 48.5094 75.525C52.7259 72.3157 57.2938 71.3529 61.1589 72.6366C64.6727 73.9203 67.1323 77.1296 67.835 81.3017C69.2405 89.9669 64.3213 101.52 56.591 107.297C53.4287 109.544 50.2663 110.827 47.4553 110.827ZM57.9965 76.1668C56.2397 76.1668 53.78 77.1296 51.6718 78.7343C44.9957 83.5483 40.4278 93.8181 41.8333 100.879C42.1847 103.767 43.5902 106.013 45.6984 106.655C47.8067 107.297 50.969 106.655 53.78 104.409C60.4562 99.5948 65.024 89.325 63.6185 82.2645C63.2672 79.3762 61.8617 77.1296 59.7534 76.4878C59.0507 76.1668 58.3479 76.1668 57.9965 76.1668Z" fill="#98509B"/>
<path d="M190.816 266.158C184.843 242.73 171.49 206.144 145.84 192.344C140.921 189.776 134.245 186.246 130.731 184L128.974 168.274C130.38 167.632 131.785 166.99 133.191 166.027H133.542L134.245 165.706C137.758 163.46 140.569 160.892 141.624 156.079L143.732 148.055L150.759 119.492C151.111 118.53 151.111 117.567 151.462 116.604L151.813 115.962C152.165 113.716 152.516 111.469 152.516 109.223C152.868 84.1899 133.893 53.3806 110.351 40.5433C99.4586 34.7665 90.6742 33.1619 82.944 36.3712L81.8898 36.6921L80.8357 37.0131C79.7816 37.334 79.0788 37.9759 78.3761 38.2968L58.3477 48.2457L57.2936 50.1712L67.1321 56.9108C66.7807 58.8364 66.7807 60.762 66.7807 62.6876C66.7807 64.9341 66.7807 66.8597 67.1321 69.4271V70.069L67.4835 71.6736C67.8349 72.9574 67.8348 73.9202 68.1862 75.2039L76.2678 120.776C77.6733 128.799 82.2412 139.711 88.2146 148.055L86.1063 160.251C82.2412 158.325 75.5651 154.153 70.9972 151.586C61.1587 146.13 53.7799 145.809 47.1037 148.697L45.6982 149.339L43.2386 150.623L25.6699 159.609L29.535 165.386C27.4268 168.916 25.6699 172.767 24.2644 176.297C21.102 184 27.4268 196.837 36.5625 201.972L105.783 239.521L108.946 240.804L162.355 269.688C163.057 275.465 164.112 283.488 164.814 287.66C165.166 288.944 166.571 289.586 167.977 288.944L187.302 278.995C190.816 277.391 192.573 272.577 190.816 266.158Z" fill="#98509B"/>
<path d="M190.816 275.144C184.843 251.716 171.49 215.13 145.84 201.33C140.921 198.762 134.245 195.232 130.731 192.986L128.974 177.26C130.38 176.618 127.92 174.372 129.677 173.409L127.569 172.446L130.028 165.706C133.542 163.46 137.056 165.065 137.758 160.251L143.732 156.72L150.759 128.158C151.111 127.195 151.111 126.232 151.462 125.269L151.813 124.627C152.165 122.381 152.516 120.134 152.516 117.888C152.868 92.8551 133.893 62.0457 110.351 49.2085C99.4586 43.4317 90.6742 41.8271 82.944 45.0364L81.8898 45.3573L80.8357 45.9992C79.7816 46.3201 79.0788 46.9619 78.3761 47.2829L58.3477 57.2317L57.2936 59.1573L67.1321 65.8969C66.7807 67.8225 66.7807 69.7481 66.7807 71.6736C66.7807 73.9202 66.7807 75.8458 67.1321 78.4132V79.0551L67.4835 80.6597C67.8349 81.9434 67.8349 82.9062 68.1862 84.19L76.2678 129.762C77.6733 137.785 82.2412 148.697 88.2146 157.041L86.1063 169.237C82.2412 167.311 75.5651 163.139 70.9972 160.572C61.1587 155.116 53.7799 154.795 47.1037 157.683L45.6982 158.004L43.2386 159.288L25.6699 168.274L29.535 174.051C27.4268 177.581 25.6699 181.432 24.2644 184.962C21.102 192.665 27.4268 205.502 36.5625 210.637L105.783 248.186L108.946 249.79L162.355 278.674C163.057 284.451 158.138 283.167 158.841 287.018C159.192 288.302 160.598 288.944 162.003 288.302L181.329 278.353C184.843 276.749 192.573 281.242 190.816 275.144Z" fill="#FBCCF3"/>
<path d="M166.923 291.191C166.22 291.191 165.517 291.191 165.166 290.87C163.76 290.228 163.058 289.265 162.706 287.981C162.003 284.13 160.949 276.749 160.247 270.972L35.5085 203.576C25.3186 198.121 18.6425 184.321 22.1562 175.655C23.5617 172.125 25.3186 168.595 27.0755 165.386L22.5076 158.967L45.3469 147.414C53.0772 143.883 61.1588 144.846 71.3487 150.302C73.8083 151.586 76.9707 153.511 80.1331 155.116C81.5386 155.758 82.5927 156.721 83.9982 157.362L85.4037 148.697C79.4303 140.674 74.8624 129.762 73.4569 121.418L65.3753 74.883C65.0239 73.9202 65.0239 73.2784 65.0239 72.3156L64.6726 70.39C64.3212 67.5016 64.3212 65.897 64.3212 63.3295C64.3212 61.7249 64.3212 60.1202 64.6726 58.5156L54.4827 51.4551L56.5909 47.283L77.3221 37.0132C78.0248 36.6922 79.0789 36.0504 80.1331 35.7294L81.8899 35.0876C89.9715 31.8783 99.4587 33.4829 111.054 39.5806C135.299 52.0969 154.625 83.8691 154.273 109.223C154.273 111.148 153.922 113.074 153.922 114.999L153.57 117.246C153.219 118.209 153.219 119.172 152.868 120.134L143.732 156.721C142.326 162.497 138.461 165.386 135.65 167.311L135.299 167.632C133.893 168.274 132.839 168.916 131.785 169.558L133.191 182.716L147.597 190.418C173.247 204.218 186.6 238.879 193.276 265.516C195.033 272.577 193.276 278.353 188.708 280.6L169.382 290.549C168.328 291.191 167.625 291.191 166.923 291.191ZM28.8323 159.93L32.3461 164.744L31.6433 166.028C29.8865 169.237 28.1296 172.767 26.3727 176.618C23.5617 183.358 29.5351 195.232 37.9681 199.725L164.463 268.405V269.367C165.166 275.144 166.22 283.167 166.923 287.019L186.248 277.07C189.059 275.786 189.762 271.614 188.708 266.479C183.437 245.298 170.436 207.749 144.786 193.949L128.623 185.283L126.866 167.311L128.271 166.669C129.677 166.028 131.082 165.386 132.488 164.423L133.191 164.102C137.056 161.855 138.813 159.288 139.515 155.758L148.651 119.172C149.003 118.209 149.003 117.246 149.354 116.604V115.962C149.705 113.716 150.057 111.469 150.057 109.223C150.408 84.8319 131.785 54.9853 108.946 42.469C98.7559 37.0132 90.6743 35.7294 83.6468 38.2969L82.2413 38.9387C81.1872 39.2597 80.4844 39.5806 79.7817 40.2225L60.4561 50.1713L69.5918 56.59L69.2404 57.8737C68.8891 59.7993 68.8891 61.7249 68.8891 63.3295C68.8891 65.897 68.8891 67.5016 69.2404 69.7481V70.0691L69.5918 71.9947C69.5918 72.9575 69.9432 73.5993 69.9432 74.2412L70.2946 75.5249L78.3762 121.097C79.7817 129.12 84.3496 139.711 89.9715 147.414L90.3229 148.055L87.8633 164.102L85.0523 162.497C83.2954 161.534 80.8358 160.251 78.3762 158.646C75.5652 157.041 72.4028 155.116 69.9432 153.832C61.1588 149.018 54.4827 148.376 47.8066 151.265L46.4011 150.944L28.8323 159.93Z" fill="#16110D"/>
<path d="M169.382 277.07C163.409 253.642 150.057 217.056 124.406 203.256C119.487 200.688 112.811 197.158 109.297 194.911L107.54 179.186C112.46 176.939 118.433 173.73 119.838 166.99L121.947 158.967L128.974 130.404C129.326 129.441 129.326 128.479 129.677 127.516L130.028 126.874C130.38 124.627 130.731 122.381 130.731 120.134C131.082 95.1017 112.108 64.2923 88.566 51.4551C65.0239 38.6178 45.6983 48.5667 45.3469 73.5993C45.3469 75.8458 45.3469 77.7714 45.6983 80.3389V80.9807L46.0497 82.5854C46.4011 83.8691 46.4011 84.8319 46.7524 86.1156L54.4827 131.688C55.8882 139.711 60.456 150.623 66.4294 158.967L64.3212 171.162C60.456 169.237 53.7799 165.065 49.2121 162.497C23.5617 148.697 9.5067 170.2 3.18195 186.888C0.019578 194.59 6.34433 207.428 15.4801 212.563L84.7009 250.111L87.8633 251.716L156.381 288.944C165.517 294.079 172.193 287.981 169.382 277.07Z" fill="#98509B"/>
<path d="M162.706 292.795C160.598 292.795 158.138 292.154 155.327 290.87L14.426 214.488C4.23616 209.032 -2.43996 195.232 1.07379 186.567C5.29028 175.655 13.0205 161.855 26.0214 157.683C33.4003 155.116 41.8333 156.4 50.6176 161.214C53.0773 162.497 56.2396 164.423 59.402 166.028C60.8075 166.669 62.213 167.632 63.2671 168.274L64.6726 159.609C58.6992 151.586 54.1314 140.674 52.7259 132.33L44.6443 85.7948C44.2929 84.832 44.2929 84.1901 44.2929 83.2273L43.9415 81.3017C43.5901 78.4133 43.5901 76.4878 43.5901 74.2412C43.5901 61.404 48.8608 51.776 57.6451 47.283C66.4295 42.79 78.0249 43.7528 90.323 50.4923C114.568 63.6505 133.893 95.1018 133.542 120.776C133.542 122.702 133.191 124.627 133.191 126.553L131.785 128.479C131.434 129.441 131.434 130.404 131.082 131.367L121.947 167.953C120.541 174.693 115.271 178.223 109.649 180.79L111.054 193.949L125.46 201.651C151.111 215.451 164.463 250.112 171.139 276.749C172.896 283.167 171.491 288.623 167.625 291.191C166.22 292.154 164.463 292.795 162.706 292.795ZM33.7516 160.251C31.6434 160.251 29.5351 160.572 27.4269 161.214C16.1829 164.744 9.15541 177.581 5.29028 187.851C2.47928 194.59 8.45266 206.465 16.8857 210.958L157.787 287.34C160.949 288.944 163.76 289.265 165.517 287.981C167.977 286.377 168.68 282.526 167.625 277.712C162.355 256.53 149.354 218.981 123.704 205.181L107.54 196.516L105.432 178.544L106.838 177.902C112.108 175.655 116.676 172.767 118.082 166.99L127.217 130.404C127.569 129.441 127.569 128.479 127.92 127.837V127.195C128.271 124.948 128.623 122.702 128.623 120.455C128.974 96.0646 110.351 66.218 87.512 53.7016C76.6194 47.9249 66.7809 46.9621 59.402 50.4923C52.0231 54.3435 47.8066 62.6877 47.4553 74.2412C47.4553 76.4878 47.4553 78.0924 47.8066 80.6599V80.9808L48.158 82.9064C48.158 83.8692 48.5094 84.511 48.5094 85.1529L48.8608 86.4366L56.9424 132.009C58.3479 140.032 62.9157 150.623 68.5377 158.325L68.8891 158.967L66.4295 175.014L63.2671 173.088C61.5102 172.125 59.0506 170.842 56.591 169.237C53.78 167.632 50.6176 165.707 48.158 164.423C42.8874 161.535 37.9681 160.251 33.7516 160.251Z" fill="#16110D"/>
<path d="M131.082 118.85L152.165 106.655L152.868 111.79L141.624 158.004L134.948 165.706L129.677 168.274L131.434 184.32L109.297 195.553L107.892 179.506L119.487 173.088L121.595 161.534L131.082 118.85Z" fill="#16110D"/>
<path d="M163.76 263.911L186.6 252.037L191.519 268.404L191.168 274.181L186.951 279.958L167.274 288.623L168.68 279.958L166.22 267.442L163.76 263.911Z" fill="#16110D"/>
<path d="M165.517 126.553C169.031 115.641 171.842 106.976 171.842 106.976C171.842 106.976 160.247 102.804 154.625 101.52C149.003 99.9158 142.326 101.52 134.948 106.655C120.893 117.246 111.757 137.144 114.568 152.869C115.622 159.609 119.136 163.139 123.352 166.349C123.352 166.349 134.245 174.693 143.381 174.051C147.246 173.73 152.868 161.855 158.138 148.376C162.003 141.316 164.814 133.614 165.517 126.553Z" fill="#98509B"/>
<path d="M134.947 118.209C124.406 125.911 116.676 139.07 114.568 151.907C114.568 152.228 114.568 152.549 114.568 152.87C115.622 159.609 119.136 163.139 123.352 166.349C123.352 166.349 134.245 174.693 143.38 174.051C147.246 173.73 152.868 161.856 158.138 148.377C162.355 141.637 164.814 133.935 165.868 126.874C166.923 123.665 167.977 120.456 168.679 117.888C164.814 116.604 158.138 114.358 154.273 113.395C149.002 111.469 142.326 113.074 134.947 118.209Z" fill="#FBCCF3"/>
<path d="M141.975 175.976C132.839 175.976 123.001 168.595 121.595 167.953C117.379 164.744 113.514 160.572 112.108 153.19C109.297 136.823 118.433 116.283 133.542 105.372C140.921 99.9158 148.651 97.9902 155.327 99.9158C160.949 101.2 172.193 105.372 172.896 105.372L174.653 106.013L174.302 107.618C174.302 107.618 171.842 116.283 168.328 126.874C167.274 134.255 164.463 141.958 160.247 149.018C151.462 172.125 146.894 175.656 143.732 175.976C143.029 175.976 142.326 175.976 141.975 175.976ZM150.057 102.804C145.84 102.804 140.921 104.73 136.353 108.26C122.649 118.209 114.216 137.786 116.676 152.549C117.73 158.325 120.541 161.855 124.758 164.744C128.271 167.311 136.704 172.446 143.029 171.804C143.381 171.804 147.246 170.2 156.03 147.414C160.247 140.674 162.706 133.293 163.76 126.232V125.911C166.571 117.888 168.328 111.148 169.382 108.26C165.869 106.976 158.49 104.409 154.273 103.446C152.868 103.125 151.462 102.804 150.057 102.804Z" fill="#15100C"/>
<path d="M182.032 121.097C184.843 136.823 175.356 157.683 161.301 168.274C147.246 178.865 133.542 174.693 130.731 158.967C127.92 143.241 137.407 122.381 151.462 111.79C165.868 101.52 179.221 105.693 182.032 121.097Z" fill="#140F0C"/>
<path d="M146.192 176.297C144.083 176.297 142.326 175.977 140.218 175.335C133.893 173.088 129.677 167.632 128.623 159.609C125.812 143.562 135.65 121.418 150.057 110.507C157.787 104.73 165.869 102.804 172.545 105.372C178.869 107.618 183.086 113.074 184.14 121.097C186.951 137.144 177.113 159.288 162.706 170.2C157.084 174.051 151.462 176.297 146.192 176.297ZM166.571 108.26C162.355 108.26 157.436 110.186 152.868 113.716C139.164 123.665 130.38 144.204 132.839 158.967C133.893 165.386 137.056 169.879 141.975 171.483C146.894 173.409 153.57 171.483 159.895 166.99C173.599 157.042 182.383 136.502 179.924 121.739C178.869 115.321 175.707 110.827 170.788 109.223C169.734 108.581 168.328 108.26 166.571 108.26Z" fill="#15100C"/>
<path d="M183.086 126.553C185.194 139.069 177.815 155.758 166.571 164.102C155.327 172.446 144.435 169.237 142.326 156.721C140.218 144.204 147.597 127.516 158.841 119.172C170.085 110.827 180.978 114.037 183.086 126.553Z" fill="#140F0C"/>
<path d="M154.625 170.521C152.868 170.521 151.462 170.2 149.705 169.558C144.786 167.632 141.272 163.139 140.218 156.721C138.11 143.883 145.84 125.911 157.436 117.246C163.76 112.753 170.085 111.149 175.707 113.074C180.626 115 184.14 119.493 185.194 125.911C187.302 138.749 179.572 156.721 167.977 165.386C163.409 168.916 158.841 170.521 154.625 170.521ZM170.788 116.604C167.625 116.604 163.76 117.888 160.246 120.776C149.705 128.8 142.326 144.525 144.435 156.4C145.137 161.535 147.597 164.744 151.462 166.028C155.327 167.311 160.247 166.028 165.166 162.498C175.707 154.474 183.086 138.749 180.978 126.874C180.275 121.739 177.815 118.53 173.95 117.246C172.896 116.604 171.842 116.604 170.788 116.604Z" fill="#98509B"/>
<path d="M54.4827 164.744C53.0772 166.027 50.9689 166.348 49.5634 165.065L36.2112 154.795C23.5617 145.167 24.9672 130.725 28.4809 122.06C29.1837 120.134 31.2919 119.492 33.4002 120.455C34.8057 121.097 35.8598 122.702 35.1571 124.306C33.0488 129.441 30.2378 141.637 40.7791 149.981L54.1313 160.251C55.5368 161.534 55.5368 163.46 54.4827 164.744Z" fill="#140F0C"/>
<path d="M51.6717 167.953C50.2662 167.953 49.2121 167.632 48.158 166.669L34.8057 156.399C22.5076 146.772 22.1562 132.009 26.3727 121.418C26.7241 120.134 28.1296 118.851 29.5351 118.53C30.9406 117.888 32.6975 117.888 34.103 118.53C36.5626 119.813 37.9681 122.381 36.914 124.948C34.8057 130.725 32.6975 141.316 42.1846 148.376L55.5368 158.646C57.9965 160.572 58.3478 163.781 56.2396 166.027C55.1855 166.99 53.78 167.632 52.3745 167.953C52.0231 167.953 52.0231 167.953 51.6717 167.953ZM31.6434 122.06H31.292C30.9406 122.06 30.5892 122.381 30.5892 122.702C28.8324 127.195 24.2645 142.92 37.6167 153.19L50.969 163.46C51.3203 163.781 51.6717 163.781 52.0231 163.781C52.3745 163.781 52.7258 163.46 52.7258 163.46C53.0772 162.818 53.0772 162.176 52.7258 161.855L39.3736 151.586C27.4269 142.599 30.9406 129.12 33.0489 123.665C33.4002 123.023 33.0489 122.381 32.3461 122.381C31.9947 122.06 31.6434 122.06 31.6434 122.06Z" fill="#15100C"/>
<path d="M34.4544 118.53C33.0489 117.888 31.292 117.888 29.8865 118.53C29.1838 118.851 28.8324 119.171 28.1296 119.492C28.8324 120.776 29.8865 121.739 30.5893 122.702C30.5893 122.381 30.9406 122.381 31.292 122.381H31.6434C31.9948 122.381 31.9948 122.381 32.3461 122.381C33.0489 122.702 33.0489 123.344 33.0489 123.665C33.0489 123.985 33.0489 123.985 32.6975 124.306C33.7516 125.269 35.1571 125.911 36.5626 126.232C36.5626 125.59 36.914 125.269 36.914 124.948C38.3195 122.381 36.914 119.813 34.4544 118.53Z" fill="#98509B"/>
<path d="M71.7 163.139C72.7541 169.236 68.1863 175.013 61.5102 175.976C54.834 176.939 48.5093 172.767 47.4552 166.669C46.401 160.571 50.9689 154.795 57.645 153.832C64.3211 152.869 70.6459 157.041 71.7 163.139Z" fill="#98509B"/>
<path d="M57.6451 159.288C52.7258 159.93 48.8607 163.139 47.8066 167.311C49.2121 172.767 55.1854 176.618 61.5102 175.655C66.4294 175.013 70.2946 171.804 71.3487 167.632C69.5918 162.176 63.9698 158.325 57.6451 159.288Z" fill="#FBCCF3"/>
<path d="M73.8082 162.818C73.1055 159.288 71.3486 156.399 68.1862 154.153C65.0239 152.227 61.1587 151.264 57.2936 151.906C49.5634 152.869 43.9414 159.93 45.3469 166.99C46.401 173.409 52.7258 178.223 59.7532 178.223C60.456 178.223 61.1587 178.223 61.8615 178.223C69.5917 176.939 75.2137 170.199 73.8082 162.818ZM57.9964 155.757C58.3477 155.757 59.0505 155.757 59.4019 155.757C60.456 155.757 61.5101 155.757 62.5642 156.078C62.5642 156.078 62.5642 156.078 62.5642 156.399C63.6184 162.497 59.0505 168.274 52.3744 169.237C51.6716 169.237 51.3203 169.237 50.6175 169.237C50.2661 168.274 49.5634 167.311 49.5634 166.348C48.8606 161.213 52.7258 156.72 57.9964 155.757Z" fill="#15100C"/>
<path d="M46.7526 57.2318C48.8609 53.3806 51.3205 50.4922 54.8343 48.2457C59.0508 37.655 67.4838 21.2875 82.5929 13.9061C93.1341 8.77117 105.784 8.77117 120.19 13.9061C168.328 31.5573 156.03 86.4365 151.814 101.199C151.111 103.446 152.516 105.371 154.625 106.013C157.084 106.655 159.544 105.371 160.247 103.125C164.815 87.0784 177.464 26.4224 123.704 6.52465C106.838 0.426955 91.7286 0.426954 78.7278 6.84558C56.9425 17.4363 47.4554 42.4689 44.293 52.4178C43.5903 54.3434 44.9958 56.269 46.7526 57.2318Z" fill="#140F0C"/>
<path d="M156.03 108.26C155.327 108.26 154.625 108.26 153.922 107.939C150.76 106.976 148.651 103.767 149.705 100.879C154.273 85.1529 165.517 32.8411 119.487 15.8318C105.784 10.6969 93.8368 10.6969 83.6469 15.8318C68.8892 23.2132 60.4562 39.5807 56.9424 48.8877L56.5911 49.5295L56.2397 49.8505C53.0773 51.7761 50.6177 54.6644 48.8608 57.8737L47.8067 59.4784L46.0498 58.8365C42.8874 57.5528 41.1306 54.6644 42.1847 51.7761C45.3471 41.5063 55.1856 16.1527 77.6735 5.24102C91.3772 -1.49853 107.189 -1.49853 124.406 4.92009C179.221 25.1388 167.274 85.7948 162.355 103.767C162.003 105.372 160.949 106.655 159.192 107.618C158.138 107.939 157.084 108.26 156.03 108.26ZM100.162 8.12941C106.838 8.12941 113.865 9.41313 121.244 12.3015C170.436 30.5946 158.841 85.4738 153.922 101.841C153.571 102.804 154.273 103.767 155.327 104.088C156.03 104.409 156.382 104.088 157.084 104.088C157.436 103.767 158.138 103.446 158.138 102.804C163.058 85.4738 174.302 27.3853 122.65 8.45034C106.486 2.35264 92.0799 2.67357 79.4304 8.77127C58.3479 19.0411 49.2122 43.1109 46.0498 53.0598C46.0498 53.3807 46.0498 53.7016 46.0498 54.0226C47.8067 51.4551 50.2663 48.8877 52.7259 47.283C57.6452 35.4086 66.0782 20.0039 81.1873 12.6224C87.512 9.41313 93.4854 8.12941 100.162 8.12941Z" fill="#15100C"/>
</svg>
