<svg width="23" height="16" viewBox="0 0 23 16" fill="none" xmlns="http://www.w3.org/2000/svg">
<path d="M21.2366 0.133789H1.63359C1.20033 0.133789 0.784824 0.298164 0.478467 0.590755C0.17211 0.883345 0 1.28018 0 1.69397V14.1754C0 14.5892 0.17211 14.986 0.478467 15.2786C0.784824 15.5712 1.20033 15.7356 1.63359 15.7356H21.2366C21.6699 15.7356 22.0854 15.5712 22.3918 15.2786C22.6981 14.986 22.8702 14.5892 22.8702 14.1754V1.69397C22.8702 1.28018 22.6981 0.883345 22.3918 0.590755C22.0854 0.298164 21.6699 0.133789 21.2366 0.133789ZM19.4397 1.69397L11.4351 6.98297L3.43053 1.69397H19.4397ZM1.63359 14.1754V2.40385L10.9695 8.57435C11.1063 8.66494 11.2687 8.71349 11.4351 8.71349C11.6015 8.71349 11.764 8.66494 11.9007 8.57435L21.2366 2.40385V14.1754H1.63359Z" fill="black"/>
</svg>
