<?xml version="1.0" encoding="utf-8"?>
<!-- Generator: Adobe Illustrator 18.0.0, SVG Export Plug-In . SVG Version: 6.00 Build 0)  -->
<!DOCTYPE svg PUBLIC "-//W3C//DTD SVG 1.1//EN" "http://www.w3.org/Graphics/SVG/1.1/DTD/svg11.dtd">
<svg version="1.1" id="Слой_1" xmlns="http://www.w3.org/2000/svg" xmlns:xlink="http://www.w3.org/1999/xlink" x="0px" y="0px"
	 viewBox="0 0 30 20" width='30' height='20' enable-background="new 0 0 30 20" xml:space="preserve">
<path fill="#FFFFFF" d="M27.8,0H2.1C1.6,0,1,0.3,0.5,0.6C0.3,1,0,1.5,0,2v16c0,0.5,0.3,1,0.7,1.4S1.6,20,2.1,20h25.7
	c0.5,0,1-0.3,1.6-0.6c0.4-0.4,0.7-0.9,0.7-1.4V2c0-0.5-0.3-1-0.7-1.4C29,0.3,28.4,0,27.8,0z M25.4,2L14.9,8.8L4.5,2H25.4z M2.1,18.1
	V2.9l12.3,7.9c0.1,0.1,0.4,0.1,0.5,0.1c0.1,0,0.4,0,0.7-0.1l12.2-7.9v15.1H2.1z"/>
</svg>
