<?xml version="1.0" encoding="utf-8"?>
<!-- Generator: Adobe Illustrator 23.1.0, SVG Export Plug-In . SVG Version: 6.00 Build 0)  -->
<svg version="1.1" id="Слой_1" xmlns="http://www.w3.org/2000/svg" xmlns:xlink="http://www.w3.org/1999/xlink" x="0px" y="0px"
	 viewBox="0 0 120 120" style="enable-background:new 0 0 120 120;" xml:space="preserve">
<style type="text/css">
	.st0{fill:#620E66;}
</style>
<g>
	<path class="st0" d="M41,56.4l-0.3,42.2c-7.5-0.2-13.5-6.4-13.5-14l0.2-33L41,56.4z"/>
	<path class="st0" d="M84.5,56.5l0.1,42.2C92,98.6,98,92.4,98,84.8v-33L84.5,56.5z"/>
	<path class="st0" d="M57.8,99h10.4c1.6,0,2.9-1.3,2.9-2.9V50.3c0-1.3,0.8-2.4,2-2.7l23.8-7.2c1.6-0.5,2.4-2.2,1.9-3.7l-3-8.4
		c-0.5-1.4-2-2.2-3.5-1.8l-28.6,7.6c-0.5,0.1-1,0.1-1.5,0l-28.7-7.6c-1.5-0.4-3,0.4-3.5,1.8l-3,8.4c-0.5,1.6,0.3,3.3,1.9,3.7
		l23.8,7.2c1.2,0.3,2,1.5,2,2.7v45.9C54.9,97.7,56.2,99,57.8,99z"/>
</g>
</svg>
