<svg version="1.1" id="Слой_1" xmlns="http://www.w3.org/2000/svg" xmlns:xlink="http://www.w3.org/1999/xlink" x="0px" y="0px" width="699" height="500"
	 viewBox="157.4 17.3 412.8 431.3" enable-background="new 157.4 17.3 412.8 431.3" xml:space="preserve">
	<g>
		<path d="M402.2,447.3c0-0.7-1.1-1.3-2.5-1.3c-1.4,0-2.5,0.5-2.5,1.2c0,0.7,1.1,1.3,2.5,1.3C401.1,448.6,402.2,448,402.2,447.3z"/>
		<path d="M416.5,447.1c0-0.7-1.1-1.3-2.5-1.3c-1.4,0-2.5,0.5-2.5,1.2c0,0.7,1.1,1.3,2.5,1.3C415.4,448.4,416.5,447.8,416.5,447.1z"
			/>
		<path d="M485.5,447.1c0-0.7-1.1-1.3-2.5-1.3c-1.4,0-2.5,0.5-2.5,1.2c0,0.7,1.1,1.3,2.5,1.3C484.4,448.3,485.5,447.8,485.5,447.1z"
			/>
		<path d="M508.3,438.7c0-0.7-1.1-1.3-2.5-1.3c-1.4,0-2.5,0.5-2.5,1.2c0,0.7,1.1,1.3,2.5,1.3C507.2,440,508.3,439.4,508.3,438.7z"/>
		<path d="M389,447.3c0-0.7-1.1-1.3-2.5-1.3c-1.4,0-2.5,0.5-2.5,1.2c0,0.7,1.1,1.3,2.5,1.3C387.9,448.6,389,448,389,447.3z"/>
		<path d="M494.4,438.8c0-0.7-1.1-1.3-2.5-1.3c-1.4,0-2.5,0.5-2.5,1.2c0,0.7,1.1,1.3,2.5,1.3C493.2,440,494.4,439.5,494.4,438.8z"/>
		<path d="M374.8,447.2c0-0.7-1.1-1.3-2.5-1.3c-1.4,0-2.5,0.5-2.5,1.2c0,0.7,1.1,1.3,2.5,1.3C373.7,448.5,374.8,447.9,374.8,447.2z"
			/>
		<path d="M445.9,447.2c0-0.7-1.1-1.3-2.5-1.3c-1.4,0-2.5,0.5-2.5,1.2c0,0.7,1.1,1.3,2.5,1.3C444.7,448.4,445.9,447.9,445.9,447.2z"
			/>
		<path d="M473.6,447.1c0-0.7-1.1-1.3-2.5-1.3c-1.4,0-2.5,0.5-2.5,1.2c0,0.7,1.1,1.3,2.5,1.3C472.5,448.3,473.6,447.8,473.6,447.1z"
			/>
		<path d="M430.9,447.1c0-0.7-1.1-1.3-2.5-1.3c-1.4,0-2.5,0.5-2.5,1.2c0,0.7,1.1,1.3,2.5,1.3C429.7,448.4,430.9,447.8,430.9,447.1z"
			/>
		<path d="M459.7,447.1c0-0.7-1.1-1.3-2.5-1.3c-1.4,0-2.5,0.5-2.5,1.2c0,0.7,1.1,1.3,2.5,1.3C458.6,448.3,459.7,447.8,459.7,447.1z"
			/>
		<path d="M409.6,440.3c0-0.7-1.1-1.3-2.5-1.3c-1.4,0-2.5,0.5-2.5,1.2c0,0.7,1.1,1.3,2.5,1.3C408.4,441.6,409.5,441,409.6,440.3z"/>
		<path d="M423.9,440.1c0-0.7-1.1-1.3-2.5-1.3c-1.4,0-2.5,0.5-2.5,1.2c0,0.7,1.1,1.3,2.5,1.3C422.7,441.4,423.9,440.8,423.9,440.1z"
			/>
		<path d="M396.5,440.3c0-0.7-1.1-1.3-2.5-1.3c-1.4,0-2.5,0.5-2.5,1.2c0,0.7,1.1,1.3,2.5,1.3C395.4,441.5,396.5,441,396.5,440.3z"/>
		<path d="M453.2,440.1c0-0.7-1.1-1.3-2.5-1.3c-1.4,0-2.5,0.5-2.5,1.2c0,0.7,1.1,1.3,2.5,1.3C452.1,441.3,453.2,440.8,453.2,440.1z"
			/>
		<path d="M480.9,440.1c0-0.7-1.1-1.3-2.5-1.3c-1.4,0-2.5,0.5-2.5,1.2c0,0.7,1.1,1.3,2.5,1.3C479.8,441.3,480.9,440.8,480.9,440.1z"
			/>
		<path d="M438.2,440.1c0-0.7-1.1-1.3-2.5-1.3c-1.4,0-2.5,0.5-2.5,1.2c0,0.7,1.1,1.3,2.5,1.3C437.1,441.4,438.2,440.8,438.2,440.1z"
			/>
		<path d="M467.1,440.1c0-0.7-1.1-1.3-2.5-1.3c-1.4,0-2.5,0.5-2.5,1.2c0,0.7,1.1,1.3,2.5,1.3C466,441.3,467.1,440.8,467.1,440.1z"/>
		<path d="M416.6,433.7c0-0.7-1.1-1.3-2.5-1.3c-1.4,0-2.5,0.5-2.5,1.2c0,0.7,1.1,1.3,2.5,1.3C415.5,434.9,416.6,434.4,416.6,433.7z"
			/>
		<path d="M430.9,433.4c0-0.7-1.1-1.3-2.5-1.3c-1.4,0-2.5,0.5-2.5,1.2c0,0.7,1.1,1.3,2.5,1.3C429.8,434.7,430.9,434.1,430.9,433.4z"
			/>
		<path d="M403.5,433.6c0-0.7-1.1-1.3-2.5-1.3c-1.4,0-2.5,0.5-2.5,1.2c0,0.7,1.1,1.3,2.5,1.3C402.4,434.9,403.5,434.3,403.5,433.6z"
			/>
		<path d="M460.3,433.5c0-0.7-1.1-1.3-2.5-1.3c-1.4,0-2.5,0.5-2.5,1.2c0,0.7,1.1,1.3,2.5,1.3C459.1,434.7,460.3,434.2,460.3,433.5z"
			/>
		<path d="M488,433.4c0-0.7-1.1-1.3-2.5-1.3c-1.4,0-2.5,0.5-2.5,1.2c0,0.7,1.1,1.3,2.5,1.3C486.9,434.6,488,434.1,488,433.4z"/>
		<path d="M445.3,433.4c0-0.7-1.1-1.3-2.5-1.3c-1.4,0-2.5,0.5-2.5,1.2c0,0.7,1.1,1.3,2.5,1.3C444.1,434.7,445.2,434.1,445.3,433.4z"
			/>
		<path d="M474.1,433.4c0-0.7-1.1-1.3-2.5-1.3c-1.4,0-2.5,0.5-2.5,1.2c0,0.7,1.1,1.3,2.5,1.3C473,434.6,474.1,434.1,474.1,433.4z"/>
		<path d="M499,447.1c0-0.7-1.1-1.3-2.5-1.3c-1.4,0-2.5,0.5-2.5,1.2c0,0.7,1.1,1.3,2.5,1.3C497.8,448.4,499,447.8,499,447.1z"/>
		<path d="M501.5,432.4c0-0.7-1.1-1.3-2.5-1.3c-1.4,0-2.5,0.5-2.5,1.2c0,0.7,1.1,1.3,2.5,1.3C500.4,433.6,501.5,433,501.5,432.4z"/>
		<path fill="#98509B" stroke="#000000" stroke-width="2" stroke-miterlimit="10" d="M360.7,444.7c111.4,0,201.8-95.7,201.8-213.7
			c0-118-90.3-213.7-201.8-213.7S158.9,113,158.9,231C158.9,349,249.2,444.7,360.7,444.7z"/>
		<path fill="#FFE1FA" d="M329.3,28.4c-23.8-5.3-47.9,9-70.6,22.5c-8.9,5.3-41.9,25.9-66.4,68.9c-9,15.7-22.7,40.4-24.7,75.4
			c-0.9,16.7-2.5,45.4,15,72.5c19.2,29.6,48.8,37.8,58.9,40.6c27.5,7.6,50,2,65.7-2.2c12.1-3.2,56.8-15,81.5-48.6
			C439.8,188,391.6,42.3,329.3,28.4z"/>
		<path fill="none" stroke="#000000" stroke-width="2" stroke-miterlimit="10" d="M362.3,17.4c-10.2,10.8-36.2,41.3-47.2,58
			c-64.2,97.9-74.9,256.8,50.7,369.3"/>
		<path fill="none" stroke="#000000" stroke-width="2" stroke-miterlimit="10" d="M360.7,17.3c-47.8,11.4-83.1,43.1-106.1,74.5
			c-36.4,49.7-114.4,256.7,109.1,352.8"/>
		<path fill="none" stroke="#000000" stroke-width="2" stroke-miterlimit="10" d="M359.9,18.2c45.7,6.5,81.9,33.2,106.7,60.7
			c39.1,43.4,133.2,231.1-65.3,340.7"/>
		<path fill="none" stroke="#000000" stroke-width="2" stroke-miterlimit="10" d="M362.9,18.2c1.2,2.5,35.3,13.8,60.7,49.8
			c67.5,95.5,49.6,245.6-58.4,375.5"/>
		<path fill="none" stroke="#000000" stroke-width="2" stroke-miterlimit="10" d="M362.5,18.6c-58.6,202.3-41.5,309.2,1.2,424.1"/>
		<path fill="none" stroke="#000000" stroke-width="2" stroke-miterlimit="10" d="M363.7,444.7c49.8-204.9,47-313.7-0.7-426.6"/>
		<path fill="none" stroke="#000000" stroke-width="2" stroke-miterlimit="10" d="M158.9,210.7c134.7,61.5,257.7,63,403.5,5.9"/>
		<path fill="none" stroke="#000000" stroke-width="2" stroke-miterlimit="10" d="M223.3,74.6c79.8,59.5,173.7,72.3,274.4-0.2"/>
		<path fill="none" stroke="#000000" stroke-width="2" stroke-miterlimit="10" d="M182.6,332.6c104.1,59.5,226.6,72.3,357.9-0.2"/>
		<path d="M251.8,393.8c11.5,33.4,73.8,42.2,98.8,43.8c60.1,3.8,98.4-19.3,108.6-25.5c15.9-9.7,62.7-47.4,82.1-106.8
			c6.4-19.3,12.9-32.5,14.6-71.4c1.5-34.7-7.1-50.4-13.2-56.9c-11.3-12.1-33.7-14.2-48.6-5.1c-20.8,12.8-11.8,38.2-31.5,78.3
			c-5.2,10.5-24.6,50.3-62.3,66.7c-20.9,9.1-44.6,9.8-82.8,10.9c-26,0.7-36.1-1.2-47.3,7.3C254.2,347.2,244.9,374.1,251.8,393.8z"/>
		<path fill="#FFE1FA" d="M310.6,27.4l-9.4,9.6c-0.1,0.1-0.1,0.1-0.1,0.2c0.1,0.6,1,3.8,9.2,8.1c9,4.7,23.7,6,24.2,6l21.1-2.3h0.1
			l9.7,4.3c0.1,0,0.2,0,0.3-0.1l3.5-5.5c0-0.1,0.1-0.1,0.2-0.1l18.5,3c0.1,0,0.2,0,0.2-0.1l7.6-11.2c0-0.1,0.1-0.1,0.2-0.1h18.1h0.1
			l11.8-5.7c0.2-0.1,0.2-0.3,0-0.4c-3.8-1.5-30.4-11.7-58.9-11.8C336.8,21.3,312,27.1,310.6,27.4C310.7,27.4,310.6,27.4,310.6,27.4z"
			/>
		<path fill="none" stroke="#0C0C0C" stroke-width="2" stroke-miterlimit="10" d="M310.6,27.4l-9.4,9.6c-0.1,0.1-0.1,0.1-0.1,0.2
			c0.1,0.6,1,3.8,9.2,8.1c9,4.7,23.7,6,24.2,6l21.1-2.3h0.1l9.7,4.3c0.1,0,0.2,0,0.3-0.1l3.5-5.5c0-0.1,0.1-0.1,0.2-0.1l18.5,3
			c0.1,0,0.2,0,0.2-0.1l7.6-11.2c0-0.1,0.1-0.1,0.2-0.1h18.1h0.1l11.8-5.7c0.2-0.1,0.2-0.3,0-0.4c-3.8-1.5-30.4-11.7-58.9-11.8
			C336.8,21.3,312,27.1,310.6,27.4z M310.6,27.4C310.7,27.4,310.6,27.4,310.6,27.4z"/>
		<path fill="#98509B" stroke="#000000" stroke-width="2" stroke-miterlimit="10" d="M311.5,23.5l-9.2,9.5c-0.1,0.1-0.2,0.3-0.1,0.5
			c0.2,0.9,1.6,3.9,9.1,7.9c8.9,4.6,23.3,6,24.2,6h0.1l20.9-2.3c0.1,0,0.2,0,0.3,0l9.4,4.2c0.2,0.1,0.5,0,0.6-0.2l3.2-5.2
			c0.1-0.2,0.3-0.3,0.5-0.2l18.1,3c0.2,0,0.4-0.1,0.5-0.2l7.4-10.9c0.1-0.1,0.3-0.2,0.4-0.2h17.9c0.1,0,0.1,0,0.2,0l11.1-5.4
			c0.4-0.2,0.4-0.8,0-0.9c-5.6-2.2-31-11.4-58.2-11.5c-29.6-0.1-54.1,5.5-56.1,6C311.6,23.4,311.6,23.4,311.5,23.5z"/>
		<path fill="none" stroke="#0C0C0C" stroke-width="2" stroke-miterlimit="10" d="M426,29.8v3.6"/>
		<path fill="none" stroke="#0C0C0C" stroke-width="2" stroke-miterlimit="10" d="M302.1,33.4l-1,3.9"/>
		<path fill="#FFE1FA" d="M307,33.4c-0.3-3.2,3-5.6,3.6-6c1.8-1.4,3.3-1.6,6.9-2.2c0,0,3.2-0.5,12.4-2.4c6.9-1.4,8.5-2.1,8.9-1.4
			c0.8,1.4-2.8,6.6-7.8,9c-3.1,1.4-6,1.3-6.3,2.7c-0.4,1.6,2.5,2.8,2.2,5c-0.2,1.7-2.3,2.7-3,3.1c-4.5,2.1-9.7-0.9-11.5-2
			C309.7,37.6,307.2,36.1,307,33.4z"/>
		<path fill="none" stroke="#98509B" stroke-width="2" stroke-miterlimit="10" d="M286.2,329.5c12.1,37.8,31.3,79.8,57.9,106.3"/>
		<path fill="none" stroke="#98509B" stroke-width="2" stroke-miterlimit="10" d="M252.8,363.6c37.3,51.7,59.2,60.6,91.4,73.4"/>
		<path fill="none" stroke="#98509B" stroke-width="2" stroke-miterlimit="10" d="M456,265.8c-22.1,84.1-36.3,107.3-85.4,171"/>
		<path fill="none" stroke="#98509B" stroke-width="2" stroke-miterlimit="10" d="M512.4,166.4c14.7,160-42.8,202-134.3,271.2"/>
		<path fill="none" stroke="#98509B" stroke-width="2" stroke-miterlimit="10" d="M388.9,322.9c-7.8,37.8-15.4,75.6-23.2,113.4"/>
		<path fill="none" stroke="#98509B" stroke-width="2" stroke-miterlimit="10" d="M331.7,329.1c9,36.3,17.8,72.5,26.8,108.9"/>
		<path fill="none" stroke="#98509B" stroke-width="2" stroke-miterlimit="10" d="M254,364c105.3,25.6,175.4,19.5,268.6-22.2"/>
		<path fill="#020202" stroke="#98509B" stroke-width="2" stroke-miterlimit="10" d="M420,199.7c-3.2-10.3,1.1-23,7.8-29.9
			c2.7-2.8,8.6-5.5,20.1-10.6c10-4.4,12.6-4.8,16-8.8c4.7-5.4,2.4-8.1,7.3-15.5c2.8-4.2,6.9-7.4,15-13.5c9.6-7.3,9.4-5.8,12.7-9.2
			c8.7-8.8,8.2-17.1,13.7-18.3c4.2-1.1,8.5,2.7,11.4,5.8c16.7,17.2,25.6,46.2,38.3,83.2c0,0,10.5,30.2,4.6,46.4
			c-1.6,4.4-4.6,6.7-4.6,6.7c-3.6,2.7-7.7,2.5-10,2.4c-12-0.7-24.2-5.2-24.7-5.3c-17.3-6.3-32.6-5.2-37.9-4.8
			c-9.8,0.7-19.2,1.4-28.7,7.7c-10.7,7.2-11.6,14.9-18.8,15.2c-8.7,0.4-18.5-10.2-18.2-19c0.2-6.1,5.2-7.1,5.5-13.5
			C430,210.8,422.8,209,420,199.7z"/>
		<path fill="#98509B" stroke="#020202" stroke-width="2" stroke-miterlimit="10" d="M421.4,193.7c-3.2-10.3,1.1-23,7.8-29.9
			c2.7-2.8,8.6-5.5,20.1-10.6c10-4.4,12.6-4.8,16-8.8c4.7-5.4,2.4-8.1,7.3-15.5c2.8-4.2,6.9-7.4,15-13.5c9.6-7.3,9.4-5.8,12.7-9.2
			c8.7-8.8,8.2-17.1,13.7-18.3c4.2-1.1,8.5,2.7,11.4,5.8c16.7,17.2,25.6,46.2,38.3,83.2c0,0,10.5,30.2,4.6,46.4
			c-1.6,4.4-4.6,6.7-4.6,6.7c-3.6,2.7-7.7,2.5-10,2.4c-12-0.7-24.2-5.2-24.7-5.3c-17.3-6.3-32.6-5.2-37.9-4.8
			c-9.8,0.7-19.2,1.4-28.7,7.7c-10.7,7.2-11.6,14.9-18.8,15.2c-8.7,0.4-18.5-10.2-18.2-19c0.2-6.1,5.2-7.1,5.5-13.5
			C431.4,204.8,424.2,202.9,421.4,193.7z"/>
		<path fill="#98509B" stroke="#070707" stroke-width="2" stroke-miterlimit="10" d="M378.6,425.9c-0.7-10.1,17.4-13.4,34.2-34.4
			c3.7-4.6,13.6-18,18.2-37.2c3.7-15.6,2.8-30.5,2.3-40c-0.6-10.1-2.2-20.8,0-36.4c1.4-10.2,3.2-13.7,6-15.5
			c5.8-3.8,11.3,2.3,23.3,1.9c11.7-0.4,11.9-6.5,22.4-7.3c14.8-0.9,16.5,11.6,32.8,12.5c13.7,0.8,22.3-7.4,29.7-1.5
			c0,0,3,2.4,4.6,7.3c5.2,15.6-11.9,70.3-58.4,113.1c-33.5,30.9-70.9,44.9-100.1,51.4C381.5,434.7,378.8,429.5,378.6,425.9z"/>
		<path fill="#020202" stroke="#98509B" stroke-width="2" stroke-miterlimit="10" d="M387.1,425.9c-0.7-10.1,17.4-13.4,34.2-34.4
			c3.7-4.6,13.6-18,18.2-37.2c3.7-15.6,2.8-30.5,2.3-40c-0.6-10.1-2.2-20.8,0-36.4c1.4-10.2,3.2-13.7,6-15.5
			c5.8-3.8,11.3,2.3,23.3,1.9c11.7-0.4,11.9-6.5,22.4-7.3c14.8-0.9,16.5,11.6,32.8,12.5c13.7,0.8,22.3-7.4,29.7-1.5
			c0,0,3,2.4,4.6,7.3c5.2,15.6-11.9,70.3-58.4,113.1c-33.5,30.9-70.9,44.9-100.1,51.4C389.9,434.7,387.3,429.5,387.1,425.9z"/>
		<path fill="#98509B" stroke="#000000" stroke-width="2" stroke-miterlimit="10" d="M490.5,367.9c-2.2-2.2,2.5-10.5,11.7-27.2
			c7.4-13.2,34-60.7,41.4-57.1c4.9,2.4,1.3,27.3-9.5,47C520.1,356.2,494.4,371.8,490.5,367.9z"/>
		<path d="M510.4,367.4c0.6-1,0.6-2.1,0-2.6c-0.6-0.5-1.7-0.1-2.3,0.9c-0.6,1-0.6,2.1,0,2.6C508.8,368.7,509.8,368.3,510.4,367.4z"/>
		<path d="M516.5,357.4c0.6-1,0.6-2.1,0-2.6c-0.6-0.5-1.7-0.1-2.3,0.9c-0.6,1-0.6,2.1,0,2.6C514.9,358.7,515.9,358.3,516.5,357.4z"/>
		<path d="M546.7,309.6c0.6-1,0.6-2.1,0-2.6c-0.6-0.5-1.7-0.1-2.3,0.9c-0.6,1-0.6,2.1,0,2.6C545,311,546,310.6,546.7,309.6z"/>
		<path d="M549,288.3c0.6-1,0.6-2.1,0-2.6c-0.6-0.5-1.7-0.1-2.3,0.9c-0.6,1-0.6,2.1,0,2.6C547.3,289.7,548.4,289.3,549,288.3z"/>
		<path d="M504.6,376.4c0.6-1,0.6-2.1,0-2.6c-0.6-0.5-1.7-0.1-2.3,0.9c-0.6,1-0.6,2.1,0,2.6C503,377.8,504,377.4,504.6,376.4z"/>
		<path d="M543,298c0.6-1,0.6-2.1,0-2.6c-0.6-0.5-1.7-0.1-2.3,0.9c-0.6,1-0.6,2.1,0,2.6C541.4,299.4,542.4,299,543,298z"/>
		<path d="M498.3,386.1c0.6-1,0.6-2.1,0-2.6c-0.6-0.5-1.7-0.1-2.3,0.9c-0.6,1-0.6,2.1,0,2.6C496.6,387.5,497.6,387.1,498.3,386.1z"/>
		<path d="M529.4,337.1c0.6-1,0.6-2.1,0-2.6c-0.6-0.5-1.7-0.1-2.3,0.9c-0.6,1-0.6,2.1,0,2.6S528.8,338.1,529.4,337.1z"/>
		<path d="M541.5,317.9c0.6-1,0.6-2.1,0-2.6c-0.6-0.5-1.7-0.1-2.3,0.9c-0.6,1-0.6,2.1,0,2.6C539.9,319.3,540.9,318.9,541.5,317.9z"/>
		<path d="M522.8,347.5c0.6-1,0.6-2.1,0-2.6c-0.6-0.5-1.7-0.1-2.3,0.9c-0.6,1-0.6,2.1,0,2.6C521.1,348.8,522.2,348.4,522.8,347.5z"/>
		<path d="M535.5,327.5c0.6-1,0.6-2.1,0-2.6c-0.6-0.5-1.7-0.1-2.3,0.9c-0.6,1-0.6,2.1,0,2.6C533.8,328.9,534.8,328.5,535.5,327.5z"/>
		<path d="M507.3,357.6c0.6-1,0.6-2.1,0-2.6c-0.6-0.5-1.7-0.1-2.3,0.9c-0.6,1-0.6,2.1,0,2.6C505.6,359,506.6,358.6,507.3,357.6z"/>
		<path d="M513.3,347.6c0.6-1,0.6-2.1,0-2.6c-0.6-0.5-1.7-0.1-2.3,0.9c-0.6,1-0.6,2.1,0,2.6C511.6,348.9,512.7,348.5,513.3,347.6z"/>
		<path d="M501.4,366.7c0.6-1,0.6-2.1,0-2.6c-0.6-0.5-1.7-0.1-2.3,0.9c-0.6,1-0.6,2.1,0,2.6C499.7,368,500.7,367.6,501.4,366.7z"/>
		<path d="M526.2,327.3c0.6-1,0.6-2.1,0-2.6s-1.7-0.1-2.3,0.9c-0.6,1-0.6,2.1,0,2.6C524.5,328.7,525.5,328.3,526.2,327.3z"/>
		<path d="M538.3,308.1c0.6-1,0.6-2.1,0-2.6c-0.6-0.5-1.7-0.1-2.3,0.9c-0.6,1-0.6,2.1,0,2.6C536.7,309.5,537.7,309.1,538.3,308.1z"/>
		<path d="M519.6,337.6c0.6-1,0.6-2.1,0-2.6c-0.6-0.5-1.7-0.1-2.3,0.9c-0.6,1-0.6,2.1,0,2.6S518.9,338.6,519.6,337.6z"/>
		<path d="M532.2,317.7c0.6-1,0.6-2.1,0-2.6c-0.6-0.5-1.7-0.1-2.3,0.9c-0.6,1-0.6,2.1,0,2.6C530.6,319.1,531.6,318.7,532.2,317.7z"/>
		<path d="M504.2,348.4c0.6-1,0.6-2.1,0-2.6c-0.6-0.5-1.7-0.1-2.3,0.9c-0.6,1-0.6,2.1,0,2.6C502.6,349.8,503.6,349.3,504.2,348.4z"/>
		<path d="M510.2,338.3c0.6-1,0.6-2.1,0-2.6c-0.6-0.5-1.7-0.1-2.3,0.9c-0.6,1-0.6,2.1,0,2.6C508.6,339.7,509.6,339.3,510.2,338.3z"/>
		<path d="M498.4,357.3c0.6-1,0.6-2.1,0-2.6c-0.6-0.5-1.7-0.1-2.3,0.9c-0.6,1-0.6,2.1,0,2.6C496.7,358.7,497.7,358.3,498.4,357.3z"/>
		<path d="M523.2,318c0.6-1,0.6-2.1,0-2.6c-0.6-0.5-1.7-0.1-2.3,0.9c-0.6,1-0.6,2.1,0,2.6C521.5,319.3,522.5,318.9,523.2,318z"/>
		<path d="M535.2,298.9c0.6-1,0.6-2.1,0-2.6s-1.7-0.1-2.3,0.9c-0.6,1-0.6,2.1,0,2.6C533.6,300.2,534.6,299.8,535.2,298.9z"/>
		<path d="M516.6,328.3c0.6-1,0.6-2.1,0-2.6c-0.6-0.5-1.7-0.1-2.3,0.9c-0.6,1-0.6,2.1,0,2.6C514.9,329.7,515.9,329.3,516.6,328.3z"/>
		<path d="M529.2,308.4c0.6-1,0.6-2.1,0-2.6c-0.6-0.5-1.7-0.1-2.3,0.9c-0.6,1-0.6,2.1,0,2.6C527.6,309.7,528.6,309.3,529.2,308.4z"/>
		<path d="M552.7,300.3c0.6-1,0.6-2.1,0-2.6c-0.6-0.5-1.7-0.1-2.3,0.9c-0.6,1-0.6,2.1,0,2.6C551.1,301.7,552.1,301.3,552.7,300.3z"/>
		<path d="M540.2,288.8c0.6-1,0.6-2.1,0-2.6c-0.6-0.5-1.7-0.1-2.3,0.9c-0.6,1-0.6,2.1,0,2.6C538.6,290.2,539.6,289.8,540.2,288.8z"/>
		<path stroke="#98509B" stroke-width="2" stroke-miterlimit="10" d="M222.7,79.5c6,1.2,4.6,5.4,16.7,13.3
			c16.1,10.6,24.4,6.7,46.7,17.1c8.6,4,23.9,11.1,23.2,17.7c-0.7,6.6-16.3,3.9-26.9,17.1c-8.6,10.8-4.3,20-13.5,27.1
			c-6,4.6-14.4,5.8-21.2,3.6c-9.1-3-8.8-9.9-19.2-15.9c-2.6-1.5-14.1-8.1-24.7-3.6c-11.5,5-17,21.3-15.7,33.3c1,9,5.1,10.2,4.8,17.4
			c-0.6,14.7-18.6,29.2-26.7,25.4c-1.5-0.7-6.3-3.7-6-25.5C161,147.6,197.7,74.9,222.7,79.5z"/>
		<path fill="#98509B" stroke="#000000" stroke-width="2" stroke-miterlimit="10" d="M220.5,72.8c6,1.2,4.6,5.4,16.7,13.3
			c16.1,10.6,24.4,6.7,46.7,17.1c8.6,4,23.9,11.1,23.2,17.7c-0.7,6.6-16.3,3.9-26.9,17.1c-8.6,10.8-4.3,20-13.5,27.1
			c-6,4.6-14.4,5.8-21.2,3.6c-9.1-3-8.8-9.9-19.2-15.9c-2.6-1.5-14.1-8.1-24.7-3.6c-11.5,5-17,21.3-15.7,33.3c1,9,5.1,10.2,4.8,17.4
			c-0.6,14.7-18.6,29.2-26.7,25.4c-1.5-0.7-6.3-3.7-6-25.5C158.7,140.9,195.4,68.1,220.5,72.8z"/>
		<path stroke="#98509B" stroke-width="2" stroke-miterlimit="10" d="M167.8,245.1c3.4-2.2,11.5-2.2,13.2,0.9
			c1.5,2.8-2.9,6.5-1.8,9.9c1.7,4.8,13.6,4.3,20,4.1c30.6-1.1,45.9-1.5,50.8,4.5c4.4,5.4,3.1,13.4,0.4,29.3
			c-3.1,18.7-8,20.9-10.1,35.3c-2.9,20,3.5,36.6,5.5,41.5c8,19.9,21.7,30.9,25.6,33.8c26.9,20.3,55.3,13.1,60.8,30.6
			c0.7,2.1,1.6,5,0.2,7c-8,11.6-89.5-16.1-133.7-79.1C166.2,316.6,155.5,253.2,167.8,245.1z"/>
		<path fill="#98509B" stroke="#000000" stroke-width="2" stroke-miterlimit="10" d="M162.3,247.6c3.4-2.2,11.5-2.2,13.2,0.9
			c1.5,2.8-2.9,6.5-1.8,9.9c1.7,4.9,13.6,4.3,20,4.1c30.6-1.1,45.9-1.5,50.8,4.5c4.4,5.4,3.1,13.4,0.4,29.3
			c-3.1,18.7-8,20.9-10.1,35.3c-2.9,20,3.5,36.6,5.5,41.5c8,19.9,21.7,30.9,25.6,33.8c26.9,20.3,55.3,13.1,60.8,30.6
			c0.7,2.1,1.6,5,0.2,7c-8,11.6-89.5-16.1-133.7-79.1C160.8,319,150.1,255.6,162.3,247.6z"/>
		<path fill="#FFE1FA" d="M197.9,356.3c5.7-2.2,4.3-21.6-3.2-43.2c-7.5-21.6-18.2-37.4-24-35.2c-5.7,2.2-4.3,21.6,3.2,43.2
			C181.4,342.8,192.2,358.6,197.9,356.3z"/>
	</g>
	<g id="marker-right">
		<path fill="#98509B" d="M501.7,88.3c-9,4.5-16.9,18.2-17.6,30.9c-0.3,5,0.7,9.2,2.4,11.9l12.7,26.8l6.2,3.4
			c0.5-1.4,9.5-48.6,10-50.1c0.9-3.4,7.5-5.5,7.6-8.6C523,90.9,510.4,83.8,501.7,88.3z M500.5,118.4c-3.5,1.9-6.2-0.4-6-5.3
			c0.3-4.7,3.2-10,6.7-11.8c3.3-1.8,6,0.4,5.9,5.2C506.9,111.3,503.9,116.5,500.5,118.4z"/>
		<path fill="#FFE1FA" d="M502.7,90.7c-9,4.5-16.9,18.2-17.6,30.9c-0.1,2.3,0,4.5,0.4,6.4c10.2,6.7,17.7,6.3,25.7,12.3
			c2.5-12.7,5.1-25.9,5.2-26.7c0.9-3.4,5.9-5.7,5.9-9C522.4,93,511.4,86.3,502.7,90.7z M501.7,120.9c-3.5,1.9-6.2-0.4-6-5.3
			c0.3-4.7,3.2-10,6.7-11.8c3.3-1.8,6,0.4,5.9,5.2C508,113.6,505.2,119.1,501.7,120.9z"/>
		<path fill="#16110D" d="M505.7,162.3l-7-3.8l-0.1-0.1l-12.8-26.8c-1.9-3-2.8-7.2-2.5-12.3c0.8-12.7,8.8-26.9,18-31.5
			c4.7-2.3,10.7-1.6,15.4,1.8c4.4,3.3,7,8.1,6.8,13.4c0,2.1-2,3.7-4,5.2c-1.6,1.2-3.2,2.3-3.6,3.7c-0.1,0.6-1.9,9.2-3.6,18.2
			c-3.5,18.1-6,30.9-6.4,31.7L505.7,162.3z M499.7,157.4l5.2,2.8c0.8-3.7,3.9-19.1,6.2-30.8c2.1-11.1,3.5-17.8,3.6-18.3
			c0.5-1.8,2.4-3.3,4.1-4.5c1.7-1.4,3.5-2.5,3.5-3.8c0.1-4.9-2.1-9.3-6.2-12c-4.4-3.1-9.9-3.8-14.1-1.6c-8.8,4.4-16.5,18.1-17.2,30.4
			c-0.3,4.7,0.5,8.6,2.3,11.5L499.7,157.4z M498.2,119.9c-0.8,0-1.6-0.3-2.1-0.7c-1.5-1.1-2.3-3.3-2.1-6c0.3-5,3.3-10.5,7-12.5
			c1.7-0.8,3.5-0.8,4.7,0c1.5,1.1,2.3,3.1,2.1,5.7c-0.1,5-3.2,10.5-7,12.7C499.9,119.6,499,119.9,498.2,119.9z M503.4,101.6
			c-0.5,0-1.2,0.1-1.9,0.6c-3.2,1.8-6,6.7-6.3,11.2c-0.1,2.2,0.4,4,1.5,4.7c0.9,0.6,2.1,0.6,3.5-0.1c3.2-1.8,6-7,6.2-11.3
			c0-2.1-0.5-3.7-1.6-4.5C504.3,101.7,503.9,101.6,503.4,101.6z"/>
		<path fill="#16110D" d="M523,104.7c0.1-11.8-6.6-17.6-15.2-13.3c-9,4.5-16.9,18.2-17.6,30.9c-0.3,5,0.7,9.2,2.4,11.9l12.7,26.8
			l14.6-42.4c0.5-1.4,1.1-2.8,1.5-4.2C522.4,111.4,523,108,523,104.7z"/>
		<path fill="#16110D" d="M505.7,162.3l-0.8-0.4L492,134.8c-1.9-3-2.8-7.2-2.5-12.3c0.8-12.7,8.8-26.9,18-31.5c4.1-2.1,8-2.1,11,0.1
			c3.5,2.5,5.4,7.4,5.2,13.8c0,3.3-0.5,6.6-1.6,10.1c-0.4,1.5-0.9,3-1.5,4.2L505.7,162.3z M513.4,90.8c-1.6,0-3.5,0.4-5.4,1.5
			c-8.8,4.4-16.5,18.1-17.2,30.4c-0.3,4.7,0.5,8.6,2.3,11.5l12.1,25.4l14.1-40.9c0.5-1.4,1.1-2.8,1.5-4.1c0.9-3.4,1.5-6.6,1.6-9.7
			c0.1-5.7-1.6-10.3-4.5-12.5C516.5,91.3,515.1,90.8,513.4,90.8z"/>
		<path fill="#98509B" d="M506,131.1l-6.6-4.8c-0.9-0.7-0.8-2.6,0.1-4.5c0.9-1.8,2.5-2.6,3.5-2.1l3.3,2.5l6.2-13.7
			c0.8-1.9,2.4-3.1,3.5-2.6c1.1,0.4,1.2,2.3,0.4,4.1l-9.1,20.3C506.8,131,506.2,131.3,506,131.1z"/>
	</g>
	<g id="marker-left">
		<path fill="#98509B" d="M221.5,215.1c8.8,4.5,16.5,18.2,17.1,30.9c0.3,5-0.7,9.2-2.4,11.9l-12.4,26.8l-6,3.4
			c-0.5-1.4-9.3-48.6-9.8-50.1c-0.9-3.4-7.3-5.5-7.4-8.6C200.6,217.7,213.1,210.7,221.5,215.1z M222.6,245.2c3.4,1.9,6-0.4,5.9-5.3
			c-0.3-4.7-3.1-10-6.5-11.8c-3.3-1.8-5.9,0.4-5.7,5.2C216.4,238.1,219.2,243.3,222.6,245.2z"/>
		<path fill="#FFE1FA" d="M220.4,217.5c8.8,4.5,16.5,18.2,17.1,30.9c0.1,2.3,0,4.5-0.4,6.4c-9.9,6.7-17.3,6.3-25.1,12.3
			c-2.5-12.7-5-25.9-5.1-26.7c-0.9-3.4-5.7-5.7-5.7-9C201.2,219.8,212,213.1,220.4,217.5z M221.5,247.8c3.4,1.9,6-0.4,5.9-5.3
			c-0.3-4.7-3.1-10-6.5-11.8c-3.3-1.8-5.9,0.4-5.7,5.2C215.3,240.4,218.1,245.9,221.5,247.8z"/>
		<path fill="#16110D" d="M217.5,289.1l6.8-3.8l0.1-0.1l12.4-26.8c1.8-3,2.7-7.2,2.5-12.3c-0.8-12.7-8.6-26.9-17.5-31.5
			c-4.6-2.3-10.5-1.6-15.1,1.8c-4.3,3.3-6.8,8.1-6.7,13.4c0,2.1,2,3.7,3.9,5.2c1.6,1.2,3.1,2.3,3.5,3.7c0.1,0.6,1.8,9.2,3.5,18.2
			c3.4,18.1,5.9,30.9,6.3,31.7L217.5,289.1z M223.4,284.3l-5.1,2.8c-0.8-3.7-3.8-19.1-6-30.8c-2.1-11.1-3.4-17.8-3.5-18.3
			c-0.5-1.8-2.4-3.3-4.1-4.5c-1.7-1.4-3.4-2.5-3.4-3.8c-0.1-4.8,2.1-9.3,6-12c4.3-3.1,9.7-3.8,13.8-1.6c8.6,4.4,16.1,18.1,16.8,30.4
			c0.3,4.7-0.5,8.6-2.2,11.5L223.4,284.3z M224.9,246.7c0.8,0,1.6-0.3,2.1-0.7c1.4-1.1,2.2-3.3,2.1-6c-0.3-5-3.3-10.5-6.8-12.5
			c-1.7-0.8-3.4-0.8-4.6,0c-1.4,1.1-2.2,3.1-2.1,5.7c0.1,5,3.1,10.5,6.8,12.7C223.2,246.5,224.1,246.7,224.9,246.7z M219.8,228.4
			c0.5,0,1.2,0.1,1.8,0.6c3.1,1.8,5.9,6.7,6.1,11.2c0.1,2.2-0.4,4-1.4,4.7c-0.9,0.6-2.1,0.6-3.4-0.1c-3.1-1.8-5.9-7-6-11.3
			c0-2.1,0.5-3.7,1.6-4.5C218.8,228.5,219.2,228.4,219.8,228.4z"/>
		<path fill="#16110D" d="M200.6,231.6c-0.1-11.8,6.4-17.6,14.8-13.3c8.8,4.5,16.5,18.2,17.1,30.9c0.3,5-0.7,9.2-2.4,11.9l-12.4,26.8
			l-14.2-42.4c-0.5-1.4-1-2.8-1.4-4.2C201.2,238.2,200.6,234.8,200.6,231.6z"/>
		<path fill="#16110D" d="M217.5,289.1l0.8-0.4l12.6-27.1c1.8-3,2.7-7.2,2.5-12.3c-0.8-12.7-8.6-26.9-17.5-31.5
			c-4.1-2.1-7.8-2.1-10.8,0.1c-3.4,2.5-5.2,7.4-5.1,13.8c0,3.3,0.5,6.6,1.6,10.1c0.4,1.5,0.9,3,1.4,4.2L217.5,289.1z M210.1,217.6
			c1.6,0,3.4,0.4,5.2,1.5c8.6,4.4,16.1,18.1,16.8,30.4c0.3,4.7-0.5,8.6-2.2,11.5L218,286.4l-13.8-40.9c-0.5-1.4-1-2.8-1.4-4.1
			c-0.9-3.4-1.4-6.6-1.6-9.7c-0.1-5.7,1.6-10.3,4.4-12.5C207,218.3,208.5,217.6,210.1,217.6z"/>
		<path fill="#98509B" d="M217.3,257.9l6.4-4.9c0.9-0.7,0.8-2.6-0.1-4.5c-0.9-1.8-2.5-2.6-3.4-2.1l-3.3,2.5l-6-13.7
			c-0.8-1.9-2.4-3.1-3.4-2.6c-1,0.4-1.2,2.3-0.4,4.1l8.9,20.3C216.5,257.8,217,258.1,217.3,257.9z"/>
	</g>
	<g>
		<path d="M530,153.7c0-0.4-0.8-0.7-1.7-0.8c-0.9,0-1.7,0.3-1.7,0.7c0,0.4,0.8,0.7,1.7,0.8C529.2,154.5,530,154.1,530,153.7z"/>
		<path d="M522,161.6c0-0.6-0.8-1.1-1.8-1.1c-1,0-1.8,0.5-1.8,1c0,0.6,0.8,1.1,1.8,1.1C521.2,162.7,522,162.2,522,161.6z"/>
		<path d="M527.7,161.4c0-0.6-0.8-1.1-1.8-1.1c-1,0-1.8,0.5-1.8,1s0.8,1.1,1.8,1.1C526.8,162.5,527.6,162,527.7,161.4z"/>
		<path d="M516.4,161.5c0-0.6-0.8-1.1-1.8-1.1c-1,0-1.8,0.5-1.8,1c0,0.6,0.8,1.1,1.8,1.1C515.6,162.6,516.4,162.1,516.4,161.5z"/>
		<path d="M510.2,161.5c0-0.6-0.8-1.1-1.8-1.1c-1,0-1.8,0.5-1.8,1c0,0.6,0.8,1.1,1.8,1.1C509.3,162.5,510.1,162.1,510.2,161.5z"/>
		<path d="M526.4,157.6c0-0.6-0.8-1.1-1.8-1.1c-1,0-1.8,0.5-1.8,1c0,0.6,0.8,1.1,1.8,1.1C525.6,158.6,526.4,158.1,526.4,157.6z"/>
		<path d="M533.1,161.2c0-0.6-0.8-1.1-1.8-1.1c-1,0-1.8,0.5-1.8,1c0,0.6,0.8,1.1,1.8,1.1C532.3,162.2,533.1,161.7,533.1,161.2z"/>
		<path d="M532.9,157.6c0-0.6-0.8-1.1-1.8-1.1c-1,0-1.8,0.5-1.8,1s0.8,1.1,1.8,1.1C532,158.7,532.8,158.2,532.9,157.6z"/>
		<path d="M524.2,153.7c0-0.6-0.8-1.1-1.8-1.1c-1,0-1.8,0.5-1.8,1s0.8,1.1,1.8,1.1C523.4,154.8,524.2,154.3,524.2,153.7z"/>
		<path d="M514.5,157.7c0-0.6-0.8-1.1-1.8-1.1c-1,0-1.8,0.5-1.8,1c0,0.6,0.8,1.1,1.8,1.1C513.7,158.7,514.5,158.3,514.5,157.7z"/>
		<path d="M537.4,157.7c0-0.3-0.7-0.6-1.5-0.6c-0.8,0-1.5,0.3-1.5,0.6c0,0.3,0.7,0.6,1.5,0.6C536.7,158.3,537.4,158,537.4,157.7z"/>
		<path d="M518.6,153.6c0-0.6-0.8-1.1-1.8-1.1c-1,0-1.8,0.5-1.8,1s0.8,1.1,1.8,1.1C517.7,154.6,518.5,154.1,518.6,153.6z"/>
		<path d="M535.3,153.8c0-0.3-0.7-0.6-1.5-0.6c-0.8,0-1.5,0.3-1.5,0.6c0,0.3,0.7,0.6,1.5,0.6C534.6,154.4,535.3,154.1,535.3,153.8z"
			/>
		<path d="M520.4,157.6c0-0.6-0.8-1.1-1.8-1.1c-1,0-1.8,0.5-1.8,1c0,0.6,0.8,1.1,1.8,1.1C519.6,158.6,520.4,158.2,520.4,157.6z"/>
		<path d="M242.7,278.8c0-0.4-0.8-0.7-1.7-0.8c-0.9,0-1.7,0.3-1.7,0.7c0,0.4,0.8,0.7,1.7,0.8C242,279.5,242.7,279.2,242.7,278.8z"/>
		<path d="M234.8,286.6c0-0.6-0.8-1.1-1.8-1.1c-1,0-1.8,0.5-1.8,1c0,0.6,0.8,1.1,1.8,1.1C234,287.6,234.8,287.1,234.8,286.6z"/>
		<path d="M240.5,286.4c0-0.6-0.8-1.1-1.8-1.1c-1,0-1.8,0.5-1.8,1c0,0.6,0.8,1.1,1.8,1.1C239.7,287.5,240.5,287,240.5,286.4z"/>
		<path d="M229.3,286.4c0-0.6-0.8-1.1-1.8-1.1c-1,0-1.8,0.5-1.8,1c0,0.6,0.8,1.1,1.8,1.1C228.4,287.5,229.3,287,229.3,286.4z"/>
		<path d="M222.9,286.4c0-0.6-0.8-1.1-1.8-1.1c-1,0-1.8,0.5-1.8,1c0,0.6,0.8,1.1,1.8,1.1C222.1,287.5,222.9,287,222.9,286.4z"/>
		<path d="M239.3,282.5c0-0.6-0.8-1.1-1.8-1.1c-1,0-1.8,0.5-1.8,1s0.8,1.1,1.8,1.1C238.4,283.5,239.2,283,239.3,282.5z"/>
		<path d="M245.9,286.1c0-0.6-0.8-1.1-1.8-1.1c-1,0-1.8,0.5-1.8,1c0,0.6,0.8,1.1,1.8,1.1C245.1,287.1,245.9,286.6,245.9,286.1z"/>
		<path d="M245.7,282.5c0-0.6-0.8-1.1-1.8-1.1c-1,0-1.8,0.5-1.8,1c0,0.6,0.8,1.1,1.8,1.1C244.9,283.6,245.7,283.1,245.7,282.5z"/>
		<path d="M237,278.6c0-0.6-0.8-1.1-1.8-1.1c-1,0-1.8,0.5-1.8,1c0,0.6,0.8,1.1,1.8,1.1C236.2,279.7,237,279.2,237,278.6z"/>
		<path d="M227.3,282.6c0-0.6-0.8-1.1-1.8-1.1c-1,0-1.8,0.5-1.8,1c0,0.6,0.8,1.1,1.8,1.1S227.3,283.2,227.3,282.6z"/>
		<path d="M250.2,282.7c0-0.3-0.7-0.6-1.5-0.6c-0.8,0-1.5,0.3-1.5,0.6c0,0.3,0.7,0.6,1.5,0.6C249.5,283.3,250.2,283,250.2,282.7z"/>
		<path d="M231.4,278.5c0-0.6-0.8-1.1-1.8-1.1c-1,0-1.8,0.5-1.8,1s0.8,1.1,1.8,1.1C230.6,279.5,231.4,279.1,231.4,278.5z"/>
		<path d="M248,278.8c0-0.3-0.7-0.6-1.5-0.6c-0.8,0-1.5,0.3-1.5,0.6c0,0.3,0.7,0.6,1.5,0.6C247.3,279.4,248,279.1,248,278.8z"/>
		<path d="M233.3,282.6c0-0.6-0.8-1.1-1.8-1.1c-1,0-1.8,0.5-1.8,1c0,0.6,0.8,1.1,1.8,1.1C232.4,283.6,233.3,283.2,233.3,282.6z"/>
		<path d="M252.4,251.7c-0.4,0.2-0.6,0.7-0.4,1.1l3.1,6.5c0.2,0.4,0.7,0.6,1.1,0.3c0.4-0.2,0.6-0.7,0.4-1.1l-2.8-5.8l5.7-3
			c0.4-0.2,0.6-0.7,0.4-1.1c-0.2-0.4-0.7-0.6-1.1-0.3L252.4,251.7z M501.2,165.7c-0.4,0.8-0.7,1.5-1.1,2.2l1.4,0.7
			c0.4-0.8,0.7-1.5,1.1-2.3L501.2,165.7z M497.9,172.4c-0.8,1.4-1.5,2.9-2.3,4.3l1.4,0.8c0.8-1.4,1.6-2.8,2.3-4.3L497.9,172.4z
			M493.1,180.9c-0.8,1.4-1.7,2.8-2.6,4.2l1.3,0.9c0.9-1.4,1.7-2.8,2.6-4.2L493.1,180.9z M487.9,189.2c-0.9,1.4-1.8,2.7-2.8,4
			l1.3,0.9c0.9-1.3,1.9-2.7,2.8-4.1L487.9,189.2z M482.2,197.1c-1,1.3-2,2.6-3,3.8l1.2,1c1-1.3,2-2.5,3-3.8L482.2,197.1z
			M476.1,204.8c-1.1,1.2-2.1,2.5-3.2,3.7l1.1,1.1c1.1-1.2,2.2-2.4,3.2-3.7L476.1,204.8z M469.6,212c-1.1,1.2-2.3,2.3-3.4,3.5
			l1.1,1.2c1.2-1.1,2.3-2.3,3.5-3.5L469.6,212z M462.6,218.7c-1.2,1.1-2.4,2.2-3.6,3.2l1,1.2c1.2-1.1,2.5-2.2,3.7-3.3L462.6,218.7z
			M455.3,225.1c-1.3,1-2.5,2-3.8,3l0.9,1.3c1.3-1,2.6-2,3.8-3L455.3,225.1z M447.6,230.9c-1.3,0.9-2.6,1.8-4,2.7l0.8,1.4
			c1.3-0.9,2.7-1.8,4-2.8L447.6,230.9z M439.5,236.3c-1.4,0.9-2.7,1.7-4.1,2.5l0.7,1.4c1.4-0.8,2.8-1.6,4.2-2.5L439.5,236.3z
			M431.2,241.1c-1.4,0.8-2.8,1.5-4.3,2.2l0.7,1.5c1.4-0.7,2.9-1.5,4.3-2.2L431.2,241.1z M422.6,245.4c-1.5,0.7-2.9,1.3-4.4,2
			l0.6,1.5c1.5-0.6,3-1.3,4.4-2L422.6,245.4z M413.8,249.2c-1.5,0.6-3,1.2-4.5,1.7l0.5,1.5c1.5-0.6,3-1.1,4.5-1.7L413.8,249.2z
			M404.8,252.5c-1.5,0.5-3,1-4.6,1.5l0.4,1.6c1.5-0.5,3.1-1,4.6-1.5L404.8,252.5z M395.7,255.4c-1.5,0.4-3.1,0.8-4.6,1.2l0.3,1.6
			c1.5-0.4,3.1-0.8,4.6-1.2L395.7,255.4z M386.4,257.7c-1.5,0.4-3.1,0.7-4.6,1l0.3,1.6c1.6-0.3,3.1-0.7,4.7-1L386.4,257.7z
			M377.1,259.6c-1.6,0.3-3.1,0.5-4.7,0.8l0.2,1.6c1.6-0.2,3.1-0.5,4.7-0.8L377.1,259.6z M367.7,261.1c-1.6,0.2-3.1,0.4-4.7,0.6
			l0.1,1.6c1.6-0.2,3.2-0.4,4.7-0.6L367.7,261.1z M358.2,262.2c-1.6,0.1-3.2,0.3-4.7,0.4l0.1,1.6c1.6-0.1,3.2-0.3,4.8-0.4
			L358.2,262.2z M348.8,262.9c-1.6,0.1-3.2,0.2-4.7,0.2l0,1.6c1.6-0.1,3.2-0.1,4.8-0.2L348.8,262.9z M339.3,263.3c-1.6,0-3.2,0-4.7,0
			l0,1.6c1.6,0,3.2,0,4.8,0L339.3,263.3z M329.8,263.3c-1.6,0-3.2-0.1-4.7-0.1l-0.1,1.6c1.6,0.1,3.2,0.1,4.8,0.1L329.8,263.3z
			M320.4,262.9c-1.6-0.1-3.2-0.2-4.7-0.3l-0.1,1.6c1.6,0.1,3.1,0.2,4.8,0.3L320.4,262.9z M310.9,262.3c-1.6-0.1-3.2-0.3-4.7-0.4
			l-0.2,1.6c1.6,0.2,3.1,0.3,4.7,0.4L310.9,262.3z M301.5,261.4c-1.6-0.2-3.1-0.4-4.6-0.6l-0.2,1.6c1.5,0.2,3.1,0.4,4.7,0.6
			L301.5,261.4z M292.1,260.1c-1.6-0.2-3.1-0.5-4.7-0.7l-0.3,1.6c1.5,0.2,3.1,0.5,4.7,0.7L292.1,260.1z M282.8,258.6
			c-1.6-0.3-3.2-0.6-4.7-0.9l-0.3,1.6c1.5,0.3,3.1,0.6,4.7,0.9L282.8,258.6z M273.5,256.8c-1.6-0.3-3.1-0.7-4.6-1l-0.4,1.6
			c1.5,0.3,3,0.7,4.6,1L273.5,256.8z M264.3,254.8c-1.7-0.4-3.3-0.8-4.6-1.2l-0.4,1.6c1.4,0.4,2.9,0.8,4.6,1.2L264.3,254.8z
			M255.2,252.3c-0.7-0.2-1.3-0.4-1.6-0.5c-0.2-0.1-0.3-0.1-0.4-0.1c0,0-0.1,0-0.1,0c0,0,0,0,0,0c0,0,0,0,0,0c0,0,0,0,0,0l0,0l0,0
			l0,0c0,0,0,0-0.3,0.8c-0.3,0.8-0.3,0.8-0.3,0.8l0,0l0,0c0,0,0,0,0,0c0,0,0,0,0,0c0,0,0,0,0,0c0,0,0,0,0,0c0,0,0.1,0,0.1,0
			c0.1,0,0.2,0.1,0.4,0.1c0.4,0.1,0.9,0.3,1.7,0.5L255.2,252.3z M252.1,251c-0.8,0.4-1.1,1.4-0.7,2.2l6.3,13c0.4,0.8,1.3,1.1,2.1,0.7
			c0.8-0.4,1.1-1.4,0.7-2.2l-5.6-11.6l11.4-6.1c0.8-0.4,1.1-1.4,0.7-2.2c-0.4-0.8-1.3-1.1-2.1-0.7L252.1,251z M500.5,165.4
			c-0.4,0.8-0.7,1.5-1.1,2.2l2.8,1.4c0.4-0.8,0.7-1.5,1.1-2.3L500.5,165.4z M497.2,172c-0.8,1.4-1.5,2.9-2.3,4.2l2.7,1.6
			c0.8-1.4,1.6-2.9,2.3-4.3L497.2,172z M492.4,180.5c-0.8,1.4-1.7,2.8-2.6,4.2l2.6,1.7c0.9-1.4,1.7-2.8,2.6-4.3L492.4,180.5z
			M487.2,188.7c-0.9,1.4-1.8,2.7-2.8,4l2.5,1.9c1-1.3,1.9-2.7,2.8-4.1L487.2,188.7z M481.6,196.7c-1,1.3-2,2.5-2.9,3.8l2.4,2
			c1-1.3,2-2.6,3-3.9L481.6,196.7z M475.5,204.2c-1.1,1.2-2.1,2.4-3.2,3.6l2.3,2.2c1.1-1.2,2.2-2.5,3.3-3.7L475.5,204.2z M469,211.4
			c-1.1,1.2-2.3,2.3-3.4,3.5l2.1,2.3c1.2-1.1,2.3-2.3,3.5-3.5L469,211.4z M462.1,218.1c-1.2,1.1-2.4,2.2-3.6,3.2l2,2.5
			c1.2-1.1,2.5-2.2,3.7-3.3L462.1,218.1z M454.8,224.5c-1.3,1-2.5,2-3.8,3l1.8,2.6c1.3-1,2.6-2,3.9-3L454.8,224.5z M447.1,230.3
			c-1.3,0.9-2.6,1.8-3.9,2.7l1.7,2.7c1.4-0.9,2.7-1.8,4-2.8L447.1,230.3z M439.1,235.6c-1.4,0.8-2.7,1.7-4.1,2.5l1.5,2.8
			c1.4-0.8,2.8-1.7,4.2-2.5L439.1,235.6z M430.8,240.4c-1.4,0.8-2.8,1.5-4.3,2.2l1.3,2.9c1.5-0.7,2.9-1.5,4.3-2.3L430.8,240.4z
			M422.3,244.7c-1.5,0.7-2.9,1.3-4.4,2l1.2,3c1.5-0.6,3-1.3,4.5-2L422.3,244.7z M413.5,248.5c-1.5,0.6-3,1.2-4.5,1.7l1,3.1
			c1.5-0.6,3-1.1,4.5-1.7L413.5,248.5z M404.6,251.8c-1.5,0.5-3,1-4.5,1.5l0.8,3.1c1.5-0.5,3.1-1,4.6-1.5L404.6,251.8z M395.5,254.6
			c-1.5,0.4-3.1,0.8-4.6,1.2l0.7,3.2c1.6-0.4,3.1-0.8,4.7-1.2L395.5,254.6z M386.3,256.9c-1.5,0.4-3.1,0.7-4.6,1l0.5,3.2
			c1.6-0.3,3.1-0.7,4.7-1L386.3,256.9z M377,258.8c-1.6,0.3-3.1,0.5-4.7,0.8l0.4,3.2c1.6-0.2,3.2-0.5,4.7-0.8L377,258.8z
			M367.6,260.3c-1.6,0.2-3.1,0.4-4.7,0.6l0.3,3.2c1.6-0.2,3.2-0.4,4.8-0.6L367.6,260.3z M358.2,261.4c-1.6,0.1-3.1,0.3-4.7,0.4
			l0.1,3.3c1.6-0.1,3.2-0.3,4.8-0.4L358.2,261.4z M348.8,262.1c-1.6,0.1-3.2,0.2-4.7,0.2l0,3.3c1.6-0.1,3.2-0.1,4.8-0.2L348.8,262.1z
			M339.3,262.4c-1.6,0-3.2,0-4.7,0l-0.1,3.3c1.6,0,3.2,0,4.8,0L339.3,262.4z M329.9,262.4c-1.6,0-3.2-0.1-4.7-0.1l-0.2,3.3
			c1.6,0.1,3.2,0.1,4.8,0.1L329.9,262.4z M320.4,262.1c-1.6-0.1-3.2-0.2-4.7-0.3l-0.3,3.3c1.6,0.1,3.2,0.2,4.8,0.3L320.4,262.1z
			M311,261.5c-1.6-0.1-3.1-0.3-4.7-0.4l-0.4,3.3c1.6,0.2,3.1,0.3,4.7,0.4L311,261.5z M301.6,260.5c-1.6-0.2-3.1-0.4-4.6-0.6
			l-0.5,3.2c1.5,0.2,3.1,0.4,4.7,0.6L301.6,260.5z M292.2,259.3c-1.6-0.2-3.1-0.5-4.6-0.7l-0.6,3.2c1.5,0.2,3.1,0.5,4.7,0.7
			L292.2,259.3z M283,257.8c-1.6-0.3-3.2-0.6-4.7-0.9l-0.7,3.2c1.5,0.3,3.1,0.6,4.7,0.9L283,257.8z M273.7,256
			c-1.6-0.3-3.1-0.7-4.6-1l-0.8,3.2c1.5,0.3,3,0.7,4.6,1L273.7,256z M264.5,254c-1.7-0.4-3.2-0.8-4.6-1.2l-0.9,3.2
			c1.4,0.4,2.9,0.8,4.6,1.2L264.5,254z M255.5,251.5c-0.7-0.2-1.3-0.4-1.6-0.5c-0.2-0.1-0.3-0.1-0.4-0.1c0,0-0.1,0-0.1,0c0,0,0,0,0,0
			c0,0,0,0,0,0c0,0,0,0,0,0l0,0l0,0l0,0c0,0,0,0-0.5,1.6c-0.5,1.6-0.5,1.6-0.5,1.6l0,0l0,0c0,0,0,0,0,0c0,0,0,0,0,0c0,0,0,0,0,0
			c0,0,0,0,0,0c0,0,0.1,0,0.1,0c0.1,0,0.2,0.1,0.4,0.1c0.4,0.1,0.9,0.3,1.7,0.5L255.5,251.5z"/>
	</g>
</svg>