<svg width="29" height="28" viewBox="0 0 29 28" fill="none" xmlns="http://www.w3.org/2000/svg">
<path fill-rule="evenodd" clip-rule="evenodd" d="M8.7554 0.084C10.2483 0.0152727 10.7243 0 14.5272 0C18.3301 0 18.8061 0.0165454 20.2978 0.084C21.7894 0.151455 22.8076 0.389455 23.6985 0.734364C24.6314 1.08691 25.4778 1.638 26.1778 2.35073C26.8905 3.04945 27.4403 3.89455 27.7916 4.82873C28.1378 5.71964 28.3745 6.73782 28.4432 8.22691C28.5119 9.72236 28.5272 10.1984 28.5272 14C28.5272 17.8029 28.5107 18.2789 28.4432 19.7718C28.3758 21.2609 28.1378 22.2791 27.7916 23.17C27.4403 24.1043 26.8896 24.9508 26.1778 25.6505C25.4778 26.3633 24.6314 26.9131 23.6985 27.2644C22.8076 27.6105 21.7894 27.8473 20.3003 27.916C18.8061 27.9847 18.3301 28 14.5272 28C10.7243 28 10.2483 27.9835 8.7554 27.916C7.26631 27.8485 6.24813 27.6105 5.35722 27.2644C4.42294 26.913 3.57645 26.3623 2.87668 25.6505C2.16443 24.9514 1.61326 24.1053 1.26159 23.1713C0.916676 22.2804 0.679949 21.2622 0.611222 19.7731C0.542494 18.2776 0.527222 17.8016 0.527222 14C0.527222 10.1971 0.543767 9.72109 0.611222 8.22945C0.678676 6.73782 0.916676 5.71964 1.26159 4.82873C1.61378 3.89465 2.16537 3.04858 2.87795 2.34945C3.57673 1.63737 4.42237 1.0862 5.35595 0.734364C6.24686 0.389455 7.26504 0.152727 8.75413 0.084H8.7554ZM20.1845 2.604C18.7081 2.53655 18.2652 2.52255 14.5272 2.52255C10.7892 2.52255 10.3463 2.53655 8.86995 2.604C7.50431 2.66636 6.76359 2.89418 6.26977 3.08636C5.61686 3.34091 5.14977 3.64255 4.65977 4.13255C4.19528 4.58443 3.83781 5.13454 3.61359 5.74255C3.4214 6.23636 3.19359 6.97709 3.13122 8.34273C3.06377 9.81909 3.04977 10.262 3.04977 14C3.04977 17.738 3.06377 18.1809 3.13122 19.6573C3.19359 21.0229 3.4214 21.7636 3.61359 22.2575C3.83759 22.8645 4.19522 23.4156 4.65977 23.8675C5.11159 24.332 5.66268 24.6896 6.26977 24.9136C6.76359 25.1058 7.50431 25.3336 8.86995 25.396C10.3463 25.4635 10.7879 25.4775 14.5272 25.4775C18.2665 25.4775 18.7081 25.4635 20.1845 25.396C21.5501 25.3336 22.2909 25.1058 22.7847 24.9136C23.4376 24.6591 23.9047 24.3575 24.3947 23.8675C24.8592 23.4156 25.2169 22.8645 25.4409 22.2575C25.633 21.7636 25.8609 21.0229 25.9232 19.6573C25.9907 18.1809 26.0047 17.738 26.0047 14C26.0047 10.262 25.9907 9.81909 25.9232 8.34273C25.8609 6.97709 25.633 6.23636 25.4409 5.74255C25.1863 5.08964 24.8847 4.62255 24.3947 4.13255C23.9428 3.66809 23.3927 3.31063 22.7847 3.08636C22.2909 2.89418 21.5501 2.66636 20.1845 2.604V2.604ZM12.739 18.3158C13.7377 18.7315 14.8497 18.7876 15.8851 18.4746C16.9206 18.1615 17.8152 17.4986 18.4162 16.5992C19.0172 15.6998 19.2873 14.6197 19.1804 13.5432C19.0735 12.4668 18.5961 11.4609 17.8299 10.6973C17.3415 10.2092 16.7509 9.8354 16.1007 9.60291C15.4505 9.37043 14.7569 9.285 14.0697 9.35278C13.3825 9.42056 12.7189 9.63986 12.1266 9.99489C11.5343 10.3499 11.0282 10.8319 10.6445 11.406C10.2609 11.9801 10.0093 12.6322 9.90788 13.3152C9.80648 13.9983 9.85778 14.6953 10.0581 15.3561C10.2584 16.0169 10.6027 16.6251 11.0663 17.1369C11.5299 17.6487 12.1012 18.0513 12.739 18.3158ZM9.43886 8.91164C10.1071 8.24342 10.9004 7.71337 11.7734 7.35173C12.6465 6.9901 13.5822 6.80397 14.5272 6.80397C15.4722 6.80397 16.408 6.9901 17.281 7.35173C18.1541 7.71337 18.9474 8.24342 19.6156 8.91164C20.2838 9.57985 20.8139 10.3731 21.1755 11.2462C21.5371 12.1193 21.7233 13.055 21.7233 14C21.7233 14.945 21.5371 15.8807 21.1755 16.7538C20.8139 17.6269 20.2838 18.4202 19.6156 19.0884C18.2661 20.4379 16.4357 21.196 14.5272 21.196C12.6187 21.196 10.7884 20.4379 9.43886 19.0884C8.08934 17.7388 7.33119 15.9085 7.33119 14C7.33119 12.0915 8.08934 10.2612 9.43886 8.91164V8.91164ZM23.3192 7.87564C23.4848 7.71943 23.6174 7.53159 23.7091 7.32324C23.8008 7.11489 23.8497 6.89025 23.853 6.66264C23.8563 6.43503 23.814 6.20906 23.7284 5.99812C23.6428 5.78718 23.5158 5.59556 23.3548 5.4346C23.1938 5.27363 23.0022 5.1466 22.7913 5.06102C22.5803 4.97544 22.3544 4.93306 22.1268 4.93638C21.8992 4.9397 21.6745 4.98865 21.4662 5.08034C21.2578 5.17203 21.07 5.30459 20.9138 5.47018C20.61 5.79222 20.4437 6.21997 20.4501 6.66264C20.4566 7.1053 20.6353 7.52803 20.9483 7.84107C21.2614 8.15412 21.6841 8.33284 22.1268 8.33929C22.5694 8.34574 22.9972 8.17942 23.3192 7.87564V7.87564Z" fill="#FAFAFA"/>
</svg>
