<?xml version="1.0" encoding="utf-8"?>
<!-- Generator: Adobe Illustrator 23.1.0, SVG Export Plug-In . SVG Version: 6.00 Build 0)  -->
<svg version="1.1" id="Слой_1" xmlns="http://www.w3.org/2000/svg" xmlns:xlink="http://www.w3.org/1999/xlink" x="0px" y="0px"
	 viewBox="0 0 887 405" style="enable-background:new 0 0 887 405;" xml:space="preserve">
<style type="text/css">
	.st0{fill:#FFFFFF;}
	.st1{fill:none;}
	.st2{font-family:'Messapia-Bold';}
	.st3{font-size:60px;}
	.st4{font-size:30px;}
</style>
<g>
	<path class="st0" d="M143.4,207.2l-0.5,69.2c-11.9-0.3-21.4-10.5-21.4-22.9l0.3-54L143.4,207.2z"/>
	<path class="st0" d="M212.5,207.4l0.1,69.2c11.9-0.2,21.4-10.4,21.4-22.8v-54L212.5,207.4z"/>
	<path class="st0" d="M170.1,277h16.6c2.6,0,4.6-2.1,4.6-4.7v-75.2c0-2.1,1.3-3.9,3.2-4.5l37.8-11.8c2.6-0.8,3.9-3.6,3-6.1
		l-4.8-13.7c-0.9-2.3-3.2-3.6-5.6-2.9l-45.4,12.5c-0.7,0.2-1.6,0.2-2.4,0l-45.5-12.5c-2.4-0.7-4.7,0.7-5.6,2.9l-4.8,13.7
		c-0.9,2.6,0.4,5.3,3,6.1l37.8,11.8c1.9,0.6,3.2,2.4,3.2,4.5v75.2C165.5,274.9,167.6,277,170.1,277z"/>
</g>
<rect x="257" y="157.5" class="st1" width="585" height="138.5"/>
<text transform="matrix(1 0 0 1 257.0068 202.5098)"><tspan x="0" y="0" class="st0 st2 st3">PRIME </tspan><tspan x="0" y="72" class="st0 st2 st3">EXPEDITION</tspan></text>
<text transform="matrix(1 0 0 1 121.1401 324.9619)" class="st0 st2 st4">TO INFINITY AND BEYOND</text>
</svg>
