<svg width="425" height="450" fill="none" xmlns="http://www.w3.org/2000/svg"><path d="m97.24 195.448-1.939 226.304c-40.166-1.11-72.299-34.112-72.299-75.158l1.108-176.661 73.13 25.515z" fill="#93118B"/><path d="m330.204 196.28.277 226.303c40.166-.832 72.299-33.834 72.299-74.602V171.32l-72.576 24.96z" fill="#620E66"/><path d="M187.268 423.97h55.955c8.588 0 15.513-6.933 15.513-15.253V162.723c0-6.934 4.432-12.758 10.803-14.699l127.424-38.549c8.587-2.496 13.019-11.648 9.972-19.968l-16.343-44.928c-2.77-7.766-10.804-11.648-18.837-9.43L218.847 75.917c-2.493.832-5.541.832-8.034 0L57.351 35.15c-8.033-2.218-15.79 2.22-18.837 9.43L22.171 89.507c-2.77 8.32 1.385 17.472 9.972 19.968l127.424 38.549c6.371 1.941 10.803 8.043 10.803 14.699v245.994c1.385 8.32 8.587 15.253 16.898 15.253z" fill="url(#a)"/><path d="m234.572 179.76 17.586 7.971v-12.369h3.134v13.881l27.859 12.781v-12.369h3.134v13.744l8.357 3.848c4.527 2.061 8.706 2.199 11.318.275l1.393-.962c.696-.413 1.741-.413 2.263.137.523.55.523 1.374-.174 1.787l-1.393.962c-1.915 1.237-4.178 1.924-6.79 1.924s-5.398-.687-8.358-1.924l-60.07-27.488c-.697-.412-1.045-1.099-.523-1.786.523-.55 1.567-.825 2.264-.412zM256.685 170.139l17.586 7.971v-12.369h3.134v13.881l27.859 12.782v-12.37h3.134v13.744l8.357 3.848c4.527 2.062 8.706 2.199 11.318.275l1.393-.962c.696-.412 1.741-.412 2.263.137.523.55.523 1.375-.174 1.787l-1.393.962c-1.915 1.237-4.178 1.924-6.79 1.924s-5.398-.687-8.358-1.924l-60.07-27.487c-.697-.412-1.045-1.099-.523-1.787.523-.549 1.567-.687 2.264-.412z" fill="#16110D"/><path d="M266.609 140.041c9.055-4.398 23.332 1.649 23.332 1.649l10.795 4.947c.175.138.523.275.697.275 1.393.55 7.487 3.436 12.014 8.659 0 0 16.715 18.416 16.019 25.975 0 .413-.697 2.886-1.219 3.574-1.393 2.336-4.353 5.909-10.621 8.933-10.447 4.948-18.457 3.573-18.457 3.573s-32.734-44.941-37.261-48.515c-4.353-3.436-6.964-5.909 1.045-9.895.348-.137 3.482.962 3.656.825z" fill="#98509B"/><path d="M265.391 142.514c8.88-4.26 23.331 1.787 23.331 1.787l10.796 4.948c.174.137.522.137.696.275 1.219.549 7.487 3.298 12.188 8.796 0 0 16.716 18.416 16.019 25.975 0 .412-.696 2.886-1.219 3.573-1.393 2.337-7.138 5.085-13.581 8.246-.174.138.174-.137 0 0-8.357 3.849-16.889 2.612-21.764-3.985-9.751-13.194-27.859-37.658-31.168-40.269-4.352-3.436-3.83-5.085 4.353-8.933.349-.413.175-.275.349-.413z" fill="#FEDDFF"/><path d="M302.304 198.451c3.308 0 9.054-.55 15.844-3.848 6.443-3.024 9.577-6.735 10.97-9.209.522-.687 1.219-3.298 1.219-3.71.696-7.559-15.497-25.426-16.193-26.251-4.527-5.36-10.448-8.108-12.189-8.795-.174-.138-.522-.275-.696-.275l-10.795-4.948c-.697-.275-14.8-6.047-23.855-1.787-.348 0-1.044-.275-1.393-.412-1.392-.412-1.915-.55-2.263-.412-3.482 1.649-5.224 3.298-5.572 4.81-.348 1.924 1.741 3.711 4.353 5.772 4.353 3.436 36.913 48.103 37.261 48.515l.174.138h.175c0 .274 1.044.412 2.96.412zm-27.859-59.51c7.487 0 15.148 3.161 15.322 3.299l10.795 4.947c.349.138.523.275.871.413 1.219.549 7.313 3.298 11.84 8.521 0 .137 16.541 18.279 15.845 25.563 0 .275-.697 2.748-1.219 3.298-1.393 2.474-4.353 5.91-10.447 8.796-9.054 4.398-16.367 3.711-17.76 3.573-2.612-3.573-32.908-45.079-37.261-48.515-2.438-1.924-4.179-3.435-4.005-4.947.174-1.237 1.741-2.611 4.875-4.123.348 0 .871.275 1.393.412 1.393.412 1.915.55 2.264.412 2.263-1.237 4.875-1.649 7.487-1.649z" fill="#16110D"/><path d="M249.198 142.927c9.75-5.773 26.117-4.948 26.988-4.948v.825s-6.617-.275-12.711 3.023c-2.089 1.237-3.134 2.474-3.134 3.711.174 1.649 1.915 3.436 5.224 4.948l13.059 6.047c.174.137.522.275.696.275 1.741.687 7.661 3.573 12.188 8.796.697.824 16.89 18.691 16.193 26.25-.174 1.512-.522 2.749-1.219 3.711 5.398.274 12.189-2.199 12.189-2.199l-8.358 3.71-7.139.688c-.87.274-1.741.274-2.786.274-3.482 0-8.009-1.236-13.929-3.573-9.054-3.711-12.885-5.635-17.412-7.971-1.741-.825-3.308-1.787-5.398-2.749-.174 0-24.028-12.644-24.724-20.753l-.174-1.374c-.523-6.734-1.045-11.957 10.447-18.691z" fill="#16110D"/><path d="m209.847 113.378-6.616-4.261c0-2.611 2.96-3.71 5.223-3.023.871.275 1.567.55 2.264.962l38.306 22.814c4.004 2.749 8.531 4.81 13.407 6.322 2.437.687 5.571 1.512 9.228 2.337 0 0-11.318-.55-21.068 10.72-.349.275-40.744-35.871-40.744-35.871zM313.621 155.708s9.228 10.17 13.755 18.554c0 .137 1.219 6.185-4.875 9.621-6.094 3.435-10.273 5.909-15.845 5.36-5.571-.688-26.117-9.621-28.381-13.881-2.437-4.398-6.268-14.019-5.223-17.043 1.044-3.023 20.546-13.056 28.555-11.132 1.393.55 7.487 3.299 12.014 8.521z" fill="#98509B"/><path d="M308.398 189.792c4.527 0 8.357-2.061 13.407-4.947l1.044-.55c6.443-3.574 5.224-9.758 5.05-10.033-4.353-8.246-13.581-18.416-13.755-18.691-4.528-5.36-10.448-8.109-12.189-8.796-5.049-1.237-13.407 2.061-16.889 3.436-5.572 2.336-11.84 6.047-12.537 7.971-1.218 3.161 2.786 12.782 5.224 17.317 2.612 4.673 23.506 13.606 28.903 14.156.523 0 1.219.137 1.742.137zm18.456-15.393s1.045 5.773-4.701 9.071l-1.045.55c-5.397 3.024-9.228 5.223-14.277 4.673-5.746-.687-25.77-9.483-28.033-13.606-2.612-4.948-6.094-14.019-5.05-16.768.523-1.236 5.398-4.535 12.014-7.421 6.791-2.886 12.537-4.261 15.845-3.436 1.045.412 7.139 3.298 11.666 8.521 0 .137 9.054 10.308 13.581 18.416z" fill="#16110D"/><path d="M273.052 158.182c.696-1.787 7.487-5.91 14.626-8.658-5.746 2.474-10.796 5.635-11.318 7.146-1.045 2.749 2.612 11.682 4.701 15.805 2.264 4.124 21.243 12.37 26.292 12.919 5.049.55 8.88-1.786 14.626-4.947 3.83-2.199 4.527-5.498 4.527-7.422.174.413.522.825.696 1.1 0 .137 1.219 6.184-4.875 9.62-6.094 3.436-10.273 5.91-15.845 5.36-5.571-.687-26.117-9.62-28.381-13.881-2.263-4.398-6.094-14.018-5.049-17.042z" fill="#98509B"/><path d="M308.398 189.792c4.527 0 8.357-2.061 13.407-4.947l1.044-.55c6.443-3.573 5.224-9.758 5.05-10.033-.174-.55-.523-.962-.697-1.374l-1.044-1.924v2.061c0 1.787-.697 4.948-4.353 7.009l-1.045.55c-5.049 2.749-8.532 4.81-13.233 4.261-5.223-.55-23.854-8.796-25.943-12.644-2.438-4.536-5.746-13.057-4.702-15.531.349-1.237 5.05-4.26 11.144-6.872l-.522-.824c-7.313 2.749-14.278 7.009-14.975 8.933-1.218 3.161 2.786 12.782 5.224 17.317 2.612 4.673 23.506 13.606 28.903 14.156.523.275 1.219.412 1.742.412zm18.456-14.156c0 1.925-.522 5.498-4.701 7.834l-1.045.55c-5.397 3.024-9.228 5.223-14.277 4.673-5.746-.687-25.77-9.483-28.033-13.606-2.612-4.948-6.094-14.019-5.05-16.767.174-.55 1.045-1.237 2.264-2.199 0 .137-.174.274-.174.412-1.219 3.161 2.96 12.644 4.875 16.08 2.438 4.398 21.765 12.644 26.814 13.194 5.049.549 8.88-1.512 14.104-4.398l1.044-.55c2.438-1.512 3.657-3.436 4.179-5.223z" fill="#16110D"/><path d="m307.527 189.792-.174-.687c-2.438-8.521-15.148-22.677-15.671-23.227-4.527-5.36-10.447-8.108-12.188-8.795-.174-.138-.522-.275-.696-.275l-3.134-1.375-.349.275c-1.567 1.1-2.437 1.924-2.611 2.612-1.219 3.161 2.785 12.781 5.223 17.316 2.438 4.536 23.332 13.469 28.73 14.156h.87zm-31.863-33.259 2.263 1.099c.348.138.522.275.871.413 1.219.549 7.313 3.298 11.84 8.521.174.137 12.362 13.743 15.322 22.127-6.616-1.375-24.899-9.621-26.988-13.469-2.612-4.948-6.094-14.018-5.05-16.767-.174-.275.175-.825 1.742-1.924z" fill="#16110D"/><path d="M283.151 193.366v-1.1c1.044.413 2.089.825 3.134 1.375v1.099c-1.219-.55-2.09-.962-3.134-1.374zM252.158 175.911l3.134 2.062v1.237l-3.134-2.062v-1.237z" fill="#98509B"/><path d="M250.591 148.974c-.523.55-40.744-35.596-40.744-35.596l-5.746-3.848c1.045-1.1 2.96-1.512 4.527-1.1.871.275 1.567.55 2.264.962l38.306 22.815c4.004 2.748 8.531 4.81 13.407 6.322.87.275 1.741.549 2.786.824-4.179 1.1-9.751 3.711-14.8 9.621z" fill="#FEDDFF"/><path d="M250.591 149.524h.348l.174-.138c9.228-10.995 20.372-10.582 20.546-10.582h.348l.522-.825-.696-.137c-3.308-.688-6.442-1.512-9.054-2.337a45.77 45.77 0 0 1-13.233-6.184l-38.306-22.815a12.14 12.14 0 0 0-2.438-1.099c-1.393-.413-2.96-.275-4.178.412-1.219.687-1.742 1.787-1.742 3.024v.274l6.791 4.398c38.828 35.184 40.569 36.009 40.918 36.009zm17.76-11.545c-4.179.687-11.318 2.749-17.935 10.308-3.482-2.474-25.421-22.127-40.221-35.321l-6.268-4.123c0-1.1.697-1.787 1.393-2.062.871-.55 2.089-.55 3.134-.275.697.138 1.393.55 2.09.962l38.305 22.815c4.005 2.748 8.706 4.947 13.582 6.322 1.741.412 3.83.962 5.92 1.374z" fill="#16110D"/><path d="m202.708 108.705.348-.137.349-.138 40.221 24.052c1.567 1.099 2.786 2.061 4.005 3.023 1.393 1.237 2.611 2.611 4.178 5.223.349.687.697 1.512.871 2.336.348 1.649.174 3.161-.522 4.673-.871 1.787-2.264 3.161-4.353 4.123-4.876 2.336-8.184 3.573-8.184 3.573l-.87.275v-.687c0-.137-1.567-14.156-13.93-23.776-4.179-3.299-8.009-5.223-11.317-6.872-2.438-1.1-4.353-2.199-6.095-3.436-2.96-2.199-4.701-5.36-4.701-8.658v-3.574z" fill="#16110D"/><path d="M273.052 143.064c-1.916.825-1.916 2.337 0 3.161 1.915.825 5.049.825 6.79 0 1.916-.824 1.916-2.336 0-3.161-1.741-.824-4.875-.824-6.79 0z" fill="#98509B"/><path d="M276.534 147.325a9.876 9.876 0 0 0 3.657-.688c1.044-.549 1.741-1.236 1.741-1.924 0-.824-.697-1.511-1.741-1.924-2.09-.962-5.398-.962-7.487 0-1.045.55-1.742 1.237-1.742 1.924 0 .825.697 1.512 1.742 1.924 1.218.55 2.437.688 3.83.688zm0-4.398c1.219 0 2.264.137 3.134.549.697.275 1.045.688 1.045 1.1 0 .412-.348.825-1.045 1.099-1.741.825-4.527.825-6.268 0-.696-.274-1.045-.687-1.045-1.099 0-.412.349-.825 1.045-1.1.871-.412 1.915-.549 3.134-.549z" fill="#16110D"/><path d="M276.708 136.742c1.045 0 1.916.687 1.916 1.512v5.222c0 .825-.871 1.512-1.916 1.512-1.044 0-1.915-.687-1.915-1.512v-5.222c-.174-.825.871-1.512 1.915-1.512z" fill="#16110D"/><path d="M273.052 136.467c-1.916.825-1.916 2.337 0 3.161 1.915.825 5.049.825 6.79 0 1.916-.824 1.916-2.336 0-3.161-1.741-.962-4.875-.962-6.79 0z" fill="#98509B"/><path d="M276.534 140.728a9.897 9.897 0 0 0 3.657-.687c1.044-.55 1.741-1.237 1.741-1.925 0-.824-.697-1.511-1.741-1.924-2.09-.962-5.398-.962-7.487 0-1.045.55-1.742 1.237-1.742 1.924 0 .825.697 1.512 1.742 1.925 1.044.412 2.437.687 3.83.687zm0-4.536c1.219 0 2.264.138 3.134.55.697.275 1.045.687 1.045 1.1 0 .412-.348.824-1.045 1.099-1.741.825-4.527.825-6.268 0-.696-.275-1.045-.687-1.045-1.099 0-.413.349-.825 1.045-1.1.871-.275 1.915-.55 3.134-.55z" fill="#16110D"/><path d="M272.007 131.52c-2.438 1.099-2.438 2.886 0 4.123 2.438 1.099 6.442 1.099 8.88 0 2.438-1.1 2.438-2.887 0-4.123-2.438-1.1-6.442-1.1-8.88 0z" fill="#98509B"/><path d="M272.007 133.306c-2.438 1.1-2.438 2.886 0 4.123 2.438 1.1 6.442 1.1 8.88 0 2.438-1.099 2.438-2.886 0-4.123-2.438-1.099-6.442-1.099-8.88 0z" fill="#FEDDFF"/><path d="M276.534 136.88c1.741 0 3.482-.275 4.701-.963 1.393-.687 2.09-1.511 2.09-2.473s-.697-1.787-2.09-2.474c-2.611-1.237-6.79-1.237-9.576 0-1.393.687-2.09 1.512-2.09 2.474 0 .962.697 1.786 2.09 2.473 1.393.688 3.134.963 4.875.963zm0-5.773c1.567 0 2.96.275 4.179.825 1.045.412 1.567 1.099 1.567 1.649s-.522 1.237-1.567 1.649c-2.264 1.1-6.094 1.1-8.358 0-1.044-.412-1.567-1.099-1.567-1.649s.523-1.237 1.567-1.649c1.219-.55 2.612-.825 4.179-.825z" fill="#16110D"/><path d="M273.226 128.358c-1.915.825-1.915 2.199 0 3.161 1.915.825 4.875.825 6.79 0 1.916-.824 1.916-2.199 0-3.161-1.915-.962-5.049-.962-6.79 0z" fill="#98509B"/><path d="M276.534 132.482a9.876 9.876 0 0 0 3.657-.688c1.044-.549 1.741-1.237 1.741-1.924 0-.824-.523-1.512-1.741-1.924-2.09-.962-5.224-.962-7.313 0-1.045.55-1.742 1.237-1.742 1.924 0 .825.523 1.512 1.742 1.924 1.044.55 2.263.688 3.656.688zm0-4.398c1.045 0 2.264.137 3.134.549.697.275 1.045.688 1.045 1.1 0 .412-.348.824-1.045 1.099-1.741.825-4.527.825-6.094 0-.696-.275-1.045-.687-1.045-1.099 0-.412.349-.825 1.045-1.1.697-.275 1.915-.549 2.96-.549z" fill="#16110D"/><path d="M274.793 123.961c.696-.138 1.045.412 1.393.824.174.138.348.412.522.412.174 0 .349-.274.523-.549.348-.413.87-.825 1.393-.687 1.915.412 3.134 2.886 3.134 3.71 0 1.375-2.264 2.474-5.224 2.474-2.96 0-5.223-1.099-5.223-2.474.174-.962 1.567-3.298 3.482-3.71z" fill="#16110D"/><path d="M273.574 125.61c0 .824 1.393 1.374 3.134 1.374 1.741 0 3.134-.687 3.134-1.374 0-.825-1.393-1.375-3.134-1.375-1.741-.137-3.134.55-3.134 1.375z" fill="#FEDDFF"/><path d="M276.708 127.396c2.09 0 3.831-.824 3.831-1.924 0-1.099-1.567-1.924-3.831-1.924-2.089 0-3.83.825-3.83 1.924 0 1.1 1.741 1.924 3.83 1.924zm0-2.886c1.567 0 2.612.55 2.612.962 0 .413-1.045.962-2.612.962-1.567 0-2.612-.549-2.612-.962 0-.412 1.045-.962 2.612-.962z" fill="#16110D"/><path d="M317.452 170.276c1.219-.549 1.567-1.649.87-2.611-2.437-3.298-7.835-10.72-10.969-13.194-2.438-1.924-4.701-3.436-6.442-4.26-1.219-.55-2.786-.275-3.483.824-.522.825-.174 1.925.871 2.337 1.393.687 3.482 1.924 5.572 3.711 2.437 2.061 7.487 8.658 10.273 12.506.87.962 2.263 1.237 3.308.687zM320.934 175.362c1.219-.55 1.567-1.65 1.045-2.612-.697-.962-2.09-1.237-3.134-.687-1.219.55-1.567 1.649-.871 2.611.348.825 1.741 1.1 2.96.688z" fill="#FEDDFF"/><path d="M276.708 135.093c5.224 0 10.447-.962 14.278-2.749 4.005-1.787 6.094-4.26 6.094-6.872 0-2.611-2.089-5.085-6.094-6.871-7.835-3.574-20.72-3.574-28.73 0-4.004 1.786-6.094 4.26-6.094 6.871 0 2.612 2.09 5.085 6.094 6.872 4.005 1.787 9.229 2.749 14.452 2.749zm0-18.142c5.05 0 9.925.825 13.756 2.612 3.482 1.649 5.571 3.71 5.571 6.047 0 2.199-1.915 4.398-5.571 6.047-7.488 3.436-19.85 3.436-27.511 0-3.482-1.649-5.572-3.711-5.572-6.047 0-2.199 1.915-4.398 5.572-6.047 3.831-1.787 8.88-2.612 13.755-2.612z" fill="#16110D"/><path d="M276.708 130.283c2.438 0 5.05-.413 6.965-1.375s2.96-2.061 2.96-3.436c0-1.374-1.045-2.474-2.96-3.436-3.831-1.786-9.925-1.786-13.755 0-1.916.962-2.96 2.062-2.96 3.436 0 1.375 1.044 2.474 2.96 3.436 1.741.962 4.353 1.375 6.79 1.375zm0-8.521c2.264 0 4.527.412 6.268 1.236 1.568.688 2.438 1.65 2.438 2.612 0 .962-.87 1.924-2.438 2.611-3.482 1.649-9.228 1.649-12.71 0-1.567-.687-2.438-1.649-2.438-2.611 0-.962.871-1.924 2.438-2.612 1.915-.824 4.179-1.236 6.442-1.236z" fill="#16110D"/><path d="M276.708 155.846c16.89 0 33.779-2.886 46.664-8.796 12.536-5.772 19.501-13.469 19.501-21.715s-6.965-15.805-19.501-21.577c-25.77-11.682-67.558-11.682-93.327 0-12.537 5.772-19.501 13.468-19.501 21.577 0 8.246 6.964 15.805 19.501 21.577 12.884 6.048 29.774 8.934 46.663 8.934zm0-59.922c16.716 0 33.431 2.886 46.141 8.658 12.189 5.635 18.979 12.919 18.979 20.753s-6.79 15.255-18.979 20.753c-25.421 11.682-66.687 11.682-92.108 0-12.188-5.635-18.979-12.919-18.979-20.753s6.791-15.255 18.979-20.753c12.537-5.772 29.252-8.658 45.967-8.658z" fill="#16110D"/><path d="M219.772 131.52c1.741 0 3.308-.275 4.701-.962 3.308-1.512 5.223-4.673 5.223-8.934 0-8.658-7.661-19.103-17.063-23.364-4.701-2.199-9.054-2.474-12.362-.962-3.309 1.512-5.224 4.673-5.224 8.933 0 8.659 7.661 19.104 17.064 23.365 2.611 1.374 5.223 1.924 7.661 1.924zm-14.974-34.222c2.263 0 4.701.55 7.138 1.787 9.055 4.123 16.368 14.293 16.368 22.539 0 3.848-1.568 6.872-4.528 8.109-2.96 1.374-6.964.962-11.317-.962-9.054-4.123-16.367-14.293-16.367-22.54 0-3.848 1.567-6.871 4.527-8.108 1.219-.55 2.612-.825 4.179-.825zM325.635 122.724c-1.393-4.811-6.094-9.346-13.929-12.919-3.308-1.512-6.965-2.749-10.97-3.711l1.045-.687c3.831.962 7.313 2.199 10.447 3.711 8.184 3.71 13.059 8.521 14.452 13.606h-1.045zM334.341 121.899c-.348 0-.87.137-1.219.137-1.567-5.634-7.138-10.72-16.018-14.843-3.657-1.649-7.662-3.023-12.015-4.123l1.045-.687a73.86 73.86 0 0 1 11.666 4.123c9.228 4.123 14.974 9.621 16.541 15.393z" fill="#16110D"/><path d="M256.511 145.675c.87-.962 3.134-2.886 4.701-3.71l-.871.962-.522.824-.522.962c-.523.55-1.219.962-1.742 1.512-3.308 3.436-4.701 8.109-3.656 12.644l2.263 10.583c1.219 3.985 2.612 6.872 6.095 8.796.87.549 2.089 1.099 3.308 1.786 2.96 1.512 6.094 3.161 9.402 4.536 1.045.412 2.264.549 3.308.275 1.393-.413 2.264-1.512 2.264-2.612v-3.985l1.219.824v2.886c0 1.375-.871 2.749-2.264 3.436-.87.413-1.741.55-2.612.55-.87 0-1.567-.137-2.437-.55-3.308-1.511-6.617-3.023-9.577-4.672-1.219-.688-2.263-1.237-3.308-1.787-3.831-2.062-5.398-5.223-6.616-9.346l-2.264-10.582c-1.045-4.811.348-9.621 3.831-13.332zM250.416 148.149c1.045-.962 2.09-2.199 2.264-2.336 0 .275-.174 1.237-.522 1.924-.871 1.787-2.612 3.298-4.527 4.26-4.179 1.924-8.184 3.711-9.054 3.986v-1.099a674.84 674.84 0 0 1 8.357-3.711c1.567-.687 2.786-1.787 3.482-3.024z" fill="#98509B"/><path d="M202.534 100.596c2.09-.962 4.875-.962 7.661-.137l.174 1.099c-1.393-.549-2.785-.687-4.004-.687a7.256 7.256 0 0 0-3.134.687c-2.09.963-3.309 2.887-3.657 5.498l-1.219-.825c.349-2.611 1.741-4.673 4.179-5.635z" fill="#16110D"/><path d="M210.369 117.089c.349 0 .697 0 .871-.138.696-.275 1.045-.824 1.045-1.649 0-1.374-1.219-3.023-2.786-3.711-.871-.412-1.741-.412-2.264-.137-.696.275-1.044.825-1.044 1.649 0 1.374 1.218 3.024 2.786 3.711.522.137 1.044.275 1.392.275zm-2.089-5.085c.174 0 .522.137.871.137 1.218.55 2.089 1.924 2.089 3.024 0 .412-.174.687-.348.824-.348.138-.697.138-1.219-.137-1.219-.55-2.089-1.924-2.089-3.024 0-.412.174-.687.348-.824h.348z" fill="#98509B"/><g clip-path="url(#b)"><path d="m149.655 299.811 5.129 1.98 16.645-10.766 135.627 83.733 52.705 20.248s21.334 19.61 18.098 22.604c-3.236 2.995-31.936 14.811-31.936 14.811-9.612 4.147-27.777 4.319-43.005-.06-10.815-3.018-21.363-7.754-31.213-13.744l-140.623-86.806c-1.428-.922-2.436-2.473-2.736-4.186l-6.684-31.292 27.993 3.478z" fill="#98509B"/><path d="m154.639 301.48 10.297-6.649 3.276 1.217 5.783-3.799 132.914 82.043 52.706 20.248s21.761 19.761 18.383 22.757c-1.971 1.735-12.851 6.83-21.474 10.5-10.054 2.435-26.546-.529-40.207-4.299-10.815-3.018-21.363-7.754-31.212-13.744l-160.613-99.408-2.973-14.168 27.848 3.168 5.272 2.134z" fill="#98509B"/><path d="M322.67 434.825s16.735-1.25 25.181-8.662c1.407-1.262 2.532-2.364 3.373-3.464.569.15 1.279.144 1.99.293 5.116.731 12.348.039 16.601-.469-9.326 4.3-22.477 9.417-22.477 9.417-5.937 2.552-15.577 3.735-25.375 3.204l.707-.319z" fill="#FEDDFF"/><path d="m121.235 296.181 3.119 14.635 3.709 16.968c.302 1.869 1.312 3.576 2.882 4.497l140.623 86.806a119.802 119.802 0 0 0 31.213 13.743c7.684 2.112 16.353 3.277 24.3 3.202 7.38-.07 14.041-1.069 18.705-3.141l.142-.002c1.131-.478 25.871-10.697 31.23-14.336.423-.316.846-.632 1.128-.79.281-.315.42-.628.414-1.252-.047-4.992-18.087-21.512-18.944-22.128l-.142.001-52.706-20.248-132.915-82.199-.283.159-2.427-1.537-6.066 3.957-.285-.153-10.298 6.65-4.985-1.825-28.414-3.007zm51.77-3.611-4.796 3.166-2.136-.76 5.22-3.325 1.712.919zm183.516 134.915c-9.629 2.275-24.559-.547-34.231-2.795 2.822-1.743 5.638-4.11 8.308-6.943l14.886-16.677-211.03-102.83 15.062 1.885 5.271 1.978 10.58-6.808 2.992 1.219 5.502-3.484 132.914 82.043 52.706 20.248c5.154 4.787 18.192 17.612 18.227 21.355.003.312-.137.469-.278.627-.14.157-.281.314-.563.473-2.68 1.742-9.887 5.086-16.953 8.273-.989.477-2.262.957-3.393 1.436zm-58.873 2.898c4.83.422 14.337.176 23.654-5.06 7.256 1.803 18.064 4.041 27.146 3.954 1.703-.016 3.263-.186 4.822-.357-3.817 1.596-6.785 2.872-7.492 3.191l-.142.001c-9.753 4.149-28.062 4.166-42.721-.063-1.707-.452-3.558-1.058-5.267-1.666z" fill="#16110D"/><path d="m121.662 296.334 177.031 109.548c14.134 8.758 62.944 22.335 79.025 11.886 16.081-10.448-6.491-40.966-20.767-49.722L179.923 258.81l-58.261 37.524z" fill="#98509B"/><path d="M298.554 406.194 121.38 296.492l-.146-.467 58.825-37.841L357.23 367.575c10.422 6.453 26.357 25.489 26.487 39.216.046 4.835-1.905 8.598-5.713 11.13-4.091 2.691-10.183 3.84-17.279 3.908-21.429.203-51.607-9.183-62.171-15.635zM122.372 296.326l176.6 109.084c13.991 8.604 62.519 22.339 78.742 11.89 3.668-2.375 5.48-5.824 5.436-10.504-.129-13.57-15.775-32.142-26.054-38.44L180.212 259.274l-57.84 37.052z" fill="#16110D"/><path d="m180.101 277.527 176.884 109.082c6.71 4.148 14.486 15.931 18.26 24.787l.003.312c-.701.942-1.543 1.886-2.671 2.677-12.978 8.391-57.362-2.42-68.784-9.488L139.615 303.651l40.486-26.124z" fill="#FEDDFF"/><path d="m130.035 296.253 50.503-32.458 176.456 108.773c.142-.001.285.154.429.308.285.154.57.307.714.461.428.308.714.462 1.142.77.144.154.286.153.287.309a45.612 45.612 0 0 1 4.293 3.703l.144.155-.886 11.396c-1.721-1.856-3.438-3.399-5.152-4.475L181.081 276.113l-40.204 25.965L304.912 403.17c11.278 6.913 55.522 17.881 68.5 9.49 1.128-.79 2.114-1.58 2.813-2.678-2.757-6.37-7.372-14.126-12.249-19.54l.884-11.552.143.154.574.619c6.451 6.803 12.501 16.105 12.999 23.744l.001.156.006.624.003.312.006.624.007.78c.002.156.003.312-.137.469a10.126 10.126 0 0 1-.823 2.972c-.139.313-.278.627-.419.784l.002.156-.141.157-.14.158-.141.157c-.7.943-1.685 1.888-2.672 2.521-3.244 2.215-8.629 3.046-14.732 3.104-18.591.176-45.913-7.365-54.336-12.589L131.032 296.556l-.997-.303z" fill="#16110D"/><path d="m181.076 275.647-.675-11.382-49.656 31.983 9.423 5.838 40.908-26.439z" fill="#98509B"/><path d="m130.035 296.254 50.644-32.616.684 12.317-41.191 26.599-10.137-6.3zm50.088-31.363-48.81 31.351 8.85 5.376 40.628-26.125-.668-10.602z" fill="#16110D"/><path d="m170.247 330.972-.009-.936 3.141 1.998.009.936-1.143-.769.043 4.523-.714-.461-.043-4.524-1.284-.767zM166.434 333.036l.979-1.569c-.287-.309-.432-.62-.577-.93-.145-.311-.291-.778-.294-1.09-.004-.467.135-.781.417-.939.282-.159.568-.006.995.146l1.857 1.23.05 5.304-.714-.461-.019-2.028-.858-.616-.836 1.568-1-.615zm1.113-2.35c.144.155.289.465.431.464l.999.614-.015-1.559-.999-.615c-.429-.308-.711-.149-.707.319.145.31.146.466.291.777zM285.527 409.438c9.85 5.99 20.256 10.728 31.071 13.745 1.566.453 3.557.902 5.834 1.505-.283.158-.707.319-.988.633-1.991-.449-3.699-.901-4.98-1.357-10.815-3.017-21.363-7.753-31.213-13.743l-160.755-99.407-.294-1.089 161.325 99.713zM207.5 293.179l-.468-49.291-64.347 9.346.47 49.603c-.137.47 1.011 1.863 1.724 2.168l21.415 13.213c1.142.769 3.27.593 4.539-.199l35.691-22.958c.562-.63.981-1.258.976-1.882z" fill="#98509B"/><path d="m165.68 268.459-22.273-13.984c-1.143-.769-1.013-2.019.257-2.811l35.69-22.958c1.412-.793 3.397-.968 4.54-.199l22.273 13.985c1.143.769 1.013 2.018-.257 2.81l-35.69 22.958c-1.268.948-3.397.969-4.54.199z" fill="#FEDDFF"/><path d="M206.985 238.897c-.138.469-.415 1.096-1.122 1.414l-35.691 22.958c-1.411.794-3.397.969-4.539.199l-22.274-13.984c-.429-.308-.715-.617-.72-1.085l.055 5.771c-.138.469.152 1.091.723 1.397l22.276 14.297c1.143.769 3.27.593 4.54-.199l35.691-22.958c.847-.476 1.124-1.103 1.119-1.727l-.058-6.083z" fill="#98509B"/><path d="m201.582 237.856-18.133-11.372c-.999-.615-2.559-.444-3.688.191L148.02 247.1c-1.129.634-1.261 1.728-.261 2.342l4.14 2.613 27.791-17.891c1.129-.635 2.689-.806 3.688-.191l14.134 8.757 4.09-2.69c.846-.632.978-1.726-.02-2.184z" fill="#98509B"/><path d="m205.878 241.871-35.691 22.958c-1.411.793-3.397.968-4.539.199l-22.274-13.985c-1.143-.769-1.013-2.018.257-2.81l35.691-22.958c1.411-.794 3.397-.968 4.539-.199l22.272 13.828c1.143.77 1.013 2.019-.255 2.967zm-4.284-2.768-18.133-11.371c-1-.615-2.559-.444-3.689.191l-31.74 20.424c-1.129.635-1.261 1.728-.262 2.343l17.991 11.373c1 .614 2.559.444 3.689-.191l31.882-20.426c1.129-.635 1.261-1.728.262-2.343z" fill="#FEDDFF"/><path d="m172.817 272.761 4.515-2.851.072 7.643-4.513 3.007-.074-7.799zm3.816-1.752-3.245 2.058.057 6.084 3.244-2.215-.056-5.927zM178.319 269.276l4.515-2.851.072 7.644-4.513 3.006-.074-7.799zm3.816-1.752-3.245 2.059.058 6.083 3.243-2.215-.056-5.927zM183.68 265.793l4.514-2.85.073 7.643-4.513 3.006-.074-7.799zm3.817-1.596-3.245 2.059.057 6.083 3.244-2.214-.056-5.928zM189.182 262.31l4.515-2.851.072 7.644-4.513 3.006-.074-7.799zm3.817-1.596-3.245 2.059.058 6.083 3.243-2.215-.056-5.927zM194.542 258.827l4.515-2.851.072 7.644-4.513 3.006-.074-7.799zm3.817-1.596-3.245 2.059.058 6.083 3.243-2.215-.056-5.927zM200.044 255.343l4.515-2.851.072 7.643-4.513 3.007-.074-7.799zm3.817-1.596-3.245 2.058.058 6.084 3.243-2.215-.056-5.927zM172.901 281.652l4.515-2.851.073 7.643-4.514 3.007-.074-7.799zm3.817-1.596-3.244 2.058.057 6.084 3.244-2.215-.057-5.927zM178.405 278.323l4.515-2.851.072 7.643-4.513 3.007-.074-7.799zm3.816-1.752-3.245 2.059.057 6.083 3.244-2.215-.056-5.927zM183.765 274.841l4.515-2.85.073 7.643-4.514 3.007-.074-7.8zm3.816-1.752-3.245 2.059.058 6.083 3.243-2.214-.056-5.928zM189.268 271.357l4.514-2.851.073 7.643-4.514 3.007-.073-7.799zm3.815-1.752-3.245 2.059.058 6.083 3.243-2.215-.056-5.927zM194.628 267.874l4.515-2.851.072 7.643-4.513 3.007-.074-7.799zm3.815-1.752-3.244 2.058.057 6.084 3.244-2.215-.057-5.927zM200.13 264.39l4.515-2.851.072 7.643-4.513 3.007-.074-7.799zm3.816-1.753-3.244 2.215.058 6.084 3.243-2.215-.057-6.084zM146.614 248.516c.005.468.295 1.09.865 1.396l4.283 2.612 13.848 8.604c.429.308 1.14.457 1.85.451.851-.008 1.559-.171 2.265-.646l27.508-17.732 4.232-2.693c.565-.317.844-.788.982-1.257-.002-.156.138-.313.137-.469-.006-.624-.294-1.089-.865-1.396l-18.133-11.372c-.57-.306-1.281-.456-1.991-.449-.426.004-.709.007-1.134.167a6.62 6.62 0 0 0-.989.477l-31.74 20.425c-.704.63-1.125 1.102-1.118 1.882zm5.853 3.533 27.226-17.574c.987-.633 2.548-.648 3.404-.188l13.563 8.451-27.225 17.574c-.988.633-2.549.648-3.405.188l-13.563-8.451zm-5.143-3.539c-.003-.312.278-.627.701-.943l31.74-20.425c.14-.157.282-.158.424-.16l.142-.001c.142-.001.142-.001.283-.159l.141-.001.284-.003.142-.001.284-.003.142-.001c.284-.003.426-.004.711.149.284-.003.427.152.571.307l.065 6.863c-.429-.308-1.14-.457-1.708-.452-.851.008-1.559.171-2.264.646l-27.509 17.732-3.855-2.459c-.006-.624-.291-.777-.294-1.089z" fill="#16110D"/><path d="m142.275 254.953.453 47.731c-.135.782 1.298 2.172 1.869 2.479l21.414 13.213c.571.306 1.425.61 2.135.603.993-.009 1.984-.331 2.689-.805l35.69-22.958c.846-.632 1.408-1.262 1.258-2.04l-.457-48.199-.056-5.928-.001-.156c-.006-.624-.296-1.245-1.009-1.55l-22.273-13.985c-1.285-.768-3.413-.747-4.966.203l-35.69 22.958c-.847.476-1.265 1.26-1.258 2.04l.001.156.055 5.772c.144.154.145.31.146.466zm27.963 15.179s.141-.001.14-.157l35.69-22.958c.141-.158.423-.316.564-.474l.442 46.64c.004.467-.275.938-.98 1.413l-35.55 22.801-.448-47.264.142-.001zm-.06-6.239s.142-.002.141-.158l35.69-22.958c.141-.157.423-.316.563-.473l.043 4.523c.005.468-.275.939-.98 1.414l-35.55 22.8-.049-5.147.142-.001zm-2.323 54.309.284-.003-.45-47.419c.426-.004.993-.009 1.418-.169l.449 47.419c-.566.161-1.134.167-1.701.172zm-.175-48.358-.05-5.303c.426-.004.851-.008 1.134-.167l.283-.003.051 5.304c-.425.16-.85.164-1.418.169zm-24.756-21.293c-.004-.468.275-.938.982-1.257l35.69-22.958c.706-.475 1.556-.639 2.407-.647a3.64 3.64 0 0 1 1.849.45l22.274 13.985c.285.153.572.463.577.931.004.468-.419.784-.984 1.101l-35.69 22.958c-1.27.792-3.115.81-4.114.195l-22.274-13.985c-.427-.152-.714-.461-.717-.773z" fill="#16110D"/><path d="m171.864 247.029 3.305-40.591 5.549 1.508.392 41.336.003.312c-.139.313-.276.782-.841 1.1-.987.633-2.689.805-3.546.189l-4.283-2.611c-.571-.307-.717-.773-.579-1.243z" fill="#98509B"/><path d="m175.56 202.847 2.57 1.536c.57.307 1.564.297 2.127-.176.563-.474.701-.943.129-1.405l-2.57-1.536c-.57-.307-1.564-.297-2.127.176-.705.475-.699 1.099-.129 1.405z" fill="#FEDDFF"/><path d="m172.306 248.741 4.282 2.612c.429.307 1.14.457 1.708.451.709-.006 1.559-.17 2.264-.645.423-.316.704-.631.843-.944l.137-.469-.004-.468-.392-41.336-.05-5.304-.002-.156c-.003-.312-.149-.778-.576-.93l-2.569-1.536c-.714-.461-1.848-.294-2.553.18-.423.316-.562.63-.701.943l.052 5.46-3.306 40.59c-.137.47.153 1.091.867 1.552zm7.933-46.407c.002.156-.139.314-.28.315-.565.317-1.275.324-1.702.172l-2.569-1.535c-.142.001-.144-.155-.144-.155-.001-.156.139-.313.281-.315.283-.158.707-.318.991-.321.283-.003.567-.005.711.149l2.569 1.536c.142-.001.143.154.143.154zm.051 5.304c.001.156-.139.313-.28.471-.423.316-.99.321-1.417.169l-.042-4.368a60.5 60.5 0 0 0 .426-.004c.426-.004.992-.165 1.274-.324l.039 4.056zm-2.998 43.084 1.168-41.507.425-.004c.426-.004.992-.165 1.275-.324l.383 40.4.003.312c.003.312-.278.627-.703.787-.563.473-1.697.64-2.551.336z" fill="#16110D"/><path d="m175.025 206.284 3.284 1.997s.142-.001.285.154l.009.935c-.284.003-.427-.152-.569-.15l-3.283-1.997-.011-1.092c-.001-.156.142-.001.285.153z" fill="#98509B"/><path d="m195.518 286.897 8.038-5.536.147 15.598-8.04 5.224-.145-15.286zm7.622-4.44-7.051 4.746.131 13.883 7.053-4.591-.133-14.038z" fill="#16110D"/><path d="m201.95 291.672-.061-6.396-4.371 3.006.059 6.239 4.373-2.849z" fill="#16110D"/><path d="m155.267 247.967 7.335-4.75 7.424 4.61.021 2.184-7.336 4.749-.02-2.184-7.424-4.609z" fill="#98509B"/><path d="m154.981 247.813.003.312.023 2.34 7.709 4.763.282-.159 7.336-4.749-.023-2.34-.002-.312-7.71-4.763-7.335 4.75-.283.158zm7.624-4.284 6.854 4.303-6.771 4.432-6.854-4.303 6.771-4.432zm.386 10.76-.015-1.56 3.95-2.533 2.821-1.899.015 1.56-6.771 4.432z" fill="#16110D"/><path d="m362.597 409.643 3.305-40.591 5.55 1.508.392 41.336.003.312c-.139.313-.277.782-.842 1.1-.987.633-2.689.805-3.546.189l-4.283-2.611c-.57-.307-.717-.773-.579-1.243z" fill="#98509B"/><path d="m366.294 365.461 2.569 1.536c.571.306 1.564.297 2.127-.176.564-.474.701-.943.129-1.406l-2.569-1.535c-.571-.307-1.564-.297-2.128.176-.563.473-.699 1.099-.128 1.405z" fill="#FEDDFF"/><path d="m363.039 411.355 4.282 2.611c.429.308 1.14.458 1.708.452.71-.007 1.56-.171 2.265-.645.422-.316.703-.631.842-.944l.138-.47-.005-.468-.392-41.335-.05-5.304-.001-.156c-.003-.312-.15-.778-.577-.93l-2.569-1.536c-.714-.461-1.848-.294-2.553.18-.423.316-.562.63-.701.943l.052 5.459-3.305 40.591c-.138.47.152 1.091.866 1.552zm8.076-46.408c.001.156-.139.313-.281.315-.565.317-1.275.324-1.702.172l-2.569-1.536c-.142.002-.143-.154-.143-.154-.002-.156.138-.314.28-.315.283-.159.707-.319.991-.321.284-.003.568-.006.711.149l2.569 1.535.144.155zm.05 5.303c.001.156-.139.314-.28.471-.422.316-.99.322-1.417.17l-.043-4.524.426-.004c.425-.004.992-.165 1.274-.324l.04 4.211zm-2.998 43.084 1.168-41.506a60.5 60.5 0 0 1 .426-.004c.425-.004.991-.166 1.274-.324l.383 40.4.003.312c.003.311-.278.626-.702.786-.564.474-1.697.64-2.552.336z" fill="#16110D"/><path d="m365.759 368.898 3.283 1.997s.142-.001.285.153l.009.936c-.284.003-.427-.152-.569-.15l-3.283-1.997-.011-1.092c-.001-.156.142-.001.286.153zM356.323 391.607l-13.994-8.916-13.538 9.177 13.421 8.452 14.111-8.713z" fill="#98509B"/><path d="m356.335 392.856-13.992-8.76-13.54 9.021 13.423 8.608 14.109-8.869z" fill="#FEDDFF"/><path d="m356.388 398.47-.065-6.864-14.11 8.714.208 7.018 13.967-8.868zM341.544 389.719c-1.134.166-1.555.638-1.547 1.418l.001.156-3.248 1.747c-.288-.465-.578-1.086-.584-1.71-.022-2.34 2.516-4.08 5.779-4.267l-.401 2.656z" fill="#98509B"/><path d="M336.328 393.357a3.2 3.2 0 0 1-.586-1.867c-.024-2.496 2.654-4.549 6.058-4.737l.284-.003-.251 3.434-.284.003c-1.276.168-1.27.792-1.268.948l.144.311-4.097 1.911zm4.788-3.946.266-1.874c-2.836.339-4.949 1.919-4.93 3.946.004.468.149.779.295 1.246l2.824-1.587c.136-.625.412-1.408 1.545-1.731z" fill="#16110D"/><path d="M341.002 392.376c.429.307.278-.627.987-.634.71-.007 1.428.923 1.851.607l3.421 1.527c-1.126.947-2.965 1.588-4.952 1.607-2.129.02-3.981-.742-5.127-1.823l3.82-1.284z" fill="#98509B"/><path d="m337.045 394.13-.287-.31 4.099-1.754.142-.002c.14-.157.278-.626.846-.632.425-.004.853.148 1.139.457.144.155.571.307.571.307l.14-.157 4.135 1.988-.423.316c-1.267 1.104-3.106 1.746-5.092 1.765-1.989-.137-3.981-.743-5.27-1.978zm6.8-1.313c-.283.159-.711-.149-1.139-.301-.285-.153-.57-.307-.854-.304-.142.002-.142.002-.281.315-.14.157-.139.313-.421.472l-.284.002-2.97 1.121c1.143.769 2.708 1.222 4.411 1.206 1.561-.015 2.976-.496 4.105-1.131l-2.567-1.38z" fill="#16110D"/><path d="M344.822 391.092s.001.156 0 0c-.008-.78-.441-1.556-1.578-1.701l-.448-2.336c3.266.125 5.838 1.972 5.859 4.156.006.624-.271 1.407-.692 1.879l-3.141-1.998z" fill="#98509B"/><path d="m344.684 391.561-.284.003-.001-.156-.142.002.139-.314c-.004-.468-.436-1.088-1.289-1.236l-.284.003-.313-3.117.284-.003c3.549.123 6.123 2.126 6.146 4.622.008.78-.269 1.563-.689 2.191l-.14.157-3.427-2.152zm-1.159-2.485c.995.147 1.428.923 1.578 1.702l.143.154 2.713 1.69c.279-.47.417-.94.412-1.407-.018-1.872-2.163-3.568-5.004-3.853l.158 1.714z" fill="#16110D"/><path d="M339.997 391.138c.007.78 1.15 1.549 2.427 1.537 1.277-.012 2.407-.647 2.398-1.583-.006-.624-.731-2.177-1.442-2.326-.285-.154-.558.941-.984.945-.426.004-.577-.931-1.002-.927-.85.165-1.403 1.73-1.397 2.354z" fill="#98509B"/><path d="M339.571 391.142c-.007-.78.686-2.503 1.676-2.824.425-.16.713.305.858.616.001.156.143.154.145.31 0 0 .14-.157.139-.313.139-.313.419-.628.845-.632 1.138.301 1.724 2.167 1.73 2.791.01 1.092-1.26 1.884-2.821 1.899-1.277.012-2.562-.756-2.572-1.847zm3.532-1.75c-.139.313-.42.628-.846.632-.426.004-.571-.306-.857-.616l-.144-.154c-.565.317-1.12 1.57-1.116 2.038.005.468.862 1.084 1.997 1.073 1.278-.012 1.981-.643 1.977-1.111-.005-.467-.584-1.71-1.155-2.017.284-.002.286.154.144.155z" fill="#16110D"/><path d="M342.405 390.647c-.941.009-1.708-.473-1.714-1.076-.005-.603.753-1.099 1.693-1.108.941-.009 1.708.473 1.713 1.076.006.603-.752 1.099-1.692 1.108z" fill="#98509B"/><path d="M340.699 390.351c.006.624.72 1.085 1.713 1.076.994-.01 1.699-.484 1.693-1.108-.006-.624-.72-1.086-1.713-1.076-.992.165-1.698.64-1.693 1.108z" fill="#FEDDFF"/><path d="M340.266 389.575c-.008-.78.838-1.412 1.973-1.423 1.136-.011 1.993.605 2 1.385.008.78-.838 1.412-1.973 1.423-.992.165-1.991-.449-2-1.385zm.851-.008c.003.312.574.618 1.283.612.852-.008 1.275-.324 1.272-.636-.003-.312-.574-.619-1.283-.612-.852.008-1.273.48-1.272.636z" fill="#16110D"/><path d="m328.362 391.56.071 7.487 14.134 8.758 14.248-9.183-.069-7.331-.429-.308-13.992-8.759-13.54 9.02-.423.316zm27.251.054-13.403 8.394-2.286-1.538-10.423-6.609 12.834-8.545 13.278 8.298zm.346 6.548-13.4 8.707-.06-6.239 10.864-6.811 2.54-1.584.056 5.927z" fill="#16110D"/><path d="m203.835 310.841-13.992-8.759-13.54 9.02 13.423 8.609 14.109-8.87z" fill="#98509B"/><path d="m203.848 312.245-13.994-8.915-13.538 9.176 13.422 8.453 14.11-8.714z" fill="#FEDDFF"/><path d="m203.9 317.704-.065-6.863-14.109 8.87.209 7.018 13.965-9.025zM189.058 309.109c-1.134.166-1.555.638-1.548 1.418l.002.156-3.248 1.747c-.288-.465-.578-1.086-.584-1.71-.022-2.34 2.516-4.08 5.778-4.267l-.4 2.656z" fill="#98509B"/><path d="M183.84 312.59a3.198 3.198 0 0 1-.586-1.866c-.024-2.496 2.654-4.549 6.058-4.738l.284-.002-.251 3.434-.284.003c-1.276.168-1.27.792-1.268.948l.144.31-4.097 1.911zm4.788-3.945.266-1.875c-2.836.339-4.949 1.919-4.93 3.947.004.468.149.779.295 1.245l2.824-1.586c.136-.626.412-1.408 1.545-1.731z" fill="#16110D"/><path d="M188.514 311.61c.429.308.278-.626.987-.633.71-.007 1.428.922 1.851.606l3.421 1.528c-1.127.946-2.966 1.588-4.952 1.607-2.129.02-3.981-.743-5.127-1.824l3.82-1.284z" fill="#98509B"/><path d="m184.556 313.363-.286-.309 4.099-1.755.142-.001c.14-.157.278-.627.845-.632.426-.004.853.148 1.14.457.144.155.571.307.571.307l.14-.158 4.277 1.988-.423.316c-1.267 1.104-3.106 1.745-5.092 1.764-2.129.02-4.123-.741-5.413-1.977zm6.801-1.312c-.283.159-.711-.149-1.139-.301-.285-.153-.57-.307-.854-.304-.142.001-.142.001-.281.315-.14.157-.139.313-.421.472l-.284.002-2.97 1.12c1.143.77 2.708 1.223 4.411 1.207 1.561-.015 2.976-.497 4.105-1.131l-2.567-1.38z" fill="#16110D"/><path d="M192.335 310.482c-.001-.156 0 0 0 0-.007-.78-.44-1.556-1.577-1.701l-.448-2.336c3.265.125 5.838 1.972 5.858 4.156.006.624-.27 1.407-.691 1.879l-3.142-1.998z" fill="#98509B"/><path d="m192.196 310.795-.284.003-.001-.156-.142.001.139-.313c-.004-.468-.436-1.088-1.289-1.236l-.284.003-.313-3.117.283-.003c3.55.122 6.124 2.126 6.147 4.622.008.78-.269 1.562-.689 2.19l-.14.157-3.427-2.151zm-1.159-2.485c.995.147 1.428.922 1.578 1.701l.143.155 2.713 1.69c.279-.471.417-.94.412-1.408-.018-1.872-2.163-3.567-5.004-3.853l.158 1.715z" fill="#16110D"/><path d="M187.51 310.528c.008.78 1.15 1.549 2.428 1.537 1.277-.012 2.406-.647 2.397-1.583-.006-.624-.73-2.177-1.441-2.326-.285-.154-.559.941-.985.945-.425.004-.576-.93-1.002-.926-.85.164-1.403 1.729-1.397 2.353z" fill="#98509B"/><path d="M187.084 310.532c-.007-.78.686-2.503 1.677-2.824.424-.16.712.305.857.616.002.156.144.154.145.31 0 0 .14-.157.139-.313.139-.313.42-.628.846-.632 1.138.301 1.723 2.168 1.729 2.792.011 1.091-1.259 1.883-2.82 1.898-1.278.012-2.564-.911-2.573-1.847zm3.531-1.906c-.139.314-.42.628-.846.632-.426.004-.571-.306-.857-.616l-.144-.154c-.565.317-1.12 1.57-1.116 2.038.004.468.862 1.084 1.997 1.073 1.277-.012 1.981-.642 1.977-1.11-.005-.468-.584-1.711-1.155-2.017.284-.003.285.153.144.154z" fill="#16110D"/><path d="M188.205 308.961c.006.624.72 1.085 1.713 1.076.994-.009 1.699-.484 1.693-1.108-.006-.624-.72-1.085-1.713-1.076-.994.01-1.699.484-1.693 1.108z" fill="#98509B"/><path d="M188.212 309.741c.006.624.72 1.085 1.714 1.076.993-.01 1.698-.484 1.692-1.108-.006-.624-.72-1.086-1.713-1.076-.993.009-1.699.484-1.693 1.108z" fill="#FEDDFF"/><path d="M187.779 308.965c-.007-.78.838-1.412 1.974-1.423 1.135-.01 1.992.605 2 1.385.007.78-.838 1.412-1.974 1.423-.993.009-1.992-.605-2-1.385zm.71-.007c.003.312.573.619 1.283.612.851-.008 1.274-.324 1.271-.636-.003-.312-.573-.619-1.283-.612-.71.007-1.274.324-1.271.636z" fill="#16110D"/><path d="m175.876 310.95.071 7.487 14.134 8.758 14.248-9.183-.07-7.331-.429-.308-13.992-8.759-13.539 9.02-.423.316zm27.249-.102-13.403 8.395-2.286-1.539-10.423-6.609 12.834-8.545 13.278 8.298zm.348 6.704-13.401 8.707-.059-6.239 10.864-6.811 2.54-1.584.056 5.927z" fill="#16110D"/><path d="m250.608 319.133-.205-21.682-37.383 24.067.208 21.993 37.38-24.378zM250.397 296.828l-14.134-8.758-37.241 24.065 13.99 8.603 37.385-23.91z" fill="#98509B"/><path d="m212.872 320.895.159 1.87 37.385-23.91-.019-2.028-37.525 24.068z" fill="#98509B"/><path d="m248.986 297.778-12.708-7.991-37.239 24.22 12.562 7.681 37.385-23.91z" fill="#FEDDFF"/><path d="m198.593 311.827.219 23.085 14.421 9.067 37.661-24.692-.216-22.774-14.421-9.067-37.664 24.381zm51.587 6.998-2.681 1.742-.183-19.342 2.68-1.742.184 19.342zm-30.328 19.788-2.82 1.898-.187-19.654 2.821-1.898.186 19.654zm.379-19.972 2.82-1.898.187 19.654-2.821 1.898-.186-19.654zm3.245-2.058 2.962-1.901.186 19.655-2.82 1.898-.328-19.652zm3.527-2.218 2.82-1.899.185 19.498-2.82 1.899-.185-19.498zm3.385-2.216 2.821-1.899.185 19.498-2.821 1.899-.185-19.498zm3.385-2.216 2.822-1.743.185 19.498-2.82 1.899-.187-19.654zm3.386-2.216 2.82-1.899.185 19.498-2.82 1.899-.185-19.498zm3.386-2.06 2.821-1.899.183 19.342-2.82 1.899-.184-19.342zm3.386-2.216 2.82-1.899.184 19.342-2.821 1.899-.183-19.342zm-30.472 19.476 2.822-1.742.188 19.81-2.821 1.898-.189-19.966zm-.018-1.871 36.678-23.592.013 1.404-36.679 23.436-.009-.936-.002-.156-.001-.156zm-13.71-8.918 36.536-23.59 13.278 8.298-36.679 23.435-13.135-8.143z" fill="#16110D"/><path d="m198.612 313.855-.007-.78 14.704 9.064.008.78-7.424-4.61.201 21.214-.429-.308-.201-21.213-6.852-4.147z" fill="#98509B"/><path d="M209.016 333.412c.142-.002.284-.003.425-.16l.282-.159c.142-.001.14-.157.139-.313-.001-.156-.143-.155-.285-.153l-.283.158c-.14.158-.282.159-.425.004l-1.428-.922.282-.159c.142-.001.14-.157.139-.313-.002-.156-.144-.155-.285-.154l-.283.159c-.14.158-.281.315-.279.471.001.156.145.31.288.465l1.427.767c-.139.313.003.312.286.309zM204.021 330.495c.142-.002.284-.003.425-.16l.282-.159c.142-.001.14-.157.139-.313-.002-.156-.144-.155-.285-.154l-.283.159c-.14.157-.282.159-.426.004l-1.428-.922.283-.159c.142-.001.14-.157.139-.313-.002-.156-.144-.155-.286-.154l-.282.159c-.14.157-.281.315-.279.471.001.156.145.31.288.465l1.428.922c-.14.158.001.156.285.154zM265.885 328.662l-.206-21.682-37.381 24.222.207 21.838 37.38-24.378zM265.673 306.356l-13.992-8.76-37.383 24.066 13.992 8.76 37.383-24.066z" fill="#98509B"/><path d="m228.15 330.579.16 1.87 37.384-23.91-.019-2.028-37.525 24.068z" fill="#98509B"/><path d="m264.263 307.306-12.565-7.837-37.383 24.066 12.564 7.837 37.384-24.066z" fill="#FEDDFF"/><path d="m213.871 321.511.219 23.085 14.419 8.911 37.805-24.538-.216-22.773-14.421-9.068-37.806 24.383zm51.587 6.998-2.68 1.742-.184-19.342 2.68-1.742.184 19.342zm-30.327 19.788-2.821 1.898-.188-19.81 2.821-1.898.188 19.81zm.378-19.972 2.82-1.898.187 19.654-2.821 1.898-.186-19.654zm3.243-2.214 2.963-1.9.186 19.654-2.82 1.898-.329-19.652zm3.527-2.218 2.821-1.898.185 19.498-2.821 1.898-.185-19.498zm3.386-2.216 2.82-1.899.185 19.498-2.82 1.899-.185-19.498zm3.385-2.216 2.822-1.743.185 19.498-2.821 1.899-.186-19.654zm3.387-2.06 2.82-1.899.185 19.498-2.82 1.899-.185-19.498zm3.385-2.216 2.821-1.899.183 19.342-2.82 1.899-.184-19.342zm3.385-2.216 2.821-1.899.183 19.342-2.82 1.899-.184-19.342zm-30.47 19.633 2.822-1.743.188 19.81-2.821 1.899-.189-19.966zm-.019-2.028 36.678-23.592.013 1.404-36.68 23.436-.008-.936-.002-.156-.001-.156zm-13.71-8.918 36.678-23.592 13.278 8.298-36.68 23.436-13.276-8.142z" fill="#16110D"/><path d="m213.889 323.383-.006-.624 14.705 9.064.007.78-7.424-4.609.2 21.058-.429-.308-.2-21.058-6.853-4.303z" fill="#98509B"/><path d="M224.295 343.095c.141-.001.283-.002.424-.16l.282-.158c.142-.002.141-.158.139-.314-.001-.156-.143-.154-.285-.153l-.283.159c-.14.157-.282.158-.425.004l-1.427-.767.283-.158c.141-.002.14-.158.139-.314-.002-.156-.144-.154-.286-.153l-.282.159c-.141.157-.281.314-.28.47.002.156.145.311.289.466l1.428.922.284-.003zM219.298 340.024c.142-.002.284-.003.424-.16l.283-.159c.141-.001.14-.157.139-.313-.002-.156-.144-.155-.286-.154l-.282.159c-.141.157-.282.159-.426.004l-1.428-.923.282-.158c.142-.002.141-.158.139-.314-.001-.156-.143-.154-.285-.153l-.282.159c-.141.157-.281.315-.28.471.002.156.145.31.289.465l1.428.922c-.141.158.143.155.285.154zM281.162 338.187l-.204-21.526-37.383 24.067.207 21.837 37.38-24.378zM280.951 316.038l-13.993-8.916-37.382 24.222 13.991 8.604 37.384-23.91z" fill="#98509B"/><path d="m243.427 340.105.159 1.87 37.385-23.91-.019-2.028-37.525 24.068z" fill="#98509B"/><path d="m279.541 316.988-12.566-7.993-37.381 24.222 12.562 7.681 37.385-23.91z" fill="#FEDDFF"/><path d="m229.29 331.035.219 23.086 14.42 9.067 37.661-24.693-.216-22.773-14.42-9.068-37.664 24.381zm51.444 7-2.68 1.742-.183-19.342 2.822-1.743.041 19.343zm-30.327 19.788-2.82 1.898-.187-19.654 2.821-1.898.186 19.654zm.379-19.972 2.82-1.898.187 19.654-2.821 1.898-.186-19.654zm3.243-2.214 2.963-1.9.186 19.654-2.821 1.898-.328-19.652zm3.527-2.218 2.821-1.898.185 19.498-2.821 1.898-.185-19.498zm3.387-2.06 2.821-1.899.184 19.498-2.82 1.899-.185-19.498zm3.385-2.216 2.822-1.743.185 19.498-2.82 1.899-.187-19.654zm3.386-2.216 2.82-1.899.185 19.498-2.821 1.899-.184-19.498zm3.386-2.06 2.821-1.899.183 19.342-2.82 1.899-.184-19.342zm3.386-2.216 2.82-1.899.184 19.342-2.821 1.899-.183-19.342zm-30.472 19.477 2.822-1.743.188 19.81-2.821 1.899-.189-19.966zm-.02-2.028 36.678-23.592.014 1.404-36.68 23.436-.009-.936-.001-.156-.002-.156zm-13.708-8.762 36.677-23.748 13.278 8.298-36.68 23.436-13.275-7.986z" fill="#16110D"/><path d="m229.309 333.064-.007-.78 14.704 9.064.008.78-7.424-4.61.201 21.214-.572-.462-.2-21.058-6.71-4.148z" fill="#98509B"/><path d="M239.571 352.621c.142-.001.284-.002.425-.16l.282-.158c.142-.002.141-.158.139-.314-.001-.156-.143-.154-.285-.153l-.283.159c-.14.157-.282.158-.425.004l-1.427-.767.282-.158c.142-.002.141-.158.139-.314-.001-.156-.143-.154-.285-.153l-.282.159c-.141.157-.281.314-.28.47.002.156.145.311.289.466l1.428.922.283-.003zM234.576 349.704c.142-.001.284-.002.425-.16l.282-.158c.142-.002.14-.158.139-.314-.002-.156-.144-.154-.285-.153l-.283.159c-.14.157-.282.159-.426.004l-1.426-.767.282-.158c.142-.002.141-.158.139-.314-.001-.156-.143-.154-.285-.153l-.282.159c-.141.157-.281.314-.28.47.002.156.145.311.288.466l1.427.766c.001.156.143.155.285.153zM296.44 347.872l-.206-21.682-37.381 24.222.207 21.838 37.38-24.378zM296.228 325.566l-13.992-8.76-37.383 24.066 13.991 8.604 37.384-23.91z" fill="#98509B"/><path d="m258.703 349.632.162 2.027 37.384-23.91-.019-2.028-37.527 23.911z" fill="#98509B"/><path d="m294.817 326.516-12.564-7.837-37.383 24.066 12.706 7.836 37.241-24.065z" fill="#FEDDFF"/><path d="m244.568 340.719.219 23.086 14.421 9.067 37.659-24.849-.214-22.618-14.421-9.067-37.664 24.381zm51.585 6.843-2.68 1.741-.183-19.342 2.68-1.741.183 19.342zm-30.467 19.945-2.821 1.898-.188-19.81 2.821-1.898.188 19.81zm.376-20.128 2.821-1.898.186 19.654-2.82 1.898-.187-19.654zm3.245-2.058 2.963-1.901.186 19.654-2.82 1.899-.329-19.652zm3.527-2.218 2.821-1.899.186 19.654-2.82 1.899-.187-19.654zm3.386-2.216 2.82-1.899.185 19.498-2.82 1.899-.185-19.498zm3.385-2.216 2.822-1.743.185 19.498-2.821 1.899-.186-19.654zm3.387-2.06 2.82-1.899.185 19.498-2.82 1.899-.185-19.498zm3.385-2.216 2.821-1.899.183 19.342-2.821 1.899-.183-19.342zm3.527-2.218 2.821-1.898.185 19.498-2.821 1.898-.185-19.498zm-30.612 19.634 2.822-1.742.188 19.81-2.821 1.898-.189-19.966zm-.019-2.027 36.677-23.592.014 1.404-36.68 23.435-.008-.935-.002-.156-.001-.156zm-13.71-8.918 36.678-23.592 13.278 8.298-36.68 23.436-13.276-8.142z" fill="#16110D"/><path d="m244.586 342.591-.008-.78 14.706 9.22.008.78-7.424-4.61.199 21.058-.57-.306-.201-21.214-6.71-4.148z" fill="#98509B"/><path d="M254.85 362.305c.142-.001.283-.003.424-.16l.282-.159c.142-.001.141-.157.139-.313-.001-.156-.143-.155-.285-.153l-.282.159c-.141.157-.283.158-.426.004l-1.427-.767.283-.159c.142-.001.14-.157.139-.313-.002-.156-.144-.155-.286-.153l-.282.158c-.141.158-.281.315-.28.471.002.156.145.311.289.465l1.428.923.284-.003zM249.853 359.233c.142-.002.284-.003.424-.161l.283-.158c.142-.002.14-.158.139-.313-.002-.156-.144-.155-.286-.154l-.282.159c-.14.157-.282.159-.426.004l-1.426-.767.282-.158c.142-.002.14-.158.139-.314-.002-.156-.143-.154-.285-.153l-.283.159c-.14.157-.281.315-.279.471.001.155.145.31.288.465l1.428.922.284-.002zM311.717 357.397l-.204-21.526-37.242 24.065.208 21.838 37.238-24.377zM311.506 335.248l-13.993-8.916-37.382 24.223 14.133 8.601 37.242-23.908z" fill="#98509B"/><path d="m273.982 359.315.301 1.869 37.243-23.909-.019-2.028-37.525 24.068z" fill="#98509B"/><path d="m310.096 336.198-12.566-7.993-37.381 24.222 12.704 7.68 37.243-23.909z" fill="#FEDDFF"/><path d="m259.845 350.245.219 23.086 14.42 9.067 37.661-24.693-.216-22.773-14.42-9.067-37.664 24.38zm51.586 6.999-2.68 1.742-.183-19.342 2.68-1.742.183 19.342zm-30.469 19.789-2.82 1.899-.187-19.654 2.821-1.899.186 19.654zm.379-19.972 2.82-1.898.187 19.654-2.821 1.898-.186-19.654zm3.385-2.216 2.962-1.9.187 19.654-2.821 1.899-.328-19.653zm3.385-2.216 2.821-1.898.185 19.498-2.821 1.898-.185-19.498zm3.387-2.06 2.821-1.898.184 19.498-2.82 1.898-.185-19.498zm3.527-2.217 2.822-1.743.185 19.498-2.821 1.899-.186-19.654zm3.244-2.215 2.82-1.899.185 19.498-2.821 1.899-.184-19.498zm3.527-2.217 2.82-1.899.184 19.342-2.821 1.899-.183-19.342zm3.386-2.06 2.821-1.899.183 19.342-2.82 1.899-.184-19.342zm-30.613 19.478 2.822-1.743.187 19.81-2.82 1.899-.189-19.966zm-.02-2.028 36.678-23.592.014 1.404-36.68 23.436-.009-.936-.001-.156-.002-.156zm-13.566-8.763 36.534-23.747 13.279 8.298-36.68 23.436-13.133-7.987z" fill="#16110D"/><path d="m259.864 352.274-.008-.78 14.705 9.064.008.78-7.424-4.609.201 21.213-.572-.462-.2-21.058-6.71-4.148z" fill="#98509B"/><path d="M270.126 371.832c.142-.001.284-.003.425-.16l.282-.159c.142-.001.14-.157.139-.313-.002-.156-.143-.155-.285-.153l-.283.158c-.14.158-.282.159-.425.004l-1.428-.922.282-.159c.142-.001.14-.157.139-.313-.002-.156-.144-.155-.285-.153l-.283.158c-.14.158-.281.315-.279.471.001.156.145.311.288.465l1.428.923c.002.156.143.154.285.153zM265.131 368.915c.142-.002.284-.003.424-.16l.283-.159c.142-.001.14-.157.139-.313-.002-.156-.144-.155-.286-.154l-.282.159c-.14.157-.282.159-.426.004l-1.426-.766.282-.159c.142-.001.141-.157.139-.313-.001-.156-.143-.155-.285-.154l-.283.159c-.14.157-.28.315-.279.471.001.156.145.31.288.465l1.427.766s.143.155.285.154zM265.672 306.199l-.204-21.526-37.383 24.067.207 21.837 37.38-24.378zM265.462 284.049l-14.136-8.913-37.239 24.22 13.99 8.604 37.385-23.911z" fill="#98509B"/><path d="m227.795 308.118.302 1.869 37.384-23.91-.019-2.028-37.667 24.069z" fill="#98509B"/><path d="m264.051 285-12.707-7.992-37.24 24.221 12.562 7.681L264.051 285z" fill="#FEDDFF"/><path d="m213.658 299.048.219 23.086 14.419 8.911 37.663-24.537-.216-22.773-14.421-9.067-37.664 24.38zm51.587 6.999-2.68 1.742-.184-19.342 2.68-1.742.184 19.342zm-30.327 19.788-2.821 1.898-.186-19.654 2.82-1.898.187 19.654zm.236-19.97 2.821-1.899.186 19.654-2.821 1.899-.186-19.654zm3.385-2.217 2.964-1.744.187 19.654-2.821 1.899-.33-19.809zm3.528-2.217 2.82-1.899.185 19.498-2.821 1.899-.184-19.498zm3.386-2.06 2.821-1.899.185 19.498-2.821 1.899-.185-19.498zm3.386-2.216 2.822-1.743.185 19.498-2.821 1.899-.186-19.654zm3.385-2.216 2.82-1.899.185 19.498-2.82 1.899-.185-19.498zm3.385-2.216 2.821-1.899.183 19.342-2.82 1.899-.184-19.342zm3.387-2.06 2.821-1.899.183 19.342-2.821 1.899-.183-19.342zm-30.614 19.478 2.822-1.743.188 19.81-2.821 1.899-.189-19.966zm-.019-2.028 36.678-23.592.013 1.404-36.679 23.436-.009-.936-.002-.156-.001-.156zm-13.567-8.763 36.535-23.746 13.278 8.298-36.679 23.435-13.134-7.987z" fill="#16110D"/><path d="m213.677 301.077-.007-.78 14.705 9.064.007.78-7.424-4.609.201 21.213-.572-.462-.2-21.058-6.71-4.148z" fill="#98509B"/><path d="M223.94 320.635c.142-.001.284-.003.424-.16l.282-.159c.142-.001.141-.157.139-.313-.001-.156-.143-.155-.285-.153l-.282.158c-.141.158-.283.159-.426.004l-1.428-.922.282-.159c.142-.001.141-.157.139-.313-.001-.156-.143-.155-.285-.153l-.282.158c-.141.158-.281.315-.28.471.002.156.145.311.288.465l1.429.923c.001.156.143.154.285.153zM218.945 317.718c.142-.002.284-.003.424-.16l.282-.159c.142-.001.141-.157.139-.313-.001-.156-.143-.155-.285-.154l-.282.159c-.141.157-.283.159-.426.004l-1.427-.766.283-.159c.142-.001.14-.157.139-.313-.002-.156-.144-.155-.286-.154l-.282.159c-.141.157-.281.315-.279.471.001.156.144.31.288.465l1.426.766c.002.156.144.155.286.154zM224.136 296.453l7.335-4.749 7.425 4.609.022 2.34-7.336 4.749-.022-2.339-7.424-4.61z" fill="#98509B"/><path d="m223.851 296.299.003.312.022 2.34 7.709 4.763.283-.159 7.335-4.749-.022-2.34-.003-.312-7.709-4.763-7.336 4.75-.282.158zm7.624-4.284 6.853 4.303-6.771 4.432-6.853-4.303 6.771-4.432zm.385 10.76-.014-1.56 3.95-2.533 2.82-1.899.015 1.56-6.771 4.432z" fill="#16110D"/><path d="m227.547 296.888 3.997 2.458 3.808-2.532-3.854-2.303-3.951 2.377z" fill="#FEDDFF"/><path d="m226.407 296.431 5.078-3.324 5.14 3.227-5.078 3.324-5.14-3.227zm5.085-2.545-4.09 2.691 4.141 2.613 4.09-2.691-4.141-2.613z" fill="#16110D"/><path d="m327.137 367.081-.206-21.682-37.383 24.066.209 21.994 37.38-24.378zM326.925 344.774l-14.134-8.757-37.241 24.064 13.991 8.604 37.384-23.911z" fill="#98509B"/><path d="m289.258 368.843.304 2.025 37.384-23.91-.019-2.028-37.669 23.913z" fill="#98509B"/><path d="m325.514 345.725-12.706-7.836-37.241 24.065 12.563 7.681 37.384-23.91z" fill="#FEDDFF"/><path d="m275.123 359.929.219 23.086 14.419 8.911 37.661-24.692-.214-22.618-14.421-9.067-37.664 24.38zm51.585 6.843-2.68 1.742-.183-19.342 2.68-1.742.183 19.342zm-30.326 19.944-2.82 1.898-.186-19.654 2.82-1.898.186 19.654zm.235-20.126 2.821-1.899.186 19.654-2.82 1.899-.187-19.654zm3.387-2.061 2.963-1.9.186 19.654-2.821 1.899-.328-19.653zm3.527-2.217 2.821-1.899.185 19.498-2.821 1.899-.185-19.498zm3.386-2.216 2.82-1.899.185 19.498-2.82 1.899-.185-19.498zm3.385-2.216 2.822-1.743.185 19.498-2.821 1.899-.186-19.654zm3.387-2.06 2.82-1.899.185 19.498-2.82 1.899-.185-19.498zm3.385-2.216 2.821-1.899.183 19.342-2.821 1.899-.183-19.342zm3.385-2.216 2.821-1.899.183 19.342-2.82 1.899-.184-19.342zm-30.612 19.634 2.822-1.743.188 19.81-2.821 1.899-.189-19.966zm-.019-2.028 36.678-23.592.013 1.404-36.68 23.436-.008-.936-.002-.156-.001-.156zm-13.568-8.919 36.536-23.59 13.278 8.298-36.68 23.435-13.134-8.143z" fill="#16110D"/><path d="m275.141 361.801-.008-.78 14.706 9.22.006.624-7.422-4.453.199 21.058-.57-.307-.201-21.214-6.71-4.148z" fill="#98509B"/><path d="M285.405 381.516c.142-.002.283-.003.424-.161l.282-.158c.142-.002.141-.158.139-.314-.001-.155-.143-.154-.285-.153l-.282.159c-.141.157-.283.159-.426.004l-1.427-.767.283-.158c.142-.002.14-.158.139-.314-.002-.156-.144-.154-.286-.153l-.282.159c-.141.157-.281.314-.28.47.002.156.145.311.289.466l1.428.922c-.002-.156.142-.001.284-.002zM280.408 378.444c.142-.002.284-.003.424-.16l.283-.159c.142-.001.14-.157.139-.313-.002-.156-.144-.155-.286-.154l-.282.159c-.141.157-.282.159-.426.004l-1.428-.922.282-.159c.142-.002.141-.157.139-.313-.001-.156-.143-.155-.285-.154l-.282.159c-.141.157-.281.315-.28.471.002.156.145.31.289.465l1.426.766c.003.312.145.311.287.31zM305.487 344.042l7.335-4.749 7.424 4.609.022 2.34-7.336 4.594-.021-2.184-7.424-4.61z" fill="#98509B"/><path d="m305.202 343.889.003.312.022 2.339 7.709 4.763.283-.158 7.335-4.75-.022-2.34-.003-.312-7.71-4.763-7.335 4.75-.282.159zm7.623-4.285 6.854 4.303-6.771 4.433-6.853-4.303 6.77-4.433zm.386 10.761-.015-1.56 3.95-2.534 2.821-1.898.015 1.56-6.771 4.432z" fill="#16110D"/><path d="m309.039 344.477 3.856 2.459 3.95-2.533-3.997-2.458-3.809 2.532z" fill="#FEDDFF"/><path d="m307.758 344.02 5.078-3.324 5.14 3.227-5.078 3.324-5.14-3.227zm5.085-2.544-4.09 2.691 4.14 2.612 4.091-2.69-4.141-2.613z" fill="#16110D"/><path d="m342.414 376.606-.205-21.526-37.383 24.066.207 21.838 37.381-24.378zM342.203 354.456l-14.135-8.914-37.24 24.221 13.991 8.604 37.384-23.911z" fill="#98509B"/><path d="m304.679 378.523.159 1.871 37.385-23.91-.019-2.028-37.525 24.067z" fill="#98509B"/><path d="m340.793 355.407-12.708-7.992-37.24 24.221 12.563 7.681 37.385-23.91z" fill="#FEDDFF"/><path d="m290.4 369.455.219 23.086 14.42 9.067 37.661-24.693-.216-22.773-14.42-9.068-37.664 24.381zm51.586 6.999-2.68 1.742-.183-19.343 2.68-1.741.183 19.342zm-30.327 19.787-2.82 1.899-.187-19.654 2.821-1.899.186 19.654zm.237-19.97 2.82-1.898.187 19.654-2.821 1.898-.186-19.654zm3.385-2.216 2.962-1.9.187 19.654-2.821 1.899-.328-19.653zm3.527-2.217 2.821-1.899.185 19.498-2.821 1.899-.185-19.498zm3.387-2.06 2.82-1.899.185 19.498-2.82 1.899-.185-19.498zm3.385-2.216 2.822-1.743.185 19.498-2.82 1.899-.187-19.654zm3.385-2.216 2.821-1.899.185 19.498-2.821 1.899-.185-19.498zm3.386-2.216 2.82-1.899.184 19.342-2.821 1.899-.183-19.342zm3.387-2.06 2.82-1.899.183 19.342-2.82 1.899-.183-19.342zm-30.472 19.476 2.822-1.742.187 19.81-2.82 1.898-.189-19.966zm-.02-2.028 36.678-23.591.013 1.404-36.679 23.435-.009-.936-.001-.156-.002-.156zm-13.708-8.761 36.535-23.747 13.278 8.298-36.68 23.436-13.133-7.987z" fill="#16110D"/><path d="m290.419 371.484-.007-.78 14.704 9.064.008.78-7.424-4.61.199 21.058-.57-.306-.2-21.058-6.71-4.148z" fill="#98509B"/><path d="M300.681 391.041c.142-.001.284-.002.425-.16l.282-.158c.142-.002.14-.158.139-.314-.002-.156-.143-.154-.285-.153l-.283.159c-.14.157-.282.158-.425.004l-1.427-.767.282-.158c.142-.002.141-.158.139-.314-.001-.156-.143-.154-.285-.153l-.282.159c-.141.157-.281.314-.28.47.002.156.145.311.289.466l1.428.922.283-.003zM295.686 388.125c.142-.002.284-.003.425-.16l.282-.159c.142-.001.14-.157.139-.313-.002-.156-.144-.155-.285-.154l-.283.159c-.14.157-.282.159-.426.004l-1.428-.922.283-.159c.142-.001.14-.157.139-.313-.002-.156-.144-.155-.286-.154l-.282.159c-.14.157-.281.315-.279.471.001.156.144.31.288.465l1.428.922s.143.155.285.154zM280.95 315.882l-.205-21.681-37.382 24.222.207 21.838 37.38-24.379zM280.739 293.576l-14.134-8.758-37.242 24.065 13.991 8.603 37.385-23.91z" fill="#98509B"/><path d="m243.214 317.643.161 2.027 37.384-23.911-.019-2.027-37.526 23.911z" fill="#98509B"/><path d="m279.328 294.527-12.706-7.836-37.241 24.065 12.564 7.837 37.383-24.066z" fill="#FEDDFF"/><path d="m228.936 308.731.218 22.93 14.421 9.067 37.66-24.693-.214-22.617-14.421-9.068-37.664 24.381zm51.585 6.843-2.68 1.741-.183-19.342 2.68-1.741.183 19.342zm-30.325 19.943-2.821 1.899-.188-19.81 2.821-1.899.188 19.81zm.235-20.126 2.82-1.898.187 19.654-2.821 1.898-.186-19.654zm3.387-2.06 2.962-1.9.186 19.654-2.82 1.899-.328-19.653zm3.527-2.217 2.82-1.899.185 19.498-2.82 1.899-.185-19.498zm3.385-2.216 2.821-1.899.186 19.654-2.821 1.899-.186-19.654zm3.385-2.216 2.822-1.743.185 19.498-2.82 1.899-.187-19.654zm3.387-2.06 2.821-1.899.185 19.498-2.821 1.899-.185-19.498zm3.385-2.216 2.821-1.899.183 19.342-2.82 1.899-.184-19.342zm3.386-2.217 2.82-1.898.184 19.342-2.821 1.898-.183-19.342zm-30.471 19.633 2.822-1.743.186 19.654-2.82 1.899-.188-19.81zm-.019-2.028 36.678-23.591.013 1.404-36.679 23.435-.009-.936-.002-.156-.001-.156zm-13.71-8.918 36.536-23.59 13.278 8.298-36.679 23.436-13.135-8.144z" fill="#16110D"/><path d="m228.954 310.603-.007-.78 14.706 9.22.007.78-7.424-4.61.2 21.058-.571-.306-.201-21.214-6.71-4.148z" fill="#98509B"/><path d="M239.218 330.317c.142-.001.284-.002.424-.16l.283-.158c.142-.002.14-.158.139-.314-.002-.156-.144-.154-.286-.153l-.282.159c-.14.157-.282.158-.426.004l-1.426-.767.282-.158c.142-.002.14-.158.139-.314-.002-.156-.143-.154-.285-.153l-.283.159c-.14.157-.281.314-.279.47.001.156.145.311.288.466l1.427.766c.001.156.143.155.285.153zM234.221 327.245c.142-.002.284-.003.425-.16l.282-.159c.142-.001.14-.157.139-.313-.002-.156-.143-.155-.285-.154l-.283.159c-.14.157-.282.159-.425.004l-1.427-.766.282-.159c.142-.001.141-.157.139-.313-.001-.156-.143-.155-.285-.154l-.282.159c-.141.157-.281.315-.28.471.002.156.145.31.288.465l1.429.922.283-.002zM259.3 292.843l7.336-4.75 7.424 4.61.02 2.184-7.335 4.749-.022-2.34-7.423-4.453z" fill="#98509B"/><path d="m259.156 292.532.003.312.022 2.34 7.709 4.763.282-.159 7.336-4.749-.022-2.34-.003-.312-7.71-4.763-7.335 4.75-.282.158zm7.483-4.127 6.853 4.303-6.77 4.433-6.854-4.303 6.771-4.433zm.386 10.761-.015-1.56 3.95-2.534 2.82-1.898.015 1.559-6.77 4.433z" fill="#16110D"/><path d="m262.853 293.277 3.854 2.304 3.951-2.378-3.997-2.458-3.808 2.532z" fill="#FEDDFF"/><path d="m261.571 292.822 5.078-3.324 5.282 3.225-5.078 3.325-5.282-3.226zm5.084-2.701-4.09 2.691 4.14 2.613 4.091-2.691-4.141-2.613z" fill="#16110D"/><path d="m296.227 325.409-.204-21.525-37.383 24.066.207 21.838 37.38-24.379zM296.017 303.26l-14.136-8.914-37.239 24.221 13.99 8.603 37.385-23.91z" fill="#98509B"/><path d="m258.492 327.327.16 1.87 37.384-23.91-.019-2.028-37.525 24.068z" fill="#98509B"/><path d="m294.606 304.21-12.708-7.991-37.239 24.22 12.562 7.681 37.385-23.91z" fill="#FEDDFF"/><path d="m244.213 318.259.219 23.085 14.421 9.067 37.661-24.692-.216-22.774-14.421-9.067-37.664 24.381zm51.587 6.998-2.68 1.742-.184-19.342 2.68-1.742.184 19.342zm-30.327 19.788-2.821 1.898-.186-19.654 2.82-1.898.187 19.654zm.378-19.972 2.82-1.898.187 19.654-2.821 1.898-.186-19.654zm3.243-2.214 2.963-1.9.186 19.654-2.82 1.898-.329-19.652zm3.527-2.218 2.821-1.898.185 19.498-2.821 1.898-.185-19.498zm3.387-2.06 2.821-1.899.185 19.498-2.821 1.899-.185-19.498zm3.386-2.216 2.822-1.743.184 19.498-2.82 1.899-.186-19.654zm3.385-2.216 2.82-1.899.185 19.498-2.82 1.899-.185-19.498zm3.385-2.216 2.821-1.899.185 19.498-2.821 1.899-.185-19.498zm3.387-2.06 2.82-1.899.184 19.342-2.821 1.899-.183-19.342zm-30.472 19.477 2.822-1.743.188 19.81-2.821 1.899-.189-19.966zm-.019-2.028 36.678-23.592.013 1.404-36.68 23.436-.008-.936-.002-.156-.001-.156zm-13.709-8.762 36.535-23.746 13.278 8.298-36.679 23.435-13.134-7.987z" fill="#16110D"/><path d="m244.232 320.287-.007-.78 14.705 9.064.007.78-7.424-4.609.201 21.214-.43-.464-.2-21.058-6.852-4.147z" fill="#98509B"/><path d="M254.637 339.843c.142-.001.284-.002.424-.16l.282-.158-.003-.312c-.001-.156-.143-.155-.285-.154l-.282.159c-.141.157-.283.159-.426.004l-1.427-.766.283-.159c.142-.001.14-.157.139-.313-.002-.156-.144-.155-.286-.154l-.282.159c-.14.157-.281.315-.279.471.001.156.144.31.288.465l1.428.922.426-.004zM249.641 336.927c.142-.001.284-.003.425-.16l.282-.159c.142-.001.141-.157.139-.313-.001-.156-.143-.155-.285-.153l-.283.158c-.14.158-.282.159-.425.004l-1.428-.922.282-.159c.142-.001.14-.157.139-.313-.002-.156-.143-.155-.285-.153l-.283.158c-.14.158-.281.315-.279.471.001.156.145.311.288.465l1.428.923c-.142.001.002.156.285.153zM311.505 335.093l-.205-21.682-37.384 24.066.209 21.994 37.38-24.378zM311.293 312.788l-13.992-8.76-37.383 24.067 13.991 8.603 37.384-23.91z" fill="#98509B"/><path d="m273.769 336.855.161 2.026 37.384-23.91-.019-2.028-37.526 23.912z" fill="#98509B"/><path d="m310.025 313.735-12.706-7.835-37.383 24.066 12.704 7.68 37.385-23.911z" fill="#FEDDFF"/><path d="m259.633 327.94.219 23.086 14.421 9.067 37.659-24.849-.216-22.773-14.42-9.067-37.663 24.536zm51.585 6.843-2.68 1.742-.183-19.342 2.68-1.742.183 19.342zm-30.467 19.945-2.821 1.899-.188-19.81 2.821-1.899.188 19.81zm.377-20.127 2.82-1.899.187 19.654-2.821 1.899-.186-19.654zm3.244-2.059 2.963-1.9.186 19.654-2.82 1.898-.329-19.652zm3.528-2.218 2.82-1.898.185 19.498-2.82 1.898-.185-19.498zm3.385-2.216 2.821-1.898.184 19.498-2.82 1.898-.185-19.498zm3.385-2.216 2.822-1.743.185 19.499-2.82 1.898-.187-19.654zm3.387-2.06 2.821-1.899.184 19.498-2.82 1.899-.185-19.498zm3.385-2.216 2.821-1.899.183 19.342-2.82 1.899-.184-19.342zm3.527-2.217 2.821-1.899.183 19.342-2.82 1.899-.184-19.342zm-30.612 19.634 2.822-1.743.188 19.81-2.821 1.899-.189-19.966zm-.019-2.028 36.678-23.592.013 1.404-36.679 23.436-.009-.936-.002-.156-.001-.156zm-13.71-8.918 36.678-23.592 13.278 8.298-36.679 23.436-13.277-8.142z" fill="#16110D"/><path d="m259.651 329.812-.008-.779 14.707 9.22.006.624-7.425-4.61.202 21.214-.571-.306-.201-21.214-6.71-4.149z" fill="#98509B"/><path d="M269.915 349.526c.142-.001.284-.002.424-.16l.282-.158c.142-.002.141-.158.139-.314-.001-.156-.143-.154-.285-.153l-.282.159c-.141.157-.283.158-.426.004l-1.427-.767.283-.159c.142-.001.14-.157.139-.313-.002-.156-.144-.154-.286-.153l-.282.159c-.14.157-.281.314-.279.47.001.156.145.311.288.465l1.427.767s.143.155.285.153zM264.918 346.454c.142-.002.284-.003.424-.16l.283-.159c.142-.001.14-.157.139-.313-.002-.156-.144-.155-.286-.154l-.282.159c-.14.157-.282.159-.426.004l-1.426-.766.282-.159c.142-.001.141-.157.139-.313-.001-.156-.143-.155-.285-.154l-.283.159c-.14.157-.28.315-.279.471.001.156.145.31.288.465l1.428.922.284-.002zM269.545 325.507l7.335-4.75 7.424 4.61.021 2.183-7.335 4.75-.021-2.184-7.424-4.609z" fill="#98509B"/><path d="m269.26 325.353.003.312.022 2.34 7.709 4.762.283-.158 7.335-4.75-.022-2.339-.003-.312-7.71-4.763-7.335 4.749-.282.159zm7.623-4.284 6.854 4.303-6.771 4.432-6.853-4.303 6.77-4.432zm.386 10.76-.015-1.56 3.95-2.533 2.821-1.899.015 1.56-6.771 4.432z" fill="#16110D"/><path d="m273.097 325.941 3.854 2.304 3.952-2.378-3.997-2.458-3.809 2.532z" fill="#FEDDFF"/><path d="m271.816 325.484 5.078-3.324 5.14 3.227-5.078 3.324-5.14-3.227zm5.084-2.7-4.091 2.691 4.141 2.613 4.09-2.691-4.14-2.613z" fill="#16110D"/></g><defs><linearGradient id="a" x1="407.896" y1="336.234" x2="21.319" y2="248.453" gradientUnits="userSpaceOnUse"><stop stop-color="#620E66"/><stop offset="1" stop-color="#92108A"/></linearGradient><clipPath id="b"><path fill="#fff" transform="scale(-1 1) rotate(.543 -21053.828 -40164.307)" d="M0 0h211.957v237.701H0z"/></clipPath></defs></svg>