<svg width="50" height="95" viewBox="0 0 50 95" fill="none" xmlns="http://www.w3.org/2000/svg">
<path d="M27.0507 2.64672C37.9302 8.27706 47.5734 25.299 48.3152 41.0116C48.6861 47.1657 47.4497 52.4032 45.348 55.8076L29.8942 89.0659L22.4764 93.2559C21.8582 91.5537 10.9787 32.8934 10.3606 31.0603C9.2479 26.8703 1.33555 24.2515 1.21192 20.3234C1.08829 5.92017 16.5421 -2.85268 27.0507 2.64672ZM28.4107 40.095C32.6141 42.4519 35.8285 39.5713 35.7049 33.5481C35.334 27.6559 31.8723 21.109 27.6689 18.883C23.5891 16.6571 20.3746 19.4068 20.6219 25.299C20.7455 31.1912 24.2072 37.7382 28.4107 40.095Z" fill="#98509B"/>
<path d="M25.6905 5.6583C36.57 11.2886 46.2132 28.3106 46.955 44.0232C47.0786 46.9038 46.955 49.6535 46.4605 52.0104C34.221 60.3904 24.9487 59.8667 15.3056 67.3302C12.2148 51.6176 9.12403 35.1194 9.0004 34.2028C7.88773 30.0128 1.95349 27.1322 1.95349 23.0731C1.82986 8.53896 15.1819 0.158894 25.6905 5.6583ZM27.0505 43.2376C31.2539 45.5944 34.4683 42.7138 34.3447 36.6907C33.9738 30.7984 30.5121 24.2515 26.3087 22.0256C22.2289 19.7996 19.0145 22.5493 19.2618 28.4415C19.3854 34.0719 22.847 40.8807 27.0505 43.2376Z" fill="#FFE1FA"/>
<path d="M22.1054 94.5652L30.5122 89.8515L30.6359 89.7205L46.0897 56.4623C48.3151 52.796 49.4277 47.5585 49.1805 41.1425C48.1914 25.4299 38.5482 7.75328 27.4215 1.992C21.7344 -0.888637 14.4403 0.0279058 8.62962 4.21793C3.3135 8.27701 0.222716 14.3002 0.346347 20.8471C0.346347 23.4658 2.81895 25.4299 5.16794 27.263C7.14603 28.7034 9.00049 30.1437 9.49501 31.8459C9.61864 32.6315 11.7204 43.2375 13.8221 54.4982C18.0255 77.0195 21.1163 92.863 21.6108 93.9105L22.1054 94.5652ZM29.3996 88.5421L23.0944 92.0774C22.1053 87.4946 18.3964 68.3776 15.6765 53.8435C13.0803 40.095 11.4731 31.7149 11.3495 31.0602C10.7313 28.8343 8.38236 27.0012 6.28064 25.4299C4.17892 23.7277 2.07717 22.2874 2.07717 20.7161C1.95354 14.693 4.67341 9.19359 9.49501 5.7892C14.8111 1.99199 21.4872 1.07543 26.6797 3.82513C37.3119 9.32453 46.7079 26.3465 47.5733 41.5353C47.9442 47.4275 46.9551 52.2722 44.8534 55.8076L29.3996 88.5421ZM31.254 41.9281C32.2431 41.9281 33.2321 41.5353 33.8503 41.0115C35.5811 39.7022 36.5701 36.9525 36.4465 33.5481C36.0756 27.394 32.3667 20.4543 28.0396 17.9664C25.9379 16.9189 23.8362 16.9189 22.3526 17.9664C20.6218 19.2758 19.6327 21.7637 19.7564 25.0371C19.88 31.1912 23.5889 38.1309 28.1632 40.7497C29.1523 41.6663 30.265 41.9281 31.254 41.9281ZM24.9488 19.1449C25.567 19.1449 26.4324 19.2758 27.1742 19.9305C31.0068 22.1564 34.4684 28.3105 34.7157 33.8099C34.8393 36.5596 34.2211 38.7856 32.9848 39.7022C31.8722 40.4878 30.3886 40.4878 28.7814 39.5712C24.9489 37.3453 21.4872 30.9293 21.3636 25.5609C21.3636 22.9421 21.9817 20.978 23.3417 19.9305C23.7126 19.2758 24.2071 19.1449 24.9488 19.1449Z" fill="#16110D"/>
<path d="M1.08808 23.2039C0.964447 8.53883 9.00044 1.33726 19.509 6.70572C30.3885 12.3361 40.0318 29.358 40.7735 45.0706C41.1444 51.2247 39.9081 56.4622 37.8064 59.8666L22.3526 93.1249L4.67336 40.4877C4.05521 38.7855 3.43706 36.9524 2.94254 35.2502C1.82986 31.3221 1.08808 27.132 1.08808 23.2039Z" fill="#16110D"/>
<path d="M22.1048 94.5653L23.0939 94.0416L38.795 60.3905C41.0203 56.7242 42.133 51.4867 41.8857 45.0707C40.8967 29.3581 31.2535 11.6815 20.1267 5.92017C15.0579 3.30141 10.4836 3.30141 6.77465 6.05112C2.57121 9.19363 0.345856 15.2168 0.469487 23.204C0.469487 27.2631 1.08765 31.4531 2.44758 35.7741C2.94211 37.6072 3.56025 39.4403 4.1784 41.0116L22.1048 94.5653ZM12.8325 5.78922C14.8106 5.78922 17.036 6.31297 19.2613 7.62235C29.8936 13.1218 39.2895 30.1437 40.1549 45.3326C40.5258 51.2248 39.5367 56.0695 37.435 59.6048L22.723 91.1609L5.53835 40.3569C4.92019 38.6547 4.30205 36.8216 3.80753 35.2503C2.69485 31.0603 2.07669 27.0012 1.82943 23.204C1.7058 16.1333 3.80751 10.3721 7.26917 7.62235C9 6.57484 10.8545 5.78922 12.8325 5.78922Z" fill="#16110D"/>
<path d="M21.858 55.8075L29.7704 49.7843C30.8831 48.8678 30.7595 46.5108 29.6468 44.154C28.5341 41.928 26.556 40.8805 25.4434 41.5352L21.3635 44.6777L13.9457 27.6557C12.9566 25.2988 10.9786 23.8585 9.74225 24.3823C8.50595 24.906 8.25869 27.2629 9.24774 29.4889L20.2509 54.76C20.869 55.6765 21.4871 56.0694 21.858 55.8075Z" fill="#98509B"/>
</svg>
