<svg width="51" height="96" viewBox="0 0 51 96" fill="none" xmlns="http://www.w3.org/2000/svg">
<path d="M23.0706 3.12816C11.9438 8.7585 2.05335 25.7804 1.18794 41.493C0.817046 47.6471 2.05338 52.8846 4.15511 56.289L19.9798 89.5473L27.645 93.7373C28.2631 92.0351 39.3899 33.3748 40.008 31.5417C41.1207 27.3517 49.2803 24.7329 49.4039 20.8048C49.5276 6.40161 33.8265 -2.37124 23.0706 3.12816ZM21.587 40.5764C17.2599 42.9333 13.9219 40.0527 14.1692 34.0295C14.5401 28.1373 18.1254 21.5904 22.4524 19.3645C26.5323 17.1385 29.8703 19.8882 29.7467 25.7804C29.4994 31.6727 25.7905 38.2195 21.587 40.5764Z" fill="#98509B"/>
<path d="M24.3072 6.13962C13.1804 11.77 3.28989 28.7919 2.42447 44.5045C2.30084 47.3851 2.4245 50.1348 2.91902 52.4917C15.5294 60.8717 24.9253 60.348 34.8158 67.8115C37.9066 52.0989 41.121 35.6007 41.2446 34.6841C42.3573 30.4941 48.5388 27.6135 48.5388 23.5544C48.7861 9.02024 35.0631 0.640223 24.3072 6.13962ZM23.0709 43.7188C18.7438 46.0757 15.4057 43.1951 15.653 37.172C16.0239 31.2797 19.6092 24.7328 23.9363 22.5069C28.0161 20.2809 31.3541 23.0306 31.2305 28.9228C30.8596 34.5532 27.3979 41.3619 23.0709 43.7188Z" fill="#FFE1FA"/>
<path d="M28.0158 95.0467L19.3617 90.3329L19.2381 90.202L3.28971 56.9437C0.940723 53.2774 -0.171953 48.0399 0.198939 41.6239C1.18798 25.9114 11.0784 8.23472 22.5761 2.47344C28.3867 -0.407198 35.8045 0.509365 41.7388 4.69938C47.1786 8.75846 50.393 14.7816 50.1458 21.3285C50.1458 23.9473 47.6731 25.9114 45.2005 27.7445C43.2224 29.1848 41.2443 30.6251 40.7498 32.3273C40.6262 33.113 38.4008 43.7189 36.2991 54.9796C31.972 77.501 28.8812 93.3445 28.3867 94.392L28.0158 95.0467ZM20.598 89.0235L27.0268 92.5589C28.0159 87.976 31.8484 68.859 34.6919 54.3249C37.2882 40.5764 39.019 32.1964 39.1426 31.5417C39.7608 29.3157 42.1097 27.4826 44.2114 25.9114C46.3131 24.2092 48.5385 22.7689 48.5385 21.1976C48.6621 15.1744 45.9423 9.67503 40.8735 6.27064C35.4337 2.47343 28.634 1.55687 23.3179 4.30657C12.4384 9.80597 2.79521 26.8279 1.9298 42.0167C1.55891 47.909 2.54794 52.7537 4.77329 56.289L20.598 89.0235ZM18.7435 42.4095C17.7545 42.4095 16.7655 42.0168 16.1473 41.493C14.2929 40.1836 13.3038 37.4339 13.551 34.0295C13.9219 27.8754 17.6308 20.9357 22.2052 18.4479C24.3069 17.4004 26.5323 17.4004 28.0158 18.4479C29.8703 19.7573 30.8593 22.2451 30.6121 25.5185C30.4884 31.6726 26.6559 38.6123 21.9579 41.2311C20.8452 42.0167 19.7326 42.4095 18.7435 42.4095ZM25.1723 19.6263C24.5542 19.6263 23.6887 19.7573 22.8233 20.412C18.8672 22.6379 15.4055 28.792 15.0346 34.2914C14.911 37.0411 15.5291 39.2671 16.8891 40.1836C18.0018 40.9692 19.4853 40.9692 21.2162 40.0527C25.1723 37.8267 28.634 31.4108 28.8813 26.0423C28.8813 23.4235 28.2631 21.4595 26.9031 20.412C26.285 19.7573 25.7905 19.6263 25.1723 19.6263Z" fill="#16110D"/>
<path d="M49.5276 23.5545C49.6513 8.88943 41.3679 1.68784 30.612 7.05631C19.4853 12.6866 9.59486 29.7086 8.72944 45.4212C8.35855 51.5753 9.59482 56.8128 11.6965 60.2172L27.5213 93.4755L45.695 40.8384C46.3132 39.1362 47.055 37.303 47.5495 35.6008C48.7858 31.8036 49.5276 27.6136 49.5276 23.5545Z" fill="#16110D"/>
<path d="M28.0158 95.0467L27.0267 94.523L10.9547 60.8719C8.60576 57.2056 7.49309 51.9681 7.86398 45.5521C8.85302 29.8396 18.7435 12.1629 30.2411 6.40162C35.31 3.78286 40.1316 3.78285 43.9642 6.53255C48.2913 9.67506 50.6402 15.6982 50.3929 23.6854C50.3929 27.7445 49.7748 31.9346 48.4149 36.2555C47.9203 38.0886 47.3022 39.9218 46.5604 41.493L28.0158 95.0467ZM37.5354 6.27068C35.5573 6.27068 33.2083 6.79444 30.8593 8.10382C19.9798 13.6032 10.3366 30.6252 9.47116 45.814C9.10027 51.7062 10.0893 56.5509 12.3147 60.0862L27.3976 91.6423L44.9532 40.8384C45.5714 39.1362 46.3131 37.303 46.8077 35.7318C47.9203 31.5417 48.6621 27.4827 48.7857 23.6854C48.9094 16.6148 46.8076 10.8535 43.2223 8.10382C41.3679 6.92538 39.6371 6.27068 37.5354 6.27068Z" fill="#16110D"/>
<path d="M28.387 56.2891L20.2274 50.2659C19.1147 49.3494 19.2383 46.9925 20.351 44.6356C21.4637 42.4097 23.4418 41.3622 24.6781 42.0169L28.7579 45.1594L36.423 28.1374C37.412 25.7805 39.3901 24.3402 40.7501 24.864C42.11 25.3877 42.2337 27.7446 41.2446 29.9706L29.9942 55.2416C29.376 56.1582 28.6343 56.551 28.387 56.2891Z" fill="#98509B"/>
</svg>
