<?xml version="1.0" encoding="utf-8"?>
<svg version="1.1" id="Слой_1" xmlns="http://www.w3.org/2000/svg" xmlns:xlink="http://www.w3.org/1999/xlink" x="0px" y="0px"
	 width="12" height="20" viewBox="0 0 12 20" style="enable-background:new 0 0 12 19.9;" xml:space="preserve">
<path d="M2.2,19.9c-0.8,0-1.1,0.1-1.7-0.5C0,18.8,0,18.2,0,17.4L0,3.3c0-0.8,0-1.8,0.5-2.4C1.1,0.3,1.8,0,2.5,0l6.2,0
	c0.8,0,1.9-0.1,2.5,0.5s0.8,1.2,0.8,2l0,14.8c0,0.8-0.1,1.5-0.6,2c-0.5,0.6-1.6,0.5-2.3,0.5L2.2,19.9L2.2,19.9z M1.3,17.4
	c0,0.3,0.1,0.5,0.3,0.7c0.2,0.2,0.4,0.3,0.7,0.3l7.6,0c0.3,0,0.5-0.1,0.7-0.3s0.3-0.5,0.3-0.7l0-15.1c0-0.3-0.1-0.5-0.3-0.7
	c-0.2-0.2-0.4-0.3-0.7-0.3l-7.7,0C2,1.2,1.7,1.3,1.5,1.6C1.4,1.8,1.3,2,1.3,2.3L1.3,17.4z M4.1,16.4c0-0.3,0.1-0.5,0.3-0.7
	c0.2-0.3,0.4-0.4,0.7-0.4l1.9,0c0.3,0,0.5,0.1,0.7,0.3c0.2,0.2,0.3,0.5,0.3,0.7S7.9,16.8,7.7,17S7.2,17.3,7,17.3H5.1
	c-0.3,0-0.5-0.1-0.7-0.3C4.2,16.9,4.1,16.7,4.1,16.4z"/>
</svg>
