<svg width="13" height="19" viewBox="0 0 13 19" fill="none" xmlns="http://www.w3.org/2000/svg">
<path d="M2.86819 18.6471C2.10569 18.6471 1.72468 18.6807 1.18551 18.1415C0.646344 17.6023 0.621346 17.096 0.621346 16.3335L0.621338 3.87598C0.621338 3.11348 0.646344 2.27935 1.18551 1.74018C1.72468 1.20102 2.43792 0.934237 3.20041 0.934237L9.48691 0.934412C10.2494 0.934412 11.3861 0.85984 11.9253 1.39901C12.4644 1.93817 12.7533 2.43503 12.7533 3.19753V16.3335C12.7533 17.096 12.6732 17.6023 12.1341 18.1415C11.5949 18.6807 10.5718 18.6471 9.8093 18.6471H2.86819ZM1.90985 16.6142C1.90985 16.8684 2.01082 17.1121 2.19054 17.2918C2.37027 17.4716 2.61402 17.5725 2.86819 17.5725H10.5349C10.789 17.5725 11.0328 17.4716 11.2125 17.2918C11.3922 17.1121 11.4932 16.8684 11.4932 16.6142V3.19753C11.4932 2.94336 11.3922 2.6996 11.2125 2.51988C11.0328 2.34016 10.789 2.23919 10.5349 2.23919H2.86819C2.61402 2.23919 2.37027 2.34016 2.19054 2.51988C2.01082 2.6996 1.90985 2.94336 1.90985 3.19753V16.6142ZM4.78485 15.6559C4.78485 15.4017 4.88582 15.1579 5.06554 14.9782C5.24527 14.7985 5.48902 14.6975 5.74319 14.6975H7.65985C7.91402 14.6975 8.15778 14.7985 8.3375 14.9782C8.51722 15.1579 8.61819 15.4017 8.61819 15.6559C8.61819 15.91 8.51722 16.1538 8.3375 16.3335C8.15778 16.5132 7.91402 16.6142 7.65985 16.6142H5.74319C5.48902 16.6142 5.24527 16.5132 5.06554 16.3335C4.88582 16.1538 4.78485 15.91 4.78485 15.6559Z" fill="white"/>
</svg>
