<svg width="15" height="24" viewBox="0 0 15 24" fill="none" xmlns="http://www.w3.org/2000/svg">
<path d="M3.00355 23.991C2.10583 23.991 1.65725 24.0346 1.02247 23.3346C0.387686 22.6347 0.358256 21.9773 0.358256 20.9875L0.358246 4.81492C0.358246 3.82503 0.387686 2.74215 1.02247 2.04219C1.65725 1.34224 2.49697 0.995898 3.39469 0.995898L10.796 0.996126C11.6937 0.996126 13.032 0.899315 13.6668 1.59927C14.3016 2.29922 14.6417 2.94425 14.6417 3.93413V20.9875C14.6417 21.9773 14.5474 22.6347 13.9126 23.3346C13.2779 24.0346 12.0733 23.991 11.1756 23.991H3.00355ZM1.87526 21.3519C1.87526 21.6818 1.99414 21.9983 2.20573 22.2316C2.41733 22.4649 2.70431 22.596 3.00355 22.596H12.0298C12.3291 22.596 12.616 22.4649 12.8276 22.2316C13.0392 21.9983 13.1581 21.6818 13.1581 21.3519V3.93413C13.1581 3.60417 13.0392 3.28772 12.8276 3.05441C12.616 2.82109 12.3291 2.69001 12.0298 2.69001H3.00355C2.70431 2.69001 2.41733 2.82109 2.20573 3.05441C1.99414 3.28772 1.87526 3.60417 1.87526 3.93413V21.3519ZM5.26011 20.1077C5.26011 19.7778 5.37899 19.4613 5.59058 19.228C5.80218 18.9947 6.08916 18.8636 6.3884 18.8636H8.64496C8.9442 18.8636 9.23119 18.9947 9.44278 19.228C9.65438 19.4613 9.77325 19.7778 9.77325 20.1077C9.77325 20.4377 9.65438 20.7541 9.44278 20.9875C9.23119 21.2208 8.9442 21.3519 8.64496 21.3519H6.3884C6.08916 21.3519 5.80218 21.2208 5.59058 20.9875C5.37899 20.7541 5.26011 20.4377 5.26011 20.1077Z" fill="black"/>
</svg>
