<svg width="20" height="20" viewBox="0 0 30 31" fill="none" xmlns="http://www.w3.org/2000/svg">
<path fill-rule="evenodd" clip-rule="evenodd" d="M15.1279 0.5C11.2021 0.500249 7.43711 2.08281 4.66129 4.89953C1.88547 7.71626 0.326171 11.5364 0.326416 15.5196C0.326661 19.5028 1.88643 23.3228 4.6626 26.1391C7.43877 28.9555 11.2039 30.5376 15.1298 30.5374C19.0556 30.5371 22.8206 28.9545 25.5964 26.1378C28.3722 23.3211 29.9315 19.5009 29.9313 15.5177C29.931 11.5345 28.3712 7.71458 25.5951 4.8982C22.8189 2.08183 19.0538 0.499751 15.1279 0.5V0.5ZM15.0391 28.6583C11.6042 28.6583 8.30999 27.2738 5.88115 24.8095C3.4523 22.3452 2.08779 19.0028 2.08779 15.5177C2.08779 12.0327 3.4523 8.69031 5.88115 6.22599C8.30999 3.76166 11.6042 2.37722 15.0391 2.37722C18.474 2.37722 21.7682 3.76166 24.1971 6.22599C26.6259 8.69031 27.9904 12.0327 27.9904 15.5177C27.9904 19.0028 26.6259 22.3452 24.1971 24.8095C21.7682 27.2738 18.474 28.6583 15.0391 28.6583Z" fill="white"/>
<path fill-rule="evenodd" clip-rule="evenodd" d="M5.71223 5.53858C5.21268 8.06156 7.07211 11.9192 11.026 12.8578C14.978 13.7965 13.2795 13.0155 12.6652 11.7634C12.0473 10.5113 12.6005 9.57272 13.557 9.2611C14.5154 8.9476 14.273 9.81112 15.694 8.009C16.0529 4.25456 12.9705 7.95831 12.6634 6.39459C15.7162 2.79597 11.2461 1.43874 9.94915 1.90804C8.65217 2.37735 6.21178 3.01372 5.71223 5.53858Z" fill="white"/>
<path fill-rule="evenodd" clip-rule="evenodd" d="M12.9539 14.9432C12.7245 15.0465 11.6551 15.7241 11.2869 16.1935C10.9187 16.6628 10.7578 17.6539 11.2869 18.0707C11.8161 18.4893 11.2573 20.4716 12.6838 20.8358C14.1103 21.2 15.5387 21.4121 15.5923 22.5572C15.6423 23.7023 15.4591 26.3623 14.7727 26.6251C15.6978 27.1451 17.9494 24.3819 18.7413 22.9214C19.5351 21.4628 19.7996 19.3753 19.746 18.8535C19.6923 18.3335 20.0624 17.2391 20.2215 15.8311C20.3787 14.4232 19.1669 14.3294 19.0096 13.7043C18.8486 13.0773 18.634 12.3883 12.9539 14.9432Z" fill="white"/>
<path fill-rule="evenodd" clip-rule="evenodd" d="M24.5215 8.00891C24.5215 8.00891 20.799 9.62519 23.33 12.0262C25.8574 14.4234 27.1451 16.7004 27.0211 17.2223C26.9064 17.7404 24.4679 20.4248 25.8685 20.2146C27.2765 20.0062 28.3144 17.1904 28.5383 15.5197C28.7585 13.8489 26.8287 10.5657 26.7492 10.3066C26.6826 10.0419 25.4133 8.03707 24.5215 8.00891Z" fill="white"/>
</svg>
