<?xml version="1.0" encoding="utf-8"?>
<!-- Generator: Adobe Illustrator 18.0.0, SVG Export Plug-In . SVG Version: 6.00 Build 0)  -->
<!DOCTYPE svg PUBLIC "-//W3C//DTD SVG 1.1//EN" "http://www.w3.org/Graphics/SVG/1.1/DTD/svg11.dtd">
<svg version="1.1" id="Слой_1" xmlns="http://www.w3.org/2000/svg" xmlns:xlink="http://www.w3.org/1999/xlink" x="0px" y="0px"
	 viewBox="0 6.5 30 7.1" enable-background="new 0 6.5 30 7.1" xml:space="preserve">
<g>
	<path fill="#FFFFFF" d="M6.1,8.5v-2h1.2c0.8,0,1.1,0.2,1.1,0.6c0,0.5-0.3,0.7-1.1,0.7H6.6v0.7L6.1,8.5L6.1,8.5z M6.6,6.9v0.6h0.8
		C7.8,7.5,8,7.4,8,7.2C8,7,7.8,6.9,7.4,6.9H6.6L6.6,6.9z"/>
	<path fill="#FFFFFF" d="M11.1,8.5L11.1,8.5l-0.5,0L10,7.8h0H9.2v0.7H8.7v-2H10c0.8,0,1.1,0.2,1.1,0.6c0,0.3-0.2,0.5-0.6,0.6L11,8.3
		L11.1,8.5z M9.2,7.5h0.8c0.4,0,0.5-0.1,0.5-0.3c0-0.2-0.2-0.3-0.5-0.3H9.2V7.5z"/>
	<path fill="#FFFFFF" d="M11.9,6.5v2h-0.5v-2H11.9z"/>
	<path fill="#FFFFFF" d="M12.4,6.5h0.5l1,1.2l1-1.2h0.5v2h-0.4V7.1l-0.9,1l0,0h-0.3l-0.9-1.1v1.4h-0.4C12.4,8.5,12.4,6.5,12.4,6.5z"
		/>
	<path fill="#FFFFFF" d="M18.2,6.5v0.4h-1.9v0.4h1.5v0.4h-1.5v0.5h2v0.4h-2.4v-2L18.2,6.5L18.2,6.5z"/>
	<path fill="#FFFFFF" d="M8.5,9.8v0.4H6.6v0.4h1.5V11H6.6v0.5h2v0.4H6.1v-2H8.5L8.5,9.8z"/>
	<path fill="#FFFFFF" d="M9.4,11.8H8.8l0,0l1-1l-1-1l0,0h0.6l0.7,0.7l0.7-0.7h0.6l0,0l-1,1l1.1,1h0h-0.6l-0.7-0.7L9.4,11.8z"/>
	<path fill="#FFFFFF" d="M11.8,11.8v-2H13c0.8,0,1.1,0.2,1.1,0.6s-0.3,0.7-1.1,0.7h-0.8v0.7L11.8,11.8L11.8,11.8z M12.2,10.2v0.6
		h0.8c0.4,0,0.5-0.1,0.5-0.3c0-0.2-0.2-0.3-0.5-0.3H12.2L12.2,10.2z"/>
	<path fill="#FFFFFF" d="M16.8,9.8v0.4h-1.9v0.4h1.5V11h-1.5v0.5h2v0.4h-2.4v-2H16.8L16.8,9.8z"/>
	<path fill="#FFFFFF" d="M17.2,11.8v-2h1.3c0.9,0,1.4,0.3,1.4,1c0,0.7-0.5,1-1.4,1C18.5,11.8,17.2,11.8,17.2,11.8z M17.7,10.2v1.3
		h0.8c0.6,0,0.9-0.2,0.9-0.7c0-0.4-0.3-0.6-0.9-0.6C18.5,10.2,17.7,10.2,17.7,10.2z"/>
	<path fill="#FFFFFF" d="M20.6,9.8v2h-0.5v-2H20.6z"/>
	<path fill="#FFFFFF" d="M20.9,9.8h2.4v0.4h-1v1.6h-0.5v-1.6h-1L20.9,9.8L20.9,9.8z"/>
	<path fill="#FFFFFF" d="M24.1,9.8v2h-0.5v-2H24.1z"/>
	<path fill="#FFFFFF" d="M24.4,10.9c0-0.7,0.5-1.1,1.4-1.1s1.4,0.4,1.4,1.1c0,0.7-0.5,1.1-1.4,1.1S24.4,11.5,24.4,10.9z M26.7,10.9
		c0-0.5-0.3-0.8-0.9-0.8c-0.5,0-0.9,0.3-0.9,0.8c0,0.4,0.3,0.7,0.9,0.7C26.3,11.6,26.7,11.3,26.7,10.9z"/>
	<path fill="#FFFFFF" d="M28,9.8l1.5,1.5V9.8H30v2h-0.6l-1.5-1.5v1.5h-0.5v-2H28z"/>
</g>
<g>
	<path fill="#FFFFFF" stroke="#FFFFFF" stroke-miterlimit="10" d="M1,8.8l0,3c-0.5,0-1-0.5-1-1l0-2.4L1,8.8z"/>
	<path fill="#FFFFFF" stroke="#FFFFFF" stroke-miterlimit="10" d="M4.2,8.8v3c0.5,0,1-0.5,1-1V8.4L4.2,8.8z"/>
	<path fill="#FFFFFF" stroke="#FFFFFF" stroke-miterlimit="10" d="M2.3,11.8H3c0.1,0,0.2-0.1,0.2-0.2V8.3c0-0.1,0.1-0.2,0.1-0.2
		l1.7-0.5c0.1,0,0.2-0.2,0.1-0.3L5,6.7c0-0.1-0.1-0.2-0.2-0.1L2.7,7.2c0,0-0.1,0-0.1,0L0.5,6.6c-0.1,0-0.2,0-0.2,0.1L0.1,7.3
		c0,0.1,0,0.2,0.1,0.3l1.7,0.5C2,8.2,2,8.2,2,8.3v3.3C2,11.7,2.1,11.8,2.3,11.8z"/>
</g>
<g>
	<path fill="#FFFFFF" d="M6,12.8h1V13H6.5v0.6H6.3V13H6C6,13,6,12.8,6,12.8z"/>
	<path fill="#FFFFFF" d="M7,13.2c0-0.2,0.2-0.4,0.6-0.4c0.3,0,0.5,0.2,0.5,0.4s-0.2,0.4-0.5,0.4C7.2,13.6,7,13.4,7,13.2z M7.9,13.2
		c0-0.2-0.1-0.3-0.4-0.3c-0.2,0-0.4,0.1-0.4,0.3c0,0.2,0.1,0.2,0.4,0.2C7.8,13.4,7.9,13.4,7.9,13.2z"/>
	<path fill="#FFFFFF" d="M8.8,12.8v0.7H8.6v-0.7H8.8z"/>
	<path fill="#FFFFFF" d="M9.2,12.8l0.6,0.5v-0.5H10v0.7H9.8L9.2,13v0.5H9v-0.7H9.2z"/>
	<path fill="#FFFFFF" d="M11.1,12.8V13h-0.7v0.2h0.5v0.1h-0.5v0.3h-0.2v-0.7L11.1,12.8L11.1,12.8z"/>
	<path fill="#FFFFFF" d="M11.4,12.8v0.7h-0.2v-0.7H11.4z"/>
	<path fill="#FFFFFF" d="M11.8,12.8l0.6,0.5v-0.5h0.2v0.7h-0.2L11.7,13v0.5h-0.2v-0.7H11.8z"/>
	<path fill="#FFFFFF" d="M12.9,12.8v0.7h-0.2v-0.7H12.9z"/>
	<path fill="#FFFFFF" d="M13,12.8h1V13h-0.4v0.6h-0.2V13H13V12.8z"/>
	<path fill="#FFFFFF" d="M15.2,12.8l-0.5,0.5v0.2h-0.2v-0.2l-0.5-0.5h0.2l0.3,0.4l0.3-0.4H15.2z"/>
	<path fill="#FFFFFF" d="M15.6,13.5L15.6,13.5l0.4-0.7l0,0h0.2l0.4,0.7l0,0l0,0h-0.2l0,0l0,0l-0.1-0.1h-0.5l-0.1,0.1l0,0l0,0
		L15.6,13.5L15.6,13.5z M16.3,13.3L16.2,13L16,13.3H16.3z"/>
	<path fill="#FFFFFF" d="M17,12.8l0.6,0.5v-0.5h0.2v0.7h-0.2L17,13v0.5h-0.2v-0.7H17z"/>
	<path fill="#FFFFFF" d="M18,13.6v-0.7h0.5c0.4,0,0.5,0.1,0.5,0.3c0,0.2-0.2,0.4-0.5,0.4C18.5,13.6,18,13.6,18,13.6z M18.2,13v0.5
		h0.3c0.2,0,0.3-0.1,0.3-0.2c0-0.1-0.1-0.2-0.3-0.2H18.2z"/>
	<path fill="#FFFFFF" d="M19.6,13.6v-0.7h0.5c0.3,0,0.4,0.1,0.4,0.2c0,0.1,0,0.1-0.1,0.2c0.1,0,0.1,0.1,0.1,0.2
		c0,0.1-0.1,0.2-0.4,0.2L19.6,13.6L19.6,13.6z M19.8,13.1h0.4c0.1,0,0.2,0,0.2-0.1c0-0.1-0.1-0.1-0.2-0.1h-0.4V13.1z M19.8,13.4h0.4
		c0.1,0,0.2,0,0.2-0.1s-0.1-0.1-0.2-0.1h-0.4V13.4z"/>
	<path fill="#FFFFFF" d="M21.6,12.8V13h-0.8v0.1h0.6v0.1h-0.6v0.2h0.8v0.1h-1v-0.7L21.6,12.8L21.6,12.8z"/>
	<path fill="#FFFFFF" d="M22.9,12.8l-0.5,0.5v0.2h-0.2v-0.2l-0.5-0.5H22l0.3,0.4l0.3-0.4H22.9z"/>
	<path fill="#FFFFFF" d="M22.8,13.2c0-0.2,0.2-0.4,0.6-0.4c0.3,0,0.5,0.2,0.5,0.4s-0.2,0.4-0.5,0.4C23.1,13.6,22.8,13.4,22.8,13.2z
		 M23.8,13.2c0-0.2-0.1-0.3-0.4-0.3S23,13,23,13.2c0,0.2,0.1,0.2,0.4,0.2C23.6,13.4,23.8,13.4,23.8,13.2z"/>
	<path fill="#FFFFFF" d="M24.3,12.8l0.6,0.5v-0.5h0.2v0.7h-0.2L24.3,13v0.5h-0.2v-0.7H24.3z"/>
	<path fill="#FFFFFF" d="M25.3,13.6v-0.7h0.5c0.4,0,0.5,0.1,0.5,0.3c0,0.2-0.2,0.4-0.5,0.4C25.8,13.6,25.3,13.6,25.3,13.6z M25.5,13
		v0.5h0.3c0.2,0,0.3-0.1,0.3-0.2c0-0.1-0.1-0.2-0.3-0.2H25.5z"/>
</g>
</svg>
