<svg version="1.1" id="Слой_1" xmlns="http://www.w3.org/2000/svg" xmlns:xlink="http://www.w3.org/1999/xlink" x="0px" y="0px"
	 viewBox="0 0 230 47" enable-background="new 0 0 230 47" xml:space="preserve">
<g>
	<path fill="#620E66" d="M46.8,18.3V2.9h9.4c6.3,0,8.8,1.4,8.8,4.9c0,3.5-2.5,5-8.8,5h-5.8v5.6H46.8z M50.5,5.5v4.6h6.4
		c3,0,4.2-0.6,4.2-2.3c0-1.7-1.2-2.3-4.2-2.3L50.5,5.5L50.5,5.5z"/>
	<path fill="#620E66" d="M85.1,18.2l0.1,0.2H81l-4.4-5.6h-0.2h-5.8v5.6H67V2.9h9.4c6.3,0,8.8,1.4,8.8,4.9c0,2.6-1.4,4.1-4.6,4.7
		l3.4,4.3L85.1,18.2z M70.7,10.1h6.4c3,0,4.2-0.6,4.2-2.3c0-1.7-1.2-2.3-4.2-2.3h-6.4V10.1z"/>
	<path fill="#620E66" d="M91.3,2.9v15.4h-3.5V2.9H91.3z"/>
	<path fill="#620E66" d="M94.7,2.9h3.8l7.6,9.5l7.6-9.5h3.6v15.4H114V7.6l-6.6,8l-0.2,0.2h-2.4L98,7.6v10.7h-3.4
		C94.7,18.3,94.7,2.9,94.7,2.9z"/>
	<path fill="#620E66" d="M139.2,2.9v2.9h-14.9v3.1h11.4v2.9h-11.4v3.5h15.1v2.9h-18.7V2.8L139.2,2.9L139.2,2.9z"/>
	<path fill="#620E66" d="M65.4,28.1V31H50.5v3.1h11.4v2.9H50.5v3.5h15.1v2.9H46.8V28.1L65.4,28.1L65.4,28.1z"/>
	<path fill="#620E66" d="M72.1,43.5h-4.7l-0.1-0.1l8-7.7l-7.9-7.5l0.1-0.1h4.7l5.5,5.3l5.5-5.3H88l0.1,0.1l-7.8,7.5l8.1,7.8l-0.1,0
		h-4.7l-5.7-5.5L72.1,43.5z"/>
	<path fill="#620E66" d="M90.2,43.5V28.1h9.4c6.3,0,8.8,1.4,8.8,4.9c0,3.5-2.5,5-8.8,5h-5.8v5.6H90.2z M93.8,30.7v4.6h6.4
		c3,0,4.2-0.6,4.2-2.3c0-1.7-1.2-2.3-4.2-2.3L93.8,30.7L93.8,30.7z"/>
	<path fill="#620E66" d="M128.9,28.1V31H114v3.1h11.4v2.9H114v3.5h15.1v2.9h-18.7V28.1L128.9,28.1L128.9,28.1z"/>
	<path fill="#620E66" d="M131.9,43.5V28.2h9.8c6.9,0,10.4,2.6,10.4,7.4c0,5.2-3.6,7.9-10.4,7.9H131.9z M135.5,30.9v9.8h6.2
		c4.3,0,6.6-1.7,6.6-5c0-3.1-2.2-4.8-6.6-4.8C141.7,30.9,135.5,30.9,135.5,30.9z"/>
	<path fill="#620E66" d="M158.3,28.1v15.4h-3.5V28.1H158.3z"/>
	<path fill="#620E66" d="M160.3,28.1h18.5V31h-7.4v12.5h-3.6V31h-7.4L160.3,28.1L160.3,28.1z"/>
	<path fill="#620E66" d="M184.4,28.1v15.4h-3.5V28.1H184.4z"/>
	<path fill="#620E66" d="M187,36c0-5,4.1-8.4,10.6-8.4c6.5,0,10.5,3.4,10.5,8.4c0,5-4,8.2-10.5,8.2C191.1,44.2,187,41,187,36z
		 M204.4,36c0-3.5-2.6-5.8-6.8-5.8c-4.2,0-6.9,2.4-6.9,5.8c0,3.3,2.6,5.4,6.9,5.4C201.8,41.4,204.4,39.3,204.4,36z"/>
	<path fill="#620E66" d="M214.9,28.1l11.4,11.7V28.1h3.6v15.4h-4.3l-11.4-11.2v11.2h-3.6V28.1H214.9z"/>
</g>
<g>
	<path fill="#620E66" stroke="#620E66" stroke-miterlimit="10" d="M8,19.9L7.8,43.1c-4.1-0.1-7.4-3.5-7.4-7.7l0.1-18.1L8,19.9z"/>
	<path fill="#620E66" stroke="#620E66" stroke-miterlimit="10" d="M31.9,20l0,23.2c4.1,0,7.4-3.5,7.4-7.6V17.4L31.9,20z"/>
	<path fill="#620E66" stroke="#620E66" stroke-miterlimit="10" d="M17.3,43.3H23c0.9,0,1.6-0.7,1.6-1.6V16.6c0-0.7,0.5-1.3,1.1-1.5
		l13.1-4c0.9-0.3,1.3-1.2,1-2l-1.6-4.6c-0.3-0.8-1.1-1.2-1.9-1L20.5,7.7c-0.3,0-0.5,0-0.8,0L3.9,3.5C3.1,3.2,2.3,3.7,2,4.5L0.4,9.1
		c-0.3,0.9,0.2,1.8,1,2l13.1,4c0.6,0.2,1.1,0.8,1.1,1.5v25.2C15.7,42.6,16.4,43.3,17.3,43.3z"/>
</g>
</svg>
