<svg width="332" height="276" viewBox="0 0 332 276" fill="none" xmlns="http://www.w3.org/2000/svg">
<path d="M295.333 115.74L288.867 118.082L267.671 105.831L97.0265 204.023L30.565 227.985C30.565 227.985 3.80081 250.867 7.9322 254.29C12.0636 257.713 48.5276 271.046 48.5276 271.046C60.7421 275.73 83.7342 275.73 102.954 270.505C116.606 266.902 129.898 261.317 142.292 254.29L319.223 152.495C321.02 151.414 322.277 149.612 322.636 147.63L330.719 111.416L295.333 115.74Z" fill="#98509B"/>
<path d="M289.046 117.722L275.934 110.155L271.802 111.596L264.438 107.272L97.2061 203.482L30.7446 227.445C30.7446 227.445 3.4415 250.507 7.75251 253.93C10.2673 255.912 24.0984 261.677 35.0556 265.821C47.809 268.523 68.6456 264.92 85.8896 260.416C99.5412 256.812 112.833 251.227 125.228 244.201L327.306 127.631L330.899 111.236L295.692 115.2L289.046 117.722Z" fill="#98509B"/>
<path d="M77.9862 273.568C77.9862 273.568 56.7904 272.307 46.0129 263.839C44.2166 262.398 42.7796 261.137 41.7019 259.875C40.9834 260.056 40.0852 260.056 39.1871 260.236C32.7206 261.137 23.5597 260.416 18.1709 259.875C30.0262 264.74 46.7314 270.505 46.7314 270.505C54.2757 273.388 66.4902 274.649 78.8844 273.929L77.9862 273.568Z" fill="#FFE1FA"/>
<path d="M331.258 111.236L327.486 128.172L322.996 147.81C322.636 149.972 321.379 151.954 319.403 153.035L142.472 254.831C130.078 262.037 116.785 267.442 103.134 271.046C93.434 273.568 82.4769 275.009 72.4178 275.009C63.0773 275.009 54.6349 273.928 48.7073 271.586H48.5276C47.0906 271.046 15.6561 259.515 8.83037 255.371C8.2915 255.011 7.75262 254.65 7.39337 254.47C7.03412 254.11 6.85449 253.75 6.85449 253.029C6.85449 247.263 29.4873 227.985 30.5651 227.265H30.7447L97.2062 203.302L264.438 106.912L264.797 107.092L267.85 105.29L275.574 109.795L275.934 109.615L289.046 117.182L295.333 115.02L331.258 111.236ZM265.695 107.633L271.802 111.236L274.497 110.335L267.85 106.552L265.695 107.633ZM35.0557 265.461C47.2702 267.983 66.1309 264.56 78.3455 261.857C74.753 259.875 71.1605 257.173 67.7476 253.93C48.7073 234.832 48.7073 234.832 48.7073 234.832L314.553 113.758L295.513 116.101L288.867 118.443L275.395 110.696L271.623 112.137L264.617 108.173L97.3858 204.383L30.9243 228.346C24.4578 233.931 8.11187 248.885 8.11187 253.209C8.11187 253.569 8.2915 253.75 8.47112 253.93C8.65075 254.11 8.83037 254.29 9.18963 254.47C12.6025 256.452 21.7634 260.236 30.7447 263.839C32.0021 264.38 33.6187 264.92 35.0557 265.461ZM109.6 268.163C103.493 268.704 91.4581 268.523 79.6029 262.578C70.442 264.74 56.7904 267.442 45.2944 267.442C43.1389 267.442 41.163 267.262 39.1871 267.082C44.037 268.884 47.8091 270.325 48.7073 270.685H48.8869C61.281 275.37 84.4528 275.19 102.954 270.145C105.11 269.604 107.445 268.884 109.6 268.163Z" fill="#16110D"/>
<path d="M330.719 111.416L107.984 239.877C90.2007 250.146 28.5891 266.361 8.11177 254.47C-12.3655 242.579 15.8357 207.086 33.7982 196.816L256.534 68.7162L330.719 111.416Z" fill="#98509B"/>
<path d="M319.223 113.218H328.025L329.103 112.317L285.274 87.0934L300.542 102.408L319.223 113.218Z" fill="#FFE1FA"/>
<path d="M108.163 240.237L331.079 111.596L331.258 111.056L256.354 67.9955L33.4391 196.276C20.3264 203.843 0.387939 226.004 0.387939 241.858C0.387939 247.444 2.9027 251.768 7.75259 254.65C12.9617 257.713 20.6856 258.974 29.6669 258.974C56.7904 258.974 94.871 247.804 108.163 240.237ZM329.821 111.416L107.624 239.336C90.0211 249.426 28.7688 265.821 8.11184 253.93C3.44158 251.227 1.10644 247.263 1.10644 241.858C1.10644 226.184 20.6856 204.563 33.6187 197.177L256.175 69.2567L329.821 111.416Z" fill="#16110D"/>
<path d="M256.534 90.3364L33.978 218.256C25.5356 223.121 15.8358 236.814 11.1655 247.083V247.444C12.0637 248.525 13.1414 249.606 14.5784 250.506C31.104 260.055 87.1472 247.083 101.517 238.796L308.087 120.064L256.534 90.3364Z" fill="#FFE1FA"/>
<path d="M320.122 111.416L255.816 74.4816L33.7983 202.041C33.6187 202.041 33.4391 202.221 33.2595 202.401C32.9002 202.582 32.541 202.762 32.3613 202.942C31.8225 203.302 31.4632 203.482 30.9243 203.843C30.7447 204.023 30.5651 204.023 30.5651 204.203C28.7688 205.464 26.9726 206.906 25.1763 208.527L24.9967 208.707L26.2541 221.86C28.4096 219.698 30.5651 217.896 32.7206 216.635L255.277 88.7149L306.47 118.263L100.08 236.814C85.8898 244.921 30.0262 258.074 13.5006 248.525C12.0636 247.624 10.8063 246.723 9.90813 245.462C13.321 238.075 19.069 229.066 25.1763 222.761L23.9189 209.428C23.9189 209.428 23.9189 209.428 23.7393 209.608C23.5597 209.788 23.2004 210.149 23.0208 210.329C14.9376 218.256 7.39337 229.066 6.85449 237.895V238.075C6.85449 238.255 6.85449 238.615 6.85449 238.796C6.85449 238.976 6.85449 238.976 6.85449 239.156C6.85449 239.336 6.85449 239.696 6.85449 239.877C6.85449 240.237 6.85449 240.417 6.85449 240.777C6.85449 240.958 6.85449 241.138 7.03412 241.318C7.21374 242.579 7.573 243.66 8.11187 244.741C8.2915 245.101 8.47112 245.462 8.65075 245.642C8.65075 245.642 8.65075 245.642 8.65075 245.822L8.83037 246.002L9.01 246.182L9.18963 246.363C10.0878 247.444 11.3451 248.525 12.6025 249.245C16.7339 251.768 23.5597 252.669 31.2836 252.669C54.8145 252.669 89.3027 243.66 99.9006 237.534L318.864 111.777L320.122 111.416Z" fill="#16110D"/>
<path d="M255.277 88.1744L255.995 75.0221L319.223 111.416L307.368 118.263L255.277 88.1744Z" fill="#98509B"/>
<path d="M320.122 111.416L255.636 74.3014L254.917 88.5347L307.368 118.803L320.122 111.416ZM256.354 75.7427L318.505 111.416L307.368 117.722L255.636 87.9942L256.354 75.7427Z" fill="#16110D"/>
<path d="M269.647 151.954V150.873L265.695 153.215V154.296L267.132 153.396V158.62L268.03 158.08V152.855L269.647 151.954Z" fill="#98509B"/>
<path d="M274.496 154.296L273.239 152.495C273.598 152.134 273.778 151.774 273.958 151.414C274.137 151.053 274.317 150.513 274.317 150.152C274.317 149.612 274.137 149.252 273.778 149.071C273.419 148.891 273.059 149.071 272.521 149.252L270.185 150.693V156.819L271.084 156.278V153.936L272.161 153.215L273.239 155.017L274.496 154.296ZM273.059 151.594C272.88 151.774 272.7 152.134 272.521 152.134L271.263 152.855V151.053L272.521 150.333C273.059 149.972 273.419 150.152 273.419 150.693C273.239 151.053 273.239 151.233 273.059 151.594Z" fill="#98509B"/>
<path d="M279.346 151.414L277.55 146.189L276.472 146.909L274.856 154.116L275.754 153.576L276.113 151.774L277.909 150.693L278.269 151.954L279.346 151.414ZM277.191 147.81L277.37 148.351L277.909 149.792L276.652 150.513C277.011 148.891 277.191 148.171 277.191 147.99C277.011 147.99 277.011 147.81 277.191 147.81V147.63V147.81Z" fill="#98509B"/>
<path d="M284.017 148.711V142.585L283.118 143.126V146.729C283.118 147.09 283.118 147.45 283.118 147.99L280.963 144.387L279.885 145.108V151.234L280.783 150.693V147.09C280.783 146.729 280.783 146.369 280.783 146.009L282.759 149.612L284.017 148.711Z" fill="#98509B"/>
<path d="M288.507 143.666C288.507 143.486 288.328 143.306 288.328 143.306C288.148 143.306 288.148 143.126 287.789 143.126C287.609 143.126 287.25 143.126 286.891 143.306C286.532 143.486 286.352 143.486 286.172 143.486C285.993 143.486 285.993 143.486 285.813 143.306C285.813 143.306 285.633 143.126 285.633 142.946C285.633 142.405 285.993 142.045 286.532 141.685C286.891 141.504 287.07 141.504 287.25 141.504C287.43 141.504 287.43 141.685 287.609 141.865L288.507 141.144C288.507 140.604 288.148 140.423 287.969 140.243C287.609 140.243 287.25 140.243 286.711 140.604C286.172 140.964 285.633 141.324 285.274 141.865C284.915 142.405 284.735 142.946 284.735 143.486C284.735 143.666 284.735 143.847 284.735 144.027C284.735 144.207 284.915 144.207 284.915 144.387C284.915 144.387 285.095 144.567 285.274 144.567C285.454 144.567 285.454 144.567 285.633 144.567C285.813 144.567 285.993 144.567 286.352 144.387C286.711 144.207 287.07 144.207 287.25 144.207C287.43 144.207 287.43 144.207 287.609 144.387C287.609 144.387 287.789 144.567 287.789 144.747C287.789 145.288 287.43 145.828 286.711 146.189C286.352 146.369 286.172 146.369 285.993 146.369C285.813 146.369 285.633 146.189 285.633 145.828L284.735 146.549C284.915 147.09 285.095 147.45 285.454 147.45C285.813 147.45 286.352 147.45 286.891 147.09C287.609 146.729 287.969 146.189 288.328 145.828C288.687 145.288 288.867 144.747 288.867 144.207C288.687 144.027 288.687 143.847 288.507 143.666Z" fill="#98509B"/>
<path d="M292.818 137.901C292.459 137.721 292.1 137.901 291.561 138.081L289.406 139.342V145.468L290.304 144.928V142.766L291.381 142.045C291.741 141.865 292.1 141.504 292.28 141.324C292.459 140.964 292.639 140.604 292.818 140.243C292.998 139.883 292.998 139.523 292.998 138.982C293.178 138.622 292.998 138.081 292.818 137.901ZM291.92 140.604C291.741 140.784 291.561 141.144 291.381 141.144L290.304 141.685V139.703L291.381 139.162C291.92 138.802 292.28 138.982 292.28 139.703C292.28 140.063 292.1 140.423 291.92 140.604Z" fill="#98509B"/>
<path d="M297.848 135.198C297.489 134.838 296.77 135.018 296.052 135.379C295.333 135.739 294.794 136.46 294.255 137.18C293.896 137.901 293.717 138.802 293.717 139.883C293.717 140.964 293.896 141.504 294.435 141.865C294.794 142.225 295.513 142.225 296.231 141.685C296.77 141.324 297.129 140.964 297.489 140.604C297.848 140.063 298.028 139.523 298.387 138.982C298.566 138.442 298.746 137.721 298.746 137.18C298.387 136.28 298.207 135.559 297.848 135.198ZM297.129 139.703C296.95 140.243 296.591 140.604 296.052 140.784C295.692 140.964 295.333 140.964 294.974 140.784C294.794 140.604 294.615 140.063 294.615 139.342C294.615 138.622 294.794 138.081 294.974 137.541C295.154 137 295.513 136.64 296.052 136.46C296.411 136.279 296.77 136.279 297.129 136.46C297.309 136.64 297.489 137.18 297.489 137.901C297.489 138.442 297.309 139.162 297.129 139.703Z" fill="#98509B"/>
<path d="M303.416 137.541L302.159 135.739C302.518 135.379 302.698 135.018 302.877 134.658C303.057 134.298 303.237 133.757 303.237 133.397C303.237 132.856 303.057 132.496 302.698 132.316C302.338 132.136 301.979 132.316 301.44 132.496L299.105 133.937V140.063L300.003 139.523V137.18L301.081 136.46L302.159 138.261L303.416 137.541ZM301.979 134.658C301.8 134.838 301.62 135.018 301.44 135.198L300.183 135.919V134.117L301.44 133.397C301.979 133.036 302.338 133.217 302.338 133.757C302.159 134.117 302.159 134.478 301.979 134.658Z" fill="#98509B"/>
<path d="M307.548 129.793V128.712L303.596 131.055V132.136L305.033 131.235V136.46L305.931 135.919V130.694L307.548 129.793Z" fill="#98509B"/>
<path d="M124.689 243.84C112.295 250.867 99.1821 256.452 85.5305 260.055C83.5547 260.596 81.0399 261.136 78.1659 261.857C78.5251 262.037 79.064 262.217 79.4233 262.578C81.938 262.037 84.0935 261.497 85.7102 260.956C99.3617 257.353 112.654 251.768 125.048 244.741L327.307 128.172L327.666 126.911L124.689 243.84Z" fill="#98509B"/>
<path d="M222.046 108.714V51.7803L303.596 61.8697V119.163C303.776 119.704 302.339 121.325 301.44 121.686L274.497 137.18C273.06 138.081 270.365 137.901 268.749 137L223.303 110.876C222.585 110.155 222.046 109.434 222.046 108.714Z" fill="#98509B"/>
<path d="M274.676 79.7065L302.698 63.3111C304.135 62.4102 303.955 60.9689 302.339 60.0681L256.893 33.9436C255.097 33.0427 252.582 32.8626 251.145 33.7634L223.124 50.1588C221.687 51.0596 221.866 52.501 223.483 53.4018L268.928 79.5263C270.545 80.6073 273.239 80.6073 274.676 79.7065Z" fill="#FFE1FA"/>
<path d="M222.046 46.0149C222.226 46.5554 222.585 47.2761 223.483 47.6364L268.928 73.7609C270.724 74.6617 273.239 74.8419 274.676 73.9411L302.698 57.5457C303.237 57.1854 303.596 56.825 303.596 56.2845V62.9508C303.776 63.4913 303.416 64.2119 302.698 64.5723L274.676 81.328C273.239 82.2288 270.545 82.0486 268.928 81.1478L223.483 55.0233C222.405 54.4828 222.046 53.7621 222.046 53.0415V46.0149Z" fill="#98509B"/>
<path d="M228.872 44.7538L251.684 31.4213C252.942 30.7006 254.917 30.8808 256.354 31.6015L296.77 54.8433C298.207 55.5639 298.387 56.8251 297.129 57.5458L291.92 60.6087L256.534 40.2496C255.097 39.5289 253.121 39.3487 251.864 40.0694L234.081 50.339L228.872 47.2762C227.794 46.5555 227.614 45.2943 228.872 44.7538Z" fill="#98509B"/>
<path d="M223.483 49.4382L268.928 75.5627C270.724 76.4635 273.239 76.6437 274.676 75.7428L302.698 59.3475C304.135 58.4466 303.955 57.0053 302.339 56.1044L256.893 29.9799C255.097 29.0791 252.582 28.8989 251.145 29.7998L223.124 46.015C221.687 46.9158 221.866 48.3572 223.483 49.4382ZM228.872 46.1951L251.684 32.8627C252.942 32.142 254.917 32.3221 256.354 33.0428L296.77 56.2846C298.207 57.0053 298.387 58.2665 297.129 58.9871L274.497 72.3196C273.239 73.0403 271.263 72.8601 269.826 72.1395L229.231 48.8977C227.794 48.177 227.614 46.9158 228.872 46.1951Z" fill="#FFE1FA"/>
<path d="M265.695 84.7513L259.947 81.5083V90.3366L265.695 93.7598V84.7513ZM260.845 82.7695L264.976 85.1117V92.1383L260.845 89.6159V82.7695Z" fill="#16110D"/>
<path d="M258.689 80.7876L252.941 77.5446V86.3728L258.689 89.796V80.7876ZM253.839 78.8057L257.971 81.1479V88.1745L253.839 85.6522V78.8057Z" fill="#16110D"/>
<path d="M251.864 76.8238L246.116 73.5808V82.4091L251.864 85.8323V76.8238ZM247.014 75.0222L251.145 77.3644V84.3909L247.014 81.8686V75.0222Z" fill="#16110D"/>
<path d="M244.858 72.8601L239.11 69.6171V78.4453L244.858 81.8685V72.8601ZM240.008 71.0584L244.14 73.4006V80.4272L240.008 77.9048V71.0584Z" fill="#16110D"/>
<path d="M238.032 68.8964L232.284 65.6533V74.4816L238.032 77.9048V68.8964ZM233.183 67.0947L237.314 69.4369V76.4635L233.183 73.9411V67.0947Z" fill="#16110D"/>
<path d="M231.027 64.9327L225.279 61.6897V70.518L231.027 73.9412V64.9327ZM226.177 63.1311L230.308 65.4732V72.4998L226.177 69.9775V63.1311Z" fill="#16110D"/>
<path d="M265.695 95.0209L259.947 91.7779V100.606L265.695 104.029V95.0209ZM260.845 93.2192L264.976 95.5614V102.588L260.845 100.066V93.2192Z" fill="#16110D"/>
<path d="M258.689 91.2373L252.941 87.9943V96.8225L258.689 100.246V91.2373ZM253.839 89.2554L257.971 91.5976V98.6242L253.839 96.1019V89.2554Z" fill="#16110D"/>
<path d="M251.864 87.2737L246.116 84.0306V92.8589L251.864 96.2821V87.2737ZM247.014 85.2918L251.145 87.634V94.6606L247.014 92.1382V85.2918Z" fill="#16110D"/>
<path d="M244.858 83.3099L239.11 80.0669V88.8952L244.858 92.3184V83.3099ZM240.008 81.3281L244.14 83.6703V90.6969L240.008 88.1745V81.3281Z" fill="#16110D"/>
<path d="M238.032 79.3462L232.284 76.1031V84.9314L238.032 88.3546V79.3462ZM233.183 77.3643L237.314 79.7065V86.7331L233.183 84.2107V77.3643Z" fill="#16110D"/>
<path d="M231.027 75.3824L225.279 72.1394V80.9677L231.027 84.3909V75.3824ZM226.177 73.4006L230.308 75.9229V82.9495L226.177 80.4272V73.4006Z" fill="#16110D"/>
<path d="M298.567 56.4647C298.567 57.0052 298.207 57.7259 297.489 58.0862L292.1 61.1491L274.676 71.2385C274.137 71.5989 273.239 71.779 272.341 71.779C271.263 71.779 270.365 71.5989 269.467 71.0584L234.44 50.8795L229.051 47.8166C228.333 47.4562 227.974 46.9157 227.794 46.3752C227.794 46.1951 227.614 46.0149 227.614 45.8347C227.614 45.1141 227.974 44.5735 228.692 44.2132L251.505 30.8807C252.223 30.5204 253.121 30.3402 254.019 30.3402C254.558 30.3402 254.917 30.3402 255.456 30.5204C255.995 30.7005 256.354 30.8807 256.714 31.0609L297.129 54.3027C298.028 55.0233 298.567 55.5638 298.567 56.4647ZM291.202 60.6086L256.534 40.6098C255.277 39.8892 253.301 39.8892 252.223 40.4297L235.159 50.3389L269.826 70.3377C271.084 71.0584 273.06 71.0584 274.137 70.5179L291.202 60.6086ZM297.668 56.4647C297.668 56.1044 297.309 55.744 296.77 55.3837L256.354 32.1419C256.175 31.9617 255.995 31.9617 255.816 31.9617H255.636C255.456 31.9617 255.456 31.9617 255.277 31.7816H255.097C254.917 31.7816 254.917 31.7816 254.738 31.7816H254.558C254.379 31.7816 254.379 31.7816 254.199 31.7816H254.019C253.66 31.7816 253.48 31.7816 253.121 31.9617C252.762 31.9617 252.582 32.1419 252.403 32.3221V40.2495C252.942 39.8892 253.84 39.709 254.558 39.709C255.636 39.709 256.534 39.8892 257.432 40.4297L292.459 60.6086L297.309 57.7259C297.309 57.0052 297.668 56.825 297.668 56.4647Z" fill="#16110D"/>
<path d="M304.135 63.8516V118.983C304.315 119.884 302.518 121.506 301.8 121.866L274.856 137.36C274.137 137.721 273.06 138.081 272.162 138.081C270.904 138.081 269.647 137.721 268.749 137.18L223.303 111.056C222.226 110.335 221.507 109.615 221.687 108.714V53.0415V46.1951C221.687 46.1951 221.687 46.1951 221.687 46.0149C221.687 45.2942 222.046 44.5736 222.944 44.2132L250.966 27.8179C252.582 26.917 255.277 26.917 257.253 27.998L302.698 54.1225C303.776 54.663 304.315 55.5639 304.315 56.4647V56.6449V63.3111C304.135 63.4913 304.135 63.6715 304.135 63.8516ZM268.928 81.6883C268.928 81.6883 268.749 81.6883 268.749 81.5082L223.303 55.3837C223.124 55.2035 222.764 55.0233 222.585 54.8432V108.714C222.585 109.254 222.944 109.795 223.842 110.335L269.108 136.279V81.6883H268.928ZM268.928 74.4816C268.928 74.4816 268.749 74.4816 268.749 74.3014L223.303 48.1769C223.124 47.9968 222.764 47.8166 222.585 47.6364V52.8613C222.585 53.4018 222.944 53.9423 223.842 54.4828L269.108 80.4272V74.4816H268.928ZM272.521 137.18H272.162V82.409C271.623 82.409 270.904 82.409 270.365 82.2288V137C271.084 137.18 271.802 137.18 272.521 137.18ZM272.162 81.328V75.2023C271.623 75.2023 271.084 75.2023 270.725 75.0221C270.545 75.0221 270.545 75.0221 270.365 75.0221V81.1478C270.904 81.328 271.443 81.328 272.162 81.328ZM303.237 56.4647C303.237 55.9242 302.877 55.3837 301.979 55.0233L256.534 28.8989C255.636 28.3584 254.558 28.1782 253.48 28.1782C252.582 28.1782 251.864 28.3584 251.145 28.7187L223.124 45.1141C222.764 45.2942 222.405 45.6546 222.405 46.1951C222.405 46.7356 222.944 47.0959 223.663 47.4563L269.108 73.5807C270.725 74.4816 273.06 74.4816 274.317 73.7609L302.339 57.3655C302.878 57.1854 303.237 56.825 303.237 56.4647Z" fill="#16110D"/>
<path d="M266.593 55.0233L261.923 8.17944L254.917 9.98113V57.7259C254.917 57.906 254.917 58.0862 254.917 58.0862C255.097 58.4465 255.277 58.987 255.995 59.3474C257.253 60.0681 259.408 60.2482 260.486 59.5276L265.875 56.4647C266.593 56.1043 266.773 55.5638 266.593 55.0233Z" fill="#98509B"/>
<path d="M261.384 4.03561L258.151 5.8373C257.432 6.19764 256.175 6.19764 255.456 5.65713C254.738 5.11662 254.558 4.57612 255.277 4.03561L258.51 2.23392C259.229 1.87358 260.486 1.87358 261.204 2.41409C262.103 2.9546 262.103 3.67527 261.384 4.03561Z" fill="#FFE1FA"/>
<path d="M266.054 57.0052L260.665 60.0681C260.127 60.4284 259.228 60.6086 258.51 60.6086C257.612 60.6086 256.534 60.4284 255.636 59.8879C255.097 59.5276 254.738 59.1672 254.558 58.8069L254.379 58.2664C254.379 58.0862 254.379 57.9061 254.379 57.7259V9.98115V3.85541V3.67524C254.379 3.31491 254.558 2.7744 255.097 2.59423L258.33 0.792542C259.228 0.252036 260.665 0.432205 261.564 0.972711C262.102 1.33305 262.282 1.69339 262.462 2.05372V8.35963L267.132 55.2035C267.312 55.744 266.952 56.4647 266.054 57.0052ZM255.456 3.49507C255.456 3.67524 255.636 3.85541 255.816 3.85541C256.534 4.21575 257.432 4.21575 257.971 4.03558L261.204 2.23389C261.384 2.23389 261.384 2.05372 261.384 2.05372C261.384 1.87356 261.204 1.69339 261.025 1.69339C260.665 1.51322 260.127 1.33305 259.767 1.33305C259.408 1.33305 259.049 1.33305 258.869 1.51322L255.636 3.31491C255.456 3.31491 255.456 3.49507 255.456 3.49507ZM255.456 9.62081C255.456 9.80098 255.636 9.98115 255.816 10.1613C256.354 10.5217 257.073 10.5217 257.612 10.3415V5.29676C257.432 5.29676 257.253 5.29676 257.073 5.29676C256.534 5.29676 255.816 5.11659 255.456 4.93642V9.62081ZM259.767 59.3474L257.791 11.4225C257.612 11.4225 257.432 11.4225 257.253 11.4225C256.714 11.4225 255.995 11.2423 255.636 11.0622V57.7259C255.636 57.9061 255.636 57.9061 255.636 58.0862C255.636 58.4466 255.995 58.8069 256.534 58.9871C257.253 59.5276 258.69 59.7077 259.767 59.3474Z" fill="#16110D"/>
<path d="M262.102 7.9993L257.971 10.3415C257.971 10.3415 257.791 10.3415 257.612 10.5217V11.6027C257.971 11.6027 258.151 11.4225 258.33 11.4225L262.462 9.08032V7.81914C262.462 7.63897 262.282 7.81914 262.102 7.9993Z" fill="#98509B"/>
<path d="M301.261 79.5263V70.698L295.513 73.941V82.7693L301.261 79.5263ZM300.363 72.1394V79.1659L296.231 81.6883V74.6617L300.363 72.1394Z" fill="#98509B"/>
<path d="M294.256 83.3098V74.4816L288.508 77.7246V86.733L294.256 83.3098ZM293.537 75.9229V82.9495L289.406 85.4719V78.4453L293.537 75.9229Z" fill="#98509B"/>
<path d="M287.25 87.4538V78.6255L281.502 81.8685V90.6968L287.25 87.4538ZM286.531 80.0668V87.0934L282.4 89.6158V82.5892L286.531 80.0668Z" fill="#98509B"/>
<path d="M280.424 91.2372V82.4089L274.676 85.652V94.4803L280.424 91.2372ZM279.526 83.8503V90.8769L275.395 93.3992V86.3727L279.526 83.8503Z" fill="#98509B"/>
<path d="M301.261 89.7959V80.9677L295.513 84.2107V93.039L301.261 89.7959ZM300.363 82.409V89.4356L296.231 91.9579V84.9314L300.363 82.409Z" fill="#98509B"/>
<path d="M294.256 93.7597V84.9314L288.508 88.1744V97.0027L294.256 93.7597ZM293.537 86.1926V93.2192L289.406 95.7415V88.5348L293.537 86.1926Z" fill="#98509B"/>
<path d="M287.25 97.7233V88.895L281.502 92.1381V101.147L287.25 97.7233ZM286.531 90.3364V97.363L282.4 99.8853V92.8587L286.531 90.3364Z" fill="#98509B"/>
<path d="M280.424 101.507V92.6786L274.676 95.9216V104.75L280.424 101.507ZM279.526 94.1199V101.147L275.395 103.669V96.6423L279.526 94.1199Z" fill="#98509B"/>
<path d="M237.134 101.327L226.896 95.0208V113.038L237.134 118.983V101.327ZM227.435 96.2819L236.416 101.687V117.722L227.435 112.497V96.2819Z" fill="#16110D"/>
<path d="M229.051 106.912V99.525L234.62 102.948V110.155L229.051 106.912Z" fill="#16110D"/>
<path d="M287.609 55.9242L278.269 50.5192L268.928 55.9242V58.4466L278.269 63.8517V61.3293L287.609 55.9242Z" fill="#98509B"/>
<path d="M287.969 55.744V56.1044V58.8069L278.269 64.3921L277.91 64.212L268.569 58.8069V56.1044V55.744L278.269 50.1588L287.609 55.5639L287.969 55.744ZM278.269 50.8795L269.647 55.9242L278.269 60.9689L286.891 55.9242L278.269 50.8795ZM277.91 63.3111V61.5094L272.88 58.6268L269.288 56.4647V58.2664L277.91 63.3111Z" fill="#16110D"/>
<path d="M283.298 56.4647L278.269 59.1673L273.419 56.4647L278.269 53.582L283.298 56.4647Z" fill="#FFE1FA"/>
<path d="M284.915 55.9242L278.448 52.1406L271.982 55.9242L278.448 59.7077L284.915 55.9242ZM278.269 52.8613L283.478 55.9242L278.269 58.987L273.06 55.9242L278.269 52.8613Z" fill="#16110D"/>
<path d="M304.135 63.4912L274.497 80.7874C273.958 81.1478 273.06 81.3279 272.161 81.3279V82.2288C273.239 82.2288 274.137 82.0486 274.856 81.5081L304.135 64.3921V63.4912Z" fill="#98509B"/>
<path d="M27.1522 244.921L22.482 198.077L15.4766 199.879V247.624C15.4766 247.804 15.4766 247.984 15.4766 247.984C15.6562 248.344 15.8358 248.885 16.5543 249.245C17.8117 249.966 19.9672 250.146 21.045 249.426L26.4337 246.363C27.1522 246.002 27.3319 245.462 27.1522 244.921Z" fill="#98509B"/>
<path d="M21.943 193.934L18.7097 195.735C17.9912 196.096 16.7338 196.096 16.0153 195.555C15.2968 195.015 15.1172 194.474 15.8357 193.934L19.069 192.132C19.7875 191.772 21.0448 191.772 21.7633 192.312C22.4818 192.853 22.6615 193.573 21.943 193.934Z" fill="#FFE1FA"/>
<path d="M26.6133 246.903L21.2245 249.966C20.6856 250.326 19.7875 250.507 19.069 250.507C18.1709 250.507 17.0931 250.326 16.195 249.786C15.6561 249.426 15.2969 249.065 15.1172 248.705L14.9376 248.164C14.9376 247.984 14.9376 247.804 14.9376 247.624V199.879V193.753V193.573C14.9376 193.213 15.1172 192.672 15.6561 192.492L18.8894 190.69C19.7875 190.15 21.2245 190.33 22.1226 190.871C22.6615 191.231 22.8411 191.591 23.0208 191.952V198.258L27.691 245.101C27.8707 245.642 27.5114 246.363 26.6133 246.903ZM15.8358 193.393C15.8358 193.573 16.0154 193.753 16.195 193.753C16.9135 194.114 17.8116 194.114 18.3505 193.934L21.5838 192.132C21.7634 192.132 21.7634 191.952 21.7634 191.952C21.7634 191.772 21.5838 191.591 21.4041 191.591C21.0449 191.411 20.506 191.231 20.1468 191.231C19.7875 191.231 19.4283 191.231 19.2486 191.411L16.0154 193.213L15.8358 193.393ZM15.8358 199.519C15.8358 199.699 16.0154 199.879 16.195 200.059C16.7339 200.42 17.4524 200.42 17.9913 200.239V195.015C17.8116 195.015 17.632 195.015 17.4524 195.015C16.9135 195.015 16.195 194.834 15.8358 194.654V199.519ZM20.1468 249.245L18.1709 201.32C17.9913 201.32 17.8116 201.32 17.632 201.32C17.0931 201.32 16.3746 201.14 16.0154 200.96V247.624C16.0154 247.804 16.0154 247.804 16.0154 247.984C16.0154 248.345 16.3746 248.705 16.9135 248.885C17.632 249.426 19.069 249.606 20.1468 249.245Z" fill="#16110D"/>
<path d="M22.6615 197.897L18.5302 200.239C18.5302 200.239 18.3505 200.239 18.1709 200.42V201.501C18.5301 201.501 18.7098 201.32 18.8894 201.32L23.0208 198.978V197.717C23.0208 197.537 22.8412 197.717 22.6615 197.897Z" fill="#98509B"/>
<path d="M34.8761 224.022L52.4794 213.572L69.7235 224.022L52.8387 233.931L34.8761 224.022Z" fill="#98509B"/>
<path d="M34.8761 225.463L52.4794 215.193L69.7235 225.463L52.8387 235.553L34.8761 225.463Z" fill="#FFE1FA"/>
<path d="M34.8761 231.949V224.022L52.8387 233.931L52.659 242.039L34.8761 231.949Z" fill="#98509B"/>
<path d="M53.5572 221.68C54.9942 221.86 55.5331 222.4 55.5331 223.301C55.5331 223.481 55.5331 223.301 55.5331 223.481L59.6645 225.463C60.0237 224.923 60.383 224.202 60.383 223.481C60.383 220.779 57.1497 218.797 53.0183 218.617L53.5572 221.68Z" fill="#98509B"/>
<path d="M60.2033 225.823C60.7421 225.103 60.9218 224.382 60.9218 223.661C60.9218 220.779 57.5089 218.437 53.1979 218.256H52.8386L53.1979 222.22H53.5571C55.1738 222.4 55.1738 223.121 55.1738 223.301L54.9941 223.661L60.2033 225.823ZM54.096 221.319L53.7368 219.157C57.3293 219.518 60.0236 221.319 60.0236 223.661C60.0236 224.202 59.844 224.562 59.6644 225.103L56.0719 223.301C55.8923 222.58 55.533 221.68 54.096 221.319Z" fill="#16110D"/>
<path d="M54.2757 224.742C53.7368 225.103 53.9165 224.022 53.0183 224.022C52.1202 224.022 51.2221 225.103 50.6832 224.742L46.3722 226.544C47.8092 227.625 50.1443 228.346 52.6591 228.346C55.3535 228.346 57.6886 227.445 59.1256 226.184L54.2757 224.742Z" fill="#98509B"/>
<path d="M59.3052 226.724L59.6645 226.364L54.4553 224.382H54.2757C54.0961 224.202 53.9165 223.661 53.198 223.661C52.6591 223.661 52.1202 223.842 51.761 224.202C51.5813 224.382 51.0425 224.562 51.0425 224.562L50.8628 224.382L45.6537 226.724L46.1926 227.085C47.8092 228.346 50.1443 229.067 52.6591 229.067C55.1738 228.886 57.6886 228.166 59.3052 226.724ZM50.6832 225.283C51.0425 225.463 51.5813 225.103 52.1202 224.923C52.4795 224.742 52.8387 224.562 53.198 224.562C53.3776 224.562 53.3776 224.562 53.5572 224.923C53.7368 225.103 53.7368 225.283 54.0961 225.463C54.2757 225.463 54.2757 225.463 54.4553 225.463L58.2275 226.724C56.7905 227.625 54.8146 228.166 52.6591 228.166C50.6832 228.166 48.8869 227.625 47.4499 226.904L50.6832 225.283Z" fill="#16110D"/>
<path d="M49.4258 223.301C49.4258 223.301 49.4258 223.481 49.4258 223.301C49.4258 222.4 49.9647 221.499 51.4017 221.319L51.9406 218.617C47.8092 218.797 44.5759 220.959 44.5759 223.481C44.5759 224.202 44.9352 225.103 45.4741 225.643L49.4258 223.301Z" fill="#98509B"/>
<path d="M49.6054 223.842H49.9647V223.661H50.1443L49.9647 223.301C49.9647 222.761 50.5036 222.04 51.5813 221.86H51.9406L52.2998 218.256H51.9406C47.4499 218.437 44.2167 220.779 44.2167 223.661C44.2167 224.562 44.5759 225.463 45.1148 226.184L45.2944 226.364L49.6054 223.842ZM51.0424 220.959C49.7851 221.139 49.2462 222.04 49.0666 222.941L48.8869 223.121L45.4741 225.103C45.1148 224.562 44.9352 224.022 44.9352 223.481C44.9352 221.319 47.6296 219.337 51.2221 218.977L51.0424 220.959Z" fill="#16110D"/>
<path d="M55.5331 223.301C55.5331 224.202 54.096 225.103 52.4794 225.103C50.8628 225.103 49.4258 224.382 49.4258 223.301C49.4258 222.58 50.3239 220.779 51.222 220.599C51.5813 220.418 51.9405 221.68 52.4794 221.68C53.0183 221.68 53.1979 220.599 53.7368 220.599C54.8146 220.779 55.5331 222.58 55.5331 223.301Z" fill="#98509B"/>
<path d="M56.072 223.301C56.072 222.4 55.1739 220.418 53.9165 220.058C53.3776 219.878 53.0184 220.418 52.8387 220.779C52.8387 220.959 52.6591 220.959 52.6591 221.139C52.6591 221.139 52.4795 220.959 52.4795 220.779C52.2999 220.418 51.9406 220.058 51.4017 220.058C49.9647 220.418 49.2462 222.58 49.2462 223.301C49.2462 224.562 50.8628 225.463 52.8387 225.463C54.4554 225.463 56.072 224.562 56.072 223.301ZM51.5813 221.319C51.761 221.68 52.1202 222.04 52.6591 222.04C53.198 222.04 53.3776 221.68 53.7369 221.319L53.9165 221.139C54.635 221.499 55.3535 222.941 55.3535 223.481C55.3535 224.022 54.2757 224.742 52.8387 224.742C51.2221 224.742 50.324 224.022 50.324 223.481C50.324 222.941 51.0425 221.499 51.761 221.139C51.4017 221.139 51.4017 221.319 51.5813 221.319Z" fill="#16110D"/>
<path d="M52.4794 222.761C53.6698 222.761 54.6349 222.196 54.6349 221.499C54.6349 220.803 53.6698 220.238 52.4794 220.238C51.2889 220.238 50.3239 220.803 50.3239 221.499C50.3239 222.196 51.2889 222.761 52.4794 222.761Z" fill="#98509B"/>
<path d="M54.6349 222.4C54.6349 223.121 53.7367 223.661 52.4794 223.661C51.222 223.661 50.3239 223.121 50.3239 222.4C50.3239 221.68 51.222 221.139 52.4794 221.139C53.7367 221.319 54.6349 221.86 54.6349 222.4Z" fill="#FFE1FA"/>
<path d="M55.1738 221.499C55.1738 220.599 54.0961 219.878 52.659 219.878C51.222 219.878 50.1443 220.599 50.1443 221.499C50.1443 222.4 51.222 223.121 52.659 223.121C53.9164 223.301 55.1738 222.58 55.1738 221.499ZM54.0961 221.499C54.0961 221.86 53.3775 222.22 52.4794 222.22C51.4017 222.22 50.8628 221.86 50.8628 221.499C50.8628 221.139 51.5813 220.779 52.4794 220.779C53.5572 220.779 54.0961 221.319 54.0961 221.499Z" fill="#16110D"/>
<path d="M70.2624 223.661V232.31L52.4795 242.579L34.3373 232.129V223.661L34.8762 223.301L52.4795 213.031L69.7235 223.301L70.2624 223.661ZM35.7743 224.022L52.8387 233.571L55.7127 231.769L68.8254 224.022L52.4795 214.293L35.7743 224.022ZM35.415 231.589L52.4795 241.498V234.291L38.6483 226.544L35.415 224.742V231.589Z" fill="#16110D"/>
<path d="M226.896 129.073L244.499 118.803L261.743 129.073L244.858 139.162L226.896 129.073Z" fill="#98509B"/>
<path d="M226.896 130.694L244.499 120.244L261.743 130.694L244.858 140.604L226.896 130.694Z" fill="#FFE1FA"/>
<path d="M226.896 137V129.073L244.858 139.162L244.679 147.27L226.896 137Z" fill="#98509B"/>
<path d="M245.577 126.911C247.014 127.091 247.553 127.631 247.553 128.532C247.553 128.712 247.553 128.532 247.553 128.712L251.684 130.694C252.043 130.154 252.403 129.433 252.403 128.712C252.403 126.01 249.169 124.028 245.038 123.848L245.577 126.911Z" fill="#98509B"/>
<path d="M252.223 130.874C252.762 130.154 252.942 129.433 252.942 128.712C252.942 125.83 249.529 123.488 245.218 123.307H244.858L245.218 127.271H245.577C247.194 127.451 247.194 128.172 247.194 128.352L247.014 128.712L252.223 130.874ZM246.116 126.37L245.757 124.208C249.349 124.569 252.043 126.37 252.043 128.712C252.043 129.253 251.864 129.613 251.684 130.154L248.092 128.352C247.912 127.631 247.553 126.731 246.116 126.37Z" fill="#16110D"/>
<path d="M246.295 129.793C245.757 130.154 245.936 129.073 245.038 129.073C244.14 129.073 243.242 130.154 242.703 129.793L238.392 131.595C239.829 132.676 242.164 133.397 244.679 133.397C247.373 133.397 249.708 132.496 251.145 131.235L246.295 129.793Z" fill="#98509B"/>
<path d="M251.325 131.775L251.684 131.415L246.475 129.433H246.295C246.116 129.253 245.936 128.712 245.218 128.712C244.679 128.712 244.14 128.893 243.781 129.253C243.601 129.433 243.062 129.613 243.062 129.613L242.883 129.433L237.494 131.775L238.033 132.136C239.649 133.397 241.984 134.117 244.499 134.117C247.194 134.117 249.708 133.217 251.325 131.775ZM242.703 130.334C243.062 130.514 243.601 130.154 244.14 129.974C244.499 129.793 244.858 129.613 245.218 129.613C245.397 129.613 245.397 129.613 245.577 129.974C245.757 130.154 245.757 130.334 246.116 130.514C246.295 130.514 246.295 130.514 246.475 130.514L250.247 131.775C248.81 132.676 246.834 133.217 244.679 133.217C242.703 133.217 240.907 132.676 239.47 131.955L242.703 130.334Z" fill="#16110D"/>
<path d="M241.445 128.532C241.445 128.352 241.445 128.532 241.445 128.532C241.445 127.631 241.984 126.731 243.421 126.55L243.96 123.848C239.829 124.028 236.596 126.19 236.596 128.712C236.596 129.433 236.955 130.334 237.494 130.874L241.445 128.532Z" fill="#98509B"/>
<path d="M241.625 128.893H241.984V128.712H242.164L241.984 128.352C241.984 127.812 242.523 127.091 243.601 126.911H243.96L244.319 123.307H243.96C239.47 123.488 236.236 125.83 236.236 128.712C236.236 129.613 236.596 130.514 237.134 131.235L237.314 131.415L241.625 128.893ZM243.062 126.01C241.805 126.19 241.266 127.091 241.086 127.992L240.907 128.172L237.494 130.154C237.134 129.613 236.955 129.073 236.955 128.532C236.955 126.37 239.649 124.388 243.242 124.028L243.062 126.01Z" fill="#16110D"/>
<path d="M247.553 128.532C247.553 129.433 246.116 130.334 244.499 130.334C242.883 130.334 241.446 129.613 241.446 128.532C241.446 127.812 242.344 126.01 243.242 125.83C243.601 125.65 243.96 126.911 244.499 126.911C245.038 126.911 245.218 125.83 245.757 125.83C246.834 126.01 247.553 127.812 247.553 128.532Z" fill="#98509B"/>
<path d="M248.092 128.532C248.092 127.631 247.193 125.65 245.936 125.289C245.397 125.109 245.038 125.65 244.858 126.01C244.858 126.19 244.679 126.19 244.679 126.37C244.679 126.37 244.499 126.19 244.499 126.01C244.319 125.65 243.96 125.289 243.421 125.289C241.984 125.65 241.266 127.812 241.266 128.532C241.266 129.793 242.882 130.694 244.858 130.694C246.475 130.694 248.092 129.613 248.092 128.532ZM243.601 126.37C243.781 126.731 244.14 127.091 244.679 127.091C245.218 127.091 245.397 126.731 245.757 126.37L245.936 126.19C246.655 126.55 247.373 127.992 247.373 128.532C247.373 129.073 246.295 129.793 244.858 129.793C243.242 129.793 242.344 129.073 242.344 128.532C242.344 127.992 243.062 126.55 243.781 126.19C243.421 126.19 243.421 126.37 243.601 126.37Z" fill="#16110D"/>
<path d="M246.655 126.731C246.655 127.451 245.757 127.992 244.499 127.992C243.242 127.992 242.344 127.451 242.344 126.731C242.344 126.01 243.242 125.469 244.499 125.469C245.757 125.469 246.655 126.01 246.655 126.731Z" fill="#98509B"/>
<path d="M246.655 127.631C246.655 128.352 245.757 128.893 244.499 128.893C243.242 128.893 242.344 128.352 242.344 127.631C242.344 126.911 243.242 126.37 244.499 126.37C245.757 126.37 246.655 126.911 246.655 127.631Z" fill="#FFE1FA"/>
<path d="M247.193 126.731C247.193 125.83 246.116 125.109 244.679 125.109C243.242 125.109 242.164 125.83 242.164 126.731C242.164 127.631 243.242 128.352 244.679 128.352C245.936 128.352 247.193 127.631 247.193 126.731ZM246.295 126.731C246.295 127.091 245.577 127.451 244.679 127.451C243.601 127.451 243.062 127.091 243.062 126.731C243.062 126.37 243.781 126.01 244.679 126.01C245.577 126.01 246.295 126.37 246.295 126.731Z" fill="#16110D"/>
<path d="M262.282 128.893V137.541L244.499 147.81L226.357 137.361V128.893L226.896 128.532L244.499 118.263L261.743 128.532L262.282 128.893ZM227.794 129.073L244.858 138.622L247.732 136.82L260.845 129.073L244.499 119.344L227.794 129.073ZM227.435 136.82L244.499 146.729V139.523L230.668 131.775L227.435 129.974V136.82Z" fill="#16110D"/>
<path d="M167.799 139.162V114.119L215.4 141.504V166.908L167.799 139.162Z" fill="#98509B"/>
<path d="M167.799 113.398L185.582 103.128L233.003 130.514L215.4 140.604L167.799 113.398Z" fill="#98509B"/>
<path d="M215.579 140.784L215.4 142.946L167.799 115.74V113.398L215.579 140.784Z" fill="#98509B"/>
<path d="M169.595 114.479L185.582 105.11L233.003 132.676L217.196 141.685L169.595 114.479Z" fill="#FFE1FA"/>
<path d="M233.542 130.154V156.819L215.4 167.449L167.44 139.342V113.038L185.582 102.408L233.542 130.154ZM168.338 138.802L171.751 140.784V118.443L168.338 116.461V138.802ZM206.957 161.323L210.55 163.485V140.784L206.957 138.622V161.323ZM206.239 138.261L202.646 136.099V158.801L206.239 160.963V138.261ZM202.107 135.919L198.335 133.757V156.458L201.928 158.62L202.107 135.919ZM197.617 133.397L194.024 131.235V153.756L197.617 155.918V133.397ZM193.306 130.874L189.713 128.712V151.233L193.306 153.395V130.874ZM188.995 128.352L185.402 126.37V148.891L188.995 151.053V128.352ZM184.684 125.83L181.091 123.668V146.189L184.684 148.351V125.83ZM180.373 123.487L176.78 121.325V143.666L180.373 145.828V123.487ZM176.062 120.965L172.469 118.803V141.144L176.062 143.306V120.965ZM214.861 143.126L211.268 141.144V164.025L214.861 166.187V143.126ZM214.861 140.964L168.158 114.119V115.74L214.861 142.405V141.324V141.144V140.964ZM232.105 130.514L185.582 103.669L168.877 113.398L215.579 140.063L232.105 130.514Z" fill="#16110D"/>
<path d="M233.542 132.496V131.595L215.041 142.225V143.126L224.381 137.721V162.224L224.92 161.863V137.36L233.542 132.496Z" fill="#98509B"/>
<path d="M220.609 155.197C220.429 155.197 220.25 155.197 220.07 155.017L219.711 154.837C219.531 154.837 219.531 154.657 219.531 154.477C219.531 154.296 219.711 154.296 219.89 154.296L220.25 154.477C220.429 154.657 220.609 154.657 220.789 154.477L222.585 153.396L222.226 153.215C222.046 153.215 222.046 153.035 222.046 152.855C222.046 152.675 222.226 152.675 222.405 152.675L222.765 152.855C222.944 153.035 223.124 153.215 223.124 153.396C223.124 153.576 222.944 153.756 222.765 153.936L220.968 154.837C221.148 155.197 220.968 155.197 220.609 155.197Z" fill="#98509B"/>
<path d="M226.896 151.774C226.716 151.774 226.537 151.774 226.357 151.594L225.998 151.414C225.818 151.414 225.818 151.233 225.818 151.053C225.818 150.873 225.998 150.873 226.177 150.873L226.537 151.053C226.716 151.233 226.896 151.233 227.075 151.053L228.872 149.972L228.512 149.792C228.333 149.792 228.333 149.612 228.333 149.432C228.333 149.252 228.512 149.252 228.692 149.252L229.051 149.432C229.231 149.612 229.411 149.792 229.411 149.972C229.411 150.152 229.231 150.333 229.051 150.513L227.255 151.594C227.435 151.774 227.255 151.774 226.896 151.774Z" fill="#98509B"/>
<path d="M148.579 150.333V125.289L196.18 152.855V178.079L148.579 150.333Z" fill="#98509B"/>
<path d="M148.579 124.569L166.182 114.299L213.783 141.685L196.18 151.954L148.579 124.569Z" fill="#98509B"/>
<path d="M196.36 152.134L196.18 154.296L148.579 127.091V124.749L196.36 152.134Z" fill="#98509B"/>
<path d="M150.375 125.65L166.182 116.461L213.783 143.847L197.976 153.035L150.375 125.65Z" fill="#FFE1FA"/>
<path d="M214.322 141.504V168.169L196.18 178.619L148.04 150.693V124.388L166.182 113.758L214.322 141.504ZM149.118 150.152L152.531 152.134V129.793L149.118 127.812V150.152ZM187.738 172.674L191.33 174.836V151.954L187.738 149.792V172.674ZM187.019 149.612L183.427 147.45V170.151L187.019 172.313V149.612ZM182.888 147.09L179.116 144.928V167.629L182.708 169.791L182.888 147.09ZM178.397 144.567L174.805 142.405V164.926L178.397 167.088V144.567ZM174.086 142.045L170.493 139.883V162.404L174.086 164.566V142.045ZM169.775 139.523L166.182 137.541V160.062L169.775 162.224V139.523ZM165.464 137.18L161.871 135.018V157.539L165.464 159.701V137.18ZM161.153 134.658L157.56 132.496V154.837L161.153 156.999V134.658ZM156.842 132.136L153.249 129.974V152.314L156.842 154.477V132.136ZM195.641 154.477L192.049 152.495V175.376L195.641 177.538V154.477ZM195.641 152.134L148.938 125.289V126.911L195.641 153.576V152.495V152.314V152.134ZM212.885 141.685L166.182 114.839L149.477 124.568L196.18 151.233L212.885 141.685Z" fill="#16110D"/>
<path d="M214.322 143.666V142.946L195.821 153.576V154.477L205.161 149.071V173.394L205.7 173.034V148.711L214.322 143.666Z" fill="#98509B"/>
<path d="M201.389 166.548C201.209 166.548 201.03 166.548 200.85 166.368L200.491 166.187C200.311 166.187 200.311 166.007 200.311 165.827C200.311 165.647 200.491 165.647 200.671 165.647L201.03 165.827C201.209 166.007 201.389 166.007 201.569 165.827L203.365 164.926L203.006 164.746C202.826 164.746 202.826 164.566 202.826 164.386C202.826 164.206 203.006 164.206 203.185 164.206L203.545 164.386C203.724 164.566 203.904 164.746 203.904 164.926C203.904 165.106 203.724 165.287 203.545 165.467L201.748 166.548C201.928 166.548 201.569 166.548 201.389 166.548Z" fill="#98509B"/>
<path d="M207.676 162.944C207.496 162.944 207.317 162.944 207.137 162.764L206.778 162.584C206.598 162.584 206.598 162.404 206.598 162.224C206.598 162.044 206.778 162.044 206.958 162.044L207.317 162.224C207.496 162.404 207.676 162.404 207.856 162.224L209.652 161.143L209.293 160.963C209.113 160.963 209.113 160.782 209.113 160.602C209.113 160.422 209.293 160.422 209.472 160.422L209.832 160.602C210.011 160.782 210.191 160.963 210.191 161.143C210.191 161.323 210.011 161.503 209.832 161.683L208.035 162.764C208.215 162.944 207.856 162.944 207.676 162.944Z" fill="#98509B"/>
<path d="M129.359 161.503V136.64L176.96 164.025V189.249L129.359 161.503Z" fill="#98509B"/>
<path d="M129.359 135.919L146.962 125.469L194.563 153.035L176.96 163.125L129.359 135.919Z" fill="#98509B"/>
<path d="M177.14 163.305L176.96 165.467L129.359 138.261V135.919L177.14 163.305Z" fill="#98509B"/>
<path d="M131.155 137L146.962 127.631L194.563 155.197L178.756 164.206L131.155 137Z" fill="#FFE1FA"/>
<path d="M194.923 152.675V179.34L176.78 189.97L128.82 161.863V135.559L146.962 124.929L194.923 152.675ZM129.898 161.323L133.311 163.305V140.964L129.718 138.982L129.898 161.323ZM168.518 183.844L172.11 186.006V163.305L168.518 161.143V183.844ZM167.799 160.782L164.207 158.62V181.322L167.799 183.484V160.782ZM163.668 158.26L159.896 156.098V178.799L163.488 180.961L163.668 158.26ZM159.177 155.738L155.585 153.576V176.097L159.177 178.259V155.738ZM154.866 153.396L151.274 151.233V173.755L154.866 175.917V153.396ZM150.555 150.873L146.962 148.891V171.412L150.555 173.574V150.873ZM146.244 148.351L142.651 146.189V168.71L146.244 170.872V148.351ZM141.933 146.009L138.34 143.847V166.187L141.933 168.35V146.009ZM137.622 143.486L134.029 141.324V163.665L137.622 165.827V143.486ZM176.421 165.647L172.829 163.665V186.547L176.421 188.709V165.647ZM176.421 163.305L129.718 136.46V138.081L176.421 164.746V163.665V163.485V163.305ZM193.665 153.035L146.962 126.01L130.257 135.739L176.96 162.404L193.665 153.035Z" fill="#16110D"/>
<path d="M194.922 155.017V154.116L176.421 164.746V165.647L185.762 160.242V184.745L186.48 184.204V159.882L194.922 155.017Z" fill="#98509B"/>
<path d="M182.169 177.718C181.989 177.718 181.81 177.718 181.63 177.538L181.271 177.358C181.091 177.358 181.091 177.178 181.091 176.998C181.091 176.817 181.271 176.817 181.451 176.817L181.81 176.998C181.989 177.178 182.169 177.178 182.349 176.998L184.145 176.097L183.786 175.917C183.606 175.917 183.606 175.736 183.606 175.556C183.606 175.376 183.786 175.376 183.965 175.376L184.325 175.556C184.504 175.736 184.684 175.917 184.684 176.097C184.684 176.277 184.504 176.457 184.325 176.637L182.528 177.718C182.528 177.718 182.349 177.718 182.169 177.718Z" fill="#98509B"/>
<path d="M188.456 174.295C188.276 174.295 188.097 174.295 187.917 174.115L187.558 173.935C187.378 173.935 187.378 173.755 187.378 173.574C187.378 173.394 187.558 173.394 187.738 173.394L188.097 173.574C188.276 173.755 188.456 173.755 188.636 173.574L190.432 172.674L190.073 172.493C189.893 172.493 189.893 172.313 189.893 172.133C189.893 171.953 190.073 171.953 190.252 171.953L190.612 172.133C190.791 172.313 190.971 172.493 190.971 172.674C190.971 172.854 190.791 173.034 190.612 173.214L188.815 174.115C188.815 174.295 188.636 174.295 188.456 174.295Z" fill="#98509B"/>
<path d="M110.139 172.854V147.81L157.74 175.376V200.6L110.139 172.854Z" fill="#98509B"/>
<path d="M110.139 147.09L127.743 136.82L175.343 164.206L157.74 174.295L110.139 147.09Z" fill="#98509B"/>
<path d="M157.92 174.475L157.74 176.817L110.139 149.612V147.27L157.92 174.475Z" fill="#98509B"/>
<path d="M111.935 148.171L127.742 138.982L175.343 166.368L159.357 175.556L111.935 148.171Z" fill="#FFE1FA"/>
<path d="M175.703 164.025V190.69L157.56 201.32L109.6 173.034V146.909L127.743 136.279L175.703 164.025ZM110.498 172.493L113.911 174.475V152.134L110.498 150.152V172.493ZM149.298 195.195L152.89 197.357V174.475L149.298 172.313V195.195ZM148.579 171.953L144.987 169.791V192.492L148.579 194.654V171.953ZM144.448 169.611L140.676 167.449V190.15L144.268 192.312L144.448 169.611ZM139.957 167.088L136.365 164.926V187.628L139.957 189.79V167.088ZM135.646 164.566L132.054 162.404V184.925L135.646 187.087V164.566ZM131.335 162.044L127.743 160.062V182.583L131.335 184.745V162.044ZM127.024 159.701L123.432 157.539V180.061L127.024 182.223V159.701ZM122.713 157.179L119.12 155.017V177.358L122.713 179.52V157.179ZM118.222 154.657L114.63 152.495V175.016L118.222 177.178V154.657ZM157.201 176.998L153.609 175.016V197.897L157.201 200.059V176.998ZM157.201 174.655L110.498 147.81V149.432L157.201 176.097V175.016V174.836V174.655ZM174.445 164.206L127.743 137.36L111.037 147.09L157.74 173.755L174.445 164.206Z" fill="#16110D"/>
<path d="M175.703 166.187V165.287L157.201 176.097V176.998L166.542 171.593V195.915L167.26 195.555V171.052L175.703 166.187Z" fill="#98509B"/>
<path d="M162.949 189.069C162.77 189.069 162.59 189.069 162.41 188.889L162.051 188.709C161.871 188.709 161.871 188.528 161.871 188.348C161.871 188.168 162.051 188.168 162.231 188.168L162.59 188.348C162.77 188.528 162.949 188.528 163.129 188.348L164.925 187.447L164.566 187.267C164.386 187.267 164.386 187.087 164.386 186.907C164.386 186.727 164.566 186.727 164.745 186.727L165.105 186.907C165.284 187.087 165.464 187.267 165.464 187.447C165.464 187.628 165.284 187.808 165.105 187.988L163.308 189.069C163.308 189.069 163.129 189.069 162.949 189.069Z" fill="#98509B"/>
<path d="M169.236 185.466C169.057 185.466 168.877 185.466 168.697 185.285L168.338 185.105C168.158 185.105 168.158 184.925 168.158 184.745C168.158 184.565 168.338 184.565 168.518 184.565L168.877 184.745C169.057 184.925 169.236 184.925 169.416 184.745L171.212 183.844L170.853 183.664C170.673 183.664 170.673 183.484 170.673 183.304C170.673 183.123 170.853 183.123 171.032 183.123L171.392 183.304C171.571 183.484 171.751 183.664 171.751 183.844C171.751 184.024 171.571 184.204 171.392 184.385L169.595 185.466C169.595 185.466 169.416 185.466 169.236 185.466Z" fill="#98509B"/>
<path d="M90.9193 184.024V159.161L138.34 186.547V211.77L90.9193 184.024Z" fill="#98509B"/>
<path d="M90.9193 158.44L108.523 147.99L156.123 175.556L138.34 185.646L90.9193 158.44Z" fill="#98509B"/>
<path d="M138.7 185.826L138.34 187.988L90.9193 160.782V158.44L138.7 185.826Z" fill="#98509B"/>
<path d="M92.7156 159.521L108.523 150.152L156.123 177.718L140.137 186.727L92.7156 159.521Z" fill="#FFE1FA"/>
<path d="M156.483 175.196V201.861L138.34 212.491L90.3804 184.385V158.08L108.523 147.45L156.483 175.196ZM91.2785 183.844L94.6914 185.826V163.485L91.2785 161.503V183.844ZM130.078 206.365L133.67 208.527V185.826L130.078 183.664V206.365ZM129.359 183.304L125.767 181.142V203.843L129.359 206.005V183.304ZM125.048 180.781L121.276 178.619V201.32L124.868 203.482L125.048 180.781ZM120.737 178.259L117.145 176.097V198.618L120.737 200.78V178.259ZM116.426 175.917L112.834 173.755V196.276L116.426 198.438V175.917ZM111.935 173.394L108.343 171.412V193.934L111.935 196.096V173.394ZM107.804 170.872L104.212 168.71V191.231L107.804 193.393V170.872ZM103.313 168.35L99.7209 166.188V188.528L103.313 190.69V168.35ZM99.0024 166.007L95.4099 163.845V186.186L99.0024 188.348V166.007ZM137.981 188.168L134.389 186.186V209.068L137.981 211.23V188.168ZM137.981 185.826L91.2785 158.981V160.602L137.981 187.267V186.186V186.006V185.826ZM155.046 175.556L108.523 148.531L91.8174 158.26L138.52 184.925L155.046 175.556Z" fill="#16110D"/>
<path d="M156.483 177.538V176.637L137.981 187.267V188.168L147.322 182.763V207.266L148.04 206.726V182.403L156.483 177.538Z" fill="#98509B"/>
<path d="M143.729 200.239C143.55 200.239 143.37 200.239 143.19 200.059L142.831 199.879C142.652 199.879 142.651 199.699 142.651 199.519C142.651 199.339 142.831 199.339 143.011 199.339L143.37 199.519C143.55 199.699 143.729 199.699 143.909 199.519L145.705 198.438L145.346 198.258C145.166 198.258 145.166 198.077 145.166 197.897C145.166 197.717 145.346 197.717 145.526 197.717L145.885 197.897C146.064 198.077 146.244 198.258 146.244 198.438C146.244 198.618 146.064 198.798 145.885 198.978L144.089 200.059C144.089 200.239 143.909 200.239 143.729 200.239Z" fill="#98509B"/>
<path d="M150.016 196.816C149.836 196.816 149.657 196.816 149.477 196.636L149.118 196.456C148.938 196.456 148.938 196.276 148.938 196.096C148.938 195.915 149.118 195.915 149.298 195.915L149.657 196.096C149.836 196.276 150.016 196.276 150.196 196.096L151.992 195.195L151.633 195.014C151.453 195.014 151.453 194.834 151.453 194.654C151.453 194.474 151.633 194.474 151.812 194.474L152.172 194.654C152.351 194.834 152.531 195.014 152.531 195.195C152.531 195.375 152.351 195.555 152.172 195.735L150.375 196.636C150.375 196.636 150.196 196.816 150.016 196.816Z" fill="#98509B"/>
<path d="M148.579 124.388V99.525L196.18 126.911V152.134L148.579 124.388Z" fill="#98509B"/>
<path d="M148.579 98.8043L166.362 88.3546L213.783 115.92L196.18 126.01L148.579 98.8043Z" fill="#98509B"/>
<path d="M196.539 126.19L196.18 128.352L148.579 101.147V98.8043L196.539 126.19Z" fill="#98509B"/>
<path d="M150.376 99.8853L166.362 90.5165L213.783 118.082L197.976 127.091L150.376 99.8853Z" fill="#FFE1FA"/>
<path d="M214.322 115.56V142.225L196.18 152.675L148.22 124.749V98.444L166.362 87.814L214.322 115.56ZM149.118 124.208L152.531 126.19V103.849L149.118 101.867V124.208ZM187.738 146.729L191.33 148.891V126.19L187.738 124.028V146.729ZM187.199 123.668L183.606 121.506V144.207L187.199 146.369V123.668ZM182.888 121.145L179.116 119.163V141.865L182.708 144.027L182.888 121.145ZM178.397 118.623L174.805 116.461V138.982L178.397 141.144V118.623ZM174.086 116.281L170.494 114.119V136.64L174.086 138.802V116.281ZM169.775 113.758L166.183 111.776V134.298L169.775 136.46V113.758ZM165.464 111.236L161.872 109.074V131.595L165.464 133.757V111.236ZM161.153 108.714L157.561 106.552V128.893L161.153 131.055V108.714ZM156.842 106.371L153.25 104.209V126.55L156.842 128.712V106.371ZM195.821 128.532L192.228 126.55V149.432L195.821 151.594V128.532ZM195.821 126.19L149.118 99.3448V100.966L195.821 127.631V126.55V126.37V126.19ZM212.885 115.92L166.362 88.895L149.657 98.6242L196.36 125.289L212.885 115.92Z" fill="#16110D"/>
<path d="M214.322 117.902V117.001L195.821 127.631V128.532L205.161 123.127V147.63L205.88 147.09V122.767L214.322 117.902Z" fill="#98509B"/>
<path d="M201.569 140.603C201.389 140.603 201.21 140.603 201.03 140.423L200.671 140.243C200.491 140.243 200.491 140.063 200.491 139.883C200.491 139.703 200.671 139.703 200.85 139.703L201.21 139.883C201.389 140.063 201.569 140.063 201.748 139.883L203.545 138.802L203.185 138.622C203.006 138.622 203.006 138.441 203.006 138.261C203.006 138.081 203.185 138.081 203.365 138.081L203.724 138.261C203.904 138.441 204.084 138.622 204.084 138.802C204.084 138.982 203.904 139.162 203.724 139.342L201.928 140.423C201.928 140.603 201.748 140.603 201.569 140.603Z" fill="#98509B"/>
<path d="M207.856 137.18C207.676 137.18 207.497 137.18 207.317 137L206.958 136.82C206.778 136.82 206.778 136.64 206.778 136.46C206.778 136.279 206.958 136.279 207.137 136.279L207.497 136.46C207.676 136.64 207.856 136.64 208.035 136.46L209.832 135.559L209.472 135.379C209.293 135.379 209.293 135.198 209.293 135.018C209.293 134.838 209.472 134.838 209.652 134.838L210.011 135.018C210.191 135.198 210.371 135.379 210.371 135.559C210.371 135.739 210.191 135.919 210.011 136.099L208.215 137C208.215 137.18 208.035 137.18 207.856 137.18Z" fill="#98509B"/>
<path d="M201.03 112.677L191.689 107.272L182.349 112.677V115.38L191.689 120.785V118.082L201.03 112.677Z" fill="#98509B"/>
<path d="M201.389 112.497V112.857V115.56L191.689 121.145L191.33 120.965L181.99 115.56V112.857V112.497L191.689 106.912L201.03 112.317L201.389 112.497ZM191.689 107.633L183.067 112.677L191.689 117.722L200.311 112.677L191.689 107.633ZM191.33 120.064V118.263L186.301 115.38L182.708 113.218V115.02L191.33 120.064Z" fill="#16110D"/>
<path d="M196.719 113.218L191.689 116.101L186.839 113.218L191.689 110.515L196.719 113.218Z" fill="#FFE1FA"/>
<path d="M198.156 112.677L191.689 108.894L185.223 112.677L191.689 116.461L198.156 112.677ZM191.689 109.795L196.898 112.858L191.689 115.92L186.48 112.858L191.689 109.795Z" fill="#16110D"/>
<path d="M71.5197 195.375V170.331L119.12 197.717V223.121L71.5197 195.375Z" fill="#98509B"/>
<path d="M71.5197 169.611L89.3026 159.341L136.724 186.727L119.12 196.816L71.5197 169.611Z" fill="#98509B"/>
<path d="M119.48 196.996L119.12 199.339L71.5197 172.133V169.791L119.48 196.996Z" fill="#98509B"/>
<path d="M73.3159 170.692L89.3026 161.503L136.724 188.889L120.917 197.897L73.3159 170.692Z" fill="#FFE1FA"/>
<path d="M137.263 186.547V213.212L119.12 223.661L71.1604 195.555V169.431L89.3026 158.801L137.263 186.547ZM72.0585 195.015L75.4714 196.996V174.655L72.0585 172.674V195.015ZM110.678 217.716L114.271 219.878V197.177L110.678 195.015V217.716ZM110.139 194.474L106.547 192.312V215.013L110.139 217.175V194.474ZM105.828 192.132L102.056 189.97V212.671L105.649 214.833L105.828 192.132ZM101.338 189.609L97.745 187.447V209.969L101.338 212.131V189.609ZM97.0265 187.087L93.434 184.925V207.446L97.0265 209.608V187.087ZM92.7155 184.565L89.123 182.583V205.104L92.7155 207.266V184.565ZM88.4045 182.223L84.8119 180.061V202.582L88.4045 204.744V182.223ZM84.0934 179.7L80.5009 177.538V199.879L84.0934 202.041V179.7ZM79.7824 177.178L76.1899 175.016V197.357L79.7824 199.519V177.178ZM118.761 199.519L115.169 197.537V220.418L118.761 222.58V199.519ZM118.761 197.177L72.0585 170.331V171.953L118.761 198.618V197.537V197.357V197.177ZM135.826 186.727L89.3026 159.882L72.5974 169.611L119.3 196.276L135.826 186.727Z" fill="#16110D"/>
<path d="M137.263 188.709V187.808L118.761 198.618V199.339L128.102 194.114V218.436L128.82 218.076V193.573L137.263 188.709Z" fill="#98509B"/>
<path d="M124.509 211.59C124.33 211.59 124.15 211.59 123.97 211.41L123.611 211.23C123.432 211.23 123.432 211.05 123.432 210.869C123.432 210.689 123.611 210.689 123.791 210.689L124.15 210.869C124.33 211.05 124.509 211.05 124.689 210.869L126.485 209.969L126.126 209.788C125.946 209.788 125.946 209.608 125.946 209.428C125.946 209.248 126.126 209.248 126.306 209.248L126.665 209.428C126.844 209.608 127.024 209.788 127.024 209.969C127.024 210.149 126.844 210.329 126.665 210.509L124.869 211.59C124.869 211.41 124.689 211.59 124.509 211.59Z" fill="#98509B"/>
<path d="M130.796 207.987C130.617 207.987 130.437 207.987 130.257 207.806L129.898 207.626C129.718 207.626 129.718 207.446 129.718 207.266C129.718 207.086 129.898 207.086 130.078 207.086L130.437 207.266C130.617 207.446 130.796 207.446 130.976 207.266L132.772 206.185L132.413 206.005C132.233 206.005 132.233 205.825 132.233 205.644C132.233 205.464 132.413 205.464 132.592 205.464L132.952 205.644C133.131 205.825 133.311 206.005 133.311 206.185C133.311 206.365 133.131 206.545 132.952 206.725L131.155 207.626C131.155 207.987 130.976 207.987 130.796 207.987Z" fill="#98509B"/>
<path d="M98.6431 168.53L89.3026 163.125L79.962 168.53V171.232L89.3026 176.457V173.935L98.6431 168.53Z" fill="#98509B"/>
<path d="M99.0023 168.35V168.71V171.412L89.3026 176.998L88.9433 176.817L79.6028 171.412V168.71V168.35L89.3026 162.764L98.6431 168.169L99.0023 168.35ZM89.3026 163.485L80.6805 168.53L89.3026 173.574L97.9246 168.53L89.3026 163.485ZM88.9433 175.917V174.115L83.9138 171.232L80.3213 169.07V170.872L88.9433 175.917Z" fill="#16110D"/>
<path d="M94.1525 169.07L89.3026 171.953L84.2731 169.07L89.3026 166.187L94.1525 169.07Z" fill="#FFE1FA"/>
<path d="M95.7691 168.53L89.3026 164.746L82.8361 168.53L89.3026 172.313L95.7691 168.53ZM89.3026 165.647L94.5117 168.71L89.3026 171.773L84.0934 168.71L89.3026 165.647Z" fill="#16110D"/>
<path d="M52.2998 206.545V181.682L99.9006 209.068V234.291L52.2998 206.545Z" fill="#98509B"/>
<path d="M52.2998 180.961L70.0827 170.512L117.504 198.077L99.9006 208.167L52.2998 180.961Z" fill="#98509B"/>
<path d="M100.08 208.347L99.9006 210.509L52.2998 183.303V180.961L100.08 208.347Z" fill="#98509B"/>
<path d="M54.0961 182.042L70.0827 172.674L117.504 200.239L101.697 209.248L54.0961 182.042Z" fill="#FFE1FA"/>
<path d="M118.043 197.717V224.382L99.9006 235.012L51.9406 206.906V180.601L70.0827 169.971L118.043 197.717ZM52.8387 206.365L56.2516 208.347V186.006L52.8387 184.024V206.365ZM91.4582 228.886L95.0507 231.048V208.347L91.4582 206.185V228.886ZM90.9193 205.825L87.3268 203.663V226.364L90.9193 228.526V205.825ZM86.6083 203.302L82.8362 201.14V223.842L86.4287 226.004L86.6083 203.302ZM82.1177 200.78L78.5251 198.618V221.139L82.1177 223.301V200.78ZM77.8066 198.438L74.2141 196.276V218.797L77.8066 220.959V198.438ZM73.4956 195.915L69.9031 193.934V216.455L73.4956 218.617V195.915ZM69.1846 193.393L65.5921 191.231V213.752L69.1846 215.914V193.393ZM64.8736 190.871L61.2811 188.709V211.05L64.8736 213.212V190.871ZM60.5626 188.528L56.9701 186.366V208.707L60.5626 210.869V188.528ZM99.3617 210.689L95.7692 208.707V231.589L99.3617 233.751V210.689ZM99.3617 208.347L52.6591 181.502V183.123L99.3617 209.788V208.707V208.527V208.347ZM116.606 198.077L70.0827 171.052L53.3776 180.781L100.08 207.446L116.606 198.077Z" fill="#16110D"/>
<path d="M118.043 200.059V199.158L99.5413 209.788V210.689L108.882 205.284V229.607L109.6 229.247V204.924L118.043 200.059Z" fill="#98509B"/>
<path d="M105.289 222.761C105.11 222.761 104.93 222.761 104.75 222.58L104.391 222.4C104.212 222.4 104.212 222.22 104.212 222.04C104.212 221.86 104.391 221.86 104.571 221.86L104.93 222.04C105.11 222.22 105.289 222.22 105.469 222.04L107.265 221.139L106.906 220.959C106.726 220.959 106.726 220.779 106.726 220.599C106.726 220.418 106.906 220.418 107.086 220.418L107.445 220.599C107.624 220.779 107.804 220.959 107.804 221.139C107.804 221.319 107.624 221.499 107.445 221.68L105.649 222.761C105.649 222.761 105.469 222.761 105.289 222.761Z" fill="#98509B"/>
<path d="M111.576 219.337C111.397 219.337 111.217 219.337 111.037 219.157L110.678 218.977C110.499 218.977 110.499 218.797 110.499 218.617C110.499 218.436 110.678 218.436 110.858 218.436L111.217 218.617C111.397 218.797 111.576 218.797 111.756 218.617L113.552 217.536L113.193 217.355C113.013 217.355 113.013 217.175 113.013 216.995C113.013 216.815 113.193 216.815 113.373 216.815L113.732 216.995C113.911 217.175 114.091 217.355 114.091 217.536C114.091 217.716 113.911 217.896 113.732 218.076L111.936 219.157C111.936 219.157 111.756 219.337 111.576 219.337Z" fill="#98509B"/>
<path d="M129.359 135.739V110.695L176.96 138.261V163.485L129.359 135.739Z" fill="#98509B"/>
<path d="M129.359 109.975L147.142 99.7052L194.563 127.091L176.96 137.18L129.359 109.975Z" fill="#98509B"/>
<path d="M177.14 137.36L176.96 139.703L129.359 112.497V110.155L177.14 137.36Z" fill="#98509B"/>
<path d="M131.155 111.056L147.142 101.867L194.563 129.253L178.756 138.442L131.155 111.056Z" fill="#FFE1FA"/>
<path d="M195.102 126.911V153.395L176.96 164.025L129 135.919V109.795L147.142 99.1647L195.102 126.911ZM129.898 135.379L133.311 137.36V115.02L129.898 113.038V135.379ZM168.518 158.08L172.11 160.242V137.36L168.518 135.198V158.08ZM167.979 134.838L164.386 132.676V155.377L167.979 157.539V134.838ZM163.668 132.496L159.895 130.334V153.035L163.488 155.197L163.668 132.496ZM159.177 129.974L155.584 127.812V150.333L159.177 152.495V129.974ZM154.866 127.451L151.273 125.289V147.99L154.866 150.152V127.451ZM150.555 124.929L146.962 122.947V145.468L150.555 147.63V124.929ZM146.244 122.587L142.651 120.425V142.946L146.244 145.108V122.587ZM141.933 120.064L138.34 117.902V140.243L141.933 142.405V120.064ZM137.622 117.542L134.029 115.38V137.721L137.622 139.883V117.542ZM176.421 139.883L172.829 137.901V160.602L176.421 162.764V139.883ZM176.421 137.541L129.718 110.695V112.317L176.421 138.982V137.901V137.721V137.541ZM193.665 127.091L147.142 100.246L130.437 109.975L177.14 136.64L193.665 127.091Z" fill="#16110D"/>
<path d="M195.102 129.073V128.172L176.601 138.982V139.883L185.941 134.478V158.801L186.66 158.44V133.937L195.102 129.073Z" fill="#98509B"/>
<path d="M182.349 151.954C182.169 151.954 181.99 151.954 181.81 151.774L181.451 151.594C181.271 151.594 181.271 151.414 181.271 151.234C181.271 151.053 181.451 151.053 181.63 151.053L181.99 151.234C182.169 151.414 182.349 151.414 182.528 151.234L184.325 150.333L183.965 150.152C183.786 150.152 183.786 149.972 183.786 149.792C183.786 149.612 183.965 149.612 184.145 149.612L184.504 149.792C184.684 149.972 184.864 150.153 184.864 150.333C184.864 150.513 184.684 150.693 184.504 150.873L182.708 151.774C182.708 151.954 182.528 151.954 182.349 151.954Z" fill="#98509B"/>
<path d="M188.636 148.351C188.456 148.351 188.276 148.351 188.097 148.171L187.737 147.99C187.558 147.99 187.558 147.81 187.558 147.63C187.558 147.45 187.737 147.45 187.917 147.45L188.276 147.63C188.456 147.81 188.636 147.81 188.815 147.63L190.612 146.729L190.252 146.549C190.073 146.549 190.073 146.369 190.073 146.189C190.073 146.009 190.252 146.009 190.432 146.009L190.791 146.189C190.971 146.369 191.15 146.549 191.15 146.729C191.15 146.909 190.971 147.09 190.791 147.27L188.995 148.351C188.995 148.351 188.815 148.351 188.636 148.351Z" fill="#98509B"/>
<path d="M156.483 108.894L147.142 103.489L137.802 108.894V111.416L147.142 116.821V114.119L156.483 108.894Z" fill="#98509B"/>
<path d="M156.662 108.533V108.894V111.596L146.962 117.182L146.603 117.001L137.263 111.596V108.894V108.533L146.962 102.948L156.303 108.353L156.662 108.533ZM147.142 103.849L138.52 108.894L147.142 113.938L155.764 108.894L147.142 103.849ZM146.783 116.281V114.479L141.753 111.596L138.161 109.434V111.236L146.783 116.281Z" fill="#16110D"/>
<path d="M151.992 109.434L147.142 112.137L142.113 109.434L147.142 106.552L151.992 109.434Z" fill="#FFE1FA"/>
<path d="M153.609 108.894L147.142 105.11L140.496 108.894L146.962 112.677L153.609 108.894ZM147.142 105.831L152.351 108.894L147.142 111.957L141.933 108.894L147.142 105.831Z" fill="#16110D"/>
<path d="M110.139 146.909V122.046L157.74 149.432V174.655L110.139 146.909Z" fill="#98509B"/>
<path d="M110.139 121.325L127.922 110.876L175.343 138.441L157.74 148.531L110.139 121.325Z" fill="#98509B"/>
<path d="M157.92 148.711L157.74 150.873L110.139 123.668V121.326L157.92 148.711Z" fill="#98509B"/>
<path d="M111.935 122.407L127.922 113.038L175.343 140.604L159.536 149.612L111.935 122.407Z" fill="#FFE1FA"/>
<path d="M175.882 138.081V164.746L157.74 175.376L109.78 147.27V120.965L127.922 110.335L175.882 138.081ZM110.678 146.729L114.091 148.711V126.37L110.678 124.388V146.729ZM149.298 169.25L152.89 171.412V148.711L149.298 146.549V169.25ZM148.579 146.189L144.987 144.027V166.728L148.579 168.89V146.189ZM144.448 143.666L140.676 141.504V164.206L144.268 166.368L144.448 143.666ZM139.957 141.144L136.364 138.982V161.503L139.957 163.665V141.144ZM135.646 138.802L132.053 136.64V159.161L135.646 161.323V138.802ZM131.335 136.28L127.742 134.298V156.819L131.335 158.981V136.28ZM127.024 133.757L123.431 131.595V154.116L127.024 156.278V133.757ZM122.713 131.235L119.12 129.073V151.594L122.713 153.756V131.235ZM118.402 128.893L114.809 126.731V149.071L118.402 151.234V128.893ZM157.201 151.053L153.609 149.071V171.953L157.201 174.115V151.053ZM157.201 148.711L110.498 121.866V123.488L157.201 150.153V149.071V148.891V148.711ZM174.445 138.442L127.922 111.416L111.217 121.145L157.92 147.81L174.445 138.442Z" fill="#16110D"/>
<path d="M175.882 140.423V139.523L157.381 150.152V151.053L166.721 145.648V170.151L167.26 169.611V145.288L175.882 140.423Z" fill="#98509B"/>
<path d="M162.949 163.125C162.77 163.125 162.59 163.125 162.41 162.945L162.051 162.764C162.051 162.764 162.051 162.584 162.051 162.404C162.051 162.224 162.231 162.224 162.41 162.224L162.77 162.404C162.949 162.584 163.129 162.584 163.308 162.404L165.105 161.503L164.745 161.323C164.566 161.323 164.566 161.143 164.566 160.963C164.566 160.782 164.745 160.782 164.925 160.782L165.284 160.963C165.464 161.143 165.644 161.323 165.644 161.503C165.644 161.683 165.464 161.863 165.284 162.044L163.488 163.125C163.488 163.125 163.308 163.125 162.949 163.125Z" fill="#98509B"/>
<path d="M169.236 159.701C169.056 159.701 168.877 159.701 168.697 159.521L168.338 159.341C168.158 159.341 168.158 159.161 168.158 158.981C168.158 158.801 168.338 158.801 168.517 158.801L168.877 158.981C169.056 159.161 169.236 159.161 169.416 158.981L171.212 157.9L170.853 157.72C170.673 157.72 170.673 157.539 170.673 157.359C170.673 157.179 170.853 157.179 171.032 157.179L171.391 157.359C171.571 157.539 171.751 157.72 171.751 157.9C171.751 158.08 171.571 158.26 171.391 158.44L169.595 159.521C169.775 159.521 169.595 159.701 169.236 159.701Z" fill="#98509B"/>
<path d="M90.9193 158.26V133.217L138.52 160.602V186.006L90.9193 158.26Z" fill="#98509B"/>
<path d="M90.9193 132.496L108.523 122.226L156.123 149.612L138.52 159.701L90.9193 132.496Z" fill="#98509B"/>
<path d="M138.7 159.882L138.52 162.224L90.9193 135.018V132.676L138.7 159.882Z" fill="#98509B"/>
<path d="M92.536 133.577L108.523 124.388L156.123 151.774L140.137 160.782L92.536 133.577Z" fill="#FFE1FA"/>
<path d="M156.483 149.432V176.097L138.34 186.727L90.3804 158.44V132.136L108.523 121.506L156.483 149.432ZM91.2785 157.9L94.6914 159.882V137.541L91.2785 135.559V157.9ZM130.078 180.601L133.67 182.763V159.882L130.078 157.72V180.601ZM129.359 157.359L125.767 155.197V177.898L129.359 180.06V157.359ZM125.228 155.017L121.456 152.855V175.556L125.048 177.718L125.228 155.017ZM120.737 152.495L117.145 150.333V172.854L120.737 175.016V152.495ZM116.426 149.972L112.834 147.81V170.331L116.426 172.493V149.972ZM112.115 147.45L108.523 145.468V167.989L112.115 170.151V147.45ZM107.804 145.108L104.212 142.946V165.467L107.804 167.629V145.108ZM103.493 142.585L99.9005 140.423V162.764L103.493 164.926V142.585ZM99.0024 140.063L95.4099 137.901V160.242L99.0024 162.404V140.063ZM137.981 162.404L134.389 160.422V183.304L137.981 185.466V162.404ZM137.981 160.062L91.2785 133.217V134.838L137.981 161.503V160.422V160.242V160.062ZM155.225 149.612L108.523 122.767L91.8174 132.496L138.52 159.161L155.225 149.612Z" fill="#16110D"/>
<path d="M156.483 151.594V150.693L137.981 161.503V162.224L147.322 156.819V181.322L148.04 180.961V156.458L156.483 151.594Z" fill="#98509B"/>
<path d="M143.729 174.475C143.55 174.475 143.37 174.475 143.19 174.295L142.831 174.115C142.652 174.115 142.651 173.935 142.651 173.755C142.651 173.574 142.831 173.574 143.011 173.574L143.37 173.755C143.55 173.935 143.729 173.935 143.909 173.755L145.705 172.854L145.346 172.674C145.166 172.674 145.166 172.493 145.166 172.313C145.166 172.133 145.346 172.133 145.526 172.133L145.885 172.313C146.064 172.493 146.244 172.674 146.244 172.854C146.244 173.034 146.064 173.214 145.885 173.394L144.089 174.295C144.089 174.295 143.909 174.475 143.729 174.475Z" fill="#98509B"/>
<path d="M150.016 170.872C149.836 170.872 149.657 170.872 149.477 170.692L149.118 170.512C148.938 170.512 148.938 170.331 148.938 170.151C148.938 169.971 149.118 169.971 149.298 169.971L149.657 170.151C149.836 170.331 150.016 170.331 150.196 170.151L151.992 169.25L151.633 169.07C151.453 169.07 151.453 168.89 151.453 168.71C151.453 168.53 151.633 168.53 151.812 168.53L152.172 168.71C152.351 168.89 152.531 169.07 152.531 169.25C152.531 169.431 152.351 169.611 152.172 169.791L150.375 170.872C150.375 170.872 150.196 170.872 150.016 170.872Z" fill="#98509B"/>
<path d="M143.909 146.729L134.568 141.324L125.228 146.729V149.252L134.568 154.657V152.134L143.909 146.729Z" fill="#98509B"/>
<path d="M144.268 146.549V146.909V149.612L134.568 155.197L134.209 155.017L124.869 149.612V146.909V146.549L134.568 140.964L143.909 146.369L144.268 146.549ZM134.568 141.685L125.946 146.729L134.568 151.774L143.19 146.729L134.568 141.685ZM134.209 154.116V152.315L129.18 149.432L125.587 147.27V149.071L134.209 154.116Z" fill="#16110D"/>
<path d="M139.418 147.27L134.568 149.972L129.539 147.27L134.568 144.387L139.418 147.27Z" fill="#FFE1FA"/>
<path d="M141.035 146.729L134.568 142.946L128.102 146.729L134.568 150.513L141.035 146.729ZM134.568 143.666L139.777 146.729L134.568 149.792L129.359 146.729L134.568 143.666Z" fill="#16110D"/>
</svg>
