<?xml version="1.0" encoding="utf-8"?>
<!-- Generator: Adobe Illustrator 18.0.0, SVG Export Plug-In . SVG Version: 6.00 Build 0)  -->
<!DOCTYPE svg PUBLIC "-//W3C//DTD SVG 1.1//EN" "http://www.w3.org/Graphics/SVG/1.1/DTD/svg11.dtd">
<svg version="1.1" id="Слой_1" xmlns="http://www.w3.org/2000/svg" xmlns:xlink="http://www.w3.org/1999/xlink" x="0px" y="0px"
	 viewBox="0 0 27 30" width='27' height='30' enable-background="new 0 0 27 30" xml:space="preserve">
<path fill="none" stroke="#000000" stroke-width="1.5" d="M10.6,9.6h-3c-0.7,0-1.4,0.3-1.9,0.8c-0.5,0.4-0.8,1.1-0.8,1.9v2.8
	c0,7.7,6.2,13.9,13.7,13.9h2.7c0.7,0,1.4-0.3,1.9-0.8c0.5-0.6,0.8-1.3,0.8-1.9v-1.9c0-0.3-0.1-0.6-0.1-0.7c-0.1-0.3-0.3-0.4-0.5-0.6
	l-3.4-1.7c-0.1-0.1-0.4-0.1-0.5-0.1c-0.1,0-0.4,0-0.5,0.1c-0.1,0.1-0.4,0.1-0.4,0.3c-0.1,0.1-0.3,0.3-0.3,0.6l-0.4,1.3
	c-0.1,0.4-0.4,0.7-0.7,1c-0.4,0.1-0.8,0.3-1.1,0.1c-1.6-0.3-3-1.1-4.2-2.4c-1.4-1.1-2.2-2.6-2.5-4.3c-0.1-0.4,0-0.8,0.1-1.1
	c0.3-0.4,0.5-0.7,1-0.8l1.5-0.6c0.3-0.1,0.5-0.3,0.8-0.7c0.1-0.3,0.3-0.7,0.1-1l-1-3.2c0-0.3-0.1-0.6-0.4-0.7
	C11.1,9.6,10.9,9.6,10.6,9.6z"/>
</svg>
