<svg width="29" height="28" viewBox="0 0 29 28" fill="none" xmlns="http://www.w3.org/2000/svg">
<path d="M14.3992 27.1131C21.3619 27.1131 27.0059 21.3718 27.0059 14.2891C27.0059 7.2064 21.3619 1.46509 14.3992 1.46509C7.43654 1.46509 1.79254 7.2064 1.79254 14.2891C1.79254 21.3718 7.43654 27.1131 14.3992 27.1131Z" stroke="white" stroke-width="2" stroke-linecap="round" stroke-linejoin="round"/>
<path d="M19.8311 8.95488L8.34074 13.4087C7.87835 13.6162 7.72196 14.0315 8.22898 14.2569L11.1768 15.1986L18.3041 10.7709C18.6933 10.493 19.0917 10.5671 18.7489 10.8729L12.6274 16.4441L12.4351 18.8018C12.6132 19.1658 12.9393 19.1675 13.1474 18.9866L14.841 17.3758L17.7415 19.559C18.4152 19.9599 18.7817 19.7012 18.9267 18.9664L20.8292 9.91131C21.0267 9.00686 20.6898 8.60835 19.8311 8.95488Z" fill="white"/>
</svg>
