<svg width="240" height="175" viewBox="0 0 240 175" fill="none" xmlns="http://www.w3.org/2000/svg">
<path d="M8.48975 150.641L0.931641 146.109V144.598L6.37348 146.109L8.79208 147.317L8.48975 150.641Z" fill="#98509B"/>
<path d="M8.79209 147.619L15.4432 142.785L13.0246 141.274L6.07117 145.806L8.79209 147.619Z" fill="#98509B"/>
<path d="M0.931519 144.598L7.88498 140.066L13.0245 141.274L6.07103 145.807L0.931519 144.598Z" fill="#98509B"/>
<path d="M13.0245 143.087L7.58263 141.879L2.44312 145.202L7.58263 146.713L8.79193 147.317L14.2338 143.994L13.0245 143.087Z" fill="#FFE1FA"/>
<path d="M13.3271 140.67L7.88526 139.461L0.327148 144.296V146.713L9.09456 151.849L9.39688 147.922L16.6527 143.087L13.3271 140.67ZM7.88526 149.734L1.53645 145.807V145.202L6.07131 146.411L7.88526 147.619L8.18758 147.922L7.88526 149.734ZM8.79223 146.713L7.28061 145.807L6.07131 145.202L2.44342 144.296L7.88526 140.67L11.5132 141.576L13.0248 142.181L14.5364 143.087L8.79223 146.713Z" fill="#16110D"/>
<path d="M25.1179 141.274L17.5598 136.742V135.231L22.6993 136.742L25.1179 138.253V141.274Z" fill="#98509B"/>
<path d="M25.1178 138.253L32.0713 133.72L29.6527 131.908L22.6992 136.44L25.1178 138.253Z" fill="#98509B"/>
<path d="M17.5597 135.231L24.2108 130.699L29.6527 131.908L22.6992 136.44L17.5597 135.231Z" fill="#98509B"/>
<path d="M29.3504 133.721L24.2109 132.512L19.0714 135.836L24.2109 137.346L25.4202 137.951L30.5597 134.627L29.3504 133.721Z" fill="#FFE1FA"/>
<path d="M29.6527 131.303L24.2109 130.095L16.9551 134.929V137.346L25.7225 142.483L26.0248 138.555L33.2806 133.721L29.6527 131.303ZM24.5132 140.368L18.1644 136.44V135.836L22.6992 137.044L24.5132 138.253V138.555V140.368ZM25.1178 137.346L23.6062 136.44L22.3969 135.836L18.769 134.929L24.5132 131.303L28.1411 132.21L29.6527 132.512L31.1643 133.418L25.1178 137.346Z" fill="#16110D"/>
<path d="M41.7456 131.908L33.8851 127.375L34.1875 125.865L39.327 127.375L41.7456 128.584V131.908Z" fill="#98509B"/>
<path d="M41.7455 128.584L48.699 124.052L45.978 122.541L39.3269 127.073L41.7455 128.584Z" fill="#98509B"/>
<path d="M34.1875 125.865L40.8386 121.332L45.9782 122.541L39.327 127.073L34.1875 125.865Z" fill="#98509B"/>
<path d="M45.9781 124.354L40.8386 123.145L35.3967 126.469L40.5362 127.98L41.7455 128.584L47.1874 124.958L45.9781 124.354Z" fill="#FFE1FA"/>
<path d="M46.2805 121.937L40.8387 120.728L33.5829 125.26V127.678L42.3503 132.814L42.6526 128.886L49.9084 124.052L46.2805 121.937ZM41.141 131.001L34.4899 127.073V126.469L39.0247 127.678L40.8387 128.886L41.141 129.188V131.001ZM41.7456 127.98L40.234 127.073L39.0247 126.469L35.3968 125.563L40.8387 121.937L44.4666 122.843L45.9782 123.145L47.4898 124.052L41.7456 127.98Z" fill="#16110D"/>
<path d="M58.0711 122.541L50.5129 118.009V116.196L55.9548 117.707L58.3734 119.217L58.0711 122.541Z" fill="#98509B"/>
<path d="M58.3734 119.217L65.0245 114.685L62.6059 113.174L55.6525 117.707L58.3734 119.217Z" fill="#98509B"/>
<path d="M50.5129 116.196L57.4664 111.966L62.6059 113.174L55.6525 117.707L50.5129 116.196Z" fill="#98509B"/>
<path d="M62.6059 114.987L57.164 113.779L52.0245 117.102L57.164 118.311L58.3733 119.217L63.8152 115.592L62.6059 114.987Z" fill="#FFE1FA"/>
<path d="M62.9083 112.57L57.4665 111.362L50.2107 116.196V118.613L58.9781 123.75L59.2804 119.822L66.5362 114.987L62.9083 112.57ZM57.4665 121.333L51.1177 117.405V116.8L55.6525 118.009L57.4665 119.217L57.7688 119.52L57.4665 121.333ZM58.3735 118.613L56.8618 117.707L55.6525 117.102L52.0246 116.196L57.4665 112.57L61.0944 113.477L62.606 113.779L64.1176 114.685L58.3735 118.613Z" fill="#16110D"/>
<path d="M74.6991 112.872L67.141 108.34V106.829L72.2805 108.34L74.6991 109.851V112.872Z" fill="#98509B"/>
<path d="M74.6991 109.851L81.6526 105.319L79.234 103.506L72.2805 108.038L74.6991 109.851Z" fill="#98509B"/>
<path d="M67.141 106.829L73.7921 102.297L79.234 103.506L72.2805 108.038L67.141 106.829Z" fill="#98509B"/>
<path d="M78.9316 105.318L73.7921 104.11L68.6526 107.433L73.7921 108.944L75.0014 109.549L80.1409 106.225L78.9316 105.318Z" fill="#FFE1FA"/>
<path d="M79.2339 102.901L73.792 101.693L66.5363 106.527V108.944L75.3037 114.081L75.606 110.153L82.8618 105.319L79.2339 102.901ZM74.0944 111.966L67.7456 108.038V107.434L72.2804 108.642L74.0944 109.851L74.3967 110.153L74.0944 111.966ZM74.699 108.944L73.1874 108.038L71.9781 107.434L68.3502 106.527L73.792 102.901L77.4199 103.808L78.9316 104.11L80.4432 105.016L74.699 108.944Z" fill="#16110D"/>
<path d="M91.327 103.808L83.4666 99.2755V97.4626L88.9084 98.9734L91.327 100.484V103.808Z" fill="#98509B"/>
<path d="M91.3269 100.484L97.9781 95.9519L95.5595 94.4411L88.9083 98.9733L91.3269 100.484Z" fill="#98509B"/>
<path d="M83.4666 97.4626L90.42 93.2325L95.5595 94.4411L88.9084 98.9733L83.4666 97.4626Z" fill="#98509B"/>
<path d="M95.5595 96.254L90.42 95.0454L84.9781 98.3691L90.1177 99.5777L91.327 100.484L96.7688 96.8583L95.5595 96.254Z" fill="#FFE1FA"/>
<path d="M95.8617 93.8368L90.4198 92.6282L83.1641 97.4626V99.8798L91.9315 105.016L92.2338 101.088L99.4896 96.254L95.8617 93.8368ZM90.7222 102.599L84.3734 98.6712V98.0669L88.9082 99.2755L90.7222 100.484L91.0245 100.786L90.7222 102.599ZM91.3268 99.8798L89.8152 98.9734L88.6059 98.3691L84.978 97.1605L90.4198 93.5347L94.0477 94.4411L95.5594 94.7433L97.071 95.6497L91.3268 99.8798Z" fill="#16110D"/>
<path d="M107.652 94.139L100.094 89.6068V88.096L105.536 89.6068L107.955 91.1175L107.652 94.139Z" fill="#98509B"/>
<path d="M107.955 91.1175L114.606 86.5852L112.187 84.7723L105.234 89.3046L107.955 91.1175Z" fill="#98509B"/>
<path d="M100.094 88.096L106.745 83.5637L112.187 84.7723L105.234 89.3046L100.094 88.096Z" fill="#98509B"/>
<path d="M112.187 86.5852L106.745 85.3766L101.606 88.7003L106.745 90.211L107.955 90.8153L113.396 87.4917L112.187 86.5852Z" fill="#FFE1FA"/>
<path d="M112.489 84.1681L107.048 82.9595L99.4895 87.7939V90.2111L108.257 95.3476L108.559 91.4197L115.815 86.5853L112.489 84.1681ZM107.048 93.2326L100.699 89.3046V88.7003L105.234 89.9089L107.048 91.1175L107.35 91.4197L107.048 93.2326ZM107.955 90.2111L106.443 89.3046L105.234 88.7003L101.606 87.7939L107.048 84.1681L110.676 85.0745L112.187 85.3767L113.699 86.2831L107.955 90.2111Z" fill="#16110D"/>
<path d="M124.28 84.7722L116.722 80.24V78.7292L121.861 80.24L124.28 81.4486V84.7722Z" fill="#98509B"/>
<path d="M124.28 81.4486L131.234 76.9163L128.513 75.4056L121.862 79.9378L124.28 81.4486Z" fill="#98509B"/>
<path d="M116.722 78.7293L123.373 74.1971L128.513 75.4057L121.861 79.9379L116.722 78.7293Z" fill="#98509B"/>
<path d="M128.513 77.2185L123.373 76.0099L117.931 79.3336L123.373 80.8443L124.582 81.4486L129.722 77.8228L128.513 77.2185Z" fill="#FFE1FA"/>
<path d="M128.815 74.8014L123.373 73.5928L116.117 78.4272V80.8444L124.885 85.9809L125.187 82.053L132.443 77.2186L128.815 74.8014ZM123.676 83.8659L117.327 79.9379V79.3336L121.862 80.5422L123.676 81.7508L123.978 82.053L123.676 83.8659ZM124.28 80.8444L122.769 79.9379L121.559 79.3336L118.234 78.4272L123.676 74.8014L127.303 75.7078L128.815 76.01L130.327 76.9164L124.28 80.8444Z" fill="#16110D"/>
<path d="M140.606 75.4057L133.048 70.8734V69.0605L138.489 70.5713L140.908 72.082L140.606 75.4057Z" fill="#98509B"/>
<path d="M140.908 72.082L147.559 67.5498L145.141 66.0391L138.49 70.5713L140.908 72.082Z" fill="#98509B"/>
<path d="M133.048 69.0606L140.001 64.8305L145.141 66.0391L138.489 70.5713L133.048 69.0606Z" fill="#98509B"/>
<path d="M145.141 67.852L140.001 66.6434L134.559 69.967L139.699 71.1756L140.908 72.0821L146.35 68.4563L145.141 67.852Z" fill="#FFE1FA"/>
<path d="M145.443 65.4348L140.001 64.2262L132.745 69.0606V71.4778L141.513 76.6143L141.815 72.6864L149.071 67.852L145.443 65.4348ZM140.303 74.1971L133.955 70.2692V69.6649L138.49 70.8735L140.303 72.0821L140.606 72.3842L140.303 74.1971ZM140.908 71.4778L139.397 70.5713L138.187 69.967L134.559 69.0606L140.001 65.4348L143.629 66.3412L145.141 66.6434L146.652 67.5498L140.908 71.4778Z" fill="#16110D"/>
<path d="M157.233 66.0391L149.675 61.5068V59.9961L155.117 61.5068L157.536 62.7154L157.233 66.0391Z" fill="#98509B"/>
<path d="M157.536 62.7155L164.187 58.1832L161.768 56.6725L154.815 61.2047L157.536 62.7155Z" fill="#98509B"/>
<path d="M149.675 59.9961L156.326 55.4639L161.768 56.6725L154.815 61.2047L149.675 59.9961Z" fill="#98509B"/>
<path d="M161.768 58.4853L156.327 57.2767L151.187 60.6004L156.327 62.1111L157.536 62.7154L162.978 59.0896L161.768 58.4853Z" fill="#FFE1FA"/>
<path d="M162.071 56.0681L156.629 54.8595L149.373 59.6939V62.1111L158.14 67.2476L158.443 63.3197L165.699 58.4853L162.071 56.0681ZM156.629 65.1326L150.28 61.2046V60.6003L154.815 61.8089L156.629 63.0175L156.931 63.3197L156.629 65.1326ZM157.536 62.1111L156.024 61.2046L154.815 60.6003L151.187 59.6939L156.629 56.0681L160.257 56.9745L161.768 57.2767L163.28 58.1831L157.536 62.1111Z" fill="#16110D"/>
<path d="M173.862 56.6725L166.303 52.1402V50.3273L171.443 51.8381L173.862 53.3488V56.6725Z" fill="#98509B"/>
<path d="M173.861 53.3488L180.815 48.8165L178.094 47.3058L171.443 51.838L173.861 53.3488Z" fill="#98509B"/>
<path d="M166.303 50.3273L172.955 46.0972L178.094 47.3058L171.443 51.838L166.303 50.3273Z" fill="#98509B"/>
<path d="M178.094 49.1187L172.955 47.9101L167.513 51.2337L172.955 52.4423L174.164 53.3488L179.303 49.723L178.094 49.1187Z" fill="#FFE1FA"/>
<path d="M178.396 46.7015L172.955 45.4929L165.699 50.3273V52.7445L174.466 57.8811L174.768 53.9531L182.024 49.1187L178.396 46.7015ZM173.257 55.4639L166.908 51.5359V50.9316L171.443 52.1402L173.257 53.3488L173.559 53.651L173.257 55.4639ZM173.861 52.7445L172.652 51.8381L171.443 51.2338L167.815 50.3273L173.257 46.7015L176.885 47.608L178.396 47.9101L179.908 48.8166L173.861 52.7445Z" fill="#16110D"/>
<path d="M190.187 47.0037L182.629 42.4714V40.9607L188.071 42.4714L190.489 43.9822L190.187 47.0037Z" fill="#98509B"/>
<path d="M190.489 43.9822L197.14 39.4499L194.722 37.637L188.071 42.1693L190.489 43.9822Z" fill="#98509B"/>
<path d="M182.629 40.9607L189.582 36.4285L194.722 37.6371L188.071 42.1693L182.629 40.9607Z" fill="#98509B"/>
<path d="M194.722 39.45L189.582 38.2414L184.14 41.565L189.28 43.0758L190.489 43.6801L195.931 40.3564L194.722 39.45Z" fill="#FFE1FA"/>
<path d="M195.024 37.0328L189.582 35.8242L182.326 40.6585V43.0757L191.094 48.2123L191.396 44.2843L198.652 39.4499L195.024 37.0328ZM189.885 46.0972L183.536 42.1693V41.565L188.071 42.7736L189.885 43.9822L190.187 44.2843L189.885 46.0972ZM190.489 43.0757L188.978 42.1693L187.768 41.565L184.14 40.6585L189.582 37.0328L193.21 37.9392L194.722 38.2414L196.233 39.1478L190.489 43.0757Z" fill="#16110D"/>
<path d="M211.652 35.22L6.37345 153.663L1.53625 150.943L206.815 32.5006L211.652 35.22Z" fill="#98509B"/>
<path d="M211.652 37.335L6.37345 155.778L1.53625 152.756L206.815 34.3135L211.652 37.335Z" fill="#FFE1FA"/>
<path d="M6.37354 153.662V157.59L211.652 39.1478V35.2199L6.37354 153.662Z" fill="#98509B"/>
<path d="M1.53625 150.943V154.871L6.37345 157.59V153.662L1.53625 150.943Z" fill="#98509B"/>
<path d="M212.256 34.9177L206.815 31.8962L0.931641 150.339V155.173L6.37348 158.497L211.954 39.7521L212.256 39.45V34.9177ZM206.815 33.1048L210.442 35.2199L98.8848 99.5777L6.37348 153.058L2.74559 150.943L206.815 33.1048ZM2.14094 154.569V151.85L5.76883 153.965V156.684L2.14094 154.569Z" fill="#16110D"/>
<path d="M14.5364 150.943V153.964L39.0247 168.468V165.446L14.5364 150.943Z" fill="#98509B"/>
<path d="M39.327 165.446L45.9781 160.914L21.1875 146.109L14.5364 150.641L39.327 165.446Z" fill="#98509B"/>
<path d="M40.5362 166.353L45.9781 163.029L20.8851 148.224L15.7456 151.547L40.5362 166.353Z" fill="#FFE1FA"/>
<path d="M47.1874 160.914L21.1875 145.504L13.9317 150.339L13.6294 154.267L39.6293 169.676L39.9316 165.748L47.1874 160.914ZM21.1875 146.713L45.0711 160.914L39.327 164.842L15.4433 150.641L21.1875 146.713ZM14.8387 153.662V151.849L38.7223 166.051V167.863L14.8387 153.662Z" fill="#16110D"/>
<path d="M31.1643 141.576L30.8619 144.598L55.6525 159.101V156.08L31.1643 141.576Z" fill="#98509B"/>
<path d="M55.9549 156.08L62.606 151.547L37.8154 136.742L30.8619 141.274L55.9549 156.08Z" fill="#98509B"/>
<path d="M57.1641 156.986L62.3036 153.662L37.513 138.857L32.0712 142.483L57.1641 156.986Z" fill="#FFE1FA"/>
<path d="M63.8153 151.547L37.8154 136.138L30.5596 140.972L30.2573 144.9L56.2572 160.31L56.5596 156.382L63.8153 151.547ZM37.8154 137.346L61.6991 151.547L55.9549 155.475L32.0713 141.274L37.8154 137.346ZM31.4666 144.296V142.483L55.3503 156.684V158.497L31.4666 144.296Z" fill="#16110D"/>
<path d="M47.7921 132.21L47.4897 134.929L72.2803 149.735V146.713L47.7921 132.21Z" fill="#98509B"/>
<path d="M72.2803 146.713L79.2338 142.181L54.1409 127.375L47.4897 131.908L72.2803 146.713Z" fill="#98509B"/>
<path d="M73.4897 147.619L78.9315 143.994L54.1409 129.188L48.6991 132.814L73.4897 147.619Z" fill="#FFE1FA"/>
<path d="M80.1408 141.879L54.1409 126.469L46.8851 131.303L46.5828 135.231L72.5827 150.641L72.885 146.713L80.1408 141.879ZM54.1409 127.98L78.0245 142.181L72.2803 146.109L48.3967 131.908L54.1409 127.98ZM47.7921 134.627V132.814L71.6757 147.015V148.828L47.7921 134.627Z" fill="#16110D"/>
<path d="M64.1176 122.541L63.8153 125.563L88.6059 140.066V137.346L64.1176 122.541Z" fill="#98509B"/>
<path d="M88.9082 137.044L95.5594 132.512L70.7688 117.707L63.8153 122.239L88.9082 137.044Z" fill="#98509B"/>
<path d="M90.1175 138.253L95.5594 134.627L70.4664 119.822L65.3269 123.447L90.1175 138.253Z" fill="#FFE1FA"/>
<path d="M96.7687 132.512L70.7688 117.102L63.513 121.937L63.2107 125.865L89.2106 141.274L89.5129 137.346L96.7687 132.512ZM70.7688 118.613L94.6524 132.814L88.9083 136.742L65.0246 122.541L70.7688 118.613ZM64.42 125.26V123.447L88.3036 137.648V139.461L64.42 125.26Z" fill="#16110D"/>
<path d="M80.7454 113.174L80.4431 116.196L105.234 130.699V127.678L80.7454 113.174Z" fill="#98509B"/>
<path d="M105.536 127.678L112.187 123.145L87.3966 108.34L80.4431 112.872L105.536 127.678Z" fill="#98509B"/>
<path d="M106.745 128.584L111.885 125.26L87.0942 110.455L81.6523 113.779L106.745 128.584Z" fill="#FFE1FA"/>
<path d="M113.397 123.145L87.3966 107.736L80.1408 112.57L79.8385 116.498L105.838 131.908L106.141 127.98L113.397 123.145ZM87.3966 108.944L111.28 123.145L105.536 127.073L81.6524 112.872L87.3966 108.944ZM81.0478 115.894V114.081L104.931 128.282V130.095L81.0478 115.894Z" fill="#16110D"/>
<path d="M97.0709 103.808L96.7686 106.829L121.559 121.332V118.311L97.0709 103.808Z" fill="#98509B"/>
<path d="M121.861 118.311L128.513 113.779L103.722 98.9733L96.7686 103.506L121.861 118.311Z" fill="#98509B"/>
<path d="M123.071 119.217L128.21 115.592L103.42 101.088L97.9778 104.412L123.071 119.217Z" fill="#FFE1FA"/>
<path d="M129.722 113.477L103.722 98.0669L96.4663 102.901L96.1639 106.829L122.164 122.239L122.466 118.311L129.722 113.477ZM103.722 99.5776L127.606 113.779L121.862 117.707L97.9779 103.506L103.722 99.5776ZM97.3732 106.225V104.412L121.257 118.613V120.426L97.3732 106.225Z" fill="#16110D"/>
<path d="M113.094 93.8369L112.792 96.8583L137.582 111.362V108.642L113.094 93.8369Z" fill="#98509B"/>
<path d="M137.582 108.34L144.536 103.808L119.745 89.0024L112.792 93.5347L137.582 108.34Z" fill="#98509B"/>
<path d="M139.094 109.549L144.234 105.923L119.443 91.1176L114.001 94.7433L139.094 109.549Z" fill="#FFE1FA"/>
<path d="M145.745 103.808L119.745 88.3981L112.187 93.2325V97.1605L138.187 112.57L138.489 108.642L145.745 103.808ZM119.745 89.9089L143.629 104.11L137.885 108.038L114.001 93.8368L119.745 89.9089ZM113.397 96.5562V94.7433L137.28 108.944V110.757L113.397 96.5562Z" fill="#16110D"/>
<path d="M129.42 84.4702V87.4916L153.908 101.995V99.2755L129.42 84.4702Z" fill="#98509B"/>
<path d="M154.21 98.9733L161.164 94.4411L136.071 79.6357L129.42 84.168L154.21 98.9733Z" fill="#98509B"/>
<path d="M155.42 100.182L160.862 96.5561L136.071 81.7508L130.629 85.3766L155.42 100.182Z" fill="#FFE1FA"/>
<path d="M162.071 94.4411L136.071 79.0315L128.815 83.8659L128.513 87.7938L154.513 103.203L154.815 99.2755L162.071 94.4411ZM136.071 80.5422L159.954 94.7433L154.21 98.6712L130.327 84.168L136.071 80.5422ZM129.722 87.1895V85.3766L153.606 99.5777V101.391L129.722 87.1895Z" fill="#16110D"/>
<path d="M146.35 75.1035L146.048 78.125L170.838 92.6282V89.6067L146.35 75.1035Z" fill="#98509B"/>
<path d="M171.141 89.6067L177.792 85.0744L153.001 70.2691L146.048 74.8013L171.141 89.6067Z" fill="#98509B"/>
<path d="M172.35 90.5131L177.792 87.1895L152.699 72.3842L147.257 75.7078L172.35 90.5131Z" fill="#FFE1FA"/>
<path d="M179.001 85.0745L153.001 69.6649L145.443 74.4993V78.4272L171.443 93.8369L171.745 89.9089L179.001 85.0745ZM153.001 70.8735L176.885 85.0745L171.14 89.0025L147.257 74.8015L153.001 70.8735ZM146.652 77.823V76.0101L170.536 90.2111V92.024L146.652 77.823Z" fill="#16110D"/>
<path d="M162.675 66.039L162.373 68.7584L187.164 83.2615V80.5422L162.675 66.039Z" fill="#98509B"/>
<path d="M187.164 80.24L194.117 75.7078L169.024 60.9025L162.373 65.7369L187.164 80.24Z" fill="#98509B"/>
<path d="M188.675 81.4487L193.815 77.8229L169.024 63.0176L163.582 66.6434L188.675 81.4487Z" fill="#FFE1FA"/>
<path d="M195.326 75.7078L169.326 60.2982L162.071 65.1326L161.768 69.0605L187.768 84.168V80.5422L195.326 75.7078ZM169.024 61.809L192.908 76.01L187.164 79.9379L163.582 65.4348L169.024 61.809ZM162.978 68.4563V66.6434L186.861 80.8444V82.6573L162.978 68.4563Z" fill="#16110D"/>
<path d="M179.001 56.3703L178.699 59.0896L203.489 73.895V70.8735L179.001 56.3703Z" fill="#98509B"/>
<path d="M203.489 70.8734L210.443 66.3412L185.652 51.5359L178.699 56.0681L203.489 70.8734Z" fill="#98509B"/>
<path d="M205.001 71.7799L210.14 68.1541L185.35 53.3488L179.908 56.9746L205.001 71.7799Z" fill="#FFE1FA"/>
<path d="M211.652 66.0391L185.652 50.6295L178.396 55.4638L178.094 59.3918L204.094 74.8014L204.396 70.8735L211.652 66.0391ZM185.652 52.1402L209.536 66.3412L203.792 70.2692L179.908 56.0681L185.652 52.1402ZM179.303 58.7875V56.9746L203.187 71.1756V72.9885L179.303 58.7875Z" fill="#16110D"/>
<path d="M195.326 46.7015V49.723L219.815 64.2262V61.2047L195.326 46.7015Z" fill="#98509B"/>
<path d="M220.117 61.2047L227.07 56.6724L201.978 41.8671L195.326 46.3994L220.117 61.2047Z" fill="#98509B"/>
<path d="M221.326 62.1112L226.768 58.7876L201.977 43.9822L196.536 47.3059L221.326 62.1112Z" fill="#FFE1FA"/>
<path d="M227.977 56.6725L201.978 41.2629L194.722 46.0973L194.419 50.0252L220.117 65.1327L220.722 61.5069L227.977 56.6725ZM201.978 42.4715L225.861 56.6725L220.117 60.6004L196.233 46.3994L201.978 42.4715ZM195.629 49.1188V47.3059L219.512 61.5069V63.3198L195.629 49.1188Z" fill="#16110D"/>
<path d="M238.559 50.9316L33.2804 169.374L28.4432 166.655L233.722 48.2122L238.559 50.9316Z" fill="#98509B"/>
<path d="M238.559 53.0467L33.2804 171.489L28.4432 168.77L233.722 50.3273L238.559 53.0467Z" fill="#FFE1FA"/>
<path d="M33.2805 169.374V173.604L238.559 55.1617V50.9316L33.2805 169.374Z" fill="#98509B"/>
<path d="M28.4432 166.655V170.885L33.2804 173.604V169.374L28.4432 166.655Z" fill="#98509B"/>
<path d="M239.163 50.6295L233.722 47.608L27.8386 166.353V171.187L33.2805 174.511L238.861 55.766L239.163 55.4639V50.6295ZM233.722 49.1187L237.349 51.2338L125.792 115.592L33.2805 168.77L29.6526 166.655L233.722 49.1187ZM29.0479 170.583V167.863L32.6758 169.978V172.698L29.0479 170.583Z" fill="#16110D"/>
<path d="M49.3036 174.209L41.4431 169.676L41.7454 166.353L43.8617 167.863L49.3036 172.396V174.209Z" fill="#98509B"/>
<path d="M41.7455 166.353L48.3966 161.82L50.8152 163.029L43.8618 167.863L41.7455 166.353Z" fill="#98509B"/>
<path d="M49.3037 172.396L55.9548 167.863L50.8153 163.029L43.8618 167.863L49.3037 172.396Z" fill="#98509B"/>
<path d="M50.5129 164.842L48.0943 163.331L42.9548 166.957L45.0711 168.468L50.5129 173L55.6525 169.676L50.5129 164.842Z" fill="#FFE1FA"/>
<path d="M51.1177 162.727L48.3967 161.216L41.1409 166.051L40.8386 169.979L49.0014 174.813L56.2572 169.979V167.863L51.1177 162.727ZM48.6991 173L42.0479 169.374V167.561L43.5595 168.468L47.4898 171.791L48.6991 173ZM49.3037 171.791L45.0712 167.863L44.1642 166.957L43.8619 166.655L42.6526 166.353L48.3967 162.425L49.606 163.029L50.513 163.633L54.7455 167.561L49.3037 171.791Z" fill="#16110D"/>
<path d="M65.6293 164.842L58.0712 160.31V156.986L60.4898 158.497L65.6293 163.029V164.842Z" fill="#98509B"/>
<path d="M58.071 156.986L65.0245 152.454L67.4431 153.965L60.4896 158.497L58.071 156.986Z" fill="#98509B"/>
<path d="M65.6293 163.029L72.5827 158.497L67.4432 153.965L60.4897 158.497L65.6293 163.029Z" fill="#98509B"/>
<path d="M67.1408 155.475L64.7222 153.965L59.2804 157.59L61.699 159.101L66.8385 163.633L72.2803 160.31L67.1408 155.475Z" fill="#FFE1FA"/>
<path d="M67.7455 153.36L65.0245 151.85L57.7688 156.684L57.4664 160.612L65.6292 165.446L72.885 160.612V158.497L67.7455 153.36ZM65.0245 163.633L58.6757 159.705V157.893L60.1873 158.799L64.1176 162.123L65.3269 163.331L65.0245 163.633ZM65.9315 162.425L61.699 158.497L60.792 157.59L60.4897 157.288L59.5827 156.684L65.3269 152.756L66.5362 153.36L67.4431 153.965L71.6757 157.893L65.9315 162.425Z" fill="#16110D"/>
<path d="M82.2571 155.173L74.699 150.641V147.62L77.1176 148.828L82.2571 153.663V155.173Z" fill="#98509B"/>
<path d="M74.699 147.62L81.6524 143.087L83.7687 144.296L77.1176 148.828L74.699 147.62Z" fill="#98509B"/>
<path d="M82.2571 153.662L89.2105 149.13L83.7687 144.296L77.1176 148.828L82.2571 153.662Z" fill="#98509B"/>
<path d="M83.4663 146.109L81.0477 144.598L75.9082 148.224L78.3268 149.432L83.4663 154.267L88.9082 150.641L83.4663 146.109Z" fill="#FFE1FA"/>
<path d="M84.3733 143.994L81.6523 142.181L74.3966 147.015L74.0942 151.245L82.257 156.08L89.5128 151.245V149.13L84.3733 143.994ZM81.6523 154.267L75.3035 150.339V148.526L76.8152 149.432L80.7454 152.756L81.9547 153.965L81.6523 154.267ZM82.257 152.756L78.0245 148.828L77.1175 148.224L76.8152 147.922L75.9082 147.619L81.6523 143.692L82.8616 144.296L83.7686 144.9L88.0012 148.828L82.257 152.756Z" fill="#16110D"/>
<path d="M98.885 145.807L91.0245 141.274L91.3269 137.951L93.4431 139.461L98.885 144.296V145.807Z" fill="#98509B"/>
<path d="M91.3268 137.951L97.9779 133.418L100.397 134.929L93.443 139.461L91.3268 137.951Z" fill="#98509B"/>
<path d="M98.885 144.296L105.536 139.764L100.397 134.929L93.4431 139.461L98.885 144.296Z" fill="#98509B"/>
<path d="M100.094 136.44L97.6756 135.231L92.5361 138.555L94.6524 140.066L100.094 144.9L105.234 141.274L100.094 136.44Z" fill="#FFE1FA"/>
<path d="M100.699 134.325L97.9779 132.814L90.7221 137.648L90.4198 141.576L98.5826 146.411L105.838 141.576V139.461L100.699 134.325ZM98.2802 144.9L91.9314 140.972V139.159L93.443 140.066L97.3733 143.389L98.5826 144.598L98.2802 144.9ZM98.8849 143.389L94.6523 139.461L93.7454 138.555L93.443 138.253L92.5361 137.648L98.2802 133.721L99.4895 134.325L100.397 134.929L104.629 138.857L98.8849 143.389Z" fill="#16110D"/>
<path d="M115.21 136.44L107.652 131.908V128.584L110.071 130.095L115.21 134.627V136.44Z" fill="#98509B"/>
<path d="M107.652 128.584L114.606 124.052L117.024 125.563L110.071 130.095L107.652 128.584Z" fill="#98509B"/>
<path d="M115.211 134.627L122.164 130.095L117.025 125.563L110.071 130.095L115.211 134.627Z" fill="#98509B"/>
<path d="M116.722 127.073L114.303 125.563L108.862 129.188L111.28 130.699L116.42 135.231L121.862 131.908L116.722 127.073Z" fill="#FFE1FA"/>
<path d="M117.327 124.958L114.606 123.448L107.35 128.282L107.048 132.21L115.21 137.044L122.466 132.21V130.095L117.327 124.958ZM114.606 135.231L108.257 131.303V129.491L109.769 130.397L113.699 133.721L114.908 134.929L114.606 135.231ZM115.513 134.023L110.978 130.095L110.071 129.188L109.769 128.886L108.862 128.282L114.606 124.354L115.815 124.958L116.722 125.563L121.257 130.095L115.513 134.023Z" fill="#16110D"/>
<path d="M131.838 126.771L124.28 122.239V118.915L126.699 120.426L131.838 125.26V126.771Z" fill="#98509B"/>
<path d="M124.28 118.915L131.233 114.383L133.35 115.894L126.699 120.426L124.28 118.915Z" fill="#98509B"/>
<path d="M131.838 125.26L138.792 120.426L133.35 115.894L126.699 120.426L131.838 125.26Z" fill="#98509B"/>
<path d="M133.048 117.405L130.629 116.196L125.49 119.52L127.908 121.03L133.048 125.865L138.187 122.239L133.048 117.405Z" fill="#FFE1FA"/>
<path d="M133.652 115.289L130.931 113.779L123.675 118.613L123.373 122.541L131.536 127.375L138.792 122.541V120.426L133.652 115.289ZM131.233 125.865L124.885 121.937V120.124L126.396 121.03L130.327 124.354L131.536 125.563L131.233 125.865ZM131.838 124.354L127.606 120.426L126.699 119.52L126.396 119.217L125.489 118.613L131.233 114.685L132.443 115.289L133.35 115.894L137.582 119.822L131.838 124.354Z" fill="#16110D"/>
<path d="M148.164 117.102L140.606 112.57L140.908 109.246L143.024 110.757L148.466 115.289L148.164 117.102Z" fill="#98509B"/>
<path d="M140.908 109.246L147.559 104.714L149.978 106.225L143.024 110.757L140.908 109.246Z" fill="#98509B"/>
<path d="M148.466 115.289L155.117 110.757L149.978 106.225L143.024 110.757L148.466 115.289Z" fill="#98509B"/>
<path d="M149.675 107.736L147.257 106.527L142.117 109.851L144.233 111.361L149.675 116.196L154.815 112.57L149.675 107.736Z" fill="#FFE1FA"/>
<path d="M150.28 105.621L147.559 104.11L140.303 108.944L140.001 112.872L148.164 117.707L155.419 112.872V110.757L150.28 105.621ZM147.861 116.196L141.513 112.268V110.455L143.024 111.361L146.954 114.685L148.164 115.894L147.861 116.196ZM148.466 114.685L144.234 110.757L143.327 109.851L143.024 109.549L142.117 108.944L147.861 105.016L149.071 105.621L149.978 106.225L154.21 110.153L148.466 114.685Z" fill="#16110D"/>
<path d="M164.792 107.736L157.234 103.203V100.182L159.652 101.391L164.792 106.225V107.736Z" fill="#98509B"/>
<path d="M157.234 100.182L164.187 95.3476L166.606 96.8583L159.652 101.391L157.234 100.182Z" fill="#98509B"/>
<path d="M164.792 106.225L171.745 101.693L166.606 96.8583L159.652 101.391L164.792 106.225Z" fill="#98509B"/>
<path d="M166.001 98.6711L163.885 97.1604L158.443 100.786L160.861 101.995L166.001 106.829L171.443 103.203L166.001 98.6711Z" fill="#FFE1FA"/>
<path d="M166.908 96.254L164.187 94.7432L156.629 99.8798L156.327 103.808L164.489 108.642L171.745 103.808V101.693L166.908 96.254ZM164.187 106.829L157.838 102.901V101.088L159.35 101.995L163.28 105.318L164.489 106.527L164.187 106.829ZM165.094 105.318L160.559 101.391L159.652 100.484L159.35 100.182L158.443 99.8798L164.187 95.9518L165.396 96.5561L166.303 97.1604L170.536 101.088L165.094 105.318Z" fill="#16110D"/>
<path d="M181.419 98.067L173.861 93.5347V90.5132L176.28 91.7218L181.419 96.5562V98.067Z" fill="#98509B"/>
<path d="M173.861 90.5132L180.512 85.6788L182.931 87.1896L176.28 91.7218L173.861 90.5132Z" fill="#98509B"/>
<path d="M181.419 96.5562L188.373 92.024L182.931 87.1896L176.28 91.7218L181.419 96.5562Z" fill="#98509B"/>
<path d="M182.629 88.7003L180.21 87.4917L175.071 91.1175L177.489 92.3261L182.629 97.1605L187.768 93.5347L182.629 88.7003Z" fill="#FFE1FA"/>
<path d="M183.233 86.5852L180.512 85.0745L173.257 89.9089V93.8368L181.419 98.6712L188.675 93.8368V91.7217L183.233 86.5852ZM180.815 97.1604L174.466 93.2325V91.4196L175.978 92.326L179.908 95.6497L181.117 96.8583L180.815 97.1604ZM181.419 95.6497L177.187 91.7217L176.28 90.8153H175.978L175.071 90.211L180.815 86.2831L182.024 86.8874L182.931 87.4917L187.164 91.4196L181.419 95.6497Z" fill="#16110D"/>
<path d="M197.745 88.7004L190.187 84.1681L190.489 80.8445L192.606 82.3552L198.047 86.8875L197.745 88.7004Z" fill="#98509B"/>
<path d="M190.489 80.8444L197.14 76.3122L199.559 77.8229L192.606 82.3552L190.489 80.8444Z" fill="#98509B"/>
<path d="M198.048 86.8875L204.699 82.3552L199.559 77.823L192.606 82.3552L198.048 86.8875Z" fill="#98509B"/>
<path d="M199.257 79.3337L196.838 77.823L191.699 81.4488L193.815 82.9595L199.257 87.4918L204.396 84.1681L199.257 79.3337Z" fill="#FFE1FA"/>
<path d="M199.861 77.2186L197.14 75.7078L189.885 80.5422L189.582 84.4702L197.745 89.3046L205.001 84.4702V82.3551L199.861 77.2186ZM197.443 87.4917L190.792 83.8659V82.053L192.303 82.9594L196.233 86.2831L197.443 87.4917ZM198.047 86.2831L193.815 82.3551L192.908 81.4487L192.606 81.1465L191.699 80.5422L197.443 76.6143L198.652 77.2186L199.559 77.8229L203.792 81.7508L198.047 86.2831Z" fill="#16110D"/>
<path d="M214.373 78.7293L206.815 74.1971V71.1756L209.233 72.3842L214.373 77.2186V78.7293Z" fill="#98509B"/>
<path d="M206.815 71.1756L213.768 66.3412L216.187 67.852L209.233 72.3842L206.815 71.1756Z" fill="#98509B"/>
<path d="M214.373 77.2186L221.326 72.6864L216.187 67.852L209.233 72.3842L214.373 77.2186Z" fill="#98509B"/>
<path d="M215.582 69.3627L213.466 68.1541L208.024 71.7799L210.443 72.9885L215.582 77.8229L221.024 74.1971L215.582 69.3627Z" fill="#FFE1FA"/>
<path d="M216.489 67.2477L213.768 65.7369L206.513 70.5713L206.21 74.4993L214.373 79.3337L221.629 74.4993V72.3842L216.489 67.2477ZM213.768 77.8229L207.42 73.895V72.0821L208.931 72.9885L212.861 76.3122L214.071 77.5208L213.768 77.8229ZM214.675 76.3122L210.443 72.3842L209.536 71.4778H208.931L208.024 70.8735L213.768 66.9455L214.978 67.5498L215.885 68.1541L220.117 72.0821L214.675 76.3122Z" fill="#16110D"/>
<path d="M231.001 69.665L223.443 65.1327V61.8091L225.861 63.0177L231.001 67.8521V69.665Z" fill="#98509B"/>
<path d="M223.443 61.809L230.396 57.2768L232.815 58.4854L225.861 63.0176L223.443 61.809Z" fill="#98509B"/>
<path d="M231.001 67.852L237.954 63.3198L232.815 58.4854L225.861 63.0177L231.001 67.852Z" fill="#98509B"/>
<path d="M232.512 60.2983L230.094 58.7875L224.652 62.4133L227.07 63.6219L232.21 68.4563L237.652 64.8305L232.512 60.2983Z" fill="#FFE1FA"/>
<path d="M233.117 58.1832L230.396 56.6725L223.14 61.5069L222.838 65.4348L231.001 70.2692L238.256 65.4348V63.3198L233.117 58.1832ZM230.396 68.4563L224.047 64.5284V62.7155L225.559 63.6219L229.489 66.9456L230.698 68.1542L230.396 68.4563ZM231.303 67.2477L227.07 63.3198L226.163 62.4133L225.861 62.1112L224.954 61.5069L230.698 57.5789L231.908 58.1832L232.815 58.7875L237.047 62.7155L231.303 67.2477Z" fill="#16110D"/>
<path d="M184.14 66.0392V65.737V59.0897H176.28L146.652 42.1694C143.024 40.0543 137.28 39.7522 134.256 41.5651L32.9777 100.484H25.1173V106.527V106.829C25.1173 108.34 26.0243 109.851 28.1406 111.059L62.6055 130.699C66.2334 132.814 71.9776 133.116 75.0009 131.303L182.024 68.7585C183.535 68.1542 184.14 67.2478 184.14 66.0392Z" fill="#98509B"/>
<path d="M69.5592 133.116C67.1406 133.116 64.4196 132.512 62.3034 131.303L27.8384 111.362C25.7221 110.153 24.5128 108.642 24.5128 106.829V106.527V99.8799H32.6756L133.954 40.6586C137.28 38.8457 143.024 38.8457 146.954 41.2629L176.28 58.1833H184.745V65.1327C184.745 65.1327 184.745 65.4348 184.745 65.737C184.745 66.9456 183.838 68.1542 182.326 69.0606L75.3033 131.606C73.7917 132.512 71.6754 133.116 69.5592 133.116ZM25.7221 101.088V106.829V107.131C25.7221 108.34 26.6291 109.851 28.443 110.757L62.908 130.397C66.5359 132.512 71.9778 132.814 75.001 131.001L181.722 68.4563C182.931 67.852 183.535 66.9456 183.535 66.0391V65.737V59.694H175.977L146.35 42.7736C142.722 40.6586 137.582 40.3564 134.257 42.1693L32.9779 101.088H25.7221Z" fill="#16110D"/>
<path d="M182.024 62.1112L75.0011 124.656C71.6755 126.469 66.2337 126.167 62.6058 124.052L28.1408 104.412C24.5129 102.297 23.9082 98.9734 27.2338 97.1605L134.257 34.6156C137.582 32.8027 143.024 33.1048 146.652 35.2199L181.117 54.8596C184.745 57.2768 185.349 60.2983 182.024 62.1112Z" fill="#98509B"/>
<path d="M181.117 58.1832L146.652 38.5435C143.024 36.4285 137.28 36.1263 134.257 37.9392L27.2337 100.484C26.3268 100.786 26.0244 101.391 25.4198 101.995V105.319C26.0244 106.225 26.6291 107.131 27.8384 107.736L62.3034 127.375C65.9313 129.49 71.6754 129.793 74.6987 127.98L181.722 65.4348C185.349 63.6219 184.745 60.2983 181.117 58.1832Z" fill="#FFE1FA"/>
<path d="M69.5592 126.469C67.1406 126.469 64.4196 125.865 62.3034 124.656L27.8384 104.714C25.7221 103.506 24.5128 101.995 24.5128 100.484C24.5128 98.9734 25.4198 97.7647 26.9314 96.8583L133.954 34.3134C137.28 32.5005 143.024 32.5005 146.954 34.9177L181.419 54.5574C183.535 55.766 184.745 57.2767 184.745 59.0896C184.745 60.6004 183.838 61.809 182.326 62.7154L75.3033 124.958C73.7917 125.865 71.6754 126.469 69.5592 126.469ZM139.698 34.0112C137.884 34.0112 135.768 34.3134 134.559 35.2198L27.5361 97.7647C26.3268 98.369 25.7221 99.5777 25.7221 100.484C25.7221 101.693 26.6291 103.203 28.443 104.11L62.908 123.75C66.5359 125.865 71.9778 126.167 75.001 124.354L181.722 61.809C182.931 61.2047 183.535 59.9961 183.535 59.0896C183.535 57.881 182.629 56.3703 180.815 55.4638L146.35 35.8241C144.536 34.6155 142.117 34.0112 139.698 34.0112Z" fill="#16110D"/>
<path d="M69.5592 126.469V133.116L75.001 131.303L184.14 67.5499L184.745 59.9962L181.117 62.7155L72.2801 125.865L69.5592 126.469Z" fill="#16110D"/>
<path d="M145.141 41.565H143.024V34.6156C143.024 32.8027 141.513 30.0834 140.001 29.1769L138.489 28.2705C137.885 27.9683 137.28 27.9683 136.978 27.9683C136.675 28.2705 136.373 28.8748 136.373 29.4791V36.4285H134.257V29.4791C134.257 27.9683 134.861 26.7597 135.768 26.1554C136.675 25.5511 137.885 25.5511 139.396 26.4576L140.908 27.364C143.327 28.5726 145.141 31.8963 145.141 34.3134V41.565Z" fill="#16110D"/>
<path d="M180.21 59.9961H178.094V53.0467C178.094 51.2338 176.582 48.5144 175.071 47.608L173.559 46.7015C172.954 46.3994 172.35 46.3994 172.048 46.3994C171.745 46.7016 171.443 47.0037 171.443 47.9101V54.8596H169.629V47.9101C169.629 46.3994 170.234 45.1908 171.141 44.5865C172.048 43.9822 173.257 43.9822 174.768 44.8887L176.28 45.7951C178.699 47.0037 180.513 50.3273 180.513 52.7445V59.9961H180.21Z" fill="#16110D"/>
<path d="M59.5825 117.707H57.4662V110.757C57.4662 108.944 55.9546 106.225 54.443 105.319L43.257 98.9734C42.6523 98.6713 42.0477 98.6713 41.7453 98.6713C41.443 98.9734 41.1407 99.2756 41.1407 100.182V107.131H39.0244V99.8799C39.0244 98.3691 39.6291 97.1605 40.536 96.5562C41.443 95.9519 42.6523 95.9519 44.1639 96.8584L55.3499 103.204C57.7685 104.412 59.5825 107.736 59.5825 110.153V117.707Z" fill="#16110D"/>
<path d="M38.1175 105.016H36.0012V98.067C36.0012 96.2541 34.4896 93.5347 32.978 92.6283L31.4664 91.7218C30.8617 91.4197 30.2571 91.4197 29.9547 91.4197C29.6524 91.7218 29.3501 92.024 29.3501 92.9304V99.8799H27.5361V92.9304C27.5361 91.4197 28.1408 90.2111 29.0478 89.6068C29.9547 89.0025 31.164 89.0025 32.6756 89.9089L34.1873 90.8154C36.6059 92.024 38.4198 95.3476 38.4198 97.7648V105.016H38.1175Z" fill="#16110D"/>
<path d="M71.3731 124.354H69.2568V117.405C69.2568 115.592 67.7452 112.872 66.2336 111.966L64.722 111.059C64.1173 110.757 63.5127 110.757 63.2103 110.757C62.908 111.059 62.6057 111.362 62.6057 112.268V119.217H60.7917V112.268C60.7917 110.757 61.3964 109.549 62.3034 108.944C63.2103 108.34 64.4196 108.34 65.9313 109.246L67.4429 110.153C69.8615 111.362 71.6754 114.685 71.6754 117.102V124.354H71.3731Z" fill="#16110D"/>
<path d="M171.14 40.6586C171.14 27.6662 162.071 12.2566 150.885 5.91142C148.768 4.70282 146.954 4.09852 145.14 3.49422C144.536 3.19207 143.629 3.19207 143.024 3.19207L130.024 1.07703L133.652 7.42216C131.838 9.83936 130.931 13.163 130.931 17.3931C130.931 30.3855 140.001 45.7951 151.187 52.1403C155.117 54.2553 158.443 55.1618 161.466 54.8596L164.187 59.3919L169.326 49.1188C170.536 47.0037 171.14 43.9822 171.14 40.6586Z" fill="#98509B"/>
<path d="M149.977 12.5588L158.745 11.0481L151.489 5.30723L140.001 4.09863L146.35 8.63087L149.977 12.5588Z" fill="#FFE1FA"/>
<path d="M164.187 60.9026L161.164 55.766C158.14 56.0682 154.513 55.1617 150.885 53.0467C139.396 46.0972 130.327 30.3855 130.327 17.393C130.327 13.4651 131.234 9.83931 133.047 7.42212L128.815 0.170532L143.327 2.28558C143.931 2.28558 144.536 2.58773 145.443 2.58773H145.745C147.559 3.19203 149.373 4.09847 151.489 5.30707C162.675 11.9544 172.047 27.6661 172.047 40.6586C172.047 43.9822 171.443 47.0037 170.233 49.4209V49.723L164.187 60.9026ZM161.768 54.2553L164.187 58.1832L169.024 48.8166C170.233 46.3994 170.838 43.6801 170.838 40.3564C170.838 27.6661 162.071 12.2565 150.885 5.91137C149.071 4.70277 146.954 4.09847 145.14 3.49418H144.838C144.233 3.49418 143.629 3.19203 143.024 3.19203L130.931 1.37913L134.257 6.81782L133.954 7.11997C132.141 9.53716 131.234 12.8608 131.234 16.7888C131.234 29.479 140.001 44.8886 151.187 51.2338C154.815 53.3488 158.14 54.2553 161.164 53.9531L161.768 54.2553Z" fill="#16110D"/>
<path d="M165.699 50.0252C165.699 33.1048 153.908 12.8608 139.396 4.40064C132.745 0.472692 126.699 -0.131607 121.862 1.98344H121.559H121.862C121.257 2.28559 120.652 2.58774 119.745 3.19204L49.9083 42.7736L70.1641 53.651L87.6989 107.131L157.536 67.2477C162.675 64.5284 165.699 58.4854 165.699 50.0252Z" fill="#98509B"/>
<path d="M145.745 8.93292L139.396 4.40068L131.234 1.68134L61.0942 40.9608L70.4663 45.1909L78.3267 51.8381L149.071 12.8609H149.373L145.745 8.93292Z" fill="#FFE1FA"/>
<path d="M87.3965 108.038L69.5594 53.9531L48.699 42.7736L119.443 2.58774C120.048 1.98344 120.955 1.68129 121.559 1.37914C126.699 -0.735908 133.048 0.170541 139.396 3.79633C154.21 12.2565 166.001 32.8027 166.001 49.723C166.001 58.1832 162.978 64.5284 157.536 67.5499L87.3965 108.038ZM51.1176 42.7736L70.4663 53.3488V53.651L88.0012 106.225L157.233 66.6434C162.373 63.9241 165.094 58.1832 165.094 50.0252C165.094 33.407 153.303 13.163 139.094 5.00493C132.745 1.37914 127.001 0.47269 122.164 2.58774H121.861C121.257 2.88989 120.652 3.19204 120.048 3.49418L51.1176 42.7736Z" fill="#16110D"/>
<path d="M68.9546 44.2844C57.164 37.6371 47.7919 40.6586 43.8617 50.6295L43.257 51.536L38.7222 61.8091L42.3501 62.4134C43.5594 77.2187 52.9314 93.8369 65.0244 102.901V107.736L76.5127 108.944C87.3964 110.757 95.2568 103.808 95.2568 90.2111C95.5592 73.2907 83.4662 52.7446 68.9546 44.2844Z" fill="#98509B"/>
<path d="M62.9081 62.4134L63.5127 63.0177L78.3266 51.8381L70.4662 45.1908L61.0941 40.9608L51.1174 55.7661L52.3267 56.3704C55.9546 57.8811 59.5825 59.694 62.9081 62.4134Z" fill="#FFE1FA"/>
<path d="M79.8384 109.851C78.6291 109.851 77.4198 109.851 76.2105 109.549L64.1175 108.34V103.203C52.0245 94.139 42.9548 77.8229 41.4432 63.0176L37.5129 62.4133L42.9548 50.3273C44.7687 45.4929 48.0943 42.1693 52.0245 40.6586C56.8617 39.1478 62.6059 40.0543 68.6524 43.68C83.4663 52.1402 95.5592 72.9885 95.5592 90.2111C95.5592 97.4627 93.443 102.901 89.5127 106.527C87.0942 108.642 83.7686 109.851 79.8384 109.851ZM65.6291 107.131L76.5128 108.34C81.35 109.246 85.8849 108.038 88.9081 105.621C92.536 102.297 94.6523 97.1605 94.6523 90.2111C94.6523 73.5928 82.8616 53.0467 68.35 44.8886C62.6059 41.565 57.164 40.6586 52.6292 42.1693C49.0013 43.3779 45.978 46.7015 44.1641 51.2338L39.6292 61.5069L42.9548 62.1112V62.7155C44.1641 77.2186 53.2338 93.8369 65.3268 102.599L65.6291 102.901V107.131Z" fill="#16110D"/>
<path d="M71.6693 106.274C79.4775 101.769 79.4455 87.1041 71.598 73.52C63.7504 59.9359 51.059 52.5763 43.2508 57.0819C35.4427 61.5875 35.4746 76.252 43.3222 89.8361C51.1697 103.42 63.8612 110.78 71.6693 106.274Z" fill="#98509B"/>
<path d="M69.257 93.5348C69.257 101.089 63.8152 104.412 57.164 100.484C50.5129 96.5563 45.071 87.4918 45.071 79.6359C45.071 72.0822 50.5129 68.7585 57.164 72.6865C63.8152 76.6144 69.257 85.981 69.257 93.5348Z" fill="#FFE1FA"/>
<path d="M77.1174 87.4917L94.6522 82.9595L96.1639 90.2111L93.4429 100.786L89.5127 106.225L83.4662 109.246L67.7454 108.038L71.6756 106.225L75.3035 103.808L76.8151 98.9734L77.4197 93.2326L77.1174 87.4917Z" fill="#16110D"/>
<path d="M94.6522 82.9595L165.094 42.4714L165.698 52.4424L163.582 60.9025L159.954 65.4348L90.4197 105.621L94.0476 100.182L95.8615 91.7218L95.2569 85.6788L94.6522 82.9595Z" fill="#16110D"/>
<path d="M165.094 43.0758L170.536 33.407L171.14 40.6586L170.536 46.0973L164.792 56.9746L165.698 51.2338V45.1908L165.094 43.0758Z" fill="#16110D"/>
<path d="M57.7687 57.8811C52.3268 54.5574 46.885 54.2553 42.9548 56.3703C38.7222 58.7875 36.606 63.6219 36.606 69.967C36.606 82.9595 45.6757 98.9734 57.164 105.319C60.4896 107.131 63.5128 108.038 66.5361 108.038C68.6524 108.038 70.4663 107.434 71.9779 106.527C75.9081 104.11 78.3267 99.2755 78.3267 92.9304C78.0244 80.2401 68.9547 64.5284 57.7687 57.8811ZM43.2571 57.5789C44.7687 56.6725 46.2803 56.3703 48.0943 56.3703C50.8152 56.3703 53.8385 57.2768 56.8617 59.0897C67.7454 65.4348 76.8151 80.8444 76.8151 93.5347V93.8369C75.9081 96.2541 73.7919 100.182 67.7454 101.391C57.164 103.203 46.885 92.9304 42.9548 88.3982C39.9315 82.6573 38.1176 76.3122 38.1176 70.2692C37.8153 64.2262 39.6292 59.694 43.2571 57.5789Z" fill="#16110D"/>
<path d="M94.0477 82.9595C94.35 85.3767 94.6523 87.7939 94.6523 90.2111C94.6523 97.1605 92.5361 102.297 88.9082 105.621C88.9082 105.621 88.6058 105.621 88.6058 105.923L90.1175 106.225C94.0477 102.901 95.8616 97.4626 95.8616 90.5132C95.8616 88.096 95.5593 85.3767 94.9546 82.9595H94.0477Z" fill="#98509B"/>
<path d="M120.652 50.0252C120.047 50.0252 119.14 49.723 118.536 49.4209L116.117 48.2123L117.024 46.7015L119.443 47.9101C120.047 48.2123 120.954 48.2123 121.861 47.9101L126.094 45.4929V45.1908L123.978 43.9822L124.885 42.4714L127.001 43.68C127.606 43.9822 127.908 44.5865 127.908 45.4929C127.908 46.0972 127.606 47.0037 127.001 47.3058L122.768 49.723C122.164 49.723 121.559 50.0252 120.652 50.0252Z" fill="#16110D"/>
<path d="M124.582 58.1833C123.978 58.1833 123.071 57.8812 122.466 57.579L120.047 56.3704L120.954 54.8597L123.373 56.0683C123.978 56.3704 124.885 56.3704 125.792 56.0683L130.024 53.6511V53.3489L127.908 52.1403L128.815 50.6296L130.931 51.8382C131.536 52.1403 131.838 52.7446 131.838 53.6511C131.838 54.2554 131.536 55.1618 130.931 55.464L126.699 57.579C126.094 57.8812 125.187 58.1833 124.582 58.1833Z" fill="#16110D"/>
<path d="M114.908 41.2628C114.303 41.2628 113.396 40.9607 112.792 40.6585L110.373 39.4499L111.28 37.9392L113.699 39.1478C114.303 39.4499 115.21 39.4499 116.117 39.1478L120.35 36.7306V36.4285L118.233 35.2199L119.14 33.7091L121.257 34.9177C121.861 35.2199 122.164 35.8242 122.164 36.7306C122.164 37.3349 121.861 38.2413 121.257 38.5435L117.024 40.9607C116.42 40.9607 115.513 41.2628 114.908 41.2628Z" fill="#16110D"/>
<path d="M127.001 66.9456C126.397 66.9456 125.49 66.6434 124.885 66.3413L122.466 65.1327L123.373 63.6219L125.792 64.8305C126.397 65.1327 127.303 65.1327 128.21 64.8305L132.443 62.4133V62.1112L130.327 60.9026L131.234 59.3918L133.35 60.6004C133.955 60.9026 134.257 61.5069 134.257 62.4133C134.257 63.0176 133.955 63.9241 133.35 64.2262L129.117 66.6434C128.513 66.9456 127.606 66.9456 127.001 66.9456Z" fill="#16110D"/>
<path d="M127.303 76.3122C126.699 76.3122 125.792 76.0101 125.187 75.7079L122.769 74.4993L123.676 72.9886L126.094 74.1972C126.699 74.4993 127.606 74.4993 128.513 74.1972L132.745 71.78V71.4778L130.327 70.2692L131.234 68.7585L133.35 69.9671C133.955 70.2692 134.257 70.8735 134.257 71.78C134.257 72.3843 133.955 73.2907 133.35 73.5929L129.42 75.7079C128.815 76.0101 127.908 76.3122 127.303 76.3122Z" fill="#98509B"/>
<path d="M76.2105 88.0961C76.5128 89.909 76.8152 91.7219 76.8152 93.5348C76.8152 99.5778 74.6989 104.11 71.071 105.923C69.8617 106.829 68.3501 107.132 66.5361 107.132L69.8617 107.434C70.4664 107.132 71.071 106.829 71.6757 106.527C75.6059 104.11 78.0245 99.2756 78.0245 92.9305C78.0245 91.1176 77.7221 89.0025 77.4198 87.1896L76.2105 88.0961Z" fill="#98509B"/>
<path d="M132.141 62.1113V62.4134L127.908 64.8306C127.303 65.1328 126.396 65.1328 125.792 64.8306L123.978 66.0392L124.885 66.6435C125.489 66.9457 126.396 67.2478 127.001 67.2478C127.606 67.2478 128.513 66.9457 129.117 66.6435L133.35 64.2263C133.954 63.9242 134.257 63.3199 134.257 62.4134C134.257 61.8091 133.954 61.2048 133.35 60.6005L131.536 61.8091L132.141 62.1113Z" fill="#98509B"/>
<path d="M165.698 42.1693L164.489 42.7736C164.791 45.1908 165.094 47.608 165.094 50.0252C165.094 52.7445 164.791 55.1617 164.187 57.5789L165.698 56.0682C166.001 54.2553 166.303 52.1402 166.303 50.0252C166.303 47.3059 166.001 44.8887 165.698 42.1693Z" fill="#98509B"/>
<path d="M110.373 22.8318C114.303 24.9468 114.303 28.5726 110.373 30.9898C106.443 33.1048 100.396 33.1048 96.4662 30.9898C92.536 28.8747 92.536 25.249 96.4662 22.8318C100.396 20.4146 106.745 20.4146 110.373 22.8318Z" fill="#98509B"/>
<path d="M110.071 22.8318V17.6953H94.3502V23.1339C94.3502 24.3425 95.2572 25.5511 96.7688 26.4576C99.7921 28.2705 104.932 28.2705 107.955 26.4576C109.164 25.249 110.071 24.0404 110.071 22.8318Z" fill="#98509B"/>
<path d="M102.211 27.9684C100.094 27.9684 97.9781 27.3641 96.4664 26.4576C94.9548 25.5512 94.0479 24.3426 94.0479 22.8318V17.091H110.676V22.8318C110.676 24.3426 109.769 25.5512 108.257 26.4576C106.443 27.6662 104.327 27.9684 102.211 27.9684ZM94.6525 17.9975V22.8318C94.6525 23.7383 95.2571 24.9469 96.7688 25.5512C99.792 27.3641 104.327 27.3641 107.35 25.5512C108.559 24.6447 109.466 23.7383 109.466 22.8318V17.9975H94.6525Z" fill="#16110D"/>
<path d="M102.211 21.9253C106.552 21.9253 110.071 19.8962 110.071 17.3931C110.071 14.89 106.552 12.8608 102.211 12.8608C97.8693 12.8608 94.3501 14.89 94.3501 17.3931C94.3501 19.8962 97.8693 21.9253 102.211 21.9253Z" fill="#98509B"/>
<path d="M109.466 18.6017C109.164 17.9974 108.559 17.3931 107.652 17.0909C104.629 15.278 99.4895 15.278 96.4663 17.0909C95.5593 17.6952 94.9547 17.9974 94.6523 18.6017V21.6232C94.9547 22.2275 95.5593 22.8318 96.4663 23.1339C99.4895 24.9468 104.629 24.9468 107.652 23.1339C108.559 22.5296 109.164 22.2275 109.466 21.6232V18.6017Z" fill="#FFE1FA"/>
<path d="M102.21 22.5296C100.094 22.5296 97.9778 21.9253 96.4662 21.0189C94.9546 20.1124 94.0476 18.9038 94.0476 17.3931C94.0476 15.8823 94.9546 14.6737 96.4662 13.7673C99.7918 11.9544 104.931 11.9544 107.955 13.7673C109.466 14.6737 110.373 15.8823 110.373 17.3931C110.373 18.9038 109.466 20.1124 107.955 21.0189C106.443 21.9253 104.327 22.5296 102.21 22.5296ZM102.21 13.4651C100.396 13.4651 98.2801 13.7673 96.7685 14.6737C95.5592 15.5802 94.6523 16.4866 94.6523 17.3931C94.6523 18.2995 95.2569 19.5081 96.7685 20.1124C99.7918 21.9253 104.327 21.9253 107.35 20.1124C108.559 19.206 109.466 18.2995 109.466 17.3931C109.466 16.4866 108.862 15.278 107.35 14.6737C105.838 13.7673 104.024 13.4651 102.21 13.4651Z" fill="#16110D"/>
<path d="M102.21 19.8103C101.304 19.8103 100.094 19.5081 99.4896 19.206C98.5826 18.6017 98.2803 17.9974 98.2803 17.3931C98.2803 16.7888 98.8849 15.8823 99.4896 15.5802C101.001 14.6737 103.42 14.6737 104.931 15.5802C105.838 15.8823 106.141 16.4866 106.141 17.3931C106.141 17.9974 105.536 18.9038 104.931 19.206C104.024 19.5081 103.117 19.8103 102.21 19.8103ZM102.21 15.5802C101.304 15.5802 100.397 15.8823 99.7919 16.1845C99.1872 16.4866 98.8849 16.7888 98.8849 17.0909C98.8849 17.3931 99.1872 17.6952 99.7919 17.9974C101.001 18.6017 103.117 18.6017 104.327 17.9974C104.931 17.6952 105.234 17.3931 105.234 17.0909C105.234 16.7888 104.931 16.4866 104.327 16.1845C103.722 15.8823 102.815 15.5802 102.21 15.5802Z" fill="#16110D"/>
<path d="M102.513 22.2275V27.6662L107.048 26.4576L110.071 24.3426L109.768 18.9039L106.745 21.3211L102.513 22.2275Z" fill="#16110D"/>
<path d="M92.8382 124.354C92.8382 128.886 89.815 134.325 85.8847 136.44C81.9545 138.857 78.9313 137.044 78.9313 132.512C78.9313 127.98 81.9545 122.541 85.8847 120.426C89.815 118.009 92.8382 119.822 92.8382 124.354Z" fill="#16110D"/>
<path d="M91.6289 121.332L79.8383 128.282V129.793L82.2569 128.282C81.9545 129.188 81.6522 130.095 81.6522 131.001C81.6522 132.21 82.2569 133.418 82.8615 133.721C83.1638 134.023 83.7685 134.023 84.0708 134.023C84.6755 134.023 85.2801 133.721 85.8847 133.418C88.001 132.21 89.815 129.188 89.815 126.771C89.815 125.563 89.5126 124.656 88.908 124.354L91.6289 122.843V121.332ZM88.3033 124.958C88.908 125.26 88.908 125.865 88.908 126.771C88.908 128.886 87.3964 131.303 85.5824 132.21C84.9778 132.512 84.0708 132.814 83.7685 132.512C83.1638 132.21 83.1638 131.606 83.1638 130.699C83.1638 129.491 83.7685 127.98 84.6754 126.771L88.001 124.958C88.001 124.958 88.001 124.958 88.3033 124.958Z" fill="#98509B"/>
<path d="M108.257 115.289C108.257 119.822 105.234 125.26 101.303 127.375C97.3731 129.49 94.3499 127.678 94.3499 123.448C94.3499 118.915 97.3731 113.477 101.303 111.362C105.234 108.944 108.257 110.757 108.257 115.289Z" fill="#16110D"/>
<path d="M107.047 112.268L95.2567 119.217V120.728L97.6753 119.217C97.373 120.124 97.0707 121.03 97.0707 121.635C97.0707 122.843 97.6753 124.052 98.28 124.354C98.5823 124.656 99.1869 124.656 99.4893 124.656C100.094 124.656 100.699 124.354 101.303 124.052C103.419 122.843 105.233 119.822 105.233 117.404C105.233 116.196 104.931 115.289 104.326 114.987L107.047 113.477V112.268ZM103.419 115.894C104.024 116.196 104.024 116.8 104.024 117.707C104.024 119.822 102.513 122.239 100.699 123.145C100.094 123.447 99.1869 123.75 98.8846 123.447C98.28 123.145 98.28 122.541 98.28 121.635C98.28 120.426 98.8846 118.915 99.7916 117.707L103.117 115.894H103.419Z" fill="#98509B"/>
<path d="M159.047 86.2831C159.047 90.8154 156.024 96.2541 152.094 98.3691C148.164 100.484 145.14 98.6713 145.14 94.4412C145.14 90.2111 148.164 84.4702 152.094 82.3552C156.024 79.938 159.047 81.7509 159.047 86.2831Z" fill="#16110D"/>
<path d="M157.838 83.2617L146.047 90.2111V91.7218L148.466 90.2111C148.164 91.1175 147.861 92.024 147.861 92.9304C147.861 94.139 148.466 95.3476 149.071 95.6498C149.373 95.9519 149.978 95.9519 150.28 95.9519C150.885 95.9519 151.489 95.6498 152.094 95.3476C154.21 94.139 156.024 91.1175 156.024 88.7003C156.024 87.4917 155.722 86.5853 155.117 86.2832L157.838 84.7724V83.2617ZM154.21 86.8875C154.815 87.1896 154.815 87.7939 154.815 88.7003C154.815 90.8154 153.303 93.2326 151.489 94.139C150.885 94.4412 149.978 94.7433 149.675 94.4412C149.071 94.139 149.071 93.5347 149.071 92.6283C149.071 91.4197 149.675 89.9089 150.582 88.7003L153.908 86.8875C154.21 86.8875 154.21 86.8875 154.21 86.8875Z" fill="#98509B"/>
<path d="M174.466 77.2186C174.466 81.7509 171.443 87.1896 167.513 89.3046C163.582 91.4196 160.559 89.6067 160.559 85.3767C160.559 80.8444 163.582 75.4057 167.513 73.2907C171.14 70.8735 174.466 72.6864 174.466 77.2186Z" fill="#16110D"/>
<path d="M173.257 74.1971L161.466 81.1465V82.6573L163.885 81.1465C163.582 82.053 163.28 82.9594 163.28 83.8659C163.28 85.0745 163.885 86.2831 164.489 86.5852C164.792 86.8874 165.396 86.8874 165.699 86.8874C166.303 86.8874 166.908 86.5852 167.513 86.2831C169.629 85.0745 171.443 82.053 171.443 79.6358C171.443 78.4272 171.14 77.5207 170.536 77.2186L173.257 75.7078V74.1971ZM169.629 77.8229C170.233 78.125 170.233 78.7293 170.233 79.6358C170.233 81.7508 168.722 84.168 166.908 85.0745C166.303 85.3766 165.396 85.6788 165.094 85.3766C164.489 85.0745 164.489 84.4702 164.489 83.5637C164.489 82.3551 165.094 80.8444 166.001 79.6358L169.327 77.8229H169.629Z" fill="#98509B"/>
<path d="M64.4198 87.4917C64.4198 82.3551 60.7919 76.3122 56.5593 73.5928C55.35 72.9885 54.1407 72.6864 53.2338 72.3842H52.9314C52.0245 72.3842 51.1175 72.6864 50.5128 72.9885C49.0012 73.895 48.0942 76.01 48.0942 78.4272C48.0942 83.5637 51.7221 89.6067 55.9547 92.3261C57.164 92.9304 58.3733 93.5347 59.5826 93.5347C61.0942 93.5347 62.6058 92.9304 63.5128 91.4196L64.1174 90.211H63.8151C64.4198 89.6067 64.4198 88.7003 64.4198 87.4917ZM63.2105 87.4917C63.2105 88.7003 62.9081 89.9089 62.6058 90.5132C61.6988 90.5132 60.4895 90.211 59.2802 89.6067C55.0477 87.4917 51.7221 81.7508 51.7221 76.9165C51.7221 75.7079 52.0245 74.8014 52.3268 73.895H52.6291C53.5361 73.895 54.7454 74.1971 55.6523 74.8014C59.8849 77.2186 63.2105 82.9594 63.2105 87.4917Z" fill="#16110D"/>
</svg>
