<svg width="138" height="150" viewBox="0 0 138 150" fill="none" xmlns="http://www.w3.org/2000/svg">
<path d="M92.1745 69.3382L127.313 36.8936L93.1316 17.1269L92.1745 16.5816C90.397 15.6274 89.5767 15.2184 88.2094 16.0363L29.9639 49.8442C29.1435 50.2532 28.4599 51.3437 28.1864 52.298L23.9479 75.4727L13.5567 86.2422C12.8731 87.1964 12.4629 88.287 12.4629 89.2413L15.6076 101.238L16.5647 105.055L15.1974 106.282L15.3341 107.917L20.2563 106.145V102.737C20.6665 100.147 21.4868 95.1031 25.4519 92.6493C32.5617 88.287 32.8351 99.1928 33.1086 101.238C33.1086 101.919 33.6555 102.192 34.3391 101.783L42.5427 97.1479L43.4998 98.2385L61.2743 97.0116L89.4399 71.6557L92.0377 70.1562L92.1745 69.3382Z" fill="#FFE1FA"/>
<path d="M15.0607 106.827L14.7873 104.646L16.0178 103.419L15.0607 99.7381L11.916 87.7418C11.916 86.6512 12.3262 85.5606 13.1466 84.6063L23.5378 73.8369L27.7763 50.6622C28.0497 49.5716 28.8701 48.481 29.6905 47.9357L87.936 14.2642C89.5767 13.4462 90.3971 13.8552 92.1745 14.8095L93.1316 15.3548L127.587 35.2578L92.3112 68.1114V69.0656L89.5767 70.5652L61.411 95.9211L63.7354 106.827L43.4999 97.148L42.5428 96.1937L34.4759 100.692C34.0657 100.965 33.6555 100.965 33.3821 100.829C33.1086 100.692 32.8352 100.42 32.8352 100.011C32.8352 99.8744 32.8352 99.7381 32.8352 99.4654C32.6985 97.4206 32.2883 92.104 29.6905 90.8772C28.5967 90.3319 27.2294 90.6045 25.5887 91.5588C22.0338 93.7399 20.94 97.9659 20.5298 101.51V105.055L15.0607 106.827ZM15.4709 104.918L15.6076 106.145L19.9829 104.646V101.51C20.5298 97.9659 21.6236 93.4673 25.3152 91.1498C27.0927 90.0592 28.5967 89.7866 29.9639 90.4682C32.8352 91.8314 33.2454 97.2843 33.3821 99.6018C33.3821 99.8744 33.3821 100.011 33.3821 100.147C33.3821 100.42 33.5188 100.556 33.6555 100.556C33.7923 100.692 34.0657 100.556 34.2024 100.42L42.5428 95.7848L43.4999 96.8753L63.1885 105.736L89.3032 70.1562L91.7643 68.793V67.9751L91.9011 67.8387L126.766 35.6667L92.0378 15.6274C90.2603 14.6731 89.5767 14.4005 88.3462 15.0821L29.9639 48.7536C29.2803 49.1626 28.5967 50.1169 28.3232 51.0711L24.0847 74.3822L13.6935 85.1516C13.0098 85.9696 12.5996 87.6054 12.5996 88.5597L15.7444 99.8744L16.8382 103.828L15.4709 104.918Z" fill="#16110D"/>
<path d="M12.4629 110.371L49.926 131.91L61.5477 97.0117L52.387 91.8314L24.0846 75.4728L13.6934 86.2422C13.0098 87.1965 12.5996 88.287 12.5996 89.2413L12.4629 110.371Z" fill="#FFE1FA"/>
<path d="M49.926 131.092L12.0527 109.281L12.1895 87.8781C12.1895 86.7875 12.5996 85.6969 13.42 84.7427L23.9479 73.8369L52.3871 90.3319L61.6845 95.6484L49.926 131.092ZM12.5996 109.008L49.5158 130.274L61.0008 95.9211L52.1136 90.8772L23.9479 74.5185L13.6935 85.1516C13.0098 85.9696 12.5996 87.0602 12.5996 87.8781V109.008Z" fill="#16110D"/>
<path d="M12.7812 86.1964L12.5078 86.6687L49.9282 108.199L50.2015 107.727L12.7812 86.1964Z" fill="#16110D"/>
<path d="M28.635 49.7838L28.3616 50.256L65.7819 71.7906L66.0553 71.3183L28.635 49.7838Z" fill="#16110D"/>
<path d="M44.7303 104.509C44.3202 104.509 43.91 104.373 43.4998 104.237L17.9319 89.5139C17.5217 89.2413 17.2483 88.9686 17.2483 88.4233C17.2483 88.0144 17.385 87.6054 17.6585 87.1964L24.6315 79.8351C25.3152 79.1534 26.2722 79.0171 27.0926 79.4261L52.5237 93.7399C53.0707 94.0126 53.4808 94.5578 53.6176 95.2395C53.7543 95.9211 53.4808 96.4663 53.0706 97.0116L46.6445 103.691C45.9609 104.373 45.2772 104.509 44.7303 104.509ZM25.9988 79.5624C25.5886 79.5624 25.0417 79.6987 24.7683 80.1077L17.7952 87.4691C17.5217 87.7417 17.385 88.1507 17.5217 88.4233C17.5217 88.8323 17.7952 89.105 18.0687 89.2413L43.6365 103.964C44.4569 104.509 45.5507 104.373 46.2343 103.555L52.6605 96.8753C53.0706 96.4663 53.2074 95.9211 53.2074 95.3758C53.0707 94.8305 52.7972 94.2852 52.2503 94.0126L26.8191 79.6987C26.5457 79.5624 26.2722 79.5624 25.9988 79.5624Z" fill="#16110D"/>
<path d="M51.0199 62.9311L40.9021 57.0693L41.0388 56.933L102.839 21.3529L112.957 27.2148L112.82 27.3511L51.0199 62.9311ZM41.449 57.0693L51.0199 62.6585L112.41 27.2148L102.839 21.6255L41.449 57.0693Z" fill="#16110D"/>
<path d="M62.505 61.0226L45.1408 51.0711C44.1837 50.5258 44.3204 49.5716 45.4142 49.0263L51.7036 45.4819C52.7975 44.9366 54.3014 44.8003 55.2585 45.3456L72.6228 55.2971C73.5799 55.8424 73.4432 56.7967 72.3493 57.3419L66.0599 60.8863C65.1028 61.4316 63.4621 61.5679 62.505 61.0226Z" fill="#98509B"/>
<path d="M73.0329 53.7976L55.6686 43.846C54.7115 43.3008 52.9341 43.3008 51.8403 43.9824L45.5508 47.5267C44.8672 47.9357 44.5938 48.3447 44.5938 48.89C44.5938 49.2989 44.8672 49.7079 45.2774 49.9805L62.6417 59.932C63.0518 60.2047 63.7355 60.341 64.2824 60.341C64.966 60.341 65.7864 60.2047 66.47 59.7957L72.7594 56.2514C73.4431 55.8424 73.7165 55.4334 73.7165 54.8881C73.7165 54.4792 73.4431 54.0702 73.0329 53.7976ZM72.486 55.8424L66.1966 59.3868C65.2395 59.932 63.7355 60.0684 62.9151 59.5231L45.8243 49.7079L52.1137 46.1635C53.0708 45.6182 54.7115 45.4819 55.5319 46.0272L72.486 55.8424ZM72.7594 55.5697L55.5319 45.6182C54.5748 45.0729 52.9341 45.0729 51.8403 45.7546L45.5508 49.2989C45.5508 49.2989 45.4141 49.2989 45.4141 49.4352C45.2774 49.2989 45.0039 49.1626 45.0039 48.89C45.0039 48.6173 45.2774 48.2084 45.6876 47.9357L51.977 44.3913C52.9341 43.846 54.4381 43.7097 55.2584 44.255L72.7594 54.2065C73.0329 54.3428 73.1696 54.6155 73.1696 54.8881C73.1696 55.1608 73.0329 55.4334 72.7594 55.5697Z" fill="#16110D"/>
<path d="M53.8911 51.0711C53.481 51.3437 53.3442 51.6164 53.3442 51.889C53.3442 52.1617 53.481 52.4343 53.7544 52.5706L58.2664 55.1608C58.5398 55.2971 58.8133 55.4334 59.2235 55.4334C59.6337 55.4334 60.0438 55.2971 60.454 55.1608C60.8642 54.8881 61.0009 54.6155 61.0009 54.3428C61.0009 54.0702 60.8642 53.7975 60.5907 53.6612L56.0788 51.0711C55.3951 50.6621 54.4381 50.7985 53.8911 51.0711Z" fill="#16110D"/>
<path d="M19.7095 96.0574L16.2913 94.1489C16.0179 94.0126 15.7444 94.0126 15.471 94.1489C15.1975 94.2852 15.0608 94.5578 15.0608 94.9668V101.374C15.0608 102.056 15.471 102.737 16.0179 103.146L19.436 104.918C19.5728 105.055 19.7095 105.055 19.8462 105.055C19.9829 105.055 20.1197 105.055 20.1197 104.918C20.3931 104.782 20.5299 104.509 20.5299 104.1V97.6932C20.6666 97.0116 20.2564 96.33 19.7095 96.0574ZM19.5728 103.964C19.5728 104.1 19.5728 104.237 19.436 104.237L16.5648 102.601C16.4281 102.328 16.2913 102.192 16.2913 101.919V101.783C16.2913 101.647 16.2913 101.51 16.4281 101.374C16.4281 101.374 16.4281 101.374 16.5648 101.374H16.7015L19.0259 102.737C19.2993 103.01 19.5728 103.419 19.5728 103.964Z" fill="#98509B"/>
<path d="M19.9829 106.009L16.0179 103.691C15.8811 103.555 15.6077 103.555 15.471 103.691C15.3342 103.828 15.1975 103.964 15.1975 104.237V105.055C15.1975 105.464 15.471 106.009 15.7444 106.145L19.7095 108.463C19.8462 108.463 19.9829 108.599 19.9829 108.599C20.1197 108.599 20.1197 108.599 20.2564 108.599C20.3931 108.463 20.5298 108.326 20.5298 108.054V107.236C20.6666 106.69 20.3931 106.282 19.9829 106.009Z" fill="#98509B"/>
<path d="M47.4651 112.007L44.0469 110.099C43.7735 109.962 43.5 109.962 43.2266 110.099C42.9531 110.235 42.8164 110.508 42.8164 110.917V117.324C42.8164 118.005 43.2266 118.687 43.7735 119.096L47.1917 121.004C47.3284 121.141 47.4651 121.141 47.6018 121.141C47.7386 121.141 47.8753 121.141 47.8753 121.004C48.1487 120.868 48.2855 120.595 48.2855 120.186V113.779C48.4222 113.098 48.012 112.28 47.4651 112.007ZM47.3284 120.05C47.3284 120.186 47.3284 120.323 47.1917 120.323L44.3204 118.687C44.1837 118.414 44.0469 118.278 44.0469 118.005V117.869C44.0469 117.733 44.0469 117.596 44.1837 117.46C44.3204 117.46 44.3204 117.46 44.4571 117.46L46.7815 118.823C47.0549 119.096 47.3284 119.505 47.3284 120.05Z" fill="#98509B"/>
<path d="M47.8753 122.095L43.9102 119.777C43.7735 119.641 43.5 119.641 43.3633 119.777C43.2266 119.914 43.0898 120.05 43.0898 120.323V121.141C43.0898 121.55 43.3633 122.095 43.6368 122.231L47.6018 124.549C47.7386 124.549 47.8753 124.685 47.8753 124.685C48.012 124.685 48.012 124.685 48.1487 124.685C48.2855 124.549 48.4222 124.412 48.4222 124.14V123.322C48.4222 122.776 48.1487 122.231 47.8753 122.095Z" fill="#98509B"/>
<path d="M40.2185 107.917L23.5379 98.3749C23.2645 98.2386 22.991 98.2386 22.7176 98.3749C22.4441 98.5112 22.3074 98.9202 22.3074 99.3291V108.872C22.3074 109.553 22.7176 110.508 23.2645 110.78L39.9451 120.323C40.0818 120.459 40.2185 120.459 40.492 120.459C40.6287 120.459 40.7655 120.459 40.9022 120.323C41.1756 120.186 41.3124 119.777 41.3124 119.368V109.826C41.3124 109.144 40.9022 108.326 40.2185 107.917Z" fill="#98509B"/>
<path d="M75.2206 120.595C75.2206 120.595 73.0329 122.231 68.1108 117.46C63.3254 112.689 60.5908 111.734 60.5908 111.734L69.3413 107.508L72.0759 107.781L75.2206 120.595Z" fill="#98509B"/>
<path d="M74.1268 121.141C72.8962 121.141 70.9821 120.595 67.9741 117.733C63.1887 113.098 60.4541 112.007 60.4541 112.007L59.9072 111.734L69.3414 107.236L72.3493 107.508L75.494 120.732L75.3573 120.868C75.3573 120.868 74.9471 121.141 74.1268 121.141ZM61.2745 111.734C62.3683 112.28 64.8294 113.779 68.3843 117.324C72.2126 121.141 74.4002 120.732 74.9471 120.459L71.9392 107.917L69.4781 107.781L61.2745 111.734Z" fill="#16110D"/>
<path d="M119.793 94.1489C119.793 94.1489 117.606 95.7847 112.684 91.0135C107.898 86.2422 105.164 85.2879 105.164 85.2879L113.914 81.062L116.649 81.3346L119.793 94.1489Z" fill="#98509B"/>
<path d="M118.7 94.6942C117.469 94.6942 115.555 94.1489 112.547 91.2861C107.898 86.6512 105.027 85.5606 105.027 85.5606L104.48 85.2879L113.914 80.7893L116.922 81.062L120.067 94.2852L119.93 94.4215C119.93 94.4215 119.52 94.6942 118.7 94.6942ZM105.847 85.2879C106.941 85.8332 109.402 87.3328 112.957 90.8771C116.785 94.6941 118.973 94.2852 119.52 94.0125L116.512 81.4709L114.051 81.3346L105.847 85.2879Z" fill="#16110D"/>
<path d="M67.1538 121.413L69.3414 116.233L64.8294 113.507C64.6927 113.234 64.556 113.098 64.4193 113.098C64.0091 112.961 63.7356 112.825 63.3255 112.689C60.044 112.143 56.8993 115.551 56.079 120.186C55.3953 123.731 54.9851 126.321 57.5829 127.548L58.54 128.229L62.7786 130.819L65.6498 125.503C66.4702 124.412 67.0171 123.049 67.2905 121.686C67.1538 121.686 67.1538 121.55 67.1538 121.413Z" fill="#98509B"/>
<path d="M71.1188 117.46C70.7086 116.915 70.2984 116.369 69.7515 115.96L65.1028 113.098C64.8294 112.961 64.6926 112.825 64.4192 112.689C64.009 112.552 63.5988 112.416 63.1887 112.28C59.7705 111.734 56.4891 115.006 55.532 119.914C54.8483 123.322 54.3014 126.185 57.036 127.548C57.036 127.548 57.1727 127.684 57.4461 127.82C57.7196 127.957 57.993 128.229 57.993 128.229L61.8214 130.683C62.505 131.365 63.3254 131.637 64.2825 131.774C64.4192 131.774 64.5559 131.774 64.8294 131.774C67.8374 131.774 70.9821 128.638 71.9391 124.549C72.7595 122.095 72.3493 119.368 71.1188 117.46ZM57.8563 127.548C57.5829 127.411 57.4461 127.275 57.4461 127.275C55.1218 126.048 55.3952 123.731 56.0789 120.186C56.8992 115.96 59.6338 112.825 62.3683 112.825C62.6417 112.825 62.7785 112.825 63.0519 112.825C63.4621 112.825 63.7356 112.961 64.1457 113.234C64.2825 113.37 64.5559 113.37 64.6926 113.507L67.4272 115.142C64.1457 115.006 60.8643 118.278 59.9072 122.913C59.497 125.367 59.7705 127.684 60.8643 129.456L58.4032 127.957C58.4032 127.957 58.1298 127.82 57.8563 127.548Z" fill="#16110D"/>
<path d="M65.6498 129.456C65.5131 129.456 65.3763 129.456 65.3763 129.456C64.556 129.32 63.8724 128.911 63.3255 128.229C62.5051 127.139 62.2316 125.367 62.6418 123.594C63.3255 120.459 65.5131 118.278 67.7007 118.551C68.5211 118.687 69.2047 119.096 69.6149 119.914C70.4352 121.141 70.7087 122.913 70.2985 124.685C69.4781 127.411 67.564 129.456 65.6498 129.456ZM67.1538 118.959C65.3764 118.959 63.4622 121.004 62.9153 123.594C62.6418 125.23 62.7785 126.866 63.5989 127.957C64.0091 128.638 64.6927 128.911 65.3763 129.047C67.1538 129.32 69.2047 127.275 69.7516 124.549C70.1618 122.913 69.8883 121.141 69.2047 120.05C68.7945 119.368 68.2476 118.959 67.564 118.959C67.4272 118.959 67.2905 118.959 67.1538 118.959Z" fill="#98509B"/>
<path d="M65.2396 127.411C65.1029 127.411 65.1029 127.411 64.9662 127.411C64.4193 127.411 64.0091 127.139 63.7356 126.594C63.1887 125.912 63.052 124.821 63.3254 123.594C63.7356 121.686 65.1029 120.186 66.4702 120.459C67.0171 120.595 67.4272 120.868 67.7007 121.277C68.2476 122.095 68.3843 123.185 68.1109 124.276C67.8374 126.185 66.4702 127.411 65.2396 127.411ZM66.1967 120.868C65.1029 120.868 64.0091 122.095 63.5989 123.731C63.4622 124.685 63.5989 125.776 64.0091 126.321C64.2825 126.73 64.556 126.866 64.9662 127.002C66.06 127.139 67.2905 125.912 67.7007 124.276C67.9741 123.185 67.8374 122.231 67.2905 121.55C67.0171 121.141 66.7436 121.004 66.3334 120.868C66.3334 120.868 66.3334 120.868 66.1967 120.868Z" fill="#98509B"/>
<path d="M65.7865 126.594L65.2396 126.321C65.1028 126.321 65.1028 126.185 64.9661 126.185L64.8294 126.048C64.2825 125.503 64.1457 124.685 64.2825 123.731C64.5559 122.368 65.6497 121.413 66.6068 121.55C66.6068 121.55 66.6068 121.55 66.7435 121.55L66.8803 121.686C66.8803 121.686 67.017 121.686 67.017 121.822L67.5639 122.095L67.8374 124.549L67.2904 125.367C67.1537 125.639 66.8803 125.776 66.7435 126.048L65.7865 126.594ZM65.1028 125.912C65.2396 125.912 65.2396 126.048 65.3763 126.048L65.7865 126.321L66.4701 125.776C66.6068 125.639 66.8803 125.503 67.017 125.23L67.7006 124.549L67.4272 122.368L66.8803 122.095C66.8803 122.095 66.7435 122.095 66.7435 121.959H66.6068H66.4701C65.6497 121.822 64.6927 122.64 64.4192 123.867C64.4192 124.685 64.5559 125.503 65.1028 125.912Z" fill="#98509B"/>
<path d="M68.1109 124.549C67.8374 125.776 66.8803 126.594 65.9232 126.457C65.1029 126.321 64.556 125.23 64.8294 124.003C65.1029 122.64 66.06 121.822 67.0171 121.959C68.1109 122.231 68.521 123.322 68.1109 124.549Z" fill="#16110D"/>
<path d="M66.1966 126.73H66.0599C65.6497 126.73 65.3762 126.457 65.1028 126.185C64.6926 125.639 64.6926 124.821 64.8293 124.14C65.1028 122.777 66.1966 121.822 67.1537 121.959C67.5639 121.959 67.8373 122.231 67.974 122.64C68.3842 123.186 68.3842 124.003 68.2475 124.821C67.974 125.776 67.017 126.73 66.1966 126.73ZM67.017 122.095C66.1966 122.095 65.3762 122.913 65.2395 124.003C65.1028 124.685 65.1028 125.367 65.513 125.912C65.6497 126.185 65.9231 126.321 66.1966 126.321C67.017 126.457 67.8373 125.639 68.1108 124.412C68.2475 123.731 68.2475 122.913 67.974 122.504C67.8373 122.231 67.5639 122.095 67.2904 121.959C67.1537 122.095 67.017 122.095 67.017 122.095Z" fill="#98509B"/>
<path d="M112.547 96.0574L114.734 90.8772L110.223 88.1507C110.086 88.0144 109.812 87.8781 109.676 87.7418C109.265 87.6054 108.992 87.4691 108.582 87.3328C105.3 86.7875 102.156 90.1955 101.335 94.8305C100.652 98.3749 100.241 100.965 102.839 102.192L103.796 102.873L108.035 105.464L110.906 100.147C111.727 99.0565 112.273 97.6933 112.547 96.33C112.41 96.33 112.41 96.1937 112.547 96.0574Z" fill="#98509B"/>
<path d="M116.512 92.2404C116.102 91.6951 115.692 91.1498 115.145 90.7408L110.496 87.8781C110.223 87.7418 110.086 87.6054 109.813 87.4691C109.402 87.3328 108.992 87.1965 108.582 87.0602C105.164 86.5149 101.882 89.7866 100.925 94.6942C100.242 98.1022 99.6947 100.965 102.429 102.328C102.429 102.328 102.566 102.465 102.839 102.601C103.113 102.737 103.386 103.01 103.386 103.01L107.215 105.464C107.898 106.145 108.719 106.418 109.676 106.554C109.813 106.554 109.949 106.554 110.223 106.554C113.231 106.554 116.375 103.419 117.332 99.3291C118.016 96.739 117.743 94.1489 116.512 92.2404ZM103.25 102.328C102.976 102.192 102.839 102.056 102.839 102.056C100.515 100.829 100.789 98.5112 101.472 94.9668C102.293 90.7408 105.027 87.6054 107.762 87.6054C108.035 87.6054 108.172 87.6054 108.445 87.6054C108.855 87.6054 109.129 87.7418 109.539 88.0144C109.676 88.1507 109.949 88.1507 110.086 88.2871L112.82 89.9229C109.539 89.7866 106.258 93.0583 105.301 97.6933C104.89 100.147 105.164 102.465 106.258 104.237L103.797 102.737C103.797 102.737 103.523 102.601 103.25 102.328Z" fill="#16110D"/>
<path d="M110.906 104.237C110.769 104.237 110.633 104.237 110.633 104.237C109.812 104.1 109.129 103.691 108.582 103.01C107.761 101.919 107.488 100.147 107.898 98.3749C108.582 95.2395 110.769 93.0583 112.957 93.331C113.777 93.4673 114.461 93.8763 114.871 94.6942C115.692 95.9211 115.965 97.6933 115.555 99.4655C114.871 102.192 112.82 104.237 110.906 104.237ZM112.41 93.7399C110.633 93.7399 108.719 95.7848 108.172 98.3749C107.898 100.011 108.035 101.647 108.855 102.737C109.265 103.419 109.949 103.691 110.633 103.828C112.41 104.1 114.461 102.056 115.008 99.3291C115.418 97.6933 115.145 95.9211 114.461 94.8305C114.051 94.1489 113.504 93.7399 112.82 93.7399C112.684 93.7399 112.547 93.7399 112.41 93.7399Z" fill="#98509B"/>
<path d="M110.633 102.192C110.496 102.192 110.496 102.192 110.359 102.192C109.812 102.192 109.402 101.919 109.129 101.374C108.582 100.692 108.445 99.6018 108.719 98.3749C109.129 96.4664 110.496 94.9669 111.863 95.2395C112.41 95.3758 112.82 95.6485 113.094 96.0574C113.641 96.8754 113.777 97.9659 113.504 99.0565C113.094 100.829 111.863 102.192 110.633 102.192ZM111.59 95.6485C110.496 95.6485 109.402 96.8754 108.992 98.5112C108.855 99.4655 108.992 100.556 109.402 101.101C109.676 101.51 109.949 101.647 110.359 101.783C111.453 101.919 112.684 100.692 113.094 99.0565C113.367 97.9659 113.23 97.0117 112.684 96.3301C112.41 95.9211 112.137 95.7848 111.726 95.6485H111.59Z" fill="#98509B"/>
<path d="M111.043 101.374L110.496 101.101C110.359 101.101 110.359 100.965 110.223 100.965L110.086 100.829C109.539 100.283 109.402 99.4654 109.539 98.5112C109.813 97.148 110.906 96.1937 111.863 96.33C111.863 96.33 111.863 96.33 112 96.33L112.137 96.4664C112.137 96.4664 112.274 96.4664 112.274 96.6027L112.82 96.8753L113.094 99.3291L112.274 100.147C112.137 100.42 111.863 100.556 111.727 100.829L111.043 101.374ZM110.359 100.692C110.496 100.692 110.496 100.829 110.633 100.829L111.043 101.101L111.727 100.556C111.863 100.42 112.137 100.283 112.274 100.011L112.957 99.3291L112.684 97.148L112.274 96.739C112.274 96.739 112.137 96.739 112.137 96.6027H112H111.863C111.043 96.4664 110.086 97.2843 109.813 98.5112C109.676 99.4654 109.813 100.283 110.359 100.692Z" fill="#98509B"/>
<path d="M113.504 99.3291C113.23 100.556 112.273 101.374 111.316 101.238C110.496 101.101 109.949 100.011 110.223 98.7838C110.496 97.4206 111.453 96.6027 112.41 96.739C113.367 96.8753 113.777 98.1022 113.504 99.3291Z" fill="#16110D"/>
<path d="M111.59 101.51H111.453C111.043 101.51 110.77 101.238 110.496 100.965C110.086 100.42 110.086 99.6018 110.223 98.9202C110.496 97.557 111.59 96.6027 112.547 96.739C112.957 96.8753 113.231 97.0117 113.367 97.4206C113.778 97.9659 113.778 98.7839 113.641 99.6018C113.231 100.556 112.41 101.51 111.59 101.51ZM112.274 96.8753C111.453 96.8753 110.633 97.6933 110.496 98.7839C110.359 99.4655 110.359 100.147 110.77 100.692C110.906 100.965 111.18 101.101 111.453 101.101C112.274 101.238 113.094 100.42 113.367 99.1928C113.504 98.5112 113.504 97.6933 113.231 97.2843C113.094 97.0117 112.82 96.8753 112.547 96.739C112.41 96.8753 112.274 96.8753 112.274 96.8753Z" fill="#98509B"/>
<path d="M68.7945 125.094C68.521 126.321 67.5639 127.139 66.6068 127.003C65.7865 126.866 65.2396 125.776 65.513 124.549C65.7865 123.186 66.7436 122.368 67.7007 122.504C68.7945 122.64 69.2046 123.867 68.7945 125.094Z" fill="#FFE1FA"/>
<path d="M114.188 99.8744C113.914 101.101 112.957 101.919 112 101.783C111.18 101.647 110.633 100.556 110.906 99.3291C111.18 97.9659 112.137 97.148 113.094 97.2843C114.051 97.4206 114.461 98.6475 114.188 99.8744Z" fill="#FFE1FA"/>
<path d="M126.493 35.803L67.2903 70.0199C66.47 70.4289 65.7863 71.5194 65.5129 72.4737L61.2743 95.6484L50.8831 106.418C50.1995 107.372 49.7893 108.463 49.7893 109.417L49.6526 124.958V126.457V130.683L57.7195 126.457C58.1296 126.185 58.2664 125.912 58.2664 125.503L58.5398 123.049C58.95 120.459 60.5907 115.279 64.5558 112.825C71.6656 108.463 73.9899 117.46 73.8532 120.05V120.323C73.8532 121.004 74.5368 121.413 75.0837 121.004L103.113 104.918C103.386 104.782 103.523 104.509 103.523 104.373L103.66 102.737C103.66 102.465 103.66 102.192 103.66 101.783C103.66 99.0565 104.343 90.8772 109.949 87.6054C117.606 83.2431 118.016 92.2404 118.426 93.8763C118.563 94.5579 119.11 94.6942 119.657 94.2852L126.356 90.4682C127.313 89.9229 128.134 88.5597 128.134 87.4691V36.7573C128.134 35.803 127.313 35.2578 126.493 35.803Z" fill="#16110D"/>
<path d="M57.7194 127.411L55.2583 125.912C54.7114 125.639 54.0278 125.639 53.4809 125.912L50.0627 127.957C49.2424 128.366 48.2853 128.366 47.6016 127.957L12.3262 107.508V104.918V101.51C12.3262 100.965 11.7793 100.692 11.2324 100.965L4.25933 105.055C3.57569 105.464 3.30224 106.009 3.43897 106.554V109.008C3.43897 109.144 3.43897 109.281 3.43897 109.417C3.57569 110.099 4.1226 110.644 5.07969 111.325L46.918 135.318C48.2853 136.136 50.0627 136.136 51.43 135.318L57.7194 131.774C57.9929 131.637 58.1296 131.365 58.1296 131.092V130.956V128.229C58.1296 127.82 57.9929 127.548 57.7194 127.411Z" fill="#FFE1FA"/>
<path d="M58.4031 128.229C58.4031 127.82 58.2664 127.411 57.8562 127.139L55.3951 125.639C54.8482 125.23 54.0279 125.23 53.3442 125.639L49.9261 127.684C49.2424 128.093 48.4221 128.093 47.6017 127.684L12.5997 107.372V105.191V101.51C12.5997 101.101 12.463 100.829 12.0528 100.692C11.7794 100.556 11.3692 100.556 11.0957 100.692L4.12269 104.782C3.43905 105.191 3.02887 105.873 3.1656 106.418V108.872C3.1656 109.008 3.1656 109.144 3.1656 109.417C3.30233 110.099 3.98596 110.916 4.94305 111.462L46.7814 135.454C47.465 135.863 48.2854 136.136 49.2424 136.136C50.0628 136.136 50.8832 135.863 51.5668 135.454L57.8562 131.91C58.1297 131.774 58.4031 131.365 58.4031 131.092C58.4031 130.956 58.4031 130.956 58.4031 130.956V128.229ZM3.71251 106.418C3.57578 106.009 3.84923 105.6 4.39614 105.191L11.3692 101.101C11.3692 101.101 11.5059 101.101 11.6426 101.101C11.7794 101.101 11.7794 101.101 11.7794 101.101C11.9161 101.238 12.0528 101.374 12.0528 101.51V104.646V104.918L10.8223 105.736C10.6856 105.873 10.5488 106.145 10.5488 106.282C10.5488 106.554 10.6856 106.69 10.8223 106.827L12.0528 107.508V107.645L47.465 128.093C48.2854 128.638 49.3792 128.638 50.1995 128.093L53.6177 126.048C54.0279 125.776 54.5748 125.776 54.985 126.048L57.446 127.548C57.5828 127.684 57.7195 127.82 57.7195 128.093V128.366C57.7195 128.502 57.5828 128.502 57.446 128.502L51.1566 132.046C49.7894 132.864 48.1486 132.864 46.7814 132.046L5.2165 108.19C4.53287 107.781 3.98596 107.236 3.71251 106.827V106.418Z" fill="#16110D"/>
<path d="M134.423 84.061L127.997 80.244V82.5615V84.061V87.0601L124.716 88.8323C124.579 88.9686 124.442 89.1049 124.442 89.2413V91.9677V92.3767C124.442 92.513 124.579 92.7856 124.716 92.7856L126.493 93.8762C127.04 94.1489 127.587 94.1489 127.997 93.8762L134.423 89.9229C134.97 89.6502 135.244 89.1049 135.244 88.5597C135.244 88.5597 135.244 88.5597 135.244 88.4233V85.4242C135.38 85.0153 135.107 84.3337 134.423 84.061Z" fill="#FFE1FA"/>
<path d="M135.517 85.2879C135.517 84.6063 135.107 84.1974 134.56 83.7884L127.724 79.6987V86.7875L124.579 88.5597C124.305 88.696 124.169 88.9686 124.169 89.2413V92.3767C124.169 92.6493 124.305 92.922 124.579 93.0583L126.356 94.1489C126.63 94.2852 126.903 94.4215 127.313 94.4215C127.587 94.4215 127.997 94.2852 128.27 94.1489L134.697 90.1955C135.244 89.9229 135.517 89.3776 135.654 88.696V85.4243L135.517 85.2879ZM124.989 89.105L129.501 86.3785C129.774 86.2422 130.048 85.8332 130.048 85.4243C130.048 85.0153 129.911 84.7426 129.501 84.47L128.27 83.6521V82.1525V80.3803L134.286 84.061C134.697 84.3337 134.97 84.879 134.97 85.4243V85.6969V85.9695C134.833 86.2422 134.697 86.5148 134.286 86.6512L127.86 90.6045C127.45 90.8771 126.903 90.8771 126.493 90.6045L124.852 89.6502C124.716 89.5139 124.716 89.3776 124.716 89.2413C124.716 89.3776 124.852 89.2413 124.989 89.105Z" fill="#16110D"/>
<path d="M100.241 102.873L97.6436 104.373C97.3701 104.509 97.0967 104.373 97.0967 103.964V101.238C97.0967 100.829 97.3701 100.283 97.6436 100.147L100.241 98.6475C100.515 98.5112 100.788 98.6475 100.788 99.0565V101.783C100.788 102.192 100.515 102.737 100.241 102.873Z" fill="#98509B"/>
<path d="M125.399 77.5176L123.211 78.8808C122.938 79.0172 122.665 79.4261 122.665 79.8351V80.5167C122.665 80.7893 122.801 80.9257 122.938 81.062C123.075 81.062 123.075 81.062 123.211 81.062C123.348 81.062 123.348 81.062 123.485 80.9257L125.673 79.5624C125.946 79.4261 126.219 79.0172 126.219 78.6082V77.9266C126.219 77.6539 126.083 77.5176 125.946 77.3813C125.809 77.5176 125.673 77.5176 125.399 77.5176Z" fill="#98509B"/>
<path d="M80.1426 93.0583C80.2793 93.0583 80.2793 93.0583 80.416 93.0583C80.5528 93.0583 80.5528 93.0583 80.6895 92.922L84.5178 90.7408C84.7913 90.6045 85.0648 90.0592 85.0648 89.6502V88.4233C85.0648 88.1507 84.928 88.0144 84.7913 87.8781C84.6546 87.7417 84.3811 87.7417 84.2444 87.8781L80.416 90.0592C80.1426 90.1955 79.8691 90.7408 79.8691 91.1498V92.3767C79.8691 92.7857 80.0059 92.922 80.1426 93.0583ZM81.0997 92.104V91.2861C81.0997 91.1498 81.2364 91.0135 81.2364 90.8771L83.5608 89.5139C83.5608 89.5139 83.5608 89.5139 83.5608 89.6502V90.4682V90.6045L81.0997 92.104ZM80.2793 91.1498C80.2793 90.8771 80.416 90.6045 80.5528 90.4682L84.3811 88.287C84.3811 88.287 84.3811 88.287 84.3811 88.4233V89.6502C84.3811 89.9229 84.2444 90.1955 84.1077 90.3319L83.8342 90.4682V89.6502C83.8342 89.5139 83.8342 89.3776 83.6975 89.3776C83.5608 89.3776 83.424 89.3776 83.424 89.3776L81.0997 90.7408C80.963 90.8771 80.8262 91.1498 80.8262 91.4224V92.2404V92.3767L80.416 92.6493C80.416 92.6493 80.416 92.6493 80.416 92.513V91.1498H80.2793Z" fill="#98509B"/>
<path d="M128.134 63.6127V63.3401L87.936 86.1059C87.936 85.8332 87.936 85.5606 87.936 85.2879V80.9256L128.134 58.1599V57.8872L87.936 80.5167V64.976C87.936 64.567 87.6626 64.158 87.2524 63.8854C86.8422 63.6127 86.432 63.6127 86.0218 63.8854L76.3143 69.3383C75.3572 69.8836 74.8103 70.8378 74.8103 71.9284V87.7417L72.3492 89.105V73.5642C72.3492 73.1553 72.0757 72.7463 71.8023 72.4737C71.3921 72.201 70.9819 72.201 70.5717 72.4737L68.3841 73.7006C67.5638 74.1095 67.0169 74.9275 66.8801 75.7454L63.7354 93.6036C63.7354 93.7399 63.7354 93.8762 63.7354 94.1489L61.1376 95.6484L60.8642 96.0574L63.7354 94.4215C63.8721 94.8305 64.1456 95.1031 64.5558 95.3758L66.7434 96.4664L71.1187 94.0126C71.939 93.6036 72.4859 92.6493 72.4859 91.6951V89.5139L74.947 88.1507V93.4673L50.3362 107.372L50.0628 107.781L74.8103 93.7399V95.5121L49.7893 109.69V109.962L74.947 95.7847V98.2385L56.6256 108.599C56.6256 108.326 56.4889 108.19 56.3522 108.054C56.2155 107.917 56.0787 107.917 55.8053 108.054L53.6176 109.417C53.3442 109.553 53.0707 109.962 53.0707 110.371V110.644L49.7893 112.552V112.825L53.0707 110.917V111.053C53.0707 111.325 53.2075 111.462 53.3442 111.598C53.4809 111.598 53.4809 111.598 53.6176 111.598C53.7544 111.598 53.7544 111.598 53.8911 111.462L56.0787 110.099C56.3522 109.962 56.6256 109.553 56.6256 109.144V109.008L74.947 98.6475V112.689C74.947 113.234 75.2204 113.643 75.6306 113.916C75.9041 114.052 76.1775 114.052 76.3143 114.052C76.5877 114.052 76.8612 114.052 76.9979 113.916L83.8342 110.099C84.7913 109.553 85.3382 108.599 85.4749 107.645L87.3891 91.6951L127.997 68.6567V68.384L87.5258 91.2861V91.1498C87.6626 90.3319 87.6626 89.3776 87.7993 88.5597L127.997 65.7939V65.5212L87.7993 88.1507C87.7993 87.6054 87.7993 86.9238 87.7993 86.3785L128.134 63.6127ZM70.7085 73.019L70.9819 72.8826C71.1187 72.8826 71.2554 72.7463 71.3921 72.7463C71.5288 72.7463 71.6656 72.7463 71.8023 72.8826C72.0757 73.019 72.2125 73.2916 72.2125 73.5642V91.6951C72.2125 92.513 71.8023 93.1946 71.1187 93.6036L67.0169 95.9211L65.6496 95.2395L69.6147 92.922C70.435 92.513 70.8452 91.5588 70.8452 90.7408V73.019H70.7085ZM64.2823 93.7399L67.427 75.8817C67.5638 75.0638 67.9739 74.5185 68.6576 74.1095L70.435 73.1553V90.6045C70.435 91.4224 70.0248 92.2404 69.3412 92.6493L65.2394 95.1031L64.966 94.9668C64.419 94.6942 64.1456 94.2852 64.2823 93.7399ZM86.1586 64.4307L86.2953 64.2943C86.432 64.2943 86.5688 64.158 86.7055 64.158C86.8422 64.158 86.9789 64.158 87.1157 64.2943C87.3891 64.4307 87.5258 64.7033 87.5258 64.976V85.2879C87.5258 87.1965 87.3891 89.105 87.1157 91.0135L85.2015 107.508C85.0648 108.326 84.5179 109.144 83.8342 109.553L76.9979 113.37C76.7244 113.507 76.3143 113.507 76.0408 113.37C75.6306 113.37 75.4939 113.098 75.4939 112.825L82.1935 109.008C83.0139 108.463 83.6975 107.645 83.8342 106.554L85.7484 90.0592C86.0218 88.1507 86.1586 86.1059 86.1586 84.1974V64.4307ZM76.7244 69.8835L85.8851 64.7033V84.3337C85.8851 86.2422 85.7484 88.1507 85.4749 90.1955L83.5608 106.691C83.424 107.645 82.8771 108.463 82.0568 108.872L75.4939 112.416V71.9284C75.4939 71.1104 75.9041 70.2925 76.7244 69.8835Z" fill="#98509B"/>
<path d="M128.134 86.9239V65.7939L128.407 65.6576V86.7875L128.134 86.9239Z" fill="#98509B"/>
<path d="M45.4142 64.7034L31.7415 56.933C31.3313 56.6604 30.9211 56.6604 30.511 56.933C30.1008 57.0693 29.8273 57.4783 29.6906 57.8873L27.0928 71.9284C26.9561 72.8827 27.3663 73.8369 28.1866 74.3822L41.3124 82.0163C41.5858 82.1526 41.8593 82.2889 42.1327 82.2889C42.4062 82.2889 42.5429 82.2889 42.8164 82.1526C43.2265 81.8799 43.6367 81.6073 43.6367 81.062L46.3712 67.1572C46.6447 66.0666 46.0978 65.1123 45.4142 64.7034Z" fill="#98509B"/>
<path d="M62.9151 74.7911L49.3792 67.0208C48.969 66.7481 48.5588 66.7481 48.1487 67.0208C47.7385 67.1571 47.465 67.5661 47.3283 67.975L44.7305 82.0162C44.5938 82.9704 45.004 83.9247 45.8243 84.47L58.9501 92.104C59.2235 92.2403 59.497 92.3767 59.7704 92.3767C60.0439 92.3767 60.1806 92.3767 60.4541 92.2403C60.8642 91.9677 61.2744 91.6951 61.2744 91.1498L64.0089 77.2449C64.1457 76.1543 63.7355 75.3364 62.9151 74.7911Z" fill="#98509B"/>
<path d="M62.0948 73.2916L48.5589 65.5213C48.1487 65.2486 47.7385 65.2486 47.3284 65.5213C46.9182 65.6576 46.6447 66.0665 46.508 66.4755L43.9102 80.5167C43.7735 81.4709 44.1836 82.4252 45.004 82.9705L58.1297 90.6045C58.4032 90.7408 58.6767 90.8772 58.9501 90.8772C59.2236 90.8772 59.3603 90.8772 59.6337 90.7408C60.0439 90.4682 60.4541 90.1956 60.4541 89.6503L63.1886 75.7454C63.3253 74.6548 62.9152 73.8369 62.0948 73.2916ZM61.8214 73.8369C62.3683 74.2459 62.7784 74.9275 62.6417 75.4728L59.9072 89.105L47.1916 81.7436C46.508 81.3346 46.0978 80.5167 46.2345 79.6988L48.6956 66.2029L61.8214 73.8369ZM59.3603 90.0592C59.0868 90.1956 58.6766 90.1956 58.4032 90.0592L45.2775 82.4252C44.5938 82.0162 44.3204 81.3346 44.4571 80.5167L47.0549 66.4755C47.0549 66.2029 47.3283 65.9302 47.4651 65.7939C47.6018 65.7939 47.7385 65.6576 47.8753 65.6576C48.012 65.6576 48.1487 65.6576 48.2854 65.7939L48.4222 65.9302L45.9611 79.4261C45.8244 80.3804 46.2345 81.3346 47.0549 81.7436L59.9072 89.2413C59.7705 89.7866 59.6337 89.9229 59.3603 90.0592Z" fill="#16110D"/>
<path d="M44.5938 63.2038L31.0579 55.4334C30.6477 55.1608 30.2376 55.1608 29.8274 55.4334C29.4172 55.5697 29.1437 55.9787 29.007 56.3877L26.4092 70.4289C26.2725 71.3831 26.6827 72.3374 27.503 72.8827L40.6288 80.5167C40.9022 80.653 41.1757 80.7893 41.4491 80.7893C41.7226 80.7893 41.8593 80.7893 42.1328 80.653C42.5429 80.3804 42.9531 80.1077 42.9531 79.5624L45.6877 65.6576C45.8244 64.567 45.4142 63.6128 44.5938 63.2038ZM44.3204 63.6128C44.8673 64.0217 45.2775 64.567 45.1407 65.2486L42.4062 78.8808L29.6906 71.5194C29.007 71.1105 28.5968 70.2925 28.7336 69.4746L31.1946 55.9787L44.3204 63.6128ZM41.7226 79.9714C41.4491 80.1077 41.039 80.1077 40.7655 79.9714L27.6397 72.3374C26.9561 71.9284 26.6827 71.2468 26.8194 70.4289L29.4172 56.3877C29.4172 56.115 29.6906 55.8424 29.8274 55.7061C30.1008 55.5697 30.3743 55.5697 30.6477 55.7061L30.7845 55.8424L28.4601 69.4746C28.3234 70.4289 28.7336 71.3831 29.5539 71.7921L42.4062 79.2898C42.2695 79.5624 42.1328 79.8351 41.7226 79.9714Z" fill="#16110D"/>
<path d="M39.5349 106.554L22.8543 97.0117C22.5809 96.8753 22.3074 96.8753 22.034 97.0117C21.7605 97.148 21.6238 97.557 21.6238 97.9659V107.508C21.6238 108.19 22.034 109.144 22.5809 109.417L39.2615 118.96C39.3982 119.096 39.5349 119.096 39.8084 119.096C39.9451 119.096 40.0819 119.096 40.2186 118.96C40.492 118.823 40.6288 118.414 40.6288 118.005V108.463C40.492 107.645 40.0819 106.827 39.5349 106.554ZM39.9451 117.869C39.9451 118.142 39.8084 118.278 39.8084 118.278C39.6717 118.278 39.5349 118.278 39.5349 118.278L22.8543 108.735C22.4441 108.463 22.1707 107.917 22.1707 107.372V97.8296C22.1707 97.557 22.3074 97.4206 22.3074 97.4206C22.4441 97.4206 22.5809 97.4206 22.5809 97.4206L39.2615 106.963C39.6717 107.236 39.9451 107.781 39.9451 108.326V117.869Z" fill="#16110D"/>
<path d="M33.3821 111.734L28.7334 109.144C28.46 109.008 28.1865 109.144 28.1865 109.553C28.1865 109.962 28.46 110.371 28.7334 110.508L33.3821 113.098C33.6556 113.234 33.929 113.098 33.929 112.689C33.929 112.28 33.6556 111.871 33.3821 111.734Z" fill="#16110D"/>
<path d="M18.8892 94.6942L15.471 92.7857C15.1976 92.6493 14.9241 92.6493 14.6507 92.7857C14.3772 92.922 14.2405 93.1946 14.2405 93.6036V100.011C14.2405 100.692 14.6507 101.374 15.1976 101.783L18.6157 103.691C18.7525 103.828 18.8892 103.828 19.0259 103.828C19.1626 103.828 19.2994 103.828 19.2994 103.691C19.5728 103.555 19.7095 103.282 19.7095 102.873V96.4664C19.8463 95.6484 19.4361 94.9668 18.8892 94.6942ZM18.7525 102.601C18.7525 102.737 18.7525 102.873 18.6157 102.873L15.7445 101.238C15.6077 100.965 15.471 100.829 15.471 100.556V100.42C15.471 100.283 15.471 100.147 15.6077 100.011C15.6077 100.011 15.6077 100.011 15.7445 100.011H15.8812L18.2055 101.374C18.479 101.647 18.7525 102.056 18.7525 102.601ZM19.2994 102.737C19.2994 103.01 19.1626 103.146 19.1626 103.146C19.0259 103.146 19.0259 103.146 18.8892 103.146C19.0259 103.01 19.0259 102.874 19.0259 102.601V102.465C19.0259 101.919 18.7525 101.374 18.3423 101.238L16.0179 99.8744C15.8812 99.7381 15.6077 99.7381 15.471 99.8744C15.3343 100.011 15.1976 100.147 15.1976 100.42V100.556C15.1976 100.692 15.1976 100.692 15.1976 100.829C15.0608 100.556 14.9241 100.283 14.9241 99.8744V93.4673C14.9241 93.1946 15.0608 93.0583 15.0608 93.0583C15.1976 93.0583 15.1976 93.0583 15.3343 93.0583L18.7525 94.9668C19.1626 95.1031 19.4361 95.7847 19.4361 96.1937V102.737H19.2994Z" fill="#16110D"/>
<path d="M18.3422 95.5121L16.0179 94.1489C15.8811 94.0126 15.6077 94.0126 15.471 94.1489C15.3342 94.2852 15.1975 94.4215 15.1975 94.6942V97.8296C15.1975 98.3749 15.471 98.9201 15.8811 99.0565L18.2055 100.42C18.3422 100.42 18.4789 100.556 18.4789 100.556C18.6157 100.556 18.6157 100.556 18.7524 100.556C18.8891 100.42 19.0259 100.283 19.0259 100.011V96.739C19.0259 96.33 18.7524 95.7847 18.3422 95.5121ZM18.7524 99.8744C18.7524 100.011 18.7524 100.147 18.6157 100.283C18.4789 100.283 18.4789 100.283 18.3422 100.283L16.0179 98.9201C15.7444 98.7838 15.471 98.2385 15.471 97.8296V94.6942C15.471 94.5578 15.471 94.4215 15.6077 94.2852C15.7444 94.2852 15.7444 94.2852 15.8811 94.2852L18.2055 95.6484C18.4789 95.7847 18.7524 96.33 18.7524 96.739V99.8744Z" fill="#16110D"/>
<path d="M19.2993 104.646L15.3343 102.328C15.1975 102.192 14.9241 102.192 14.7874 102.328C14.6506 102.465 14.5139 102.601 14.5139 102.873V103.691C14.5139 104.1 14.7874 104.646 15.0608 104.782L19.0259 107.099C19.1626 107.099 19.2993 107.236 19.2993 107.236C19.4361 107.236 19.4361 107.236 19.5728 107.236C19.7095 107.099 19.8463 106.963 19.8463 106.691V105.873C19.8463 105.327 19.5728 104.918 19.2993 104.646ZM19.2993 106.554C19.2993 106.69 19.2993 106.69 19.2993 106.554C19.2993 106.69 19.2993 106.69 19.2993 106.554L15.1975 104.373C15.0608 104.237 14.9241 103.964 14.9241 103.691V102.873C14.9241 102.737 14.9241 102.737 14.9241 102.737L18.8892 105.055C19.0259 105.191 19.1626 105.464 19.1626 105.736V106.554H19.2993Z" fill="#16110D"/>
<path d="M46.7813 110.644L43.3631 108.735C43.0897 108.599 42.8162 108.599 42.5427 108.735C42.2693 108.872 42.1326 109.144 42.1326 109.553V115.96C42.1326 116.642 42.5427 117.324 43.0897 117.733L46.5078 119.641C46.6445 119.777 46.7813 119.777 46.918 119.777C47.0547 119.777 47.1914 119.777 47.1914 119.641C47.4649 119.505 47.6016 119.232 47.6016 118.823V112.416C47.7384 111.734 47.3282 110.917 46.7813 110.644ZM46.6445 118.687C46.6445 118.823 46.6445 118.96 46.5078 118.96L43.6366 117.324C43.4998 117.051 43.3631 116.915 43.3631 116.642V116.506C43.3631 116.369 43.3631 116.233 43.4998 116.097C43.6366 116.097 43.6366 116.097 43.7733 116.097L46.0976 117.46C46.3711 117.733 46.6445 118.142 46.6445 118.687ZM47.1914 118.823C47.1914 119.096 47.0547 119.232 47.0547 119.232C46.918 119.232 46.918 119.232 46.7813 119.232C46.918 119.096 46.918 118.96 46.918 118.687V118.551C46.918 118.005 46.6445 117.46 46.2344 117.324L43.91 115.96C43.7733 115.824 43.4998 115.824 43.3631 115.96C43.2264 116.097 43.0897 116.233 43.0897 116.506V116.642C43.0897 116.778 43.0897 116.778 43.0897 116.915C42.9529 116.642 42.8162 116.369 42.8162 115.96V109.553C42.8162 109.281 42.9529 109.144 42.9529 109.144C43.0897 109.144 43.0897 109.144 43.2264 109.144L46.6445 111.053C47.0547 111.189 47.3282 111.871 47.3282 112.28V118.823H47.1914Z" fill="#16110D"/>
<path d="M46.2346 111.462L43.9102 110.099C43.7735 109.962 43.5 109.962 43.3633 110.099C43.2266 110.235 43.0898 110.371 43.0898 110.644V113.779C43.0898 114.325 43.3633 114.87 43.7735 115.006L46.0978 116.369C46.2346 116.369 46.3713 116.506 46.3713 116.506C46.508 116.506 46.508 116.506 46.6447 116.506C46.7815 116.369 46.9182 116.233 46.9182 115.96V112.825C46.9182 112.28 46.508 111.734 46.2346 111.462ZM46.6447 115.96C46.6447 116.097 46.6447 116.233 46.508 116.369C46.3713 116.369 46.3713 116.369 46.2346 116.369L43.9102 115.006C43.6368 114.87 43.3633 114.325 43.3633 113.916V110.78C43.3633 110.644 43.3633 110.508 43.5 110.371C43.6368 110.371 43.6367 110.371 43.7735 110.371L46.0978 111.734C46.3713 111.871 46.6447 112.416 46.6447 112.825V115.96Z" fill="#16110D"/>
<path d="M47.0547 120.732L43.0896 118.414C42.9529 118.278 42.6795 118.278 42.5427 118.414C42.406 118.551 42.2693 118.687 42.2693 118.959V119.777C42.2693 120.186 42.5427 120.732 42.8162 120.868L46.7813 123.185C46.918 123.185 47.0547 123.322 47.0547 123.322C47.1914 123.322 47.1914 123.322 47.3282 123.322C47.4649 123.185 47.6016 123.049 47.6016 122.776V121.959C47.7383 121.413 47.4649 120.868 47.0547 120.732ZM47.1914 122.64C47.1914 122.64 47.0547 122.776 47.1914 122.64C47.0547 122.776 47.0547 122.776 47.1914 122.64L43.0896 120.459C42.9529 120.323 42.8162 120.05 42.8162 119.777V118.959C42.8162 118.823 42.8162 118.823 42.8162 118.823L46.7813 121.141C46.918 121.277 47.0547 121.55 47.0547 121.822V122.64H47.1914Z" fill="#16110D"/>
</svg>
