<svg width="29" height="27" viewBox="0 0 29 27" fill="none" xmlns="http://www.w3.org/2000/svg">
<path d="M14.3383 0.353349C6.743 0.353349 0.552693 6.13097 0.552693 13.2199C0.552693 15.492 1.19259 17.6992 2.38892 19.6467L0.441406 26.3202L7.74457 24.5285C9.76164 25.5541 12.0291 26.0994 14.3383 26.0994C21.9336 26.0994 28.1239 20.3218 28.1239 13.2329C28.1239 9.79229 26.6911 6.55942 24.0898 4.13152C22.8144 2.92916 21.2953 1.97584 19.6211 1.32717C17.9469 0.678498 16.151 0.347455 14.3383 0.353349ZM14.3522 2.52158C17.4126 2.52158 20.2782 3.63815 22.4483 5.66356C23.5133 6.65725 24.3577 7.8374 24.933 9.13631C25.5083 10.4352 25.8032 11.8274 25.8008 13.2329C25.8008 19.1274 20.6538 23.9182 14.3383 23.9182C12.2795 23.9182 10.2624 23.4119 8.50967 22.4251L8.09234 22.2044L3.75218 23.2691L4.90677 19.3221L4.62856 18.9066C3.47944 17.2041 2.87164 15.2321 2.8758 13.2199C2.88971 7.32544 8.02279 2.52158 14.3522 2.52158ZM9.4556 7.27351C9.23303 7.27351 8.85744 7.35141 8.53749 7.67599C8.23145 8.00058 7.32725 8.79256 7.32725 10.3636C7.32725 11.9475 8.56531 13.4666 8.71833 13.6873C8.91308 13.908 11.1666 17.1539 14.6304 18.5301C15.4512 18.8807 16.091 19.0754 16.5918 19.2182C17.4126 19.4649 18.1638 19.426 18.7619 19.3481C19.4296 19.2572 20.7929 18.5691 21.085 17.816C21.3771 17.063 21.3772 16.4268 21.2937 16.284C21.1963 16.1542 20.9737 16.0763 20.626 15.9334C20.2782 15.7517 18.5811 14.9727 18.275 14.8688C17.9551 14.7649 17.7603 14.713 17.496 15.0246C17.2735 15.3492 16.6057 16.0763 16.411 16.284C16.2023 16.5047 16.0076 16.5307 15.6737 16.3749C15.312 16.2061 14.1992 15.8685 12.8916 14.7779C11.8622 13.921 11.1805 12.8694 10.9719 12.5448C10.8049 12.2332 10.958 12.0384 11.1249 11.8956C11.2779 11.7528 11.5005 11.5191 11.6396 11.3243C11.8204 11.1426 11.8761 10.9997 11.9874 10.792C12.0987 10.5713 12.043 10.3895 11.9595 10.2337C11.8761 10.0909 11.1805 8.48096 10.8884 7.84478C10.6102 7.22157 10.332 7.29947 10.1094 7.28649C9.91466 7.28649 9.69208 7.27351 9.4556 7.27351Z" fill="white"/>
</svg>
