<svg width="107" height="103" viewBox="0 0 107 103" fill="none" xmlns="http://www.w3.org/2000/svg">
<g clip-path="url(#clip0_218_10249)">
<path d="M12.8851 72.7932C2.59723 49.7012 20.2535 7.80645 59.8839 6.75347" stroke="url(#paint0_radial_218_10249)" stroke-width="4.78778"/>
<path d="M47.7382 -0.708116C46.801 -1.03515 45.78 -0.540974 45.4577 0.395651C45.1355 1.33228 45.6341 2.35667 46.5714 2.6837L47.7382 -0.708116ZM60.8162 5.75464L61.8593 7.22132L64.6938 5.20815L61.3997 4.05873L60.8162 5.75464ZM48.2522 12.4706C47.4457 13.0434 47.259 14.1644 47.835 14.9744C48.4111 15.7844 49.5319 15.9768 50.3384 15.404L48.2522 12.4706ZM46.5714 2.6837L60.2328 7.45055L61.3997 4.05873L47.7382 -0.708116L46.5714 2.6837ZM59.7731 4.28797L48.2522 12.4706L50.3384 15.404L61.8593 7.22132L59.7731 4.28797Z" fill="url(#paint1_radial_218_10249)"/>
<path d="M26.1048 60.0633C26.9342 79.8541 43.3693 95.7151 63.5107 95.7151C83.6522 95.7151 100.087 79.8541 100.917 60.0633C100.966 59.9387 100.993 59.8065 100.996 59.6726C100.996 59.5889 100.966 59.5168 100.949 59.4401C100.957 59.1285 100.996 58.8239 100.996 58.51C100.996 37.996 84.1794 21.3049 63.5107 21.3049C42.8421 21.3049 26.0251 37.996 26.0251 58.51C26.0251 58.8239 26.065 59.1285 26.072 59.4401C26.0556 59.5168 26.0251 59.5889 26.0251 59.6726C26.0251 59.8122 26.0603 59.94 26.1048 60.0633ZM84.4113 74.1873C81.2279 72.8757 77.9195 71.8856 74.5362 71.2318C74.9064 67.8531 75.1242 64.3442 75.1922 60.8376H86.8596C86.6464 65.6138 85.7912 70.1226 84.4113 74.1873ZM89.2001 60.8353H98.534C98.121 67.1663 95.9627 73.2629 92.295 78.4589C90.473 77.1863 88.5476 76.0663 86.5386 75.1104C88.0497 70.7644 88.9799 65.9417 89.2001 60.8353V60.8353ZM55.0507 73.1269C57.8492 72.6888 60.6777 72.4664 63.5107 72.4619C66.3784 72.4619 69.2109 72.6991 71.9684 73.1269C70.3425 85.5325 66.7907 93.3898 63.5107 93.3898C60.2308 93.3898 56.679 85.5325 55.0507 73.1269ZM58.6095 92.6085C52.1643 90.5575 46.7125 84.5373 43.4231 76.3684C46.4361 75.1177 49.5677 74.1696 52.7711 73.5385C53.8465 81.6678 55.8121 88.7507 58.6095 92.6085V92.6085ZM54.7813 46.2067C57.6694 46.6532 60.5878 46.8794 63.5107 46.8834C66.4337 46.8794 69.3521 46.6532 72.2402 46.2067C72.6432 49.9737 72.8821 54.0849 72.8821 58.51H54.1393C54.1393 54.0849 54.3783 49.9737 54.7813 46.2067V46.2067ZM72.847 60.8353C72.791 64.1685 72.5878 67.4977 72.2379 70.8132C69.3505 70.3666 66.4329 70.1404 63.5107 70.1366C60.5878 70.1405 57.6694 70.3667 54.7813 70.8132C54.4303 67.4978 54.227 64.1686 54.1721 60.8353H72.847ZM74.2527 73.5385C77.5421 74.1943 80.6791 75.1476 83.6007 76.3684C80.3113 84.5373 74.8595 90.5575 68.4143 92.6085C71.2093 88.7507 73.175 81.6678 74.2527 73.5385V73.5385ZM75.225 58.51C75.225 54.2407 74.986 49.9156 74.5362 45.7905C78.0036 45.1115 81.3211 44.1162 84.4113 42.835C86.0138 47.5531 86.9392 52.8688 86.9392 58.51H75.225ZM74.2527 43.4814C73.175 35.3521 71.2117 28.2669 68.412 24.4115C74.8572 26.4624 80.309 32.4827 83.5983 40.6515C80.5866 41.9033 77.4556 42.8514 74.2527 43.4814V43.4814ZM71.9708 43.893C69.2109 44.3209 66.3784 44.5581 63.5107 44.5581C60.6431 44.5581 57.8106 44.3209 55.0507 43.893C56.679 31.4874 60.2308 23.6302 63.5107 23.6302C66.7907 23.6302 70.3425 31.4874 71.9708 43.893V43.893ZM52.7688 43.4814C49.5655 42.85 46.4339 41.902 43.4208 40.6515C46.7102 32.4827 52.162 26.4624 58.6072 24.4115C55.8121 28.2692 53.8465 35.3521 52.7688 43.4814V43.4814ZM52.4853 45.7905C52.0277 50.0151 51.7978 54.261 51.7965 58.51H40.0822C40.0822 52.8688 41.0077 47.5531 42.6102 42.8327C45.7004 44.1163 49.0179 45.1092 52.4853 45.7905ZM51.8293 60.8353C51.8972 64.3419 52.1151 67.8508 52.4853 71.2318C49.0179 71.9108 45.7004 72.906 42.6102 74.1873C41.2302 70.1226 40.3751 65.6138 40.1619 60.8353H51.8293ZM40.4805 75.1104C38.4728 76.0672 36.5482 77.1872 34.7265 78.4589C31.0585 73.2631 28.9002 67.1664 28.4875 60.8353H37.8214C38.0416 65.9417 38.9717 70.7644 40.4805 75.1104ZM36.1299 80.3215C37.7695 79.1753 39.4986 78.1606 41.3005 77.2869C43.6527 83.0653 47.0382 87.8625 51.1077 91.1063C45.2367 88.8989 40.0661 85.1757 36.1299 80.3215V80.3215ZM75.9138 91.104C79.9857 87.8625 83.3687 83.063 85.721 77.2846C87.5718 78.1775 89.2868 79.2053 90.8916 80.3191C86.9568 85.1748 81.7857 88.8983 75.9138 91.104V91.104ZM89.2821 58.51C89.2821 52.5409 88.2793 46.9136 86.5409 41.9095C88.6027 40.9282 90.5191 39.8005 92.2973 38.5611C96.4353 44.4024 98.6551 51.3694 98.6535 58.51H89.2821ZM90.894 36.6985C89.2891 37.8123 87.5741 38.8401 85.7233 39.733C83.3711 33.9546 79.9857 29.1551 75.9161 25.9137C81.7864 28.1222 86.9568 31.8452 90.894 36.6985V36.6985ZM51.1077 25.916C47.0358 29.1575 43.6527 33.9569 41.3005 39.7353C39.4987 38.8605 37.7697 37.845 36.1299 36.6985C40.0656 31.8442 45.2365 28.1217 51.1077 25.916V25.916ZM34.7265 38.5611C36.5479 39.8333 38.4725 40.9533 40.4805 41.9095C38.6482 47.2545 37.7219 52.8641 37.7394 58.51H28.368C28.368 51.0922 30.7319 44.2209 34.7265 38.5611V38.5611Z" fill="#93118B"/>
<path d="M98.6025 58.51C98.6025 77.7188 82.9084 93.3212 63.5108 93.3212C44.1132 93.3212 28.419 77.7188 28.419 58.51C28.419 39.3012 44.1132 23.6988 63.5108 23.6988C82.9084 23.6988 98.6025 39.3012 98.6025 58.51Z" stroke="#93118B" stroke-width="4.78778"/>
</g>
<defs>
<radialGradient id="paint0_radial_218_10249" cx="0" cy="0" r="1" gradientUnits="userSpaceOnUse" gradientTransform="translate(20.8008 38.1333) rotate(6.00842) scale(21.1887 10457.7)">
<stop stop-color="#93118B"/>
</radialGradient>
<radialGradient id="paint1_radial_218_10249" cx="0" cy="0" r="1" gradientUnits="userSpaceOnUse" gradientTransform="translate(49.3285 7.57872) rotate(6.00842) scale(6.66561 1874.53)">
<stop stop-color="#93118B"/>
</radialGradient>
<clipPath id="clip0_218_10249">
<rect width="106" height="102" fill="white" transform="translate(0.493408 0.987793)"/>
</clipPath>
</defs>
</svg>
