<svg version="1.1" id="Слой_1" xmlns="http://www.w3.org/2000/svg" x="0" y="0" viewBox="0 0 765 546" style="enable-background:new 0 0 765 546" xml:space="preserve"><style>.st0{fill:#98509b;stroke:#000;stroke-width:2;stroke-miterlimit:10}.st1{fill:#ffe1fa}.st2,.st3{fill:none;stroke:#000;stroke-width:2;stroke-miterlimit:10}.st3{stroke:#0c0c0c}.st4,.st5{stroke:#98509b}.st4{fill:none;stroke-width:2;stroke-miterlimit:10}.st5{fill:#020202}.st5,.st8,.st9{stroke-width:2;stroke-miterlimit:10}.st8{fill:none;stroke:#000;stroke-linecap:round}.st9{stroke:#98509b}.st10{fill:#98509b}.st11{fill:#16110d}</style><path d="M490.5 538.6c0-.9-1.4-1.6-3.1-1.6-1.7 0-3.1.7-3.1 1.5 0 .9 1.4 1.6 3.1 1.6 1.7.1 3.1-.6 3.1-1.5zM508.2 538.3c0-.9-1.4-1.6-3.1-1.6-1.7 0-3.1.7-3.1 1.5 0 .9 1.4 1.6 3.1 1.6 1.7.1 3.1-.6 3.1-1.5zM593.9 538.3c0-.9-1.4-1.6-3.1-1.6-1.7 0-3.1.7-3.1 1.5 0 .9 1.4 1.6 3.1 1.6 1.7 0 3.1-.7 3.1-1.5zM622.2 527.9c0-.9-1.4-1.6-3.1-1.6-1.7 0-3.1.7-3.1 1.5 0 .9 1.4 1.6 3.1 1.6 1.7.1 3.1-.6 3.1-1.5zM474.1 538.5c0-.9-1.4-1.6-3.1-1.6-1.7 0-3.1.7-3.1 1.5 0 .9 1.4 1.6 3.1 1.6 1.7.1 3.1-.6 3.1-1.5zM604.9 528c0-.9-1.4-1.6-3.1-1.6-1.7 0-3.1.7-3.1 1.5 0 .9 1.4 1.6 3.1 1.6 1.7 0 3.1-.7 3.1-1.5zM456.5 538.4c0-.9-1.4-1.6-3.1-1.6-1.7 0-3.1.7-3.1 1.5 0 .9 1.4 1.6 3.1 1.6 1.7.1 3.1-.6 3.1-1.5zM544.7 538.4c0-.9-1.4-1.6-3.1-1.6-1.7 0-3.1.7-3.1 1.5 0 .9 1.4 1.6 3.1 1.6 1.7 0 3.1-.7 3.1-1.5zM579.1 538.3c0-.9-1.4-1.6-3.1-1.6-1.7 0-3.1.7-3.1 1.5 0 .9 1.4 1.6 3.1 1.6 1.7 0 3.1-.7 3.1-1.5zM526 538.3c0-.9-1.4-1.6-3.1-1.6-1.7 0-3.1.7-3.1 1.5 0 .9 1.4 1.6 3.1 1.6 1.7.1 3.1-.6 3.1-1.5zM561.9 538.3c0-.9-1.4-1.6-3.1-1.6-1.7 0-3.1.7-3.1 1.5 0 .9 1.4 1.6 3.1 1.6 1.7 0 3.1-.7 3.1-1.5zM499.6 529.9c0-.9-1.4-1.6-3.1-1.6-1.7 0-3.1.7-3.1 1.5 0 .9 1.4 1.6 3.1 1.6 1.7.1 3.1-.6 3.1-1.5zM517.4 529.6c0-.9-1.4-1.6-3.1-1.6-1.7 0-3.1.7-3.1 1.5 0 .9 1.4 1.6 3.1 1.6 1.7.1 3.1-.6 3.1-1.5zM483.4 529.8c0-.9-1.4-1.6-3.1-1.6-1.7 0-3.1.7-3.1 1.5 0 .9 1.4 1.6 3.1 1.6 1.7.1 3.1-.6 3.1-1.5zM553.8 529.5c0-.9-1.4-1.6-3.1-1.6-1.7 0-3.1.7-3.1 1.5s1.4 1.6 3.1 1.6c1.7.1 3.1-.6 3.1-1.5zM588.2 529.6c0-.9-1.4-1.6-3.1-1.6-1.7 0-3.1.7-3.1 1.5 0 .9 1.4 1.6 3.1 1.6 1.8 0 3.1-.7 3.1-1.5zM535.2 529.6c0-.9-1.4-1.6-3.1-1.6-1.7 0-3.1.7-3.1 1.5s1.4 1.6 3.1 1.6c1.7.1 3.1-.6 3.1-1.5zM571 529.6c0-.9-1.4-1.6-3.1-1.6-1.7 0-3.1.7-3.1 1.5 0 .9 1.4 1.6 3.1 1.6 1.7 0 3.1-.7 3.1-1.5zM508.3 521.6c0-.9-1.4-1.6-3.1-1.6-1.7 0-3.1.7-3.1 1.5 0 .9 1.4 1.6 3.1 1.6 1.7.1 3.1-.6 3.1-1.5zM526.1 521.3c0-.9-1.4-1.6-3.1-1.6-1.7 0-3.1.7-3.1 1.5s1.4 1.6 3.1 1.6c1.7.1 3.1-.6 3.1-1.5zM492.1 521.5c0-.9-1.4-1.6-3.1-1.6s-3.1.7-3.1 1.5c0 .9 1.4 1.6 3.1 1.6 1.7.1 3.1-.6 3.1-1.5zM562.6 521.4c0-.9-1.4-1.6-3.1-1.6-1.7 0-3.1.7-3.1 1.5 0 .9 1.4 1.6 3.1 1.6 1.7 0 3.1-.7 3.1-1.5zM597 521.3c0-.9-1.4-1.6-3.1-1.6-1.7 0-3.1.7-3.1 1.5 0 .9 1.4 1.6 3.1 1.6 1.7 0 3.1-.7 3.1-1.5zM543.9 521.3c0-.9-1.4-1.6-3.1-1.6-1.7 0-3.1.7-3.1 1.5 0 .9 1.4 1.6 3.1 1.6 1.7.1 3.1-.6 3.1-1.5zM579.8 521.3c0-.9-1.4-1.6-3.1-1.6-1.7 0-3.1.7-3.1 1.5 0 .9 1.4 1.6 3.1 1.6 1.7 0 3.1-.7 3.1-1.5zM610.6 538.3c0-.9-1.4-1.6-3.1-1.6-1.7 0-3.1.7-3.1 1.5 0 .9 1.4 1.6 3.1 1.6 1.7.1 3.1-.6 3.1-1.5zM613.8 520c0-.9-1.4-1.6-3.1-1.6-1.7 0-3.1.7-3.1 1.5 0 .9 1.4 1.6 3.1 1.6 1.7 0 3.1-.7 3.1-1.5z"/><path class="st0" d="M438.9 535.3c138.4 0 250.6-118.8 250.6-265.4 0-146.6-112.2-265.4-250.6-265.4S188.3 123.3 188.3 269.9c0 146.6 112.2 265.4 250.6 265.4z"/><path class="st1" d="M399.9 18.3c-29.5-6.5-59.5 11.1-87.7 27.9-11 6.5-52 32.2-82.5 85.6-11.1 19.5-28.2 50.1-30.7 93.6-1.1 20.7-3.1 56.4 18.7 90.1 23.9 36.8 60.6 47 73.2 50.4 34.1 9.4 62.1 2.5 81.6-2.8 15.1-3.9 70.6-18.6 101.3-60.4 63.4-86.2 3.5-267.2-73.9-284.4z"/><path class="st2" d="M440.9 4.6c-12.6 13.4-45 51.3-58.6 72-79.7 121.6-93 319 62.9 458.7"/><path class="st2" d="M438.9 4.5c-59.3 14.1-103.2 53.6-131.8 92.6-45.3 61.7-142.1 318.8 135.5 438.1"/><path class="st2" d="M437.9 5.6c56.7 8.1 101.7 41.2 132.5 75.4 48.6 53.9 165.4 287-81.1 423.2"/><path class="st2" d="M441.6 5.6c1.5 3.1 43.9 17.2 75.4 61.8 83.8 118.6 61.6 305.1-72.6 466.4M441.1 6.1c-72.8 251.3-51.6 384 1.5 526.8"/><path class="st2" d="M442.6 535.3c61.8-254.5 58.4-389.7-.9-529.8"/><path class="st2" d="M188.3 244.6c167.3 76.3 320.1 78.3 501.2 7.3M268.3 75.6c99.2 73.8 215.7 89.8 340.8-.3M217.7 396.1C347 470 499.1 486 662.2 395.9"/><path d="M303.6 472.1c14.3 41.5 91.6 52.4 122.8 54.3 74.7 4.7 122.3-24 134.9-31.7 19.8-12 77.9-58.9 102-132.6 7.9-24 16.1-40.3 18.2-88.6 1.9-43.1-8.8-62.6-16.4-70.7-14.1-15.1-41.9-17.7-60.3-6.3-25.8 15.8-14.7 47.4-39.1 97.3-6.4 13.1-30.5 62.5-77.4 82.9-26 11.3-55.4 12.2-102.9 13.5-32.3.9-44.9-1.4-58.7 9-20.1 15-31.6 48.4-23.1 72.9z"/><path class="st1" d="M376.7 17.1 365.1 29c-.1.1-.1.1-.1.3.1.8 1.2 4.7 11.4 10.1 11.1 5.9 29.4 7.5 30 7.5l26.2-2.9h.1l12 5.4c.1 0 .2 0 .4-.1l4.3-6.8c0-.1.1-.1.2-.1l23 3.7c.1 0 .2 0 .2-.1l9.4-13.9c0-.1.1-.1.2-.1H505.1l14.7-7.1c.2-.1.2-.4 0-.5-4.7-1.8-37.7-14.5-73.2-14.7-37.4-.2-68.2 7-69.9 7.4 0 0 .1 0 0 0z"/><path class="st3" d="M376.7 17.1 365.1 29c-.1.1-.1.1-.1.3.1.8 1.2 4.7 11.4 10.1 11.1 5.9 29.4 7.5 30 7.5l26.2-2.9h.1l12 5.4c.1 0 .2 0 .4-.1l4.3-6.8c0-.1.1-.1.2-.1l23 3.7c.1 0 .2 0 .2-.1l9.4-13.9c0-.1.1-.1.2-.1H505.1l14.7-7.1c.2-.1.2-.4 0-.5-4.7-1.8-37.7-14.5-73.2-14.7-37.4-.2-68.2 7-69.9 7.4zm0 0c.1 0 0 0 0 0z"/><path class="st0" d="M377.8 12.2 366.4 24c-.1.1-.2.4-.1.7.2 1.2 2 4.8 11.3 9.8 11 5.8 28.9 7.5 30 7.5h.1l26-2.9h.4l11.6 5.2c.2.1.6 0 .7-.3l4-6.4c.1-.3.4-.4.6-.3l22.5 3.7c.2 0 .5-.1.6-.3l9.1-13.5c.1-.1.4-.3.5-.3h22.5l13.8-6.7c.5-.3.5-1 0-1.2-6.9-2.7-38.4-14.1-72.3-14.3-36.7-.1-67.1 6.8-69.7 7.5-.1-.1-.1-.1-.2 0z"/><path class="st3" d="M520 20v4.5M366.2 24.5l-1.2 4.8"/><path class="st1" d="M372.2 24.5c-.4-3.9 3.7-6.9 4.5-7.5 2.2-1.7 4.1-2 8.5-2.7 0 0 4-.7 15.5-3 8.5-1.7 10.5-2.6 11-1.7 1 1.7-3.5 8.2-9.6 11.1-3.8 1.7-7.4 1.6-7.8 3.4-.5 2 3.1 3.5 2.7 6.2-.2 2.1-2.8 3.4-3.7 3.8-5.6 2.6-12-1.2-14.3-2.5-3.4-2-6.5-3.8-6.8-7.1z"/><path class="st4" d="M346.4 392.2c15.1 47 38.8 99.1 72 132M304.9 434.6c46.4 64.2 73.6 75.3 113.5 91.1M557.3 313.1c-27.4 104.5-45.1 133.3-106.1 212.4"/><path class="st4" d="M627.3 189.7c18.3 198.8-53.2 250.9-166.8 336.8M473.9 384.1c-9.6 47-19.2 93.9-28.8 140.9M402.9 391.7c11.1 45 22.1 90.1 33.3 135.3"/><path class="st4" d="M306.4 435c130.8 31.8 217.8 24.2 333.6-27.6"/><path class="st5" d="M512.6 231c-4-12.8 1.4-28.5 9.6-37.2 3.3-3.5 10.6-6.8 25-13.2 12.4-5.5 15.7-6 19.9-10.9 5.8-6.7 3-10.1 9-19.2 3.5-5.2 8.5-9.2 18.7-16.8 11.9-9 11.6-7.2 15.8-11.4 10.8-10.9 10.1-21.2 17.1-22.8 5.2-1.3 10.5 3.4 14.2 7.2 20.8 21.3 31.8 57.4 47.6 103.3 0 0 13 37.4 5.7 57.6-2 5.5-5.7 8.4-5.7 8.4-4.5 3.4-9.5 3.1-12.4 3-15-.9-30-6.4-30.7-6.5-21.5-7.9-40.6-6.4-47.1-6-12.1.9-23.9 1.7-35.6 9.6-13.2 8.9-14.5 18.5-23.4 18.9-10.8.5-23-12.7-22.6-23.6.2-7.6 6.4-8.8 6.8-16.8.4-9.8-8.5-12-11.9-23.6z"/><path d="M514.3 223.6c-4-12.8 1.4-28.5 9.6-37.2 3.3-3.5 10.6-6.8 25-13.2 12.4-5.5 15.7-6 19.9-10.9 5.8-6.7 3-10.1 9-19.2 3.5-5.2 8.5-9.2 18.7-16.8 11.9-9 11.6-7.2 15.8-11.4 10.8-10.9 10.1-21.2 17.1-22.8 5.2-1.3 10.5 3.4 14.2 7.2 20.8 21.3 31.8 57.4 47.6 103.3 0 0 13 37.4 5.7 57.6-2 5.5-5.7 8.4-5.7 8.4-4.5 3.4-9.5 3.1-12.4 3-15-.9-30-6.4-30.7-6.5-21.5-7.9-40.6-6.4-47.1-6-12.1.9-23.9 1.7-35.6 9.6-13.2 8.9-14.5 18.5-23.4 18.9-10.8.5-23-12.7-22.6-23.6.2-7.6 6.4-8.8 6.8-16.8.5-9.9-8.4-12.2-11.9-23.6z" style="fill:#98509b;stroke:#020202;stroke-width:2;stroke-miterlimit:10"/><path d="M461.1 512c-.9-12.6 21.6-16.6 42.5-42.7 4.6-5.8 16.9-22.4 22.6-46.2 4.6-19.4 3.5-37.8 2.8-49.6-.7-12.6-2.7-25.8 0-45.2 1.7-12.7 4-17 7.4-19.2 7.2-4.7 14.1 2.9 28.9 2.4 14.6-.5 14.8-8.1 27.8-9 18.4-1.2 20.5 14.4 40.8 15.6 17.1 1 27.7-9.2 36.8-1.8 0 0 3.7 3 5.7 9 6.4 19.4-14.8 87.3-72.6 140.5-41.7 38.4-88 55.8-124.4 63.9-14.7-6.8-18-13.2-18.3-17.7z" style="fill:#98509b;stroke:#070707;stroke-width:2;stroke-miterlimit:10"/><path class="st5" d="M471.6 512c-.9-12.6 21.6-16.6 42.5-42.7 4.6-5.8 16.9-22.4 22.6-46.2 4.6-19.4 3.5-37.8 2.8-49.6-.7-12.6-2.7-25.8 0-45.2 1.7-12.7 4-17 7.4-19.2 7.2-4.7 14.1 2.9 28.9 2.4 14.6-.5 14.8-8.1 27.8-9 18.4-1.2 20.5 14.4 40.8 15.6 17.1 1 27.7-9.2 36.8-1.8 0 0 3.7 3 5.7 9 6.4 19.4-14.8 87.3-72.6 140.5-41.7 38.4-88 55.8-124.4 63.9-14.7-6.8-18-13.2-18.3-17.7z"/><path class="st0" d="M600.1 439.9c-2.7-2.8 3.1-13.1 14.6-33.8 9.1-16.4 42.3-75.4 51.4-71 6.1 3 1.6 33.9-11.7 58.4-17.5 31.8-49.5 51.2-54.3 46.4z"/><path d="M624.9 439.3c.8-1.2.8-2.6 0-3.2-.8-.6-2.1-.1-2.8 1.1-.8 1.2-.8 2.6 0 3.2.7.6 2 .1 2.8-1.1zM632.4 426.9c.8-1.2.8-2.6 0-3.2-.8-.6-2.1-.1-2.8 1.1-.8 1.2-.8 2.6 0 3.2.8.5 2.1 0 2.8-1.1zM669.9 367.5c.8-1.2.8-2.6 0-3.2-.8-.6-2.1-.1-2.8 1.1-.8 1.2-.8 2.6 0 3.2.7.6 2 .1 2.8-1.1zM672.8 341.1c.8-1.2.8-2.6 0-3.2-.8-.6-2.1-.1-2.8 1.1-.8 1.2-.8 2.6 0 3.2.7.6 2 .1 2.8-1.1zM617.7 450.5c.8-1.2.8-2.6 0-3.2-.8-.6-2.1-.1-2.8 1.1-.8 1.2-.8 2.6 0 3.2.8.6 2 .1 2.8-1.1zM665.3 353.1c.8-1.2.8-2.6 0-3.2s-2.1-.1-2.8 1.1c-.8 1.2-.8 2.6 0 3.2.8.6 2.1.1 2.8-1.1zM609.8 462.6c.8-1.2.8-2.6 0-3.2-.8-.6-2.1-.1-2.8 1.1-.8 1.2-.8 2.6 0 3.2.7.6 2 .1 2.8-1.1zM648.4 401.7c.8-1.2.8-2.6 0-3.2-.8-.6-2.1-.1-2.8 1.1-.8 1.2-.8 2.6 0 3.2.8.6 2.1.1 2.8-1.1zM663.5 377.9c.8-1.2.8-2.6 0-3.2-.8-.6-2.1-.1-2.8 1.1-.8 1.2-.8 2.6 0 3.2.8.6 2 .1 2.8-1.1zM640.2 414.5c.8-1.2.8-2.6 0-3.2-.8-.6-2.1-.1-2.8 1.1-.8 1.2-.8 2.6 0 3.2.8.6 2.1.1 2.8-1.1zM656 389.8c.8-1.2.8-2.6 0-3.2-.8-.6-2.1-.1-2.8 1.1-.8 1.2-.8 2.6 0 3.2.7.6 2 .1 2.8-1.1zM620.9 427.2c.8-1.2.8-2.6 0-3.2-.8-.6-2.1-.1-2.8 1.1-.8 1.2-.8 2.6 0 3.2.8.6 2.1.1 2.8-1.1zM628.4 414.7c.8-1.2.8-2.6 0-3.2-.8-.6-2.1-.1-2.8 1.1-.8 1.2-.8 2.6 0 3.2.8.6 2.1.1 2.8-1.1zM613.6 438.4c.8-1.2.8-2.6 0-3.2-.8-.6-2.1-.1-2.8 1.1-.8 1.2-.8 2.6 0 3.2.8.6 2 .1 2.8-1.1zM644.4 389.5c.8-1.2.8-2.6 0-3.2s-2.1-.1-2.8 1.1c-.8 1.2-.8 2.6 0 3.2s2.1.1 2.8-1.1zM659.5 365.7c.8-1.2.8-2.6 0-3.2-.8-.6-2.1-.1-2.8 1.1-.8 1.2-.8 2.6 0 3.2.8.6 2 .1 2.8-1.1zM636.2 402.4c.8-1.2.8-2.6 0-3.2-.8-.6-2.1-.1-2.8 1.1-.8 1.2-.8 2.6 0 3.2.8.5 2 0 2.8-1.1zM652 377.6c.8-1.2.8-2.6 0-3.2-.8-.6-2.1-.1-2.8 1.1-.8 1.2-.8 2.6 0 3.2.7.6 2 .1 2.8-1.1zM617.2 415.7c.8-1.2.8-2.6 0-3.2-.8-.6-2.1-.1-2.8 1.1-.8 1.2-.8 2.6 0 3.2.7.6 2 .1 2.8-1.1zM624.6 403.2c.8-1.2.8-2.6 0-3.2-.8-.6-2.1-.1-2.8 1.1-.8 1.2-.8 2.6 0 3.2s2.1.1 2.8-1.1zM609.9 426.8c.8-1.2.8-2.6 0-3.2-.8-.6-2.1-.1-2.8 1.1-.8 1.2-.8 2.6 0 3.2.7.6 2 .1 2.8-1.1zM640.7 377.9c.8-1.2.8-2.6 0-3.2-.8-.6-2.1-.1-2.8 1.1-.8 1.2-.8 2.6 0 3.2.8.6 2 .1 2.8-1.1zM655.7 354.2c.8-1.2.8-2.6 0-3.2s-2.1-.1-2.8 1.1c-.8 1.2-.8 2.6 0 3.2.8.6 2 .1 2.8-1.1zM632.5 390.8c.8-1.2.8-2.6 0-3.2-.8-.6-2.1-.1-2.8 1.1-.8 1.2-.8 2.6 0 3.2.7.6 2 .1 2.8-1.1zM648.2 366c.8-1.2.8-2.6 0-3.2-.8-.6-2.1-.1-2.8 1.1-.8 1.2-.8 2.6 0 3.2.8.6 2.1.1 2.8-1.1zM677.4 356c.8-1.2.8-2.6 0-3.2-.8-.6-2.1-.1-2.8 1.1-.8 1.2-.8 2.6 0 3.2.7.6 2 .1 2.8-1.1zM661.9 341.7c.8-1.2.8-2.6 0-3.2s-2.1-.1-2.8 1.1c-.8 1.2-.8 2.6 0 3.2.7.6 2 .1 2.8-1.1z"/><path class="st8" d="M694.4 507.3c19.9-10.6 30.7-18.6 31.5-47.8"/><path class="st8" d="M699.5 490c8.2-4.2 12.6-7.3 13.1-19.1"/><path class="st9" d="M267.5 81.8c7.4 1.4 5.7 6.7 20.8 16.5 20 13.2 30.3 8.4 58 21.2 10.6 5 29.7 13.7 28.8 22-.9 8.2-20.3 4.8-33.4 21.2-10.6 13.4-5.3 24.9-16.8 33.7-7.4 5.8-17.9 7.2-26.3 4.5-11.3-3.7-10.9-12.3-23.9-19.8-3.2-1.8-17.6-10.1-30.7-4.5-14.3 6.2-21.1 26.4-19.5 41.4 1.2 11.1 6.3 12.7 5.9 21.6-.7 18.2-23.1 36.3-33.1 31.6-1.9-.9-7.8-4.6-7.4-31.7 1-73.2 46.6-163.5 77.6-157.7z"/><path class="st0" d="M264.8 73.4c7.4 1.4 5.7 6.7 20.8 16.5 20 13.2 30.3 8.4 58 21.2 10.6 5 29.7 13.7 28.8 22-.9 8.2-20.3 4.8-33.4 21.2-10.6 13.4-5.3 24.9-16.8 33.7-7.4 5.8-17.9 7.2-26.3 4.5-11.3-3.7-10.9-12.3-23.9-19.8-3.2-1.8-17.6-10.1-30.7-4.5-14.3 6.2-21.1 26.4-19.5 41.4 1.2 11.1 6.3 12.7 5.9 21.6-.7 18.2-23.1 36.3-33.1 31.6-1.9-.9-7.8-4.6-7.4-31.7.8-73.1 46.5-163.5 77.6-157.7z"/><path class="st9" d="M199.3 287.5c4.2-2.8 14.3-2.8 16.4 1.2 1.9 3.5-3.6 8.1-2.2 12.3 2.1 6 16.9 5.4 24.8 5.1 38-1.3 57-1.8 63.1 5.6 5.4 6.7 3.8 16.6.5 36.4-3.8 23.2-9.9 25.9-12.5 43.9-3.6 24.9 4.3 45.4 6.8 51.6 9.9 24.7 27 38.4 31.8 42 33.4 25.3 68.7 16.2 75.5 38 .9 2.6 2 6.2.2 8.6-9.9 14.4-111.1-20-166-98.2-40.4-57.8-53.6-136.6-38.4-146.5z"/><path class="st0" d="M192.5 290.5c4.2-2.8 14.3-2.8 16.4 1.2 1.9 3.5-3.6 8.1-2.2 12.3 2.1 6 16.9 5.4 24.9 5.1 38-1.3 57-1.8 63.1 5.6 5.4 6.7 3.8 16.6.5 36.4-3.8 23.2-9.9 25.9-12.5 43.9-3.6 24.9 4.3 45.4 6.8 51.6 9.9 24.7 27 38.4 31.8 42 33.4 25.3 68.7 16.2 75.5 38 .9 2.6 2 6.2.2 8.6-9.9 14.4-111.1-20-166-98.2-40.4-57.7-53.7-136.6-38.5-146.5z"/><path class="st1" d="M236.7 425.6c7.1-2.8 5.3-26.8-4-53.7-9.3-26.9-22.6-46.4-29.8-43.7-7.1 2.8-5.3 26.8 4 53.7 9.4 26.9 22.7 46.4 29.8 43.7z"/><path class="st10" d="m706.5 431.9-14.8 3.6c-.7.1-1.4.6-1.7 1.1l-.5 1.1c-.1.4.1.6.6.6l13.3-.2 3.1-6.2z"/><path class="st1" d="m706.6 432-14.8 3.6c-.7.1-1.4.6-1.7 1.1l.1.2c-.1.4.1.5.5.5l13.2-.3 2.7-5.1z"/><path class="st11" d="M690.2 438.6c-.3 0-.5-.1-.6-.2-.1-.2-.2-.3-.1-.6l.5-1.1c.2-.6 1-1.1 1.7-1.3l15.1-3.7-3.2 6.6-13.4.3zm7.3-4.2c-1.7.6-4.2 1.6-4.5 2-.5.6-.8 1.6-.8 1.6l-.1.2 11.4-.2 2.8-5.9-8.8 2.3z"/><path class="st10" d="M707.2 396.2c-.7-.4-.8-.8-.6-1.3l2.1-7c.3-.4.8-.8 1.7-1.1 1.9-.6 4.4-.5 5.6.3.7.4.8.8.6 1.3l-3.4 6.9c-.3.4-.8.8-1.7 1.1-1.8.7-2.9.6-4.3-.2z"/><path class="st11" d="M707 396.4c-.6-.3-.9-.8-.7-1.4l2.2-7.2.1-.2v-.1c.3-.4 1-.9 1.7-1.1 1.9-.6 4.5-.5 5.9.3.4.3.6.5.8.8.1.2 0 .3.1.5v.1l-3.6 6.9-.1.2c-.3.4-1 .9-1.7 1.1-2 .9-3.3.9-4.7.1zm9.5-8.1c.2-.5-.1-.9-.7-1.2-1.2-.7-3.8-.9-5.5-.3-.8.3-1.3.6-1.5 1.1l-2.1 6.9v.1c-.2.5.1.9.7 1.2.7.4 1.3.6 2.1.6l3-6.7.6.1-3 6.7c.3 0 .6-.1.9-.2l2.9-6.6 1.2-.4 1.1-.5.3-.6v-.2z"/><path class="st11" d="M704.1 396.9s-.6-2.2 1.4-3.3c1.1-.7 2.1-1.5 2.7-2.3.6-.6 1-.9 1.1-1 .2-.1.4 0 .4 0 .1 0 .1.2.2.2.1.2 0 .3 0 .3l-1.5 3.4c-.2.7-1 1.3-1.9 1.6l-2.7 1 .3.1zM717.2 387.1l-.6-.1c-.1 0-.1-.2-.2-.2-1.2-.7-3.4-.9-5.3-.5l-1-.1-1.2 1.3c-.5.6-.3 1.3.6 1.9 1.3.8 3.9.9 5.8.3.9-.3 1.6-.8 1.9-1.3 0-.1.1-.4.2-.5l-.2-.8zm-7.2-.6h.9c1.7-.4 3.9-.2 5 .4.1 0 .2.1.2.2l.5.1-.1.7c.1.2 0 .3-.1.4-.2.5-.7.8-1.5 1.1-1.8.6-4.2.4-5.4-.3-.7-.4-.9-1-.4-1.5l.9-1.1z"/><path class="st10" d="M715.4 388.2c1.6-.6 2.1-1.5.9-2.3-1.2-.7-3.4-.9-5.2-.3-1.6.6-2.1 1.5-.9 2.3 1.3.7 3.6.9 5.2.3z"/><path class="st1" d="M714.7 388.1c1.5-.5 1.8-1.4.8-2-1-.6-3.1-.7-4.4-.2-1.5.5-1.8 1.4-.8 2 1 .5 2.9.7 4.4.2z"/><path class="st11" d="M717.1 386.5c0-.3-.4-.5-.7-.8-1.2-.7-3.7-.8-5.3-.2-.9.2-1.4.7-1.7 1.3-.2.5 0 .9.6 1.3 1.2.7 3.7.8 5.3.2.9-.2 1.4-.7 1.7-1.3.3 0 .2-.3.1-.5zm-7.2.7c-.1-.2 0-.3 0-.4.1-.4.6-.7 1.4-1 1.6-.6 3.8-.3 4.9.2.4.3.7.8.6 1-.1.4-.6.7-1.4 1-1.6.6-3.8.3-4.9-.2-.3-.2-.5-.4-.6-.6z"/><path class="st11" d="M715.7 386.5c-.1-.2-.2-.3-.4-.4-.7-.4-2.1-.5-3.1-.2-.6.2-.9.5-1 .7-.1.2 0 .5.4.8.7.4 2.1.5 3.1.2.6-.2.9-.5 1-.7-.1-.1 0-.2 0-.4z"/><path class="st10" d="m679.1 397.8.6-1.5c.2-.5 1-1 1.6-1l45.1-2.9-6.9 14.8-22.9-6.9-17-1.8c-.4 0-.6-.3-.5-.7z"/><path class="st1" d="m680.7 396.8.2-.7c.2-.5 1-1 1.6-1l45.2-2.8-6.6 13.8-23-6.8-17-1.8c-.2 0-.5-.4-.4-.7z"/><path class="st11" d="m696.5 400.5-17-1.8c-.3 0-.5-.2-.7-.3-.2-.2-.1-.5-.1-.6l.6-1.5c.3-.6 1-1.1 2-1.2l45.4-2.9-7 15.2-23.2-6.9zm-7.9-5.6c-1.4.3-4 .8-4.5 1.2-.7.7-1.4 2.2-1.6 2.6l14.1 1.5 22.9 6.7 6.8-14.5-37.7 2.5z"/><path class="st10" d="M742.8 411.7c-.7-.4-.8-.8-.6-1.3l2.1-7c.3-.4.8-.8 1.7-1.1 1.9-.6 4.4-.5 5.6.3.7.4.8.8.6 1.3l-3.4 7c-.3.4-.8.8-1.7 1.1-1.7.5-2.9.5-4.3-.3z"/><path class="st11" d="M742.7 411.8c-.6-.3-.9-.8-.7-1.4l2.2-7.2.1-.2v-.1c.1-.4.8-.8 1.7-1 1.9-.6 4.5-.5 5.9.3.4.3.6.5.8.8.1.2 0 .3.1.5v.1l-3.6 6.9-.1.2c-.3.4-.9.9-1.7 1.1-2.1.9-3.3.8-4.7 0zm9.5-8.1c.2-.5-.1-.9-.7-1.2-1.2-.7-3.8-.9-5.5-.3-.8.3-1.3.6-1.5 1.1l-2.1 6.9v.1c-.2.5.1.9.7 1.2.7.4 1.3.6 2.1.6l3-6.7.6.1-3 6.7c.3 0 .6-.1.9-.2l2.9-6.6 1.2-.4 1.1-.5.3-.6v-.2z"/><path class="st11" d="M739.6 412.4s-.6-2.2 1.4-3.3c1.1-.7 2.1-1.5 2.7-2.3.6-.6 1-.9 1.1-1s.4 0 .4 0c.1 0 .1.2.2.2.1.2 0 .3 0 .3l-1.4 3.3c-.2.7-1 1.3-1.9 1.6l-2.7 1 .2.2zM752.7 402.5l-.6-.1c-.1 0-.1-.2-.2-.2-1.2-.7-3.4-.9-5.3-.5l-1-.1-1.2 1.3c-.5.6-.3 1.3.6 1.9 1.3.8 3.9.9 5.8.3.9-.3 1.6-.8 1.9-1.3 0-.1.1-.4.2-.5l-.2-.8zm-7.1-.5h.9c1.7-.4 3.9-.2 5 .4.1 0 .2.1.2.2l.5.1-.1.7c.1.2 0 .3-.1.4-.2.5-.7.8-1.5 1.1-1.8.6-4.2.4-5.4-.3-.7-.4-.9-1-.4-1.5l.9-1.1z"/><path class="st10" d="M751.1 403.6c1.6-.6 2.1-1.5.9-2.3-1.2-.7-3.4-.9-5.2-.3-1.6.6-2.1 1.5-.9 2.3 1.3.8 3.5.9 5.2.3z"/><path class="st1" d="M750.3 403.5c1.5-.5 1.8-1.4.8-2-1-.6-3.1-.7-4.4-.2-1.5.5-1.8 1.4-.8 2 1 .7 2.9.7 4.4.2z"/><path class="st11" d="M752.8 402c0-.3-.4-.5-.7-.8-1.2-.7-3.7-.8-5.3-.2-.9.2-1.4.7-1.7 1.3-.2.5 0 .9.6 1.3 1.2.7 3.7.8 5.3.2.9-.2 1.4-.7 1.7-1.3.1-.1.1-.2.1-.5zm-7.4.6c-.1-.2 0-.3 0-.4.1-.4.6-.7 1.4-1 1.6-.6 3.8-.3 4.9.2.4.3.7.8.6 1-.1.4-.6.7-1.4 1-1.6.6-3.8.3-4.9-.2-.2-.1-.5-.3-.6-.6z"/><path class="st11" d="M751.3 402c-.1-.2-.2-.3-.4-.4-.7-.4-2.1-.5-3.1-.2-.6.2-.9.5-1 .7-.1.2 0 .5.4.8.7.4 2.1.5 3.1.2.6-.2.9-.5 1-.7.1-.2 0-.3 0-.4z"/><path class="st10" d="M726.2 380.9c4-5.3 13.5-11 15.7-11.2 3.2-.2 2.8 2 2.7 4.6-.1 5.3-7.6 23.7-12.7 35.3s-7.1 16.5-8.7 19.4c-3 5.1-16.2 14.6-20.5 17.3-3.3 1.9-3.9-.5-3.3-3.2.6-2.7 7.8-20.2 14-35.1 6-15 8.1-20.6 12.8-27.1z"/><path class="st1" d="M705.2 436.6c-.9.3-1.8.3-2.6 0 2.3-6.3 6.8-16.6 11.7-28.4 6.2-15 8.3-20.8 13-27.1 0 0 2-2.4 3.3-1.5 1.3.9 1.5 3.2-2.1 11.9-3.7 8.7-16.2 37.4-16.2 37.4s-2.7 5.7-7.1 7.7z"/><path class="st11" d="M730.7 380.5c-.1-.5-.4-.8-.8-1.1-.3-.3-.7-.3-1.2-.2-1.3.2-2.6 1.7-2.5 1.8-4.1 5.5-6.1 10.6-10.6 21.5-.7 1.8-1.4 3.6-2.4 5.7-1.2 2.9-2.4 5.6-3.5 8.4-3.5 8.1-6.5 15.3-8.2 20.2v.1h.1c.8.3 1.8.4 2.8 0 4.4-1.8 7.2-7.7 7.4-7.9.1-.2 12.6-28.7 16.1-37.4 2.6-6.5 3.2-9.5 2.8-11.1zM702 436.6c1.8-4.7 4.8-11.9 8.2-20 1.1-2.6 2.3-5.4 3.5-8.4.9-2 1.7-3.9 2.4-5.7 4.5-10.9 6.5-15.8 10.6-21.3 0 0 1.2-1.3 2.2-1.5.3 0 .6-.1.8.1 1.3.9 1.5 3.2-2.1 11.8-3.5 8.6-16 37.1-16.3 37.5 0 0-2.8 5.7-7.1 7.6-.8.2-1.7.3-2.2-.1zM732.7 382.6c-.1 0-.2-.2-.2-.3.1-.2.2-.5.3-.9.1-.2.3-.6.4-.9l.2-.6c.5-1.1.7-2.1.8-3 .1-.2.1-.7.2-.9 0-.3 0-.4-.2-.6l-.1-.2c-.1-.2-.3-.3-.4-.3h-.4c-.7 0-1.5.7-1.7.9l-.2-.2c.9-.6 1.8-1.4 2.8-2h.1c.3-.2.8-.4 1.1-.4.8-.1 1.5.3 1.8 1l.1.2c.4 1.5-.8 5.2-1.7 6.9-.3.6-.7 1-1.3 1.3l-.8.3c-.3-.1-.5-.2-.8-.3zm1.4-.4c.6-.3.9-.8 1-1.1.8-1.7 2.2-5.6 1.7-6.9-.2-.3-.5-.9-1.5-.8-.3 0-.6.2-.9.3h-.1c-.5.4-.9.6-1.5 1.1.2-.1.4-.1.6-.2l1.2-.8h.1c.4 0 .6.2.9.5h.1l-.2.1c-.3.2 0 0-.2.2l-.7.4c.1.2.3.4.2.6l1.2-.8v.3c.1.9-.4 2.3-.6 3.2l-1.5 1.5c-.2.6-.5 1.1-.6 1.5-.1.2-.2.6-.4.7l.1.2h1.1z"/><path class="st11" d="M699.9 447.1c-1.2-.3-1.3-2.3-.9-3.9.4-2.2 5.2-13.9 14-35.1.9-2 1.7-3.9 2.4-5.7 4.5-10.9 6.5-15.9 10.6-21.4 3.9-5.3 13.4-11.1 15.9-11.3 1.8-.2 2.6.4 2.8 1.3.2.8.2 1.6.1 2.5 0 .3 0 .4-.1.7-.2 5.2-7 22.3-12.8 35.3-1.4 3.2-2.6 5.8-3.6 8.1-2.6 5.9-3.9 9.2-5.3 11.3-2.8 5-15.9 14.6-20.6 17.4-.9.8-1.7 1.1-2.5.8zm26.5-66.1c-4.1 5.5-6.1 10.4-10.6 21.3-.7 1.8-1.4 3.6-2.4 5.7-8.7 21-13.4 33-14 35.1-.2 1.2-.3 2.2-.1 2.9 2.8-1.9 6.6-4.7 10-7.6.1-1.2.4-2.6 1-2.8 3.4-1.3 5.8-3.6 5.8-3.8.5-.6.9-1.1 1.2-1.6 1.8-2.9 3.2-7.4 8.2-19 5.1-11.5 12.2-27.1 13.7-35.5.6-3 .2-4.2-1.2-4.5-3.4 2.3-8.8 6.1-11.6 9.8z"/><path class="st10" d="M724.9 422.4c-.1 0-.4.1-.5.2-.4.9-1.7 4-2.5 5.6-.8 1.5-1.7 2.4-2 2.8-.2.2-.1.2.2.3.2.1.4 0 .6-.2.4-.4 1.3-1.6 2.2-2.9.9-1.5 2.2-4.6 2.6-5.6-.3.1-.5-.1-.6-.2zM719.1 432.3c-.2-.1-.4 0-.6.1-.2.2-.4.4-.8.7-.2.1-.2.3 0 .4.1 0 .4 0 .6-.1.4-.3.6-.5.8-.7.2 0 .2-.3 0-.4zM733.1 396c-1.5.8-6 11.5-7.4 15.1-.4.7-.1 1.5.4 1.9l13.4 12.9 14.3 17.9c.3.4 1.3.2 1.5-.2l1-1.9c.6-1.1.6-2.2.2-3.2L739.3 400c-.5-1.2-1.4-2.3-2.6-3-1-.8-2.1-1.7-3.6-1z"/><path class="st1" d="M734.2 397.1c-1.4.7-4.9 9.4-6.4 12.9-.4.7-.1 1.5.4 1.9l13 13.1 13.2 17.3c.3.4.6.2.7-.3l.9-1.7c.6-1.1.6-2.2.2-3.2l-16.7-36.9c-.5-1.2-.6-1.7-1.8-2.7-1-.3-2-1.1-3.5-.4z"/><path class="st11" d="M754.8 444.2c-.4.1-.8 0-.9-.4l-.5-.6-13.9-17.2-13.5-12.9c-.6-.5-.8-1.3-.4-2.1l.1-.2c2.8-6.6 6.1-14.3 7.3-14.9 1.6-.8 2.9 0 3.9.8 1.1.8 2 1.9 2.6 3.2l15.1 33.1 2.5 5.3c.1.2 0 .3.1.5.2.9.2 2-.3 3l-1 1.9c-.4.3-.8.5-1.1.5zM739 400c-.5-1.2-1.4-2.2-2.5-3-1.1-.8-2.1-1.3-3.3-.7-1.3.6-5.8 11.3-7.3 14.7l-.1.2c-.2.7-.2 1.3.3 1.9l13.4 12.9 11.6 14.4c.4-.7 1.6-3 2.2-4.3.5-1.2-.5-4.9-1.1-6.7L739 400z"/><path class="st10" d="M711.2 436.1c-.1-.5-.8-.4-1.3-.1-1.9 1.6-4.3 6.2-4.4 6.6-.3.4 1 1.9 1 1.9l7.4 8.7c.2.2.7.1 1-.2l.7-1.4c.3-.6.4-1.2.2-1.8l-4.6-13.7z"/><path class="st1" d="M711.5 437c-.1-.5-.6-.8-.6-.8-1.7 1.7-3.8 5.6-4 6.2-.2.5 1 1.9 1 1.9l6.2 7.4c.2.2.2.7.4.3l.7-1.4c.3-.6.3-.9.1-1.5l-3.8-12.1z"/><path class="st11" d="M714.7 453.5c-.1 0-.2.1-.2.1-.2.1-.4 0-.6-.1h-.1l-7.4-8.7c-.2-.2-1.3-1.4-1.1-1.9.3-.4 2.7-5 4.5-6.7.2-.2.6-.3.9-.3.3 0 .6.2.6.3l4.6 13.6c.2.6.1 1.3-.2 1.8l-.7 1.4c0 .2-.2.3-.3.5zm-3.7-17.2c-.1-.2-.2-.2-.3-.3-.1 0-.4 0-.6.2-1.9 1.6-4.2 6.1-4.3 6.5-.1.2.5 1.2 1 1.8l5.7 6.8c.4-.7 1-1.9 1.2-2.6.4-.9.3-2.9.1-3.7l-2.8-8.7z"/><path class="st10" d="M705 434s-21.6 12-22.3 12.8c-.6.6-1.5 2.9-2.1 4-.1.4.2.5.7.4l19.6-7.3c.8-.3 1.3-.7 1.5-1.2l3.6-8.1c.1-.2.5-1.2-1-.6z"/><path class="st11" d="M680.7 451.4h-.1c-.1 0 0-.3 0-.4.6-1.3 1.5-3.4 2.1-4 .8-.8 20.3-11.7 22.3-12.8.2-.1.3 0 .3-.2.3-.2.6-.1.8 0 .1 0 .1.2.2.2.1.2-.1.4 0 .4l-.3.4-.1.2-3.2 7.6c-.3.6-.9 1-1.7 1.4l-19.5 7.2c-.3.1-.6.1-.8 0zm20.2-7.6c.6-.3 1.1-.7 1.5-1.2l3.2-7.6c-.2.1-.7 0-1.2.4-1 .6-11.5 8.7-17.3 13.5l13.8-5.1z"/><path class="st10" d="m79.6 293.9 14.1-17.3c.6-.8 1-1.9.8-2.9l-.8-1.9c-.3-.5-.8-.8-1.5-.4l-16.3 11.1 3.7 11.4z"/><path class="st1" d="m79.4 293.9 14.1-17.3c.6-.8 1-1.9.8-2.9l-.4-.1c-.3-.5-.8-.6-1.3-.3l-16.1 11.1 2.9 9.5z"/><path class="st11" d="M92 271.1c.3-.3.8-.2 1.2-.1s.7.2.8.6l.8 1.9c.4.9.2 2.5-.7 3.3l-14.5 17.6-3.7-12L92 271.1zm-3.9 12.1c1.4-2.1 3.4-5.7 3.4-6.4-.1-1.2-.9-3.1-.9-3.1l-.1-.6-14 9.7 3.4 10.6 8.2-10.2z"/><path class="st10" d="M121.2 345.6c1.2.1 2.2.7 2.3 1.3l5.5 11.8c.2.8 0 1.9-.8 2.9-1.7 2.6-4.9 4.3-7.4 4.1-1.2-.1-2.2-.7-2.3-1.3l-3.9-12.7c-.2-.8 0-1.9.8-3 1.7-2.4 3.2-3.2 5.8-3.1z"/><path class="st11" d="M121.3 345.2c1.2.1 2.1.5 2.5 1.2l5.6 12 .1.4v.2c.2.8-.2 1.9-.9 3-1.7 2.6-5.1 4.3-7.8 4.4-.8 0-1.5-.2-2-.7-.2-.1-.5-.3-.6-.7v-.2l-3.7-12.9-.1-.4c-.2-.8.2-1.9.7-3.1 1.8-2.2 3.4-3.1 6.2-3.2zm-2.3 19.4c.4.7 1.1 1.2 2.3 1.3 2.4 0 5.7-1.8 7.2-4.1.6-1 .8-1.9.6-2.7l-5.5-11.6v-.2c-.4-.7-1.1-1.2-2.3-1.3-1.4 0-2.4.2-3.3.7l4.4 12.1-.9.5-4.1-12c-.3.3-.5.6-.8 1.1l4.1 12-.9 1.3-.8 1.7.2 1-.2.2z"/><path class="st11" d="M124.4 342.2s3.4 2.5 2.4 5.9c-.6 1.9-.7 4-.8 5.5-.1 1.3-.2 2-.3 2.2-.1.3-.3.3-.5.4-.2.1-.4-.1-.5-.3-.2-.1-.3-.3-.3-.3l-2.4-5.9c-.5-1.1-.4-2.6.3-3.9l2-3.7.1.1zM119.6 366.8l.9-.5c.2-.1.4.1.4.1 2.2 0 5.3-1.4 7.3-3.6l1.5-.6-.1-2.9c-.1-1.2-1.3-2-2.7-2.2-2.7-.1-6.1 1.8-7.7 4.4-.7 1.2-1.1 2.4-.9 3.4 0 .2.4.7.4.9l.9 1zm9.5-5.1-1.1.5c-1.5 2.1-4.5 3.5-6.7 3.5-.2.1-.4-.1-.4-.1l-.7.4-.6-.9c-.2-.1-.3-.3-.3-.5-.4-.7 0-1.7.6-2.9 1.5-2.3 4.7-4.2 7.2-4 1.4 0 2.2.7 2.4 1.9l-.4 2.1z"/><path class="st10" d="M120.3 363.7c-1.5 2.3-.7 4 1.5 4s5.3-1.6 6.8-3.7c1.5-2.3.7-4-1.5-4-2.2-.1-5.2 1.6-6.8 3.7z"/><path class="st1" d="M121.6 363.4c-1.2 1.8-.6 3.5 1.4 3.6 2 .1 4.7-1.5 5.9-3.3 1.2-1.8.6-3.5-1.4-3.6-2-.1-4.7 1.3-5.9 3.3z"/><path class="st11" d="M120.2 367.5c.5.3 1.1.5 1.7.6 2.2 0 5.5-1.7 7-4 .8-1 .9-2.1.7-3.1-.4-.9-1.1-1.4-2.3-1.3-2.2 0-5.5 1.7-7 4-.8 1-.9 2.1-.7 3.1.1.2.3.6.6.7zm8.3-6.8c.2.1.3.5.6.7.1.6-.1 1.5-.6 2.5-1.4 2-4.2 3.7-6.5 3.6-1 .1-1.7-.6-2.1-1.1-.1-.6.1-1.5.7-2.5 1.4-2 4.2-3.7 6.5-3.6.7-.1 1.2.2 1.4.4z"/><path class="st11" d="M122.1 366.4c.2.1.7.2 1.1.3 1.4 0 3.2-1.1 4.1-2.4.5-.5.5-1.4.4-1.8-.1-.6-.6-.9-1.6-.8-1.4 0-3.2 1.1-4.1 2.4-.5.5-.5 1.4-.4 1.8.3.1.3.3.5.5z"/><path class="st10" d="m154.6 320.7 1.1 2.9c.4.9.1 2.1-.8 2.7l-53 40.6L93 340l36.8-8.8 23.3-11.1c.3-.3 1.1-.1 1.5.6z"/><path class="st1" d="m153.6 323.5.5 1.1c.4.9.1 2.1-.8 2.7l-52.9 40.8-8.1-25.1 36.7-8.8 23.1-11.2c.5-.5 1.4-.3 1.5.5z"/><path class="st11" d="m129.5 331 23.1-11.2c.4-.1.8-.2 1.2-.1.4.1.7.4.8.8l1.1 2.9c.3 1.2 0 2.5-1.1 3.2l-53.3 40.9-9.1-27.5 37.3-9zm16.5 1.6c1.5-1.4 4.1-4.2 4.2-5.3.3-1.5-.8-4.4-1.2-5.1l-19.3 9.4-36.3 8.9 8.6 26.1 44-34z"/><path class="st10" d="M57.9 351.4c1.2.1 2.2.7 2.3 1.3l5.5 11.8c.2.8 0 1.9-.8 2.9-1.7 2.6-4.9 4.3-7.4 4.1-1.2-.1-2.2-.7-2.3-1.3l-3.9-12.7c-.2-.8 0-1.9.8-2.9 1.9-2.4 3.4-3.2 5.8-3.2z"/><path class="st11" d="M58 351.1c1.2.1 2.1.5 2.5 1.2l5.6 12 .1.4v.2c.1.6-.2 1.7-.8 3-1.7 2.6-5.1 4.3-7.8 4.4-.8 0-1.5-.2-2-.7-.2-.1-.5-.3-.6-.7v-.2l-3.7-12.9-.1-.4c-.2-.8.2-1.9.7-3.1 1.9-2.3 3.5-3.1 6.1-3.2zm-2.3 19.2c.4.7 1.1 1.2 2.3 1.3 2.4 0 5.7-1.8 7.2-4.1.6-1 .8-1.9.6-2.7l-5.5-11.6v-.2c-.4-.7-1.1-1.2-2.3-1.3-1.4 0-2.4.2-3.3.7l4.4 12.1-.9.5-4.2-12c-.3.3-.5.6-.8 1.1l4.1 12-.9 1.3-.8 1.7.2 1-.1.2z"/><path class="st11" d="M61.3 348.1s3.4 2.5 2.4 5.9c-.6 1.9-.7 4-.8 5.5-.1 1.3-.2 2-.3 2.2-.1.3-.3.3-.5.4-.2.1-.4-.1-.5-.3-.2-.1-.3-.3-.3-.3l-2.4-5.9c-.5-1.1-.4-2.6.3-3.9l2-3.7.1.1zM56.5 372.7l.9-.5c.2-.1.4.1.4.1 2.2 0 5.3-1.4 7.3-3.6l1.5-.6-.1-2.9c-.1-1.2-1.3-2-2.7-2.2-2.7-.1-6.1 1.8-7.7 4.4-.7 1.2-1.1 2.4-.7 3.3 0 .2.4.7.4.9l.7 1.1zm9.6-5.1-1.1.5c-1.5 2.1-4.5 3.5-6.7 3.5-.2.1-.4-.1-.4-.1l-.7.4-.6-.9c-.2-.1-.3-.3-.3-.5-.4-.7 0-1.7.6-2.9 1.5-2.3 4.7-4.2 7.2-4 1.4 0 2.2.7 2.4 1.9l-.4 2.1z"/><path class="st10" d="M57.2 369.6c-1.5 2.3-.7 4 1.5 4s5.3-1.6 6.8-3.7c1.5-2.3.7-4-1.5-4-2.4 0-5.4 1.6-6.8 3.7z"/><path class="st1" d="M58.5 369c-1.2 1.8-.6 3.5 1.4 3.6 2 .1 4.7-1.5 5.9-3.3 1.2-1.8.6-3.5-1.4-3.6-2.2 0-4.7 1.5-5.9 3.3z"/><path class="st11" d="M57.1 373.4c.5.3 1.1.5 1.7.6 2.2 0 5.5-1.7 7-4 .8-1 .9-2.1.7-3.1-.4-.9-1.1-1.4-2.3-1.3-2.2 0-5.5 1.7-7 4-.8 1-.9 2.1-.7 3.1 0 0 .3.4.6.7zm8.3-6.9c.2.1.3.5.6.7.1.6-.1 1.5-.7 2.5-1.4 2-4.2 3.7-6.5 3.6-1 .1-1.7-.6-2.1-1.1-.1-.6.1-1.5.7-2.5 1.4-2 4.2-3.7 6.5-3.6.6.1 1.2.1 1.5.4z"/><path class="st11" d="M59 372c.2.1.7.2 1.1.3 1.4 0 3.2-1.1 4.1-2.4.5-.5.5-1.4.4-1.8-.1-.6-.6-.9-1.6-.8-1.4 0-3.2 1.1-4.1 2.4-.5.5-.5 1.4-.4 1.8.1.5.3.6.5.5z"/><path class="st10" d="M115.3 382.5c1.3 10.9-3.8 26.5-6.4 28.7-3.7 2.9-5.9-.5-8.8-4.4-6.1-7.9-18.6-40.2-26.1-60.9-7.4-20.7-10.6-29.4-12.1-34.9-2.2-9.6 2.9-34.1 5.1-41.5 1.8-5.6 5.4-2.5 7.9 1.9s14.2 35.2 24.2 61.6c10.4 26.7 14.7 36.6 16.2 49.5z"/><path class="st1" d="M75.5 286c.7-1.3 1.8-2 3.2-2.1C83.4 295 90 313 97.9 334c10 26.4 14.4 36.5 15.9 49.5 0 0 .3 5-2.4 4.9-2.7-.1-5.7-3.2-11.5-18.8C94 354.1 75.7 303 75.7 303s-3.3-10.6-.2-17z"/><path class="st11" d="M110.3 386.7c.8.6 1.6.8 2.3.9.6 0 1.2-.1 1.5-.6 1.3-1.4 1-4.5 1-4.5-1.5-11.1-4.8-19.9-12.1-39.4-1.1-3.1-2.5-6.3-3.8-10.2-1.8-5-3.7-10-5.4-14.7-5.4-14.5-10.2-27.2-13.7-35.4v-.2l-.2.1c-1.6.2-2.7.9-3.4 2.2-3.3 6.2-.1 16.8 0 17.2.1.6 18.6 51.3 24.4 66.7 4.4 11.4 7.2 16.2 9.4 17.9zM79.6 283.3c3.5 8.2 8.1 21 13.6 35.2 1.7 4.6 3.7 9.6 5.4 14.7 1.3 3.7 2.6 6.9 3.8 10.2 7.3 19.3 10.7 27.9 12.1 39.2 0 0 .1 3-.9 4.1-.3.3-.7.6-1.1.5-2.7-.1-5.7-3.4-11.3-18.6-5.8-15.2-24-66.2-24.2-66.8 0 0-3.3-10.6-.3-16.5.8-1.3 1.7-1.9 2.9-2zM105.3 385.3c.2-.1.4.1.5.5.3.3.4.7.5 1.3.1.6.3 1.2.6 1.7l.4.9c.8 1.9 1.6 3.6 2.4 5.1.1.6.6.9.9 1.2.3.3.6.7 1 .8l.4.1c.4.1.6 0 .9.2.2-.1.2-.1.4-.1.7-.6 1.1-2.2 1.3-2.5l.4.1c-.2 1.7-.6 3.5-1.1 5-.1.6-.5 1.2-.9 1.5-.8.9-2.3.8-3.3 0l-.2-.1c-2.5-1.9-5.1-8.1-6-11.3-.2-1-.3-2 .2-2.8l.6-1c.5-.4.6-.7 1-.6zm-1 1.8c-.4 1-.2 1.7 0 2.5.9 3.1 3.9 9.9 6 11.3.7.2 1.8.8 2.8-.1.3-.3.5-.6.7-1.3l.6-2.7c-.1.3-.3.5-.7.6l-.6 2.1-.2.1c-.6.2-1 .3-1.6 0l-.2.1.1-.3c.1-.6 0 0 .1-.5l.3-1.4c-.4-.1-.7-.4-.9-.6l-.6 2.1-.3-.3c-1.3-1.1-2.2-3.6-3-5.1l.3-3.2c-.4-.9-.8-1.9-1-2.7-.1-.6-.4-.9-.5-1.3l-.2-.1s-.2.1-.3.3l-.8.5z"/><path class="st11" d="M69.7 266.4c1.9-.5 4.4 2.2 5.9 5 2 3.5 10 24 24.2 61.6 1.3 3.7 2.6 6.9 3.8 10.2 7.3 19.3 10.7 28.1 12.1 39.4 1.4 10.7-3.6 26.6-6.6 28.9-2.1 1.6-3.6 1.4-5.1.3-1-.8-2.1-2.2-3.3-3.6-.3-.3-.6-.7-.9-1-5.8-7.6-17.6-37.5-25.9-60.9-1.9-5.6-3.6-10.3-5.2-14.5-3.9-10.6-6-16.4-6.7-20.5-2.4-9.5 2.6-33.8 4.9-41.6.8-1.9 1.6-3 2.8-3.3zm45.2 116.2c-1.5-11.1-4.8-19.9-12-39.2-1.1-3.1-2.5-6.3-3.8-10.2C85 295.8 76.8 275.1 75 271.6c-1-1.8-2.2-3.4-3.2-4.2-1.1 5-2.6 11.9-3.5 19 1.2 1.8 2.6 4 2 5-2.6 4.7-2.9 9.9-2.8 10.1.1 1.3.1 2.3.3 3.3 1.3 5.6 4.8 13.1 12.3 33.8 7.4 20.7 17.1 48.7 24.8 61.8 2.7 4.6 4.7 6.2 6.8 5.4 2.1-5.7 4.3-15.6 3.2-23.2z"/><path class="st10" d="M67.8 321.9c.2-.1.3-.5.3-.7-.6-1.7-2.7-7.3-3.3-9.9-.6-2.6-.7-4.9-.9-5.7-.1-.4-.1-.6-.5-.5s-.5.4-.7.6c0 1.1.1 3.4.7 6 .6 2.8 2.7 8.2 3.4 10.1.4 0 .6.2 1 .1zM63.2 303.1c.4-.1.5-.4.5-.6-.1-.4 0-1 .1-1.5.1-.3-.1-.6-.5-.5-.2.1-.6.2-.5.6-.1.6-.1 1.3 0 1.7-.1 0 .2.3.4.3zM88.5 366c.9-2.3-6-21.3-8.5-27.6-.5-1.3-1.5-2.1-2.8-2.6l-31.9-7.4-39.1-14.1c-.9-.4-1.9.7-1.6 1.7l1 3.7c.7 2.1 1.9 3.7 3.6 4.9l67.3 41c2.1 1.3 4.4 2.2 6.8 2.4 1.8-.1 4.1.2 5.2-2z"/><path class="st1" d="M85.7 365.2c.9-2.1-5-17.4-7.3-23.9-.5-1.3-1.5-2.1-2.8-2.6l-31.5-8.3-36.9-14.3c-.9-.4-1 .1-.6 1l.9 3.1c.7 2.1 1.9 3.7 3.6 4.9l64.3 39.3c2.1 1.3 2.9 2 5.2 2.4 1.9.4 4.2.8 5.1-1.6z"/><path class="st11" d="M4.6 314.5c.5-.6.9-.7 1.5-.4l1.3.5 37.8 13.6 31.9 7.4c1.5.2 2.5 1.2 3 2.6l.3.3c4.3 11.7 9.2 25.5 8.3 27.5-1.1 2.4-3.7 2.3-5.6 1.9-2.3-.2-4.7-1-6.8-2.4l-57.8-35.1-9.5-5.7c-.2-.1-.5-.3-.7-.4-1.5-1.1-2.4-2.7-3-4.4l-1-3.7c-.2-.7-.2-1.4.3-1.7zM76.5 365c2.1 1.3 4.5 1.9 6.6 2.2 2.3.2 4.3.3 5.1-1.6.8-1.9-6.1-20.7-8.4-27l-.1-.4c-.5-1.3-1.5-2.1-2.6-2.5l-31.9-7.4L14 317.2c.3 1.2 1.4 5.5 2.2 7.8.7 2.1 6.3 6.5 9.3 8.7l51 31.3z"/><path class="st10" d="M68.3 291.3c.7.4 1.6 0 1.6-.9.3-3.9-2-12.3-2.4-13.1-.2-.8-3.5-1.8-3.5-1.8L44.4 269c-.5-.3-1.1.5-1 1.1l.8 2.5c.3 1.2 1.1 2 1.9 2.9l22.2 15.8z"/><path class="st1" d="M67 290.2c.7.4 1.6.6 1.6.6.1-3.8-1.9-11.1-2.3-12-.4-.7-3.5-1.8-3.5-1.8l-16.5-5.7c-.5-.3-1-.8-.9-.2l.8 2.5c.3 1.2.7 1.5 1.7 2.1L67 290.2z"/><path class="st11" d="M43.8 269.3c0-.2.1-.3 0 0 .3-.5.7-.6.9-.7l.2-.1 19.6 6.5c.5.3 3.3 1 3.7 2 .2.8 2.7 9.4 2.2 13.1-.1.4-.4 1-.7 1.3-.4.1-1 .1-1.2-.1l-21.6-15.7c-.9-.6-1.6-1.7-2.1-2.8l-.8-2.5c-.4-.3-.3-.8-.2-1-.2 0 0 0 0 0zM68.6 291c.2.1.4.1.6 0 .2-.1.3-.3.5-.6.6-3.7-1.9-12.1-2.3-12.9-.1-.6-2.1-1.3-3.2-1.7l-15.2-5c.3 1.2 1 3.7 1.5 4.7.4 1.8 3 4.5 4.3 5.4L68.6 291z"/><path class="st10" d="M78.8 290s12.7-34.7 12.7-36.6c-.1-1.2-1.4-5.3-2.1-7.5-.1-.6-.9-.6-1.4 0l-16 26.5c-.6 1-.7 2.1-.3 3l5.2 14.7c.1.1.6 1.7 1.9-.1z"/><path class="st11" d="m88.7 245 .2-.1c.2-.1.5.3.6.7.7 2.3 2.2 6.2 2.1 7.5 0 1.9-11.4 33.3-12.8 36.8-.1.3-.1.3-.3.5-.3.5-.7.6-.9.7-.2.1-.4-.1-.5-.3-.2-.1-.4-.7-.6-.7l-.2-.8-.3-.3-4.9-13.5c-.3-1.2-.1-2.3.5-3.3L87.5 246c.6-.8.8-.9 1.2-1zm-16.4 27.5c-.6 1-.8 1.9-.4 2.8l4.9 13.5c.1-.3.7-.6 1.1-1.6.6-1.9 4-21.8 5.7-33.4l-11.3 18.7z"/><path class="st10" d="M614.1 92.6c-11.1 5.6-21 22.7-21.9 38.4-.4 6.2.9 11.4 3 14.8L611 179l7.7 4.2c.6-1.7 11.7-60.4 12.4-62.2 1.1-4.2 9.3-6.8 9.4-10.7 0-14.4-15.7-23.2-26.4-17.7zm-1.5 37.5c-4.3 2.4-7.7-.5-7.4-6.5.4-5.9 4-12.4 8.3-14.7 4.1-2.2 7.4.5 7.3 6.4-.3 5.9-4 12.4-8.2 14.8z"/><path class="st1" d="M615.3 95.6c-11.1 5.6-21 22.7-21.9 38.4-.1 2.9 0 5.6.5 8 12.6 8.4 22 7.9 31.9 15.3 3.1-15.7 6.3-32.2 6.4-33.1 1.1-4.2 7.3-7.1 7.3-11.1.3-14.6-13.4-23-24.2-17.5zm-1.2 37.6c-4.3 2.4-7.7-.5-7.4-6.5.4-5.9 4-12.4 8.3-14.7 4.1-2.2 7.4.5 7.3 6.4-.4 5.7-3.9 12.5-8.2 14.8z"/><path class="st11" d="m619 184.5-8.7-4.7-.1-.1-15.9-33.3c-2.3-3.7-3.5-8.9-3.1-15.3 1-15.7 10.9-33.4 22.4-39.2 5.8-2.9 13.2-2 19.2 2.2 5.4 4.1 8.7 10.1 8.4 16.6 0 2.6-2.5 4.6-4.9 6.4-2 1.4-4 2.9-4.5 4.6-.1.8-2.3 11.4-4.5 22.7-4.3 22.5-7.4 38.4-7.9 39.4l-.4.7zm-7.4-6 6.4 3.5c1-4.6 4.8-23.7 7.7-38.2 2.6-13.7 4.3-22.1 4.5-22.8.6-2.2 3-4.1 5.1-5.6 2.1-1.7 4.3-3.1 4.3-4.7.1-6-2.6-11.5-7.7-14.9-5.4-3.8-12.2-4.7-17.6-2-10.9 5.5-20.5 22.5-21.4 37.7-.4 5.9.6 10.7 2.8 14.3l15.9 32.7zm-1.9-46.6c-1 0-2-.4-2.6-.9-1.9-1.3-2.8-4.1-2.6-7.5.4-6.2 4.1-13.1 8.7-15.6 2.1-1 4.3-1 5.8 0 1.9 1.3 2.8 3.8 2.6 7.1-.1 6.2-4 13.1-8.7 15.7-1.1.8-2.2 1.2-3.2 1.2zm6.5-22.8c-.6 0-1.5.1-2.3.8-4 2.2-7.4 8.4-7.8 13.9-.1 2.8.5 5 1.9 5.9 1.1.8 2.6.8 4.3-.1 4-2.2 7.4-8.6 7.7-14 0-2.6-.6-4.6-2-5.6-.7-.7-1.2-.9-1.8-.9z"/><path class="st11" d="M640.5 113.1c.1-14.7-8.2-21.9-18.9-16.5-11.1 5.6-21 22.7-21.9 38.4-.4 6.2.9 11.4 3 14.8l15.8 33.3 18.2-52.6c.6-1.7 1.4-3.5 1.9-5.2 1.2-4 1.9-8.2 1.9-12.2z"/><path class="st11" d="m619 184.5-1-.5-16-33.6c-2.3-3.7-3.5-8.9-3.1-15.3 1-15.7 10.9-33.4 22.4-39.2 5.1-2.6 9.9-2.6 13.7.1 4.3 3.1 6.7 9.2 6.4 17.2 0 4.1-.6 8.3-2 12.6-.5 1.8-1.1 3.7-1.9 5.2L619 184.5zm9.5-88.7c-2 0-4.3.5-6.7 1.8-10.9 5.5-20.5 22.5-21.4 37.7-.4 5.9.6 10.7 2.8 14.3l15.1 31.6 17.6-50.8c.6-1.7 1.4-3.5 1.9-5.1 1.1-4.2 1.9-8.2 2-12 .1-7.1-2-12.8-5.6-15.6-1.8-1.3-3.6-1.9-5.7-1.9z"/><path class="st10" d="m619.4 145.8-8.2-6c-1.1-.9-1-3.3.1-5.6 1.1-2.2 3.1-3.3 4.3-2.6l4.1 3.1 7.7-17c1-2.4 3-3.8 4.3-3.3s1.5 2.9.5 5.1L621 144.7c-.6 1-1.4 1.4-1.6 1.1zM266 250.1c10.9 5.6 20.5 22.7 21.3 38.4.4 6.2-.9 11.4-3 14.8l-15.5 33.3-7.4 4.2c-.6-1.7-11.5-60.4-12.1-62.2-1.1-4.2-9-6.8-9.1-10.7-.1-14.5 15.3-23.3 25.8-17.8zm1.4 37.5c4.2 2.4 7.4-.5 7.3-6.5-.4-5.9-3.8-12.4-8-14.7-4.1-2.2-7.3.5-7 6.4 0 5.9 3.5 12.4 7.7 14.8z"/><path class="st1" d="M264.7 253.2c10.9 5.6 20.5 22.7 21.3 38.4.1 2.9 0 5.6-.5 8-12.2 8.4-21.5 7.9-31.2 15.3-3.1-15.7-6.2-32.2-6.3-33.1-1.1-4.2-7-7.1-7-11.1-.2-14.7 13.2-23 23.7-17.5zm1.3 37.5c4.2 2.4 7.4-.5 7.3-6.5-.4-5.9-3.8-12.4-8-14.7-4.1-2.2-7.3.5-7 6.4.1 5.7 3.5 12.5 7.7 14.8z"/><path class="st11" d="m261.1 342.1 8.4-4.7.1-.1 15.5-33.3c2.2-3.7 3.3-8.9 3.1-15.3-1-15.7-10.6-33.4-21.8-39.1-5.7-2.9-13-2-18.8 2.2-5.3 4.1-8.4 10.1-8.3 16.6 0 2.6 2.5 4.6 4.8 6.4 2 1.4 3.8 2.9 4.3 4.6.1.8 2.2 11.4 4.3 22.7 4.2 22.5 7.3 38.4 7.8 39.4l.6.6zm7.3-6.1-6.3 3.5c-1-4.6-4.7-23.7-7.4-38.2-2.6-13.7-4.2-22.1-4.3-22.8-.6-2.2-3-4.1-5.1-5.6-2.1-1.7-4.2-3.1-4.2-4.7-.1-6 2.6-11.5 7.4-14.9 5.3-3.8 12-4.7 17.2-2 10.6 5.5 20 22.5 20.9 37.7.4 5.9-.6 10.7-2.7 14.3L268.4 336zm1.9-46.6c1 0 2-.4 2.6-.9 1.7-1.3 2.7-4.1 2.6-7.5-.4-6.2-4.1-13.1-8.4-15.6-2.1-1-4.2-1-5.7 0-1.7 1.3-2.7 3.8-2.6 7.1.1 6.2 3.8 13.1 8.4 15.7 1 1 2.1 1.2 3.1 1.2zm-6.4-22.8c.6 0 1.5.1 2.2.8 3.8 2.2 7.3 8.4 7.5 13.9.1 2.8-.5 5-1.7 5.9-1.1.8-2.6.8-4.2-.1-3.8-2.2-7.3-8.6-7.4-14 0-2.6.6-4.6 2-5.6.4-.7.9-.9 1.6-.9z"/><path class="st11" d="M240.1 270.7c-.1-14.7 7.9-21.9 18.4-16.5 10.9 5.6 20.5 22.7 21.3 38.4.4 6.2-.9 11.4-3 14.8l-15.5 33.3-17.6-52.7c-.6-1.7-1.2-3.5-1.7-5.2-1.2-4-1.9-8.2-1.9-12.1z"/><path class="st11" d="m261.1 342.1 1-.5 15.7-33.7c2.2-3.7 3.3-8.9 3.1-15.3-1-15.7-10.6-33.4-21.8-39.2-5.1-2.6-9.6-2.6-13.4.1-4.2 3.1-6.4 9.2-6.3 17.2 0 4.1.6 8.2 2 12.6.5 1.8 1.1 3.7 1.7 5.2l18 53.6zm-9.3-88.8c2 0 4.2.5 6.4 1.8 10.6 5.5 20 22.5 20.9 37.7.4 5.9-.6 10.7-2.7 14.3l-14.7 31.6-17.2-50.8c-.6-1.7-1.2-3.5-1.7-5.1-1.1-4.2-1.7-8.2-2-12-.1-7.1 2-12.8 5.4-15.6 1.8-1.1 3.7-1.9 5.6-1.9z"/><path class="st10" d="m260.9 303.3 7.9-6c1.1-.9 1-3.3-.1-5.6-1.1-2.2-3.1-3.3-4.2-2.6l-4.1 3.1-7.4-17c-1-2.4-3-3.8-4.2-3.3-1.2.5-1.5 2.9-.5 5.1l11 25.3c.6.9 1.2 1.3 1.6 1z"/><path d="M649.2 173.9c0-.5-.9-.9-2.1-.9-1.2 0-2.1.4-2.1.9s.9.9 2.1.9c1.1.1 2.1-.3 2.1-.9zM639.2 183.8c0-.7-1-1.3-2.2-1.3-1.2 0-2.2.6-2.2 1.3 0 .7 1 1.3 2.2 1.3 1.2 0 2.2-.6 2.2-1.3zM646.3 183.5c0-.7-1-1.3-2.2-1.3-1.2 0-2.2.6-2.2 1.3 0 .7 1 1.3 2.2 1.3 1.2 0 2.2-.6 2.2-1.3zM632.3 183.6c0-.7-1-1.3-2.2-1.3-1.2 0-2.2.6-2.2 1.3 0 .7 1 1.3 2.2 1.3s2.2-.6 2.2-1.3zM624.5 183.6c0-.7-1-1.3-2.2-1.3-1.2 0-2.2.6-2.2 1.3 0 .7 1 1.3 2.2 1.3 1.2 0 2.2-.6 2.2-1.3zM644.7 178.7c0-.7-1-1.3-2.2-1.3-1.2 0-2.2.6-2.2 1.3 0 .7 1 1.3 2.2 1.3 1.2 0 2.2-.6 2.2-1.3zM653 183.2c0-.7-1-1.3-2.2-1.3-1.2 0-2.2.6-2.2 1.3 0 .7 1 1.3 2.2 1.3s2.2-.6 2.2-1.3zM652.7 178.8c0-.7-1-1.3-2.2-1.3s-2.2.6-2.2 1.3c0 .7 1 1.3 2.2 1.3 1.2 0 2.2-.6 2.2-1.3zM642 173.9c0-.7-1-1.3-2.2-1.3-1.2 0-2.2.6-2.2 1.3 0 .7 1 1.3 2.2 1.3 1.2 0 2.2-.6 2.2-1.3zM630 178.8c0-.7-1-1.3-2.2-1.3-1.2 0-2.2.6-2.2 1.3 0 .7 1 1.3 2.2 1.3 1.1 0 2.1-.5 2.2-1.3zM658.3 178.8c0-.4-.8-.8-1.8-.8s-1.9.3-1.9.8c0 .4.8.8 1.8.8 1.1 0 1.9-.4 1.9-.8zM635 173.7c0-.7-1-1.3-2.2-1.3s-2.2.6-2.2 1.3c0 .7 1 1.3 2.2 1.3s2.2-.6 2.2-1.3zM655.7 174c0-.4-.8-.8-1.8-.8s-1.9.3-1.9.8c0 .4.8.8 1.8.8 1.1-.1 1.9-.4 1.9-.8zM637.3 178.7c0-.7-1-1.3-2.2-1.3-1.2 0-2.2.6-2.2 1.3 0 .7 1 1.3 2.2 1.3 1.2 0 2.2-.6 2.2-1.3zM292.4 329.2c0-.5-.9-.9-2.1-.9-1.2 0-2.1.4-2.1.9s.9.9 2.1.9c1.1 0 2.1-.4 2.1-.9zM282.5 338.9c0-.7-1-1.3-2.2-1.3-1.2 0-2.2.6-2.2 1.3 0 .7 1 1.3 2.2 1.3 1.2 0 2.2-.6 2.2-1.3zM289.6 338.7c0-.7-1-1.3-2.2-1.3-1.2 0-2.2.6-2.2 1.3 0 .7 1 1.3 2.2 1.3 1.2 0 2.2-.5 2.2-1.3zM275.7 338.8c0-.7-1-1.3-2.2-1.3-1.2 0-2.2.6-2.2 1.3 0 .7 1 1.3 2.2 1.3 1.2 0 2.2-.6 2.2-1.3zM267.7 338.7c0-.7-1-1.3-2.2-1.3-1.2 0-2.2.6-2.2 1.3s1 1.3 2.2 1.3c1.2 0 2.2-.6 2.2-1.3zM288.1 333.8c0-.7-1-1.3-2.2-1.3-1.2 0-2.2.6-2.2 1.3s1 1.3 2.2 1.3c1.2 0 2.2-.6 2.2-1.3zM296.4 338.3c0-.7-1-1.3-2.2-1.3s-2.2.6-2.2 1.3c0 .7 1 1.3 2.2 1.3 1.2 0 2.2-.6 2.2-1.3zM296.1 333.9c0-.7-1-1.3-2.2-1.3-1.2 0-2.2.6-2.2 1.3 0 .7 1 1.3 2.2 1.3 1.2 0 2.2-.6 2.2-1.3zM285.3 329.1c0-.7-1-1.3-2.2-1.3-1.2 0-2.2.6-2.2 1.3 0 .7 1 1.3 2.2 1.3 1.2 0 2.2-.6 2.2-1.3zM273.3 334c0-.7-1-1.3-2.2-1.3-1.2 0-2.2.6-2.2 1.3s1 1.3 2.2 1.3 2.2-.6 2.2-1.3zM301.7 334.1c0-.4-.8-.8-1.8-.8s-1.9.3-1.9.8c0 .4.8.8 1.8.8s1.9-.4 1.9-.8zM278.3 328.9c0-.7-1-1.3-2.2-1.3-1.2 0-2.2.6-2.2 1.3s1 1.3 2.2 1.3 2.2-.6 2.2-1.3zM299 329.2c0-.4-.8-.8-1.8-.8s-1.9.3-1.9.8c0 .4.8.8 1.8.8s1.8-.3 1.9-.8zM280.6 334c0-.7-1-1.3-2.2-1.3-1.2 0-2.2.6-2.2 1.3 0 .7 1 1.3 2.2 1.3 1.2 0 2.2-.6 2.2-1.3zM304.4 295.6c-.5.3-.7.9-.5 1.4l3.9 8.1c.2.5.8.7 1.3.4.5-.3.7-.9.5-1.4l-3.5-7.2 7.1-3.8c.5-.3.7-.9.5-1.4-.2-.5-.8-.7-1.3-.4l-8 4.3zm309-106.8c-.5.9-.9 1.9-1.4 2.8l1.8.9c.5-.9.9-1.9 1.4-2.8l-1.8-.9zm-4.1 8.3c-.9 1.8-1.9 3.6-2.9 5.3l1.7 1c1-1.8 1.9-3.5 2.9-5.3l-1.7-1zm-5.9 10.6c-1 1.8-2.1 3.5-3.2 5.2l1.6 1.1c1.1-1.7 2.2-3.5 3.2-5.3l-1.6-1zm-6.5 10.2c-1.1 1.7-2.3 3.4-3.5 5l1.6 1.2c1.2-1.7 2.3-3.3 3.5-5.1l-1.6-1.1zm-7.1 10c-1.2 1.6-2.4 3.2-3.7 4.7l1.5 1.3c1.3-1.6 2.5-3.2 3.7-4.8l-1.5-1.2zm-7.5 9.4c-1.3 1.5-2.6 3.1-4 4.5l1.4 1.4c1.4-1.5 2.7-3 4-4.6l-1.4-1.3zm-8.1 8.9c-1.4 1.5-2.8 2.9-4.3 4.3l1.3 1.5c1.5-1.4 2.9-2.9 4.3-4.4l-1.3-1.4zm-8.7 8.5c-1.5 1.4-3 2.7-4.5 4l1.2 1.5c1.5-1.3 3.1-2.7 4.6-4.1l-1.3-1.4zm-9.1 7.9c-1.6 1.3-3.1 2.5-4.7 3.7l1.1 1.6c1.6-1.2 3.2-2.5 4.8-3.7l-1.2-1.6zm-9.6 7.2c-1.6 1.2-3.3 2.3-4.9 3.4l1 1.7c1.7-1.1 3.3-2.2 5-3.4l-1.1-1.7zm-10 6.7c-1.7 1.1-3.4 2.1-5.1 3.1l.9 1.8c1.7-1 3.5-2 5.2-3.1l-1-1.8zm-10.3 6c-1.8 1-3.5 1.9-5.3 2.8l.8 1.8c1.8-.9 3.6-1.8 5.4-2.8l-.9-1.8zm-10.7 5.3c-1.8.8-3.6 1.7-5.5 2.4l.7 1.9c1.8-.8 3.7-1.6 5.5-2.5l-.7-1.8zm-10.9 4.8c-1.9.7-3.7 1.5-5.6 2.1l.6 1.9c1.9-.7 3.8-1.4 5.6-2.2l-.6-1.8zm-11.2 4.1-5.7 1.8.5 1.9 5.7-1.8-.5-1.9zm-11.4 3.5-5.7 1.5.4 2c1.9-.5 3.8-1 5.8-1.5l-.5-2zm-11.4 2.9c-1.9.4-3.8.9-5.8 1.3l.3 2c1.9-.4 3.9-.8 5.8-1.3l-.3-2zm-11.6 2.4c-1.9.4-3.9.7-5.8 1l.2 2c1.9-.3 3.9-.6 5.9-1l-.3-2zm-11.7 1.8c-2 .3-3.9.5-5.8.7l.2 2c2-.2 3.9-.5 5.9-.7l-.3-2zm-11.7 1.4c-2 .2-3.9.4-5.9.5l.1 2c2-.1 3.9-.3 5.9-.5l-.1-2zm-11.8.8c-2 .1-3.9.2-5.9.3v2c2-.1 3.9-.2 5.9-.3v-2zm-11.8.5c-2 0-3.9.1-5.9.1l-.1 2c2 0 3.9 0 5.9-.1l.1-2zm-11.7 0c-2 0-3.9-.1-5.9-.2l-.1 2c2 .1 3.9.1 5.9.2l.1-2zm-11.8-.4c-2-.1-3.9-.2-5.9-.3l-.2 2c1.9.1 3.9.2 5.9.3l.2-2zm-11.7-.8c-2-.2-3.9-.3-5.8-.5l-.2 2c1.9.2 3.9.4 5.9.5l.1-2zm-11.7-1.2c-2-.2-3.9-.5-5.8-.7l-.3 2c1.9.2 3.8.5 5.8.7l.3-2zm-11.7-1.5c-2-.3-3.9-.6-5.8-.9l-.4 2c1.9.3 3.8.6 5.8.9l.4-2zm-11.5-1.9c-2-.4-3.9-.7-5.8-1.1l-.4 2c1.9.4 3.8.7 5.9 1.1l.3-2zm-11.6-2.2c-2-.4-3.9-.8-5.7-1.2l-.5 2c1.8.4 3.7.8 5.7 1.3l.5-2.1zm-11.4-2.6c-2.1-.5-4-1-5.7-1.5l-.5 2c1.7.4 3.6.9 5.8 1.5l.4-2zm-11.3-3c-.9-.3-1.6-.5-2-.6-.2-.1-.4-.1-.5-.2h-.1l-.3 1-.3 1h.1c.1 0 .3.1.5.2.5.1 1.2.4 2.1.6l.5-2zm-3.9-1.7c-1 .5-1.4 1.7-.9 2.7l7.8 16.2c.5 1 1.7 1.4 2.6.9 1-.5 1.4-1.7.9-2.7l-6.9-14.4 14.2-7.5c1-.5 1.4-1.7.9-2.7-.5-1-1.7-1.4-2.6-.9l-16 8.4zm308.5-106.3c-.4.9-.9 1.9-1.4 2.8l3.5 1.8c.5-.9.9-1.9 1.4-2.8l-3.5-1.8zm-4.1 8.2c-.9 1.8-1.9 3.5-2.9 5.3l3.4 1.9c1-1.8 2-3.6 2.9-5.4l-3.4-1.8zm-5.9 10.6c-1 1.8-2.1 3.5-3.2 5.2l3.3 2.1c1.1-1.7 2.2-3.5 3.2-5.3l-3.3-2zm-6.4 10.2c-1.1 1.7-2.3 3.4-3.4 5l3.2 2.3c1.2-1.7 2.4-3.4 3.5-5.1l-3.3-2.2zm-7 9.8c-1.2 1.6-2.4 3.2-3.7 4.7l3 2.5c1.3-1.6 2.5-3.2 3.7-4.8l-3-2.4zm-7.6 9.4c-1.3 1.5-2.6 3-4 4.5l2.8 2.7c1.4-1.5 2.7-3 4-4.6l-2.8-2.6zm-8 8.9c-1.4 1.5-2.8 2.9-4.3 4.3l2.7 2.9c1.5-1.4 2.9-2.9 4.3-4.4l-2.7-2.8zm-8.6 8.4c-1.5 1.4-3 2.7-4.5 4l2.5 3.1c1.5-1.3 3.1-2.7 4.6-4.1l-2.6-3zm-9.1 7.9c-1.6 1.3-3.1 2.5-4.7 3.7l2.3 3.2c1.6-1.2 3.2-2.5 4.8-3.8l-2.4-3.1zm-9.5 7.2c-1.6 1.2-3.3 2.3-4.9 3.4l2.1 3.4c1.7-1.1 3.3-2.3 5-3.4l-2.2-3.4zm-10 6.6c-1.7 1-3.4 2.1-5.1 3.1l1.9 3.5c1.7-1 3.5-2.1 5.2-3.1l-2-3.5zm-10.3 6c-1.8.9-3.5 1.9-5.3 2.8l1.6 3.6c1.8-.9 3.6-1.8 5.4-2.8l-1.7-3.6zm-10.6 5.3c-1.8.8-3.6 1.7-5.4 2.4l1.4 3.7c1.9-.8 3.7-1.6 5.5-2.5l-1.5-3.6zm-10.9 4.7c-1.8.7-3.7 1.4-5.5 2.1l1.2 3.8c1.9-.7 3.8-1.4 5.6-2.2l-1.3-3.7zm-11.1 4.1c-1.9.6-3.8 1.2-5.6 1.8l1 3.9c1.9-.6 3.8-1.2 5.7-1.9l-1.1-3.8zm-11.3 3.5-5.7 1.5.8 3.9c1.9-.5 3.9-1 5.8-1.5l-.9-3.9zm-11.4 2.9c-1.9.4-3.8.9-5.7 1.2l.7 4c1.9-.4 3.9-.8 5.8-1.3l-.8-3.9zm-11.6 2.4c-1.9.3-3.9.7-5.8 1l.5 4c2-.3 3.9-.6 5.9-1l-.6-4zm-11.6 1.8c-1.9.3-3.9.5-5.8.7l.3 4c2-.2 3.9-.5 5.9-.7l-.4-4zm-11.7 1.3c-2 .2-3.9.3-5.9.5l.2 4c2-.1 3.9-.3 5.9-.5l-.2-4zm-11.7.9c-2 .1-3.9.2-5.9.3v4.1c2-.1 4-.2 5.9-.3v-4.1zm-11.8.4c-2 0-3.9.1-5.9.1l-.1 4.1c2 0 3.9 0 5.9-.1l.1-4.1zm-11.7 0c-2 0-3.9-.1-5.9-.2l-.2 4.1c2 .1 3.9.1 5.9.2l.2-4.1zm-11.7-.4c-2-.1-3.9-.2-5.9-.3l-.4 4.1c1.9.1 3.9.2 5.9.4l.4-4.2zm-11.7-.7c-2-.2-3.9-.3-5.8-.5l-.5 4c1.9.2 3.9.4 5.9.5l.4-4zm-11.7-1.2c-1.9-.2-3.9-.5-5.7-.7l-.6 4c1.9.2 3.8.5 5.8.7l.5-4zm-11.6-1.5c-2-.3-3.9-.6-5.8-.9l-.7 4c1.9.3 3.8.6 5.8.9l.7-4zm-11.5-1.9c-2-.4-3.9-.7-5.8-1.1l-.8 4c1.9.4 3.8.7 5.9 1.1l.7-4zm-11.6-2.2c-2-.4-3.9-.8-5.7-1.2l-1 4c1.8.4 3.7.8 5.7 1.3l1-4.1zm-11.3-2.6c-2.1-.5-4-1-5.7-1.5l-1.1 3.9c1.7.5 3.6.9 5.8 1.5l1-3.9zm-11.3-3c-.9-.3-1.6-.5-2-.6-.2-.1-.4-.1-.5-.2h-.1l-.6 1.9-.6 1.9h.1c.1 0 .3.1.5.2.5.1 1.2.4 2.1.6l1.1-3.8z"/></svg>