<svg width="107" height="103" viewBox="0 0 107 103" fill="none" xmlns="http://www.w3.org/2000/svg">
<g clip-path="url(#clip0_151_27854)">
<path d="M3.07593 35.1747H16.2426V22.575H71.9156" stroke="#93118B" stroke-width="4" stroke-linecap="round"/>
<path d="M73.0771 20.5586L73.0772 74.3131" stroke="#93118B" stroke-width="4"/>
<path d="M64.064 50.8688C64.845 50.0878 64.845 48.8214 64.064 48.0404L51.3361 35.3125C50.555 34.5314 49.2887 34.5314 48.5076 35.3125C47.7266 36.0935 47.7266 37.3598 48.5076 38.1409L59.8213 49.4546L48.5076 60.7683C47.7266 61.5493 47.7266 62.8157 48.5076 63.5967C49.2887 64.3778 50.555 64.3778 51.3361 63.5967L64.064 50.8688ZM3.00891 51.4546H62.6498V47.4546H3.00891V51.4546Z" fill="#93118B"/>
<path d="M73.6978 32.9906C81.1519 32.2894 98.1858 32.568 100.3 37.7864C102.414 43.0047 102.265 64.7902 101.926 75.0306H96.2341M80.7838 75.0306H40.8125M28.0354 75.0306H14.9164V64.0888H2.53967" stroke="#93118B" stroke-width="4"/>
<path d="M95.3891 74.3131C95.3891 78.202 92.3605 81.236 88.7684 81.236C85.1763 81.236 82.1477 78.202 82.1477 74.3131C82.1477 70.4242 85.1763 67.3903 88.7684 67.3903C92.3605 67.3903 95.3891 70.4242 95.3891 74.3131Z" stroke="#93118B" stroke-width="4"/>
<path d="M40.6441 75.0309C40.6441 78.9198 37.6155 81.9537 34.0234 81.9537C30.4313 81.9537 27.4027 78.9198 27.4027 75.0309C27.4027 71.142 30.4313 68.108 34.0234 68.108C37.6155 68.108 40.6441 71.142 40.6441 75.0309Z" stroke="#93118B" stroke-width="4"/>
<ellipse cx="2.89401" cy="64.087" rx="2.76865" ry="2.64191" fill="#93118B"/>
<ellipse cx="3.07565" cy="49.4543" rx="2.76865" ry="2.07353" fill="#93118B"/>
</g>
<defs>
<clipPath id="clip0_151_27854">
<rect width="106" height="102" fill="white" transform="translate(0.125366 0.992432)"/>
</clipPath>
</defs>
</svg>
