<svg width="23" height="29" viewBox="0 0 23 29" fill="none" xmlns="http://www.w3.org/2000/svg">
<path d="M2.7388 0.561768C2.21333 0.561768 1.70938 0.77051 1.33781 1.14207C0.966249 1.51364 0.757507 2.01759 0.757507 2.54306V18.3934C0.757507 18.9188 0.966249 19.4228 1.33781 19.7943C1.70938 20.1659 2.21333 20.3747 2.7388 20.3747H20.5704C21.0959 20.3747 21.5998 20.1659 21.9714 19.7943C22.3429 19.4228 22.5517 18.9188 22.5517 18.3934V2.54306C22.5517 2.01759 22.3429 1.51364 21.9714 1.14207C21.5998 0.77051 21.0959 0.561768 20.5704 0.561768H2.7388ZM8.18734 1.55241H15.1417C15.273 1.55241 15.399 1.6046 15.4919 1.69749C15.5848 1.79038 15.637 1.91637 15.637 2.04773C15.637 2.1791 15.5848 2.30509 15.4919 2.39798C15.399 2.49087 15.273 2.54306 15.1417 2.54306H8.18734C8.05597 2.54306 7.92998 2.49087 7.83709 2.39798C7.7442 2.30509 7.69202 2.1791 7.69202 2.04773C7.69202 1.91637 7.7442 1.79038 7.83709 1.69749C7.92998 1.6046 8.05597 1.55241 8.18734 1.55241V1.55241ZM3.72944 4.52434H10.6639V12.4495H3.72944C3.4667 12.4495 3.21473 12.3451 3.02895 12.1593C2.84317 11.9736 2.7388 11.7216 2.7388 11.4589V5.51499C2.7388 5.25225 2.84317 5.00028 3.02895 4.8145C3.21473 4.62872 3.4667 4.52434 3.72944 4.52434V4.52434ZM12.6452 4.52434H19.5797C19.8425 4.52434 20.0945 4.62872 20.2802 4.8145C20.466 5.00028 20.5704 5.25225 20.5704 5.51499V11.4589C20.5704 11.7216 20.466 11.9736 20.2802 12.1593C20.0945 12.3451 19.8425 12.4495 19.5797 12.4495H12.6452V4.52434ZM6.70137 14.4308C7.22684 14.4308 7.73079 14.6395 8.10235 15.0111C8.47392 15.3827 8.68266 15.8866 8.68266 16.4121C8.68266 16.9375 8.47392 17.4415 8.10235 17.8131C7.73079 18.1846 7.22684 18.3934 6.70137 18.3934C6.1759 18.3934 5.67195 18.1846 5.30039 17.8131C4.92883 17.4415 4.72008 16.9375 4.72008 16.4121C4.72008 15.8866 4.92883 15.3827 5.30039 15.0111C5.67195 14.6395 6.1759 14.4308 6.70137 14.4308ZM16.6078 14.4308C17.1333 14.4308 17.6372 14.6395 18.0088 15.0111C18.3804 15.3827 18.5891 15.8866 18.5891 16.4121C18.5891 16.9375 18.3804 17.4415 18.0088 17.8131C17.6372 18.1846 17.1333 18.3934 16.6078 18.3934C16.0823 18.3934 15.5784 18.1846 15.2068 17.8131C14.8353 17.4415 14.6265 16.9375 14.6265 16.4121C14.6265 15.8866 14.8353 15.3827 15.2068 15.0111C15.5784 14.6395 16.0823 14.4308 16.6078 14.4308V14.4308ZM17.4895 22.3441C17.3373 22.3586 17.1906 22.4078 17.0604 22.488C16.9303 22.5682 16.8204 22.6772 16.739 22.8066C16.6577 22.936 16.6071 23.0823 16.5912 23.2344C16.5754 23.3864 16.5946 23.54 16.6474 23.6834L16.9843 24.3372H6.32493L6.58249 23.8023C6.67171 23.5664 6.66762 23.3054 6.57107 23.0725C6.47452 22.8395 6.29277 22.6522 6.06286 22.5486C5.83295 22.445 5.5722 22.433 5.33374 22.515C5.09529 22.597 4.89708 22.7669 4.77952 22.99L2.79823 26.9525C2.75613 27.0666 2.73596 27.1876 2.7388 27.3092C2.7388 27.5719 2.84317 27.8239 3.02895 28.0097C3.21473 28.1954 3.4667 28.2998 3.72944 28.2998C3.90472 28.2988 4.07648 28.2505 4.22648 28.1598C4.37647 28.0691 4.49912 27.9394 4.58139 27.7847V27.6856H4.72008L5.33428 26.3185H17.9749L18.5891 27.6856V27.7847C18.6714 27.9394 18.794 28.0691 18.944 28.1598C19.094 28.2505 19.2658 28.2988 19.4411 28.2998C19.7038 28.2998 19.9558 28.1954 20.1415 28.0097C20.3273 27.8239 20.4317 27.5719 20.4317 27.3092C20.4711 27.1531 20.4711 26.9897 20.4317 26.8337L18.4504 22.8711C18.3599 22.6984 18.2204 22.5563 18.0495 22.4626C17.8785 22.3688 17.6837 22.3276 17.4895 22.3441V22.3441Z" fill="white"/>
</svg>
