<?xml version="1.0" encoding="utf-8"?>
<!-- Generator: Adobe Illustrator 23.1.0, SVG Export Plug-In . SVG Version: 6.00 Build 0)  -->
<svg version="1.1" id="Слой_1" xmlns="http://www.w3.org/2000/svg" xmlns:xlink="http://www.w3.org/1999/xlink" x="0px" y="0px"
	 viewBox="0 0 416 450" width="425" height="450" style="enable-background:new 0 0 416 450;" xml:space="preserve">
<style type="text/css">
	.st0{fill:#93118B;}
	.st1{fill:#620E66;}
	.st2{fill:url(#SVGID_1_);}
	.st3{clip-path:url(#SVGID_3_);}
	.st4{fill:#98509B;}
	.st5{fill:#FEDDFF;}
	.st6{fill:#16110D;}
	.st7{fill:#FEDDFF;stroke:#000000;stroke-miterlimit:10;}
	.st8{fill:#FEDDFF;stroke:#000000;stroke-width:0.75;stroke-miterlimit:10;}
	.st9{fill:#FFE1FA;}
</style>
<g>
	<path class="st0" d="M95,194.9l-1.9,226c-39.3-1.1-70.7-34.1-70.7-75.1l1.1-176.5L95,194.9z"/>
	<path class="st1" d="M322.8,195.7l0.3,226c39.3-0.8,70.7-33.8,70.7-74.5V170.8L322.8,195.7z"/>
	
		<linearGradient id="SVGID_1_" gradientUnits="userSpaceOnUse" x1="415.6438" y1="190.2223" x2="36.8695" y2="274.4183" gradientTransform="matrix(1 0 0 -1 0 450)">
		<stop  offset="0" style="stop-color:#620E66"/>
		<stop  offset="1" style="stop-color:#92108A"/>
	</linearGradient>
	<path class="st2" d="M183.1,423.1h54.7c8.4,0,15.2-6.9,15.2-15.2V162.2c0-6.9,4.3-12.7,10.6-14.7L388.1,109
		c8.4-2.5,12.7-11.6,9.8-19.9l-16-44.9c-2.7-7.8-10.6-11.6-18.4-9.4L214,75.5c-2.4,0.8-5.4,0.8-7.9,0L56,34.8
		c-7.9-2.2-15.4,2.2-18.4,9.4L21.6,89c-2.7,8.3,1.4,17.5,9.8,19.9L156,147.5c6.2,1.9,10.6,8,10.6,14.7v245.7
		C167.9,416.2,175,423.1,183.1,423.1z"/>
</g>
<g>
	<defs>
		
			<rect id="SVGID_2_" x="167.2" y="198.4" transform="matrix(1 -9.686391e-03 9.686391e-03 1 -3.0603 2.6395)" width="207.5" height="237.7"/>
	</defs>
	<clipPath id="SVGID_3_">
		<use xlink:href="#SVGID_2_"  style="overflow:visible;"/>
	</clipPath>
	<g class="st3">
		<path class="st4" d="M146.4,299.4l5,2l16.3-10.8l132.7,83.7l51.6,20.2c0,0,20.9,19.6,17.7,22.6c-3.2,3-31.3,14.8-31.3,14.8
			c-9.4,4.1-27.2,4.3-42.1-0.1c-10.6-3-20.9-7.8-30.6-13.7l-137.6-86.8c-1.4-0.9-2.4-2.5-2.7-4.2l-6.5-31.3L146.4,299.4z"/>
		<path class="st4" d="M151.3,301.1l10.1-6.6l3.2,1.2l5.7-3.8l130.1,82l51.6,20.2c0,0,21.3,19.8,18,22.8c-1.9,1.7-12.6,6.8-21,10.5
			c-9.8,2.4-26-0.5-39.4-4.3c-10.6-3-20.9-7.8-30.5-13.7l-157.2-99.4l-2.9-14.2l27.3,3.2L151.3,301.1z"/>
		<path class="st5" d="M315.8,434.4c0,0,16.4-1.3,24.6-8.7c1.4-1.3,2.5-2.4,3.3-3.5c0.6,0.1,1.3,0.1,1.9,0.3c5,0.7,12.1,0,16.2-0.5
			c-9.1,4.3-22,9.4-22,9.4c-5.8,2.6-15.2,3.7-24.8,3.2L315.8,434.4z"/>
		<path class="st6" d="M118.6,295.8l3.1,14.6l3.6,17c0.3,1.9,1.3,3.6,2.8,4.5l137.6,86.8c9.6,6.1,20,10.7,30.5,13.7
			c7.5,2.1,16,3.3,23.8,3.2c7.2-0.1,13.7-1.1,18.3-3.1l0.1,0c1.1-0.5,25.3-10.7,30.6-14.3c0.4-0.3,0.8-0.6,1.1-0.8
			c0.3-0.3,0.4-0.6,0.4-1.3c0-5-17.7-21.5-18.5-22.1l-0.1,0l-51.6-20.2l-130.1-82.2l-0.3,0.2l-2.4-1.5l-5.9,4l-0.3-0.2l-10.1,6.6
			l-4.9-1.8L118.6,295.8z M169.3,292.2l-4.7,3.2l-2.1-0.8l5.1-3.3L169.3,292.2z M348.9,427.1c-9.4,2.3-24-0.5-33.5-2.8
			c2.8-1.7,5.5-4.1,8.1-6.9c14.6-16.7,14.6-16.7,14.6-16.7L131.5,297.8l14.7,1.9l5.2,2l10.4-6.8l2.9,1.2l5.4-3.5l130.1,82l51.6,20.2
			c5,4.8,17.8,17.6,17.8,21.4c0,0.3-0.1,0.5-0.3,0.6c-0.1,0.2-0.3,0.3-0.6,0.5c-2.6,1.7-9.7,5.1-16.6,8.3
			C351.3,426.1,350,426.6,348.9,427.1z M291.3,430c4.7,0.4,14,0.2,23.2-5.1c7.1,1.8,17.7,4,26.6,4c1.7,0,3.2-0.2,4.7-0.4
			c-3.7,1.6-6.6,2.9-7.3,3.2l-0.1,0c-9.5,4.1-27.5,4.2-41.8-0.1C294.8,431.2,293,430.6,291.3,430z"/>
		<path class="st4" d="M119,295.9l173.3,109.5c13.8,8.8,61.6,22.3,77.3,11.9c15.7-10.4-6.4-41-20.3-49.7L176.1,258.4L119,295.9z"/>
		<path class="st6" d="M292.2,405.8L118.8,296.1l-0.1-0.5l57.6-37.8l173.4,109.4c10.2,6.5,25.8,25.5,25.9,39.2
			c0,4.8-1.9,8.6-5.6,11.1c-4,2.7-10,3.8-16.9,3.9C332,421.6,302.5,412.2,292.2,405.8z M119.7,295.9L292.6,405
			c13.7,8.6,61.2,22.3,77.1,11.9c3.6-2.4,5.4-5.8,5.3-10.5c-0.1-13.6-15.4-32.1-25.5-38.4L176.3,258.9L119.7,295.9z"/>
		<path class="st5" d="M176.2,277.1l173.1,109.1c6.6,4.1,14.2,15.9,17.9,24.8l0,0.3c-0.7,0.9-1.5,1.9-2.6,2.7
			c-12.7,8.4-56.1-2.4-67.3-9.5L136.6,303.3L176.2,277.1z"/>
		<path class="st6" d="M127.2,295.9l49.4-32.5l172.7,108.8c0.1,0,0.3,0.2,0.4,0.3c0.3,0.2,0.6,0.3,0.7,0.5c0.4,0.3,0.7,0.5,1.1,0.8
			c0.1,0.2,0.3,0.2,0.3,0.3c1.4,1.1,2.8,2.3,4.2,3.7l0.1,0.2l-0.9,11.4c-1.7-1.9-3.4-3.4-5-4.5L177.2,275.7l-39.4,26l160.6,101.1
			c11,6.9,54.3,17.9,67,9.5c1.1-0.8,2.1-1.6,2.8-2.7c-2.7-6.4-7.2-14.1-12-19.5l0.9-11.6c0,0,0,0,0.1,0.2c0.1,0.2,0.4,0.5,0.6,0.6
			c6.3,6.8,12.2,16.1,12.7,23.7l0,0.2c0,0.2,0,0.5,0,0.6c0,0.2,0,0.2,0,0.3c0,0.2,0,0.5,0,0.6c0,0.3,0,0.5,0,0.8
			c0,0.2,0,0.3-0.1,0.5c-0.1,1.1-0.4,2-0.8,3c-0.1,0.3-0.3,0.6-0.4,0.8c0,0,0,0,0,0.2L369,410l-0.1,0.2l-0.1,0.2
			c-0.7,0.9-1.6,1.9-2.6,2.5c-3.2,2.2-8.4,3-14.4,3.1c-18.2,0.2-44.9-7.4-53.2-12.6L128.2,296.2L127.2,295.9z"/>
		<path class="st4" d="M177.2,275.2l-0.7-11.4l-48.6,32l9.2,5.8L177.2,275.2z"/>
		<path class="st6" d="M127.2,295.9l49.6-32.6l0.7,12.3l-40.3,26.6L127.2,295.9z M176.2,264.5l-47.8,31.4l8.7,5.4l39.8-26.1
			L176.2,264.5z"/>
		<path class="st4" d="M166.6,330.6l0-0.9l3.1,2l0,0.9l-1.1-0.8l0,4.5l-0.7-0.5l0-4.5L166.6,330.6z"/>
		<path class="st4" d="M162.8,332.6l1-1.6c-0.3-0.3-0.4-0.6-0.6-0.9c-0.1-0.3-0.3-0.8-0.3-1.1c0-0.5,0.1-0.8,0.4-0.9
			c0.3-0.2,0.6,0,1,0.1l1.8,1.2l0,5.3l-0.7-0.5l0-2l-0.8-0.6l-0.8,1.6L162.8,332.6z M163.9,330.3c0.1,0.2,0.3,0.5,0.4,0.5l1,0.6
			l0-1.6l-1-0.6c-0.4-0.3-0.7-0.1-0.7,0.3C163.8,329.8,163.8,330,163.9,330.3z"/>
		<path class="st4" d="M279.4,409c9.6,6,19.8,10.7,30.4,13.7c1.5,0.5,3.5,0.9,5.7,1.5c-0.3,0.2-0.7,0.3-1,0.6
			c-1.9-0.4-3.6-0.9-4.9-1.4c-10.6-3-20.9-7.8-30.5-13.7l-157.3-99.4l-0.3-1.1L279.4,409z"/>
		<path class="st4" d="M203,292.8l-0.5-49.3l-63,9.3l0.5,49.6c-0.1,0.5,1,1.9,1.7,2.2l21,13.2c1.1,0.8,3.2,0.6,4.4-0.2l34.9-23
			C202.6,294,203,293.4,203,292.8z"/>
		<path class="st5" d="M162.1,268.1l-21.8-14c-1.1-0.8-1-2,0.3-2.8l34.9-23c1.4-0.8,3.3-1,4.4-0.2l21.8,14c1.1,0.8,1,2-0.3,2.8
			l-34.9,23C165.3,268.8,163.2,268.8,162.1,268.1z"/>
		<path class="st4" d="M202.5,238.5c-0.1,0.5-0.4,1.1-1.1,1.4l-34.9,23c-1.4,0.8-3.3,1-4.4,0.2l-21.8-14c-0.4-0.3-0.7-0.6-0.7-1.1
			l0.1,5.8c-0.1,0.5,0.1,1.1,0.7,1.4l21.8,14.3c1.1,0.8,3.2,0.6,4.4-0.2l34.9-23c0.8-0.5,1.1-1.1,1.1-1.7L202.5,238.5z"/>
		<path class="st4" d="M197.3,237.5l-17.7-11.4c-1-0.6-2.5-0.4-3.6,0.2l-31.1,20.4c-1.1,0.6-1.2,1.7-0.3,2.3l4.1,2.6l27.2-17.9
			c1.1-0.6,2.6-0.8,3.6-0.2l13.8,8.8l4-2.7C198.1,239,198.2,237.9,197.3,237.5z"/>
		<path class="st5" d="M201.5,241.5l-34.9,23c-1.4,0.8-3.3,1-4.4,0.2l-21.8-14c-1.1-0.8-1-2,0.3-2.8l34.9-23c1.4-0.8,3.3-1,4.4-0.2
			l21.8,13.8C202.8,239.3,202.7,240.5,201.5,241.5z M197.3,238.7l-17.7-11.4c-1-0.6-2.5-0.4-3.6,0.2l-31.1,20.4
			c-1.1,0.6-1.2,1.7-0.3,2.3l17.6,11.4c1,0.6,2.5,0.4,3.6-0.2L197,241C198.1,240.4,198.2,239.3,197.3,238.7z"/>
		<path class="st6" d="M169.1,272.4l4.4-2.9l0.1,7.6l-4.4,3L169.1,272.4z M172.8,270.6l-3.2,2.1l0.1,6.1l3.2-2.2L172.8,270.6z"/>
		<path class="st6" d="M174.5,268.9l4.4-2.9l0.1,7.6l-4.4,3L174.5,268.9z M178.2,267.1l-3.2,2.1l0.1,6.1l3.2-2.2L178.2,267.1z"/>
		<path class="st6" d="M179.7,265.4l4.4-2.9l0.1,7.6l-4.4,3L179.7,265.4z M183.5,263.8l-3.2,2.1l0.1,6.1l3.2-2.2L183.5,263.8z"/>
		<path class="st6" d="M185.1,261.9l4.4-2.9l0.1,7.6l-4.4,3L185.1,261.9z M188.8,260.3l-3.2,2.1l0.1,6.1l3.2-2.2L188.8,260.3z"/>
		<path class="st6" d="M190.4,258.4l4.4-2.9l0.1,7.6l-4.4,3L190.4,258.4z M194.1,256.8l-3.2,2.1l0.1,6.1l3.2-2.2L194.1,256.8z"/>
		<path class="st6" d="M195.7,254.9l4.4-2.9l0.1,7.6l-4.4,3L195.7,254.9z M199.5,253.3l-3.2,2.1l0.1,6.1l3.2-2.2L199.5,253.3z"/>
		<path class="st6" d="M169.2,281.3l4.4-2.9l0.1,7.6l-4.4,3L169.2,281.3z M172.9,279.7l-3.2,2.1l0.1,6.1l3.2-2.2L172.9,279.7z"/>
		<path class="st6" d="M174.6,277.9l4.4-2.9l0.1,7.6l-4.4,3L174.6,277.9z M178.3,276.2l-3.2,2.1l0.1,6.1l3.2-2.2L178.3,276.2z"/>
		<path class="st6" d="M179.8,274.4l4.4-2.9l0.1,7.6l-4.4,3L179.8,274.4z M183.5,272.7l-3.2,2.1l0.1,6.1l3.2-2.2L183.5,272.7z"/>
		<path class="st6" d="M185.2,271l4.4-2.9l0.1,7.6l-4.4,3L185.2,271z M188.9,269.2l-3.2,2.1l0.1,6.1l3.2-2.2L188.9,269.2z"/>
		<path class="st6" d="M190.4,267.5l4.4-2.9l0.1,7.6l-4.4,3L190.4,267.5z M194.2,265.7l-3.2,2.1l0.1,6.1l3.2-2.2L194.2,265.7z"/>
		<path class="st6" d="M195.8,264l4.4-2.9l0.1,7.6l-4.4,3L195.8,264z M199.6,262.2l-3.2,2.2l0.1,6.1l3.2-2.2L199.6,262.2z"/>
		<path class="st6" d="M143.4,248.1c0,0.5,0.3,1.1,0.8,1.4l4.2,2.6l13.6,8.6c0.4,0.3,1.1,0.5,1.8,0.4c0.8,0,1.5-0.2,2.2-0.6
			l26.9-17.7l4.1-2.7c0.6-0.3,0.8-0.8,1-1.3c0-0.2,0.1-0.3,0.1-0.5c0-0.6-0.3-1.1-0.8-1.4l-17.7-11.4c-0.6-0.3-1.3-0.5-1.9-0.4
			c-0.4,0-0.7,0-1.1,0.2c-0.4,0.2-0.7,0.3-1,0.5l-31.1,20.4C143.9,246.9,143.4,247.3,143.4,248.1z M149.2,251.7l26.6-17.6
			c1-0.6,2.5-0.6,3.3-0.2l13.3,8.5l-26.6,17.6c-1,0.6-2.5,0.6-3.3,0.2L149.2,251.7z M144.1,248.1c0-0.3,0.3-0.6,0.7-0.9l31.1-20.4
			c0.1-0.2,0.3-0.2,0.4-0.2l0.1,0c0.1,0,0.1,0,0.3-0.2l0.1,0c0.1,0,0.1,0,0.3,0l0.1,0c0.1,0,0.1,0,0.3,0l0.1,0c0.3,0,0.4,0,0.7,0.1
			c0.3,0,0.4,0.2,0.6,0.3l0.1,6.9c-0.4-0.3-1.1-0.5-1.7-0.5c-0.8,0-1.5,0.2-2.2,0.6l-26.9,17.7l-3.8-2.5
			C144.4,248.6,144.1,248.4,144.1,248.1z"/>
		<path class="st6" d="M139.2,254.6l0.4,47.7c-0.1,0.8,1.3,2.2,1.8,2.5l21,13.2c0.6,0.3,1.4,0.6,2.1,0.6c1,0,1.9-0.3,2.6-0.8
			l34.9-23c0.8-0.6,1.4-1.3,1.2-2l-0.4-48.2l-0.1-5.9c0,0,0,0,0-0.2c0-0.6-0.3-1.2-1-1.5L180,223c-1.3-0.8-3.3-0.7-4.9,0.2l-34.9,23
			c-0.8,0.5-1.2,1.3-1.2,2l0,0.2l0.1,5.8C139.2,254.2,139.2,254.4,139.2,254.6z M166.6,269.7c0,0,0.1,0,0.1-0.2l34.9-23
			c0.1-0.2,0.4-0.3,0.6-0.5l0.4,46.6c0,0.5-0.3,0.9-1,1.4L166.9,317l-0.4-47.3L166.6,269.7z M166.5,263.5c0,0,0.1,0,0.1-0.2l34.9-23
			c0.1-0.2,0.4-0.3,0.6-0.5l0,4.5c0,0.5-0.3,0.9-1,1.4l-34.8,22.8l0-5.1L166.5,263.5z M164.2,317.8l0.3,0l-0.4-47.4
			c0.4,0,1,0,1.4-0.2l0.4,47.4C165.4,317.8,164.8,317.8,164.2,317.8z M164.1,269.4l0-5.3c0.4,0,0.8,0,1.1-0.2c0.1,0,0.1,0,0.3,0
			l0,5.3C165,269.4,164.6,269.4,164.1,269.4z M139.8,248.2c0-0.5,0.3-0.9,1-1.3l34.9-23c0.7-0.5,1.5-0.6,2.4-0.6
			c0.7,0,1.3,0.1,1.8,0.4l21.8,14c0.3,0.2,0.6,0.5,0.6,0.9c0,0.5-0.4,0.8-1,1.1l-34.9,23c-1.2,0.8-3,0.8-4,0.2l-21.8-14
			C140.1,248.8,139.8,248.5,139.8,248.2z"/>
		<path class="st4" d="M168.2,246.6l3.2-40.6l5.4,1.5l0.4,41.3c0,0.2,0,0.3,0,0.3c-0.1,0.3-0.3,0.8-0.8,1.1c-1,0.6-2.6,0.8-3.5,0.2
			l-4.2-2.6C168.2,247.6,168,247.1,168.2,246.6z"/>
		<path class="st5" d="M171.8,202.4l2.5,1.5c0.6,0.3,1.5,0.3,2.1-0.2c0.6-0.5,0.7-0.9,0.1-1.4l-2.5-1.5c-0.6-0.3-1.5-0.3-2.1,0.2
			C171.2,201.5,171.2,202.1,171.8,202.4z"/>
		<path class="st6" d="M168.6,248.3l4.2,2.6c0.4,0.3,1.1,0.5,1.7,0.5c0.7,0,1.5-0.2,2.2-0.6c0.4-0.3,0.7-0.6,0.8-0.9l0.1-0.5
			c0-0.2,0-0.3,0-0.5l-0.4-41.3l0-5.3l0-0.2c0-0.3-0.1-0.8-0.6-0.9l-2.5-1.5c-0.7-0.5-1.8-0.3-2.5,0.2c-0.4,0.3-0.6,0.6-0.7,0.9
			l0.1,5.5l-3.2,40.6C167.6,247.3,167.9,247.9,168.6,248.3z M176.4,201.9c0,0.2-0.1,0.3-0.3,0.3c-0.6,0.3-1.2,0.3-1.7,0.2l-2.5-1.5
			c-0.1,0-0.1-0.2-0.1-0.2c0-0.2,0.1-0.3,0.3-0.3c0.3-0.2,0.7-0.3,1-0.3c0.3,0,0.6,0,0.7,0.1l2.5,1.5
			C176.4,201.8,176.4,201.9,176.4,201.9z M176.4,207.2c0,0.2-0.1,0.3-0.3,0.5c-0.4,0.3-1,0.3-1.4,0.2l0-4.4c0.1,0,0.3,0,0.4,0
			c0.4,0,1-0.2,1.2-0.3L176.4,207.2z M173.5,250.3l1.1-41.5c0.1,0,0.3,0,0.4,0c0.4,0,1-0.2,1.2-0.3l0.4,40.4c0,0.2,0,0.2,0,0.3
			c0,0.3-0.3,0.6-0.7,0.8C175.4,250.5,174.3,250.6,173.5,250.3z"/>
		<path class="st4" d="M171.3,205.9l3.2,2c0,0,0.1,0,0.3,0.2l0,0.9c-0.3,0-0.4-0.2-0.6-0.1l-3.2-2l0-1.1
			C171,205.6,171.1,205.7,171.3,205.9z"/>
		<path class="st6" d="M191.3,286.5l7.9-5.5l0.1,15.6l-7.9,5.2L191.3,286.5z M198.8,282.1l-6.9,4.7l0.1,13.9l6.9-4.6L198.8,282.1z"
			/>
		<path class="st6" d="M197.6,291.3l-0.1-6.4l-4.3,3l0.1,6.2L197.6,291.3z"/>
		<path class="st4" d="M151.9,247.6l7.2-4.8l7.3,4.6l0,2.2l-7.2,4.7l0-2.2L151.9,247.6z"/>
		<path class="st6" d="M151.6,247.4l0,0.3l0,2.3l7.5,4.8l0.3-0.2l7.2-4.7l0-2.3l0-0.3l-7.5-4.8l-7.2,4.7L151.6,247.4z M159.1,243.1
			l6.7,4.3l-6.6,4.4l-6.7-4.3L159.1,243.1z M159.5,253.9l0-1.6l3.9-2.5l2.8-1.9l0,1.6L159.5,253.9z"/>
		<path class="st4" d="M354.8,409.2l3.2-40.6l5.4,1.5l0.4,41.3c0,0.2,0,0.3,0,0.3c-0.1,0.3-0.3,0.8-0.8,1.1c-1,0.6-2.6,0.8-3.5,0.2
			l-4.2-2.6C354.9,410.2,354.7,409.7,354.8,409.2z"/>
		<path class="st5" d="M358.5,365.1l2.5,1.5c0.6,0.3,1.5,0.3,2.1-0.2c0.6-0.5,0.7-0.9,0.1-1.4l-2.5-1.5c-0.6-0.3-1.5-0.3-2.1,0.2
			C358,364.1,357.9,364.8,358.5,365.1z"/>
		<path class="st6" d="M355.3,411l4.2,2.6c0.4,0.3,1.1,0.5,1.7,0.5c0.7,0,1.5-0.2,2.2-0.6c0.4-0.3,0.7-0.6,0.8-0.9l0.1-0.5
			c0-0.2,0-0.3,0-0.5l-0.4-41.3l0-5.3l0-0.2c0-0.3-0.1-0.8-0.6-0.9l-2.5-1.5c-0.7-0.5-1.8-0.3-2.5,0.2c-0.4,0.3-0.6,0.6-0.7,0.9
			l0,5.5l-3.2,40.6C354.3,409.9,354.6,410.5,355.3,411z M363.2,364.5c0,0.2-0.1,0.3-0.3,0.3c-0.6,0.3-1.2,0.3-1.7,0.2l-2.5-1.5
			c-0.1,0-0.1-0.2-0.1-0.2c0-0.2,0.1-0.3,0.3-0.3c0.3-0.2,0.7-0.3,1-0.3c0.3,0,0.6,0,0.7,0.1l2.5,1.5L363.2,364.5z M363.2,369.9
			c0,0.2-0.1,0.3-0.3,0.5c-0.4,0.3-1,0.3-1.4,0.2l0-4.5c0.1,0,0.3,0,0.4,0c0.4,0,1-0.2,1.2-0.3L363.2,369.9z M360.3,412.9l1.1-41.5
			c0.1,0,0.3,0,0.4,0c0.4,0,1-0.2,1.2-0.3l0.4,40.4c0,0.2,0,0.2,0,0.3c0,0.3-0.3,0.6-0.7,0.8C362.2,413.1,361.1,413.2,360.3,412.9z"
			/>
		<path class="st4" d="M357.9,368.5l3.2,2c0,0,0.1,0,0.3,0.2l0,0.9c-0.3,0-0.4-0.2-0.6-0.1l-3.2-2l0-1.1
			C357.7,368.2,357.8,368.3,357.9,368.5z"/>
		<path class="st4" d="M348.7,391.2l-13.7-8.9l-13.3,9.2l13.1,8.5L348.7,391.2z"/>
		<path class="st5" d="M348.7,392.5l-13.7-8.8l-13.3,9l13.1,8.6L348.7,392.5z"/>
		<path class="st4" d="M348.8,398.1l-0.1-6.9l-13.8,8.7l0.2,7L348.8,398.1z"/>
		<path class="st4" d="M334.2,389.3c-1.1,0.2-1.5,0.6-1.5,1.4c0,0.2,0,0,0,0.2l-3.2,1.7c-0.3-0.5-0.6-1.1-0.6-1.7
			c0-2.3,2.5-4.1,5.7-4.3L334.2,389.3z"/>
		<path class="st6" d="M329.1,393c-0.4-0.6-0.6-1.2-0.6-1.9c0-2.5,2.6-4.5,5.9-4.7l0.3,0l-0.2,3.4l-0.3,0c-1.2,0.2-1.2,0.8-1.2,0.9
			l0.1,0.3L329.1,393z M333.8,389l0.3-1.9c-2.8,0.3-4.8,1.9-4.8,3.9c0,0.5,0.1,0.8,0.3,1.2l2.8-1.6
			C332.4,390.1,332.7,389.3,333.8,389z"/>
		<path class="st4" d="M333.7,392c0.4,0.3,0.3-0.6,1-0.6c0.7,0,1.4,0.9,1.8,0.6l3.3,1.5c-1.1,0.9-2.9,1.6-4.8,1.6
			c-2.1,0-3.9-0.7-5-1.8L333.7,392z"/>
		<path class="st6" d="M329.8,393.7l-0.3-0.3l4-1.8l0.1,0c0.1-0.2,0.3-0.6,0.8-0.6c0.4,0,0.8,0.1,1.1,0.5c0.1,0.2,0.6,0.3,0.6,0.3
			l0.1-0.2l4,2l-0.4,0.3c-1.2,1.1-3,1.7-5,1.8C333,395.6,331.1,395,329.8,393.7z M336.5,392.4c-0.3,0.2-0.7-0.1-1.1-0.3
			c-0.3-0.2-0.6-0.3-0.8-0.3c-0.1,0-0.1,0-0.3,0.3c-0.1,0.2-0.1,0.3-0.4,0.5c-0.1,0-0.1,0-0.3,0l-2.9,1.1c1.1,0.8,2.7,1.2,4.3,1.2
			c1.5,0,2.9-0.5,4-1.1L336.5,392.4z"/>
		<path class="st4" d="M337.5,390.7C337.5,390.7,337.5,390.8,337.5,390.7c0-0.8-0.4-1.6-1.5-1.7l-0.4-2.3c3.2,0.1,5.7,2,5.7,4.2
			c0,0.6-0.3,1.4-0.7,1.9L337.5,390.7z"/>
		<path class="st6" d="M337.3,391.2l-0.3,0l0-0.2l-0.1,0l0.1-0.3c0-0.5-0.4-1.1-1.3-1.2l-0.3,0l-0.3-3.1l0.3,0c3.5,0.1,6,2.1,6,4.6
			c0,0.8-0.3,1.6-0.7,2.2l-0.1,0.2L337.3,391.2z M336.2,388.7c1,0.1,1.4,0.9,1.5,1.7l0.1,0.2l2.7,1.7c0.3-0.5,0.4-0.9,0.4-1.4
			c0-1.9-2.1-3.6-4.9-3.9L336.2,388.7z"/>
		<path class="st4" d="M332.7,390.7c0,0.8,1.1,1.5,2.4,1.5s2.4-0.6,2.3-1.6c0-0.6-0.7-2.2-1.4-2.3c-0.3-0.2-0.5,0.9-1,0.9
			c-0.4,0-0.6-0.9-1-0.9C333.3,388.5,332.7,390.1,332.7,390.7z"/>
		<path class="st6" d="M332.3,390.7c0-0.8,0.7-2.5,1.6-2.8c0.4-0.2,0.7,0.3,0.8,0.6c0,0.2,0.1,0.2,0.1,0.3c0,0,0.1-0.2,0.1-0.3
			c0.1-0.3,0.4-0.6,0.8-0.6c1.1,0.3,1.7,2.2,1.7,2.8c0,1.1-1.2,1.9-2.8,1.9C333.6,392.6,332.3,391.8,332.3,390.7z M335.8,389
			c-0.1,0.3-0.4,0.6-0.8,0.6c-0.4,0-0.6-0.3-0.8-0.6l-0.1-0.2c-0.6,0.3-1.1,1.6-1.1,2c0,0.5,0.8,1.1,2,1.1c1.3,0,1.9-0.6,1.9-1.1
			c0-0.5-0.6-1.7-1.1-2C335.9,388.8,335.9,389,335.8,389z"/>
		<path class="st4" d="M335.1,390.2c-0.9,0-1.7-0.5-1.7-1.1c0-0.6,0.7-1.1,1.7-1.1c0.9,0,1.7,0.5,1.7,1.1
			C336.7,389.7,336,390.2,335.1,390.2z"/>
		<path class="st5" d="M333.4,390c0,0.6,0.7,1.1,1.7,1.1c1,0,1.7-0.5,1.7-1.1c0-0.6-0.7-1.1-1.7-1.1
			C334.1,389,333.4,389.5,333.4,390z"/>
		<path class="st6" d="M333,389.2c0-0.8,0.8-1.4,1.9-1.4c1.1,0,2,0.6,2,1.4c0,0.8-0.8,1.4-1.9,1.4C334,390.7,333,390.1,333,389.2z
			 M333.8,389.2c0,0.3,0.6,0.6,1.3,0.6c0.8,0,1.2-0.3,1.2-0.6c0-0.3-0.6-0.6-1.3-0.6C334.2,388.5,333.8,389,333.8,389.2z"/>
		<path class="st6" d="M321.3,391.2l0.1,7.5l13.8,8.8l13.9-9.2l-0.1-7.3l-0.4-0.3l-13.7-8.8l-13.3,9L321.3,391.2z M348,391.2
			l-13.1,8.4l-2.2-1.5l-10.2-6.6l12.6-8.5L348,391.2z M348.4,397.8l-13.1,8.7l-0.1-6.2l10.6-6.8l2.5-1.6L348.4,397.8z"/>
		<path class="st4" d="M199.5,310.4l-13.7-8.8l-13.3,9l13.1,8.6L199.5,310.4z"/>
		<path class="st5" d="M199.5,311.8l-13.7-8.9l-13.3,9.2l13.1,8.5L199.5,311.8z"/>
		<path class="st4" d="M199.5,317.3l-0.1-6.9l-13.8,8.9l0.2,7L199.5,317.3z"/>
		<path class="st4" d="M185,308.7c-1.1,0.2-1.5,0.6-1.5,1.4c0,0.2,0,0,0,0.2l-3.2,1.7c-0.3-0.5-0.6-1.1-0.6-1.7
			c0-2.3,2.5-4.1,5.7-4.3L185,308.7z"/>
		<path class="st6" d="M179.9,312.2c-0.4-0.6-0.6-1.2-0.6-1.9c0-2.5,2.6-4.5,5.9-4.7l0.3,0l-0.2,3.4l-0.3,0
			c-1.2,0.2-1.2,0.8-1.2,0.9l0.1,0.3L179.9,312.2z M184.6,308.2l0.3-1.9c-2.8,0.3-4.8,1.9-4.8,3.9c0,0.5,0.1,0.8,0.3,1.2l2.8-1.6
			C183.2,309.4,183.5,308.6,184.6,308.2z"/>
		<path class="st4" d="M184.5,311.2c0.4,0.3,0.3-0.6,1-0.6c0.7,0,1.4,0.9,1.8,0.6l3.3,1.5c-1.1,0.9-2.9,1.6-4.8,1.6
			c-2.1,0-3.9-0.7-5-1.8L184.5,311.2z"/>
		<path class="st6" d="M180.6,313l-0.3-0.3l4-1.8l0.1,0c0.1-0.2,0.3-0.6,0.8-0.6c0.4,0,0.8,0.1,1.1,0.5c0.1,0.2,0.6,0.3,0.6,0.3
			l0.1-0.2l4.2,2l-0.4,0.3c-1.2,1.1-3,1.7-5,1.8C183.8,315,181.8,314.2,180.6,313z M187.2,311.7c-0.3,0.2-0.7-0.1-1.1-0.3
			c-0.3-0.2-0.6-0.3-0.8-0.3c-0.1,0-0.1,0-0.3,0.3c-0.1,0.2-0.1,0.3-0.4,0.5c-0.1,0-0.1,0-0.3,0l-2.9,1.1c1.1,0.8,2.7,1.2,4.3,1.2
			c1.5,0,2.9-0.5,4-1.1L187.2,311.7z"/>
		<path class="st4" d="M188.2,310.1C188.2,309.9,188.2,310.1,188.2,310.1c0-0.8-0.4-1.6-1.5-1.7l-0.4-2.3c3.2,0.1,5.7,2,5.7,4.2
			c0,0.6-0.3,1.4-0.7,1.9L188.2,310.1z"/>
		<path class="st6" d="M188.1,310.4l-0.3,0l0-0.2l-0.1,0l0.1-0.3c0-0.5-0.4-1.1-1.3-1.2l-0.3,0l-0.3-3.1l0.3,0c3.5,0.1,6,2.1,6,4.6
			c0,0.8-0.3,1.6-0.7,2.2l-0.1,0.2L188.1,310.4z M186.9,307.9c1,0.1,1.4,0.9,1.5,1.7l0.1,0.2l2.7,1.7c0.3-0.5,0.4-0.9,0.4-1.4
			c0-1.9-2.1-3.6-4.9-3.9L186.9,307.9z"/>
		<path class="st4" d="M183.5,310.1c0,0.8,1.1,1.5,2.4,1.5s2.4-0.6,2.3-1.6c0-0.6-0.7-2.2-1.4-2.3c-0.3-0.2-0.5,0.9-1,0.9
			c-0.4,0-0.6-0.9-1-0.9C184,307.9,183.5,309.5,183.5,310.1z"/>
		<path class="st6" d="M183.1,310.1c0-0.8,0.7-2.5,1.6-2.8c0.4-0.2,0.7,0.3,0.8,0.6c0,0.2,0.1,0.2,0.1,0.3c0,0,0.1-0.2,0.1-0.3
			c0.1-0.3,0.4-0.6,0.8-0.6c1.1,0.3,1.7,2.2,1.7,2.8c0,1.1-1.2,1.9-2.8,1.9C184.3,312,183.1,311.1,183.1,310.1z M186.5,308.2
			c-0.1,0.3-0.4,0.6-0.8,0.6c-0.4,0-0.6-0.3-0.8-0.6l-0.1-0.2c-0.6,0.3-1.1,1.6-1.1,2c0,0.5,0.8,1.1,2,1.1c1.3,0,1.9-0.6,1.9-1.1
			c0-0.5-0.6-1.7-1.1-2C186.7,308.1,186.7,308.2,186.5,308.2z"/>
		<path class="st4" d="M184.2,308.6c0,0.6,0.7,1.1,1.7,1.1c1,0,1.7-0.5,1.7-1.1c0-0.6-0.7-1.1-1.7-1.1
			C184.8,307.5,184.2,307.9,184.2,308.6z"/>
		<path class="st5" d="M184.2,309.3c0,0.6,0.7,1.1,1.7,1.1c1,0,1.7-0.5,1.7-1.1c0-0.6-0.7-1.1-1.7-1.1
			C184.8,308.2,184.2,308.7,184.2,309.3z"/>
		<path class="st6" d="M183.7,308.6c0-0.8,0.8-1.4,1.9-1.4c1.1,0,1.9,0.6,2,1.4s-0.8,1.4-1.9,1.4C184.7,310,183.7,309.3,183.7,308.6
			z M184.4,308.6c0,0.3,0.6,0.6,1.3,0.6c0.8,0,1.2-0.3,1.2-0.6c0-0.3-0.6-0.6-1.3-0.6C185,307.9,184.4,308.2,184.4,308.6z"/>
		<path class="st6" d="M172.1,310.6l0.1,7.5l13.8,8.8l13.9-9.2l-0.1-7.3l-0.4-0.3l-13.7-8.8l-13.3,9L172.1,310.6z M198.8,310.5
			l-13.1,8.4l-2.2-1.5l-10.2-6.6l12.6-8.5L198.8,310.5z M199.1,317.2l-13.1,8.7l-0.1-6.2l10.6-6.8l2.5-1.6L199.1,317.2z"/>
		<path class="st4" d="M245.2,318.7l-0.2-21.7l-36.6,24.1l0.2,22L245.2,318.7z"/>
		<path class="st4" d="M245,296.4l-13.8-8.8l-36.5,24.1l13.7,8.6L245,296.4z"/>
		<path class="st4" d="M208.3,320.5l0.2,1.9l36.6-23.9l0-2L208.3,320.5z"/>
		<path class="st5" d="M243.6,297.4l-12.4-8l-36.4,24.2l12.3,7.7L243.6,297.4z"/>
		<path class="st6" d="M194.3,311.4l0.2,23.1l14.1,9.1l36.9-24.7l-0.2-22.8l-14.1-9.1L194.3,311.4z M244.8,318.4l-2.6,1.7l-0.2-19.3
			l2.6-1.7L244.8,318.4z M215.1,338.2l-2.8,1.9l-0.2-19.7l2.8-1.9L215.1,338.2z M215.5,318.2l2.8-1.9l0.2,19.7l-2.8,1.9L215.5,318.2
			z M218.7,316.2l2.9-1.9l0.2,19.7l-2.8,1.9L218.7,316.2z M222.1,314l2.8-1.9l0.2,19.5l-2.8,1.9L222.1,314z M225.4,311.8l2.8-1.9
			l0.2,19.5l-2.8,1.9L225.4,311.8z M228.8,309.5l2.8-1.7l0.2,19.5l-2.8,1.9L228.8,309.5z M232.1,307.3l2.8-1.9l0.2,19.5l-2.8,1.9
			L232.1,307.3z M235.4,305.3l2.8-1.9l0.2,19.3l-2.8,1.9L235.4,305.3z M238.7,303l2.8-1.9l0.2,19.3l-2.8,1.9L238.7,303z
			 M208.9,322.5l2.8-1.7l0.2,19.8l-2.8,1.9L208.9,322.5z M208.9,320.6l35.9-23.6l0,1.4l-35.9,23.4l0-0.9l0-0.2L208.9,320.6z
			 M195.4,311.7l35.8-23.6l13,8.3l-35.9,23.4L195.4,311.7z"/>
		<path class="st4" d="M194.3,313.5l0-0.8l14.4,9.1l0,0.8l-7.3-4.6l0.2,21.2l-0.4-0.3l-0.2-21.2L194.3,313.5z"/>
		<path class="st4" d="M204.5,333c0.1,0,0.3,0,0.4-0.2l0.3-0.2c0.1,0,0.1-0.2,0.1-0.3c0-0.2-0.1-0.2-0.3-0.2l-0.3,0.2
			c-0.1,0.2-0.3,0.2-0.4,0l-1.4-0.9l0.3-0.2c0.1,0,0.1-0.2,0.1-0.3c0-0.2-0.1-0.2-0.3-0.2l-0.3,0.2c-0.1,0.2-0.3,0.3-0.3,0.5
			c0,0.2,0.1,0.3,0.3,0.5l1.4,0.8C204.1,333,204.2,333,204.5,333z"/>
		<path class="st4" d="M199.6,330.1c0.1,0,0.3,0,0.4-0.2l0.3-0.2c0.1,0,0.1-0.2,0.1-0.3c0-0.2-0.1-0.2-0.3-0.2l-0.3,0.2
			c-0.1,0.2-0.3,0.2-0.4,0l-1.4-0.9l0.3-0.2c0.1,0,0.1-0.2,0.1-0.3c0-0.2-0.1-0.2-0.3-0.2l-0.3,0.2c-0.1,0.2-0.3,0.3-0.3,0.5
			c0,0.2,0.1,0.3,0.3,0.5l1.4,0.9C199.2,330.1,199.4,330.1,199.6,330.1z"/>
		<path class="st4" d="M260.2,328.3l-0.2-21.7l-36.6,24.2l0.2,21.8L260.2,328.3z"/>
		<path class="st4" d="M260,306l-13.7-8.8l-36.6,24.1l13.7,8.8L260,306z"/>
		<path class="st4" d="M223.3,330.2l0.2,1.9l36.6-23.9l0-2L223.3,330.2z"/>
		<path class="st5" d="M258.6,306.9l-12.3-7.8l-36.6,24.1L222,331L258.6,306.9z"/>
		<path class="st6" d="M209.3,321.1l0.2,23.1l14.1,8.9l37-24.5l-0.2-22.8l-14.1-9.1L209.3,321.1z M259.8,328.1l-2.6,1.7l-0.2-19.3
			l2.6-1.7L259.8,328.1z M230.1,347.9l-2.8,1.9l-0.2-19.8l2.8-1.9L230.1,347.9z M230.5,327.9l2.8-1.9l0.2,19.7l-2.8,1.9L230.5,327.9
			z M233.6,325.7l2.9-1.9l0.2,19.7l-2.8,1.9L233.6,325.7z M237.1,323.5l2.8-1.9l0.2,19.5l-2.8,1.9L237.1,323.5z M240.4,321.3
			l2.8-1.9l0.2,19.5l-2.8,1.9L240.4,321.3z M243.7,319.1l2.8-1.7l0.2,19.5l-2.8,1.9L243.7,319.1z M247,317l2.8-1.9l0.2,19.5
			l-2.8,1.9L247,317z M250.3,314.8l2.8-1.9l0.2,19.3l-2.8,1.9L250.3,314.8z M253.7,312.6l2.8-1.9l0.2,19.3l-2.8,1.9L253.7,312.6z
			 M223.8,332.2l2.8-1.7l0.2,19.8l-2.8,1.9L223.8,332.2z M223.8,330.2l35.9-23.6l0,1.4l-35.9,23.4l0-0.9l0-0.2L223.8,330.2z
			 M210.4,321.3l35.9-23.6l13,8.3l-35.9,23.4L210.4,321.3z"/>
		<path class="st4" d="M209.3,323l0-0.6l14.4,9.1l0,0.8l-7.3-4.6l0.2,21.1l-0.4-0.3l-0.2-21.1L209.3,323z"/>
		<path class="st4" d="M219.5,342.7c0.1,0,0.3,0,0.4-0.2l0.3-0.2c0.1,0,0.1-0.2,0.1-0.3c0-0.2-0.1-0.2-0.3-0.2l-0.3,0.2
			c-0.1,0.2-0.3,0.2-0.4,0l-1.4-0.8l0.3-0.2c0.1,0,0.1-0.2,0.1-0.3c0-0.2-0.1-0.2-0.3-0.2l-0.3,0.2c-0.1,0.2-0.3,0.3-0.3,0.5
			c0,0.2,0.1,0.3,0.3,0.5l1.4,0.9C219.1,342.7,219.3,342.7,219.5,342.7z"/>
		<path class="st4" d="M214.6,339.6c0.1,0,0.3,0,0.4-0.2l0.3-0.2c0.1,0,0.1-0.2,0.1-0.3c0-0.2-0.1-0.2-0.3-0.2l-0.3,0.2
			c-0.1,0.2-0.3,0.2-0.4,0l-1.4-0.9l0.3-0.2c0.1,0,0.1-0.2,0.1-0.3c0-0.2-0.1-0.2-0.3-0.2l-0.3,0.2c-0.1,0.2-0.3,0.3-0.3,0.5
			c0,0.2,0.1,0.3,0.3,0.5l1.4,0.9C214.2,339.6,214.5,339.6,214.6,339.6z"/>
		<path class="st4" d="M275.1,337.8l-0.2-21.5l-36.6,24.1l0.2,21.8L275.1,337.8z"/>
		<path class="st4" d="M274.9,315.6l-13.7-8.9l-36.6,24.2l13.7,8.6L274.9,315.6z"/>
		<path class="st4" d="M238.2,339.7l0.2,1.9l36.6-23.9l0-2L238.2,339.7z"/>
		<path class="st5" d="M273.6,316.6l-12.3-8l-36.6,24.2l12.3,7.7L273.6,316.6z"/>
		<path class="st6" d="M224.4,330.6l0.2,23.1l14.1,9.1l36.9-24.7l-0.2-22.8l-14.1-9.1L224.4,330.6z M274.7,337.6l-2.6,1.7l-0.2-19.3
			l2.8-1.7L274.7,337.6z M245,357.4l-2.8,1.9l-0.2-19.7l2.8-1.9L245,357.4z M245.4,337.5l2.8-1.9l0.2,19.7l-2.8,1.9L245.4,337.5z
			 M248.6,335.2l2.9-1.9l0.2,19.7l-2.8,1.9L248.6,335.2z M252,333l2.8-1.9l0.2,19.5l-2.8,1.9L252,333z M255.4,331l2.8-1.9l0.2,19.5
			l-2.8,1.9L255.4,331z M258.7,328.7l2.8-1.7l0.2,19.5l-2.8,1.9L258.7,328.7z M262,326.5l2.8-1.9l0.2,19.5l-2.8,1.9L262,326.5z
			 M265.3,324.5l2.8-1.9l0.2,19.3l-2.8,1.9L265.3,324.5z M268.6,322.3l2.8-1.9l0.2,19.3l-2.8,1.9L268.6,322.3z M238.8,341.7l2.8-1.7
			l0.2,19.8l-2.8,1.9L238.8,341.7z M238.8,339.7l35.9-23.6l0,1.4L238.8,341l0-0.9l0-0.2L238.8,339.7z M225.3,330.9l35.9-23.7l13,8.3
			l-35.9,23.4L225.3,330.9z"/>
		<path class="st4" d="M224.4,332.7l0-0.8l14.4,9.1l0,0.8l-7.3-4.6l0.2,21.2l-0.6-0.5l-0.2-21.1L224.4,332.7z"/>
		<path class="st4" d="M234.4,352.2c0.1,0,0.3,0,0.4-0.2l0.3-0.2c0.1,0,0.1-0.2,0.1-0.3c0-0.2-0.1-0.2-0.3-0.2l-0.3,0.2
			c-0.1,0.2-0.3,0.2-0.4,0l-1.4-0.8l0.3-0.2c0.1,0,0.1-0.2,0.1-0.3c0-0.2-0.1-0.2-0.3-0.2l-0.3,0.2c-0.1,0.2-0.3,0.3-0.3,0.5
			c0,0.2,0.1,0.3,0.3,0.5l1.4,0.9C234.2,352.2,234.3,352.2,234.4,352.2z"/>
		<path class="st4" d="M229.5,349.3c0.1,0,0.3,0,0.4-0.2l0.3-0.2c0.1,0,0.1-0.2,0.1-0.3c0-0.2-0.1-0.2-0.3-0.2l-0.3,0.2
			c-0.1,0.2-0.3,0.2-0.4,0l-1.4-0.8l0.3-0.2c0.1,0,0.1-0.2,0.1-0.3c0-0.2-0.1-0.2-0.3-0.2l-0.3,0.2c-0.1,0.2-0.3,0.3-0.3,0.5
			c0,0.2,0.1,0.3,0.3,0.5l1.4,0.8C229.3,349.3,229.4,349.3,229.5,349.3z"/>
		<path class="st4" d="M290.1,347.5l-0.2-21.7L253.3,350l0.2,21.8L290.1,347.5z"/>
		<path class="st4" d="M289.9,325.2l-13.7-8.8l-36.6,24.1l13.7,8.6L289.9,325.2z"/>
		<path class="st4" d="M253.2,349.2l0.2,2l36.6-23.9l0-2L253.2,349.2z"/>
		<path class="st5" d="M288.5,326.1l-12.3-7.8l-36.6,24.1l12.4,7.8L288.5,326.1z"/>
		<path class="st6" d="M239.3,340.3l0.2,23.1l14.1,9.1l36.9-24.8l-0.2-22.6l-14.1-9.1L239.3,340.3z M289.8,347.2l-2.6,1.7l-0.2-19.3
			l2.6-1.7L289.8,347.2z M260,367.1l-2.8,1.9l-0.2-19.8l2.8-1.9L260,367.1z M260.4,347l2.8-1.9l0.2,19.7l-2.8,1.9L260.4,347z
			 M263.5,344.9l2.9-1.9l0.2,19.7l-2.8,1.9L263.5,344.9z M267,342.7l2.8-1.9l0.2,19.7l-2.8,1.9L267,342.7z M270.3,340.5l2.8-1.9
			l0.2,19.5l-2.8,1.9L270.3,340.5z M273.6,338.3l2.8-1.7l0.2,19.5l-2.8,1.9L273.6,338.3z M276.9,336.2l2.8-1.9l0.2,19.5l-2.8,1.9
			L276.9,336.2z M280.2,334l2.8-1.9l0.2,19.3l-2.8,1.9L280.2,334z M283.7,331.8l2.8-1.9l0.2,19.5l-2.8,1.9L283.7,331.8z
			 M253.7,351.4l2.8-1.7l0.2,19.8l-2.8,1.9L253.7,351.4z M253.7,349.4l35.9-23.6l0,1.4l-35.9,23.4l0-0.9l0-0.2L253.7,349.4z
			 M240.3,340.5l35.9-23.6l13,8.3l-35.9,23.4L240.3,340.5z"/>
		<path class="st4" d="M239.3,342.2l0-0.8l14.4,9.2l0,0.8l-7.3-4.6l0.2,21.1l-0.6-0.3l-0.2-21.2L239.3,342.2z"/>
		<path class="st4" d="M249.4,361.9c0.1,0,0.3,0,0.4-0.2l0.3-0.2c0.1,0,0.1-0.2,0.1-0.3c0-0.2-0.1-0.2-0.3-0.2l-0.3,0.2
			c-0.1,0.2-0.3,0.2-0.4,0l-1.4-0.8l0.3-0.2c0.1,0,0.1-0.2,0.1-0.3c0-0.2-0.1-0.2-0.3-0.2l-0.3,0.2c-0.1,0.2-0.3,0.3-0.3,0.5
			c0,0.2,0.1,0.3,0.3,0.5l1.4,0.9C249.1,361.9,249.2,361.9,249.4,361.9z"/>
		<path class="st4" d="M244.5,358.8c0.1,0,0.3,0,0.4-0.2l0.3-0.2c0.1,0,0.1-0.2,0.1-0.3c0-0.2-0.1-0.2-0.3-0.2l-0.3,0.2
			c-0.1,0.2-0.3,0.2-0.4,0l-1.4-0.8l0.3-0.2c0.1,0,0.1-0.2,0.1-0.3c0-0.2-0.1-0.2-0.3-0.2l-0.3,0.2c-0.1,0.2-0.3,0.3-0.3,0.5
			c0,0.2,0.1,0.3,0.3,0.5l1.4,0.9C244.2,358.8,244.4,358.8,244.5,358.8z"/>
		<path class="st4" d="M305,357l-0.2-21.5l-36.5,24.1l0.2,21.8L305,357z"/>
		<path class="st4" d="M304.8,334.9l-13.7-8.9l-36.6,24.2l13.8,8.6L304.8,334.9z"/>
		<path class="st4" d="M268.1,358.9l0.3,1.9l36.5-23.9l0-2L268.1,358.9z"/>
		<path class="st5" d="M303.5,335.8l-12.3-8L254.6,352l12.4,7.7L303.5,335.8z"/>
		<path class="st6" d="M254.3,349.8l0.2,23.1l14.1,9.1l36.9-24.7l-0.2-22.8l-14.1-9.1L254.3,349.8z M304.8,356.8l-2.6,1.7l-0.2-19.3
			l2.6-1.7L304.8,356.8z M274.9,376.6l-2.8,1.9l-0.2-19.7l2.8-1.9L274.9,376.6z M275.3,356.7l2.8-1.9l0.2,19.7l-2.8,1.9L275.3,356.7
			z M278.6,354.4l2.9-1.9l0.2,19.7l-2.8,1.9L278.6,354.4z M281.9,352.2l2.8-1.9l0.2,19.5l-2.8,1.9L281.9,352.2z M285.3,350.2
			l2.8-1.9l0.2,19.5l-2.8,1.9L285.3,350.2z M288.7,348l2.8-1.7l0.2,19.5l-2.8,1.9L288.7,348z M291.9,345.7l2.8-1.9l0.2,19.5
			l-2.8,1.9L291.9,345.7z M295.3,343.5l2.8-1.9l0.2,19.3l-2.8,1.9L295.3,343.5z M298.7,341.5l2.8-1.9l0.2,19.3l-2.8,1.9L298.7,341.5
			z M268.7,360.9l2.8-1.7l0.2,19.8l-2.8,1.9L268.7,360.9z M268.7,358.9l35.9-23.6l0,1.4l-35.9,23.4l0-0.9l0-0.2L268.7,358.9z
			 M255.4,350.1l35.8-23.7l13,8.3l-35.9,23.4L255.4,350.1z"/>
		<path class="st4" d="M254.3,351.9l0-0.8l14.4,9.1l0,0.8l-7.3-4.6l0.2,21.2l-0.6-0.5l-0.2-21.1L254.3,351.9z"/>
		<path class="st4" d="M264.3,371.4c0.1,0,0.3,0,0.4-0.2l0.3-0.2c0.1,0,0.1-0.2,0.1-0.3c0-0.2-0.1-0.2-0.3-0.2l-0.3,0.2
			c-0.1,0.2-0.3,0.2-0.4,0l-1.4-0.9l0.3-0.2c0.1,0,0.1-0.2,0.1-0.3c0-0.2-0.1-0.2-0.3-0.2l-0.3,0.2c-0.1,0.2-0.3,0.3-0.3,0.5
			c0,0.2,0.1,0.3,0.3,0.5l1.4,0.9C264.1,371.4,264.2,371.4,264.3,371.4z"/>
		<path class="st4" d="M259.5,368.5c0.1,0,0.3,0,0.4-0.2l0.3-0.2c0.1,0,0.1-0.2,0.1-0.3c0-0.2-0.1-0.2-0.3-0.2l-0.3,0.2
			c-0.1,0.2-0.3,0.2-0.4,0l-1.4-0.8l0.3-0.2c0.1,0,0.1-0.2,0.1-0.3c0-0.2-0.1-0.2-0.3-0.2l-0.3,0.2c-0.1,0.2-0.3,0.3-0.3,0.5
			c0,0.2,0.1,0.3,0.3,0.5l1.4,0.8C259.2,368.4,259.3,368.5,259.5,368.5z"/>
		<path class="st4" d="M260,305.8l-0.2-21.5l-36.6,24.1l0.2,21.8L260,305.8z"/>
		<path class="st4" d="M259.8,283.7l-13.8-8.9L209.5,299l13.7,8.6L259.8,283.7z"/>
		<path class="st4" d="M222.9,307.7l0.3,1.9l36.6-23.9l0-2L222.9,307.7z"/>
		<path class="st5" d="M258.4,284.6l-12.4-8l-36.4,24.2l12.3,7.7L258.4,284.6z"/>
		<path class="st6" d="M209.1,298.6l0.2,23.1l14.1,8.9l36.9-24.5l-0.2-22.8l-14.1-9.1L209.1,298.6z M259.6,305.6l-2.6,1.7l-0.2-19.3
			l2.6-1.7L259.6,305.6z M229.9,325.4l-2.8,1.9l-0.2-19.7l2.8-1.9L229.9,325.4z M230.1,305.5l2.8-1.9l0.2,19.7l-2.8,1.9L230.1,305.5
			z M233.4,303.3l2.9-1.7l0.2,19.7l-2.8,1.9L233.4,303.3z M236.9,301l2.8-1.9l0.2,19.5l-2.8,1.9L236.9,301z M240.2,299l2.8-1.9
			l0.2,19.5l-2.8,1.9L240.2,299z M243.5,296.8l2.8-1.7l0.2,19.5l-2.8,1.9L243.5,296.8z M246.8,294.5l2.8-1.9l0.2,19.5L247,314
			L246.8,294.5z M250.1,292.3l2.8-1.9l0.2,19.3l-2.8,1.9L250.1,292.3z M253.4,290.3l2.8-1.9l0.2,19.3l-2.8,1.9L253.4,290.3z
			 M223.5,309.7l2.8-1.7l0.2,19.8l-2.8,1.9L223.5,309.7z M223.5,307.7l35.9-23.6l0,1.4L223.5,309l0-0.9l0-0.2L223.5,307.7z
			 M210.2,299l35.8-23.7l13,8.3L223,306.9L210.2,299z"/>
		<path class="st4" d="M209.1,300.7l0-0.8l14.4,9.1l0,0.8l-7.3-4.6l0.2,21.2l-0.6-0.5l-0.2-21.1L209.1,300.7z"/>
		<path class="st4" d="M219.1,320.2c0.1,0,0.3,0,0.4-0.2l0.3-0.2c0.1,0,0.1-0.2,0.1-0.3c0-0.2-0.1-0.2-0.3-0.2l-0.3,0.2
			c-0.1,0.2-0.3,0.2-0.4,0l-1.4-0.9l0.3-0.2c0.1,0,0.1-0.2,0.1-0.3c0-0.2-0.1-0.2-0.3-0.2l-0.3,0.2c-0.1,0.2-0.3,0.3-0.3,0.5
			c0,0.2,0.1,0.3,0.3,0.5l1.4,0.9C218.9,320.2,219,320.2,219.1,320.2z"/>
		<path class="st4" d="M214.2,317.3c0.1,0,0.3,0,0.4-0.2l0.3-0.2c0.1,0,0.1-0.2,0.1-0.3c0-0.2-0.1-0.2-0.3-0.2l-0.3,0.2
			c-0.1,0.2-0.3,0.2-0.4,0l-1.4-0.8l0.3-0.2c0.1,0,0.1-0.2,0.1-0.3c0-0.2-0.1-0.2-0.3-0.2l-0.3,0.2c-0.1,0.2-0.3,0.3-0.3,0.5
			c0,0.2,0.1,0.3,0.3,0.5l1.4,0.8C214,317.3,214.1,317.3,214.2,317.3z"/>
		<path class="st4" d="M219.3,296.1l7.2-4.7l7.3,4.6l0,2.3l-7.2,4.7l0-2.3L219.3,296.1z"/>
		<path class="st6" d="M219,295.9l0,0.3l0,2.3l7.5,4.8l0.3-0.2l7.2-4.7l0-2.3l0-0.3l-7.5-4.8l-7.2,4.8L219,295.9z M226.5,291.6
			l6.7,4.3l-6.6,4.4l-6.7-4.3L226.5,291.6z M226.9,302.4l0-1.6l3.9-2.5l2.8-1.9l0,1.6L226.9,302.4z"/>
		<path class="st5" d="M222.7,296.5l3.9,2.5l3.7-2.5l-3.8-2.3L222.7,296.5z"/>
		<path class="st6" d="M221.5,296l5-3.3l5,3.2l-5,3.3L221.5,296z M226.5,293.5l-4,2.7l4.1,2.6l4-2.7L226.5,293.5z"/>
		<path class="st4" d="M320.1,366.7l-0.2-21.7l-36.6,24.1l0.2,22L320.1,366.7z"/>
		<path class="st4" d="M319.9,344.4l-13.8-8.8l-36.5,24.1l13.7,8.6L319.9,344.4z"/>
		<path class="st4" d="M283.1,368.4l0.3,2l36.6-23.9l0-2L283.1,368.4z"/>
		<path class="st5" d="M318.6,345.3l-12.4-7.8l-36.4,24.1l12.3,7.7L318.6,345.3z"/>
		<path class="st6" d="M269.2,359.5l0.2,23.1l14.1,8.9l36.9-24.7l-0.2-22.6l-14.1-9.1L269.2,359.5z M319.7,366.4l-2.6,1.7l-0.2-19.3
			l2.6-1.7L319.7,366.4z M290,386.3l-2.8,1.9l-0.2-19.7l2.8-1.9L290,386.3z M290.3,366.2l2.8-1.9l0.2,19.7l-2.8,1.9L290.3,366.2z
			 M293.6,364.1l2.9-1.9l0.2,19.7l-2.8,1.9L293.6,364.1z M297,361.9l2.8-1.9l0.2,19.5l-2.8,1.9L297,361.9z M300.3,359.7l2.8-1.9
			l0.2,19.5l-2.8,1.9L300.3,359.7z M303.7,357.5l2.8-1.7l0.2,19.5l-2.8,1.9L303.7,357.5z M307,355.4l2.8-1.9l0.2,19.5l-2.8,1.9
			L307,355.4z M310.3,353.2l2.8-1.9l0.2,19.3l-2.8,1.9L310.3,353.2z M313.6,351l2.8-1.9l0.2,19.3l-2.8,1.9L313.6,351z M283.6,370.6
			l2.8-1.7l0.2,19.8l-2.8,1.9L283.6,370.6z M283.6,368.6l35.9-23.6l0,1.4l-35.9,23.4l0-0.9l0-0.2L283.6,368.6z M270.3,359.7
			l35.8-23.6l13,8.3l-35.9,23.4L270.3,359.7z"/>
		<path class="st4" d="M269.2,361.4l0-0.8l14.4,9.2l0,0.6l-7.3-4.5l0.2,21.1l-0.6-0.3l-0.2-21.2L269.2,361.4z"/>
		<path class="st4" d="M279.3,381.1c0.1,0,0.3,0,0.4-0.2l0.3-0.2c0.1,0,0.1-0.2,0.1-0.3c0-0.2-0.1-0.2-0.3-0.2l-0.3,0.2
			c-0.1,0.2-0.3,0.2-0.4,0l-1.4-0.8l0.3-0.2c0.1,0,0.1-0.2,0.1-0.3c0-0.2-0.1-0.2-0.3-0.2l-0.3,0.2c-0.1,0.2-0.3,0.3-0.3,0.5
			c0,0.2,0.1,0.3,0.3,0.5l1.4,0.9C279,381,279.2,381.1,279.3,381.1z"/>
		<path class="st4" d="M274.4,378c0.1,0,0.3,0,0.4-0.2l0.3-0.2c0.1,0,0.1-0.2,0.1-0.3c0-0.2-0.1-0.2-0.3-0.2l-0.3,0.2
			c-0.1,0.2-0.3,0.2-0.4,0l-1.4-0.9l0.3-0.2c0.1,0,0.1-0.2,0.1-0.3c0-0.2-0.1-0.2-0.3-0.2l-0.3,0.2c-0.1,0.2-0.3,0.3-0.3,0.5
			c0,0.2,0.1,0.3,0.3,0.5l1.4,0.8C274.1,378,274.3,378,274.4,378z"/>
		<path class="st4" d="M299,343.6l7.2-4.7l7.3,4.6l0,2.3l-7.2,4.6l0-2.2L299,343.6z"/>
		<path class="st6" d="M298.7,343.5l0,0.3l0,2.3l7.5,4.8l0.3-0.2l7.2-4.8l0-2.3l0-0.3l-7.5-4.8l-7.2,4.8L298.7,343.5z M306.1,339.2
			l6.7,4.3l-6.6,4.4l-6.7-4.3L306.1,339.2z M306.5,350l0-1.6l3.9-2.5l2.8-1.9l0,1.6L306.5,350z"/>
		<path class="st5" d="M302.4,344.1l3.8,2.5l3.9-2.5l-3.9-2.5L302.4,344.1z"/>
		<path class="st6" d="M301.2,343.6l5-3.3l5,3.2l-5,3.3L301.2,343.6z M306.1,341.1l-4,2.7l4.1,2.6l4-2.7L306.1,341.1z"/>
		<path class="st4" d="M335.1,376.2l-0.2-21.5l-36.6,24.1l0.2,21.8L335.1,376.2z"/>
		<path class="st4" d="M334.9,354.1l-13.8-8.9l-36.5,24.2l13.7,8.6L334.9,354.1z"/>
		<path class="st4" d="M298.2,378.1l0.2,1.9l36.6-23.9l0-2L298.2,378.1z"/>
		<path class="st5" d="M333.5,355l-12.4-8l-36.4,24.2l12.3,7.7L333.5,355z"/>
		<path class="st6" d="M284.2,369.1l0.2,23.1l14.1,9.1l36.9-24.7l-0.2-22.8l-14.1-9.1L284.2,369.1z M334.7,376.1l-2.6,1.7l-0.2-19.3
			l2.6-1.7L334.7,376.1z M305,395.8l-2.8,1.9l-0.2-19.7l2.8-1.9L305,395.8z M305.2,375.9l2.8-1.9l0.2,19.7l-2.8,1.9L305.2,375.9z
			 M308.5,373.7l2.9-1.9l0.2,19.7l-2.8,1.9L308.5,373.7z M312,371.4l2.8-1.9l0.2,19.5l-2.8,1.9L312,371.4z M315.3,369.4l2.8-1.9
			l0.2,19.5l-2.8,1.9L315.3,369.4z M318.6,367.2l2.8-1.7l0.2,19.5l-2.8,1.9L318.6,367.2z M321.9,364.9l2.8-1.9l0.2,19.5l-2.8,1.9
			L321.9,364.9z M325.2,362.7l2.8-1.9l0.2,19.3l-2.8,1.9L325.2,362.7z M328.6,360.7l2.8-1.9l0.2,19.3l-2.8,1.9L328.6,360.7z
			 M298.7,380.1l2.8-1.7l0.2,19.8l-2.8,1.9L298.7,380.1z M298.7,378.1l35.9-23.6l0,1.4l-35.9,23.4l0-0.9l0-0.2L298.7,378.1z
			 M285.3,369.4l35.8-23.7l13,8.3l-35.9,23.4L285.3,369.4z"/>
		<path class="st4" d="M284.2,371.1l0-0.8l14.4,9.1l0,0.8l-7.3-4.6l0.2,21.1l-0.6-0.3l-0.2-21.1L284.2,371.1z"/>
		<path class="st4" d="M294.2,390.6c0.1,0,0.3,0,0.4-0.2l0.3-0.2c0.1,0,0.1-0.2,0.1-0.3c0-0.2-0.1-0.2-0.3-0.2l-0.3,0.2
			c-0.1,0.2-0.3,0.2-0.4,0l-1.4-0.8l0.3-0.2c0.1,0,0.1-0.2,0.1-0.3c0-0.2-0.1-0.2-0.3-0.2l-0.3,0.2c-0.1,0.2-0.3,0.3-0.3,0.5
			c0,0.2,0.1,0.3,0.3,0.5l1.4,0.9C294,390.6,294.1,390.6,294.2,390.6z"/>
		<path class="st4" d="M289.4,387.7c0.1,0,0.3,0,0.4-0.2l0.3-0.2c0.1,0,0.1-0.2,0.1-0.3c0-0.2-0.1-0.2-0.3-0.2l-0.3,0.2
			c-0.1,0.2-0.3,0.2-0.4,0l-1.4-0.9l0.3-0.2c0.1,0,0.1-0.2,0.1-0.3c0-0.2-0.1-0.2-0.3-0.2l-0.3,0.2c-0.1,0.2-0.3,0.3-0.3,0.5
			c0,0.2,0.1,0.3,0.3,0.5l1.4,0.9C289.1,387.6,289.2,387.7,289.4,387.7z"/>
		<path class="st4" d="M274.9,315.5l-0.2-21.7L238.1,318l0.2,21.8L274.9,315.5z"/>
		<path class="st4" d="M274.7,293.2l-13.8-8.8l-36.4,24.1l13.7,8.6L274.7,293.2z"/>
		<path class="st4" d="M238,317.2l0.2,2l36.6-23.9l0-2L238,317.2z"/>
		<path class="st5" d="M273.3,294.1l-12.4-7.8l-36.5,24.1l12.3,7.8L273.3,294.1z"/>
		<path class="st6" d="M224,308.3l0.2,22.9l14.1,9.1l36.9-24.7L275,293l-14.1-9.1L224,308.3z M274.5,315.2l-2.6,1.7l-0.2-19.3
			l2.6-1.7L274.5,315.2z M244.8,335.1l-2.8,1.9l-0.2-19.8l2.8-1.9L244.8,335.1z M245.1,315l2.8-1.9l0.2,19.7l-2.8,1.9L245.1,315z
			 M248.4,312.9l2.9-1.9l0.2,19.7l-2.8,1.9L248.4,312.9z M251.8,310.7l2.8-1.9l0.2,19.5l-2.8,1.9L251.8,310.7z M255.1,308.5l2.8-1.9
			l0.2,19.7l-2.8,1.9L255.1,308.5z M258.5,306.3l2.8-1.7l0.2,19.5l-2.8,1.9L258.5,306.3z M261.8,304.2l2.8-1.9l0.2,19.5l-2.8,1.9
			L261.8,304.2z M265.1,302l2.8-1.9l0.2,19.3l-2.8,1.9L265.1,302z M268.4,299.8l2.8-1.9l0.2,19.3l-2.8,1.9L268.4,299.8z
			 M238.6,319.4l2.8-1.7l0.2,19.7l-2.8,1.9L238.6,319.4z M238.6,317.4l35.9-23.6l0,1.4l-35.9,23.4l0-0.9l0-0.2L238.6,317.4z
			 M225.1,308.5l35.8-23.6l13,8.3L238,316.6L225.1,308.5z"/>
		<path class="st4" d="M224,310.2l0-0.8l14.4,9.2l0,0.8l-7.3-4.6l0.2,21.1l-0.6-0.3l-0.2-21.2L224,310.2z"/>
		<path class="st4" d="M234.1,329.9c0.1,0,0.3,0,0.4-0.2l0.3-0.2c0.1,0,0.1-0.2,0.1-0.3c0-0.2-0.1-0.2-0.3-0.2l-0.3,0.2
			c-0.1,0.2-0.3,0.2-0.4,0l-1.4-0.8l0.3-0.2c0.1,0,0.1-0.2,0.1-0.3c0-0.2-0.1-0.2-0.3-0.2l-0.3,0.2c-0.1,0.2-0.3,0.3-0.3,0.5
			c0,0.2,0.1,0.3,0.3,0.5l1.4,0.8C233.8,329.9,233.9,329.9,234.1,329.9z"/>
		<path class="st4" d="M229.2,326.8c0.1,0,0.3,0,0.4-0.2l0.3-0.2c0.1,0,0.1-0.2,0.1-0.3c0-0.2-0.1-0.2-0.3-0.2l-0.3,0.2
			c-0.1,0.2-0.3,0.2-0.4,0l-1.4-0.8l0.3-0.2c0.1,0,0.1-0.2,0.1-0.3c0-0.2-0.1-0.2-0.3-0.2l-0.3,0.2c-0.1,0.2-0.3,0.3-0.3,0.5
			c0,0.2,0.1,0.3,0.3,0.5l1.4,0.9C228.9,326.8,229.1,326.8,229.2,326.8z"/>
		<path class="st4" d="M253.7,292.4l7.2-4.8l7.3,4.6l0,2.2l-7.2,4.7l0-2.3L253.7,292.4z"/>
		<path class="st6" d="M253.6,292.1l0,0.3l0,2.3l7.5,4.8l0.3-0.2l7.2-4.7l0-2.3l0-0.3l-7.5-4.8l-7.2,4.8L253.6,292.1z M260.9,288
			l6.7,4.3l-6.6,4.4l-6.7-4.3L260.9,288z M261.3,298.8l0-1.6l3.9-2.5l2.8-1.9l0,1.6L261.3,298.8z"/>
		<path class="st5" d="M257.2,292.9l3.8,2.3l3.9-2.4l-3.9-2.5L257.2,292.9z"/>
		<path class="st6" d="M256,292.4l5-3.3l5.2,3.2l-5,3.3L256,292.4z M260.9,289.7l-4,2.7l4.1,2.6l4-2.7L260.9,289.7z"/>
		<path class="st4" d="M289.9,325l-0.2-21.5l-36.6,24.1l0.2,21.8L289.9,325z"/>
		<path class="st4" d="M289.7,302.9l-13.8-8.9l-36.4,24.2l13.7,8.6L289.7,302.9z"/>
		<path class="st4" d="M253,326.9l0.2,1.9l36.6-23.9l0-2L253,326.9z"/>
		<path class="st5" d="M288.3,303.8l-12.4-8L239.4,320l12.3,7.7L288.3,303.8z"/>
		<path class="st6" d="M239,317.9l0.2,23.1l14.1,9.1l36.9-24.7l-0.2-22.8l-14.1-9.1L239,317.9z M289.5,324.9l-2.6,1.7l-0.2-19.3
			l2.6-1.7L289.5,324.9z M259.8,344.6l-2.8,1.9l-0.2-19.7l2.8-1.9L259.8,344.6z M260.2,324.7l2.8-1.9l0.2,19.7l-2.8,1.9L260.2,324.7
			z M263.3,322.5l2.9-1.9l0.2,19.7l-2.8,1.9L263.3,322.5z M266.8,320.2l2.8-1.9l0.2,19.5l-2.8,1.9L266.8,320.2z M270.1,318.2
			l2.8-1.9l0.2,19.5l-2.8,1.9L270.1,318.2z M273.4,316l2.8-1.7l0.2,19.5l-2.8,1.9L273.4,316z M276.7,313.8l2.8-1.9l0.2,19.5
			l-2.8,1.9L276.7,313.8z M280,311.5l2.8-1.9l0.2,19.5l-2.8,1.9L280,311.5z M283.4,309.5l2.8-1.9l0.2,19.3l-2.8,1.9L283.4,309.5z
			 M253.5,329l2.8-1.7l0.2,19.8l-2.8,1.9L253.5,329z M253.5,326.9l35.9-23.6l0,1.4l-35.9,23.4l0-0.9l0-0.2L253.5,326.9z
			 M240.1,318.2l35.8-23.7l13,8.3l-35.9,23.4L240.1,318.2z"/>
		<path class="st4" d="M239,319.9l0-0.8l14.4,9.1l0,0.8l-7.3-4.6l0.2,21.2l-0.4-0.5l-0.2-21.1L239,319.9z"/>
		<path class="st4" d="M249.2,339.4c0.1,0,0.3,0,0.4-0.2l0.3-0.2c0,0,0-0.2,0-0.3c0-0.2-0.1-0.2-0.3-0.2l-0.3,0.2
			c-0.1,0.2-0.3,0.2-0.4,0l-1.4-0.8l0.3-0.2c0.1,0,0.1-0.2,0.1-0.3c0-0.2-0.1-0.2-0.3-0.2l-0.3,0.2c-0.1,0.2-0.3,0.3-0.3,0.5
			c0,0.2,0.1,0.3,0.3,0.5l1.4,0.9C248.8,339.4,248.9,339.4,249.2,339.4z"/>
		<path class="st4" d="M244.3,336.5c0.1,0,0.3,0,0.4-0.2l0.3-0.2c0.1,0,0.1-0.2,0.1-0.3c0-0.2-0.1-0.2-0.3-0.2l-0.3,0.2
			c-0.1,0.2-0.3,0.2-0.4,0l-1.4-0.9l0.3-0.2c0.1,0,0.1-0.2,0.1-0.3c0-0.2-0.1-0.2-0.3-0.2l-0.3,0.2c-0.1,0.2-0.3,0.3-0.3,0.5
			c0,0.2,0.1,0.3,0.3,0.5l1.4,0.9C243.9,336.4,244,336.5,244.3,336.5z"/>
		<path class="st4" d="M304.8,334.7l-0.2-21.7L268,337.1l0.2,22L304.8,334.7z"/>
		<path class="st4" d="M304.6,312.4l-13.7-8.8l-36.6,24.1l13.7,8.6L304.6,312.4z"/>
		<path class="st4" d="M267.9,336.5l0.2,2l36.6-23.9l0-2L267.9,336.5z"/>
		<path class="st5" d="M303.4,313.3l-12.4-7.8l-36.6,24.1l12.4,7.7L303.4,313.3z"/>
		<path class="st6" d="M254.1,327.5l0.2,23.1l14.1,9.1l36.9-24.8l-0.2-22.8l-14.1-9.1L254.1,327.5z M304.6,334.4l-2.6,1.7l-0.2-19.3
			l2.6-1.7L304.6,334.4z M274.7,354.3l-2.8,1.9l-0.2-19.8l2.8-1.9L274.7,354.3z M275.1,334.2l2.8-1.9l0.2,19.7l-2.8,1.9L275.1,334.2
			z M278.3,332.1l2.9-1.9l0.2,19.7l-2.8,1.9L278.3,332.1z M281.7,329.9l2.8-1.9l0.2,19.5l-2.8,1.9L281.7,329.9z M285,327.7l2.8-1.9
			l0.2,19.5l-2.8,1.9L285,327.7z M288.4,325.5l2.8-1.7l0.2,19.5l-2.8,1.9L288.4,325.5z M291.7,323.4l2.8-1.9l0.2,19.5l-2.8,1.9
			L291.7,323.4z M295,321.2l2.8-1.9l0.2,19.3l-2.8,1.9L295,321.2z M298.4,319l2.8-1.9l0.2,19.3l-2.8,1.9L298.4,319z M268.5,338.6
			l2.8-1.7l0.2,19.8l-2.8,1.9L268.5,338.6z M268.5,336.6l35.9-23.6l0,1.4l-35.9,23.4l0-0.9l0-0.2L268.5,336.6z M255,327.7l35.9-23.6
			l13,8.3L268,335.8L255,327.7z"/>
		<path class="st4" d="M254.1,329.4l0-0.8l14.4,9.2l0,0.6l-7.3-4.6l0.2,21.2l-0.6-0.3l-0.2-21.2L254.1,329.4z"/>
		<path class="st4" d="M264.1,349.1c0.1,0,0.3,0,0.4-0.2l0.3-0.2c0.1,0,0.1-0.2,0.1-0.3c0-0.2-0.1-0.2-0.3-0.2l-0.3,0.2
			c-0.1,0.2-0.3,0.2-0.4,0l-1.4-0.8l0.3-0.2c0.1,0,0.1-0.2,0.1-0.3c0-0.2-0.1-0.2-0.3-0.2l-0.3,0.2c-0.1,0.2-0.3,0.3-0.3,0.5
			c0,0.2,0.1,0.3,0.3,0.5l1.4,0.8C263.9,349,264,349.1,264.1,349.1z"/>
		<path class="st4" d="M259.2,346.1c0.1,0,0.3,0,0.4-0.2l0.3-0.2c0.1,0,0.1-0.2,0.1-0.3c0-0.2-0.1-0.2-0.3-0.2l-0.3,0.2
			c-0.1,0.2-0.3,0.2-0.4,0l-1.4-0.8l0.3-0.2c0.1,0,0.1-0.2,0.1-0.3c0-0.2-0.1-0.2-0.3-0.2l-0.3,0.2c-0.1,0.2-0.3,0.3-0.3,0.5
			c0,0.2,0.1,0.3,0.3,0.5l1.4,0.9C259,346.1,259.1,346.1,259.2,346.1z"/>
		<path class="st4" d="M263.8,325.1l7.2-4.8l7.3,4.6l0,2.2l-7.2,4.8l0-2.2L263.8,325.1z"/>
		<path class="st6" d="M263.5,325l0,0.3l0,2.3l7.5,4.8l0.3-0.2l7.2-4.8l0-2.3l0-0.3l-7.5-4.8l-7.2,4.7L263.5,325z M271,320.7
			l6.7,4.3l-6.6,4.4l-6.7-4.3L271,320.7z M271.3,331.4l0-1.6l3.9-2.5l2.8-1.9l0,1.6L271.3,331.4z"/>
		<path class="st5" d="M267.2,325.5l3.8,2.3l3.9-2.4L271,323L267.2,325.5z"/>
		<path class="st6" d="M266,325.1l5-3.3l5,3.2l-5,3.3L266,325.1z M271,322.4l-4,2.7l4.1,2.6l4-2.7L271,322.4z"/>
	</g>
</g>
<g id="big-smoke">
	<path class="st7" d="M368.1,297.2c0-4.4-3.6-8-8-8c-4.4,0-7.9,3.5-8,7.9c-4.7,1.4-8.1,5.8-8.1,11c0,6.3,5.1,11.4,11.4,11.4
		c6.3,0,11.4-5.1,11.4-11.4c0-1.8-0.4-3.5-1.2-5C367.1,301.5,368.1,299.5,368.1,297.2z"/>
	<path class="st4" d="M344.6,310.1c0-0.6,6.5,5.5,12.4,3.7c6-1.8,8-10.7,8.4-10c1.9,3,1.2,11.7-6.4,14.4
		C351.5,320.9,344.6,314.9,344.6,310.1z"/>
	<path class="st4" d="M354.7,295.4c0.2-0.2,0,4,2.4,5.6c2.4,1.6,6.2-0.3,6.1,0.1c-0.5,1.6-3.9,3.9-7.1,2
		C352.8,301.2,352.9,296.9,354.7,295.4z"/>
	<path class="st4" d="M349.3,304.8c1.3-0.1,2.2-1.1,2.2-2.2c-0.1-1.2-1.2-2-2.4-2c-1.3,0.1-2.2,1.1-2.2,2.2
		C347,304,348.1,304.9,349.3,304.8z"/>
</g>
<g id="little-smoke">
	<path class="st8" d="M349.3,282.6c3,0,5.4-2.4,5.4-5.4c0-3-2.4-5.4-5.4-5.4c-3,0-5.4,2.4-5.4,5.4
		C343.9,280.2,346.3,282.6,349.3,282.6z"/>
	<path class="st4" d="M344.6,278.9c0-0.2,2.9,2.1,5.5,1.4c2.7-0.7,3.5-4,3.7-3.8c0.9,1.1,0.5,4.4-2.8,5.4
		C347.6,282.9,344.6,280.7,344.6,278.9z"/>
	<path class="st8" d="M353.1,277.8c3,0,5.4-2.4,5.4-5.4c0-3-2.4-5.4-5.4-5.4c-3,0-5.4,2.4-5.4,5.4
		C347.7,275.4,350.1,277.8,353.1,277.8z"/>
	<path class="st8" d="M355.5,262c1.3,0,2.3-1,2.3-2.3c0-1.3-1-2.3-2.3-2.3c-1.3,0-2.3,1-2.3,2.3C353.2,261,354.2,262,355.5,262z"/>
	<path class="st8" d="M348.1,275.6c2.8,0,5-2.2,5-5c0-2.8-2.2-5-5-5c-2.8,0-5,2.2-5,5C343.1,273.4,345.3,275.6,348.1,275.6z"/>
	<path class="st4" d="M347,268.9c0.7-0.7,0.9-1.5,0.4-2c-0.4-0.4-1.3-0.2-2,0.4s-0.9,1.6-0.4,2C345.5,269.7,346.4,269.6,347,268.9z"
		/>
</g>
<g>
	<path class="st4" d="M233.8,129.1l-1.3-19.5c0-0.9-0.4-1.9-1.1-2.4l-1.2-0.8c-0.4-0.2-0.7,0-0.9,0.6l-2.6,16.9L233.8,129.1z"/>
	<path class="st9" d="M233.7,129.2l-1.3-19.5c0-0.9-0.4-1.9-1.1-2.4l-0.2,0.1c-0.4-0.2-0.6,0.1-0.7,0.5l-2.4,16.8L233.7,129.2z"/>
	<path class="st6" d="M228.9,107c0-0.4,0.2-0.6,0.4-0.7c0.2-0.1,0.5-0.1,0.7,0l1.2,0.8c0.7,0.4,1.2,1.5,1.2,2.5l1.5,19.9l-7.7-5.5
		L228.9,107z M232.6,117.2c-0.4-2.2-1.1-5.7-1.6-6.1c-0.7-0.7-1.9-1.3-1.9-1.3l-0.3-0.2l-2.2,14.5l6.9,4.9L232.6,117.2z"/>
	<path class="st4" d="M278.9,137.8c0.6-0.8,1.2-0.8,1.8-0.5l8.4,4.2c0.5,0.4,0.8,1.2,1.1,2.4c0.4,2.6-0.3,5.7-1.6,7
		c-0.6,0.8-1.2,0.8-1.8,0.5l-8.1-5.9c-0.5-0.4-0.8-1.2-1.1-2.4C277.2,140.7,277.7,139.3,278.9,137.8z"/>
	<path class="st6" d="M278.7,137.5c0.6-0.6,1.2-1,1.9-0.6l8.6,4.3l0.3,0.2l0.1,0.1c0.5,0.4,0.9,1.4,1.1,2.4c0.4,2.6-0.4,5.9-1.7,7.4
		c-0.5,0.5-0.8,0.7-1.2,0.8c-0.2,0.1-0.4,0-0.6,0.1l-0.1-0.1l-8-6l-0.3-0.2c-0.5-0.4-0.9-1.4-1.1-2.4
		C277.1,140.6,277.5,139,278.7,137.5z M287,151.2c0.6,0.3,1.1,0,1.7-0.6c1.2-1.4,2-4.7,1.6-6.9c-0.2-1-0.5-1.7-1-2.2l-8.3-4.2
		l-0.1-0.1c-0.6-0.3-1.1,0-1.7,0.6c-0.6,0.8-1.1,1.5-1.3,2.5l7.9,5.2l-0.3,0.8l-7.9-5.2c0,0.4,0,0.7,0.1,1.2l7.7,5.1l0.2,1.6
		l0.5,1.5l0.7,0.5L287,151.2z"/>
	<path class="st6" d="M278.7,133.7c0,0,2.9-0.3,3.9,2.4c0.6,1.6,1.5,3,2.3,4c0.6,0.9,0.9,1.4,1,1.6c0.1,0.2-0.1,0.5-0.1,0.5
		c-0.1,0.1-0.2,0.1-0.3,0.2c-0.2,0.1-0.4,0-0.4,0l-4-2.7c-0.9-0.5-1.4-1.5-1.7-2.7l-0.7-3.7L278.7,133.7z"/>
	<path class="st6" d="M288.3,152.4l0.3-0.8c0.1-0.1,0.2-0.1,0.3-0.2c1.2-1.4,1.9-4.1,1.7-6.6l0.4-1.3l-1.4-1.8
		c-0.7-0.7-1.5-0.6-2.5,0.3c-1.3,1.5-2,4.8-1.6,7.3c0.2,1.2,0.6,2.2,1.3,2.7c0.1,0.1,0.4,0.2,0.6,0.3L288.3,152.4z M290.6,143.4
		l-0.2,1l-0.1,0.1c0.2,2.3-0.6,5-1.6,6.3c-0.1,0.1-0.2,0.3-0.3,0.2l-0.2,0.6l-0.8-0.2c-0.2,0.1-0.4,0-0.4-0.2c-0.6-0.3-0.9-1-1-2.2
		c-0.3-2.4,0.3-5.5,1.5-6.8c0.6-0.8,1.5-0.9,2-0.2L290.6,143.4z"/>
	<path class="st4" d="M287.3,149.9c0.4,2.2,1.5,3,2.7,1.6c1.2-1.4,1.9-4.1,1.5-6.5c-0.4-2.2-1.5-3-2.7-1.6
		C287.6,144.7,286.9,147.6,287.3,149.9z"/>
	<path class="st9" d="M287.6,148.9c0.3,2,1.4,2.5,2.4,1.4s1.6-3.7,1.2-5.6c-0.3-2-1.4-2.5-2.4-1.4
		C287.9,144.5,287.3,146.9,287.6,148.9z"/>
	<path class="st6" d="M289,152.4c0.4,0,0.8-0.3,1.2-0.7c1.2-1.4,1.9-4.5,1.5-6.7c-0.1-1.1-0.6-1.9-1.2-2.5c-0.6-0.3-1.2-0.3-1.8,0.5
		c-1.2,1.4-1.9,4.5-1.5,6.7c0.1,1.1,0.6,1.9,1.2,2.5C288.4,152.4,288.8,152.5,289,152.4z M289.7,143.1c0.2-0.1,0.4,0,0.5,0.1
		c0.4,0.2,0.8,0.9,0.9,2c0.4,2.2-0.4,4.9-1.4,6.2c-0.5,0.5-1.2,0.7-1.4,0.5c-0.4-0.2-0.8-1-0.9-2c-0.4-2.2,0.4-4.9,1.4-6.2
		C289.2,143.4,289.5,143.2,289.7,143.1z"/>
	<path class="st6" d="M289.3,150.6c0.2-0.1,0.5-0.1,0.6-0.4c0.6-0.8,1.1-2.5,0.9-3.9c-0.1-0.8-0.4-1.3-0.7-1.4
		c-0.3-0.2-0.7-0.2-1.1,0.3c-0.6,0.8-1.1,2.5-0.9,3.9c0.1,0.8,0.4,1.3,0.7,1.4C289,150.4,289.2,150.5,289.3,150.6z"/>
	<path class="st4" d="M283,101.8l1.8,1.1c0.6,0.3,1,1.5,0.9,2.3l-6.1,57.7l-17.3-12l13.7-27.6l5.9-21.1
		C282,101.8,282.5,101.5,283,101.8z"/>
	<path class="st9" d="M283.9,104.1l0.9,0.5c0.6,0.3,1,1.5,0.9,2.3l-6.2,57.9l-16.1-11.3l13.5-27.6l5.9-21.1
		C283,104.1,283.5,103.8,283.9,104.1z"/>
	<path class="st6" d="M275.9,123.3l5.9-21.1c0-0.4,0.3-0.6,0.5-0.8c0.3-0.2,0.6-0.1,0.7,0l1.8,1.1c0.6,0.5,1.2,1.5,1.1,2.7
		l-6.1,58.1L262,151.2L275.9,123.3z M284.6,114.4c-0.1-1.8-0.2-5.2-0.5-5.9c-0.7-1.1-2.5-2.2-3-2.7l-5,17.6L262.7,151l16.8,11.7
		L284.6,114.4z"/>
	<path class="st4" d="M251.6,179.5c0.6-0.8,1.2-0.8,1.8-0.5l8.4,4.2c0.5,0.4,0.8,1.2,1.1,2.4c0.4,2.6-0.3,5.7-1.6,7
		c-0.6,0.8-1.2,0.8-1.8,0.5l-8.1-5.9c-0.5-0.4-0.8-1.2-1.1-2.4C250,182.5,250.3,181,251.6,179.5z"/>
	<path class="st6" d="M251.5,179.3c0.6-0.6,1.2-1,1.9-0.6l8.6,4.3l0.3,0.2l0.1,0.1c0.4,0.2,0.8,1.2,0.9,2.3c0.4,2.6-0.4,5.9-1.7,7.4
		c-0.5,0.5-0.8,0.7-1.2,0.8c-0.2,0.1-0.4,0-0.6,0.1l-0.1-0.1l-8-6l-0.3-0.2c-0.5-0.4-0.9-1.4-1.1-2.4
		C249.8,182.5,250.1,181,251.5,179.3z M259.7,193.1c0.6,0.3,1.1,0,1.7-0.6c1.2-1.4,2-4.7,1.6-6.9c-0.2-1-0.5-1.7-1-2.2l-8.3-4.2
		l-0.1-0.1c-0.6-0.3-1.1,0-1.7,0.6c-0.6,0.8-1.1,1.5-1.3,2.5l7.9,5.2l-0.3,0.8l-7.9-5.2c0,0.4,0,0.7,0.1,1.1l7.7,5.1l0.2,1.6
		l0.5,1.5l0.7,0.5L259.7,193.1z"/>
	<path class="st6" d="M251.4,175.3c0,0,2.9-0.3,3.9,2.4c0.6,1.6,1.5,3,2.3,4c0.6,0.9,0.9,1.4,1,1.6c0.1,0.2-0.1,0.5-0.1,0.5
		c-0.1,0.1-0.2,0.1-0.3,0.2c-0.2,0.1-0.4,0-0.4,0l-3.9-2.4c-0.9-0.5-1.4-1.5-1.7-2.7l-0.7-3.7L251.4,175.3z"/>
	<path class="st6" d="M261.1,194l0.3-0.8c0.1-0.1,0.2-0.1,0.3-0.2c1.2-1.4,1.9-4.1,1.7-6.5l0.4-1.3l-1.4-1.8
		c-0.7-0.7-1.5-0.6-2.5,0.3c-1.3,1.5-2,4.8-1.6,7.3c0.2,1.2,0.6,2.2,1.3,2.7c0.1,0.1,0.4,0.2,0.6,0.3L261.1,194z M263.3,185.1
		l-0.2,1l-0.1,0.1c0.2,2.3-0.6,5-1.6,6.3c-0.1,0.1-0.2,0.3-0.3,0.2l-0.2,0.6l-0.8-0.2c-0.2,0.1-0.4,0-0.4-0.2c-0.6-0.3-0.9-1-1-2.2
		c-0.3-2.4,0.3-5.5,1.5-6.8c0.6-0.8,1.5-0.9,2-0.2L263.3,185.1z"/>
	<path class="st4" d="M260.1,191.7c0.4,2.2,1.5,3,2.7,1.6s1.9-4.1,1.5-6.5c-0.4-2.2-1.5-3-2.7-1.6
		C260.3,186.7,259.6,189.4,260.1,191.7z"/>
	<path class="st9" d="M260.4,190.7c0.3,2,1.4,2.5,2.4,1.4c1-1.1,1.6-3.7,1.2-5.6c-0.3-2-1.4-2.5-2.4-1.4
		C260.5,186.3,260,188.7,260.4,190.7z"/>
	<path class="st6" d="M261.8,194.2c0.4,0,0.8-0.3,1.2-0.7c1.2-1.4,1.9-4.5,1.5-6.7c-0.1-1.1-0.6-1.9-1.2-2.5
		c-0.6-0.3-1.2-0.3-1.8,0.5c-1.2,1.4-1.9,4.5-1.5,6.7c0.1,1.1,0.6,1.9,1.2,2.5C261.3,194.1,261.4,194.2,261.8,194.2z M262.6,184.8
		c0.2-0.1,0.4,0,0.5,0.1c0.4,0.2,0.8,1,0.9,2c0.4,2.2-0.4,4.9-1.4,6.2c-0.5,0.5-1.2,0.7-1.4,0.5c-0.4-0.2-0.8-1-0.9-2
		c-0.4-2.2,0.4-4.9,1.4-6.2C261.8,185.1,262.2,184.8,262.6,184.8z"/>
	<path class="st6" d="M262.1,192.4c0.2-0.1,0.5-0.1,0.6-0.4c0.6-0.8,1.1-2.5,0.9-3.9c-0.1-0.8-0.4-1.3-0.7-1.4
		c-0.3-0.2-0.7-0.2-1.1,0.3c-0.6,0.8-1.1,2.5-0.9,3.9c0.1,0.8,0.4,1.3,0.7,1.4C261.7,192.4,262,192.3,262.1,192.4z"/>
	<path class="st4" d="M294.2,165c5.8,6.2,11,19.5,10.8,22.4c-0.4,4-3.2,3.1-6.4,2.4c-6.7-1.3-28.4-14.7-42-23.7
		c-13.6-9-19.4-12.6-22.7-15.2c-5.8-4.9-15.1-23.7-17.5-29.7c-1.7-4.6,1.5-4.8,4.7-3.5c3.3,1.3,23.9,14.2,41.4,25.3
		C280.3,153.9,287,157.8,294.2,165z"/>
	<g>
		<path class="st9" d="M228.2,126.5c-0.2-1.2,0-2.4,0.5-3.3c7.5,4.3,19.5,12.1,33.5,21c17.6,11.1,24.6,15,31.5,22.3
			c0,0,2.6,3.1,1.2,4.5c-1.4,1.5-4.4,1.2-14.6-5.3c-10.3-6.5-43.8-28.6-43.8-28.6S229.7,132.5,228.2,126.5z"/>
	</g>
	<path class="st6" d="M293.7,170.8c0.6-0.1,1.2-0.3,1.6-0.8c0.4-0.4,0.5-0.9,0.5-1.4c0-1.7-1.6-3.6-1.8-3.5
		c-6.1-6.4-12.1-10.1-24.9-18.1c-2.1-1.3-4.3-2.6-6.7-4.3c-3.4-2.1-6.6-4.2-9.8-6.3c-9.5-6.1-18-11.5-23.8-14.7l-0.1-0.1l-0.1,0.1
		c-0.6,1-0.9,2.1-0.6,3.6c1.4,5.9,8.2,10.8,8.4,11.1c0.3,0.2,33.7,22.2,43.9,28.5C288,169.7,291.6,171,293.7,170.8z M228.9,122.4
		c5.6,3.3,14,8.7,23.6,14.7c3.1,2,6.3,4.1,9.8,6.3c2.3,1.6,4.6,3,6.7,4.3c12.8,8.1,18.6,11.7,24.7,18c0,0,1.4,1.9,1.4,3.2
		c0,0.4,0,0.7-0.4,0.9c-1.4,1.5-4.4,1.2-14.5-5.2c-10.2-6.3-43.6-28.3-44-28.7c0,0-6.6-4.8-8.1-10.6
		C228.3,124.1,228.3,123,228.9,122.4z"/>
	<path class="st6" d="M290.6,173c0.1-0.1,0.3-0.2,0.5-0.1c0.3,0.2,0.6,0.3,1,0.5c0.3,0.2,0.7,0.5,1.1,0.8l0.7,0.4
		c1.2,0.8,2.5,1.3,3.6,1.7c0.3,0.2,0.8,0.2,1.1,0.4c0.4,0,0.5,0.1,0.8-0.1l0.2-0.1c0.2-0.1,0.4-0.3,0.5-0.5c0.1-0.1,0.1-0.1,0-0.4
		l0.1-0.1c0.1-0.9-0.5-2.1-0.7-2.4l0.3-0.2c0.6,1.2,1.4,2.6,1.9,3.9l-0.1,0.1c0.1,0.4,0.3,1.1,0.3,1.4c-0.1,1.1-0.7,1.8-1.6,2.1
		l-0.2,0.1c-2,0.2-6.4-2.1-8.4-3.7c-0.7-0.5-1.1-1.1-1.3-2l-0.2-1C290.3,173.5,290.4,173.3,290.6,173z M290.9,174.8
		c0.3,0.9,0.8,1.3,1.2,1.5c2,1.4,6.7,4,8.4,3.7c0.5-0.1,1.2-0.5,1.4-1.7c0-0.4-0.1-0.8-0.2-1.2l0.1-0.1c-0.3-0.7-0.6-1.2-1-2.2
		c0.1,0.2,0,0.6,0.1,0.8l0.7,1.7l-0.1,0.1c-0.1,0.5-0.4,0.7-0.8,1l-0.1,0.1l-0.1-0.2c-0.1-0.4,0,0-0.2-0.3l-0.4-0.9
		c-0.2,0.1-0.5,0.3-0.8,0.1l0.7,1.7l-0.4,0c-1.1,0-2.9-1-3.9-1.5l-1.5-2.3c-0.7-0.4-1.2-0.8-1.8-1.1c-0.3-0.2-0.7-0.4-0.8-0.6
		c0,0,0,0-0.2,0.1c0,0-0.1,0.1,0,0.4L290.9,174.8z"/>
	<path class="st6" d="M216,117.5c0.7-1.5,3.2-1.1,5.2-0.3c2.7,1,16.5,9.6,41.4,25.3c2.3,1.6,4.6,3,6.7,4.3
		c12.8,8,18.8,11.7,24.9,18.1c5.9,6.1,11.2,19.4,10.9,22.6c-0.2,2.3-1.1,3.1-2.3,3.3c-1,0-2-0.1-3.2-0.4c-0.4,0-0.5-0.1-0.8-0.2
		c-6.5-1.4-26.7-13.6-41.9-23.8c-3.7-2.5-6.8-4.5-9.4-6.3c-7-4.6-10.8-6.9-13.1-9.1c-5.7-4.7-15.1-23.3-17.6-29.8
		C215.6,119.6,215.6,118.4,216,117.5z M294,165.3c-6.1-6.4-11.9-10-24.7-18c-2.1-1.3-4.3-2.6-6.7-4.3
		c-24.8-15.6-38.9-24.1-41.4-25.3c-1.4-0.6-2.8-0.9-3.6-0.8c1.8,3.9,4.5,9.4,7.4,14.3c1.5,0.4,3.2,1.1,3.3,1.9
		c1,4.6,3.4,8.1,3.5,8.1c0.7,0.7,1.1,1.3,1.8,1.9c3.3,2.9,8.6,5.6,22.3,14.5c13.5,8.9,31.7,21.3,42,25c3.6,1.4,5.3,1.1,5.9-0.6
		C301.8,177.4,298.2,169.7,294,165.3z"/>
	<path class="st4" d="M241.9,154.5c0.1-0.1,0-0.6-0.2-0.7c-1.1-0.8-4.8-3.1-6.5-4.3c-1.7-1.3-2.7-2.7-3.2-3.1
		c-0.2-0.3-0.3-0.2-0.5,0.1c-0.2,0.3-0.1,0.5,0.1,0.8c0.4,0.6,1.7,2,3.2,3.4c1.7,1.4,5.3,3.7,6.6,4.6
		C241.5,154.8,241.8,154.6,241.9,154.5z"/>
	<path class="st4" d="M230.6,145.1c0.2-0.3,0.1-0.5,0-0.7c-0.2-0.3-0.4-0.6-0.7-1.1c-0.1-0.2-0.4-0.4-0.5-0.1
		c-0.1,0.1-0.1,0.5,0,0.7c0.3,0.5,0.5,0.8,0.7,1.1C230.1,145.2,230.5,145.2,230.6,145.1z"/>
	<path class="st4" d="M273.5,170.6c-0.7-2-13.2-10-17.6-12.7c-0.8-0.6-1.9-0.4-2.6,0.1l-19.2,14.2l-25.8,14.3c-0.5,0.3-0.5,1.6,0,2
		l2.2,1.7c1.3,1,2.7,1.2,4,1l52.6-13.8c1.6-0.4,3.2-1.2,4.4-2.6C272.8,173.9,274.1,172.6,273.5,170.6z"/>
	<path class="st9" d="M271.9,171.8c-0.6-1.9-10.8-8.2-15-10.9c-0.8-0.6-1.9-0.4-2.6,0.1L235,174.5l-24.8,13c-0.5,0.3-0.4,0.7,0.2,1
		l1.9,1.6c1.3,1,2.7,1.2,4,1l50.3-13.2c1.6-0.4,2.3-0.4,3.8-1.7C271.2,174.9,272.5,173.7,271.9,171.8z"/>
	<path class="st6" d="M207.8,187.6c0-0.6,0.2-1,0.7-1.1l0.8-0.5l24.9-13.8l19.2-14.2c0.8-0.7,1.8-0.7,2.7,0l0.3,0.2
		c7.8,5,16.8,10.8,17.3,12.5c0.6,2.2-0.6,3.7-1.8,4.7c-1.3,1.2-2.8,2.2-4.6,2.6l-45.2,12l-7.3,2c-0.2,0.1-0.4,0-0.6,0.1
		c-1.2,0.1-2.5-0.2-3.8-1.1l-2.2-1.7C208,188.6,207.7,188.1,207.8,187.6z M267.2,177.2c1.6-0.4,3.1-1.3,4.3-2.5
		c1.3-1.2,2.1-2.4,1.6-4.1c-0.5-1.7-13-9.7-17-12.4l-0.3-0.2c-0.9-0.5-1.6-0.5-2.5,0l-19.2,14.2l-20.8,11.6c0.8,0.6,3.4,2.7,4.9,3.7
		c1.4,0.9,6.3,0.4,8.8,0L267.2,177.2z"/>
	<path class="st4" d="M227.5,134.2c0.6-0.1,0.7-0.9,0.4-1.6c-1.7-2.7-6.9-6.7-7.4-7c-0.5-0.4-2.6,0.8-2.6,0.8l-12.6,7.5
		c-0.3,0.2-0.3,0.9,0,1.3l1.6,1.2c0.7,0.5,1.5,0.8,2.3,0.7L227.5,134.2z"/>
	<path class="st9" d="M226.3,134.3c0.6-0.1,1.1-0.5,1.1-0.5c-1.8-2.6-6.2-6-7-6.4c-0.6-0.3-2.6,0.8-2.6,0.8l-10.8,6.3
		c-0.3,0.2-1,0-0.5,0.5l1.6,1.2c0.6,0.5,1,0.5,1.9,0.4L226.3,134.3z"/>
	<path class="st6" d="M204.8,134.8c0.1-0.1-0.1-0.2-0.1-0.2c-0.1-0.2,0.1-0.5,0.3-0.8l0.1-0.1l12.6-7.5c0.3-0.2,2.1-1.3,2.7-1
		c0.5,0.4,5.8,4.5,7.5,7.2c0.2,0.3,0.3,0.9,0.2,1.2c0,0.4-0.4,0.7-0.6,0.6l-18.2,2.9c-0.8,0.1-1.6-0.1-2.3-0.7l-1.6-1.2
		C205,135.3,205,135.1,204.8,134.8z M227.3,133.9c0.2-0.1,0.3-0.2,0.4-0.3s0.1-0.5-0.1-0.8c-1.7-2.7-6.8-6.7-7.2-6.9
		c-0.3-0.2-1.6,0.4-2.5,0.9l-9.9,5.8c0.8,0.6,2.2,1.7,3,2.1c1.1,0.8,3.6,1,4.6,0.9L227.3,133.9z"/>
	<path class="st4" d="M231.6,126.8c0,0-10.6-29.9-11.4-31.1c-0.6-0.9-3.3-2.5-4.6-3.5c-0.4-0.2-0.7,0.2-0.6,0.8l5,26.4
		c0.2,1,0.7,1.8,1.2,2.1l9.5,6.3C230.8,128.1,231.9,128.8,231.6,126.8z"/>
	<path class="st6" d="M214.7,92.2l0.1-0.1c0.1-0.1,0.4,0,0.5,0.1c1.5,1,4,2.6,4.6,3.5c0.8,1.2,10.5,28.2,11.4,31.1
		c0.1,0.2,0,0.4,0.1,0.4c0.1,0.4,0,0.7-0.2,1c-0.1,0.1-0.2,0.1-0.3,0.2c-0.2,0.1-0.4-0.2-0.5-0.1l-0.5-0.4l-0.3-0.2l-8.9-5.7
		c-0.6-0.5-1.1-1.3-1.5-2.4l-4.9-26.2C214.6,92.8,214.6,92.5,214.7,92.2z M220,119.5c0.3,0.9,0.6,1.6,1.2,2.1l8.9,5.7
		c-0.1-0.2,0.1-0.9-0.2-1.6c-0.5-1.4-8.6-16.4-13.4-24.8L220,119.5z"/>
</g>
</svg>
