<svg version="1.1" xmlns="http://www.w3.org/2000/svg" xmlns:xlink="http://www.w3.org/1999/xlink" x="0px" y="0px"
	 viewBox="0 0 415 450" width="425" height="450" style="enable-background:new 0 0 415 450;" xml:space="preserve">
<style type="text/css">
	.st0{fill:#93118B;}
	.st1{fill:#620E66;}
	.st2{fill:url(#SVGID_1_);}
	.st3{fill:#16110D;}
	.st4{fill:#98509B;}
	.st5{fill:#FEDDFF;}
	.st6{clip-path:url(#SVGID_3_);}
	.st7{fill:#FEDDFF;stroke:#000000;stroke-miterlimit:10;}
	.st8{fill:#FEDDFF;stroke:#000000;stroke-width:0.75;stroke-miterlimit:10;}
</style>
<g id="Слой_1">
	<g>
		<path class="st0" d="M94.6,195.1l-1.9,226C53.4,420.1,22,387.1,22,346.1L23,169.6L94.6,195.1z"/>
		<path class="st1" d="M322.3,195.9l0.3,226c39.3-0.8,70.7-33.8,70.7-74.5V171L322.3,195.9z"/>
		
			<linearGradient id="SVGID_1_" gradientUnits="userSpaceOnUse" x1="415.1448" y1="191.9743" x2="36.3698" y2="276.1704" gradientTransform="matrix(1 0 0 -1 0 452)">
			<stop  offset="0" style="stop-color:#620E66"/>
			<stop  offset="1" style="stop-color:#92108A"/>
		</linearGradient>
		<path class="st2" d="M182.6,423.4h54.7c8.4,0,15.2-6.9,15.2-15.2V162.4c0-6.9,4.3-12.7,10.6-14.7l124.6-38.5
			c8.4-2.5,12.7-11.6,9.8-19.9l-16-44.9c-2.7-7.8-10.6-11.6-18.4-9.4L213.5,75.7c-2.4,0.8-5.4,0.8-7.9,0L55.5,35
			c-7.9-2.2-15.4,2.2-18.4,9.4l-16,44.9c-2.7,8.3,1.4,17.5,9.8,19.9l124.6,38.5c6.2,1.9,10.6,8,10.6,14.7v245.7
			C167.4,416.5,174.5,423.4,182.6,423.4z"/>
		<path class="st3" d="M229,179.6l17.2,8v-12.4h3.1v13.9l27.3,12.8v-12.4h3.1v13.7l8.2,3.8c4.4,2.1,8.5,2.2,11.1,0.3l1.4-1
			c0.7-0.4,1.7-0.4,2.2,0.1c0.5,0.5,0.5,1.4-0.2,1.8l-1.4,1c-1.9,1.2-4.1,1.9-6.6,1.9c-2.6,0-5.3-0.7-8.2-1.9l-58.8-27.5
			c-0.7-0.4-1-1.1-0.5-1.8C227.3,179.5,228.4,179.2,229,179.6z"/>
		<path class="st3" d="M250.7,170l17.2,8v-12.4h3.1v13.9l27.3,12.8v-12.4h3.1v13.7l8.2,3.8c4.4,2.1,8.5,2.2,11.1,0.3l1.4-1
			c0.7-0.4,1.7-0.4,2.2,0.1c0.5,0.6,0.5,1.4-0.2,1.8l-1.4,1c-1.9,1.2-4.1,1.9-6.6,1.9c-2.6,0-5.3-0.7-8.2-1.9L249,172.2
			c-0.7-0.4-1-1.1-0.5-1.8C249,169.9,250,169.7,250.7,170z"/>
		<path class="st4" d="M260.4,139.9c8.9-4.4,22.8,1.6,22.8,1.6l10.6,4.9c0.2,0.1,0.5,0.3,0.7,0.3c1.4,0.6,7.3,3.4,11.8,8.7
			c0,0,16.4,18.4,15.7,26c0,0.4-0.7,2.9-1.2,3.6c-1.4,2.3-4.3,5.9-10.4,8.9c-10.2,4.9-18.1,3.6-18.1,3.6s-32-44.9-36.5-48.5
			c-4.3-3.4-6.8-5.9,1-9.9C257.2,138.9,260.2,140,260.4,139.9z"/>
		<path class="st5" d="M259.2,142.4c8.7-4.3,22.8,1.8,22.8,1.8l10.6,4.9c0.2,0.1,0.5,0.1,0.7,0.3c1.2,0.6,7.3,3.3,11.9,8.8
			c0,0,16.4,18.4,15.7,26c0,0.4-0.7,2.9-1.2,3.6c-1.4,2.3-7,5.1-13.3,8.2c-0.2,0.1,0.2-0.1,0,0c-8.2,3.8-16.5,2.6-21.3-4
			c-9.5-13.2-27.3-37.7-30.5-40.3c-4.3-3.4-3.7-5.1,4.3-8.9C259.2,142.4,259,142.5,259.2,142.4z"/>
		<path class="st3" d="M295.3,198.3c3.2,0,8.9-0.5,15.5-3.8c6.3-3,9.4-6.7,10.7-9.2c0.5-0.7,1.2-3.3,1.2-3.7
			c0.7-7.6-15.2-25.4-15.8-26.3c-4.4-5.4-10.2-8.1-11.9-8.8c-0.2-0.1-0.5-0.3-0.7-0.3l-10.6-4.9c-0.7-0.3-14.5-6-23.3-1.8
			c-0.3,0-1-0.3-1.4-0.4c-1.4-0.4-1.9-0.5-2.2-0.4c-3.4,1.6-5.1,3.3-5.5,4.8c-0.3,1.9,1.7,3.7,4.3,5.8c4.3,3.4,36.1,48.1,36.5,48.5
			l0.2,0.1h0.2C292.4,198.2,293.5,198.3,295.3,198.3z M268.1,138.8c7.3,0,14.8,3.2,15,3.3l10.6,4.9c0.3,0.1,0.5,0.3,0.9,0.4
			c1.2,0.5,7.2,3.3,11.6,8.5c0,0.1,16.2,18.3,15.5,25.6c0,0.3-0.7,2.7-1.2,3.3c-1.4,2.5-4.3,5.9-10.2,8.8c-8.9,4.4-16,3.7-17.4,3.6
			c-2.6-3.6-32.2-45.1-36.5-48.5c-2.4-1.9-4.1-3.4-3.9-4.9c0.2-1.2,1.7-2.6,4.8-4.1c0.3,0,0.9,0.3,1.4,0.4c1.4,0.4,1.9,0.5,2.2,0.4
			C263,139.2,265.5,138.8,268.1,138.8z"/>
		<path class="st3" d="M243.4,142.8c9.5-5.8,25.6-4.9,26.4-4.9v0.4v0.4c0,0-6.5-0.3-12.4,3c-2,1.2-3.1,2.5-3.1,3.7
			c0.2,1.6,1.9,3.4,5.1,4.9l12.8,6c0.2,0.1,0.5,0.3,0.7,0.3c1.7,0.7,7.5,3.6,11.9,8.8c0.7,0.8,16.5,18.7,15.8,26.3
			c-0.2,1.5-0.5,2.7-1.2,3.7c5.3,0.3,11.9-2.2,11.9-2.2l-8.2,3.7l-7,0.7c-0.9,0.3-1.7,0.3-2.7,0.3c-3.4,0-7.8-1.2-13.6-3.6
			c-8.9-3.7-12.6-5.6-17-8c-1.7-0.8-3.2-1.8-5.3-2.7c-0.2,0-23.5-12.6-24.2-20.8l-0.2-1.4C232.6,154.7,232.1,149.5,243.4,142.8z"/>
		<path class="st4" d="M204.8,113.2l-6.5-4.3c0-2.6,2.9-3.7,5.1-3c0.9,0.3,1.5,0.5,2.2,1l37.5,22.8c3.9,2.7,8.4,4.8,13.1,6.3
			c2.4,0.7,5.5,1.5,9,2.3c0,0-11.1-0.5-20.6,10.7C244.4,149.4,204.8,113.2,204.8,113.2z"/>
		<path class="st4" d="M306.4,155.6c0,0,9,10.2,13.5,18.6c0,0.1,1.2,6.2-4.8,9.6c-6,3.4-10.1,5.9-15.5,5.4
			c-5.5-0.7-25.6-9.6-27.8-13.9c-2.4-4.4-6.1-14-5.1-17c1-3,20.1-13.1,28-11.1C296,147.6,302,150.3,306.4,155.6z"/>
		<path class="st3" d="M301.3,189.6c4.4,0,8.2-2.1,13.1-4.9l1-0.5c6.3-3.6,5.1-9.8,4.9-10c-4.3-8.2-13.3-18.4-13.5-18.7
			c-4.4-5.4-10.2-8.1-11.9-8.8c-4.9-1.2-13.1,2.1-16.5,3.4c-5.5,2.3-11.6,6-12.3,8c-1.2,3.2,2.7,12.8,5.1,17.3
			c2.6,4.7,23,13.6,28.3,14.2C300.1,189.5,300.8,189.6,301.3,189.6z M319.4,174.2c0,0,1,5.8-4.6,9.1l-1,0.5c-5.3,3-9,5.2-14,4.7
			c-5.6-0.7-25.2-9.5-27.4-13.6c-2.6-4.9-6-14-4.9-16.8c0.5-1.2,5.3-4.5,11.8-7.4c6.6-2.9,12.3-4.3,15.5-3.4c1,0.4,7,3.3,11.4,8.5
			C306.1,156,314.9,166.1,319.4,174.2z"/>
		<path class="st4" d="M266.7,158c0.7-1.8,7.3-5.9,14.3-8.7c-5.6,2.5-10.6,5.6-11.1,7.1c-1,2.7,2.6,11.7,4.6,15.8
			c2.2,4.1,20.8,12.4,25.7,12.9c4.9,0.6,8.7-1.8,14.3-4.9c3.7-2.2,4.4-5.5,4.4-7.4c0.2,0.4,0.5,0.8,0.7,1.1c0,0.1,1.2,6.2-4.8,9.6
			c-6,3.4-10.1,5.9-15.5,5.4c-5.5-0.7-25.6-9.6-27.8-13.9C269.4,170.7,265.7,161.1,266.7,158z"/>
		<path class="st3" d="M301.3,189.6c4.4,0,8.2-2.1,13.1-4.9l1-0.5c6.3-3.6,5.1-9.8,4.9-10c-0.2-0.6-0.5-1-0.7-1.4l-1-1.9v2.1
			c0,1.8-0.7,4.9-4.3,7l-1,0.6c-4.9,2.7-8.4,4.8-13,4.3c-5.1-0.5-23.3-8.8-25.4-12.6c-2.4-4.5-5.6-13.1-4.6-15.5
			c0.3-1.2,4.9-4.3,10.9-6.9l-0.5-0.8c-7.2,2.7-14,7-14.7,8.9c-1.2,3.2,2.7,12.8,5.1,17.3c2.6,4.7,23,13.6,28.3,14.2
			C300.1,189.5,300.8,189.6,301.3,189.6z M319.4,175.5c0,1.9-0.5,5.5-4.6,7.8l-1,0.5c-5.3,3-9,5.2-14,4.7
			c-5.6-0.7-25.2-9.5-27.4-13.6c-2.6-4.9-6-14-4.9-16.8c0.2-0.5,1-1.2,2.2-2.2c0,0.1-0.2,0.3-0.2,0.4c-1.2,3.2,2.9,12.6,4.8,16.1
			c2.4,4.4,21.3,12.6,26.2,13.2c4.9,0.5,8.7-1.5,13.8-4.4l1-0.5C317.7,179.2,318.9,177.3,319.4,175.5z"/>
		<path class="st3" d="M300.4,189.6l-0.2-0.7c-2.4-8.5-14.8-22.7-15.3-23.2c-4.4-5.4-10.2-8.1-11.9-8.8c-0.2-0.1-0.5-0.3-0.7-0.3
			l-3.1-1.4l-0.3,0.3c-1.5,1.1-2.4,1.9-2.6,2.6c-1.2,3.2,2.7,12.8,5.1,17.3c2.4,4.5,22.8,13.5,28.1,14.2H300.4z M269.3,156.4
			l2.2,1.1c0.3,0.1,0.5,0.3,0.9,0.4c1.2,0.6,7.2,3.3,11.6,8.5c0.2,0.1,12.1,13.7,15,22.1c-6.5-1.4-24.4-9.6-26.4-13.5
			c-2.6-4.9-6-14-4.9-16.8C267.4,158,267.7,157.5,269.3,156.4z"/>
		<path class="st4" d="M276.6,193.2v-1.1c1,0.4,2,0.8,3.1,1.4v1.1C278.5,194,277.6,193.6,276.6,193.2z"/>
		<path class="st4" d="M246.3,175.8c1,0.7,2,1.4,3.1,2.1v1.2c-1-0.7-2-1.4-3.1-2.1V175.8z"/>
		<path class="st5" d="M244.7,148.8c-0.5,0.5-39.9-35.6-39.9-35.6l-5.6-3.8c1-1.1,2.9-1.5,4.4-1.1c0.9,0.3,1.5,0.6,2.2,1l37.5,22.8
			c3.9,2.7,8.3,4.8,13.1,6.3c0.9,0.3,1.7,0.5,2.7,0.8C255.1,140.3,249.7,142.9,244.7,148.8z"/>
		<path class="st3" d="M244.7,149.4h0.3l0.2-0.1c9-11,19.9-10.6,20.1-10.6h0.3l0.5-0.8l-0.7-0.1c-3.2-0.7-6.3-1.5-8.9-2.3
			c-4.8-1.4-9.2-3.6-13-6.2l-37.5-22.8c-0.7-0.4-1.5-0.8-2.4-1.1c-1.4-0.4-2.9-0.3-4.1,0.4c-1.2,0.7-1.7,1.8-1.7,3v0.3l6.6,4.4
			C242.7,148.5,244.4,149.4,244.7,149.4z M262.1,137.8c-4.1,0.7-11.1,2.7-17.6,10.3c-3.4-2.5-24.9-22.1-39.4-35.3l-6.1-4.1
			c0-1.1,0.7-1.8,1.4-2.1c0.9-0.5,2-0.5,3.1-0.3c0.7,0.1,1.4,0.5,2,1l37.5,22.8c3.9,2.7,8.5,4.9,13.3,6.3
			C258,136.9,260.1,137.4,262.1,137.8z"/>
		<path class="st3" d="M197.9,108.6l0.3-0.1l0.3-0.1l39.4,24.1c1.5,1.1,2.7,2.1,3.9,3c1.4,1.2,2.6,2.6,4.1,5.2
			c0.3,0.7,0.7,1.5,0.9,2.3c0.3,1.6,0.2,3.2-0.5,4.7c-0.9,1.8-2.2,3.2-4.3,4.1c-4.8,2.3-8,3.6-8,3.6l-0.9,0.3v-0.7
			c0-0.1-1.5-14.2-13.6-23.8c-4.1-3.3-7.8-5.2-11.1-6.9c-2.4-1.1-4.3-2.2-6-3.4c-2.9-2.2-4.6-5.4-4.6-8.7v-3.3V108.6z"/>
		<path class="st4" d="M266.7,142.9c-1.9,0.8-1.9,2.3,0,3.2c1.9,0.8,4.9,0.8,6.6,0c1.9-0.8,1.9-2.3,0-3.2
			C271.6,142.1,268.6,142.1,266.7,142.9z"/>
		<path class="st3" d="M270.1,147.2c1.4,0,2.6-0.3,3.6-0.7c1-0.6,1.7-1.2,1.7-1.9c0-0.8-0.7-1.5-1.7-1.9c-2-1-5.3-1-7.3,0
			c-1,0.5-1.7,1.2-1.7,1.9c0,0.8,0.7,1.5,1.7,1.9C267.6,147,268.7,147.2,270.1,147.2z M270.1,142.8c1.2,0,2.2,0.1,3.1,0.6
			c0.7,0.3,1,0.7,1,1.1c0,0.4-0.3,0.8-1,1.1c-1.7,0.8-4.4,0.8-6.1,0c-0.7-0.3-1-0.7-1-1.1c0-0.4,0.3-0.8,1-1.1
			C267.9,142.9,268.9,142.8,270.1,142.8z"/>
		<path class="st3" d="M270.3,136.6c1,0,1.9,0.7,1.9,1.5v5.2c0,0.8-0.9,1.5-1.9,1.5c-1,0-1.9-0.7-1.9-1.5v-5.2
			C268.2,137.3,269.3,136.6,270.3,136.6z"/>
		<path class="st4" d="M266.7,136.3c-1.9,0.8-1.9,2.3,0,3.2c1.9,0.8,4.9,0.8,6.6,0c1.9-0.8,1.9-2.3,0-3.2
			C271.6,135.4,268.6,135.4,266.7,136.3z"/>
		<path class="st3" d="M270.1,140.6c1.4,0,2.6-0.3,3.6-0.7c1-0.5,1.7-1.2,1.7-1.9c0-0.8-0.7-1.5-1.7-1.9c-2-1-5.3-1-7.3,0
			c-1,0.5-1.7,1.2-1.7,1.9c0,0.8,0.7,1.5,1.7,1.9C267.4,140.3,268.7,140.6,270.1,140.6z M270.1,136c1.2,0,2.2,0.1,3.1,0.5
			c0.7,0.3,1,0.7,1,1.1c0,0.4-0.3,0.8-1,1.1c-1.7,0.8-4.4,0.8-6.1,0c-0.7-0.3-1-0.7-1-1.1c0-0.4,0.3-0.8,1-1.1
			C267.9,136.3,268.9,136,270.1,136z"/>
		<path class="st4" d="M265.7,131.4c-2.4,1.1-2.4,2.9,0,4.1c2.4,1.1,6.3,1.1,8.7,0c2.4-1.1,2.4-2.9,0-4.1
			C272,130.3,268.1,130.3,265.7,131.4z"/>
		<path class="st5" d="M265.7,133.2c-2.4,1.1-2.4,2.9,0,4.1c2.4,1.1,6.3,1.1,8.7,0c2.4-1.1,2.4-2.9,0-4.1
			C272,132.1,268.1,132.1,265.7,133.2z"/>
		<path class="st3" d="M270.1,136.7c1.7,0,3.4-0.3,4.6-1c1.4-0.7,2-1.5,2-2.5s-0.7-1.8-2-2.5c-2.6-1.2-6.6-1.2-9.4,0
			c-1.4,0.7-2,1.5-2,2.5s0.7,1.8,2,2.5S268.4,136.7,270.1,136.7z M270.1,131c1.5,0,2.9,0.3,4.1,0.8c1,0.4,1.5,1.1,1.5,1.6
			s-0.5,1.2-1.5,1.6c-2.2,1.1-6,1.1-8.2,0c-1-0.4-1.5-1.1-1.5-1.6s0.5-1.2,1.5-1.6C267.2,131.2,268.6,131,270.1,131z"/>
		<path class="st4" d="M266.9,128.2c-1.9,0.8-1.9,2.2,0,3.2c1.9,0.8,4.8,0.8,6.6,0c1.9-0.8,1.9-2.2,0-3.2
			C271.6,127.2,268.6,127.2,266.9,128.2z"/>
		<path class="st3" d="M270.1,132.3c1.4,0,2.6-0.3,3.6-0.7c1-0.6,1.7-1.2,1.7-1.9c0-0.8-0.5-1.5-1.7-1.9c-2-1-5.1-1-7.2,0
			c-1,0.5-1.7,1.2-1.7,1.9c0,0.8,0.5,1.5,1.7,1.9C267.6,132.2,268.7,132.3,270.1,132.3z M270.1,127.9c1,0,2.2,0.1,3.1,0.6
			c0.7,0.3,1,0.7,1,1.1c0,0.4-0.3,0.8-1,1.1c-1.7,0.8-4.4,0.8-6,0c-0.7-0.3-1-0.7-1-1.1c0-0.4,0.3-0.8,1-1.1
			C267.9,128.2,269.1,127.9,270.1,127.9z"/>
		<path class="st3" d="M268.4,123.8c0.7-0.1,1,0.4,1.4,0.8c0.2,0.1,0.3,0.4,0.5,0.4c0.2,0,0.3-0.3,0.5-0.5c0.3-0.4,0.9-0.8,1.4-0.7
			c1.9,0.4,3.1,2.9,3.1,3.7c0,1.4-2.2,2.5-5.1,2.5s-5.1-1.1-5.1-2.5C265.2,126.6,266.5,124.2,268.4,123.8z"/>
		<path class="st5" d="M267.2,125.5c0,0.8,1.4,1.4,3.1,1.4c1.7,0,3.1-0.7,3.1-1.4c0-0.8-1.4-1.4-3.1-1.4
			C268.6,123.9,267.2,124.6,267.2,125.5z"/>
		<path class="st3" d="M270.3,127.2c2,0,3.7-0.8,3.7-1.9s-1.5-1.9-3.7-1.9c-2,0-3.7,0.8-3.7,1.9S268.2,127.2,270.3,127.2z
			 M270.3,124.4c1.5,0,2.6,0.6,2.6,1c0,0.4-1,1-2.6,1c-1.5,0-2.6-0.5-2.6-1C267.7,124.9,268.7,124.4,270.3,124.4z"/>
		<path class="st5" d="M310.2,170.1c1.2-0.6,1.5-1.6,0.9-2.6c-2.4-3.3-7.7-10.7-10.7-13.2c-2.4-1.9-4.6-3.4-6.3-4.3
			c-1.2-0.6-2.7-0.3-3.4,0.8c-0.5,0.8-0.2,1.9,0.9,2.3c1.4,0.7,3.4,1.9,5.5,3.7c2.4,2.1,7.3,8.7,10.1,12.5
			C307.8,170.4,309.1,170.7,310.2,170.1z"/>
		<path class="st5" d="M313.6,175.2c1.2-0.5,1.5-1.6,1-2.6c-0.7-1-2-1.2-3.1-0.7c-1.2,0.6-1.5,1.6-0.9,2.6
			C311,175.3,312.4,175.6,313.6,175.2z"/>
		<path class="st3" d="M270.3,134.9c5.1,0,10.2-1,14-2.7c3.9-1.8,6-4.3,6-6.9s-2-5.1-6-6.9c-7.7-3.6-20.3-3.6-28.1,0
			c-3.9,1.8-6,4.3-6,6.9s2,5.1,6,6.9C260.1,134,265.2,134.9,270.3,134.9z M270.3,116.8c4.9,0,9.7,0.8,13.5,2.6
			c3.4,1.6,5.5,3.7,5.5,6c0,2.2-1.9,4.4-5.5,6c-7.3,3.4-19.4,3.4-26.9,0c-3.4-1.7-5.5-3.7-5.5-6c0-2.2,1.9-4.4,5.5-6
			C260.6,117.6,265.5,116.8,270.3,116.8z"/>
		<path class="st3" d="M270.3,130.1c2.4,0,4.9-0.4,6.8-1.4c1.9-1,2.9-2.1,2.9-3.4s-1-2.5-2.9-3.4c-3.7-1.8-9.7-1.8-13.5,0
			c-1.9,1-2.9,2.1-2.9,3.4s1,2.5,2.9,3.4C265.3,129.7,267.9,130.1,270.3,130.1z M270.3,121.6c2.2,0,4.4,0.4,6.1,1.2
			c1.5,0.7,2.4,1.6,2.4,2.6c0,1-0.9,1.9-2.4,2.6c-3.4,1.6-9,1.6-12.4,0c-1.5-0.7-2.4-1.6-2.4-2.6c0-1,0.9-1.9,2.4-2.6
			C265.9,122,268.1,121.6,270.3,121.6z"/>
		<path class="st3" d="M270.3,155.7c16.5,0,33.1-2.9,45.7-8.8c12.3-5.8,19.1-13.5,19.1-21.7s-6.8-15.8-19.1-21.6
			c-25.2-11.7-66.1-11.7-91.3,0c-12.3,5.8-19.1,13.5-19.1,21.6c0,8.2,6.8,15.8,19.1,21.6C237.2,152.8,253.8,155.7,270.3,155.7z
			 M270.3,95.8c16.4,0,32.7,2.9,45.2,8.7c11.9,5.6,18.6,12.9,18.6,20.8s-6.6,15.3-18.6,20.8c-24.9,11.7-65.3,11.7-90.2,0
			c-11.9-5.6-18.6-12.9-18.6-20.8s6.6-15.3,18.6-20.8C237.6,98.7,253.9,95.8,270.3,95.8z"/>
		<path class="st3" d="M214.6,131.4c1.7,0,3.2-0.3,4.6-1c3.2-1.5,5.1-4.7,5.1-8.9c0-8.7-7.5-19.1-16.7-23.4c-4.6-2.2-8.9-2.5-12.1-1
			c-3.2,1.5-5.1,4.7-5.1,8.9c0,8.7,7.5,19.1,16.7,23.4C209.6,130.8,212.2,131.4,214.6,131.4z M199.9,97.1c2.2,0,4.6,0.5,7,1.8
			c8.9,4.1,16,14.3,16,22.5c0,3.8-1.5,6.9-4.4,8.1c-2.9,1.4-6.8,1-11.1-1c-8.9-4.1-16-14.3-16-22.5c0-3.8,1.5-6.9,4.4-8.1
			C197,97.4,198.4,97.1,199.9,97.1z"/>
		<path class="st3" d="M318.2,122.6c-1.4-4.8-6-9.3-13.6-12.9c-3.2-1.5-6.8-2.7-10.7-3.7l1-0.7c3.7,1,7.2,2.2,10.2,3.7
			c8,3.7,12.8,8.5,14.1,13.6C318.9,122.6,318.5,122.6,318.2,122.6z"/>
		<path class="st3" d="M326.7,121.7c-0.3,0-0.9,0.1-1.2,0.1c-1.5-5.6-7-10.7-15.7-14.8c-3.6-1.6-7.5-3-11.8-4.1l1-0.7
			c4.1,1.1,7.8,2.5,11.4,4.1C319.5,110.5,325.2,116,326.7,121.7z"/>
		<path class="st4" d="M250.5,145.5c0.9-1,3.1-2.9,4.6-3.7l-0.9,1c-0.2,0.3-0.3,0.6-0.5,0.8l-0.5,1c-0.5,0.6-1.2,1-1.7,1.5
			c-3.2,3.4-4.6,8.1-3.6,12.6l2.2,10.6c1.2,4,2.6,6.9,6,8.8c0.9,0.6,2,1.1,3.2,1.8c2.9,1.5,6,3.2,9.2,4.5c1,0.4,2.2,0.5,3.2,0.3
			c1.4-0.4,2.2-1.5,2.2-2.6v-4l1.2,0.8v2.9c0,1.4-0.9,2.7-2.2,3.4c-0.9,0.4-1.7,0.6-2.6,0.6s-1.5-0.1-2.4-0.6
			c-3.2-1.5-6.5-3-9.4-4.7c-1.2-0.7-2.2-1.2-3.2-1.8c-3.8-2.1-5.3-5.2-6.5-9.3l-2.2-10.6C245.7,154,247.1,149.2,250.5,145.5z"/>
		<path class="st4" d="M244.5,148c1-1,2-2.2,2.2-2.3c0,0.3-0.2,1.2-0.5,1.9c-0.9,1.8-2.6,3.3-4.4,4.3c-4.1,1.9-8,3.7-8.9,4v-1.1
			c1.2-0.6,4.8-2.2,8.2-3.7C242.7,150.3,243.9,149.2,244.5,148z"/>
		<path class="st3" d="M197.7,100.4c2-1,4.8-1,7.5-0.1l0.2,1.1c-1.4-0.5-2.7-0.7-3.9-0.7c-1.2,0-2.2,0.3-3.1,0.7
			c-2,1-3.2,2.9-3.6,5.5l-1.2-0.8C193.9,103.5,195.3,101.4,197.7,100.4z"/>
		<path class="st4" d="M205.4,116.9c0.3,0,0.7,0,0.9-0.1c0.7-0.3,1-0.8,1-1.6c0-1.4-1.2-3-2.7-3.7c-0.9-0.4-1.7-0.4-2.2-0.1
			c-0.7,0.3-1,0.8-1,1.6c0,1.4,1.2,3,2.7,3.7C204.5,116.8,205,116.9,205.4,116.9z M203.3,111.9c0.2,0,0.5,0.1,0.9,0.1
			c1.2,0.6,2,1.9,2,3c0,0.4-0.2,0.7-0.3,0.8c-0.3,0.1-0.7,0.1-1.2-0.1c-1.2-0.6-2-1.9-2-3c0-0.4,0.2-0.7,0.3-0.8
			C203,111.9,203.1,111.9,203.3,111.9z"/>
		<g>
			<defs>
				
					<rect id="SVGID_2_" x="166.7" y="198.7" transform="matrix(1 -9.686391e-03 9.686391e-03 1 -3.0628 2.6347)" width="207.5" height="237.7"/>
			</defs>
			<clipPath id="SVGID_3_">
				<use xlink:href="#SVGID_2_"  style="overflow:visible;"/>
			</clipPath>
			<g class="st6">
				<path class="st4" d="M145.9,299.7l5,2l16.3-10.8L300,374.6l51.6,20.2c0,0,20.9,19.6,17.7,22.6c-3.2,3-31.3,14.8-31.3,14.8
					c-9.4,4.1-27.2,4.3-42.1-0.1c-10.6-3-20.9-7.8-30.6-13.7l-137.6-86.8c-1.4-0.9-2.4-2.5-2.7-4.2l-6.5-31.3L145.9,299.7z"/>
				<path class="st4" d="M150.8,301.3l10.1-6.6l3.2,1.2l5.7-3.8l130.1,82l51.6,20.2c0,0,21.3,19.8,18,22.8
					c-1.9,1.7-12.6,6.8-21,10.5c-9.8,2.4-26-0.5-39.4-4.3c-10.6-3-20.9-7.8-30.6-13.7l-157.2-99.4l-2.9-14.2l27.3,3.2L150.8,301.3z"
					/>
				<path class="st5" d="M315.3,434.7c0,0,16.4-1.3,24.6-8.7c1.4-1.3,2.5-2.4,3.3-3.5c0.6,0.1,1.3,0.1,1.9,0.3
					c5,0.7,12.1,0,16.2-0.5c-9.1,4.3-22,9.4-22,9.4c-5.8,2.6-15.2,3.7-24.8,3.2L315.3,434.7z"/>
				<path class="st3" d="M118.1,296l3.1,14.6l3.6,17c0.3,1.9,1.3,3.6,2.8,4.5l137.6,86.8c9.6,6.1,20,10.7,30.5,13.7
					c7.5,2.1,16,3.3,23.8,3.2c7.2-0.1,13.7-1.1,18.3-3.1l0.1,0c1.1-0.5,25.3-10.7,30.6-14.3c0.4-0.3,0.8-0.6,1.1-0.8
					c0.3-0.3,0.4-0.6,0.4-1.3c0-5-17.7-21.5-18.5-22.1l-0.1,0L299.8,374l-130.1-82.2l-0.3,0.2l-2.4-1.5l-5.9,4l-0.3-0.2l-10.1,6.6
					l-4.9-1.8L118.1,296z M168.8,292.4l-4.7,3.2l-2.1-0.8l5.1-3.3L168.8,292.4z M348.4,427.3c-9.4,2.3-24-0.5-33.5-2.8
					c2.8-1.7,5.5-4.1,8.1-6.9c14.6-16.7,14.6-16.7,14.6-16.7L131,298.1l14.7,1.9l5.2,2l10.4-6.8l2.9,1.2l5.4-3.5l130.1,82l51.6,20.2
					c5,4.8,17.8,17.6,17.8,21.4c0,0.3-0.1,0.5-0.3,0.6c-0.1,0.2-0.3,0.3-0.6,0.5c-2.6,1.7-9.7,5.1-16.6,8.3
					C350.8,426.4,349.5,426.9,348.4,427.3z M290.8,430.2c4.7,0.4,14,0.2,23.2-5.1c7.1,1.8,17.7,4,26.6,4c1.7,0,3.2-0.2,4.7-0.4
					c-3.7,1.6-6.6,2.9-7.3,3.2l-0.1,0c-9.5,4.1-27.5,4.2-41.8-0.1C294.3,431.4,292.5,430.8,290.8,430.2z"/>
				<path class="st4" d="M118.5,296.2l173.3,109.5c13.8,8.8,61.6,22.3,77.3,11.9c15.7-10.4-6.4-41-20.3-49.7L175.6,258.7
					L118.5,296.2z"/>
				<path class="st3" d="M291.7,406L118.3,296.3l-0.1-0.5l57.6-37.8l173.4,109.4c10.2,6.5,25.8,25.5,25.9,39.2
					c0,4.8-1.9,8.6-5.6,11.1c-4,2.7-10,3.8-16.9,3.9C331.5,421.9,302,412.5,291.7,406z M119.2,296.2l172.9,109.1
					c13.7,8.6,61.2,22.3,77.1,11.9c3.6-2.4,5.4-5.8,5.3-10.5c-0.1-13.6-15.4-32.1-25.5-38.4L175.8,259.1L119.2,296.2z"/>
				<path class="st5" d="M175.7,277.4l173.1,109.1c6.6,4.1,14.2,15.9,17.9,24.8l0,0.3c-0.7,0.9-1.5,1.9-2.6,2.7
					c-12.7,8.4-56.1-2.4-67.3-9.5L136.1,303.5L175.7,277.4z"/>
				<path class="st3" d="M126.7,296.1l49.4-32.5l172.7,108.8c0.1,0,0.3,0.2,0.4,0.3c0.3,0.2,0.6,0.3,0.7,0.5
					c0.4,0.3,0.7,0.5,1.1,0.8c0.1,0.2,0.3,0.2,0.3,0.3c1.4,1.1,2.8,2.3,4.2,3.7l0.1,0.2l-0.9,11.4c-1.7-1.9-3.4-3.4-5-4.5L176.7,276
					l-39.4,26L297.9,403c11,6.9,54.3,17.9,67,9.5c1.1-0.8,2.1-1.6,2.8-2.7c-2.7-6.4-7.2-14.1-12-19.5l0.9-11.6c0,0,0,0,0.1,0.2
					c0.1,0.2,0.4,0.5,0.6,0.6c6.3,6.8,12.2,16.1,12.7,23.7l0,0.2c0,0.2,0,0.5,0,0.6c0,0.2,0,0.2,0,0.3c0,0.2,0,0.5,0,0.6
					c0,0.3,0,0.5,0,0.8c0,0.2,0,0.3-0.1,0.5c-0.1,1.1-0.4,2-0.8,3c-0.1,0.3-0.3,0.6-0.4,0.8c0,0,0,0,0,0.2l-0.1,0.2l-0.1,0.2
					l-0.1,0.2c-0.7,0.9-1.6,1.9-2.6,2.5c-3.2,2.2-8.4,3-14.4,3.1c-18.2,0.2-44.9-7.4-53.2-12.6L127.7,296.4L126.7,296.1z"/>
				<path class="st4" d="M176.7,275.5l-0.7-11.4l-48.6,32l9.2,5.8L176.7,275.5z"/>
				<path class="st3" d="M126.7,296.1l49.6-32.6l0.7,12.3l-40.3,26.6L126.7,296.1z M175.7,264.7L128,296.1l8.7,5.4l39.8-26.1
					L175.7,264.7z"/>
				<path class="st4" d="M166.1,330.8l0-0.9l3.1,2l0,0.9L168,332l0,4.5l-0.7-0.5l0-4.5L166.1,330.8z"/>
				<path class="st4" d="M162.3,332.9l1-1.6c-0.3-0.3-0.4-0.6-0.6-0.9c-0.1-0.3-0.3-0.8-0.3-1.1c0-0.5,0.1-0.8,0.4-0.9
					c0.3-0.2,0.6,0,1,0.1l1.8,1.2l0,5.3l-0.7-0.5l0-2l-0.8-0.6l-0.8,1.6L162.3,332.9z M163.4,330.5c0.1,0.2,0.3,0.5,0.4,0.5l1,0.6
					l0-1.6l-1-0.6c-0.4-0.3-0.7-0.1-0.7,0.3C163.3,330.1,163.3,330.2,163.4,330.5z"/>
				<path class="st4" d="M278.9,409.3c9.6,6,19.8,10.7,30.4,13.7c1.5,0.5,3.5,0.9,5.7,1.5c-0.3,0.2-0.7,0.3-1,0.6
					c-1.9-0.4-3.6-0.9-4.9-1.4c-10.6-3-20.9-7.8-30.6-13.7l-157.3-99.4l-0.3-1.1L278.9,409.3z"/>
				<path class="st4" d="M202.5,293l-0.5-49.3l-63,9.3l0.5,49.6c-0.1,0.5,1,1.9,1.7,2.2l21,13.2c1.1,0.8,3.2,0.6,4.4-0.2l34.9-23
					C202.1,294.3,202.5,293.7,202.5,293z"/>
				<path class="st5" d="M161.6,268.3l-21.8-14c-1.1-0.8-1-2,0.3-2.8l34.9-23c1.4-0.8,3.3-1,4.4-0.2l21.8,14c1.1,0.8,1,2-0.3,2.8
					l-34.9,23C164.8,269.1,162.7,269.1,161.6,268.3z"/>
				<path class="st4" d="M202,238.7c-0.1,0.5-0.4,1.1-1.1,1.4l-34.9,23c-1.4,0.8-3.3,1-4.4,0.2l-21.8-14c-0.4-0.3-0.7-0.6-0.7-1.1
					l0.1,5.8c-0.1,0.5,0.1,1.1,0.7,1.4l21.8,14.3c1.1,0.8,3.2,0.6,4.4-0.2l34.9-23c0.8-0.5,1.1-1.1,1.1-1.7L202,238.7z"/>
				<path class="st4" d="M196.7,237.7L179,226.3c-1-0.6-2.5-0.4-3.6,0.2l-31.1,20.4c-1.1,0.6-1.2,1.7-0.3,2.3l4.1,2.6l27.2-17.9
					c1.1-0.6,2.6-0.8,3.6-0.2l13.8,8.8l4-2.7C197.6,239.3,197.7,238.2,196.7,237.7z"/>
				<path class="st5" d="M201,241.7l-34.9,23c-1.4,0.8-3.3,1-4.4,0.2l-21.8-14c-1.1-0.8-1-2,0.3-2.8l34.9-23c1.4-0.8,3.3-1,4.4-0.2
					l21.8,13.8C202.3,239.5,202.2,240.8,201,241.7z M196.8,239L179,227.6c-1-0.6-2.5-0.4-3.6,0.2l-31.1,20.4
					c-1.1,0.6-1.2,1.7-0.3,2.3l17.6,11.4c1,0.6,2.5,0.4,3.6-0.2l31.2-20.4C197.6,240.7,197.7,239.6,196.8,239z"/>
				<path class="st3" d="M168.6,272.6l4.4-2.9l0.1,7.6l-4.4,3L168.6,272.6z M172.3,270.9l-3.2,2.1l0.1,6.1l3.2-2.2L172.3,270.9z"/>
				<path class="st3" d="M174,269.1l4.4-2.9l0.1,7.6l-4.4,3L174,269.1z M177.7,267.4l-3.2,2.1l0.1,6.1l3.2-2.2L177.7,267.4z"/>
				<path class="st3" d="M179.2,265.6l4.4-2.9l0.1,7.6l-4.4,3L179.2,265.6z M183,264l-3.2,2.1l0.1,6.1l3.2-2.2L183,264z"/>
				<path class="st3" d="M184.6,262.2l4.4-2.9l0.1,7.6l-4.4,3L184.6,262.2z M188.3,260.6l-3.2,2.1l0.1,6.1l3.2-2.2L188.3,260.6z"/>
				<path class="st3" d="M189.9,258.7l4.4-2.9l0.1,7.6l-4.4,3L189.9,258.7z M193.6,257.1l-3.2,2.1l0.1,6.1l3.2-2.2L193.6,257.1z"/>
				<path class="st3" d="M195.2,255.2l4.4-2.9l0.1,7.6l-4.4,3L195.2,255.2z M199,253.6l-3.2,2.1l0.1,6.1l3.2-2.2L199,253.6z"/>
				<path class="st3" d="M168.7,281.5l4.4-2.9l0.1,7.6l-4.4,3L168.7,281.5z M172.4,279.9l-3.2,2.1l0.1,6.1l3.2-2.2L172.4,279.9z"/>
				<path class="st3" d="M174.1,278.2l4.4-2.9l0.1,7.6l-4.4,3L174.1,278.2z M177.8,276.4l-3.2,2.1l0.1,6.1l3.2-2.2L177.8,276.4z"/>
				<path class="st3" d="M179.3,274.7l4.4-2.9l0.1,7.6l-4.4,3L179.3,274.7z M183,272.9l-3.2,2.1l0.1,6.1l3.2-2.2L183,272.9z"/>
				<path class="st3" d="M184.7,271.2l4.4-2.9l0.1,7.6l-4.4,3L184.7,271.2z M188.4,269.5l-3.2,2.1l0.1,6.1l3.2-2.2L188.4,269.5z"/>
				<path class="st3" d="M189.9,267.7l4.4-2.9l0.1,7.6l-4.4,3L189.9,267.7z M193.7,266l-3.2,2.1l0.1,6.1l3.2-2.2L193.7,266z"/>
				<path class="st3" d="M195.3,264.2l4.4-2.9l0.1,7.6l-4.4,3L195.3,264.2z M199.1,262.5l-3.2,2.2l0.1,6.1l3.2-2.2L199.1,262.5z"/>
				<path class="st3" d="M142.9,248.4c0,0.5,0.3,1.1,0.8,1.4l4.2,2.6l13.6,8.6c0.4,0.3,1.1,0.5,1.8,0.5c0.8,0,1.5-0.2,2.2-0.6
					l26.9-17.7l4.1-2.7c0.6-0.3,0.8-0.8,1-1.3c0-0.2,0.1-0.3,0.1-0.5c0-0.6-0.3-1.1-0.8-1.4l-17.7-11.4c-0.6-0.3-1.3-0.5-1.9-0.4
					c-0.4,0-0.7,0-1.1,0.2c-0.4,0.2-0.7,0.3-1,0.5L144,246.5C143.4,247.1,142.9,247.6,142.9,248.4z M148.7,251.9l26.6-17.6
					c1-0.6,2.5-0.6,3.3-0.2l13.3,8.5l-26.6,17.6c-1,0.6-2.5,0.6-3.3,0.2L148.7,251.9z M143.6,248.4c0-0.3,0.3-0.6,0.7-0.9l31.1-20.4
					c0.1-0.2,0.3-0.2,0.4-0.2l0.1,0c0.1,0,0.1,0,0.3-0.2l0.1,0c0.1,0,0.1,0,0.3,0l0.1,0c0.1,0,0.1,0,0.3,0l0.1,0
					c0.3,0,0.4,0,0.7,0.1c0.3,0,0.4,0.2,0.6,0.3l0.1,6.9c-0.4-0.3-1.1-0.5-1.7-0.5c-0.8,0-1.5,0.2-2.2,0.6l-26.9,17.7l-3.8-2.5
					C143.9,248.8,143.6,248.7,143.6,248.4z"/>
				<path class="st3" d="M138.7,254.8l0.4,47.7c-0.1,0.8,1.3,2.2,1.8,2.5l21,13.2c0.6,0.3,1.4,0.6,2.1,0.6c1,0,1.9-0.3,2.6-0.8
					l34.9-23c0.8-0.6,1.4-1.3,1.2-2l-0.4-48.2l-0.1-5.9c0,0,0,0,0-0.2c0-0.6-0.3-1.2-1-1.6l-21.8-14c-1.3-0.8-3.3-0.7-4.9,0.2
					l-34.9,23c-0.8,0.5-1.2,1.3-1.2,2l0,0.2l0.1,5.8C138.7,254.5,138.7,254.6,138.7,254.8z M166.1,270c0,0,0.1,0,0.1-0.2l34.9-23
					c0.1-0.2,0.4-0.3,0.6-0.5l0.4,46.6c0,0.5-0.3,0.9-1,1.4l-34.8,22.8l-0.4-47.3L166.1,270z M166,263.7c0,0,0.1,0,0.1-0.2l34.9-23
					c0.1-0.2,0.4-0.3,0.6-0.5l0,4.5c0,0.5-0.3,0.9-1,1.4l-34.8,22.8l0-5.1L166,263.7z M163.7,318.1l0.3,0l-0.4-47.4
					c0.4,0,1,0,1.4-0.2l0.4,47.4C164.8,318,164.3,318,163.7,318.1z M163.6,269.7l0-5.3c0.4,0,0.8,0,1.1-0.2c0.1,0,0.1,0,0.3,0l0,5.3
					C164.5,269.7,164.1,269.7,163.6,269.7z M139.3,248.4c0-0.5,0.3-0.9,1-1.3l34.9-23c0.7-0.5,1.5-0.6,2.4-0.6
					c0.7,0,1.3,0.1,1.8,0.4l21.8,14c0.3,0.2,0.6,0.5,0.6,0.9c0,0.5-0.4,0.8-1,1.1l-34.9,23c-1.2,0.8-3,0.8-4,0.2l-21.8-14
					C139.6,249,139.3,248.7,139.3,248.4z"/>
				<path class="st4" d="M167.7,246.9l3.2-40.6l5.4,1.5l0.4,41.3c0,0.2,0,0.3,0,0.3c-0.1,0.3-0.3,0.8-0.8,1.1
					c-1,0.6-2.6,0.8-3.5,0.2l-4.2-2.6C167.7,247.8,167.5,247.3,167.7,246.9z"/>
				<path class="st5" d="M171.3,202.7l2.5,1.5c0.6,0.3,1.5,0.3,2.1-0.2c0.6-0.5,0.7-0.9,0.1-1.4l-2.5-1.5c-0.6-0.3-1.5-0.3-2.1,0.2
					C170.7,201.8,170.7,202.4,171.3,202.7z"/>
				<path class="st3" d="M168.1,248.6l4.2,2.6c0.4,0.3,1.1,0.5,1.7,0.5c0.7,0,1.5-0.2,2.2-0.6c0.4-0.3,0.7-0.6,0.8-0.9l0.1-0.5
					c0-0.2,0-0.3,0-0.5l-0.4-41.3l0-5.3l0-0.2c0-0.3-0.1-0.8-0.6-0.9l-2.5-1.5c-0.7-0.5-1.8-0.3-2.5,0.2c-0.4,0.3-0.6,0.6-0.7,0.9
					l0.1,5.5l-3.2,40.6C167.1,247.5,167.4,248.1,168.1,248.6z M175.9,202.2c0,0.2-0.1,0.3-0.3,0.3c-0.6,0.3-1.2,0.3-1.7,0.2
					l-2.5-1.5c-0.1,0-0.1-0.2-0.1-0.2c0-0.2,0.1-0.3,0.3-0.3c0.3-0.2,0.7-0.3,1-0.3c0.3,0,0.6,0,0.7,0.1l2.5,1.5
					C175.9,202,175.9,202.2,175.9,202.2z M175.9,207.5c0,0.2-0.1,0.3-0.3,0.5c-0.4,0.3-1,0.3-1.4,0.2l0-4.4c0.1,0,0.3,0,0.4,0
					c0.4,0,1-0.2,1.2-0.3L175.9,207.5z M173,250.6l1.1-41.5c0.1,0,0.3,0,0.4,0c0.4,0,1-0.2,1.2-0.3l0.4,40.4c0,0.2,0,0.2,0,0.3
					c0,0.3-0.3,0.6-0.7,0.8C174.9,250.7,173.8,250.9,173,250.6z"/>
				<path class="st4" d="M170.8,206.1l3.2,2c0,0,0.1,0,0.3,0.2l0,0.9c-0.3,0-0.4-0.2-0.6-0.2l-3.2-2l0-1.1
					C170.5,205.8,170.6,206,170.8,206.1z"/>
				<path class="st3" d="M190.8,286.7l7.9-5.5l0.1,15.6L191,302L190.8,286.7z M198.3,282.3l-6.9,4.7l0.1,13.9l6.9-4.6L198.3,282.3z"
					/>
				<path class="st3" d="M197.1,291.5l-0.1-6.4l-4.3,3l0.1,6.2L197.1,291.5z"/>
				<path class="st4" d="M151.4,247.8l7.2-4.8l7.3,4.6l0,2.2l-7.2,4.8l0-2.2L151.4,247.8z"/>
				<path class="st3" d="M151.1,247.7l0,0.3l0,2.3l7.5,4.8l0.3-0.2l7.2-4.8l0-2.3l0-0.3l-7.5-4.8l-7.2,4.7L151.1,247.7z
					 M158.6,243.4l6.7,4.3l-6.6,4.4l-6.7-4.3L158.6,243.4z M159,254.1l0-1.6l3.9-2.5l2.8-1.9l0,1.6L159,254.1z"/>
				<path class="st4" d="M354.3,409.5l3.2-40.6l5.4,1.5l0.4,41.3c0,0.2,0,0.3,0,0.3c-0.1,0.3-0.3,0.8-0.8,1.1
					c-1,0.6-2.6,0.8-3.5,0.2l-4.2-2.6C354.4,410.4,354.2,410,354.3,409.5z"/>
				<path class="st5" d="M358,365.3l2.5,1.5c0.6,0.3,1.5,0.3,2.1-0.2c0.6-0.5,0.7-0.9,0.1-1.4l-2.5-1.5c-0.6-0.3-1.5-0.3-2.1,0.2
					C357.5,364.4,357.4,365,358,365.3z"/>
				<path class="st3" d="M354.8,411.2l4.2,2.6c0.4,0.3,1.1,0.5,1.7,0.5c0.7,0,1.5-0.2,2.2-0.6c0.4-0.3,0.7-0.6,0.8-0.9l0.1-0.5
					c0-0.2,0-0.3,0-0.5l-0.4-41.3l0-5.3l0-0.2c0-0.3-0.1-0.8-0.6-0.9l-2.5-1.5c-0.7-0.5-1.8-0.3-2.5,0.2c-0.4,0.3-0.6,0.6-0.7,0.9
					l0,5.5l-3.2,40.6C353.8,410.1,354.1,410.7,354.8,411.2z M362.7,364.8c0,0.2-0.1,0.3-0.3,0.3c-0.6,0.3-1.2,0.3-1.7,0.2l-2.5-1.5
					c-0.1,0-0.1-0.2-0.1-0.2c0-0.2,0.1-0.3,0.3-0.3c0.3-0.2,0.7-0.3,1-0.3c0.3,0,0.6,0,0.7,0.1l2.5,1.5L362.7,364.8z M362.7,370.1
					c0,0.2-0.1,0.3-0.3,0.5c-0.4,0.3-1,0.3-1.4,0.2l0-4.5c0.1,0,0.3,0,0.4,0c0.4,0,1-0.2,1.2-0.3L362.7,370.1z M359.8,413.2
					l1.1-41.5c0.1,0,0.3,0,0.4,0c0.4,0,1-0.2,1.2-0.3l0.4,40.4c0,0.2,0,0.2,0,0.3c0,0.3-0.3,0.6-0.7,0.8
					C361.7,413.3,360.6,413.5,359.8,413.2z"/>
				<path class="st4" d="M357.4,368.7l3.2,2c0,0,0.1,0,0.3,0.2l0,0.9c-0.3,0-0.4-0.2-0.6-0.2l-3.2-2l0-1.1
					C357.2,368.4,357.3,368.6,357.4,368.7z"/>
				<path class="st4" d="M348.2,391.5l-13.7-8.9l-13.3,9.2l13.1,8.5L348.2,391.5z"/>
				<path class="st5" d="M348.2,392.7l-13.7-8.8l-13.3,9l13.1,8.6L348.2,392.7z"/>
				<path class="st4" d="M348.3,398.3l-0.1-6.9l-13.8,8.7l0.2,7L348.3,398.3z"/>
				<path class="st4" d="M333.7,389.6c-1.1,0.2-1.5,0.6-1.5,1.4c0,0.2,0,0,0,0.2l-3.2,1.7c-0.3-0.5-0.6-1.1-0.6-1.7
					c0-2.3,2.5-4.1,5.7-4.3L333.7,389.6z"/>
				<path class="st3" d="M328.6,393.2c-0.4-0.6-0.6-1.2-0.6-1.9c0-2.5,2.6-4.5,5.9-4.7l0.3,0L334,390l-0.3,0
					c-1.2,0.2-1.2,0.8-1.2,0.9l0.1,0.3L328.6,393.2z M333.3,389.3l0.3-1.9c-2.8,0.3-4.8,1.9-4.8,3.9c0,0.5,0.1,0.8,0.3,1.2l2.8-1.6
					C331.9,390.4,332.2,389.6,333.3,389.3z"/>
				<path class="st4" d="M333.2,392.2c0.4,0.3,0.3-0.6,1-0.6c0.7,0,1.4,0.9,1.8,0.6l3.3,1.5c-1.1,0.9-2.9,1.6-4.8,1.6
					c-2.1,0-3.9-0.7-5-1.8L333.2,392.2z"/>
				<path class="st3" d="M329.3,394l-0.3-0.3l4-1.8l0.1,0c0.1-0.2,0.3-0.6,0.8-0.6c0.4,0,0.8,0.1,1.1,0.5c0.1,0.2,0.6,0.3,0.6,0.3
					l0.1-0.2l4,2l-0.4,0.3c-1.2,1.1-3,1.7-5,1.8C332.5,395.8,330.6,395.2,329.3,394z M336,392.7c-0.3,0.2-0.7-0.1-1.1-0.3
					c-0.3-0.2-0.6-0.3-0.8-0.3c-0.1,0-0.1,0-0.3,0.3c-0.1,0.2-0.1,0.3-0.4,0.5c-0.1,0-0.1,0-0.3,0l-2.9,1.1c1.1,0.8,2.7,1.2,4.3,1.2
					c1.5,0,2.9-0.5,4-1.1L336,392.7z"/>
				<path class="st4" d="M337,390.9C337,390.9,337,391.1,337,390.9c0-0.8-0.4-1.6-1.5-1.7l-0.4-2.3c3.2,0.1,5.7,2,5.7,4.2
					c0,0.6-0.3,1.4-0.7,1.9L337,390.9z"/>
				<path class="st3" d="M336.8,391.4l-0.3,0l0-0.2l-0.1,0l0.1-0.3c0-0.5-0.4-1.1-1.3-1.2l-0.3,0l-0.3-3.1l0.3,0
					c3.5,0.1,6,2.1,6,4.6c0,0.8-0.3,1.6-0.7,2.2l-0.1,0.2L336.8,391.4z M335.7,388.9c1,0.1,1.4,0.9,1.5,1.7l0.1,0.2l2.7,1.7
					c0.3-0.5,0.4-0.9,0.4-1.4c0-1.9-2.1-3.6-4.9-3.9L335.7,388.9z"/>
				<path class="st4" d="M332.2,391c0,0.8,1.1,1.5,2.4,1.5c1.3,0,2.4-0.6,2.3-1.6c0-0.6-0.7-2.2-1.4-2.3c-0.3-0.2-0.5,0.9-1,0.9
					c-0.4,0-0.6-0.9-1-0.9C332.8,388.8,332.2,390.4,332.2,391z"/>
				<path class="st3" d="M331.8,391c0-0.8,0.7-2.5,1.6-2.8c0.4-0.2,0.7,0.3,0.8,0.6c0,0.2,0.1,0.2,0.1,0.3c0,0,0.1-0.2,0.1-0.3
					c0.1-0.3,0.4-0.6,0.8-0.6c1.1,0.3,1.7,2.2,1.7,2.8c0,1.1-1.2,1.9-2.8,1.9C333.1,392.9,331.8,392.1,331.8,391z M335.3,389.2
					c-0.1,0.3-0.4,0.6-0.8,0.6c-0.4,0-0.6-0.3-0.8-0.6l-0.1-0.2c-0.6,0.3-1.1,1.6-1.1,2c0,0.5,0.8,1.1,2,1.1c1.3,0,1.9-0.6,1.9-1.1
					c0-0.5-0.6-1.7-1.1-2C335.4,389.1,335.4,389.2,335.3,389.2z"/>
				<path class="st4" d="M334.6,390.5c-0.9,0-1.7-0.5-1.7-1.1c0-0.6,0.7-1.1,1.7-1.1c0.9,0,1.7,0.5,1.7,1.1
					C336.2,390,335.5,390.5,334.6,390.5z"/>
				<path class="st5" d="M332.9,390.2c0,0.6,0.7,1.1,1.7,1.1c1,0,1.7-0.5,1.7-1.1c0-0.6-0.7-1.1-1.7-1.1
					C333.6,389.3,332.9,389.7,332.9,390.2z"/>
				<path class="st3" d="M332.5,389.4c0-0.8,0.8-1.4,1.9-1.4c1.1,0,2,0.6,2,1.4c0,0.8-0.8,1.4-1.9,1.4
					C333.5,391,332.5,390.4,332.5,389.4z M333.3,389.4c0,0.3,0.6,0.6,1.3,0.6c0.8,0,1.2-0.3,1.2-0.6s-0.6-0.6-1.3-0.6
					C333.7,388.8,333.3,389.3,333.3,389.4z"/>
				<path class="st3" d="M320.8,391.4l0.1,7.5l13.8,8.8l13.9-9.2l-0.1-7.3l-0.4-0.3l-13.7-8.8l-13.3,9L320.8,391.4z M347.5,391.5
					l-13.1,8.4l-2.2-1.5l-10.2-6.6l12.6-8.5L347.5,391.5z M347.9,398l-13.1,8.7l-0.1-6.2l10.6-6.8l2.5-1.6L347.9,398z"/>
				<path class="st4" d="M199,310.7l-13.7-8.8l-13.3,9l13.1,8.6L199,310.7z"/>
				<path class="st5" d="M199,312.1l-13.7-8.9l-13.3,9.2l13.1,8.5L199,312.1z"/>
				<path class="st4" d="M199,317.6l-0.1-6.9l-13.8,8.9l0.2,7L199,317.6z"/>
				<path class="st4" d="M184.5,309c-1.1,0.2-1.5,0.6-1.5,1.4c0,0.2,0,0,0,0.2l-3.2,1.7c-0.3-0.5-0.6-1.1-0.6-1.7
					c0-2.3,2.5-4.1,5.7-4.3L184.5,309z"/>
				<path class="st3" d="M179.4,312.4c-0.4-0.6-0.6-1.2-0.6-1.9c0-2.5,2.6-4.5,5.9-4.7l0.3,0l-0.2,3.4l-0.3,0
					c-1.2,0.2-1.2,0.8-1.2,0.9l0.1,0.3L179.4,312.4z M184.1,308.5l0.3-1.9c-2.8,0.3-4.8,1.9-4.8,3.9c0,0.5,0.1,0.8,0.3,1.2l2.8-1.6
					C182.7,309.6,183,308.8,184.1,308.5z"/>
				<path class="st4" d="M184,311.5c0.4,0.3,0.3-0.6,1-0.6c0.7,0,1.4,0.9,1.8,0.6l3.3,1.5c-1.1,0.9-2.9,1.6-4.8,1.6
					c-2.1,0-3.9-0.7-5-1.8L184,311.5z"/>
				<path class="st3" d="M180.1,313.2l-0.3-0.3l4-1.8l0.1,0c0.1-0.2,0.3-0.6,0.8-0.6c0.4,0,0.8,0.1,1.1,0.5c0.1,0.2,0.6,0.3,0.6,0.3
					l0.1-0.2l4.2,2l-0.4,0.3c-1.2,1.1-3,1.7-5,1.8C183.3,315.2,181.3,314.4,180.1,313.2z M186.7,311.9c-0.3,0.2-0.7-0.1-1.1-0.3
					c-0.3-0.2-0.6-0.3-0.8-0.3c-0.1,0-0.1,0-0.3,0.3c-0.1,0.2-0.1,0.3-0.4,0.5c-0.1,0-0.1,0-0.3,0l-2.9,1.1c1.1,0.8,2.7,1.2,4.3,1.2
					c1.5,0,2.9-0.5,4-1.1L186.7,311.9z"/>
				<path class="st4" d="M187.7,310.3C187.7,310.2,187.7,310.3,187.7,310.3c0-0.8-0.4-1.6-1.5-1.7l-0.4-2.3c3.2,0.1,5.7,2,5.7,4.2
					c0,0.6-0.3,1.4-0.7,1.9L187.7,310.3z"/>
				<path class="st3" d="M187.6,310.6l-0.3,0l0-0.2l-0.1,0l0.1-0.3c0-0.5-0.4-1.1-1.3-1.2l-0.3,0l-0.3-3.1l0.3,0
					c3.5,0.1,6,2.1,6,4.6c0,0.8-0.3,1.6-0.7,2.2l-0.1,0.2L187.6,310.6z M186.4,308.2c1,0.1,1.4,0.9,1.5,1.7l0.1,0.2l2.7,1.7
					c0.3-0.5,0.4-0.9,0.4-1.4c0-1.9-2.1-3.6-4.9-3.9L186.4,308.2z"/>
				<path class="st4" d="M183,310.4c0,0.8,1.1,1.5,2.4,1.5c1.3,0,2.4-0.6,2.3-1.6c0-0.6-0.7-2.2-1.4-2.3c-0.3-0.2-0.5,0.9-1,0.9
					c-0.4,0-0.6-0.9-1-0.9C183.5,308.2,183,309.8,183,310.4z"/>
				<path class="st3" d="M182.6,310.4c0-0.8,0.7-2.5,1.6-2.8c0.4-0.2,0.7,0.3,0.8,0.6c0,0.2,0.1,0.2,0.1,0.3c0,0,0.1-0.2,0.1-0.3
					c0.1-0.3,0.4-0.6,0.8-0.6c1.1,0.3,1.7,2.2,1.7,2.8c0,1.1-1.2,1.9-2.8,1.9C183.8,312.2,182.6,311.3,182.6,310.4z M186,308.5
					c-0.1,0.3-0.4,0.6-0.8,0.6c-0.4,0-0.6-0.3-0.8-0.6l-0.1-0.2c-0.6,0.3-1.1,1.6-1.1,2c0,0.5,0.8,1.1,2,1.1c1.3,0,1.9-0.6,1.9-1.1
					c0-0.5-0.6-1.7-1.1-2C186.2,308.3,186.2,308.5,186,308.5z"/>
				<path class="st4" d="M183.7,308.8c0,0.6,0.7,1.1,1.7,1.1c1,0,1.7-0.5,1.7-1.1c0-0.6-0.7-1.1-1.7-1.1
					C184.3,307.7,183.7,308.2,183.7,308.8z"/>
				<path class="st5" d="M183.7,309.6c0,0.6,0.7,1.1,1.7,1.1c1,0,1.7-0.5,1.7-1.1c0-0.6-0.7-1.1-1.7-1.1
					C184.3,308.5,183.7,309,183.7,309.6z"/>
				<path class="st3" d="M183.2,308.8c0-0.8,0.8-1.4,1.9-1.4c1.1,0,2,0.6,2,1.4c0,0.8-0.8,1.4-1.9,1.4
					C184.2,310.2,183.2,309.6,183.2,308.8z M183.9,308.8c0,0.3,0.6,0.6,1.3,0.6c0.8,0,1.2-0.3,1.2-0.6c0-0.3-0.6-0.6-1.3-0.6
					C184.5,308.2,183.9,308.5,183.9,308.8z"/>
				<path class="st3" d="M171.6,310.8l0.1,7.5l13.8,8.8l13.9-9.2l-0.1-7.3l-0.4-0.3l-13.7-8.8l-13.3,9L171.6,310.8z M198.3,310.7
					l-13.1,8.4l-2.2-1.5l-10.2-6.6l12.6-8.5L198.3,310.7z M198.6,317.4l-13.1,8.7l-0.1-6.2l10.6-6.8l2.5-1.6L198.6,317.4z"/>
				<path class="st4" d="M244.7,319l-0.2-21.7l-36.6,24.1l0.2,22L244.7,319z"/>
				<path class="st4" d="M244.5,296.7l-13.8-8.8L194.2,312l13.7,8.6L244.5,296.7z"/>
				<path class="st4" d="M207.8,320.7l0.2,1.9l36.6-23.9l0-2L207.8,320.7z"/>
				<path class="st5" d="M243.1,297.6l-12.4-8l-36.4,24.2l12.3,7.7L243.1,297.6z"/>
				<path class="st3" d="M193.8,311.7l0.2,23.1l14.1,9.1l36.9-24.7l-0.2-22.8l-14.1-9.1L193.8,311.7z M244.3,318.7l-2.6,1.7
					l-0.2-19.3l2.6-1.7L244.3,318.7z M214.6,338.5l-2.8,1.9l-0.2-19.7l2.8-1.9L214.6,338.5z M215,318.5l2.8-1.9l0.2,19.7l-2.8,1.9
					L215,318.5z M218.2,316.4l2.9-1.9l0.2,19.7l-2.8,1.9L218.2,316.4z M221.6,314.2l2.8-1.9l0.2,19.5l-2.8,1.9L221.6,314.2z
					 M224.9,312l2.8-1.9l0.2,19.5l-2.8,1.9L224.9,312z M228.3,309.8l2.8-1.7l0.2,19.5l-2.8,1.9L228.3,309.8z M231.6,307.6l2.8-1.9
					l0.2,19.5l-2.8,1.9L231.6,307.6z M234.9,305.5l2.8-1.9l0.2,19.3l-2.8,1.9L234.9,305.5z M238.2,303.3l2.8-1.9l0.2,19.3l-2.8,1.9
					L238.2,303.3z M208.4,322.8l2.8-1.7l0.2,19.8l-2.8,1.9L208.4,322.8z M208.4,320.9l35.9-23.6l0,1.4l-35.9,23.4l0-0.9l0-0.2
					L208.4,320.9z M194.9,312l35.8-23.6l13,8.3l-35.9,23.4L194.9,312z"/>
				<path class="st4" d="M193.8,313.7l0-0.8l14.4,9.1l0,0.8l-7.3-4.6l0.2,21.2l-0.4-0.3l-0.2-21.2L193.8,313.7z"/>
				<path class="st4" d="M204,333.3c0.1,0,0.3,0,0.4-0.2l0.3-0.2c0.1,0,0.1-0.2,0.1-0.3c0-0.2-0.1-0.2-0.3-0.2l-0.3,0.2
					c-0.1,0.2-0.3,0.2-0.4,0l-1.4-0.9l0.3-0.2c0.1,0,0.1-0.2,0.1-0.3c0-0.2-0.1-0.2-0.3-0.2l-0.3,0.2c-0.1,0.2-0.3,0.3-0.3,0.5
					c0,0.2,0.1,0.3,0.3,0.5l1.4,0.8C203.6,333.3,203.7,333.3,204,333.3z"/>
				<path class="st4" d="M199.1,330.3c0.1,0,0.3,0,0.4-0.2l0.3-0.2c0.1,0,0.1-0.2,0.1-0.3c0-0.2-0.1-0.2-0.3-0.2l-0.3,0.2
					c-0.1,0.2-0.3,0.2-0.4,0l-1.4-0.9l0.3-0.2c0.1,0,0.1-0.2,0.1-0.3c0-0.2-0.1-0.2-0.3-0.2l-0.3,0.2c-0.1,0.2-0.3,0.3-0.3,0.5
					c0,0.2,0.1,0.3,0.3,0.5l1.4,0.9C198.7,330.3,198.9,330.3,199.1,330.3z"/>
				<path class="st4" d="M259.7,328.5l-0.2-21.7l-36.6,24.2l0.2,21.8L259.7,328.5z"/>
				<path class="st4" d="M259.5,306.2l-13.7-8.8l-36.6,24.1l13.7,8.8L259.5,306.2z"/>
				<path class="st4" d="M222.8,330.4l0.2,1.9l36.6-23.9l0-2L222.8,330.4z"/>
				<path class="st5" d="M258.1,307.2l-12.3-7.8l-36.6,24.1l12.3,7.8L258.1,307.2z"/>
				<path class="st3" d="M208.8,321.4l0.2,23.1l14.1,8.9l37-24.5l-0.2-22.8l-14.1-9.1L208.8,321.4z M259.3,328.4l-2.6,1.7l-0.2-19.3
					l2.6-1.7L259.3,328.4z M229.6,348.1l-2.8,1.9l-0.2-19.8l2.8-1.9L229.6,348.1z M230,328.2l2.8-1.9l0.2,19.7l-2.8,1.9L230,328.2z
					 M233.1,326l2.9-1.9l0.2,19.7l-2.8,1.9L233.1,326z M236.6,323.7l2.8-1.9l0.2,19.5l-2.8,1.9L236.6,323.7z M239.9,321.5l2.8-1.9
					l0.2,19.5l-2.8,1.9L239.9,321.5z M243.2,319.3l2.8-1.7l0.2,19.5l-2.8,1.9L243.2,319.3z M246.5,317.3l2.8-1.9l0.2,19.5l-2.8,1.9
					L246.5,317.3z M249.8,315l2.8-1.9l0.2,19.3l-2.8,1.9L249.8,315z M253.2,312.8l2.8-1.9l0.2,19.3l-2.8,1.9L253.2,312.8z
					 M223.3,332.5l2.8-1.7l0.2,19.8l-2.8,1.9L223.3,332.5z M223.3,330.4l35.9-23.6l0,1.4l-35.9,23.4l0-0.9l0-0.2L223.3,330.4z
					 M209.9,321.5l35.9-23.6l13,8.3l-35.9,23.4L209.9,321.5z"/>
				<path class="st4" d="M208.8,323.2l0-0.6l14.4,9.1l0,0.8l-7.3-4.6l0.2,21.1l-0.4-0.3l-0.2-21.1L208.8,323.2z"/>
				<path class="st4" d="M219,342.9c0.1,0,0.3,0,0.4-0.2l0.3-0.2c0.1,0,0.1-0.2,0.1-0.3c0-0.2-0.1-0.2-0.3-0.2l-0.3,0.2
					c-0.1,0.2-0.3,0.2-0.4,0l-1.4-0.8l0.3-0.2c0.1,0,0.1-0.2,0.1-0.3c0-0.2-0.1-0.2-0.3-0.2l-0.3,0.2c-0.1,0.2-0.3,0.3-0.3,0.5
					c0,0.2,0.1,0.3,0.3,0.5l1.4,0.9C218.6,342.9,218.8,342.9,219,342.9z"/>
				<path class="st4" d="M214.1,339.9c0.1,0,0.3,0,0.4-0.2l0.3-0.2c0.1,0,0.1-0.2,0.1-0.3c0-0.2-0.1-0.2-0.3-0.2l-0.3,0.2
					c-0.1,0.2-0.3,0.2-0.4,0l-1.4-0.9l0.3-0.2c0.1,0,0.1-0.2,0.1-0.3c0-0.2-0.1-0.2-0.3-0.2l-0.3,0.2c-0.1,0.2-0.3,0.3-0.3,0.5
					c0,0.2,0.1,0.3,0.3,0.5l1.4,0.9C213.7,339.9,214,339.9,214.1,339.9z"/>
				<path class="st4" d="M274.6,338l-0.2-21.5l-36.6,24.1l0.2,21.8L274.6,338z"/>
				<path class="st4" d="M274.4,315.9l-13.7-8.9l-36.6,24.2l13.7,8.6L274.4,315.9z"/>
				<path class="st4" d="M237.7,340l0.2,1.9l36.6-23.9l0-2L237.7,340z"/>
				<path class="st5" d="M273.1,316.8l-12.3-8l-36.6,24.2l12.3,7.7L273.1,316.8z"/>
				<path class="st3" d="M223.9,330.9l0.2,23.1l14.1,9.1l36.9-24.7l-0.2-22.8l-14.1-9.1L223.9,330.9z M274.2,337.9l-2.6,1.7
					l-0.2-19.3l2.8-1.7L274.2,337.9z M244.5,357.7l-2.8,1.9l-0.2-19.7l2.8-1.9L244.5,357.7z M244.9,337.7l2.8-1.9l0.2,19.7l-2.8,1.9
					L244.9,337.7z M248.1,335.5l2.9-1.9l0.2,19.7l-2.8,1.9L248.1,335.5z M251.5,333.3l2.8-1.9l0.2,19.5l-2.8,1.9L251.5,333.3z
					 M254.9,331.2l2.8-1.9l0.2,19.5l-2.8,1.9L254.9,331.2z M258.2,329l2.8-1.7l0.2,19.5l-2.8,1.9L258.2,329z M261.5,326.8l2.8-1.9
					l0.2,19.5l-2.8,1.9L261.5,326.8z M264.8,324.7l2.8-1.9l0.2,19.3l-2.8,1.9L264.8,324.7z M268.1,322.5l2.8-1.9l0.2,19.3l-2.8,1.9
					L268.1,322.5z M238.3,342l2.8-1.7l0.2,19.8l-2.8,1.9L238.3,342z M238.3,339.9l35.9-23.6l0,1.4l-35.9,23.4l0-0.9l0-0.2
					L238.3,339.9z M224.8,331.2l35.9-23.7l13,8.3l-35.9,23.4L224.8,331.2z"/>
				<path class="st4" d="M223.9,332.9l0-0.8l14.4,9.1l0,0.8l-7.3-4.6l0.2,21.2l-0.6-0.5l-0.2-21.1L223.9,332.9z"/>
				<path class="st4" d="M233.9,352.5c0.1,0,0.3,0,0.4-0.2l0.3-0.2c0.1,0,0.1-0.2,0.1-0.3c0-0.2-0.1-0.2-0.3-0.2l-0.3,0.2
					c-0.1,0.2-0.3,0.2-0.4,0l-1.4-0.8l0.3-0.2c0.1,0,0.1-0.2,0.1-0.3c0-0.2-0.1-0.2-0.3-0.2l-0.3,0.2c-0.1,0.2-0.3,0.3-0.3,0.5
					c0,0.2,0.1,0.3,0.3,0.5l1.4,0.9C233.7,352.5,233.8,352.5,233.9,352.5z"/>
				<path class="st4" d="M229,349.6c0.1,0,0.3,0,0.4-0.2l0.3-0.2c0.1,0,0.1-0.2,0.1-0.3c0-0.2-0.1-0.2-0.3-0.2l-0.3,0.2
					c-0.1,0.2-0.3,0.2-0.4,0l-1.4-0.8l0.3-0.2c0.1,0,0.1-0.2,0.1-0.3c0-0.2-0.1-0.2-0.3-0.2l-0.3,0.2c-0.1,0.2-0.3,0.3-0.3,0.5
					c0,0.2,0.1,0.3,0.3,0.5l1.4,0.8C228.8,349.6,228.9,349.6,229,349.6z"/>
				<path class="st4" d="M289.6,347.7l-0.2-21.7l-36.6,24.2l0.2,21.8L289.6,347.7z"/>
				<path class="st4" d="M289.4,325.4l-13.7-8.8l-36.6,24.1l13.7,8.6L289.4,325.4z"/>
				<path class="st4" d="M252.7,349.5l0.2,2l36.6-23.9l0-2L252.7,349.5z"/>
				<path class="st5" d="M288,326.4l-12.3-7.8l-36.6,24.1l12.4,7.8L288,326.4z"/>
				<path class="st3" d="M238.8,340.6l0.2,23.1l14.1,9.1l36.9-24.8l-0.2-22.6l-14.1-9.1L238.8,340.6z M289.3,347.4l-2.6,1.7
					l-0.2-19.3l2.6-1.7L289.3,347.4z M259.5,367.4l-2.8,1.9l-0.2-19.8l2.8-1.9L259.5,367.4z M259.9,347.2l2.8-1.9l0.2,19.7l-2.8,1.9
					L259.9,347.2z M263,345.2l2.9-1.9l0.2,19.7l-2.8,1.9L263,345.2z M266.5,343l2.8-1.9l0.2,19.7l-2.8,1.9L266.5,343z M269.8,340.7
					l2.8-1.9l0.2,19.5l-2.8,1.9L269.8,340.7z M273.1,338.5l2.8-1.7l0.2,19.5l-2.8,1.9L273.1,338.5z M276.4,336.5l2.8-1.9l0.2,19.5
					l-2.8,1.9L276.4,336.5z M279.7,334.2l2.8-1.9l0.2,19.3l-2.8,1.9L279.7,334.2z M283.2,332l2.8-1.9l0.2,19.5l-2.8,1.9L283.2,332z
					 M253.2,351.7l2.8-1.7l0.2,19.8l-2.8,1.9L253.2,351.7z M253.2,349.6l35.9-23.6l0,1.4l-35.9,23.4l0-0.9l0-0.2L253.2,349.6z
					 M239.8,340.7l35.9-23.6l13,8.3l-35.9,23.4L239.8,340.7z"/>
				<path class="st4" d="M238.8,342.4l0-0.8l14.4,9.2l0,0.8l-7.3-4.6l0.2,21.1l-0.6-0.3l-0.2-21.2L238.8,342.4z"/>
				<path class="st4" d="M248.9,362.2c0.1,0,0.3,0,0.4-0.2l0.3-0.2c0.1,0,0.1-0.2,0.1-0.3c0-0.2-0.1-0.2-0.3-0.2l-0.3,0.2
					c-0.1,0.2-0.3,0.2-0.4,0l-1.4-0.8l0.3-0.2c0.1,0,0.1-0.2,0.1-0.3c0-0.2-0.1-0.2-0.3-0.2l-0.3,0.2c-0.1,0.2-0.3,0.3-0.3,0.5
					c0,0.2,0.1,0.3,0.3,0.5l1.4,0.9C248.6,362.2,248.7,362.2,248.9,362.2z"/>
				<path class="st4" d="M244,359.1c0.1,0,0.3,0,0.4-0.2l0.3-0.2c0.1,0,0.1-0.2,0.1-0.3c0-0.2-0.1-0.2-0.3-0.2l-0.3,0.2
					c-0.1,0.2-0.3,0.2-0.4,0l-1.4-0.8l0.3-0.2c0.1,0,0.1-0.2,0.1-0.3c0-0.2-0.1-0.2-0.3-0.2l-0.3,0.2c-0.1,0.2-0.3,0.3-0.3,0.5
					c0,0.2,0.1,0.3,0.3,0.5l1.4,0.9C243.7,359.1,243.9,359.1,244,359.1z"/>
				<path class="st4" d="M304.5,357.2l-0.2-21.5l-36.5,24.1l0.2,21.8L304.5,357.2z"/>
				<path class="st4" d="M304.3,335.1l-13.7-8.9l-36.6,24.2l13.8,8.6L304.3,335.1z"/>
				<path class="st4" d="M267.6,359.2l0.3,1.9l36.5-23.9l0-2L267.6,359.2z"/>
				<path class="st5" d="M303,336l-12.3-8l-36.6,24.2l12.4,7.7L303,336z"/>
				<path class="st3" d="M253.8,350.1l0.2,23.1l14.1,9.1l36.9-24.7l-0.2-22.8l-14.1-9.1L253.8,350.1z M304.3,357.1l-2.6,1.7
					l-0.2-19.3l2.6-1.7L304.3,357.1z M274.4,376.9l-2.8,1.9l-0.2-19.7l2.8-1.9L274.4,376.9z M274.8,356.9l2.8-1.9l0.2,19.7l-2.8,1.9
					L274.8,356.9z M278.1,354.7l2.9-1.9l0.2,19.7l-2.8,1.9L278.1,354.7z M281.4,352.5l2.8-1.9l0.2,19.5l-2.8,1.9L281.4,352.5z
					 M284.8,350.4l2.8-1.9l0.2,19.5l-2.8,1.9L284.8,350.4z M288.2,348.2l2.8-1.7l0.2,19.5l-2.8,1.9L288.2,348.2z M291.4,346l2.8-1.9
					l0.2,19.5l-2.8,1.9L291.4,346z M294.8,343.8l2.8-1.9l0.2,19.3l-2.8,1.9L294.8,343.8z M298.2,341.7l2.8-1.9l0.2,19.3l-2.8,1.9
					L298.2,341.7z M268.2,361.2l2.8-1.7l0.2,19.8l-2.8,1.9L268.2,361.2z M268.2,359.2l35.9-23.6l0,1.4l-35.9,23.4l0-0.9l0-0.2
					L268.2,359.2z M254.9,350.4l35.8-23.7l13,8.3l-35.9,23.4L254.9,350.4z"/>
				<path class="st4" d="M253.8,352.1l0-0.8l14.4,9.1l0,0.8l-7.3-4.6l0.2,21.2l-0.6-0.5l-0.2-21.1L253.8,352.1z"/>
				<path class="st4" d="M263.8,371.7c0.1,0,0.3,0,0.4-0.2l0.3-0.2c0.1,0,0.1-0.2,0.1-0.3c0-0.2-0.1-0.2-0.3-0.2l-0.3,0.2
					c-0.1,0.2-0.3,0.2-0.4,0l-1.4-0.9l0.3-0.2c0.1,0,0.1-0.2,0.1-0.3c0-0.2-0.1-0.2-0.3-0.2l-0.3,0.2c-0.1,0.2-0.3,0.3-0.3,0.5
					c0,0.2,0.1,0.3,0.3,0.5l1.4,0.9C263.6,371.7,263.7,371.7,263.8,371.7z"/>
				<path class="st4" d="M259,368.8c0.1,0,0.3,0,0.4-0.2l0.3-0.2c0.1,0,0.1-0.2,0.1-0.3c0-0.2-0.1-0.2-0.3-0.2l-0.3,0.2
					c-0.1,0.2-0.3,0.2-0.4,0l-1.4-0.8l0.3-0.2c0.1,0,0.1-0.2,0.1-0.3c0-0.2-0.1-0.2-0.3-0.2l-0.3,0.2c-0.1,0.2-0.3,0.3-0.3,0.5
					c0,0.2,0.1,0.3,0.3,0.5l1.4,0.8C258.7,368.6,258.8,368.8,259,368.8z"/>
				<path class="st4" d="M259.5,306l-0.2-21.5l-36.6,24.1l0.2,21.8L259.5,306z"/>
				<path class="st4" d="M259.3,283.9l-13.8-8.9L209,299.2l13.7,8.6L259.3,283.9z"/>
				<path class="st4" d="M222.4,308l0.3,1.9l36.6-23.9l0-2L222.4,308z"/>
				<path class="st5" d="M257.9,284.9l-12.4-8L209,301.1l12.3,7.7L257.9,284.9z"/>
				<path class="st3" d="M208.6,298.9l0.2,23.1l14.1,8.9l36.9-24.5l-0.2-22.8l-14.1-9.1L208.6,298.9z M259.1,305.9l-2.6,1.7
					l-0.2-19.3l2.6-1.7L259.1,305.9z M229.4,325.7l-2.8,1.9l-0.2-19.7l2.8-1.9L229.4,325.7z M229.6,305.7l2.8-1.9l0.2,19.7l-2.8,1.9
					L229.6,305.7z M232.9,303.5l2.9-1.7l0.2,19.7l-2.8,1.9L232.9,303.5z M236.4,301.3l2.8-1.9l0.2,19.5l-2.8,1.9L236.4,301.3z
					 M239.7,299.2l2.8-1.9l0.2,19.5l-2.8,1.9L239.7,299.2z M243,297l2.8-1.7l0.2,19.5l-2.8,1.9L243,297z M246.3,294.8l2.8-1.9
					l0.2,19.5l-2.8,1.9L246.3,294.8z M249.6,292.6l2.8-1.9l0.2,19.3l-2.8,1.9L249.6,292.6z M252.9,290.5l2.8-1.9l0.2,19.3l-2.8,1.9
					L252.9,290.5z M223,310l2.8-1.7l0.2,19.8l-2.8,1.9L223,310z M223,308l35.9-23.6l0,1.4L223,309.2l0-0.9l0-0.2L223,308z
					 M209.7,299.2l35.8-23.7l13,8.3l-35.9,23.4L209.7,299.2z"/>
				<path class="st4" d="M208.6,300.9l0-0.8l14.4,9.1l0,0.8l-7.3-4.6l0.2,21.2l-0.6-0.5l-0.2-21.1L208.6,300.9z"/>
				<path class="st4" d="M218.6,320.5c0.1,0,0.3,0,0.4-0.2l0.3-0.2c0.1,0,0.1-0.2,0.1-0.3c0-0.2-0.1-0.2-0.3-0.2l-0.3,0.2
					c-0.1,0.2-0.3,0.2-0.4,0l-1.4-0.9l0.3-0.2c0.1,0,0.1-0.2,0.1-0.3c0-0.2-0.1-0.2-0.3-0.2l-0.3,0.2c-0.1,0.2-0.3,0.3-0.3,0.5
					c0,0.2,0.1,0.3,0.3,0.5l1.4,0.9C218.4,320.5,218.5,320.5,218.6,320.5z"/>
				<path class="st4" d="M213.7,317.6c0.1,0,0.3,0,0.4-0.2l0.3-0.2c0.1,0,0.1-0.2,0.1-0.3c0-0.2-0.1-0.2-0.3-0.2l-0.3,0.2
					c-0.1,0.2-0.3,0.2-0.4,0l-1.4-0.8l0.3-0.2c0.1,0,0.1-0.2,0.1-0.3c0-0.2-0.1-0.2-0.3-0.2l-0.3,0.2c-0.1,0.2-0.3,0.3-0.3,0.5
					c0,0.2,0.1,0.3,0.3,0.5l1.4,0.8C213.5,317.6,213.6,317.6,213.7,317.6z"/>
				<path class="st4" d="M218.8,296.3l7.2-4.8l7.3,4.6l0,2.3l-7.2,4.7l0-2.3L218.8,296.3z"/>
				<path class="st3" d="M218.5,296.1l0,0.3l0,2.3l7.5,4.8l0.3-0.2l7.2-4.8l0-2.3l0-0.3l-7.5-4.8l-7.2,4.7L218.5,296.1z M226,291.9
					l6.7,4.3l-6.6,4.4l-6.7-4.3L226,291.9z M226.4,302.6l0-1.6l3.9-2.5l2.8-1.9l0,1.6L226.4,302.6z"/>
				<path class="st5" d="M222.2,296.7l3.9,2.5l3.7-2.5l-3.8-2.3L222.2,296.7z"/>
				<path class="st3" d="M221,296.3l5-3.3l5,3.2l-5,3.3L221,296.3z M226,293.7l-4,2.7l4.1,2.6l4-2.7L226,293.7z"/>
				<path class="st4" d="M319.6,366.9l-0.2-21.7l-36.6,24.1l0.2,22L319.6,366.9z"/>
				<path class="st4" d="M319.4,344.6l-13.8-8.8l-36.5,24.1l13.7,8.6L319.4,344.6z"/>
				<path class="st4" d="M282.6,368.7l0.3,2l36.6-23.9l0-2L282.6,368.7z"/>
				<path class="st5" d="M318.1,345.6l-12.4-7.8l-36.5,24.1l12.3,7.7L318.1,345.6z"/>
				<path class="st3" d="M268.7,359.8l0.2,23.1l14.1,8.9l36.9-24.7l-0.2-22.6l-14.1-9.1L268.7,359.8z M319.2,366.6l-2.6,1.7
					l-0.2-19.3l2.6-1.7L319.2,366.6z M289.5,386.6l-2.8,1.9l-0.2-19.7l2.8-1.9L289.5,386.6z M289.8,366.4l2.8-1.9l0.2,19.7l-2.8,1.9
					L289.8,366.4z M293.1,364.4l2.9-1.9l0.2,19.7l-2.8,1.9L293.1,364.4z M296.5,362.2l2.8-1.9l0.2,19.5l-2.8,1.9L296.5,362.2z
					 M299.9,359.9l2.8-1.9l0.2,19.5l-2.8,1.9L299.9,359.9z M303.2,357.7l2.8-1.7l0.2,19.5l-2.8,1.9L303.2,357.7z M306.5,355.7
					l2.8-1.9l0.2,19.5l-2.8,1.9L306.5,355.7z M309.8,353.5l2.8-1.9l0.2,19.3l-2.8,1.9L309.8,353.5z M313.1,351.2l2.8-1.9l0.2,19.3
					l-2.8,1.9L313.1,351.2z M283.1,370.9l2.8-1.7l0.2,19.8l-2.8,1.9L283.1,370.9z M283.1,368.8l35.9-23.6l0,1.4l-35.9,23.4l0-0.9
					l0-0.2L283.1,368.8z M269.8,359.9l35.8-23.6l13,8.3l-35.9,23.4L269.8,359.9z"/>
				<path class="st4" d="M268.7,361.7l0-0.8l14.4,9.2l0,0.6l-7.3-4.5l0.2,21.1l-0.6-0.3l-0.2-21.2L268.7,361.7z"/>
				<path class="st4" d="M278.8,381.4c0.1,0,0.3,0,0.4-0.2l0.3-0.2c0.1,0,0.1-0.2,0.1-0.3c0-0.2-0.1-0.2-0.3-0.2l-0.3,0.2
					c-0.1,0.2-0.3,0.2-0.4,0l-1.4-0.8l0.3-0.2c0.1,0,0.1-0.2,0.1-0.3c0-0.2-0.1-0.2-0.3-0.2l-0.3,0.2c-0.1,0.2-0.3,0.3-0.3,0.5
					c0,0.2,0.1,0.3,0.3,0.5l1.4,0.9C278.5,381.2,278.7,381.4,278.8,381.4z"/>
				<path class="st4" d="M273.9,378.3c0.1,0,0.3,0,0.4-0.2l0.3-0.2c0.1,0,0.1-0.2,0.1-0.3c0-0.2-0.1-0.2-0.3-0.2l-0.3,0.2
					c-0.1,0.2-0.3,0.2-0.4,0l-1.4-0.9l0.3-0.2c0.1,0,0.1-0.2,0.1-0.3c0-0.2-0.1-0.2-0.3-0.2l-0.3,0.2c-0.1,0.2-0.3,0.3-0.3,0.5
					c0,0.2,0.1,0.3,0.3,0.5l1.4,0.8C273.6,378.3,273.8,378.3,273.9,378.3z"/>
				<path class="st4" d="M298.5,343.9l7.2-4.7l7.3,4.6l0,2.3l-7.2,4.6l0-2.2L298.5,343.9z"/>
				<path class="st3" d="M298.2,343.7l0,0.3l0,2.3l7.5,4.8l0.3-0.2l7.2-4.7l0-2.3l0-0.3l-7.5-4.8l-7.2,4.8L298.2,343.7z
					 M305.6,339.5l6.7,4.3l-6.6,4.4l-6.7-4.3L305.6,339.5z M306,350.2l0-1.6l3.9-2.5l2.8-1.9l0,1.6L306,350.2z"/>
				<path class="st5" d="M301.9,344.3l3.8,2.5l3.9-2.5l-3.9-2.5L301.9,344.3z"/>
				<path class="st3" d="M300.7,343.9l5-3.3l5,3.2l-5,3.3L300.7,343.9z M305.6,341.3l-4,2.7l4.1,2.6l4-2.7L305.6,341.3z"/>
				<path class="st4" d="M334.6,376.5l-0.2-21.5L297.8,379l0.2,21.8L334.6,376.5z"/>
				<path class="st4" d="M334.4,354.3l-13.8-8.9l-36.4,24.2l13.7,8.6L334.4,354.3z"/>
				<path class="st4" d="M297.7,378.4l0.2,1.9l36.6-23.9l0-2L297.7,378.4z"/>
				<path class="st5" d="M333,355.3l-12.4-8l-36.4,24.2l12.3,7.7L333,355.3z"/>
				<path class="st3" d="M283.7,369.3l0.2,23.1l14.1,9.1l36.9-24.7l-0.2-22.8l-14.1-9.1L283.7,369.3z M334.2,376.3l-2.6,1.7
					l-0.2-19.3l2.6-1.7L334.2,376.3z M304.5,396.1l-2.8,1.9l-0.2-19.7l2.8-1.9L304.5,396.1z M304.7,376.1l2.8-1.9l0.2,19.7l-2.8,1.9
					L304.7,376.1z M308,373.9l2.9-1.9l0.2,19.7l-2.8,1.9L308,373.9z M311.5,371.7l2.8-1.9l0.2,19.5l-2.8,1.9L311.5,371.7z
					 M314.8,369.6l2.8-1.9l0.2,19.5l-2.8,1.9L314.8,369.6z M318.1,367.4l2.8-1.7l0.2,19.5l-2.8,1.9L318.1,367.4z M321.4,365.2
					l2.8-1.9l0.2,19.5l-2.8,1.9L321.4,365.2z M324.7,363l2.8-1.9l0.2,19.3l-2.8,1.9L324.7,363z M328.1,360.9l2.8-1.9l0.2,19.3
					l-2.8,1.9L328.1,360.9z M298.2,380.4l2.8-1.7l0.2,19.8l-2.8,1.9L298.2,380.4z M298.2,378.4l35.9-23.6l0,1.4l-35.9,23.4l0-0.9
					l0-0.2L298.2,378.4z M284.8,369.6l35.8-23.7l13,8.3l-35.9,23.4L284.8,369.6z"/>
				<path class="st4" d="M283.7,371.3l0-0.8l14.4,9.1l0,0.8l-7.3-4.6l0.2,21.1l-0.6-0.3l-0.2-21.1L283.7,371.3z"/>
				<path class="st4" d="M293.7,390.9c0.1,0,0.3,0,0.4-0.2l0.3-0.2c0.1,0,0.1-0.2,0.1-0.3c0-0.2-0.1-0.2-0.3-0.2l-0.3,0.2
					c-0.1,0.2-0.3,0.2-0.4,0l-1.4-0.8l0.3-0.2c0.1,0,0.1-0.2,0.1-0.3c0-0.2-0.1-0.2-0.3-0.2l-0.3,0.2c-0.1,0.2-0.3,0.3-0.3,0.5
					c0,0.2,0.1,0.3,0.3,0.5l1.4,0.9C293.5,390.9,293.6,390.9,293.7,390.9z"/>
				<path class="st4" d="M288.9,388c0.1,0,0.3,0,0.4-0.2l0.3-0.2c0.1,0,0.1-0.2,0.1-0.3c0-0.2-0.1-0.2-0.3-0.2l-0.3,0.2
					c-0.1,0.2-0.3,0.2-0.4,0l-1.4-0.9l0.3-0.2c0.1,0,0.1-0.2,0.1-0.3c0-0.2-0.1-0.2-0.3-0.2l-0.3,0.2c-0.1,0.2-0.3,0.3-0.3,0.5
					c0,0.2,0.1,0.3,0.3,0.5l1.4,0.9C288.6,387.8,288.7,388,288.9,388z"/>
				<path class="st4" d="M274.4,315.7l-0.2-21.7l-36.6,24.2l0.2,21.8L274.4,315.7z"/>
				<path class="st4" d="M274.2,293.4l-13.8-8.8l-36.5,24.1l13.7,8.6L274.2,293.4z"/>
				<path class="st4" d="M237.5,317.5l0.2,2l36.6-23.9l0-2L237.5,317.5z"/>
				<path class="st5" d="M272.8,294.4l-12.4-7.8L224,310.6l12.3,7.8L272.8,294.4z"/>
				<path class="st3" d="M223.5,308.6l0.2,22.9l14.1,9.1l36.9-24.7l-0.2-22.6l-14.1-9.1L223.5,308.6z M274,315.4l-2.6,1.7l-0.2-19.3
					l2.6-1.7L274,315.4z M244.3,335.4l-2.8,1.9l-0.2-19.8l2.8-1.9L244.3,335.4z M244.6,315.2l2.8-1.9l0.2,19.7l-2.8,1.9L244.6,315.2
					z M247.9,313.2l2.9-1.9l0.2,19.7l-2.8,1.9L247.9,313.2z M251.3,311l2.8-1.9l0.2,19.5l-2.8,1.9L251.3,311z M254.6,308.7l2.8-1.9
					l0.2,19.7l-2.8,1.9L254.6,308.7z M258,306.5l2.8-1.7l0.2,19.5l-2.8,1.9L258,306.5z M261.3,304.5l2.8-1.9l0.2,19.5l-2.8,1.9
					L261.3,304.5z M264.6,302.3l2.8-1.9l0.2,19.3l-2.8,1.9L264.6,302.3z M267.9,300l2.8-1.9l0.2,19.3l-2.8,1.9L267.9,300z
					 M238.1,319.7l2.8-1.7l0.2,19.7l-2.8,1.9L238.1,319.7z M238.1,317.6l35.9-23.6l0,1.4l-35.9,23.4l0-0.9l0-0.2L238.1,317.6z
					 M224.6,308.7l35.8-23.6l13,8.3l-35.9,23.4L224.6,308.7z"/>
				<path class="st4" d="M223.5,310.5l0-0.8l14.4,9.2l0,0.8l-7.3-4.6l0.2,21.1l-0.6-0.3l-0.2-21.2L223.5,310.5z"/>
				<path class="st4" d="M233.6,330.2c0.1,0,0.3,0,0.4-0.2l0.3-0.2c0.1,0,0.1-0.2,0.1-0.3c0-0.2-0.1-0.2-0.3-0.2l-0.3,0.2
					c-0.1,0.2-0.3,0.2-0.4,0l-1.4-0.8l0.3-0.2c0.1,0,0.1-0.2,0.1-0.3c0-0.2-0.1-0.2-0.3-0.2l-0.3,0.2c-0.1,0.2-0.3,0.3-0.3,0.5
					c0,0.2,0.1,0.3,0.3,0.5l1.4,0.8C233.3,330.2,233.4,330.2,233.6,330.2z"/>
				<path class="st4" d="M228.7,327.1c0.1,0,0.3,0,0.4-0.2l0.3-0.2c0.1,0,0.1-0.2,0.1-0.3c0-0.2-0.1-0.2-0.3-0.2l-0.3,0.2
					c-0.1,0.2-0.3,0.2-0.4,0l-1.4-0.8l0.3-0.2c0.1,0,0.1-0.2,0.1-0.3c0-0.2-0.1-0.2-0.3-0.2l-0.3,0.2c-0.1,0.2-0.3,0.3-0.3,0.5
					c0,0.2,0.1,0.3,0.3,0.5l1.4,0.9C228.4,327.1,228.6,327.1,228.7,327.1z"/>
				<path class="st4" d="M253.2,292.7l7.2-4.7l7.3,4.6l0,2.2l-7.2,4.8l0-2.3L253.2,292.7z"/>
				<path class="st3" d="M253.1,292.4l0,0.3l0,2.3l7.5,4.8l0.3-0.2l7.2-4.8l0-2.3l0-0.3l-7.5-4.8l-7.2,4.7L253.1,292.4z
					 M260.4,288.3l6.7,4.3l-6.6,4.4l-6.7-4.3L260.4,288.3z M260.8,299l0-1.6l3.9-2.5l2.8-1.9l0,1.6L260.8,299z"/>
				<path class="st5" d="M256.7,293.1l3.8,2.3l3.9-2.4l-3.9-2.5L256.7,293.1z"/>
				<path class="st3" d="M255.5,292.7l5-3.3l5.2,3.2l-5,3.3L255.5,292.7z M260.4,290l-4,2.7l4.1,2.6l4-2.7L260.4,290z"/>
				<path class="st4" d="M289.4,325.3l-0.2-21.5l-36.6,24.1l0.2,21.8L289.4,325.3z"/>
				<path class="st4" d="M289.2,303.1l-13.8-8.9l-36.4,24.2l13.7,8.6L289.2,303.1z"/>
				<path class="st4" d="M252.5,327.2l0.2,1.9l36.6-23.9l0-2L252.5,327.2z"/>
				<path class="st5" d="M287.8,304.1l-12.4-8l-36.4,24.2l12.3,7.7L287.8,304.1z"/>
				<path class="st3" d="M238.5,318.1l0.2,23.1l14.1,9.1l36.9-24.7l-0.2-22.8l-14.1-9.1L238.5,318.1z M289,325.1l-2.6,1.7l-0.2-19.3
					l2.6-1.7L289,325.1z M259.3,344.9l-2.8,1.9l-0.2-19.7l2.8-1.9L259.3,344.9z M259.7,324.9l2.8-1.9l0.2,19.7l-2.8,1.9L259.7,324.9
					z M262.8,322.7l2.9-1.9l0.2,19.7l-2.8,1.9L262.8,322.7z M266.3,320.5l2.8-1.9l0.2,19.5l-2.8,1.9L266.3,320.5z M269.6,318.4
					l2.8-1.9l0.2,19.5l-2.8,1.9L269.6,318.4z M272.9,316.2l2.8-1.7l0.2,19.5l-2.8,1.9L272.9,316.2z M276.2,314l2.8-1.9l0.2,19.5
					l-2.8,1.9L276.2,314z M279.5,311.8l2.8-1.9l0.2,19.5l-2.8,1.9L279.5,311.8z M282.9,309.7l2.8-1.9l0.2,19.3l-2.8,1.9L282.9,309.7
					z M253,329.2l2.8-1.7l0.2,19.8l-2.8,1.9L253,329.2z M253,327.2l35.9-23.6l0,1.4L253,328.4l0-0.9l0-0.2L253,327.2z M239.6,318.4
					l35.8-23.7l13,8.3l-35.9,23.4L239.6,318.4z"/>
				<path class="st4" d="M238.5,320.1l0-0.8l14.4,9.1l0,0.8l-7.3-4.6l0.2,21.2l-0.4-0.5l-0.2-21.1L238.5,320.1z"/>
				<path class="st4" d="M248.7,339.7c0.1,0,0.3,0,0.4-0.2l0.3-0.2c0,0,0-0.2,0-0.3c0-0.2-0.1-0.2-0.3-0.2l-0.3,0.2
					c-0.1,0.2-0.3,0.2-0.4,0l-1.4-0.8l0.3-0.2c0.1,0,0.1-0.2,0.1-0.3c0-0.2-0.1-0.2-0.3-0.2l-0.3,0.2c-0.1,0.2-0.3,0.3-0.3,0.5
					c0,0.2,0.1,0.3,0.3,0.5l1.4,0.9C248.3,339.7,248.4,339.7,248.7,339.7z"/>
				<path class="st4" d="M243.8,336.8c0.1,0,0.3,0,0.4-0.2l0.3-0.2c0.1,0,0.1-0.2,0.1-0.3c0-0.2-0.1-0.2-0.3-0.2l-0.3,0.2
					c-0.1,0.2-0.3,0.2-0.4,0l-1.4-0.9l0.3-0.2c0.1,0,0.1-0.2,0.1-0.3c0-0.2-0.1-0.2-0.3-0.2l-0.3,0.2c-0.1,0.2-0.3,0.3-0.3,0.5
					c0,0.2,0.1,0.3,0.3,0.5l1.4,0.9C243.4,336.6,243.5,336.8,243.8,336.8z"/>
				<path class="st4" d="M304.3,334.9l-0.2-21.7l-36.6,24.1l0.2,22L304.3,334.9z"/>
				<path class="st4" d="M304.1,312.6l-13.7-8.8l-36.6,24.1l13.7,8.6L304.1,312.6z"/>
				<path class="st4" d="M267.4,336.7l0.2,2l36.6-23.9l0-2L267.4,336.7z"/>
				<path class="st5" d="M302.9,313.6l-12.4-7.8l-36.6,24.1l12.4,7.7L302.9,313.6z"/>
				<path class="st3" d="M253.6,327.8l0.2,23.1l14.1,9.1l36.9-24.8l-0.2-22.8l-14.1-9.1L253.6,327.8z M304.1,334.6l-2.6,1.7
					l-0.2-19.3l2.6-1.7L304.1,334.6z M274.2,354.6l-2.8,1.9l-0.2-19.8l2.8-1.9L274.2,354.6z M274.6,334.5l2.8-1.9l0.2,19.7l-2.8,1.9
					L274.6,334.5z M277.8,332.4l2.9-1.9l0.2,19.7l-2.8,1.9L277.8,332.4z M281.2,330.2l2.8-1.9l0.2,19.5l-2.8,1.9L281.2,330.2z
					 M284.5,328l2.8-1.9l0.2,19.5l-2.8,1.9L284.5,328z M287.9,325.7l2.8-1.7l0.2,19.5l-2.8,1.9L287.9,325.7z M291.2,323.7l2.8-1.9
					l0.2,19.5l-2.8,1.9L291.2,323.7z M294.5,321.5l2.8-1.9l0.2,19.3l-2.8,1.9L294.5,321.5z M297.9,319.2l2.8-1.9l0.2,19.3l-2.8,1.9
					L297.9,319.2z M268,338.9l2.8-1.7l0.2,19.8l-2.8,1.9L268,338.9z M268,336.9l35.9-23.6l0,1.4L268,338.1l0-0.9l0-0.2L268,336.9z
					 M254.5,327.9l35.9-23.6l13,8.3l-35.9,23.4L254.5,327.9z"/>
				<path class="st4" d="M253.6,329.7l0-0.8l14.4,9.2l0,0.6l-7.3-4.6l0.2,21.2l-0.6-0.3l-0.2-21.2L253.6,329.7z"/>
				<path class="st4" d="M263.6,349.4c0.1,0,0.3,0,0.4-0.2l0.3-0.2c0.1,0,0.1-0.2,0.1-0.3c0-0.2-0.1-0.2-0.3-0.2l-0.3,0.2
					c-0.1,0.2-0.3,0.2-0.4,0l-1.4-0.8l0.3-0.2c0.1,0,0.1-0.2,0.1-0.3c0-0.2-0.1-0.2-0.3-0.2l-0.3,0.2c-0.1,0.2-0.3,0.3-0.3,0.5
					c0,0.2,0.1,0.3,0.3,0.5l1.4,0.8C263.4,349.2,263.5,349.4,263.6,349.4z"/>
				<path class="st4" d="M258.7,346.3c0.1,0,0.3,0,0.4-0.2l0.3-0.2c0.1,0,0.1-0.2,0.1-0.3c0-0.2-0.1-0.2-0.3-0.2l-0.3,0.2
					c-0.1,0.2-0.3,0.2-0.4,0l-1.4-0.8l0.3-0.2c0.1,0,0.1-0.2,0.1-0.3c0-0.2-0.1-0.2-0.3-0.2l-0.3,0.2c-0.1,0.2-0.3,0.3-0.3,0.5
					c0,0.2,0.1,0.3,0.3,0.5l1.4,0.9C258.5,346.3,258.6,346.3,258.7,346.3z"/>
				<path class="st4" d="M263.3,325.4l7.2-4.7l7.3,4.6l0,2.2l-7.2,4.8l0-2.2L263.3,325.4z"/>
				<path class="st3" d="M263,325.2l0,0.3l0,2.3l7.5,4.8l0.3-0.2l7.2-4.7l0-2.3l0-0.3l-7.5-4.8l-7.2,4.8L263,325.2z M270.5,320.9
					l6.7,4.3l-6.6,4.4l-6.7-4.3L270.5,320.9z M270.8,331.7l0-1.6l3.9-2.5l2.8-1.9l0,1.6L270.8,331.7z"/>
				<path class="st5" d="M266.7,325.8l3.8,2.3l3.9-2.4l-3.9-2.5L266.7,325.8z"/>
				<path class="st3" d="M265.5,325.3l5-3.3l5,3.2l-5,3.3L265.5,325.3z M270.5,322.6l-4,2.7l4.1,2.6l4-2.7L270.5,322.6z"/>
			</g>
		</g>
	</g>
</g>
<g id="Слой_2">
	<g>
		<g id='big-smoke'>
			<path class="st7" d="M371.4,327.5c0-4.4-3.6-8-8-8c-4.4,0-7.9,3.5-8,7.9c-4.7,1.4-8.1,5.8-8.1,11c0,6.3,5.1,11.4,11.4,11.4
				c6.3,0,11.4-5.1,11.4-11.4c0-1.8-0.4-3.5-1.2-5C370.5,331.9,371.4,329.8,371.4,327.5z"/>
			<path class="st4" d="M348,340.4c0-0.6,6.5,5.5,12.4,3.7c6-1.8,8-10.7,8.4-10c1.9,3,1.2,11.7-6.4,14.4
				C354.9,351.2,348,345.3,348,340.4z"/>
			<path class="st4" d="M358.1,325.8c0.2-0.2,0,4,2.4,5.6c2.4,1.6,6.2-0.3,6.1,0.1c-0.5,1.6-3.9,3.9-7.1,2
				C356.2,331.5,356.3,327.2,358.1,325.8z"/>
			
				<ellipse transform="matrix(0.998 -6.330710e-02 6.330710e-02 0.998 -20.3787 22.9898)" class="st4" cx="352.6" cy="333.1" rx="2.3" ry="2.1"/>
		</g>
		<g id='little-smoke'>
			<circle class="st8" cx="352.6" cy="307.5" r="5.4"/>
			<path class="st4" d="M348,309.2c0-0.2,2.9,2.1,5.5,1.4c2.7-0.7,3.5-4,3.7-3.8c0.9,1.1,0.5,4.4-2.8,5.4
				C351,313.3,348,311,348,309.2z"/>
			<circle class="st8" cx="356.4" cy="302.8" r="5.4"/>
			<circle class="st8" cx="358.8" cy="290" r="2.3"/>
			<circle class="st8" cx="351.4" cy="301" r="5"/>
			
				<ellipse transform="matrix(0.7071 -0.7071 0.7071 0.7071 -108.6451 334.6557)" class="st4" cx="349.6" cy="298.5" rx="1.7" ry="1.1"/>
		</g>
	</g>
</g>
</svg>
