<svg width="33" height="35" viewBox="0 0 33 35" fill="none" xmlns="http://www.w3.org/2000/svg">
<g clip-path="url(#clip0_145_11754)">
<path d="M17.0879 2.95655C16.8492 2.85488 16.5827 2.85488 16.3439 2.95655L4.40794 8.02892L9.21594 10.071L21.5239 4.84142L17.0879 2.95655ZM24.2159 5.9868L11.9079 11.2164L16.7159 13.2585L29.0239 8.02892L24.2159 5.9868V5.9868ZM30.7159 9.5993L17.7159 15.1243V31.9585L30.7159 26.4335V9.60142V9.5993ZM15.7159 31.9607V15.1222L2.71594 9.5993V26.4357L15.7159 31.9607V31.9607ZM15.6019 0.982424C16.3171 0.678547 17.1148 0.678547 17.8299 0.982424L32.0879 7.04292C32.2733 7.12186 32.4322 7.25796 32.5441 7.43369C32.6561 7.60942 32.7159 7.81674 32.7159 8.02892V26.4357C32.7157 26.8603 32.5957 27.2751 32.3715 27.6266C32.1473 27.9781 31.8291 28.2501 31.4579 28.4077L17.0879 34.5149C16.8492 34.6166 16.5827 34.6166 16.3439 34.5149L1.97594 28.4077C1.60444 28.2505 1.28583 27.9786 1.06123 27.627C0.836626 27.2755 0.716355 26.8605 0.715942 26.4357V8.02892C0.715989 7.81674 0.77583 7.60942 0.887756 7.43369C0.999683 7.25796 1.15857 7.12186 1.34394 7.04292L15.6019 0.982424Z" fill="black"/>
</g>
<defs>
<clipPath id="clip0_145_11754">
<rect width="32" height="34" fill="white" transform="translate(0.715942 0.591431)"/>
</clipPath>
</defs>
</svg>
