<svg width="26" height="33" viewBox="0 0 26 33" fill="none" xmlns="http://www.w3.org/2000/svg">
<path d="M11.7071 19.6432L22.3422 25.7751L11.7071 32.1945V28.6133C7.73193 27.2937 0.394335 21.9854 0.929617 14.8929C1.4649 7.80045 4.46535 4.76727 6.13811 3.68927L3.76179 7.90531L3.05201 11.9863C2.66476 13.3905 2.50004 22.8144 11.7071 22.5914V19.6432Z" fill="white"/>
<path d="M21.7409 19.53C28.1996 10.6976 20.4073 1.63969 12.7981 2.03076C6.38564 2.36033 1.11297 8.76664 2.04645 15.6521" stroke="white" stroke-width="2.04891" stroke-linecap="round" stroke-linejoin="round"/>
<path d="M12.6654 2.62244C11.8286 3.0873 5.5994 10.7111 9.87617 19.2646" stroke="white" stroke-width="1.70743" stroke-linecap="round"/>
<path d="M16.9582 19.2646C17.5571 18.5178 20.4405 9.10447 13.2465 2.80361" stroke="white" stroke-width="1.70743" stroke-linecap="round"/>
<path d="M5.63342 6.08698C12.6684 10.4838 19.8145 6.19065 20.6682 5.68475" stroke="white" stroke-width="1.70743" stroke-linecap="round"/>
<path d="M3.07703 16.5964C12.5089 11.2574 18.4152 14.7311 22.3422 16.5964" stroke="white" stroke-width="1.70743" stroke-linecap="round"/>
</svg>
