<svg width="33" height="34" viewBox="0 0 33 34" fill="none" xmlns="http://www.w3.org/2000/svg">
<path d="M11.2685 5.08608C11.2685 4.87261 11.3533 4.66788 11.5042 4.51694C11.6552 4.36599 11.8599 4.28119 12.0734 4.28119H20.1223C20.3358 4.28119 20.5405 4.36599 20.6914 4.51694C20.8424 4.66788 20.9272 4.87261 20.9272 5.08608V9.04777H24.9517C25.1651 9.04777 25.3699 9.13257 25.5208 9.28352C25.6718 9.43446 25.7566 9.63919 25.7566 9.85266V16.3932L28.3869 17.1257C28.5005 17.1571 28.6058 17.2131 28.6954 17.2897C28.7849 17.3663 28.8566 17.4616 28.9052 17.569C28.9539 17.6763 28.9784 17.793 28.977 17.9108C28.9757 18.0287 28.9484 18.1448 28.8973 18.2509L25.9594 24.3488C25.682 24.0354 25.3278 23.7995 24.9317 23.6642C24.5356 23.5289 24.1111 23.4989 23.6999 23.5772C23.2887 23.6554 22.905 23.8392 22.5862 24.1105C22.2675 24.3818 22.0247 24.7313 21.8818 25.1247C21.736 25.4526 21.5488 25.7604 21.3248 26.0407C20.9079 26.5542 20.5231 26.7554 20.1336 26.7554C19.7472 26.7554 19.3577 26.5526 18.9327 26.031C18.697 25.7366 18.501 25.4124 18.3499 25.0668C18.1731 24.6076 17.8602 24.2135 17.4532 23.9371C17.0462 23.6607 16.5645 23.5152 16.0725 23.5201C15.5806 23.525 15.1018 23.68 14.7004 23.9645C14.299 24.249 13.9941 24.6493 13.8264 25.1118C13.6791 25.4419 13.4903 25.7519 13.2646 26.0342C12.8461 26.5542 12.4597 26.7554 12.0734 26.7554C11.6854 26.7554 11.3007 26.5542 10.8837 26.0407C10.6514 25.7498 10.4587 25.4293 10.3106 25.0877C10.16 24.694 9.90882 24.3466 9.58222 24.08C9.25561 23.8135 8.86491 23.6371 8.44898 23.5684C8.03305 23.4997 7.60638 23.5411 7.2114 23.6884C6.81643 23.8358 6.46692 24.084 6.19764 24.4084L3.2968 18.2429C3.2471 18.137 3.22107 18.0215 3.22053 17.9046C3.21999 17.7876 3.24495 17.6719 3.29368 17.5656C3.34241 17.4592 3.41373 17.3648 3.50267 17.2888C3.59162 17.2128 3.69606 17.1572 3.80871 17.1257L6.43911 16.3932V9.85266C6.43911 9.63919 6.52391 9.43446 6.67485 9.28352C6.8258 9.13257 7.03053 9.04777 7.244 9.04777H11.2685V5.08769V5.08608ZM19.3174 5.89098H12.8783V9.04777H19.3174V5.89259V5.89098ZM24.1468 15.9457V10.6576H8.04889V15.9441L14.7939 14.0623C15.6422 13.8258 16.539 13.8258 17.3873 14.0623L24.1468 15.9457Z" fill="white"/>
<path d="M18.35 25.0667L18.3532 25.0748V25.0796L18.35 25.0667V25.0667Z" fill="white"/>
<path d="M24.9324 25.7735L24.9276 25.7574C24.8862 25.5908 24.7927 25.4419 24.6606 25.3323C24.5286 25.2226 24.365 25.1581 24.1937 25.148C24.0224 25.1379 23.8523 25.1829 23.7084 25.2763C23.5644 25.3697 23.4541 25.5067 23.3935 25.6672L23.3854 25.6849C23.379 25.701 23.3693 25.73 23.3532 25.7654C23.1481 26.2268 22.8841 26.6597 22.5676 27.0532C21.9913 27.7615 21.1913 28.3652 20.1224 28.3652C19.0535 28.3652 18.2518 27.7599 17.6723 27.0516C17.3364 26.6352 17.0591 26.1749 16.8481 25.6833L16.84 25.664C16.7814 25.5115 16.6779 25.3805 16.543 25.2883C16.4082 25.1961 16.2486 25.1471 16.0852 25.1478C15.9219 25.1484 15.7626 25.1988 15.6286 25.2922C15.4946 25.3855 15.3921 25.5175 15.3349 25.6704L15.3268 25.6865C15.3204 25.7026 15.3107 25.7316 15.2946 25.767C15.0908 26.2279 14.8278 26.6603 14.5123 27.0532C13.9392 27.7615 13.1423 28.3652 12.0734 28.3652C11.0045 28.3652 10.2061 27.7615 9.62978 27.0532C9.29475 26.6369 9.0185 26.1765 8.80879 25.6849L8.80235 25.6688V25.6656C8.74188 25.505 8.63168 25.368 8.48783 25.2745C8.34398 25.1809 8.17402 25.1358 8.00273 25.1457C7.83143 25.1556 7.66778 25.22 7.53565 25.3294C7.40352 25.4389 7.30982 25.5877 7.26822 25.7541L7.265 25.767L7.24246 25.8427C7.09548 26.2858 6.87865 26.7026 6.60016 27.0774C6.10595 27.7358 5.31877 28.3652 4.0245 28.3652C3.81103 28.3652 3.6063 28.45 3.45535 28.601C3.30441 28.7519 3.2196 28.9566 3.2196 29.1701C3.2196 29.3836 3.30441 29.5883 3.45535 29.7392C3.6063 29.8902 3.81103 29.975 4.0245 29.975C5.9498 29.975 7.17485 28.9946 7.88799 28.0432C7.96848 27.9338 8.04575 27.8259 8.11336 27.7181C8.19546 27.834 8.284 27.9499 8.38058 28.0674C9.11143 28.9689 10.3252 29.975 12.0734 29.975C13.8217 29.975 15.0322 28.9689 15.7631 28.0674C15.8838 27.9177 15.9933 27.7696 16.0915 27.6247C16.1929 27.7696 16.304 27.9193 16.4247 28.069C17.1604 28.9705 18.3741 29.975 20.1224 29.975C21.8706 29.975 23.0844 28.9689 23.8152 28.0674C23.9086 27.9547 23.9955 27.8388 24.076 27.7261C24.1452 27.8356 24.2209 27.9451 24.3014 28.0545C25.0161 29.014 26.2444 29.9975 28.181 29.975C28.2867 29.9737 28.3911 29.9517 28.4882 29.91C28.5854 29.8684 28.6734 29.8081 28.7473 29.7324C28.8211 29.6568 28.8794 29.5673 28.9186 29.4692C28.9579 29.3711 28.9775 29.2661 28.9762 29.1604C28.9749 29.0547 28.9529 28.9503 28.9112 28.8532C28.8696 28.756 28.8093 28.668 28.7336 28.5941C28.658 28.5203 28.5685 28.4621 28.4704 28.4228C28.3723 28.3835 28.2673 28.3639 28.1616 28.3652C26.869 28.3813 26.085 27.7535 25.594 27.0935C25.3156 26.7157 25.0998 26.2955 24.955 25.8491L24.9324 25.7718V25.7735Z" fill="white"/>
</svg>
