<svg width="416" height="449" viewBox="0 0 416 449" fill="none" xmlns="http://www.w3.org/2000/svg">
<g clip-path="url(#clip0_147_10961)">
<path d="M94.7612 192.428L92.8652 418.476C53.5903 417.368 22.1703 384.402 22.1703 343.403L23.2538 166.942L94.7612 192.428Z" fill="#620E66"/>
<path d="M322.556 193.259L322.827 419.307C362.102 418.476 393.522 385.51 393.522 344.788V168.327L322.556 193.259Z" fill="#93118B"/>
<path d="M182.791 420.692H237.505C245.902 420.692 252.674 413.766 252.674 405.456V159.739C252.674 152.814 257.007 146.996 263.237 145.057L387.834 106.551C396.23 104.058 400.564 94.9166 397.585 86.606L381.604 41.7289C378.895 33.9723 371.04 30.0941 363.185 32.3102L213.67 73.0321C211.232 73.8632 208.252 73.8632 205.815 73.0321L55.7572 32.3102C47.9022 30.0941 40.3181 34.5263 37.3386 41.7289L21.3578 86.606C18.6491 94.9166 22.712 104.058 31.1088 106.551L155.705 145.057C161.935 146.996 166.269 153.091 166.269 159.739V405.456C167.623 413.766 174.665 420.692 182.791 420.692Z" fill="url(#paint0_linear_147_10961)"/>
</g>
<g clip-path="url(#clip1_147_10961)">
    <path d="M181.334 392.867L197.766 382.593L192 380.971L181.334 375.023V392.867Z" fill="#98509B"/>
    <path d="M180.469 394.219V373.942L192.577 380.43L199.495 382.593L180.469 394.219ZM181.911 376.375V391.515L195.748 382.863L191.712 381.512L181.911 376.375Z" fill="#16110D"/>
    <path d="M210.738 366.371L192 380.971L201.225 386.108L202.954 385.297C206.125 383.675 209.008 383.945 210.449 386.378L213.332 391.245C214.197 392.867 214.197 390.163 216.503 389.082L222.557 389.893H228.034L230.34 385.837L235.817 382.863L267.815 365.56C270.409 364.208 272.427 361.505 273.58 358.531C274.445 356.097 278.481 353.394 280.499 352.312L281.652 351.772C284.246 350.42 286.552 346.905 286.552 343.931V335.009L210.738 366.371Z" fill="#98509B"/>
    <path d="M213.909 392.326C213.332 392.326 212.756 391.785 212.756 391.515L209.873 386.648C209.296 385.837 208.72 385.297 207.855 385.026C206.702 384.756 204.972 385.026 203.531 385.837L201.513 386.919L190.847 380.971L210.449 365.831L287.129 333.387V343.39C287.129 346.635 284.823 350.149 281.94 351.772L280.787 352.312C278.481 353.664 274.733 356.097 274.157 357.99C273.292 361.234 270.698 364.208 268.103 365.56L230.628 385.837L228.61 390.434H222.557L216.791 389.622C216.215 390.163 215.638 390.704 215.35 391.245C215.062 391.785 214.773 392.326 213.909 392.326ZM206.702 383.404C207.278 383.404 207.855 383.404 208.143 383.674C209.585 383.945 210.449 384.756 211.026 386.108L213.62 390.704C213.909 390.163 214.485 389.082 215.638 388.541H215.927L222.268 389.622H227.169L229.187 385.567L234.952 382.323L266.95 365.019C269.256 363.668 271.274 360.964 272.139 358.26C273.004 355.016 278.769 352.042 279.634 351.501L280.787 350.961C283.093 349.609 285.111 346.364 285.111 343.931V336.091L211.314 366.912L193.442 380.7L201.225 385.026L202.666 384.215C204.108 383.674 205.549 383.404 206.702 383.404Z" fill="#16110D"/>
    <path d="M207.567 374.482C205.261 373.13 201.801 373.13 198.054 375.293C190.847 379.078 185.082 388.811 185.082 396.652C185.082 400.167 186.235 402.87 188.253 404.222C188.541 404.492 188.829 404.763 189.406 404.763L199.207 409.9L206.99 401.518L217.368 385.837V379.619L207.567 374.482Z" fill="#98509B"/>
    <path d="M196.613 395.03L188.541 390.704C188.253 391.245 188.253 391.785 187.964 392.056L195.459 396.111L207.567 405.304L206.702 406.385L205.549 407.737L204.972 408.548L207.855 405.304L208.72 404.222L196.613 395.03Z" fill="#FFE1FA"/>
    <path d="M211.314 400.167L218.233 389.623V383.404L208.72 378.267C206.414 376.916 202.954 376.916 199.207 379.078C195.459 380.971 192.288 384.486 189.982 388.271L211.314 400.167Z" fill="#FFE1FA"/>
    <path d="M198.63 410.44L188.829 405.304C188.541 405.033 187.964 405.033 187.676 404.763L187.388 404.222C185.37 402.6 184.217 399.896 184.217 396.382C184.217 388.271 190.271 378.538 197.766 374.482C201.513 372.319 204.972 372.049 207.855 373.671H208.143L217.944 379.078V385.837L207.567 401.789L198.63 410.44ZM188.829 403.411C189.118 403.681 189.406 403.681 189.694 403.952L198.919 408.818L206.414 400.978L216.503 385.567V379.889L207.855 375.293L207.278 375.023C204.972 373.671 201.801 373.941 198.63 375.834C191.712 379.619 185.947 388.811 185.947 396.382C185.947 399.626 186.811 402.059 188.829 403.411Z" fill="#16110D"/>
    <path d="M220.827 387.46C220.827 395.3 215.062 404.763 207.855 408.818C200.648 412.603 194.883 409.629 194.883 401.789C194.883 393.948 200.648 384.486 207.855 380.43C215.062 376.375 220.827 379.619 220.827 387.46Z" fill="#16110D"/>
    <path d="M202.09 411.252C200.648 411.252 199.495 410.981 198.342 410.441C195.748 409.089 194.018 405.844 194.018 401.789C194.018 393.678 200.072 383.945 207.567 379.89C211.314 377.997 214.773 377.456 217.656 379.078C220.251 380.43 221.98 383.675 221.98 387.73C221.98 395.841 215.927 405.574 208.432 409.629C206.125 410.441 203.819 411.252 202.09 411.252ZM213.62 379.349C211.891 379.349 210.161 379.89 208.143 380.971C201.225 384.756 195.459 393.948 195.459 401.519C195.459 405.033 196.613 407.737 198.919 408.818C201.225 409.9 204.108 409.629 207.278 408.007C214.197 404.222 219.962 395.03 219.962 387.46C219.962 383.945 218.809 381.241 216.503 380.16C215.927 379.619 214.773 379.349 213.62 379.349Z" fill="#16110D"/>
    <path d="M203.819 405.844C202.954 405.844 202.09 405.574 201.225 405.304C199.495 404.222 198.342 402.33 198.342 399.356C198.342 393.948 202.378 387.189 207.567 384.486C210.161 383.134 212.467 382.863 214.485 383.945C216.215 385.026 217.368 386.919 217.368 389.893C217.368 395.3 213.332 402.059 208.143 404.763C206.702 405.304 205.261 405.844 203.819 405.844ZM211.891 384.486C210.738 384.486 209.585 384.756 208.432 385.567C203.819 388 200.072 394.219 200.072 399.356C200.072 401.789 200.937 403.411 202.378 404.222C203.819 405.033 205.837 404.763 207.855 403.681C212.467 401.248 216.215 395.03 216.215 389.893C216.215 387.46 215.35 385.837 213.909 385.026C213.044 384.756 212.467 384.486 211.891 384.486Z" fill="#98509B"/>
    <path d="M203.819 405.844C202.09 405.844 200.648 405.304 199.784 403.952V402.87H200.36C201.513 402.87 202.954 402.6 204.396 401.789C209.008 399.356 212.756 393.137 212.756 388C212.756 386.378 212.467 385.026 211.603 384.215L212.179 383.134C215.35 383.404 217.368 385.838 217.368 389.623C217.368 395.03 213.332 401.789 208.143 404.493C206.702 405.304 205.261 405.844 203.819 405.844ZM201.801 403.952C203.243 404.763 205.261 404.763 207.567 403.411C212.179 400.978 215.927 394.76 215.927 389.623C215.927 387.189 215.062 385.297 213.332 384.756C213.62 385.567 213.909 386.919 213.909 388C213.909 393.408 209.873 400.167 204.684 402.87C203.819 403.411 202.954 403.952 201.801 403.952Z" fill="#98509B"/>
    <path d="M203.819 402.33L198.342 399.356V399.085C198.342 394.219 201.801 388.271 206.414 385.297L206.702 385.026L211.891 388C212.179 388 212.179 388.271 212.467 388.541C212.756 388.811 212.467 389.082 212.467 389.352L203.819 402.33ZM199.783 398.545L203.531 400.437L211.026 388.541L206.702 386.108C202.954 389.352 200.072 394.219 199.783 398.545Z" fill="#98509B"/>
    <path d="M213.332 391.785C213.332 395.3 210.738 399.356 207.567 400.978C204.396 402.6 201.801 401.248 201.801 398.004C201.801 394.489 204.396 390.434 207.567 388.811C210.738 387.189 213.332 388.541 213.332 391.785Z" fill="#16110D"/>
    <path d="M204.972 402.6C204.396 402.6 203.819 402.33 203.243 402.059C202.09 401.248 201.225 399.896 201.225 398.004C201.225 394.489 203.819 390.163 207.278 388.271C209.008 387.46 210.738 387.189 211.891 388C213.044 388.811 213.909 390.163 213.909 392.056C213.909 395.571 211.314 399.896 207.855 401.789C206.99 402.33 206.125 402.6 204.972 402.6ZM210.161 388.811C209.585 388.811 208.72 389.082 207.855 389.352C204.972 390.974 202.378 394.759 202.378 398.004C202.378 399.356 202.954 400.437 203.819 400.978C204.684 401.519 205.837 401.248 207.278 400.707C210.161 399.085 212.756 395.3 212.756 392.056C212.756 390.704 212.179 389.623 211.314 389.082C211.026 388.811 210.738 388.811 210.161 388.811Z" fill="#98509B"/>
    <path d="M159.426 348.527C157.12 347.176 153.66 347.176 149.913 349.338C142.706 353.124 136.941 362.857 136.941 370.697C136.941 374.212 138.094 376.915 140.112 378.267C140.4 378.538 140.688 378.808 141.265 378.808L151.066 383.945L158.849 375.564L169.227 359.883V353.664L159.426 348.527Z" fill="#98509B"/>
    <path d="M148.183 369.075L140.112 364.749C139.824 365.29 139.824 365.831 139.535 366.101L147.03 370.156L159.138 379.349L158.273 380.43L157.12 381.782L156.543 382.593L159.426 379.349L160.291 378.267L148.183 369.075Z" fill="#FFE1FA"/>
    <path d="M162.885 374.212L169.804 363.668V357.449L160.291 352.313C157.985 350.961 154.525 350.961 150.778 353.124C147.03 355.016 143.859 358.531 141.553 362.316L162.885 374.212Z" fill="#FFE1FA"/>
    <path d="M150.49 384.486L140.977 379.349C140.688 379.078 140.112 379.078 139.824 378.808L139.535 378.538C137.517 376.915 136.364 374.212 136.364 370.697C136.364 362.586 142.418 352.853 149.913 348.798C153.66 346.635 157.12 346.364 160.002 347.987H160.291L170.092 353.394V360.153L159.714 376.104L150.49 384.486ZM140.688 377.456C140.977 377.727 141.265 377.727 141.553 377.997L150.778 382.863L158.273 375.023L168.362 359.612V353.935L159.714 349.338L159.138 349.068C156.831 347.716 153.66 347.987 150.49 349.879C143.571 353.664 137.806 362.857 137.806 370.427C137.517 373.671 138.671 376.104 140.688 377.456Z" fill="#16110D"/>
    <path d="M172.686 361.505C172.686 369.345 166.921 378.808 159.714 382.863C152.507 386.649 146.742 383.675 146.742 375.834C146.742 367.994 152.507 358.531 159.714 354.475C166.921 350.69 172.686 353.664 172.686 361.505Z" fill="#16110D"/>
    <path d="M153.949 385.297C152.507 385.297 151.354 385.026 150.201 384.486C147.607 383.134 145.877 379.89 145.877 375.834C145.877 367.723 151.931 357.99 159.426 353.935C163.173 352.042 166.633 351.501 169.515 353.124C172.11 354.475 173.839 357.72 173.839 361.775C173.839 369.886 167.786 379.619 160.291 383.675C157.985 384.756 155.678 385.297 153.949 385.297ZM165.48 353.664C163.75 353.664 162.02 354.205 160.002 355.287C153.084 359.072 147.319 368.264 147.319 375.834C147.319 379.349 148.472 382.052 150.778 383.134C153.084 384.215 155.967 383.945 159.138 382.323C166.056 378.538 171.821 369.345 171.821 361.775C171.821 358.261 170.668 355.557 168.362 354.475C167.497 353.935 166.633 353.664 165.48 353.664Z" fill="#16110D"/>
    <path d="M155.678 379.89C154.814 379.89 153.949 379.619 153.084 379.349C151.354 378.267 150.201 376.375 150.201 373.401C150.201 367.994 154.237 361.235 159.426 358.531C162.02 357.179 164.326 356.909 166.344 357.99C168.074 359.072 169.227 360.964 169.227 363.938C169.227 369.345 165.191 376.105 160.002 378.808C158.561 379.619 157.12 379.89 155.678 379.89ZM163.462 358.801C162.309 358.801 161.156 359.072 160.002 359.883C155.39 362.316 151.643 368.534 151.643 373.671C151.643 376.105 152.507 377.727 153.949 378.538C155.39 379.349 157.408 379.079 159.426 377.997C164.038 375.564 167.786 369.345 167.786 364.209C167.786 361.775 166.921 360.153 165.48 359.342C164.903 358.801 164.326 358.801 163.462 358.801Z" fill="#98509B"/>
    <path d="M155.678 379.89C153.949 379.89 152.507 379.349 151.643 377.997V376.916H152.219C153.372 376.916 154.814 376.645 156.255 375.834C160.867 373.401 164.615 367.183 164.615 362.046C164.615 360.423 164.326 359.072 163.462 358.261L164.038 357.179C167.209 357.449 169.227 359.883 169.227 363.668C169.227 369.075 165.191 375.834 160.002 378.538C158.561 379.619 157.12 379.89 155.678 379.89ZM153.66 377.997C155.102 378.808 157.12 378.808 159.426 377.456C164.038 375.023 167.786 368.805 167.786 363.668C167.786 361.235 166.921 359.342 165.191 358.801C165.48 359.612 165.768 360.964 165.768 362.046C165.768 367.453 161.732 374.212 156.543 376.916C155.678 377.456 154.525 377.997 153.66 377.997Z" fill="#98509B"/>
    <path d="M155.678 376.375L150.201 373.401V373.13C150.201 368.264 153.661 362.316 158.273 359.342L158.561 359.072L163.75 362.046C164.038 362.046 164.038 362.316 164.326 362.586C164.326 362.857 164.326 363.127 164.326 363.397L155.678 376.375ZM151.643 372.86L155.39 374.753L162.885 362.857L158.561 360.694C154.814 363.397 151.931 368.534 151.643 372.86Z" fill="#98509B"/>
    <path d="M165.191 366.101C165.191 369.616 162.597 373.671 159.426 375.293C156.255 376.916 153.66 375.564 153.66 372.319C153.66 369.075 156.255 364.749 159.426 363.127C162.597 361.235 165.191 362.586 165.191 366.101Z" fill="#16110D"/>
    <path d="M156.831 376.645C156.255 376.645 155.678 376.375 155.102 376.105C153.949 375.293 153.084 373.942 153.084 372.049C153.084 368.534 155.678 364.209 159.138 362.316C160.867 361.505 162.597 361.235 163.75 362.046C164.903 362.857 165.768 364.209 165.768 366.101C165.768 369.616 163.173 373.942 159.714 375.834C158.849 376.375 157.696 376.645 156.831 376.645ZM162.02 362.857C161.444 362.857 160.579 363.127 159.714 363.397C156.831 365.02 154.237 368.805 154.237 372.049C154.237 373.401 154.814 374.482 155.678 375.023C156.543 375.564 157.696 375.293 159.138 374.753C162.02 373.131 164.615 369.345 164.615 366.101C164.615 364.749 164.038 363.668 163.173 363.127C162.885 362.857 162.309 362.857 162.02 362.857Z" fill="#98509B"/>
    <path d="M276.463 238.76L223.133 210.101L222.845 209.831H222.557C221.692 209.561 220.539 209.561 219.386 210.101L188.829 225.242C185.37 226.864 181.911 230.649 179.893 234.704L168.65 257.415C156.255 282.288 147.319 307.973 142.418 332.576L138.671 352.042L192.288 380.971L228.61 314.191L229.187 313.921C231.205 312.839 232.934 310.136 232.934 307.702V305.81L250.519 273.096L276.463 238.76Z" fill="#98509B"/>
    <path d="M276.463 242.545L223.133 213.887L222.845 213.616H222.557C221.692 213.346 220.539 213.346 219.386 213.887L190.559 228.486C187.1 230.108 183.64 233.893 181.623 237.949L170.092 260.659C157.696 285.533 148.76 311.217 143.859 335.82L138.094 355.827L187.964 378.808L192 380.971L228.034 317.976L228.61 317.706C230.628 316.624 232.358 313.921 232.358 311.488V309.595L250.519 276.881L276.463 242.545Z" fill="#FFE1FA"/>
    <path d="M192.288 381.512L137.806 352.312L141.841 332.306C146.742 307.432 155.678 282.288 168.074 257.145L179.316 234.434C181.334 230.108 184.794 226.323 188.541 224.701L219.097 209.561C220.827 208.75 222.268 208.75 223.133 209.02H223.421C223.421 209.02 223.71 209.29 223.998 209.29L278.193 238.219L251.672 273.096L234.087 305.54V307.162C234.087 309.595 232.358 312.569 229.763 313.921L229.187 314.191L192.288 381.512ZM139.535 351.772L192 379.889L227.746 313.38L228.61 312.839C230.34 311.758 232.07 309.325 232.07 307.162V304.999L249.654 272.285L275.31 239.03L222.845 210.642C222.557 210.642 222.557 210.372 222.557 210.372C221.692 210.101 220.827 210.101 219.962 210.642L189.406 225.782C185.947 227.405 182.776 230.919 180.758 234.975L169.227 257.956C156.831 282.829 148.183 308.243 143.283 332.846L139.535 351.772Z" fill="#16110D"/>
    <path d="M299.524 284.992L261.473 264.444L261.185 264.174C260.032 263.633 258.302 263.633 256.284 264.715L255.419 265.255C253.69 266.337 252.248 268.5 252.248 270.392V313.65C252.248 314.732 252.537 315.273 253.113 315.543L290.876 336.361C291.165 336.631 291.453 336.361 291.741 336.091C292.606 331.224 298.66 299.862 298.66 299.051C298.66 298.24 295.777 290.129 295.777 290.129L299.524 284.992Z" fill="#98509B"/>
    <path d="M291.165 336.902C290.876 336.902 290.588 336.902 290.588 336.631L252.537 316.084C251.672 315.543 251.095 314.732 251.095 313.38V270.122C251.095 267.959 252.537 265.526 254.554 264.444L255.419 263.904C257.437 262.822 259.455 262.552 261.185 263.363C261.473 263.363 261.473 263.633 261.761 263.633L300.389 284.451L296.93 290.129C297.795 292.292 299.524 297.969 299.524 299.051C299.524 299.862 294.624 325.276 292.606 336.361C292.606 336.631 292.318 337.172 292.029 337.172C291.453 336.902 291.453 336.902 291.165 336.902ZM259.455 264.715C258.59 264.715 257.725 264.985 256.572 265.526L255.419 266.067C253.978 266.878 252.537 269.041 252.537 270.663V313.921C252.537 314.462 252.825 315.002 253.113 315.273L290.588 335.55C294.047 317.976 297.506 299.862 297.506 299.051C297.506 298.51 296.065 294.184 294.912 290.399V290.129L298.083 285.533L260.896 265.526C260.608 265.526 260.608 265.256 260.608 265.256C260.32 264.715 259.743 264.715 259.455 264.715Z" fill="#16110D"/>
    <path d="M192 380.971L195.748 361.505C200.648 336.902 209.585 311.488 221.98 286.344L233.223 263.633C235.24 259.578 238.7 255.793 242.159 254.171L272.715 239.03C275.598 237.678 277.904 239.03 277.904 242.004V289.588C277.904 291.21 278.481 292.292 279.634 292.562L284.246 293.914C285.399 294.184 286.264 295.536 286.264 297.158V336.361C286.264 338.524 284.534 341.498 282.517 342.579L273.868 347.175C271.274 348.527 268.968 351.772 268.103 354.746L264.644 367.453C264.067 369.616 262.338 371.778 260.608 372.86L230.628 389.082C228.61 390.163 226.881 389.622 226.304 388L223.998 380.43C223.133 377.726 221.692 375.564 219.962 374.212C215.926 370.967 209.296 371.238 202.666 375.023L192 380.971Z" fill="#16110D"/>
    <path d="M228.61 390.434C228.322 390.434 227.746 390.434 227.457 390.163C226.592 389.893 226.016 389.082 225.728 388L223.421 380.43C222.557 377.997 221.404 375.834 219.674 374.482C215.926 371.508 209.873 371.779 203.243 375.293L192.288 381.241L191.424 380.701L195.459 360.694C200.36 335.82 209.296 310.677 221.692 285.533L232.934 262.822C234.952 258.496 238.411 254.711 242.159 253.089L272.715 237.949C274.445 237.138 275.886 237.138 277.328 237.678C278.481 238.49 279.346 239.841 279.346 241.734V289.318C279.346 290.399 279.922 291.21 280.499 291.481L285.111 292.833C286.552 293.373 287.417 294.725 287.417 296.618V336.361C287.417 338.794 285.687 341.768 283.093 343.12L274.445 347.716C272.139 349.068 269.833 352.042 268.968 355.016L265.509 367.723C264.932 370.156 262.914 372.59 260.896 373.671L230.916 389.893C230.34 390.163 229.475 390.434 228.61 390.434ZM213.332 371.238C216.215 371.238 218.809 372.049 220.827 373.671C222.845 375.293 224.286 377.456 225.151 380.16L227.457 387.73C227.457 388 227.746 388.541 228.322 388.811C228.899 389.082 229.763 388.811 230.34 388.541L260.32 372.319C262.049 371.508 263.491 369.345 264.067 367.453L267.527 354.746C268.391 351.501 270.986 348.257 273.58 346.635L282.228 342.039C283.958 340.957 285.687 338.524 285.687 336.631V297.158C285.687 295.807 285.111 294.995 284.246 294.725L279.634 293.103C278.192 292.562 277.328 291.21 277.328 289.588V242.004C277.328 240.652 277.039 239.841 276.175 239.301C275.31 238.76 274.445 239.03 273.292 239.571L242.735 254.711C239.276 256.334 236.105 259.848 234.087 263.904L222.845 286.614C210.449 311.488 201.801 336.902 196.901 361.505L193.153 379.349L202.378 374.212C206.125 372.319 209.873 371.238 213.332 371.238Z" fill="#16110D"/>
    <path d="M270.698 250.386C270.698 248.223 269.256 247.412 267.238 248.493L245.618 259.308C242.159 260.93 238.123 266.067 236.105 270.122L228.322 285.533C216.503 309.595 207.855 334.469 202.954 358.26L201.513 366.101L207.278 363.127C213.044 360.153 217.656 359.883 221.98 360.964C225.439 361.775 228.034 364.208 228.322 364.749C228.899 365.56 230.052 365.831 231.205 365.02L246.483 356.638C248.213 355.827 249.366 353.935 249.654 352.042L254.554 323.654C254.843 322.032 255.708 320.139 257.149 319.058L268.103 308.784C269.833 307.162 270.986 304.999 270.986 302.836V250.386H270.698Z" fill="#98509B"/>
    <path d="M200.36 367.453L202.378 357.99C207.278 333.928 215.638 309.325 227.746 285.262L235.529 269.852C237.547 265.796 241.871 260.389 245.33 258.496L266.95 247.682C268.103 247.141 269.256 247.141 270.121 247.682C270.986 248.223 271.562 249.304 271.562 250.386V302.836C271.562 304.999 270.409 307.432 268.68 309.054L257.725 319.328C256.572 320.41 255.708 322.032 255.419 323.654L250.519 352.042C250.23 354.205 248.789 356.368 246.771 357.179L231.493 365.56C230.052 366.371 228.322 366.101 227.746 365.019C227.457 364.479 225.151 362.316 221.98 361.505C217.368 360.423 212.756 360.964 207.855 363.397L200.36 367.453ZM217.08 359.612C218.809 359.612 220.251 359.883 221.98 360.153C225.728 361.234 228.322 363.668 228.899 364.479C229.187 365.019 230.34 364.749 230.628 364.479L245.906 356.097C247.348 355.286 248.501 353.664 248.789 352.042L253.69 323.654C253.978 321.761 255.131 319.869 256.572 318.517L267.527 308.243C268.968 306.891 270.121 304.729 270.121 302.836V250.386C270.121 249.574 269.833 249.034 269.544 248.763C269.256 248.493 268.68 248.493 267.815 249.034L246.195 259.848C243.024 261.47 238.988 266.607 236.97 270.392L229.187 285.803C217.08 309.865 208.72 334.468 203.819 358.26L202.666 364.479L206.702 362.316C210.161 360.423 213.909 359.612 217.08 359.612Z" fill="#16110D"/>
    <path d="M267.238 248.493L265.22 249.304V301.214C265.22 303.106 264.067 305.54 262.338 307.162L251.383 317.436C249.942 318.787 249.077 320.41 248.789 322.032L243.889 350.42C243.6 352.312 242.159 354.205 240.718 355.016L226.016 362.857C227.169 363.668 227.745 364.479 228.034 364.749C228.61 365.56 229.763 365.831 230.916 365.02L246.195 356.638C247.924 355.827 249.077 353.935 249.366 352.042L254.266 323.654C254.554 322.032 255.419 320.139 256.861 319.058L267.815 308.784C269.544 307.162 270.697 304.999 270.697 302.836V250.386C270.697 248.223 268.968 247.412 267.238 248.493Z" fill="#98509B"/>
    <path d="M267.527 252.819L265.509 253.9V303.377C265.509 305.269 264.356 307.703 262.626 309.325L251.672 319.599C250.23 320.95 249.366 322.573 249.077 324.195L244.177 352.583C243.889 354.475 242.447 356.368 241.006 357.179L228.034 364.208C229.187 365.02 229.475 365.29 229.763 365.56C230.34 366.371 230.916 365.02 232.07 364.208L245.618 357.449C247.348 356.638 249.366 353.664 249.654 351.772L254.266 329.061C254.554 327.439 255.419 325.547 256.861 324.465L268.391 313.38C270.121 311.758 271.274 309.595 271.274 307.432V254.982C270.986 252.819 269.256 252.008 267.527 252.819Z" fill="#FFE1FA"/>
    <path d="M229.475 366.101C228.61 366.101 228.034 365.831 227.457 365.02C227.457 364.749 226.592 364.208 225.728 363.397L224.863 362.857L240.429 354.475C241.871 353.664 243.024 352.042 243.312 350.42L248.213 322.032C248.501 320.139 249.654 318.247 251.095 316.895L262.049 306.621C263.491 305.269 264.644 303.106 264.644 301.214V249.034L266.95 247.952C268.103 247.412 269.256 247.412 270.121 247.952C270.986 248.493 271.562 249.574 271.562 250.656V303.106C271.562 305.269 270.409 307.703 268.68 309.325L257.725 319.599C256.572 320.68 255.708 322.302 255.419 323.924L250.519 352.312C250.23 354.475 248.789 356.638 246.771 357.449L231.493 365.831C230.628 366.101 230.052 366.101 229.475 366.101ZM227.457 363.127C228.034 363.668 228.61 364.208 228.899 364.479C229.187 365.02 230.34 364.749 230.628 364.479L245.906 356.098C247.348 355.286 248.501 353.664 248.789 352.042L253.69 323.654C253.978 321.761 255.131 319.869 256.572 318.517L267.527 308.243C268.968 306.891 270.121 304.729 270.121 302.836V250.386C270.121 249.574 269.833 249.034 269.544 248.763C269.256 248.493 268.68 248.493 267.815 249.034L265.797 249.845V301.214C265.797 303.377 264.644 305.81 262.914 307.703L251.96 317.976C250.807 319.058 249.942 320.68 249.654 322.302L244.753 350.69C244.465 352.853 243.024 355.016 241.006 355.827L227.457 363.127Z" fill="#16110D"/>
    <path d="M209.585 361.775C209.873 361.775 210.161 361.505 210.738 361.505C211.026 361.505 211.314 361.234 211.602 361.234C211.891 361.234 212.179 360.964 212.467 360.964C212.756 360.964 213.332 360.694 213.62 360.694C216.503 360.153 219.386 360.153 221.692 360.964L216.215 359.072C212.179 357.99 207.567 358.26 202.378 360.694L201.225 366.101L206.99 363.127C207.567 362.857 208.143 362.586 209.008 362.316C209.296 362.046 209.585 362.046 209.585 361.775Z" fill="#98509B"/>
    <path d="M213.332 360.694C216.215 360.153 214.773 360.153 217.368 360.694L216.215 360.423C212.179 359.342 207.567 359.612 202.378 362.046L201.801 365.831L206.702 363.397C207.278 363.127 213.332 360.694 213.332 360.694Z" fill="#FFE1FA"/>
    <path d="M200.36 367.453L201.801 360.153L202.09 359.883C206.99 357.449 211.891 356.909 216.503 358.26L221.98 360.153L221.404 361.505C218.809 360.964 216.215 360.694 213.62 361.234C213.044 361.234 212.756 361.505 212.467 361.505C212.179 361.505 211.891 361.505 211.891 361.775C211.602 361.775 211.314 362.046 211.026 362.046C210.738 362.046 210.449 362.316 210.161 362.316H209.873C209.585 362.316 209.585 362.316 209.296 362.586C208.72 362.857 208.143 363.127 207.567 363.397L200.36 367.453ZM203.243 361.234L202.666 364.749L206.702 362.586C207.278 362.316 208.143 362.046 208.72 361.775C209.008 361.775 209.008 361.505 209.296 361.505H209.585C209.873 361.505 210.161 361.234 210.738 361.234C211.026 361.234 211.314 360.964 211.602 360.964C211.891 360.964 212.179 360.694 212.467 360.694C212.756 360.694 213.332 360.423 213.62 360.423C214.485 360.153 215.062 360.153 215.926 360.153C211.602 358.801 207.567 359.342 203.243 361.234Z" fill="#16110D"/>
    <path d="M257.149 238.219L218.809 216.861L194.883 228.757C191.424 230.379 187.964 234.164 185.947 238.219L174.704 260.93C162.597 285.533 151.931 318.247 147.03 342.579L189.118 366.101C194.018 341.498 204.684 308.514 216.791 283.911L228.034 261.2C230.052 257.145 233.511 253.36 236.97 251.737L260.32 240.112L257.149 238.219Z" fill="#98509B"/>
    <path d="M188.541 357.72L148.183 335.55V335.009C153.084 310.406 162.02 285.533 174.128 260.93L185.37 238.219C187.388 233.893 190.847 230.108 194.595 228.486L218.809 216.32L219.097 216.59L258.879 238.49L234.376 250.656C230.916 252.278 227.746 255.793 225.728 259.848L214.485 282.288C202.09 307.162 193.442 332.035 188.541 356.638V357.72ZM149.913 334.739L187.388 355.286C192.288 330.954 201.225 306.08 213.332 281.477L224.575 258.767C226.592 254.441 230.052 250.656 233.799 249.034L255.996 237.949L218.809 217.672L195.171 229.297C191.712 230.919 188.541 234.434 186.523 238.49L175.281 261.2C163.462 285.803 154.814 310.406 149.913 334.739Z" fill="#16110D"/>
    <path d="M155.967 331.495C160.867 307.162 168.362 288.507 180.469 263.904L191.712 241.193C193.73 237.138 197.189 233.353 200.648 231.731L218.233 222.809L251.672 241.193L257.725 238.219L218.809 216.861L194.883 228.757C191.424 230.379 187.964 234.164 185.947 238.219L174.704 260.93C162.597 285.533 153.661 310.677 148.76 335.009L187.676 356.368C187.964 354.205 188.541 352.042 189.118 349.879L155.967 331.495Z" fill="#98509B"/>
    <path d="M155.102 334.198L148.183 337.713L187.1 359.072C187.676 356.909 187.964 354.746 188.541 352.583L155.102 334.198Z" fill="#FFE1FA"/>
    <path d="M188.541 357.72L148.183 335.55V335.009C153.084 310.406 162.02 285.533 174.128 260.93L185.37 238.219C187.388 233.893 190.847 230.108 194.595 228.486L218.809 216.32L219.097 216.59L258.879 238.49L251.095 242.275L217.656 223.89L200.648 232.542C197.189 234.164 194.018 237.679 192 241.734L180.758 264.444C169.515 286.885 161.732 306.08 156.543 331.494L190.271 349.609L189.982 350.961C189.694 352.853 189.118 354.746 188.829 356.638L188.541 357.72ZM149.913 334.739L187.388 355.286C187.676 353.664 187.964 352.312 188.541 350.69V350.42L155.102 332.035V331.494C160.291 305.81 168.362 286.344 179.605 263.633L190.847 240.923C192.865 236.597 196.324 232.812 200.072 231.19L217.944 221.997L251.384 240.382L255.996 238.219L218.809 217.672L195.171 229.297C191.712 230.919 188.541 234.434 186.523 238.49L175.281 261.2C163.462 285.803 154.814 310.406 149.913 334.739Z" fill="#16110D"/>
    <path d="M149.913 334.739L155.102 332.035L157.696 323.924L166.344 294.996L184.505 255.252L192.865 239.03L195.748 235.245L201.513 231.19L217.944 222.809L218.809 216.861L193.153 229.838L189.694 233.082L180.181 248.763L166.921 278.774L158.561 300.132L149.048 333.657L149.913 334.739Z" fill="#16110D"/>
    <path d="M254.882 283.779L230.317 313.123L231.45 313.958L256.015 284.613L254.882 283.779Z" fill="#16110D"/>
    <path d="M242.339 313.615L228.402 330.507L229.542 331.335L243.479 314.442L242.339 313.615Z" fill="#16110D"/>
    <path d="M217.368 330.683L216.215 329.872L227.169 316.895L228.322 317.976L217.368 330.683Z" fill="#16110D"/>
    <path d="M252.022 272.777L247.083 278.764L248.223 279.591L253.162 273.604L252.022 272.777Z" fill="#16110D"/>
    <path d="M147.607 356.909V374.212L181.334 392.867V375.023L147.607 356.909Z" fill="#98509B"/>
    <path d="M147.607 360.964V373.671L181.046 392.326V378.808L147.607 360.964Z" fill="#FFE1FA"/>
    <path d="M181.911 393.948L147.03 374.753V355.827L182.199 374.753V393.948H181.911ZM148.472 373.671L180.469 391.245V375.293L148.472 357.99V373.671Z" fill="#16110D"/>
    <path d="M184.505 402.33L174.704 407.737V221.997L184.505 216.59V402.33Z" fill="#16110D"/>
    <path d="M170.38 219.564L174.704 221.997L184.505 216.59L180.181 214.157L170.38 219.564Z" fill="#98509B"/>
    <path d="M170.38 221.457L174.704 223.89V221.997L182.776 217.672L180.181 216.049L170.38 221.457Z" fill="#FFE1FA"/>
    <path d="M170.38 405.304L174.704 407.737V221.997L170.38 219.564V405.304Z" fill="#98509B"/>
    <path d="M185.37 216.32L180.181 213.346L169.515 219.023V405.574L174.704 408.548L185.37 402.87V216.32ZM180.181 214.968L183.064 216.59L180.758 217.672L174.704 220.916L171.821 219.294L180.181 214.968ZM170.957 404.763V220.646L173.839 222.268V259.848V406.385L170.957 404.763ZM175.569 260.119V222.538L181.623 219.023L183.64 217.942V402.059L175.569 406.655V260.119Z" fill="#16110D"/>
    <path d="M222.845 251.197L200.937 238.76L201.801 237.678L223.71 250.386L222.845 251.197Z" fill="#16110D"/>
    <path d="M211.026 239.571L205.261 236.327L206.125 235.245L211.602 238.49L211.026 239.571Z" fill="#16110D"/>
    <path d="M213.969 240.002L213.36 240.919L216.051 242.492L216.661 241.574L213.969 240.002Z" fill="#16110D"/>
    <path d="M205.261 290.94L191.712 283.1L192.577 282.018L205.837 289.859L205.261 290.94Z" fill="#16110D"/>
    <path d="M200.454 292.77L199.845 293.688L202.536 295.26L203.146 294.342L200.454 292.77Z" fill="#16110D"/>
    <path d="M149.048 382.323L139.247 387.73V201.72L149.048 196.583V382.323Z" fill="#16110D"/>
    <path d="M134.635 199.287L139.247 201.72L149.048 196.583L144.724 193.88L134.635 199.287Z" fill="#98509B"/>
    <path d="M134.635 201.179L139.247 203.883V201.72L147.319 197.394L144.724 195.772L134.635 201.179Z" fill="#FFE1FA"/>
    <path d="M134.635 385.026L139.247 387.73V201.72L134.635 199.287V385.026Z" fill="#98509B"/>
    <path d="M149.913 196.043L144.724 193.069L134.058 198.746V385.297L139.247 388.271L149.913 382.593V196.043ZM144.436 194.691L147.319 196.313L145.012 197.394L138.959 200.639L136.076 199.017L144.436 194.691ZM135.5 384.756V200.639L138.382 202.261V239.841V386.378L135.5 384.756ZM139.824 239.841V202.261L146.166 198.746L148.183 197.665V381.782L139.824 386.378V239.841Z" fill="#16110D"/>
    <path d="M236.105 381.782L232.934 383.404C232.358 383.675 231.493 383.945 231.205 383.675C230.628 383.404 230.628 383.134 230.34 382.863L228.899 377.727L227.745 378.267L229.187 383.134C229.475 383.945 230.052 384.486 230.628 384.756C230.916 384.756 231.205 385.026 231.493 385.026C232.07 385.026 232.934 384.756 233.511 384.486L236.105 383.134V381.782Z" fill="#98509B"/>
    <path d="M148.76 382.052L149.913 382.863V377.727L148.76 377.186V382.052Z" fill="#98509B"/>
    <path d="M148.76 332.846L149.913 333.657V329.061L148.76 328.25V332.846Z" fill="#98509B"/>
    <path d="M184.217 252.548L185.37 253.36V240.653L184.217 239.841V252.548Z" fill="#98509B"/>
    <path d="M148.472 273.366L149.625 274.178V198.205L148.472 197.394V273.366Z" fill="#98509B"/>
    <path d="M184.217 226.864L185.37 227.675V217.672L184.217 216.861V226.864Z" fill="#98509B"/>
    <g id='box'>
        <path d="M92.8358 362.046V366.371L175.281 410.711V406.655L92.8358 362.046Z" fill="#98509B"/>
        <path d="M175.281 406.655L92.8358 362.046L102.637 356.638L185.082 401.248L175.281 406.655Z" fill="#98509B"/>
        <path d="M175.281 406.655L94.5654 362.857L102.637 358.531L183.64 402.33L175.281 406.655Z" fill="#FEDDFF"/>
        <path d="M185.658 401.519V400.978L185.082 400.707L102.925 356.368L102.637 356.098L92.8358 361.505L92.2593 361.775V362.316V366.642L174.704 410.981L175.281 411.252L175.857 410.981L185.658 405.574V401.519V401.519ZM183.929 401.248L181.623 402.6L175.281 406.115L146.165 390.163L94.2772 362.046L102.925 357.449L183.929 401.248ZM93.4124 366.101V363.127L174.416 406.926V409.9L93.4124 366.101Z" fill="#16110D"/>
        <path d="M79.2872 368.805V373.13L161.732 417.47V413.414L79.2872 368.805Z" fill="#98509B"/>
        <path d="M161.732 413.414L79.2872 368.804L89.3766 363.397L171.533 408.007L161.732 413.414Z" fill="#98509B"/>
        <path d="M161.732 413.414L81.0168 369.616L89.3766 365.29L170.092 409.089L161.732 413.414Z" fill="#FEDDFF"/>
        <path d="M172.11 408.278V407.737L171.533 407.466L89.6649 363.127L89.3766 362.857L79.5755 368.264L78.9989 368.534V369.075V373.401L161.444 417.74L162.02 418.011L162.597 417.74L172.398 412.333V408.278H172.11ZM170.38 408.007L168.074 409.359L161.732 412.874L132.617 396.922L80.7286 368.805L89.3766 364.208L170.38 408.007ZM79.8638 372.86V369.886L160.867 413.685V416.659L79.8638 372.86Z" fill="#16110D"/>
        <path d="M66.0269 376.104V380.43L148.183 424.77V420.714L66.0269 376.104Z" fill="#98509B"/>
        <path d="M148.183 420.714L66.0269 376.104L75.828 370.697L157.985 415.307L148.183 420.714Z" fill="#98509B"/>
        <path d="M148.183 420.714L67.4682 376.915L75.828 372.59L156.831 416.388L148.183 420.714Z" fill="#FEDDFF"/>
        <path d="M158.849 415.577V415.037L157.985 414.766L76.1163 370.427L75.828 370.156L66.0269 375.564L65.4503 375.834V376.375V380.701L147.895 425.04L148.472 425.31L149.048 425.04L158.849 419.633V415.577V415.577ZM156.831 415.307L154.525 416.659L148.183 420.174L119.068 404.222L67.1799 376.104L75.828 371.508L156.831 415.307ZM66.6034 380.16V377.186L147.607 420.985V423.959L66.6034 380.16Z" fill="#16110D"/>
        <path d="M52.4782 383.404V387.73L134.923 432.07V428.014L52.4782 383.404Z" fill="#98509B"/>
        <path d="M134.923 428.014L52.4782 383.404L62.2794 377.997L144.724 422.607L134.923 428.014Z" fill="#98509B"/>
        <path d="M134.923 428.014L54.2079 384.215L62.2794 379.889L143.283 423.688L134.923 428.014Z" fill="#FEDDFF"/>
        <path d="M145.301 422.877V422.336L144.724 422.066L62.5676 377.727L62.2794 377.456L52.4782 382.863L51.9017 383.134V383.675V388L134.347 432.34L134.923 432.61L135.5 432.34L145.301 426.933V422.877ZM143.571 422.607L141.265 423.959L134.923 427.473L105.808 411.522L53.9196 383.404L62.5676 378.808L143.571 422.607ZM53.0548 387.46V384.486L134.347 428.284V431.258L53.0548 387.46Z" fill="#16110D"/>
        <path d="M92.8358 348.527V352.853L175.281 397.463V393.137L92.8358 348.527Z" fill="#98509B"/>
        <path d="M175.281 393.137L92.8358 348.527L102.637 343.391L185.082 387.73L175.281 393.137Z" fill="#98509B"/>
        <path d="M175.281 393.137L94.5654 349.609L102.637 345.013L183.64 388.811L175.281 393.137Z" fill="#FEDDFF"/>
        <path d="M185.658 388.271V387.73L185.082 387.46L102.925 342.85L102.637 342.579L92.8358 347.987L92.2593 348.257V348.798V353.124L174.704 397.463L175.281 397.733L175.857 397.463L185.658 392.056V388.271V388.271ZM183.929 387.73L181.623 389.082L175.281 392.597L146.165 376.645L94.2772 348.527L102.925 343.931L183.929 387.73ZM93.4124 352.583V349.609L174.416 393.408V396.382L93.4124 352.583Z" fill="#16110D"/>
        <path d="M79.2872 355.286V359.612L161.732 404.222V399.896L79.2872 355.286Z" fill="#98509B"/>
        <path d="M161.732 399.896L79.2872 355.286L89.3766 350.15L171.533 394.489L161.732 399.896Z" fill="#98509B"/>
        <path d="M161.732 399.896L81.0168 356.368L89.3766 351.772L170.092 395.571L161.732 399.896Z" fill="#FEDDFF"/>
        <path d="M172.11 395.03V394.489L171.533 394.219L89.6649 349.609L89.3766 349.339L79.5755 354.746L78.9989 355.016V355.557V359.883L161.444 404.222L162.02 404.493L162.597 404.222L172.398 398.815V395.03H172.11ZM170.38 394.489L168.074 395.841L161.732 399.356L132.617 383.404L80.7286 355.286L89.3766 350.69L170.38 394.489ZM79.8638 359.342V356.368L160.867 400.167V403.141L79.8638 359.342Z" fill="#16110D"/>
        <path d="M66.0269 362.586V366.912L148.183 411.522V407.196L66.0269 362.586Z" fill="#98509B"/>
        <path d="M148.183 407.196L66.0269 362.586L75.828 357.449L157.985 401.789L148.183 407.196Z" fill="#98509B"/>
        <path d="M148.183 407.196L67.4682 363.668L75.828 359.072L156.831 402.87L148.183 407.196Z" fill="#FEDDFF"/>
        <path d="M158.849 402.33V401.789L157.985 401.248L76.1163 356.909L75.828 356.638L66.0269 362.046L65.4503 362.316V362.857V367.182L147.895 411.522L148.472 411.792L149.048 411.522L158.849 406.115V402.33V402.33ZM156.831 401.789L154.525 403.141L148.183 406.655L119.068 390.704L67.1799 362.586L75.828 357.99L156.831 401.789ZM66.6034 366.642V363.668L147.607 407.467V410.441L66.6034 366.642Z" fill="#16110D"/>
        <path d="M52.4782 369.886V374.212L134.923 418.822V414.496L52.4782 369.886Z" fill="#98509B"/>
        <path d="M134.923 414.496L52.4782 369.886L62.2794 364.749L144.724 409.089L134.923 414.496Z" fill="#98509B"/>
        <path d="M134.923 414.496L54.2079 370.968L62.2794 366.371L143.283 410.17L134.923 414.496Z" fill="#FEDDFF"/>
        <path d="M145.301 409.629V409.089L144.724 408.818L62.5676 364.208L62.2794 363.938L52.4782 369.345L51.9017 369.616V370.156V374.482L134.347 418.822L134.923 419.092L135.5 418.822L145.301 413.414V409.629ZM143.571 409.089L141.265 410.44L134.923 413.955L105.808 398.004L53.9196 369.886L62.5676 365.29L143.571 409.089ZM53.0548 373.941V370.967L134.347 414.766V417.74L53.0548 373.941Z" fill="#16110D"/>
        <path d="M112.438 416.118V406.655L125.122 413.414V422.607L112.438 416.118Z" fill="#98509B"/>
        <path d="M133.482 418.011L125.41 413.685V413.144L111.862 405.844V416.389L125.41 423.688V422.336L133.482 418.011ZM124.545 421.796L113.303 415.848V407.737L124.545 413.955V421.796Z" fill="#16110D"/>
        <path d="M61.1263 388V379.078L73.8101 385.837V395.03L61.1263 388Z" fill="#98509B"/>
        <path d="M82.1699 390.163L74.0984 385.837V385.297L60.5498 377.997V388.541L74.3866 395.841V394.489L82.1699 390.163ZM73.2336 393.948L61.7028 387.73V379.889L72.9453 386.108V393.948H73.2336Z" fill="#16110D"/>
        <path d="M86.2057 401.519V392.597L98.8895 399.356V408.548L86.2057 401.519Z" fill="#98509B"/>
        <path d="M107.249 403.681L99.1777 399.356V398.815L85.6291 391.245V401.789L99.1777 409.359V408.007L107.249 403.681ZM98.0247 407.467L86.7822 401.248V393.408L98.0247 399.626V407.467Z" fill="#16110D"/>
        <path d="M144.436 332.846L107.249 312.569L70.0626 332.846V372.86L107.249 393.137V352.853L144.436 332.846Z" fill="#FEDDFF"/>
        <path d="M70.0626 372.86L107.249 392.867V352.853L70.0626 332.576V372.86Z" fill="#98509B"/>
        <path d="M145.301 332.306L107.538 311.758L69.4861 332.306V333.117V373.401L106.673 393.408L107.538 393.678L108.402 393.408L145.012 373.401L145.301 373.13V333.117V332.306ZM107.249 313.38L124.834 322.843L89.0883 342.039L71.504 332.576L107.249 313.38ZM106.673 391.785L70.9274 372.59V333.928L106.673 353.123V391.785ZM122.527 343.931L107.538 352.042L89.9532 342.579L125.698 323.384L143.283 332.846L122.527 343.931Z" fill="#16110D"/>
        <path d="M92.5476 352.853L85.6291 349.068C84.7643 348.527 84.1878 348.527 83.323 349.068C82.7464 349.338 82.1699 350.149 82.1699 351.231C82.1699 352.853 83.323 355.016 84.7643 355.827L91.6828 359.612C91.971 359.883 92.5476 359.883 92.8358 359.883C93.1241 359.883 93.4124 359.883 93.7006 359.612C94.2772 359.342 94.8537 358.531 94.8537 357.449C95.142 355.557 93.9889 353.664 92.5476 352.853ZM93.1241 358.531C92.8358 358.531 92.5476 358.531 92.5476 358.531L85.6291 354.746C84.7643 354.205 83.8995 352.583 83.8995 351.501C83.8995 350.961 84.1878 350.42 84.1878 350.42C84.4761 350.42 84.7643 350.42 84.7643 350.42L85.3409 350.69C85.6291 352.312 86.4939 353.664 87.647 354.475L93.4124 357.72C93.7006 357.99 93.4124 358.26 93.1241 358.531Z" fill="#16110D"/>
        <path d="M147.607 399.896L124.834 387.46V362.857L147.607 375.293V399.896Z" fill="#98509B"/>
        <path d="M170.38 362.856L147.607 375.293L124.834 362.856L147.607 350.42L170.38 362.856Z" fill="#98509B"/>
        <path d="M170.38 365.29L149.913 376.375L127.14 363.938L147.607 352.853L170.38 365.29Z" fill="#FEDDFF"/>
        <path d="M147.607 349.609L124.834 362.045L124.257 362.316V387.73L147.03 400.167L147.607 400.437L148.183 400.167L170.957 387.73V362.857V362.045L147.607 349.609ZM147.607 351.231L169.227 362.857L158.273 368.805L147.607 374.482L144.148 372.59L125.987 362.857L147.607 351.231ZM125.41 387.189V363.938L147.03 375.564V398.815L125.41 387.189Z" fill="#16110D"/>
        <path d="M142.13 392.597L138.671 390.704C138.094 390.434 137.517 389.623 137.517 388.811V385.297C137.517 384.486 138.094 384.215 138.671 384.486L142.13 386.378C142.706 386.649 143.283 387.46 143.283 388.271V391.785C143.283 392.597 142.706 392.867 142.13 392.597Z" fill="#16110D"/>
        <path d="M145.012 350.69L143.859 351.501V334.739L145.012 333.928V350.69Z" fill="#98509B"/>
        <path d="M177.587 396.652V395.3L183.929 392.056V393.408L177.587 396.652Z" fill="#98509B"/>
    </g>

</g>
<defs>
<linearGradient id="paint0_linear_147_10961" x1="59.3747" y1="324.852" x2="355.897" y2="174.53" gradientUnits="userSpaceOnUse">
<stop stop-color="#620E66"/>
<stop offset="1" stop-color="#92108A"/>
</linearGradient>
<clipPath id="clip0_147_10961">
<rect width="415" height="420.002" fill="white" transform="translate(0.210815)"/>
</clipPath>
<clipPath id="clip1_147_10961">
<rect width="201.617" height="256.304" fill="white" transform="translate(51.9017 192.696)"/>
</clipPath>
</defs>
</svg>
