<svg width="20" height="20" viewBox="0 0 38 38" fill="none" xmlns="http://www.w3.org/2000/svg">
<path d="M24.9972 4.06018V7.05024L20.3722 11.6752V1.74768H18.0597V11.6752L13.4347 7.05024V4.06018H11.1222V22.5602C11.1254 24.5045 11.8281 26.3828 13.1019 27.8519C14.3756 29.321 16.1354 30.2827 18.0597 30.5614V35.2789H20.3722V30.5614C22.2965 30.2827 24.0563 29.321 25.33 27.8519C26.6038 26.3828 27.3065 24.5045 27.3097 22.5602V4.06018H24.9972ZM18.0597 28.2246C16.7549 27.9565 15.5824 27.2467 14.7399 26.2149C13.8974 25.183 13.4364 23.8923 13.4347 22.5602V19.5701L18.0597 24.1951V28.2246ZM18.0597 20.9252L13.4347 16.3002V10.3201L18.0597 14.9451V20.9252ZM20.3722 14.9451L24.9972 10.3201V16.3002L20.3722 20.9252V14.9451ZM20.3722 28.2246V24.1951L24.9972 19.5701V22.5602C24.9955 23.8923 24.5345 25.183 23.692 26.2149C22.8495 27.2467 21.677 27.9565 20.3722 28.2246Z" fill="#fff"/>
</svg>
