<svg width="30" height="32" viewBox="0 0 30 32" fill="none" xmlns="http://www.w3.org/2000/svg">
<path d="M12.9096 3.23903L14.196 13.8064H8.5603L6.60005 10.5929C6.1846 9.97094 5.91396 9.7401 5.12986 9.78953C4.34576 9.83897 4.45602 10.5843 4.45602 11.0039V14.2389C3.55758 14.0947 1.76068 14.2884 1.76068 16.2164C1.76068 18.1445 3.55758 18.4617 4.45602 18.3793C4.39477 19.5947 4.30901 22.1119 4.45602 22.458C4.6398 22.8905 5.44099 22.8938 6.10998 22.458C6.98691 21.8867 8.3561 19.6359 9.11162 18.3793L14.196 18.6883C13.7672 22.1902 12.9096 29.3175 12.9096 29.8118C12.9096 30.4298 13.4086 30.7936 13.9599 30.8554C14.5112 30.9172 15.1708 30.7122 15.4212 30.2444C16.1397 28.9022 18.9945 22.4374 20.5668 18.6883C22.425 18.6883 25.9752 18.9246 26.8764 18.6883C28.0416 18.3829 28.7737 17.5319 28.7737 16.2341C28.7737 14.9364 27.979 14.1771 26.8764 13.8064C25.9943 13.5097 22.3025 13.6828 20.5668 13.8064C19.015 10.2839 15.9804 3.58182 15.5883 2.88969C15.0983 2.02453 14.8718 1.69409 13.8897 1.69409C12.9096 1.69409 12.9096 2.74465 12.9096 3.23903Z" stroke="white" stroke-width="1.7" stroke-linecap="round"/>
</svg>
