<svg width="31" height="31" viewBox="0 0 31 31" fill="none" xmlns="http://www.w3.org/2000/svg">
<path d="M13.3643 30.5032H17.6918C18.3576 30.5032 18.8986 29.9622 18.8986 29.2965V10.2385C18.8986 9.6976 19.2315 9.23988 19.7308 9.11504L29.6343 6.11904C30.3 5.91098 30.6329 5.20359 30.4249 4.57942L29.1765 1.08408C28.9685 0.501527 28.3443 0.168638 27.7201 0.335082L15.8193 3.49753C15.6113 3.53914 15.4032 3.53914 15.1952 3.49753L3.25276 0.335082C2.62859 0.168638 2.00443 0.501527 1.79637 1.08408L0.548035 4.57942C0.339979 5.2452 0.672868 5.95259 1.33865 6.11904L11.2421 9.11504C11.7414 9.23988 12.0743 9.73921 12.0743 10.2385V29.3381C12.1576 29.9622 12.6985 30.5032 13.3643 30.5032Z" fill="white"/>
</svg>
