<svg width="31" height="31" viewBox="0 0 31 31" fill="none" xmlns="http://www.w3.org/2000/svg">
<path d="M11.716 2.09143L12.716 4.09143H22.716L23.716 2.09143H11.716ZM12.716 5.09143V7.59143C12.716 7.59143 12.716 13.0914 17.716 13.0914C22.716 13.0914 22.716 7.59143 22.716 7.59143V5.09143H12.716ZM4.68396 8.06343C4.15421 8.07186 3.64944 8.29014 3.28047 8.67036C2.9115 9.05058 2.70847 9.56167 2.71596 10.0914V18.0914C2.71571 18.3911 2.7828 18.687 2.91226 18.9572C3.04172 19.2274 3.23025 19.4651 3.46391 19.6527C3.69758 19.8403 3.97041 19.973 4.26224 20.0409C4.55408 20.1089 4.85745 20.1105 5.14996 20.0454L10.716 18.8054V28.0914L22.474 14.2314C22.194 14.1514 21.906 14.0914 21.598 14.0914H13.716L6.71596 15.5994V10.0914C6.71974 9.82373 6.66974 9.55799 6.56891 9.30997C6.46808 9.06195 6.31848 8.83669 6.12898 8.64757C5.93948 8.45844 5.71393 8.30928 5.46571 8.20894C5.21749 8.1086 4.95166 8.05912 4.68396 8.06343V8.06343ZM24.212 15.5134L13.54 28.0914H24.716V17.2094C24.716 16.5814 24.528 16.0014 24.212 15.5134V15.5134Z" fill="black"/>
</svg>
